<svg xmlns="http://www.w3.org/2000/svg" width="66" height="94"><path fill="#8DCF3F" d="M35.805.745l.92.015c18.812.275 29.598 16.038 29.269 38.521-.476 32.579-18.694 54.342-43.931 53.974l-12.391-.183c-5.33-12.009-8.776-27.663-8.527-44.642.437-29.825 12.636-48.006 34.66-47.685z"/><path d="M11.156 63.825c-.309-.191-.557-.537-.557-.995 0-.651.496-1.149 1.148-1.149.211 0 .42.059.572.154.977.612 1.953.917 2.777.917.84 0 1.223-.305 1.223-.765v-.037c0-.633-.996-.843-2.123-1.188-1.436-.422-3.062-1.093-3.062-3.081v-.038c0-2.087 1.684-3.255 3.75-3.255 1.072 0 2.182.288 3.176.786.42.21.689.592.689 1.089 0 .651-.516 1.149-1.166 1.149-.213 0-.348-.039-.537-.134-.822-.401-1.607-.651-2.221-.651-.707 0-1.07.307-1.07.709v.037c0 .574.977.843 2.086 1.226 1.436.478 3.1 1.168 3.1 3.042v.038c0 2.278-1.703 3.312-3.922 3.312-1.263 0-2.619-.363-3.863-1.166zm9.649-11.731c0-.841.711-1.356 1.629-1.356s1.625.517 1.625 1.356v.04c0 .842-.707 1.377-1.625 1.377s-1.629-.535-1.629-1.377v-.04zm.174 3.79c0-.803.65-1.454 1.455-1.454.803 0 1.455.651 1.455 1.454v7.578c0 .803-.652 1.454-1.455 1.454-.805 0-1.455-.651-1.455-1.454v-7.578zm5.871 6.008v-4.859h-.094c-.689 0-1.244-.555-1.244-1.244 0-.688.555-1.243 1.244-1.243h.094v-1.281c0-.805.652-1.455 1.455-1.455.805 0 1.455.65 1.455 1.455v1.281h1.281c.688 0 1.244.555 1.244 1.243 0 .689-.557 1.244-1.244 1.244h-1.281v4.382c0 .671.287.995.938.995l.346-.02c.65 0 1.205.536 1.205 1.205 0 .518-.344.938-.746 1.091-.537.212-1.033.286-1.664.286-1.782.002-2.989-.707-2.989-3.08zm11.832 3.138c-3.08 0-5.357-2.163-5.357-5.301v-.038c0-2.928 2.086-5.339 5.072-5.339 3.424 0 4.936 2.812 4.936 4.937 0 .843-.594 1.398-1.357 1.398h-5.762c.289 1.318 1.207 2.008 2.508 2.008.803 0 1.475-.248 2.066-.688.211-.152.402-.229.709-.229.648 0 1.129.497 1.129 1.148 0 .383-.172.669-.385.86-.899.766-2.067 1.244-3.559 1.244zm1.875-6.162c-.172-1.3-.938-2.183-2.16-2.183-1.207 0-1.992.861-2.221 2.183h4.381zm-29 9.705c0-.805.65-1.455 1.455-1.455.803 0 1.455.65 1.455 1.455v11.289c0 .804-.652 1.455-1.455 1.455-.805 0-1.455-.651-1.455-1.455v-11.289zm9.777 12.859c-3.08 0-5.357-2.163-5.357-5.3v-.039c0-2.927 2.086-5.339 5.07-5.339 3.424 0 4.938 2.812 4.938 4.938 0 .842-.592 1.396-1.357 1.396h-5.76c.287 1.32 1.203 2.01 2.506 2.01.805 0 1.475-.249 2.066-.688.211-.152.4-.229.707-.229.652 0 1.129.497 1.129 1.149 0 .381-.172.668-.381.859-.901.763-2.067 1.243-3.561 1.243zm1.875-6.161c-.172-1.301-.938-2.182-2.162-2.182-1.205 0-1.988.861-2.221 2.182h4.383zm3.482 2.985v-.039c0-2.237 1.703-3.271 4.133-3.271 1.035 0 1.781.173 2.508.422v-.173c0-1.206-.746-1.875-2.199-1.875-.805 0-1.455.114-2.01.287-.174.057-.287.076-.422.076-.67 0-1.207-.517-1.207-1.187 0-.518.326-.957.785-1.129.918-.345 1.914-.536 3.273-.536 1.588 0 2.734.422 3.463 1.147.766.766 1.109 1.896 1.109 3.271v4.668c0 .785-.633 1.398-1.416 1.398-.842 0-1.398-.595-1.398-1.206v-.019c-.705.784-1.684 1.3-3.098 1.3-1.933.004-3.521-1.107-3.521-3.134zm6.68-.67v-.519c-.498-.229-1.148-.382-1.855-.382-1.244 0-2.012.497-2.012 1.416v.038c0 .784.652 1.245 1.588 1.245 1.359.001 2.279-.746 2.279-1.798zm4.973-4.153h-.114c-.67 0-1.205-.516-1.205-1.185 0-.671.535-1.206 1.205-1.206h.113v-.651c0-1.13.289-1.951.824-2.486.533-.535 1.318-.806 2.354-.806.459 0 .861.021 1.186.076.498.077.998.519.998 1.168 0 .65-.537 1.206-1.189 1.206h-.246c-.672 0-1.055.344-1.055 1.109v.4h1.264c.668 0 1.205.519 1.205 1.187 0 .671-.537 1.188-1.205 1.188h-1.225v6.43c0 .805-.65 1.455-1.455 1.455s-1.455-.65-1.455-1.455v-6.43z" fill="#fff"/></svg>