<?xml version="1.0" encoding="utf-8"?>
<svg version="1.2" baseProfile="tiny-ps" xmlns="http://www.w3.org/2000/svg" xmlns:xlink="http://www.w3.org/1999/xlink" width="300px" height="300px" viewBox="0 0 300 300" xml:space="preserve">
<title>Siteleaf</title>
<path fill="#8DCF3F" d="M155.8,30.1l2.4,0c48.8,0.7,76.7,41.6,75.9,99.9c-1.2,84.5-48.5,140.9-113.9,139.9l-32.1-0.5
	c-13.8-31.1-22.8-71.7-22.1-115.7C67.1,76.4,98.7,29.3,155.8,30.1z"/>
<g>
	<path fill="#FFFFFF" d="M91.9,193.6c-0.8-0.5-1.4-1.4-1.4-2.6c0-1.7,1.3-3,3-3c0.5,0,1.1,0.1,1.5,0.4c2.5,1.6,5.1,2.4,7.2,2.4
		c2.2,0,3.2-0.8,3.2-2v-0.1c0-1.6-2.6-2.2-5.5-3.1c-3.7-1.1-7.9-2.8-7.9-8v-0.1c0-5.4,4.4-8.4,9.7-8.4c2.8,0,5.7,0.7,8.2,2
		c1.1,0.5,1.8,1.5,1.8,2.8c0,1.7-1.3,3-3,3c-0.5,0-0.9-0.1-1.4-0.3c-2.1-1-4.2-1.7-5.8-1.7c-1.8,0-2.8,0.8-2.8,1.8v0.1
		c0,1.5,2.5,2.2,5.4,3.2c3.7,1.2,8,3,8,7.9v0.1c0,5.9-4.4,8.6-10.2,8.6C98.6,196.6,95.1,195.7,91.9,193.6z"/>
	<path fill="#FFFFFF" d="M116.9,163.2c0-2.2,1.8-3.5,4.2-3.5c2.4,0,4.2,1.3,4.2,3.5v0.1c0,2.2-1.8,3.6-4.2,3.6
		C118.8,166.9,116.9,165.5,116.9,163.2L116.9,163.2z M117.4,173c0-2.1,1.7-3.8,3.8-3.8c2.1,0,3.8,1.7,3.8,3.8v19.6
		c0,2.1-1.7,3.8-3.8,3.8c-2.1,0-3.8-1.7-3.8-3.8V173z"/>
	<path fill="#FFFFFF" d="M132.6,188.6V176h-0.2c-1.8,0-3.2-1.4-3.2-3.2c0-1.8,1.4-3.2,3.2-3.2h0.2v-3.3c0-2.1,1.7-3.8,3.8-3.8
		c2.1,0,3.8,1.7,3.8,3.8v3.3h3.3c1.8,0,3.2,1.4,3.2,3.2c0,1.8-1.4,3.2-3.2,3.2h-3.3v11.4c0,1.7,0.7,2.6,2.4,2.6c0.2,0,0.7,0,0.9,0
		c1.7,0,3.1,1.4,3.1,3.1c0,1.3-0.9,2.4-1.9,2.8c-1.4,0.5-2.7,0.7-4.3,0.7C135.7,196.6,132.6,194.8,132.6,188.6z"/>
	<path fill="#FFFFFF" d="M163.3,196.7c-8,0-13.9-5.6-13.9-13.7v-0.1c0-7.6,5.4-13.8,13.1-13.8c8.9,0,12.8,7.3,12.8,12.8
		c0,2.2-1.5,3.6-3.5,3.6h-14.9c0.7,3.4,3.1,5.2,6.5,5.2c2.1,0,3.8-0.6,5.4-1.8c0.5-0.4,1-0.6,1.8-0.6c1.7,0,2.9,1.3,2.9,3
		c0,1-0.4,1.7-1,2.2C170.2,195.5,167.1,196.7,163.3,196.7z M168.1,180.8c-0.4-3.4-2.4-5.7-5.6-5.7c-3.1,0-5.2,2.2-5.8,5.7H168.1z"
		/>
	<path fill="#FFFFFF" d="M92.9,205.9c0-2.1,1.7-3.8,3.8-3.8c2.1,0,3.8,1.7,3.8,3.8v29.3c0,2.1-1.7,3.8-3.8,3.8
		c-2.1,0-3.8-1.7-3.8-3.8V205.9z"/>
	<path fill="#FFFFFF" d="M118.3,239.3c-8,0-13.9-5.6-13.9-13.7v-0.1c0-7.6,5.4-13.8,13.1-13.8c8.9,0,12.8,7.3,12.8,12.8
		c0,2.2-1.5,3.6-3.5,3.6h-14.9c0.7,3.4,3.1,5.2,6.5,5.2c2.1,0,3.8-0.6,5.4-1.8c0.5-0.4,1-0.6,1.8-0.6c1.7,0,2.9,1.3,2.9,3
		c0,1-0.4,1.7-1,2.2C125.2,238,122.2,239.3,118.3,239.3z M123.2,223.3c-0.4-3.4-2.4-5.7-5.6-5.7c-3.1,0-5.2,2.2-5.8,5.7H123.2z"/>
	<path fill="#FFFFFF" d="M132.2,231L132.2,231c0-5.9,4.4-8.6,10.7-8.6c2.7,0,4.6,0.4,6.5,1.1v-0.4c0-3.1-1.9-4.9-5.7-4.9
		c-2.1,0-3.8,0.3-5.2,0.7c-0.4,0.1-0.7,0.2-1.1,0.2c-1.7,0-3.1-1.3-3.1-3.1c0-1.3,0.8-2.5,2-2.9c2.4-0.9,5-1.4,8.5-1.4
		c4.1,0,7.1,1.1,9,3c2,2,2.9,4.9,2.9,8.5v12.1c0,2-1.6,3.6-3.7,3.6c-2.2,0-3.6-1.5-3.6-3.1v0c-1.8,2-4.4,3.4-8,3.4
		C136.3,239.2,132.2,236.3,132.2,231z M149.5,229.3V228c-1.3-0.6-3-1-4.8-1c-3.2,0-5.2,1.3-5.2,3.7v0.1c0,2,1.7,3.2,4.1,3.2
		C147.1,234,149.5,232,149.5,229.3z"/>
	<path fill="#FFFFFF" d="M162.4,218.5h-0.3c-1.7,0-3.1-1.3-3.1-3.1s1.4-3.1,3.1-3.1h0.3v-1.7c0-2.9,0.7-5.1,2.1-6.4
		c1.4-1.4,3.4-2.1,6.1-2.1c1.2,0,2.2,0,3.1,0.2c1.3,0.2,2.6,1.3,2.6,3c0,1.7-1.4,3.1-3.1,3.1h-0.6c-1.7,0-2.7,0.9-2.7,2.9v1h3.3
		c1.7,0,3.1,1.3,3.1,3.1s-1.4,3.1-3.1,3.1h-3.2v16.7c0,2.1-1.7,3.8-3.8,3.8c-2.1,0-3.8-1.7-3.8-3.8V218.5z"/>
</g>
</svg>
