<?xml version="1.0" encoding="utf-8"?>
<!-- Generator: Adobe Illustrator 16.0.0, SVG Export Plug-In . SVG Version: 6.00 Build 0)  -->
<!DOCTYPE svg PUBLIC "-//W3C//DTD SVG 1.1//EN" "http://www.w3.org/Graphics/SVG/1.1/DTD/svg11.dtd">
<svg version="1.1" id="Layer_1" xmlns="http://www.w3.org/2000/svg" xmlns:xlink="http://www.w3.org/1999/xlink" x="0px" y="0px"
	 width="250px" height="250px" viewBox="0 0 250 250" enable-background="new 0 0 250 250" xml:space="preserve">
<circle fill="#FFFFFF" cx="125.643" cy="124.318" r="122.947"/>
<circle fill="#E7F2F0" cx="125.623" cy="131.121" r="38.625"/>
<g>
	<circle fill="#99D9FF" cx="125.623" cy="124.318" r="38.625"/>
	<g>
		<path fill="#00A1FF" d="M146.653,144.489v-11.161c0-6.729-5.454-12.184-12.185-12.184h-17.692
			c-6.729,0-12.184,5.455-12.184,12.184v11.161H146.653z"/>
		<circle fill="#FFFFFF" cx="125.623" cy="111.602" r="13.269"/>
	</g>
</g>
<polyline fill="#E7F2F0" points="62.66,125.19 43.876,143.976 25.091,125.19 "/>
<polyline fill="#E7F2F0" points="188.255,134.26 207.04,115.477 225.825,134.261 "/>
<g>
	<g>
		<path fill="#E7F2F0" d="M210.408,94.866c-12.526-34.722-45.765-59.545-84.805-59.545c-49.779,0-90.132,40.354-90.132,90.13h16.303
			c0-40.772,33.054-73.827,73.829-73.827c34.739,0,63.867,23.996,71.731,56.314L210.408,94.866z"/>
	</g>
</g>
<path fill="#E7F2F0" d="M199.434,134.042c-4.511,36.452-35.59,64.671-73.264,64.671c-32.295,0-59.74-20.739-69.76-49.622
	l-12.55,12.55c14.067,31.454,45.624,53.376,82.311,53.376c46.688,0,85.083-35.498,89.672-80.975H199.434z"/>
<g>
	<circle fill="#1471AC" cx="199.792" cy="89.464" r="19.588"/>
	<g>
		<path fill="#00A1FF" d="M210.457,98.839v-5.11c0-3.413-2.765-6.179-6.178-6.179h-8.973c-3.413,0-6.179,2.766-6.179,6.179v5.11
			H210.457z"/>
		<circle fill="#FFFFFF" cx="199.793" cy="83.311" r="6.729"/>
	</g>
</g>
<g>
	<circle fill="#1471AC" cx="52.408" cy="89.464" r="19.588"/>
	<g>
		<path fill="#00A1FF" d="M63.073,98.839v-6.243c0-3.414-2.767-6.18-6.179-6.18h-8.972c-3.412,0-6.179,2.766-6.179,6.18v6.243
			H63.073z"/>
		<circle fill="#FFFFFF" cx="52.408" cy="83.311" r="6.729"/>
	</g>
</g>
<g>
	<circle fill="#1471AC" cx="126.101" cy="44.709" r="19.588"/>
	<g>
		<path fill="#00A1FF" d="M136.766,54.084v-5.109c0-3.413-2.767-6.179-6.18-6.179h-8.971c-3.413,0-6.179,2.767-6.179,6.179v5.109
			H136.766z"/>
		<circle fill="#FFFFFF" cx="126.101" cy="38.556" r="6.729"/>
	</g>
</g>
<g>
	<circle fill="#1471AC" cx="128.635" cy="204.851" r="19.588"/>
	<g>
		<path fill="#00A1FF" d="M139.301,214.792v-5.109c0-3.413-2.767-6.18-6.181-6.18h-8.972c-3.413,0-6.179,2.767-6.179,6.18v5.109
			H139.301z"/>
		<circle fill="#FFFFFF" cx="128.635" cy="199.264" r="6.729"/>
	</g>
</g>
<g>
	<circle fill="#1471AC" cx="197.028" cy="167.618" r="19.587"/>
	<g>
		<path fill="#00A1FF" d="M207.694,176.994v-5.109c0-3.413-2.767-6.179-6.18-6.179h-8.973c-3.412,0-6.179,2.766-6.179,6.179v5.109
			H207.694z"/>
		<circle fill="#FFFFFF" cx="197.029" cy="161.466" r="6.729"/>
	</g>
</g>
<g>
	<circle fill="#1471AC" cx="60.242" cy="167.618" r="19.588"/>
	<g>
		<path fill="#00A1FF" d="M70.907,176.994v-5.109c0-3.413-2.766-6.179-6.179-6.179h-8.972c-3.413,0-6.179,2.766-6.179,6.179v5.109
			H70.907z"/>
		<circle fill="#FFFFFF" cx="60.242" cy="161.466" r="6.729"/>
	</g>
</g>
</svg>
