<?xml version="1.0" encoding="utf-8"?>
<!-- Generator: Adobe Illustrator 16.0.0, SVG Export Plug-In . SVG Version: 6.00 Build 0)  -->
<!DOCTYPE svg PUBLIC "-//W3C//DTD SVG 1.1//EN" "http://www.w3.org/Graphics/SVG/1.1/DTD/svg11.dtd">
<svg version="1.1" id="Layer_1" xmlns="http://www.w3.org/2000/svg" xmlns:xlink="http://www.w3.org/1999/xlink" x="0px" y="0px"
	 width="250px" height="250px" viewBox="0 0 250 250" enable-background="new 0 0 250 250" xml:space="preserve">
<circle fill="#FFFFFF" cx="125.581" cy="124.359" r="121.078"/>
<path fill="#E7F2F0" d="M168.17,148.312l1.118,14.201v4.563c0,1.17-0.855,2.135-1.971,2.322h-16.906v3.461v1.102v12.354
	c-0.091,1.077-0.899,1.946-1.952,2.122h-75.46v4.563c0,1.304,1.057,2.36,2.361,2.36h78.355c1.927,0,3.305-1.574,3.305-3.305v-1.81
	v-1.81V176.32h15.57c1.856,0,3.304-1.259,3.304-3.305v-3.617V156.76h11.257l4.485-0.02h0.786c1.229,0,2.224-0.995,2.224-2.223
	v-0.621V75.182l-8.554-8.755l-2.409,81.885H168.17z"/>
<g>
	<path fill="#1471AC" d="M189.074,149.235c0,1.304-1.058,2.36-2.359,2.36h-78.783c-1.304,0-2.361-1.057-2.361-2.36V47.741
		c0-1.303,1.057-2.36,2.361-2.36h57.119l24.023,24.076V149.235z"/>
	<path fill="#00A1FF" d="M189.119,69.456h-21.393c-1.479,0-2.676-1.198-2.676-2.674V45.388
		C170.896,51.232,186.71,67.047,189.119,69.456z"/>
</g>
<g>
	<path fill="#00A1FF" d="M170.191,168.117c0,1.305-1.056,2.36-2.359,2.36H89.049c-1.304,0-2.36-1.056-2.36-2.36V66.624
		c0-1.303,1.057-2.361,2.36-2.361h57.119l24.023,24.076V168.117z"/>
	<path fill="#99D9FF" d="M170.236,88.339h-21.393c-1.478,0-2.676-1.198-2.676-2.674V64.271
		C152.014,70.115,167.828,85.93,170.236,88.339z"/>
</g>
<g>
	<path fill="#99D9FF" d="M151.31,187.472c0,1.303-1.056,2.36-2.359,2.36H70.167c-1.303,0-2.361-1.058-2.361-2.36V85.979
		c0-1.304,1.058-2.361,2.361-2.361h57.119l24.023,24.076V187.472z"/>
	<path fill="#FFFFFF" d="M151.355,107.693h-21.395c-1.479,0-2.675-1.198-2.675-2.675V83.626
		C133.131,89.47,148.944,105.284,151.355,107.693z"/>
	<rect x="80.519" y="94.654" fill="#00A1FF" width="36.73" height="6.903"/>
	<rect x="80.519" y="113.891" fill="#00A1FF" width="36.257" height="6.903"/>
	<rect x="80.754" y="152.363" fill="#00A1FF" width="59.86" height="6.904"/>
	<rect x="80.519" y="133.128" fill="#00A1FF" width="59.86" height="6.902"/>
	<rect x="80.519" y="171.601" fill="#00A1FF" width="59.86" height="6.902"/>
</g>
</svg>
