<?xml version="1.0" encoding="utf-8"?>
<!-- Generator: Adobe Illustrator 16.2.0, SVG Export Plug-In . SVG Version: 6.00 Build 0)  -->
<!DOCTYPE svg PUBLIC "-//W3C//DTD SVG 1.1//EN" "http://www.w3.org/Graphics/SVG/1.1/DTD/svg11.dtd">
<svg version="1.1" id="Layer_1" xmlns="http://www.w3.org/2000/svg" xmlns:xlink="http://www.w3.org/1999/xlink" x="0px" y="0px"
	 width="250px" height="250px" viewBox="0 0 250 250" enable-background="new 0 0 250 250" xml:space="preserve">
<path fill="#1471AC" d="M210.781,36.231c-22.112-21.391-52.229-34.56-85.425-34.56c-33.197,0-63.312,13.169-85.425,34.561
	L210.781,36.231L210.781,36.231z"/>
<path fill="#FFFFFF" d="M210.781,36.231H39.931C16.837,58.572,2.475,89.883,2.475,124.553c0,67.866,55.015,122.882,122.881,122.882
	c67.867,0,122.882-55.017,122.882-122.883C248.238,89.883,233.876,58.572,210.781,36.231z"/>
<path fill="#E7F2F0" d="M219.036,96.459h-5.507v11.742h0.381v60.742c-0.11,1.302-1.086,2.348-2.354,2.56H40.824v5.505
	c0,1.572,1.275,2.848,2.848,2.848h174.225c2.324,0,3.984-1.898,3.984-3.984v-2.184v-2.185v-63.301v-7.531v-1.363
	C221.881,97.733,220.607,96.459,219.036,96.459z"/>
<path fill="#99D9FF" d="M213.148,89.636h-80.707l-6.709-6.709l-6.709,6.709h-80.71c-1.44,0-2.606,1.167-2.606,2.607v79.25
	c0,1.438,1.167,2.606,2.606,2.606h174.835c1.44,0,2.608-1.168,2.608-2.606v-79.25C215.758,90.803,214.59,89.636,213.148,89.636z"/>
<path fill="#00A1FF" d="M215.758,113.267V92.243c0-1.439-1.168-2.606-2.607-2.606h-80.707l-6.711-6.71l-6.708,6.71H38.313
	c-1.44,0-2.607,1.167-2.607,2.606v21.024H215.758z"/>
<path fill="#E7F2F0" d="M231.177,62.067c-5.628-9.511-12.501-18.198-20.396-25.835H39.931c-7.896,7.638-14.767,16.324-20.396,25.835
	H231.177z"/>
<circle fill="#99D9FF" cx="89.955" cy="48.84" r="7.335"/>
<circle fill="#99D9FF" cx="56.126" cy="48.84" r="7.335"/>
<circle fill="#99D9FF" cx="159.312" cy="48.84" r="7.335"/>
<circle fill="#99D9FF" cx="192.574" cy="48.84" r="7.334"/>
<circle fill="#00A1FF" cx="125.483" cy="48.84" r="7.335"/>
<circle fill="#FFFFFF" cx="49.317" cy="129.866" r="3.249"/>
<circle fill="#FFFFFF" cx="49.317" cy="159.31" r="3.249"/>
<rect x="35.707" y="143.443" fill="#FFFFFF" width="180.051" height="1.898"/>
<rect x="65.69" y="153.504" fill="none" width="127.542" height="15.186"/>
<g enable-background="new    ">
	<path fill="#1471AC" d="M66.717,156.335h0.852l0.088,0.877h0.038c0.526-0.577,1.165-1.027,1.892-1.027
		c0.927,0,1.428,0.438,1.679,1.165c0.639-0.689,1.265-1.165,2.004-1.165c1.253,0,1.854,0.826,1.854,2.38v3.858h-1.027v-3.721
		c0-1.14-0.363-1.629-1.127-1.629c-0.476,0-0.964,0.313-1.528,0.939v4.41h-1.027v-3.721c0-1.14-0.363-1.629-1.14-1.629
		c-0.451,0-0.965,0.313-1.528,0.939v4.41h-1.027V156.335z"/>
	<path fill="#1471AC" d="M77.151,164.189c0.689,0,1.127-0.552,1.378-1.303l0.138-0.451l-2.443-6.101h1.065l1.24,3.369
		c0.188,0.526,0.401,1.152,0.588,1.717h0.05c0.175-0.552,0.351-1.178,0.514-1.717l1.09-3.369h1.002l-2.292,6.589
		c-0.426,1.203-1.053,2.117-2.28,2.117c-0.275,0-0.514-0.05-0.714-0.125l0.2-0.814C76.813,164.139,77.001,164.189,77.151,164.189z"
		/>
	<path fill="#1471AC" d="M82.788,161.045c0.526,0.426,1.065,0.727,1.792,0.727c0.802,0,1.203-0.426,1.203-0.952
		c0-0.626-0.727-0.902-1.391-1.152c-0.864-0.313-1.816-0.727-1.816-1.754c0-0.978,0.777-1.729,2.092-1.729
		c0.764,0,1.428,0.312,1.892,0.688l-0.489,0.651c-0.413-0.312-0.852-0.538-1.391-0.538c-0.764,0-1.115,0.413-1.115,0.877
		c0,0.563,0.664,0.789,1.353,1.052c0.877,0.326,1.854,0.689,1.854,1.842c0,0.989-0.789,1.816-2.23,1.816
		c-0.864,0-1.691-0.363-2.268-0.84L82.788,161.045z"/>
	<path fill="#1471AC" d="M88.012,154.418c0-0.401,0.313-0.664,0.714-0.664s0.714,0.263,0.714,0.664c0,0.388-0.313,0.664-0.714,0.664
		S88.012,154.806,88.012,154.418z M88.2,156.335h1.027v6.088H88.2V156.335z"/>
	<path fill="#1471AC" d="M91.457,157.174h-0.902v-0.776l0.952-0.062l0.125-1.704h0.864v1.704h1.641v0.839h-1.641v3.383
		c0,0.751,0.238,1.177,0.94,1.177c0.213,0,0.488-0.087,0.689-0.162l0.2,0.776c-0.338,0.112-0.751,0.226-1.127,0.226
		c-1.303,0-1.741-0.827-1.741-2.029V157.174z"/>
	<path fill="#1471AC" d="M97.67,156.185c1.553,0,2.43,1.114,2.43,2.855c0,0.213-0.013,0.414-0.037,0.564h-4.109
		c0.075,1.315,0.864,2.142,2.029,2.142c0.576,0,1.065-0.188,1.517-0.476l0.363,0.677c-0.526,0.338-1.178,0.626-2.005,0.626
		c-1.629,0-2.919-1.19-2.919-3.182C94.938,157.399,96.279,156.185,97.67,156.185z M99.198,158.928c0-1.24-0.552-1.93-1.504-1.93
		c-0.852,0-1.628,0.702-1.754,1.93H99.198z"/>
</g>
<g enable-background="new    ">
	<path fill="#00A1FF" d="M102.267,160.995c0.401,0,0.739,0.325,0.739,0.802c0,0.45-0.338,0.776-0.739,0.776
		c-0.414,0-0.751-0.326-0.751-0.776C101.516,161.32,101.854,160.995,102.267,160.995z"/>
	<path fill="#00A1FF" d="M106.952,156.185c0.702,0,1.165,0.263,1.704,0.701l-0.05-1.04v-2.343h1.04v8.92h-0.852l-0.088-0.714h-0.038
		c-0.476,0.463-1.127,0.864-1.841,0.864c-1.528,0-2.518-1.152-2.518-3.182C104.309,157.412,105.562,156.185,106.952,156.185z
		 M107.053,161.709c0.563,0,1.052-0.275,1.553-0.84v-3.182c-0.514-0.464-0.977-0.639-1.478-0.639c-0.978,0-1.754,0.939-1.754,2.33
		C105.374,160.832,105.988,161.709,107.053,161.709z"/>
	<path fill="#00A1FF" d="M113.979,156.185c1.554,0,2.431,1.114,2.431,2.855c0,0.213-0.013,0.414-0.038,0.564h-4.109
		c0.075,1.315,0.865,2.142,2.03,2.142c0.576,0,1.064-0.188,1.516-0.476l0.363,0.677c-0.526,0.338-1.178,0.626-2.004,0.626
		c-1.628,0-2.919-1.19-2.919-3.182C111.249,157.399,112.589,156.185,113.979,156.185z M115.508,158.928
		c0-1.24-0.551-1.93-1.503-1.93c-0.852,0-1.629,0.702-1.754,1.93H115.508z"/>
	<path fill="#00A1FF" d="M116.873,156.335h1.065l1.152,3.457c0.175,0.602,0.376,1.215,0.564,1.792h0.05
		c0.175-0.577,0.376-1.19,0.551-1.792l1.152-3.457h1.015l-2.155,6.088h-1.203L116.873,156.335z"/>
</g>
<rect x="65.69" y="124.465" fill="none" width="127.542" height="15.184"/>
<g enable-background="new    ">
	<path fill="#1471AC" d="M66.554,132.006c0.526,0.426,1.065,0.727,1.792,0.727c0.802,0,1.203-0.426,1.203-0.952
		c0-0.626-0.727-0.902-1.391-1.152c-0.864-0.313-1.816-0.727-1.816-1.754c0-0.978,0.777-1.729,2.092-1.729
		c0.764,0,1.428,0.312,1.892,0.688l-0.489,0.651c-0.413-0.312-0.852-0.538-1.391-0.538c-0.764,0-1.115,0.413-1.115,0.877
		c0,0.563,0.664,0.789,1.353,1.052c0.877,0.326,1.854,0.689,1.854,1.842c0,0.989-0.789,1.816-2.23,1.816
		c-0.864,0-1.691-0.363-2.268-0.84L66.554,132.006z"/>
	<path fill="#1471AC" d="M71.777,125.379c0-0.401,0.313-0.664,0.714-0.664s0.714,0.263,0.714,0.664c0,0.388-0.313,0.664-0.714,0.664
		S71.777,125.767,71.777,125.379z M71.965,127.296h1.027v6.088h-1.027V127.296z"/>
	<path fill="#1471AC" d="M75.222,128.135H74.32v-0.776l0.952-0.062l0.125-1.704h0.864v1.704h1.641v0.839h-1.641v3.383
		c0,0.751,0.238,1.177,0.94,1.177c0.213,0,0.488-0.087,0.689-0.162l0.2,0.776c-0.338,0.112-0.751,0.226-1.127,0.226
		c-1.303,0-1.741-0.827-1.741-2.029V128.135z"/>
	<path fill="#1471AC" d="M81.435,127.146c1.554,0,2.431,1.114,2.431,2.855c0,0.213-0.013,0.414-0.038,0.564h-4.109
		c0.075,1.315,0.865,2.142,2.03,2.142c0.576,0,1.064-0.188,1.516-0.476l0.363,0.677c-0.526,0.338-1.178,0.626-2.004,0.626
		c-1.628,0-2.919-1.19-2.919-3.182C78.704,128.36,80.044,127.146,81.435,127.146z M82.963,129.889c0-1.24-0.551-1.93-1.503-1.93
		c-0.852,0-1.629,0.702-1.754,1.93H82.963z"/>
	<path fill="#1471AC" d="M85.406,124.464h1.027v7.768c0,0.325,0.138,0.451,0.288,0.451c0.062,0,0.113,0,0.226-0.025l0.138,0.776
		c-0.138,0.062-0.313,0.101-0.589,0.101c-0.777,0-1.09-0.488-1.09-1.378V124.464z"/>
	<path fill="#1471AC" d="M90.88,127.146c1.554,0,2.431,1.114,2.431,2.855c0,0.213-0.013,0.414-0.038,0.564h-4.109
		c0.075,1.315,0.865,2.142,2.03,2.142c0.576,0,1.064-0.188,1.516-0.476l0.363,0.677c-0.526,0.338-1.178,0.626-2.004,0.626
		c-1.628,0-2.919-1.19-2.919-3.182C88.149,128.36,89.489,127.146,90.88,127.146z M92.408,129.889c0-1.24-0.551-1.93-1.503-1.93
		c-0.852,0-1.629,0.702-1.754,1.93H92.408z"/>
	<path fill="#1471AC" d="M98.121,129.525c0-0.776-0.264-1.528-1.253-1.528c-0.714,0-1.341,0.325-1.816,0.651l-0.414-0.714
		c0.563-0.363,1.416-0.789,2.393-0.789c1.49,0,2.117,0.989,2.117,2.505v3.733h-0.853l-0.088-0.727h-0.024
		c-0.589,0.476-1.266,0.877-2.018,0.877c-1.027,0-1.791-0.639-1.791-1.729C94.375,130.478,95.527,129.813,98.121,129.525z
		 M96.455,132.707c0.588,0,1.077-0.288,1.666-0.814v-1.69c-2.042,0.25-2.731,0.751-2.731,1.528
		C95.39,132.419,95.854,132.707,96.455,132.707z"/>
	<path fill="#1471AC" d="M103.832,125.304c-0.226-0.101-0.463-0.15-0.688-0.15c-0.576,0-0.853,0.4-0.853,1.178v0.965h1.291v0.839
		h-1.291v5.249h-1.027v-5.249h-0.826v-0.776l0.826-0.062v-0.965c0-1.24,0.564-2.018,1.779-2.018c0.376,0,0.739,0.088,1.015,0.201
		L103.832,125.304z"/>
</g>
<g enable-background="new    ">
	<path fill="#00A1FF" d="M105.511,131.956c0.401,0,0.739,0.325,0.739,0.802c0,0.45-0.338,0.776-0.739,0.776
		c-0.414,0-0.751-0.326-0.751-0.776C104.76,132.281,105.098,131.956,105.511,131.956z"/>
	<path fill="#00A1FF" d="M110.196,127.146c0.702,0,1.165,0.263,1.704,0.701l-0.05-1.04v-2.343h1.04v8.92h-0.852l-0.088-0.714h-0.038
		c-0.476,0.463-1.127,0.864-1.841,0.864c-1.528,0-2.518-1.152-2.518-3.182C107.553,128.373,108.806,127.146,110.196,127.146z
		 M110.297,132.67c0.563,0,1.052-0.275,1.553-0.84v-3.182c-0.514-0.464-0.977-0.639-1.478-0.639c-0.978,0-1.754,0.939-1.754,2.33
		C108.618,131.793,109.232,132.67,110.297,132.67z"/>
	<path fill="#00A1FF" d="M117.224,127.146c1.554,0,2.431,1.114,2.431,2.855c0,0.213-0.013,0.414-0.038,0.564h-4.109
		c0.075,1.315,0.865,2.142,2.03,2.142c0.576,0,1.064-0.188,1.516-0.476l0.363,0.677c-0.526,0.338-1.178,0.626-2.004,0.626
		c-1.628,0-2.919-1.19-2.919-3.182C114.493,128.36,115.833,127.146,117.224,127.146z M118.752,129.889c0-1.24-0.551-1.93-1.503-1.93
		c-0.852,0-1.629,0.702-1.754,1.93H118.752z"/>
	<path fill="#00A1FF" d="M120.117,127.296h1.065l1.152,3.457c0.175,0.602,0.376,1.215,0.564,1.792h0.05
		c0.175-0.577,0.376-1.19,0.551-1.792l1.152-3.457h1.015l-2.155,6.088h-1.203L120.117,127.296z"/>
</g>
<rect x="35.707" y="113.268" fill="#FFFFFF" width="180.051" height="1.898"/>
</svg>
