<svg xmlns="http://www.w3.org/2000/svg" viewBox="0 0 971.032 756" enable-background="new 0 0 971.032 756"><path fill="#8DCF3F" d="M649.13 318.52c0-7.776 2.491-14.954 6.688-20.831-17.209-2.695-30.39-17.543-30.39-35.509 0-19.877 16.112-35.99 35.988-35.99.622 0 1.231.062 1.845.093-10.579-32.778-26.963-60.312-48.604-81.076-8.468 14.437-24.106 24.159-42.056 24.159-26.932 0-48.765-21.833-48.765-48.767 0-5.982 1.129-11.688 3.098-16.984-7.205-.967-14.639-1.526-22.304-1.638l-5.414-.086c-129.937-1.891-201.918 105.373-204.492 281.339-1.462 100.175 18.856 192.537 50.312 263.388l73.097 1.071c142.565 2.083 247.152-115.561 258.249-294.293-15.647-3.909-27.252-18.019-27.252-34.876z"/><circle fill="#fff" cx="403.973" cy="252.835" r="23.494"/><g fill="#fff"><path d="M353.782 474.062c-1.807-1.129-3.274-3.163-3.274-5.872 0-3.838 2.936-6.774 6.774-6.774 1.24 0 2.482.338 3.387.902 5.756 3.614 11.515 5.419 16.369 5.419 4.967 0 7.225-1.805 7.225-4.514v-.225c0-3.728-5.87-4.97-12.53-7.001-8.468-2.484-18.064-6.437-18.064-18.175v-.228c0-12.306 9.935-19.192 22.127-19.192 6.323 0 12.871 1.693 18.742 4.629 2.482 1.242 4.062 3.501 4.062 6.435 0 3.84-3.047 6.773-6.885 6.773-1.242 0-2.033-.225-3.163-.789-4.854-2.371-9.481-3.838-13.095-3.838-4.176 0-6.323 1.805-6.323 4.176v.227c0 3.385 5.758 4.968 12.306 7.226 8.468 2.822 18.289 6.885 18.289 17.948v.227c0 13.436-10.047 19.531-23.142 19.531-7.453 0-15.467-2.144-22.805-6.885zM410.726 404.857c0-4.968 4.176-8.017 9.594-8.017 5.42 0 9.597 3.049 9.597 8.017v.225c0 4.969-4.176 8.129-9.597 8.129-5.418 0-9.594-3.16-9.594-8.129v-.225zm1.015 22.351c0-4.74 3.838-8.578 8.579-8.578 4.743 0 8.581 3.838 8.581 8.578v44.707c0 4.743-3.838 8.581-8.581 8.581-4.741 0-8.579-3.838-8.579-8.581v-44.707zM446.387 462.659v-28.677h-.564c-4.065 0-7.339-3.271-7.339-7.339 0-4.062 3.274-7.336 7.339-7.336h.564v-7.563c0-4.742 3.838-8.58 8.581-8.58 4.741 0 8.579 3.838 8.579 8.58v7.563h7.565c4.063 0 7.336 3.273 7.336 7.336 0 4.067-3.273 7.339-7.336 7.339h-7.565v25.854c0 3.952 1.693 5.87 5.532 5.87.564 0 1.693-.111 2.033-.111 3.838 0 7.112 3.16 7.112 7.112 0 3.049-2.033 5.531-4.402 6.434-3.163 1.242-6.096 1.693-9.823 1.693-10.5 0-17.612-4.176-17.612-18.175zM516.191 481.174c-18.178 0-31.612-12.757-31.612-31.271v-.228c0-17.271 12.306-31.496 29.919-31.496 20.207 0 29.124 16.595 29.124 29.125 0 4.97-3.498 8.241-8.015 8.241h-33.98c1.694 7.792 7.112 11.854 14.789 11.854 4.742 0 8.692-1.467 12.191-4.062 1.244-.902 2.373-1.356 4.178-1.356 3.841 0 6.663 2.937 6.663 6.774 0 2.258-1.019 3.952-2.258 5.081-5.308 4.516-12.193 7.338-20.999 7.338zm11.064-36.353c-1.018-7.677-5.533-12.87-12.758-12.87-7.114 0-11.742 5.08-13.098 12.87h25.856zM356.153 502.074c0-4.74 3.838-8.579 8.579-8.579 4.743 0 8.581 3.839 8.581 8.579v66.607c0 4.742-3.838 8.583-8.581 8.583-4.74 0-8.579-3.841-8.579-8.583v-66.607zM413.841 577.94c-18.177 0-31.612-12.757-31.612-31.271v-.227c0-17.273 12.306-31.497 29.919-31.497 20.207 0 29.125 16.593 29.125 29.126 0 4.967-3.499 8.24-8.015 8.24h-33.981c1.694 7.79 7.112 11.855 14.789 11.855 4.743 0 8.694-1.47 12.192-4.065 1.242-.902 2.372-1.355 4.178-1.355 3.838 0 6.661 2.938 6.661 6.774 0 2.258-1.016 3.951-2.258 5.08-5.307 4.517-12.192 7.34-20.998 7.34zm11.064-36.35c-1.016-7.677-5.532-12.873-12.757-12.873-7.114 0-11.741 5.081-13.097 12.873h25.854zM445.449 559.2v-.227c0-13.208 10.048-19.305 24.385-19.305 6.096 0 10.499 1.016 14.788 2.485v-1.019c0-7.111-4.402-11.063-12.981-11.063-4.743 0-8.581.679-11.855 1.694-1.016.338-1.693.453-2.484.453-3.952 0-7.112-3.05-7.112-7.001 0-3.049 1.92-5.645 4.63-6.66 5.418-2.034 11.29-3.163 19.304-3.163 9.37 0 16.144 2.484 20.433 6.774 4.516 4.516 6.55 11.179 6.55 19.304v27.548c0 4.629-3.727 8.243-8.354 8.243-4.967 0-8.243-3.503-8.243-7.114v-.113c-4.176 4.629-9.934 7.677-18.289 7.677-11.402.001-20.772-6.547-20.772-18.513zm39.4-3.951v-3.05c-2.936-1.354-6.774-2.258-10.95-2.258-7.338 0-11.854 2.936-11.854 8.356v.225c0 4.63 3.838 7.339 9.37 7.339 8.016 0 13.434-4.403 13.434-10.612zM514.201 530.751h-.678c-3.952 0-7.112-3.048-7.112-6.999s3.16-7.111 7.112-7.111h.678v-3.841c0-6.661 1.693-11.515 4.854-14.677 3.16-3.161 7.791-4.741 13.885-4.741 2.712 0 5.081.113 7.001.451 2.934.454 5.872 3.05 5.872 6.888s-3.16 7.112-7.001 7.112h-1.467c-3.951 0-6.21 2.033-6.21 6.549v2.369h7.45c3.951 0 7.111 3.05 7.111 7.001s-3.16 6.999-7.111 6.999h-7.224v37.931c0 4.742-3.84 8.583-8.582 8.583-4.74 0-8.578-3.841-8.578-8.583v-37.931z"/></g><circle fill="#fff" cx="356.153" cy="319.196" r="11.007"/></svg>