<?xml version="1.0" encoding="utf-8"?>
<!-- Generator: Adobe Illustrator 16.2.0, SVG Export Plug-In . SVG Version: 6.00 Build 0)  -->
<!DOCTYPE svg PUBLIC "-//W3C//DTD SVG 1.1//EN" "http://www.w3.org/Graphics/SVG/1.1/DTD/svg11.dtd">
<svg version="1.1" id="Layer_1" xmlns="http://www.w3.org/2000/svg" xmlns:xlink="http://www.w3.org/1999/xlink" x="0px" y="0px"
	 width="66px" height="94px" viewBox="0 0 66 94" enable-background="new 0 0 66 94" xml:space="preserve">
<g>
	<path fill="#8DCF3F" d="M35.805,0.745l0.92,0.015c18.812,0.275,29.598,16.038,29.269,38.521
		c-0.476,32.579-18.694,54.342-43.931,53.974L9.672,93.072C4.342,81.063,0.896,65.409,1.145,48.43
		C1.582,18.605,13.781,0.424,35.805,0.745z"/>
	<g>
		<path fill="#FFFFFF" d="M11.156,63.825c-0.309-0.191-0.557-0.537-0.557-0.995c0-0.651,0.496-1.149,1.148-1.149
			c0.211,0,0.42,0.059,0.572,0.154c0.977,0.612,1.953,0.917,2.777,0.917c0.84,0,1.223-0.305,1.223-0.765V61.95
			c0-0.633-0.996-0.843-2.123-1.188c-1.436-0.422-3.062-1.093-3.062-3.081v-0.038c0-2.087,1.684-3.255,3.75-3.255
			c1.072,0,2.182,0.288,3.176,0.786c0.42,0.21,0.689,0.592,0.689,1.089c0,0.651-0.516,1.149-1.166,1.149
			c-0.213,0-0.348-0.039-0.537-0.134c-0.822-0.401-1.607-0.651-2.221-0.651c-0.707,0-1.07,0.307-1.07,0.709v0.037
			c0,0.574,0.977,0.843,2.086,1.226c1.436,0.478,3.1,1.168,3.1,3.042v0.038c0,2.278-1.703,3.312-3.922,3.312
			C13.756,64.991,12.4,64.628,11.156,63.825z"/>
		<path fill="#FFFFFF" d="M20.805,52.094c0-0.841,0.711-1.356,1.629-1.356s1.625,0.517,1.625,1.356v0.04
			c0,0.842-0.707,1.377-1.625,1.377s-1.629-0.535-1.629-1.377V52.094z M20.979,55.884c0-0.803,0.65-1.454,1.455-1.454
			c0.803,0,1.455,0.651,1.455,1.454v7.578c0,0.803-0.652,1.454-1.455,1.454c-0.805,0-1.455-0.651-1.455-1.454V55.884z"/>
		<path fill="#FFFFFF" d="M26.85,61.892v-4.859h-0.094c-0.689,0-1.244-0.555-1.244-1.244c0-0.688,0.555-1.243,1.244-1.243h0.094
			v-1.281c0-0.805,0.652-1.455,1.455-1.455c0.805,0,1.455,0.65,1.455,1.455v1.281h1.281c0.688,0,1.244,0.555,1.244,1.243
			c0,0.689-0.557,1.244-1.244,1.244H29.76v4.382c0,0.671,0.287,0.995,0.938,0.995c0.098,0,0.287-0.02,0.346-0.02
			c0.65,0,1.205,0.536,1.205,1.205c0,0.518-0.344,0.938-0.746,1.091c-0.537,0.212-1.033,0.286-1.664,0.286
			C28.057,64.974,26.85,64.265,26.85,61.892z"/>
		<path fill="#FFFFFF" d="M38.682,65.03c-3.08,0-5.357-2.163-5.357-5.301v-0.038c0-2.928,2.086-5.339,5.072-5.339
			c3.424,0,4.936,2.812,4.936,4.937c0,0.843-0.594,1.398-1.357,1.398h-5.762c0.289,1.318,1.207,2.008,2.508,2.008
			c0.803,0,1.475-0.248,2.066-0.688c0.211-0.152,0.402-0.229,0.709-0.229c0.648,0,1.129,0.497,1.129,1.148
			c0,0.383-0.172,0.669-0.385,0.86C41.342,64.552,40.174,65.03,38.682,65.03z M40.557,58.868c-0.172-1.3-0.938-2.183-2.16-2.183
			c-1.207,0-1.992,0.861-2.221,2.183H40.557z"/>
		<path fill="#FFFFFF" d="M11.557,68.573c0-0.805,0.65-1.455,1.455-1.455c0.803,0,1.455,0.65,1.455,1.455v11.289
			c0,0.804-0.652,1.455-1.455,1.455c-0.805,0-1.455-0.651-1.455-1.455V68.573z"/>
		<path fill="#FFFFFF" d="M21.334,81.432c-3.08,0-5.357-2.163-5.357-5.3v-0.039c0-2.927,2.086-5.339,5.07-5.339
			c3.424,0,4.938,2.812,4.938,4.938c0,0.842-0.592,1.396-1.357,1.396h-5.76c0.287,1.32,1.203,2.01,2.506,2.01
			c0.805,0,1.475-0.249,2.066-0.688c0.211-0.152,0.4-0.229,0.707-0.229c0.652,0,1.129,0.497,1.129,1.149
			c0,0.381-0.172,0.668-0.381,0.859C23.994,80.952,22.828,81.432,21.334,81.432z M23.209,75.271
			c-0.172-1.301-0.938-2.182-2.162-2.182c-1.205,0-1.988,0.861-2.221,2.182H23.209z"/>
		<path fill="#FFFFFF" d="M26.691,78.256v-0.039c0-2.237,1.703-3.271,4.133-3.271c1.035,0,1.781,0.173,2.508,0.422v-0.173
			c0-1.206-0.746-1.875-2.199-1.875c-0.805,0-1.455,0.114-2.01,0.287c-0.174,0.057-0.287,0.076-0.422,0.076
			c-0.67,0-1.207-0.517-1.207-1.187c0-0.518,0.326-0.957,0.785-1.129c0.918-0.345,1.914-0.536,3.273-0.536
			c1.588,0,2.734,0.422,3.463,1.147c0.766,0.766,1.109,1.896,1.109,3.271v4.668c0,0.785-0.633,1.398-1.416,1.398
			c-0.842,0-1.398-0.595-1.398-1.206V80.09c-0.705,0.784-1.684,1.3-3.098,1.3C28.279,81.394,26.691,80.283,26.691,78.256z
			 M33.371,77.586v-0.519c-0.498-0.229-1.148-0.382-1.855-0.382c-1.244,0-2.012,0.497-2.012,1.416v0.038
			c0,0.784,0.652,1.245,1.588,1.245C32.451,79.385,33.371,78.638,33.371,77.586z"/>
		<path fill="#FFFFFF" d="M38.344,73.433H38.23c-0.67,0-1.205-0.516-1.205-1.185c0-0.671,0.535-1.206,1.205-1.206h0.113v-0.651
			c0-1.13,0.289-1.951,0.824-2.486c0.533-0.535,1.318-0.806,2.354-0.806c0.459,0,0.861,0.021,1.186,0.076
			c0.498,0.077,0.998,0.519,0.998,1.168c0,0.65-0.537,1.206-1.189,1.206H42.27c-0.672,0-1.055,0.344-1.055,1.109v0.4h1.264
			c0.668,0,1.205,0.519,1.205,1.187c0,0.671-0.537,1.188-1.205,1.188h-1.225v6.43c0,0.805-0.65,1.455-1.455,1.455
			s-1.455-0.65-1.455-1.455V73.433L38.344,73.433z"/>
	</g>
</g>
</svg>
