<?xml version="1.0" encoding="utf-8"?>
<!-- Generator: Adobe Illustrator 16.2.0, SVG Export Plug-In . SVG Version: 6.00 Build 0)  -->
<!DOCTYPE svg PUBLIC "-//W3C//DTD SVG 1.1//EN" "http://www.w3.org/Graphics/SVG/1.1/DTD/svg11.dtd">
<svg version="1.1" id="Layer_1" xmlns="http://www.w3.org/2000/svg" xmlns:xlink="http://www.w3.org/1999/xlink" x="0px" y="0px"
	 width="971.032px" height="756px" viewBox="0 0 971.032 756" enable-background="new 0 0 971.032 756" xml:space="preserve">
<g>
	<g opacity="0.7">
		<path fill="#E8F0ED" d="M544.668,481.4c0.188-3.014-1.449,2.857,1.566,3.047c188.432,16.754,190.871-10.684,379.305,6.07
			c3.016,0.189,4.146,19.316,3.957,22.332l-17.656-1.104c-0.188,3.016,13.903,24.609,10.889,24.422
			c-189.054-6.854-188.464-23.131-377.516-29.982c-3.014-0.188-12.594-10.779-12.406-13.795
			C539.932,489.205,540.02,486.73,544.668,481.4z"/>
	</g>
	<path fill="#8DCF3F" d="M600.422,456.461v19.906l-6.268,15.537h34.027c0,0-4.193-11.273-16.199-11.273
		c-1.791,0-7.979,3.26-7.979,3.26l2.686-17.777v-9.652H600.422z"/>
	<path fill="#8DCF3F" d="M556.088,455.396v24.43l-7.691,19.064h41.758c0,0-5.146-13.832-19.879-13.832c-2.199,0-9.791,4-9.791,4
		l3.295-21.816v-11.846H556.088z"/>
	<path fill="#8DCF3F" d="M791.737,459.35v24.43l-7.691,19.064h41.758c0,0-5.146-13.834-19.879-13.834c-2.198,0-9.791,4-9.791,4
		l3.296-21.814V459.35H791.737z"/>
	<path fill="#8DCF3F" d="M829.992,450.926v22.061l-6.946,17.217h37.71c0,0-4.646-12.492-17.952-12.492
		c-1.985,0-8.842,3.611-8.842,3.611l2.977-19.699v-10.697H829.992z"/>
	<path fill="#00A1FF" d="M895.03,446.16c0,15.477-12.546,28.021-28.022,28.021c0,0-48.208,0-82.275,0c-65.933,0-60.977-58-83.109-58
		c-22.865,0-11.977,58-76.811,58c-19.094,0-86.373,0-86.373,0c-15.477,0-28.021-12.545-28.021-28.021l0,0
		c0-15.477,12.545-30.079,28.021-30.079c0,0,35.109,0,74.561,0c26.205,0,28.758-71.967,87.764-71.967
		c55.081,0,69.366,70.728,92.874,70.728c45.261,0,73.37,1.239,73.37,1.239C882.484,416.081,895.03,430.684,895.03,446.16
		L895.03,446.16z"/>
	<ellipse fill="#8DCF3F" cx="914.03" cy="432.083" rx="57" ry="51.944"/>
	<circle fill="#FFFFFF" cx="893.577" cy="421.946" r="13.69"/>
	<circle fill="#FFFFFF" cx="928.484" cy="413.756" r="13.69"/>
	<circle fill="#1B1D22" cx="924.226" cy="415.762" r="2.889"/>
	<circle fill="#1B1D22" cx="899.578" cy="423.084" r="2.889"/>
	<g>
		<g>
			<path fill="#8DCF3F" d="M919.197,387.214c5.084-11.465,11.325-22.292,20.284-31.172c0.78-0.773-2.084-0.539-2.67,0.043
				c-9.059,8.979-15.36,19.963-20.497,31.547C915.979,388.386,918.815,388.073,919.197,387.214L919.197,387.214z"/>
		</g>
	</g>
	<g>
		<g>
			<path fill="#8DCF3F" d="M892.205,394.034c-6.017-10.629-11.324-21.651-18.078-31.85c-0.479-0.722-3.294,0.195-2.703,1.088
				c6.686,10.097,11.927,21.017,17.883,31.539C889.817,395.712,892.588,394.712,892.205,394.034L892.205,394.034z"/>
		</g>
	</g>
	<g>
		<path fill="#0478B2" d="M618.182,416.861c0,0,0.682,2.688,1.439,6.756c0.389,2.032,0.799,4.408,1.197,6.961
			c0.189,1.276,0.412,2.592,0.588,3.937c0.184,1.343,0.369,2.707,0.555,4.071c0.164,1.367,0.326,2.734,0.486,4.08
			c0.172,1.344,0.281,2.675,0.42,3.959c0.258,2.569,0.457,4.973,0.59,7.037c0.287,4.129,0.301,6.902,0.301,6.902
			s-0.682-2.689-1.439-6.756c-0.391-2.033-0.803-4.409-1.197-6.961c-0.189-1.277-0.416-2.593-0.588-3.938
			c-0.184-1.343-0.369-2.707-0.555-4.071c-0.162-1.367-0.324-2.734-0.484-4.08c-0.168-1.345-0.281-2.675-0.418-3.959
			c-0.258-2.569-0.457-4.974-0.59-7.038C618.199,419.635,618.182,416.861,618.182,416.861z"/>
	</g>
	<g>
		<path fill="#0478B2" d="M576.365,406.861c0,0,0.682,3.321,1.439,8.332c0.391,2.504,0.801,5.43,1.199,8.568
			c0.189,1.57,0.414,3.191,0.59,4.843c0.182,1.651,0.369,3.327,0.555,5.005c0.162,1.68,0.326,3.358,0.486,5.012
			c0.17,1.652,0.281,3.284,0.418,4.859c0.258,3.154,0.457,6.103,0.59,8.633c0.285,5.061,0.299,8.451,0.299,8.451
			s-0.684-3.322-1.441-8.332c-0.391-2.504-0.803-5.43-1.199-8.569c-0.188-1.571-0.416-3.19-0.588-4.843
			c-0.182-1.65-0.367-3.328-0.553-5.005c-0.162-1.679-0.326-3.358-0.486-5.012c-0.166-1.652-0.279-3.284-0.418-4.86
			c-0.256-3.154-0.455-6.102-0.588-8.633C576.381,410.252,576.365,406.861,576.365,406.861z"/>
	</g>
	<g>
		<path fill="#0478B2" d="M539.277,416.861c0,0,0.057,2.765-0.123,6.886c-0.078,2.062-0.215,4.462-0.402,7.03
			c-0.104,1.283-0.182,2.611-0.314,3.957c-0.125,1.345-0.252,2.712-0.379,4.078c-0.148,1.365-0.299,2.729-0.445,4.072
			c-0.137,1.346-0.33,2.662-0.484,3.939c-0.328,2.555-0.678,4.934-1.014,6.969c-0.65,4.074-1.262,6.771-1.262,6.771
			s-0.059-2.766,0.119-6.887c0.08-2.062,0.215-4.463,0.404-7.03c0.104-1.283,0.18-2.612,0.314-3.956
			c0.125-1.346,0.252-2.713,0.379-4.08c0.15-1.364,0.301-2.729,0.447-4.072c0.141-1.344,0.33-2.661,0.486-3.939
			c0.33-2.553,0.678-4.932,1.014-6.968C538.668,419.559,539.277,416.861,539.277,416.861z"/>
	</g>
	<g>
		<path fill="#0478B2" d="M643.758,364.088c0,0,0.332,1.207,0.863,3.326c0.512,2.125,1.301,5.148,2.146,8.797
			c0.859,3.646,1.82,7.908,2.809,12.482c0.486,2.288,0.99,4.653,1.5,7.057c0.494,2.407,0.994,4.853,1.496,7.297
			c0.479,2.449,0.957,4.898,1.428,7.311c0.48,2.408,0.898,4.791,1.332,7.09c0.85,4.602,1.602,8.906,2.209,12.602
			c0.625,3.692,1.057,6.787,1.402,8.945c0.324,2.162,0.482,3.402,0.482,3.402s-0.332-1.205-0.865-3.326
			c-0.512-2.125-1.303-5.147-2.146-8.797c-0.861-3.645-1.822-7.906-2.809-12.48c-0.484-2.289-1.018-4.648-1.5-7.057
			c-0.492-2.407-0.992-4.852-1.494-7.297c-0.479-2.449-0.955-4.899-1.426-7.312c-0.453-2.414-0.9-4.79-1.332-7.09
			c-0.848-4.603-1.6-8.906-2.207-12.602c-0.625-3.693-1.061-6.787-1.404-8.945C643.916,365.329,643.758,364.088,643.758,364.088z"/>
	</g>
	<g>
		<path fill="#0478B2" d="M685.757,346.898c0,0,0.436,3.825,0.824,9.571c0.205,2.873,0.4,6.226,0.566,9.818
			c0.074,1.797,0.179,3.653,0.233,5.541c0.061,1.887,0.123,3.804,0.186,5.721c0.039,1.918,0.079,3.836,0.117,5.723
			c0.05,1.889,0.04,3.747,0.062,5.545c0.025,3.598,0.007,6.955-0.047,9.835c-0.085,5.76-0.32,9.604-0.32,9.604
			s-0.438-3.826-0.827-9.573c-0.205-2.873-0.401-6.225-0.566-9.818c-0.072-1.797-0.181-3.652-0.231-5.54
			c-0.061-1.888-0.123-3.804-0.185-5.722c-0.039-1.918-0.078-3.835-0.116-5.723c-0.046-1.888-0.039-3.746-0.061-5.545
			c-0.023-3.597-0.006-6.955,0.047-9.834C685.523,350.742,685.757,346.898,685.757,346.898z"/>
	</g>
	<g>
		<path fill="#0478B2" d="M733.756,340.088c0,0,0.016,1.156-0.006,3.178c-0.041,2.02-0.043,4.908-0.147,8.369
			c-0.088,3.461-0.235,7.496-0.436,11.816c-0.109,2.16-0.193,4.395-0.332,6.66c-0.131,2.268-0.264,4.57-0.397,6.873
			c-0.155,2.301-0.312,4.602-0.465,6.868c-0.144,2.267-0.343,4.493-0.504,6.649c-0.341,4.312-0.701,8.334-1.047,11.779
			c-0.329,3.447-0.691,6.312-0.903,8.322c-0.232,2.008-0.394,3.152-0.394,3.152s-0.016-1.156,0.005-3.178
			c0.041-2.02,0.04-4.908,0.146-8.368c0.088-3.463,0.234-7.498,0.436-11.818c0.11-2.16,0.191-4.394,0.334-6.66
			c0.131-2.267,0.265-4.569,0.398-6.873c0.156-2.302,0.312-4.603,0.466-6.868c0.147-2.266,0.343-4.492,0.505-6.648
			c0.343-4.312,0.702-8.334,1.048-11.779c0.329-3.446,0.689-6.312,0.901-8.321C733.596,341.234,733.756,340.088,733.756,340.088z"/>
	</g>
	<g>
		<path fill="#0478B2" d="M763.892,400.066c0,0-0.052,3.156-0.392,7.859c-0.159,2.354-0.39,5.094-0.678,8.023
			c-0.154,1.464-0.284,2.98-0.469,4.514c-0.178,1.535-0.357,3.096-0.538,4.654c-0.203,1.557-0.405,3.113-0.605,4.646
			c-0.189,1.533-0.434,3.035-0.639,4.493c-0.429,2.913-0.871,5.626-1.287,7.948c-0.811,4.645-1.528,7.721-1.528,7.721
			s0.05-3.158,0.389-7.861c0.159-2.353,0.389-5.093,0.679-8.022c0.154-1.464,0.281-2.98,0.47-4.515
			c0.178-1.535,0.358-3.094,0.539-4.654c0.203-1.557,0.406-3.113,0.606-4.645c0.193-1.534,0.435-3.037,0.64-4.494
			c0.431-2.912,0.872-5.627,1.287-7.947C763.176,403.141,763.892,400.066,763.892,400.066z"/>
	</g>
	<g>
		<path fill="#0478B2" d="M803.089,403.244c0,0-0.381,3.572-1.211,8.879c-0.404,2.656-0.92,5.745-1.514,9.047
			c-0.307,1.648-0.595,3.358-0.939,5.085c-0.337,1.728-0.68,3.483-1.022,5.239c-0.365,1.751-0.73,3.502-1.091,5.227
			c-0.349,1.725-0.75,3.412-1.106,5.051c-0.732,3.273-1.458,6.32-2.115,8.926c-1.296,5.213-2.334,8.652-2.334,8.652
			s0.379-3.574,1.208-8.881c0.404-2.655,0.919-5.744,1.515-9.046c0.307-1.649,0.592-3.359,0.94-5.085
			c0.338-1.729,0.681-3.484,1.023-5.239c0.366-1.751,0.731-3.502,1.092-5.226c0.353-1.725,0.75-3.412,1.108-5.051
			c0.733-3.273,1.458-6.32,2.115-8.926C802.053,406.684,803.089,403.244,803.089,403.244z"/>
	</g>
	<g>
		<path fill="#0478B2" d="M841.471,421.945c0,0,0.062,2.262-0.109,5.621c-0.075,1.682-0.207,3.637-0.39,5.728
			c-0.102,1.044-0.177,2.126-0.306,3.22c-0.122,1.095-0.246,2.207-0.37,3.318c-0.146,1.109-0.293,2.218-0.438,3.31
			c-0.134,1.093-0.323,2.161-0.476,3.199c-0.323,2.073-0.667,4.003-0.998,5.653c-0.643,3.303-1.247,5.482-1.247,5.482
			s-0.063-2.262,0.107-5.621c0.074-1.682,0.205-3.638,0.39-5.729c0.102-1.043,0.174-2.127,0.307-3.219
			c0.122-1.095,0.246-2.207,0.371-3.318c0.146-1.109,0.294-2.218,0.438-3.309c0.138-1.094,0.324-2.162,0.477-3.199
			c0.325-2.074,0.668-4.004,0.999-5.654C840.868,424.126,841.471,421.945,841.471,421.945z"/>
	</g>
	<circle fill="#00A1FF" cx="938.966" cy="354.862" r="6.532"/>
	<circle fill="#00A1FF" cx="871.632" cy="361.394" r="6.532"/>
	<path fill="#4E7516" d="M890.756,442.757c8.822,6.667,23.615,5.458,27.839,4.999c11.828-1.287,20.371-7.999,26.903-18.332
		c8.322,8.459,7.925,38-24.161,41.666C896.656,473.912,886.632,451.773,890.756,442.757z"/>
	<path fill="#FFFFFF" d="M924.63,449.087c0.21,2.058,2.047,3.558,4.105,3.349s3.557-2.047,3.349-4.105l-0.81-5.299
		c-2.222,1.381-4.619,2.391-7.229,2.963L924.63,449.087z"/>
	<path fill="#FFFFFF" d="M922.625,449.994l-0.44-3.223c-0.586,0.156-1.183,0.301-1.797,0.418c-1.08,0.207-3.148,0.562-5.658,0.731
		l0.675,4.069c0.552,1.992,2.614,3.162,4.609,2.611C922.008,454.051,923.177,451.988,922.625,449.994z"/>
	<g>
		<path fill="#8DCF3F" d="M893.583,570.84c0,2.014-2.457,3.904-5.771,4.998c-2.161,0.715-4.85,1.857-7.717,1.857
			s-5.409-1.586-7.57-2.301c-3.314-1.094-6.219-2.541-6.219-4.555c0-2.016,3.05-3.021,6.363-4.115
			c2.162-0.713,4.558-1.27,7.426-1.27s5.236,0.639,7.398,1.352C890.807,567.902,893.583,568.824,893.583,570.84z"/>
	</g>
	<g>
		<path fill="#8DCF3F" d="M706.165,554.312c0,3.51-5.333,4.615-11.106,6.521c-3.765,1.244-7.725,3.938-12.721,3.938
			s-8.717-3.418-12.481-4.66c-5.773-1.908-11.167-2.289-11.167-5.799s5.327-4.094,11.101-6.002
			c3.765-1.242,7.552-3.986,12.548-3.986s10.232-1.639,13.996-0.396C702.107,545.836,706.165,550.803,706.165,554.312z"/>
	</g>
</g>
<path fill="#8DCF3F" d="M354.48,318.52c0-7.776,2.491-14.954,6.688-20.831c-17.209-2.695-30.39-17.543-30.39-35.509
	c0-19.877,16.112-35.99,35.988-35.99c0.622,0,1.231,0.062,1.845,0.093c-10.579-32.778-26.963-60.312-48.604-81.076
	c-8.468,14.437-24.106,24.159-42.056,24.159c-26.932,0-48.765-21.833-48.765-48.767c0-5.982,1.129-11.688,3.098-16.984
	c-7.205-0.967-14.639-1.526-22.304-1.638l-5.414-0.086C74.629,100,2.648,207.264,0.074,383.23
	C-1.388,483.405,18.93,575.767,50.386,646.618l73.097,1.071c142.565,2.083,247.152-115.561,258.249-294.293
	C366.085,349.487,354.48,335.377,354.48,318.52z"/>
<circle fill="#FFFFFF" cx="109.323" cy="252.835" r="23.494"/>
<g>
	<path fill="#FFFFFF" d="M59.132,474.062c-1.807-1.129-3.274-3.163-3.274-5.872c0-3.838,2.936-6.774,6.774-6.774
		c1.24,0,2.482,0.338,3.387,0.902c5.756,3.614,11.515,5.419,16.369,5.419c4.967,0,7.225-1.805,7.225-4.514v-0.225
		c0-3.728-5.87-4.97-12.53-7.001c-8.468-2.484-18.064-6.437-18.064-18.175v-0.228c0-12.306,9.935-19.192,22.127-19.192
		c6.323,0,12.871,1.693,18.742,4.629c2.482,1.242,4.062,3.501,4.062,6.435c0,3.84-3.047,6.773-6.885,6.773
		c-1.242,0-2.033-0.225-3.163-0.789c-4.854-2.371-9.481-3.838-13.095-3.838c-4.176,0-6.323,1.805-6.323,4.176v0.227
		c0,3.385,5.758,4.968,12.306,7.226c8.468,2.822,18.289,6.885,18.289,17.948v0.227c0,13.436-10.047,19.531-23.142,19.531
		C74.484,480.947,66.47,478.803,59.132,474.062z"/>
	<path fill="#FFFFFF" d="M116.076,404.857c0-4.968,4.176-8.017,9.594-8.017c5.42,0,9.597,3.049,9.597,8.017v0.225
		c0,4.969-4.176,8.129-9.597,8.129c-5.418,0-9.594-3.16-9.594-8.129V404.857z M117.091,427.208c0-4.74,3.838-8.578,8.579-8.578
		c4.743,0,8.581,3.838,8.581,8.578v44.707c0,4.743-3.838,8.581-8.581,8.581c-4.741,0-8.579-3.838-8.579-8.581V427.208z"/>
	<path fill="#FFFFFF" d="M151.737,462.659v-28.677h-0.564c-4.065,0-7.339-3.271-7.339-7.339c0-4.062,3.274-7.336,7.339-7.336h0.564
		v-7.563c0-4.742,3.838-8.58,8.581-8.58c4.741,0,8.579,3.838,8.579,8.58v7.563h7.565c4.063,0,7.336,3.273,7.336,7.336
		c0,4.067-3.273,7.339-7.336,7.339h-7.565v25.854c0,3.952,1.693,5.87,5.532,5.87c0.564,0,1.693-0.111,2.033-0.111
		c3.838,0,7.112,3.16,7.112,7.112c0,3.049-2.033,5.531-4.402,6.434c-3.163,1.242-6.096,1.693-9.823,1.693
		C158.849,480.834,151.737,476.658,151.737,462.659z"/>
	<path fill="#FFFFFF" d="M221.541,481.174c-18.178,0-31.612-12.757-31.612-31.271v-0.228c0-17.271,12.306-31.496,29.919-31.496
		c20.207,0,29.124,16.595,29.124,29.125c0,4.97-3.498,8.241-8.015,8.241h-33.98c1.694,7.792,7.112,11.854,14.789,11.854
		c4.742,0,8.692-1.467,12.191-4.062c1.244-0.902,2.373-1.356,4.178-1.356c3.841,0,6.663,2.937,6.663,6.774
		c0,2.258-1.019,3.952-2.258,5.081C237.232,478.352,230.347,481.174,221.541,481.174z M232.605,444.821
		c-1.018-7.677-5.533-12.87-12.758-12.87c-7.114,0-11.742,5.08-13.098,12.87H232.605z"/>
	<path fill="#FFFFFF" d="M61.503,502.074c0-4.74,3.838-8.579,8.579-8.579c4.743,0,8.581,3.839,8.581,8.579v66.607
		c0,4.742-3.838,8.583-8.581,8.583c-4.74,0-8.579-3.841-8.579-8.583V502.074z"/>
	<path fill="#FFFFFF" d="M119.191,577.94c-18.177,0-31.612-12.757-31.612-31.271v-0.227c0-17.273,12.306-31.497,29.919-31.497
		c20.207,0,29.125,16.593,29.125,29.126c0,4.967-3.499,8.24-8.015,8.24h-33.981c1.694,7.79,7.112,11.855,14.789,11.855
		c4.743,0,8.694-1.47,12.192-4.065c1.242-0.902,2.372-1.355,4.178-1.355c3.838,0,6.661,2.938,6.661,6.774
		c0,2.258-1.016,3.951-2.258,5.08C134.882,575.117,127.997,577.94,119.191,577.94z M130.255,541.59
		c-1.016-7.677-5.532-12.873-12.757-12.873c-7.114,0-11.741,5.081-13.097,12.873H130.255z"/>
	<path fill="#FFFFFF" d="M150.799,559.2v-0.227c0-13.208,10.048-19.305,24.385-19.305c6.096,0,10.499,1.016,14.788,2.485v-1.019
		c0-7.111-4.402-11.063-12.981-11.063c-4.743,0-8.581,0.679-11.855,1.694c-1.016,0.338-1.693,0.453-2.484,0.453
		c-3.952,0-7.112-3.05-7.112-7.001c0-3.049,1.92-5.645,4.63-6.66c5.418-2.034,11.29-3.163,19.304-3.163
		c9.37,0,16.144,2.484,20.433,6.774c4.516,4.516,6.55,11.179,6.55,19.304v27.548c0,4.629-3.727,8.243-8.354,8.243
		c-4.967,0-8.243-3.503-8.243-7.114v-0.113c-4.176,4.629-9.934,7.677-18.289,7.677C160.169,577.714,150.799,571.166,150.799,559.2z
		 M190.199,555.249v-3.05c-2.936-1.354-6.774-2.258-10.95-2.258c-7.338,0-11.854,2.936-11.854,8.356v0.225
		c0,4.63,3.838,7.339,9.37,7.339C184.781,565.861,190.199,561.458,190.199,555.249z"/>
	<path fill="#FFFFFF" d="M219.551,530.751h-0.678c-3.952,0-7.112-3.048-7.112-6.999s3.16-7.111,7.112-7.111h0.678V512.8
		c0-6.661,1.693-11.515,4.854-14.677c3.16-3.161,7.791-4.741,13.885-4.741c2.712,0,5.081,0.113,7.001,0.451
		c2.934,0.454,5.872,3.05,5.872,6.888s-3.16,7.112-7.001,7.112h-1.467c-3.951,0-6.21,2.033-6.21,6.549v2.369h7.45
		c3.951,0,7.111,3.05,7.111,7.001s-3.16,6.999-7.111,6.999h-7.224v37.931c0,4.742-3.84,8.583-8.582,8.583
		c-4.74,0-8.578-3.841-8.578-8.583V530.751z"/>
</g>
<circle fill="#FFFFFF" cx="61.503" cy="319.196" r="11.007"/>
<g opacity="0.7">
	<path fill="#E8F0ED" d="M59.579,681.707c85.648-17.349,87.958-2.998,173.343-21.6c30.809-6.712,27.454-13.858,57.447-23.586
		c8.886-2.882,23.659-4.444,16.208,1.189c-40.016,30.253-37.844,39.679-86.618,51.41c-72.748,17.496-75.158,12.484-149.962,10.818
		C59.562,699.707,51.869,683.269,59.579,681.707z"/>
</g>
</svg>
