<svg xmlns="http://www.w3.org/2000/svg" width="971.032" height="756"><path fill="#E8F0ED" d="M544.668 481.4c.188-3.014-1.449 2.857 1.566 3.047 188.432 16.754 190.871-10.684 379.305 6.07 3.016.189 4.146 19.316 3.957 22.332l-17.656-1.104c-.188 3.016 13.903 24.609 10.889 24.422-189.054-6.854-188.464-23.131-377.516-29.982-3.014-.188-12.594-10.779-12.406-13.795 7.125-3.185 7.213-5.66 11.861-10.99z" opacity=".7"/><path fill="#8DCF3F" d="M600.422 456.461v19.906l-6.268 15.537h34.027s-4.193-11.273-16.199-11.273c-1.791 0-7.979 3.26-7.979 3.26l2.686-17.777v-9.652h-6.267z"/><path fill="#8DCF3F" d="M556.088 455.396v24.43l-7.691 19.064h41.758s-5.146-13.832-19.879-13.832c-2.199 0-9.791 4-9.791 4l3.295-21.816v-11.846h-7.692z"/><path fill="#8DCF3F" d="M791.737 459.35v24.43l-7.691 19.064h41.758s-5.146-13.834-19.879-13.834c-2.198 0-9.791 4-9.791 4l3.296-21.814v-11.846h-7.693z"/><path fill="#8DCF3F" d="M829.992 450.926v22.061l-6.946 17.217h37.71s-4.646-12.492-17.952-12.492c-1.985 0-8.842 3.611-8.842 3.611l2.977-19.699v-10.697h-6.947z"/><path fill="#00A1FF" d="M895.03 446.16c0 15.477-12.546 28.021-28.022 28.021h-82.275c-65.933 0-60.977-58-83.109-58-22.865 0-11.977 58-76.811 58h-86.373c-15.477 0-28.021-12.545-28.021-28.021 0-15.477 12.545-30.079 28.021-30.079h74.561c26.205 0 28.758-71.967 87.764-71.967 55.081 0 69.366 70.728 92.874 70.728 45.261 0 73.37 1.239 73.37 1.239 15.475 0 28.021 14.603 28.021 30.079z"/><ellipse fill="#8DCF3F" cx="914.03" cy="432.083" rx="57" ry="51.944"/><circle fill="#fff" cx="893.577" cy="421.946" r="13.69"/><circle fill="#fff" cx="928.484" cy="413.756" r="13.69"/><circle fill="#1B1D22" cx="924.226" cy="415.762" r="2.889"/><circle fill="#1B1D22" cx="899.578" cy="423.084" r="2.889"/><path fill="#8DCF3F" d="M919.197 387.214c5.084-11.465 11.325-22.292 20.284-31.172.78-.773-2.084-.539-2.67.043-9.059 8.979-15.36 19.963-20.497 31.547-.335.754 2.501.441 2.883-.418z"/><path fill="#8DCF3F" d="M892.205 394.034c-6.017-10.629-11.324-21.651-18.078-31.85-.479-.722-3.294.195-2.703 1.088 6.686 10.097 11.927 21.017 17.883 31.539.51.901 3.281-.099 2.898-.777z"/><path fill="#0478B2" d="M618.182 416.861s.682 2.688 1.439 6.756c.389 2.032.799 4.408 1.197 6.961.189 1.276.412 2.592.588 3.937l.555 4.071.486 4.08c.172 1.344.281 2.675.42 3.959.258 2.569.457 4.973.59 7.037.287 4.129.301 6.902.301 6.902s-.682-2.689-1.439-6.756c-.391-2.033-.803-4.409-1.197-6.961-.189-1.277-.416-2.593-.588-3.938l-.555-4.071-.484-4.08c-.168-1.345-.281-2.675-.418-3.959-.258-2.569-.457-4.974-.59-7.038-.288-4.126-.305-6.9-.305-6.9z"/><path fill="#0478B2" d="M576.365 406.861s.682 3.321 1.439 8.332c.391 2.504.801 5.43 1.199 8.568.189 1.57.414 3.191.59 4.843l.555 5.005.486 5.012c.17 1.652.281 3.284.418 4.859.258 3.154.457 6.103.59 8.633.285 5.061.299 8.451.299 8.451s-.684-3.322-1.441-8.332c-.391-2.504-.803-5.43-1.199-8.569-.188-1.571-.416-3.19-.588-4.843l-.553-5.005-.486-5.012c-.166-1.652-.279-3.284-.418-4.86-.256-3.154-.455-6.102-.588-8.633-.287-5.058-.303-8.449-.303-8.449z"/><path fill="#0478B2" d="M539.277 416.861s.057 2.765-.123 6.886c-.078 2.062-.215 4.462-.402 7.03-.104 1.283-.182 2.611-.314 3.957l-.379 4.078-.445 4.072c-.137 1.346-.33 2.662-.484 3.939-.328 2.555-.678 4.934-1.014 6.969-.65 4.074-1.262 6.771-1.262 6.771s-.059-2.766.119-6.887c.08-2.062.215-4.463.404-7.03.104-1.283.18-2.612.314-3.956l.379-4.08.447-4.072c.141-1.344.33-2.661.486-3.939.33-2.553.678-4.932 1.014-6.968.651-4.072 1.26-6.77 1.26-6.77z"/><path fill="#0478B2" d="M643.758 364.088s.332 1.207.863 3.326c.512 2.125 1.301 5.148 2.146 8.797.859 3.646 1.82 7.908 2.809 12.482l1.5 7.057 1.496 7.297 1.428 7.311c.48 2.408.898 4.791 1.332 7.09.85 4.602 1.602 8.906 2.209 12.602.625 3.692 1.057 6.787 1.402 8.945.324 2.162.482 3.402.482 3.402s-.332-1.205-.865-3.326c-.512-2.125-1.303-5.147-2.146-8.797-.861-3.645-1.822-7.906-2.809-12.48-.484-2.289-1.018-4.648-1.5-7.057-.492-2.407-.992-4.852-1.494-7.297l-1.426-7.312-1.332-7.09c-.848-4.603-1.6-8.906-2.207-12.602-.625-3.693-1.061-6.787-1.404-8.945-.326-2.162-.484-3.403-.484-3.403z"/><path fill="#0478B2" d="M685.757 346.898s.436 3.825.824 9.571c.205 2.873.4 6.226.566 9.818.074 1.797.179 3.653.233 5.541l.186 5.721.117 5.723c.05 1.889.04 3.747.062 5.545.025 3.598.007 6.955-.047 9.835-.085 5.76-.32 9.604-.32 9.604s-.438-3.826-.827-9.573c-.205-2.873-.401-6.225-.566-9.818-.072-1.797-.181-3.652-.231-5.54l-.185-5.722-.116-5.723c-.046-1.888-.039-3.746-.061-5.545-.023-3.597-.006-6.955.047-9.834.084-5.759.318-9.603.318-9.603z"/><path fill="#0478B2" d="M733.756 340.088s.016 1.156-.006 3.178c-.041 2.02-.043 4.908-.147 8.369-.088 3.461-.235 7.496-.436 11.816-.109 2.16-.193 4.395-.332 6.66l-.397 6.873-.465 6.868c-.144 2.267-.343 4.493-.504 6.649-.341 4.312-.701 8.334-1.047 11.779-.329 3.447-.691 6.312-.903 8.322-.232 2.008-.394 3.152-.394 3.152s-.016-1.156.005-3.178c.041-2.02.04-4.908.146-8.368.088-3.463.234-7.498.436-11.818.11-2.16.191-4.394.334-6.66l.398-6.873.466-6.868c.147-2.266.343-4.492.505-6.648.343-4.312.702-8.334 1.048-11.779.329-3.446.689-6.312.901-8.321.232-2.007.392-3.153.392-3.153z"/><path fill="#0478B2" d="M763.892 400.066s-.052 3.156-.392 7.859c-.159 2.354-.39 5.094-.678 8.023-.154 1.464-.284 2.98-.469 4.514l-.538 4.654-.605 4.646c-.189 1.533-.434 3.035-.639 4.493-.429 2.913-.871 5.626-1.287 7.948-.811 4.645-1.528 7.721-1.528 7.721s.05-3.158.389-7.861c.159-2.353.389-5.093.679-8.022.154-1.464.281-2.98.47-4.515l.539-4.654.606-4.645c.193-1.534.435-3.037.64-4.494.431-2.912.872-5.627 1.287-7.947.81-4.645 1.526-7.72 1.526-7.72z"/><path fill="#0478B2" d="M803.089 403.244s-.381 3.572-1.211 8.879c-.404 2.656-.92 5.745-1.514 9.047-.307 1.648-.595 3.358-.939 5.085l-1.022 5.239-1.091 5.227c-.349 1.725-.75 3.412-1.106 5.051-.732 3.273-1.458 6.32-2.115 8.926-1.296 5.213-2.334 8.652-2.334 8.652s.379-3.574 1.208-8.881c.404-2.655.919-5.744 1.515-9.046.307-1.649.592-3.359.94-5.085l1.023-5.239 1.092-5.226c.353-1.725.75-3.412 1.108-5.051.733-3.273 1.458-6.32 2.115-8.926 1.295-5.212 2.331-8.652 2.331-8.652z"/><path fill="#0478B2" d="M841.471 421.945s.062 2.262-.109 5.621c-.075 1.682-.207 3.637-.39 5.728-.102 1.044-.177 2.126-.306 3.22l-.37 3.318-.438 3.31c-.134 1.093-.323 2.161-.476 3.199-.323 2.073-.667 4.003-.998 5.653-.643 3.303-1.247 5.482-1.247 5.482s-.063-2.262.107-5.621c.074-1.682.205-3.638.39-5.729.102-1.043.174-2.127.307-3.219l.371-3.318.438-3.309c.138-1.094.324-2.162.477-3.199.325-2.074.668-4.004.999-5.654.642-3.301 1.245-5.482 1.245-5.482z"/><circle fill="#00A1FF" cx="938.966" cy="354.862" r="6.532"/><circle fill="#00A1FF" cx="871.632" cy="361.394" r="6.532"/><path fill="#4E7516" d="M890.756 442.757c8.822 6.667 23.615 5.458 27.839 4.999 11.828-1.287 20.371-7.999 26.903-18.332 8.322 8.459 7.925 38-24.161 41.666-24.681 2.822-34.705-19.317-30.581-28.333z"/><path fill="#fff" d="M924.63 449.087c.21 2.058 2.047 3.558 4.105 3.349s3.557-2.047 3.349-4.105l-.81-5.299c-2.222 1.381-4.619 2.391-7.229 2.963l.585 3.092z"/><path fill="#fff" d="M922.625 449.994l-.44-3.223c-.586.156-1.183.301-1.797.418-1.08.207-3.148.562-5.658.731l.675 4.069c.552 1.992 2.614 3.162 4.609 2.611 1.994-.549 3.163-2.612 2.611-4.606z"/><path fill="#8DCF3F" d="M893.583 570.84c0 2.014-2.457 3.904-5.771 4.998-2.161.715-4.85 1.857-7.717 1.857s-5.409-1.586-7.57-2.301c-3.314-1.094-6.219-2.541-6.219-4.555 0-2.016 3.05-3.021 6.363-4.115 2.162-.713 4.558-1.27 7.426-1.27s5.236.639 7.398 1.352c3.314 1.096 6.09 2.018 6.09 4.034z"/><path fill="#8DCF3F" d="M706.165 554.312c0 3.51-5.333 4.615-11.106 6.521-3.765 1.244-7.725 3.938-12.721 3.938s-8.717-3.418-12.481-4.66c-5.773-1.908-11.167-2.289-11.167-5.799s5.327-4.094 11.101-6.002c3.765-1.242 7.552-3.986 12.548-3.986s10.232-1.639 13.996-.396c5.772 1.908 9.83 6.875 9.83 10.384z"/><path fill="#8DCF3F" d="M354.48 318.52c0-7.776 2.491-14.954 6.688-20.831-17.209-2.695-30.39-17.543-30.39-35.509 0-19.877 16.112-35.99 35.988-35.99.622 0 1.231.062 1.845.093-10.579-32.778-26.963-60.312-48.604-81.076-8.468 14.437-24.106 24.159-42.056 24.159-26.932 0-48.765-21.833-48.765-48.767 0-5.982 1.129-11.688 3.098-16.984-7.205-.967-14.639-1.526-22.304-1.638l-5.414-.086c-129.937-1.891-201.918 105.373-204.492 281.339-1.462 100.175 18.856 192.537 50.312 263.388l73.097 1.071c142.565 2.083 247.152-115.561 258.249-294.293-15.647-3.909-27.252-18.019-27.252-34.876z"/><circle fill="#fff" cx="109.323" cy="252.835" r="23.494"/><g fill="#fff"><path d="M59.132 474.062c-1.807-1.129-3.274-3.163-3.274-5.872 0-3.838 2.936-6.774 6.774-6.774 1.24 0 2.482.338 3.387.902 5.756 3.614 11.515 5.419 16.369 5.419 4.967 0 7.225-1.805 7.225-4.514v-.225c0-3.728-5.87-4.97-12.53-7.001-8.468-2.484-18.064-6.437-18.064-18.175v-.228c0-12.306 9.935-19.192 22.127-19.192 6.323 0 12.871 1.693 18.742 4.629 2.482 1.242 4.062 3.501 4.062 6.435 0 3.84-3.047 6.773-6.885 6.773-1.242 0-2.033-.225-3.163-.789-4.854-2.371-9.481-3.838-13.095-3.838-4.176 0-6.323 1.805-6.323 4.176v.227c0 3.385 5.758 4.968 12.306 7.226 8.468 2.822 18.289 6.885 18.289 17.948v.227c0 13.436-10.047 19.531-23.142 19.531-7.453 0-15.467-2.144-22.805-6.885zM116.076 404.857c0-4.968 4.176-8.017 9.594-8.017 5.42 0 9.597 3.049 9.597 8.017v.225c0 4.969-4.176 8.129-9.597 8.129-5.418 0-9.594-3.16-9.594-8.129v-.225zm1.015 22.351c0-4.74 3.838-8.578 8.579-8.578 4.743 0 8.581 3.838 8.581 8.578v44.707c0 4.743-3.838 8.581-8.581 8.581-4.741 0-8.579-3.838-8.579-8.581v-44.707zM151.737 462.659v-28.677h-.564c-4.065 0-7.339-3.271-7.339-7.339 0-4.062 3.274-7.336 7.339-7.336h.564v-7.563c0-4.742 3.838-8.58 8.581-8.58 4.741 0 8.579 3.838 8.579 8.58v7.563h7.565c4.063 0 7.336 3.273 7.336 7.336 0 4.067-3.273 7.339-7.336 7.339h-7.565v25.854c0 3.952 1.693 5.87 5.532 5.87.564 0 1.693-.111 2.033-.111 3.838 0 7.112 3.16 7.112 7.112 0 3.049-2.033 5.531-4.402 6.434-3.163 1.242-6.096 1.693-9.823 1.693-10.5 0-17.612-4.176-17.612-18.175zM221.541 481.174c-18.178 0-31.612-12.757-31.612-31.271v-.228c0-17.271 12.306-31.496 29.919-31.496 20.207 0 29.124 16.595 29.124 29.125 0 4.97-3.498 8.241-8.015 8.241h-33.98c1.694 7.792 7.112 11.854 14.789 11.854 4.742 0 8.692-1.467 12.191-4.062 1.244-.902 2.373-1.356 4.178-1.356 3.841 0 6.663 2.937 6.663 6.774 0 2.258-1.019 3.952-2.258 5.081-5.308 4.516-12.193 7.338-20.999 7.338zm11.064-36.353c-1.018-7.677-5.533-12.87-12.758-12.87-7.114 0-11.742 5.08-13.098 12.87h25.856zM61.503 502.074c0-4.74 3.838-8.579 8.579-8.579 4.743 0 8.581 3.839 8.581 8.579v66.607c0 4.742-3.838 8.583-8.581 8.583-4.74 0-8.579-3.841-8.579-8.583v-66.607zM119.191 577.94c-18.177 0-31.612-12.757-31.612-31.271v-.227c0-17.273 12.306-31.497 29.919-31.497 20.207 0 29.125 16.593 29.125 29.126 0 4.967-3.499 8.24-8.015 8.24h-33.981c1.694 7.79 7.112 11.855 14.789 11.855 4.743 0 8.694-1.47 12.192-4.065 1.242-.902 2.372-1.355 4.178-1.355 3.838 0 6.661 2.938 6.661 6.774 0 2.258-1.016 3.951-2.258 5.08-5.307 4.517-12.192 7.34-20.998 7.34zm11.064-36.35c-1.016-7.677-5.532-12.873-12.757-12.873-7.114 0-11.741 5.081-13.097 12.873h25.854zM150.799 559.2v-.227c0-13.208 10.048-19.305 24.385-19.305 6.096 0 10.499 1.016 14.788 2.485v-1.019c0-7.111-4.402-11.063-12.981-11.063-4.743 0-8.581.679-11.855 1.694-1.016.338-1.693.453-2.484.453-3.952 0-7.112-3.05-7.112-7.001 0-3.049 1.92-5.645 4.63-6.66 5.418-2.034 11.29-3.163 19.304-3.163 9.37 0 16.144 2.484 20.433 6.774 4.516 4.516 6.55 11.179 6.55 19.304v27.548c0 4.629-3.727 8.243-8.354 8.243-4.967 0-8.243-3.503-8.243-7.114v-.113c-4.176 4.629-9.934 7.677-18.289 7.677-11.402.001-20.772-6.547-20.772-18.513zm39.4-3.951v-3.05c-2.936-1.354-6.774-2.258-10.95-2.258-7.338 0-11.854 2.936-11.854 8.356v.225c0 4.63 3.838 7.339 9.37 7.339 8.016 0 13.434-4.403 13.434-10.612zM219.551 530.751h-.678c-3.952 0-7.112-3.048-7.112-6.999s3.16-7.111 7.112-7.111h.678v-3.841c0-6.661 1.693-11.515 4.854-14.677 3.16-3.161 7.791-4.741 13.885-4.741 2.712 0 5.081.113 7.001.451 2.934.454 5.872 3.05 5.872 6.888s-3.16 7.112-7.001 7.112h-1.467c-3.951 0-6.21 2.033-6.21 6.549v2.369h7.45c3.951 0 7.111 3.05 7.111 7.001s-3.16 6.999-7.111 6.999h-7.224v37.931c0 4.742-3.84 8.583-8.582 8.583-4.74 0-8.578-3.841-8.578-8.583v-37.931z"/></g><circle fill="#fff" cx="61.503" cy="319.196" r="11.007"/><path fill="#E8F0ED" d="M59.579 681.707c85.648-17.349 87.958-2.998 173.343-21.6 30.809-6.712 27.454-13.858 57.447-23.586 8.886-2.882 23.659-4.444 16.208 1.189-40.016 30.253-37.844 39.679-86.618 51.41-72.748 17.496-75.158 12.484-149.962 10.818-10.435-.231-18.128-16.669-10.418-18.231z" opacity=".7"/></svg>