<?xml version="1.0" encoding="utf-8"?>
<!-- Generator: Adobe Illustrator 19.2.1, SVG Export Plug-In . SVG Version: 6.00 Build 0)  -->
<svg version="1.1" id="Layer_1" xmlns="http://www.w3.org/2000/svg" xmlns:xlink="http://www.w3.org/1999/xlink" x="0px" y="0px"
	 viewBox="0 0 360 300" style="enable-background:new 0 0 360 300;" xml:space="preserve">
<style type="text/css">
	.st0{fill:#5B4D45;}
	.st1{fill:#F8BA2E;}
	.st2{fill:#736357;}
	.st3{fill:#FFFFFF;}
	.st4{fill:#374252;}
	.st5{fill:#109EF1;}
</style>
<path class="st0" d="M97.5,177.4c-1.3-29.3,18.8-51.9,42.2-50.6s33.4,25.9,33.3,44.2c-0.1,48.1-41.6,107.9-60.5,111.7
	C103.5,252.8,98.8,209,97.5,177.4z"/>
<path class="st1" d="M176.3,295h-19.7c-2,0-3.7-1.6-3.7-3.7c0-2,1.6-3.7,3.7-3.7h16.9l13.7-50.7c0.5-2,2.5-3.1,4.5-2.6
	c2,0.5,3.1,2.5,2.6,4.5l-14.4,53.4C179.4,293.9,177.9,295,176.3,295z"/>
<path class="st1" d="M219.1,295h-19.7c-2,0-3.7-1.6-3.7-3.7c0-2,1.6-3.7,3.7-3.7h16.9l9.6-37.3c0.5-2,2.5-3.1,4.5-2.6
	c2,0.5,3.1,2.5,2.6,4.5l-10.3,40C222.3,293.9,220.8,295,219.1,295z"/>
<g>
	<path class="st2" d="M254.3,93.7c0-38.3-31-69.3-69.3-69.3c-38.3,0-69.3,31-69.3,69.3c0,102.4,52.4,184.1,143.8,184.1
		c0,0-5.2-64.3-5.2-99.8S254.3,93.7,254.3,93.7L254.3,93.7C254.3,93.7,254.3,93.7,254.3,93.7z"/>
	<path class="st3" d="M213.3,67.5c-12.8,0-23.1,10.3-23.1,23.1v29.1h-10.5V90.6c0-12.8-10.3-23.1-23.1-23.1s-23.1,10.3-23.1,23.1
		c0,0,0,2.1,0,3.1c0,28.4,23,51.5,51.4,51.5s51.5-23,51.5-51.5c0-1,0-3.1,0-3.1C236.4,77.8,226.1,67.5,213.3,67.5z"/>
	<path class="st1" d="M190.2,119.7c0,4.2-5.3,10.8-5.3,10.8s-5.2-6.6-5.2-10.8H190.2z"/>
	<g>
		<path class="st4" d="M210.2,107.1c3.9,0,7.4-3.2,7.4-7v-8.5c0-3.9-3.5-7-7.4-7s-7.4,3.2-7.4,7v8.5
			C202.8,104,206.3,107.1,210.2,107.1z"/>
	</g>
	<g>
		<path class="st4" d="M159.8,107.1c-3.9,0-7.3-3.2-7.3-7v-8.5c0-3.9,3.5-7,7.3-7s7.4,3.2,7.4,7v8.5
			C167.1,104,163.7,107.1,159.8,107.1z"/>
	</g>
</g>
<path class="st0" d="M296,169.1c-6.3-28.6-31.5-45.3-53.8-38.1c-22.4,7.2-25.6,33.6-20.8,51.3c12.5,46.5,67.9,93.6,87.2,92.4
	C309.5,243.5,302.8,199.9,296,169.1z"/>
<path class="st5" d="M173,194.4c0-5.5-4.2-10.3-9.5-10.3l-39.6,0v-5.6c0-9-7.4-16.4-16.4-16.4h-24c-9,0-16.4,7.4-16.4,16.4v5.6
	l-38.7,0c-5.2,0-9.8,4.9-9.8,10.3l0,91.4c0,5.5,4.5,9.2,9.8,9.2l135.1,0c5.2,0,9.5-3.8,9.5-9.2L173,194.4z M75,178.4
	c0-4.7,3.8-8.5,8.5-8.5h24c4.7,0,8.5,3.8,8.5,8.5v5.6l-41,0V178.4z"/>
<g>
	<path class="st3" d="M68.4,249.4H52.3v-5.5l15.6-22.2h7v22.1h4.4v5.6h-4.4v8h-6.5V249.4z M68.4,243.8v-13.6l-9.6,13.6H68.4z"/>
	<path class="st3" d="M95.5,258.2c-4.1,0-7.3-1.6-9.6-4.9c-2.3-3.3-3.5-7.8-3.5-13.7c0-5.9,1.2-10.4,3.5-13.7
		c2.3-3.3,5.5-4.9,9.6-4.9s7.4,1.6,9.7,4.9c2.3,3.3,3.5,7.9,3.5,13.7c0,5.8-1.2,10.4-3.5,13.7C102.9,256.5,99.7,258.2,95.5,258.2z
		 M95.5,252.1c3.9,0,5.9-4.2,5.9-12.5c0-8.4-2-12.5-5.9-12.5c-3.9,0-5.8,4.2-5.8,12.5C89.7,247.9,91.7,252.1,95.5,252.1z"/>
	<path class="st3" d="M127.9,249.4h-16.1v-5.5l15.6-22.2h7v22.1h4.4v5.6h-4.4v8h-6.5V249.4z M127.9,243.8v-13.6l-9.6,13.6H127.9z"/>
</g>
</svg>
