<svg xmlns="http://www.w3.org/2000/svg" viewBox="0 0 756 320" enable-background="new 0 0 756 320"><path fill="#00A1FF" d="M0 0h756v320h-756z"/><g fill="#fff"><path fill-rule="evenodd" clip-rule="evenodd" d="M378 56.6c-58.5 0-106 47.5-106 106 0 46.8 30.4 86.6 72.5 100.6 5.3 1 7.2-2.3 7.2-5.1 0-2.5-.1-10.9-.1-19.7-29.5 6.4-35.7-12.5-35.7-12.5-4.8-12.3-11.8-15.5-11.8-15.5-9.6-6.6.7-6.4.7-6.4 10.6.7 16.3 10.9 16.3 10.9 9.5 16.2 24.8 11.5 30.9 8.8 1-6.9 3.7-11.5 6.7-14.2-23.5-2.7-48.3-11.8-48.3-52.4 0-11.6 4.1-21 10.9-28.5-1.1-2.7-4.7-13.5 1-28.1 0 0 8.9-2.8 29.2 10.9 8.5-2.3 17.5-3.5 26.5-3.6 9 0 18.1 1.2 26.6 3.6 20.2-13.7 29.1-10.9 29.1-10.9 5.8 14.6 2.1 25.4 1 28.1 6.8 7.4 10.9 16.9 10.9 28.5 0 40.7-24.8 49.7-48.4 52.3 3.8 3.3 7.2 9.7 7.2 19.6 0 14.2-.1 25.6-.1 29.1 0 2.8 1.9 6.1 7.3 5.1 42.1-14 72.4-53.8 72.4-100.6 0-58.5-47.5-106-106-106z"/><path d="M312.1 208.8c-.2.5-1.1.7-1.8.3-.8-.3-1.2-1.1-1-1.6.2-.5 1.1-.7 1.8-.3.9.4 1.3 1.1 1 1.6zm-1.3-1M316.4 213.6c-.5.5-1.5.3-2.2-.5-.7-.7-.8-1.7-.3-2.2.5-.5 1.5-.2 2.2.5.7.8.9 1.7.3 2.2zm-1-1.1M320.6 219.7c-.6.5-1.7 0-2.4-.9-.6-.9-.6-2.1 0-2.5.7-.5 1.7 0 2.4.9s.7 2 0 2.5zm0 0M326.3 225.6c-.6.6-1.8.5-2.7-.4-.9-.9-1.2-2.1-.6-2.7.6-.6 1.8-.5 2.7.4 1 .9 1.3 2.1.6 2.7zm0 0M334.2 229c-.3.8-1.4 1.2-2.6.9-1.2-.4-2-1.3-1.7-2.2.2-.8 1.4-1.2 2.7-.9 1.1.4 1.9 1.4 1.6 2.2zm0 0M342.9 229.7c0 .9-1 1.6-2.2 1.6-1.3 0-2.3-.7-2.3-1.5 0-.9 1-1.6 2.3-1.6 1.2-.1 2.2.6 2.2 1.5zm0 0M351 228.3c.2.9-.7 1.7-2 2-1.2.2-2.4-.3-2.5-1.1-.2-.9.7-1.8 2-2 1.2-.3 2.3.2 2.5 1.1zm0 0"/></g></svg>