<?xml version="1.0" encoding="utf-8"?>
<!-- Generator: Adobe Illustrator 17.1.0, SVG Export Plug-In . SVG Version: 6.00 Build 0)  -->
<!DOCTYPE svg PUBLIC "-//W3C//DTD SVG 1.1//EN" "http://www.w3.org/Graphics/SVG/1.1/DTD/svg11.dtd">
<svg version="1.1" xmlns="http://www.w3.org/2000/svg" xmlns:xlink="http://www.w3.org/1999/xlink" x="0px" y="0px"
	 viewBox="0 0 756 320" enable-background="new 0 0 756 320" xml:space="preserve">
<g id="Layer_1">
	<rect fill="#00A1FF" width="756" height="320"/>
</g>
<g id="Layer_2">
	<g>
		<path fill-rule="evenodd" clip-rule="evenodd" fill="#FFFFFF" d="M378,56.6c-58.5,0-106,47.5-106,106c0,46.8,30.4,86.6,72.5,100.6
			c5.3,1,7.2-2.3,7.2-5.1c0-2.5-0.1-10.9-0.1-19.7c-29.5,6.4-35.7-12.5-35.7-12.5c-4.8-12.3-11.8-15.5-11.8-15.5
			c-9.6-6.6,0.7-6.4,0.7-6.4c10.6,0.7,16.3,10.9,16.3,10.9c9.5,16.2,24.8,11.5,30.9,8.8c1-6.9,3.7-11.5,6.7-14.2
			c-23.5-2.7-48.3-11.8-48.3-52.4c0-11.6,4.1-21,10.9-28.5c-1.1-2.7-4.7-13.5,1-28.1c0,0,8.9-2.8,29.2,10.9
			c8.5-2.3,17.5-3.5,26.5-3.6c9,0,18.1,1.2,26.6,3.6c20.2-13.7,29.1-10.9,29.1-10.9c5.8,14.6,2.1,25.4,1,28.1
			c6.8,7.4,10.9,16.9,10.9,28.5c0,40.7-24.8,49.7-48.4,52.3c3.8,3.3,7.2,9.7,7.2,19.6c0,14.2-0.1,25.6-0.1,29.1
			c0,2.8,1.9,6.1,7.3,5.1c42.1-14,72.4-53.8,72.4-100.6C484,104.1,436.5,56.6,378,56.6z"/>
		<path fill="#FFFFFF" d="M312.1,208.8c-0.2,0.5-1.1,0.7-1.8,0.3c-0.8-0.3-1.2-1.1-1-1.6c0.2-0.5,1.1-0.7,1.8-0.3
			C312,207.6,312.4,208.3,312.1,208.8L312.1,208.8z M310.8,207.8"/>
		<path fill="#FFFFFF" d="M316.4,213.6c-0.5,0.5-1.5,0.3-2.2-0.5c-0.7-0.7-0.8-1.7-0.3-2.2c0.5-0.5,1.5-0.2,2.2,0.5
			C316.8,212.2,317,213.1,316.4,213.6L316.4,213.6z M315.4,212.5"/>
		<path fill="#FFFFFF" d="M320.6,219.7c-0.6,0.5-1.7,0-2.4-0.9c-0.6-0.9-0.6-2.1,0-2.5c0.7-0.5,1.7,0,2.4,0.9
			C321.3,218.1,321.3,219.2,320.6,219.7L320.6,219.7z M320.6,219.7"/>
		<path fill="#FFFFFF" d="M326.3,225.6c-0.6,0.6-1.8,0.5-2.7-0.4c-0.9-0.9-1.2-2.1-0.6-2.7c0.6-0.6,1.8-0.5,2.7,0.4
			C326.7,223.8,327,225,326.3,225.6L326.3,225.6z M326.3,225.6"/>
		<path fill="#FFFFFF" d="M334.2,229c-0.3,0.8-1.4,1.2-2.6,0.9c-1.2-0.4-2-1.3-1.7-2.2c0.2-0.8,1.4-1.2,2.7-0.9
			C333.7,227.2,334.5,228.2,334.2,229L334.2,229z M334.2,229"/>
		<path fill="#FFFFFF" d="M342.9,229.7c0,0.9-1,1.6-2.2,1.6c-1.3,0-2.3-0.7-2.3-1.5c0-0.9,1-1.6,2.3-1.6
			C341.9,228.1,342.9,228.8,342.9,229.7L342.9,229.7z M342.9,229.7"/>
		<path fill="#FFFFFF" d="M351,228.3c0.2,0.9-0.7,1.7-2,2c-1.2,0.2-2.4-0.3-2.5-1.1c-0.2-0.9,0.7-1.8,2-2
			C349.7,226.9,350.8,227.4,351,228.3L351,228.3z M351,228.3"/>
	</g>
</g>
</svg>
