<svg xmlns="http://www.w3.org/2000/svg" viewBox="0 0 756 320" enable-background="new 0 0 756 320"><path fill="#27415A" d="M0 0h756v320h-756z"/><g fill="#fff"><path opacity=".25" d="M190 161.6c0-2-1.2-4-7.5-4v-1.6c6.2 0 7.5-2 7.5-4 0-3.2-.5-6.9-.5-10.3 0-5 3.1-6.4 9.2-6.4h2.6v1.5h-2.9c-5.7 0-6.9 1.5-6.9 5.1 0 3 .4 6.4.4 9.6 0 2.9-1 4.6-4.3 5.2v.2c3.3.6 4.3 2.3 4.3 5.2 0 3.6-.4 6.3-.4 9.6 0 3.6 1.2 5.1 6.9 5.1h2.9v1.5h-2.6c-6.2 0-9.2-1.4-9.2-6.4.1-3.7.5-6.7.5-10.3zM218.8 161.6c0-2-1.2-4-7.5-4v-1.6c6.2 0 7.5-2 7.5-4 0-3.2-.5-6.9-.5-10.3 0-5 3.1-6.4 9.2-6.4h2.6v1.5h-2.9c-5.7 0-6.9 1.5-6.9 5.1 0 3 .4 6.4.4 9.6 0 2.9-1 4.6-4.3 5.2v.2c3.3.6 4.3 2.3 4.3 5.2 0 3.6-.4 6.3-.4 9.6 0 3.6 1.2 5.1 6.9 5.1h2.9v1.5h-2.6c-6.2 0-9.2-1.4-9.2-6.4 0-3.7.5-6.7.5-10.3z"/><path d="M270.6 169.7v-.2c-1.2-.6-2.5-1.8-2.5-3.8 0-1.6 1-3.3 2.9-4.6v-.2c-1.5-1.2-2.9-3.3-2.9-6.2 0-5 4.1-8.6 9-8.6 1.3 0 2.4.2 3.3.6h10v1.8h-7.3c1.5 1.5 2.9 3.6 2.9 6.2 0 4.9-4 8.4-8.9 8.4-1.5 0-3.1-.3-4.6-1.1-1.4.8-2.4 2-2.4 3.3 0 2.3 2.2 3.4 5.6 3.4h6c6.1 0 8.8 1.5 8.8 5.4 0 4.2-5 8.2-12.7 8.2-7.5 0-11.2-2.8-11.2-7 0-1.8 1.4-4 4-5.6zm7 10.8c6.6 0 10.6-3.2 10.6-6.2 0-2.7-2.1-3.6-6.3-3.6h-5.7c-1.2 0-2.6-.1-3.7-.4-2.9 1.5-3.9 3.3-3.9 5 .1 3 3 5.2 9 5.2zm6.2-25.8c0-3.9-3.1-6.8-6.7-6.8-3.7 0-6.7 2.8-6.7 6.8s3 6.7 6.7 6.7c3.7-.1 6.7-2.8 6.7-6.7zM299.3 146.7h1.9l.2 5.9h.1c2.6-3.8 6.5-6.5 11.3-6.5 1.6 0 3.3.2 4.8 1l-.6 2c-1.8-.6-2.6-.8-4.6-.8-4 0-7.7 2-11 7.5v15h-2.2v-24.1zM334.9 146.1c6.3 0 11.7 4.6 11.7 12.7 0 8-5.4 12.6-11.7 12.6s-11.7-4.6-11.7-12.6c0-8.1 5.4-12.7 11.7-12.7zm0 23.3c5.4 0 9.3-4.3 9.3-10.6 0-6.4-3.9-10.7-9.3-10.7s-9.3 4.4-9.3 10.7c0 6.3 3.9 10.6 9.3 10.6zM373.3 170.8h-1.9l-.2-4.7h-.2c-2.6 3.1-5.6 5.3-9.5 5.3-5.9 0-8.6-3.2-8.6-9.7v-15h2.2v14.7c0 5.4 2 8 6.8 8 3.4 0 5.9-1.7 9.2-5.5v-17.2h2.2v24.1zM384.9 172.9v8.8h-2.2v-34.9h1.9l.2 3.5h.1c2.4-2.3 5.9-4.1 9-4.1 6.8 0 10.2 4.8 10.2 12.3 0 8.2-5.2 13-11.3 13-2.3 0-5.5-1.2-8-3.4l.1 4.8zm7.8-3.5c5.3 0 9-4.5 9-11 0-5.9-2.3-10.3-8.2-10.3-2.5 0-5.6 1.4-8.6 4.4v13.4c2.8 2.5 5.9 3.5 7.8 3.5zM433.1 174.7v2.3h-24v-2.3h24zM440.1 134.8h2.2v10.4l-.1 5.2c2.6-2.5 6-4.2 9.1-4.2 6.8 0 10.2 4.8 10.2 12.3 0 8.2-5.3 13-11.2 13-2.5 0-5.7-1.3-8-3.3h-.1l-.2 2.7h-1.9v-36.1zm10.2 34.6c5.2 0 8.9-4.5 8.9-11 0-5.9-2.3-10.3-8.2-10.3-2.5 0-5.6 1.4-8.6 4.4v13.4c2.8 2.5 5.9 3.5 7.9 3.5zM469.9 179.7c3.7 0 6-2.7 7.5-6.3l.8-2.1-11.7-24.5h2.3l7 15.1c.9 2 2.1 4.6 3.3 6.8h.2c.9-2.2 1.9-4.7 2.8-6.8l6.3-15.1h2.1l-11.3 27c-1.4 4-4.4 8-9.5 8-1 0-2.2-.2-2.9-.5l.6-2c.8.2 1.7.4 2.5.4z"/><path opacity=".25" d="M528.8 176.9c5.7 0 7-1.5 7-5.1 0-3.3-.4-6-.4-9.6 0-2.9.8-4.6 4.2-5.2v-.2c-3.4-.6-4.2-2.3-4.2-5.2 0-3.2.4-6.6.4-9.6 0-3.5-1.3-5.1-7-5.1h-2.9v-1.5h2.6c6.2 0 9.2 1.4 9.2 6.4 0 3.4-.4 7.1-.4 10.3 0 2 1.2 4 7.4 4v1.6c-6.2 0-7.4 2-7.4 4 0 3.5.4 6.6.4 10.3 0 5-3 6.4-9.2 6.4h-2.6v-1.5h2.9zM557.5 176.9c5.7 0 7-1.5 7-5.1 0-3.3-.4-6-.4-9.6 0-2.9.8-4.6 4.2-5.2v-.2c-3.4-.6-4.2-2.3-4.2-5.2 0-3.2.4-6.6.4-9.6 0-3.5-1.3-5.1-7-5.1h-2.9v-1.5h2.6c6.2 0 9.2 1.4 9.2 6.4 0 3.4-.4 7.1-.4 10.3 0 2 1.2 4 7.4 4v1.6c-6.2 0-7.4 2-7.4 4 0 3.5.4 6.6.4 10.3 0 5-3 6.4-9.2 6.4h-2.6v-1.5h2.9z"/></g></svg>