<?xml version="1.0" encoding="utf-8"?>
<!-- Generator: Adobe Illustrator 18.1.1, SVG Export Plug-In . SVG Version: 6.00 Build 0)  -->
<!DOCTYPE svg PUBLIC "-//W3C//DTD SVG 1.1//EN" "http://www.w3.org/Graphics/SVG/1.1/DTD/svg11.dtd">
<svg version="1.1" id="Layer_1" xmlns="http://www.w3.org/2000/svg" xmlns:xlink="http://www.w3.org/1999/xlink" x="0px" y="0px"
	 viewBox="0 0 756 320" enable-background="new 0 0 756 320" xml:space="preserve">
<g id="Layer_1_1_">
	<rect fill="#27415A" width="756" height="320"/>
</g>
<g>
	<path opacity="0.25" fill="#FFFFFF" d="M190,161.6c0-2-1.2-4-7.5-4V156c6.2,0,7.5-2,7.5-4c0-3.2-0.5-6.9-0.5-10.3
		c0-5,3.1-6.4,9.2-6.4h2.6v1.5h-2.9c-5.7,0-6.9,1.5-6.9,5.1c0,3,0.4,6.4,0.4,9.6c0,2.9-1,4.6-4.3,5.2v0.2c3.3,0.6,4.3,2.3,4.3,5.2
		c0,3.6-0.4,6.3-0.4,9.6c0,3.6,1.2,5.1,6.9,5.1h2.9v1.5h-2.6c-6.2,0-9.2-1.4-9.2-6.4C189.6,168.2,190,165.2,190,161.6z"/>
	<path opacity="0.25" fill="#FFFFFF" d="M218.8,161.6c0-2-1.2-4-7.5-4V156c6.2,0,7.5-2,7.5-4c0-3.2-0.5-6.9-0.5-10.3
		c0-5,3.1-6.4,9.2-6.4h2.6v1.5h-2.9c-5.7,0-6.9,1.5-6.9,5.1c0,3,0.4,6.4,0.4,9.6c0,2.9-1,4.6-4.3,5.2v0.2c3.3,0.6,4.3,2.3,4.3,5.2
		c0,3.6-0.4,6.3-0.4,9.6c0,3.6,1.2,5.1,6.9,5.1h2.9v1.5h-2.6c-6.2,0-9.2-1.4-9.2-6.4C218.3,168.2,218.8,165.2,218.8,161.6z"/>
	<path fill="#FFFFFF" d="M270.6,169.7v-0.2c-1.2-0.6-2.5-1.8-2.5-3.8c0-1.6,1-3.3,2.9-4.6v-0.2c-1.5-1.2-2.9-3.3-2.9-6.2
		c0-5,4.1-8.6,9-8.6c1.3,0,2.4,0.2,3.3,0.6h10v1.8h-7.3c1.5,1.5,2.9,3.6,2.9,6.2c0,4.9-4,8.4-8.9,8.4c-1.5,0-3.1-0.3-4.6-1.1
		c-1.4,0.8-2.4,2-2.4,3.3c0,2.3,2.2,3.4,5.6,3.4h6c6.1,0,8.8,1.5,8.8,5.4c0,4.2-5,8.2-12.7,8.2c-7.5,0-11.2-2.8-11.2-7
		C266.6,173.5,268,171.3,270.6,169.7z M277.6,180.5c6.6,0,10.6-3.2,10.6-6.2c0-2.7-2.1-3.6-6.3-3.6h-5.7c-1.2,0-2.6-0.1-3.7-0.4
		c-2.9,1.5-3.9,3.3-3.9,5C268.7,178.3,271.6,180.5,277.6,180.5z M283.8,154.7c0-3.9-3.1-6.8-6.7-6.8c-3.7,0-6.7,2.8-6.7,6.8
		c0,4,3,6.7,6.7,6.7C280.8,161.3,283.8,158.6,283.8,154.7z"/>
	<path fill="#FFFFFF" d="M299.3,146.7h1.9l0.2,5.9h0.1c2.6-3.8,6.5-6.5,11.3-6.5c1.6,0,3.3,0.2,4.8,1l-0.6,2
		c-1.8-0.6-2.6-0.8-4.6-0.8c-4,0-7.7,2-11,7.5v15h-2.2V146.7z"/>
	<path fill="#FFFFFF" d="M334.9,146.1c6.3,0,11.7,4.6,11.7,12.7c0,8-5.4,12.6-11.7,12.6s-11.7-4.6-11.7-12.6
		C323.2,150.7,328.6,146.1,334.9,146.1z M334.9,169.4c5.4,0,9.3-4.3,9.3-10.6c0-6.4-3.9-10.7-9.3-10.7s-9.3,4.4-9.3,10.7
		C325.6,165.1,329.5,169.4,334.9,169.4z"/>
	<path fill="#FFFFFF" d="M373.3,170.8h-1.9l-0.2-4.7H371c-2.6,3.1-5.6,5.3-9.5,5.3c-5.9,0-8.6-3.2-8.6-9.7v-15h2.2v14.7
		c0,5.4,2,8,6.8,8c3.4,0,5.9-1.7,9.2-5.5v-17.2h2.2V170.8z"/>
	<path fill="#FFFFFF" d="M384.9,172.9v8.8h-2.2v-34.9h1.9l0.2,3.5h0.1c2.4-2.3,5.9-4.1,9-4.1c6.8,0,10.2,4.8,10.2,12.3
		c0,8.2-5.2,13-11.3,13c-2.3,0-5.5-1.2-8-3.4L384.9,172.9z M392.7,169.4c5.3,0,9-4.5,9-11c0-5.9-2.3-10.3-8.2-10.3
		c-2.5,0-5.6,1.4-8.6,4.4v13.4C387.7,168.4,390.8,169.4,392.7,169.4z"/>
	<path fill="#FFFFFF" d="M433.1,174.7v2.3h-24v-2.3H433.1z"/>
	<path fill="#FFFFFF" d="M440.1,134.8h2.2v10.4l-0.1,5.2c2.6-2.5,6-4.2,9.1-4.2c6.8,0,10.2,4.8,10.2,12.3c0,8.2-5.3,13-11.2,13
		c-2.5,0-5.7-1.3-8-3.3h-0.1l-0.2,2.7h-1.9V134.8z M450.3,169.4c5.2,0,8.9-4.5,8.9-11c0-5.9-2.3-10.3-8.2-10.3
		c-2.5,0-5.6,1.4-8.6,4.4v13.4C445.2,168.4,448.3,169.4,450.3,169.4z"/>
	<path fill="#FFFFFF" d="M469.9,179.7c3.7,0,6-2.7,7.5-6.3l0.8-2.1l-11.7-24.5h2.3l7,15.1c0.9,2,2.1,4.6,3.3,6.8h0.2
		c0.9-2.2,1.9-4.7,2.8-6.8l6.3-15.1h2.1l-11.3,27c-1.4,4-4.4,8-9.5,8c-1,0-2.2-0.2-2.9-0.5l0.6-2
		C468.2,179.5,469.1,179.7,469.9,179.7z"/>
	<path opacity="0.25" fill="#FFFFFF" d="M528.8,176.9c5.7,0,7-1.5,7-5.1c0-3.3-0.4-6-0.4-9.6c0-2.9,0.8-4.6,4.2-5.2v-0.2
		c-3.4-0.6-4.2-2.3-4.2-5.2c0-3.2,0.4-6.6,0.4-9.6c0-3.5-1.3-5.1-7-5.1h-2.9v-1.5h2.6c6.2,0,9.2,1.4,9.2,6.4c0,3.4-0.4,7.1-0.4,10.3
		c0,2,1.2,4,7.4,4v1.6c-6.2,0-7.4,2-7.4,4c0,3.5,0.4,6.6,0.4,10.3c0,5-3,6.4-9.2,6.4h-2.6v-1.5H528.8z"/>
	<path opacity="0.25" fill="#FFFFFF" d="M557.5,176.9c5.7,0,7-1.5,7-5.1c0-3.3-0.4-6-0.4-9.6c0-2.9,0.8-4.6,4.2-5.2v-0.2
		c-3.4-0.6-4.2-2.3-4.2-5.2c0-3.2,0.4-6.6,0.4-9.6c0-3.5-1.3-5.1-7-5.1h-2.9v-1.5h2.6c6.2,0,9.2,1.4,9.2,6.4c0,3.4-0.4,7.1-0.4,10.3
		c0,2,1.2,4,7.4,4v1.6c-6.2,0-7.4,2-7.4,4c0,3.5,0.4,6.6,0.4,10.3c0,5-3,6.4-9.2,6.4h-2.6v-1.5H557.5z"/>
</g>
<g>
</g>
<g>
</g>
<g>
</g>
<g>
</g>
<g>
</g>
<g>
</g>
</svg>
