<?xml version="1.0" encoding="utf-8"?>
<!-- Generator: Adobe Illustrator 19.2.1, SVG Export Plug-In . SVG Version: 6.00 Build 0)  -->
<svg version="1.1" id="Layer_1" xmlns="http://www.w3.org/2000/svg" xmlns:xlink="http://www.w3.org/1999/xlink" x="0px" y="0px"
	 viewBox="0 0 1080 675" style="enable-background:new 0 0 1080 675;" xml:space="preserve">
<style type="text/css">
	.st0{fill:#FFFFFF;}
	.st1{fill:none;stroke:#FFFFFF;stroke-width:0.4;stroke-miterlimit:10;}
	.st2{fill:#8992A1;}
	.st3{clip-path:url(#SVGID_2_);}
	.st4{clip-path:url(#SVGID_4_);fill:#8992A1;}
	.st5{clip-path:url(#SVGID_6_);}
	.st6{clip-path:url(#SVGID_8_);fill:#8992A1;}
	.st7{clip-path:url(#SVGID_10_);}
	.st8{clip-path:url(#SVGID_12_);fill:#8992A1;}
	.st9{clip-path:url(#SVGID_14_);}
	.st10{clip-path:url(#SVGID_16_);fill:#8992A1;}
	.st11{clip-path:url(#SVGID_18_);}
	.st12{clip-path:url(#SVGID_20_);fill:#8992A1;}
	.st13{clip-path:url(#SVGID_22_);}
	.st14{clip-path:url(#SVGID_24_);fill:#8992A1;}
	.st15{clip-path:url(#SVGID_26_);}
	.st16{clip-path:url(#SVGID_28_);fill:#8992A1;}
	.st17{clip-path:url(#SVGID_30_);}
	.st18{clip-path:url(#SVGID_32_);fill:#8992A1;}
	.st19{fill:#5A6576;}
</style>
<g>
	<circle class="st0" cx="606.3" cy="149.3" r="2.3"/>
	<circle class="st0" cx="597" cy="553.2" r="2.3"/>
	<circle class="st0" cx="782.8" cy="470.5" r="2.3"/>
	<circle class="st0" cx="104" cy="409.2" r="2.3"/>
	<circle class="st0" cx="989.3" cy="155.8" r="2.3"/>
	<circle class="st0" cx="924" cy="113.7" r="2.3"/>
	<circle class="st0" cx="189.1" cy="204" r="2.3"/>
	<path class="st0" d="M734.1,415.7c1.2-0.8,0.9-1.5-0.5-1.5H731l-0.8-2.5c-0.4-1.4-1.2-1.4-1.6,0l-0.8,2.5h-2.6
		c-1.4,0-1.7,0.7-0.5,1.5l2.1,1.5l-0.8,2.5c-0.4,1.4,0.1,1.8,1.3,0.9l0,0l2.1-1.5l2.1,1.5c1.2,0.8,1.7,0.4,1.3-0.9l-0.8-2.5
		L734.1,415.7z"/>
	<path class="st0" d="M597.9,197.4c1.2-0.8,0.9-1.5-0.5-1.5h-2.6l-0.8-2.5c-0.4-1.4-1.2-1.4-1.6,0l-0.8,2.5H589
		c-1.4,0-1.7,0.7-0.5,1.5l2.1,1.5l-0.8,2.5c-0.4,1.4,0.1,1.8,1.3,0.9l0,0l2.1-1.5l2.1,1.5c1.2,0.8,1.7,0.4,1.3-0.9l-0.8-2.5
		L597.9,197.4z"/>
	<path class="st0" d="M821.4,560.2c1.2-0.8,0.9-1.5-0.5-1.5h-2.6l-0.8-2.5c-0.4-1.4-1.2-1.4-1.6,0l-0.8,2.5h-2.6
		c-1.4,0-1.7,0.7-0.5,1.5l2.1,1.5l-0.8,2.5c-0.4,1.4,0.1,1.8,1.3,0.9l0,0l2.1-1.5l2.1,1.5c1.2,0.8,1.7,0.4,1.3-0.9l-0.8-2.5
		L821.4,560.2z"/>
	<path class="st0" d="M856,247c1.2-0.8,0.9-1.5-0.5-1.5h-2.6l-0.8-2.5c-0.4-1.4-1.2-1.4-1.6,0l-0.8,2.5h-2.6c-1.4,0-1.7,0.7-0.5,1.5
		l2.1,1.5l-0.8,2.5c-0.4,1.4,0.1,1.8,1.3,0.9l0,0l2.1-1.5l2.1,1.5c1.2,0.8,1.7,0.4,1.3-0.9l-0.8-2.5L856,247z"/>
	<path class="st0" d="M760.8,378.7c1.2-0.8,0.9-1.5-0.5-1.5h-2.6l-0.8-2.5c-0.4-1.4-1.2-1.4-1.6,0l-0.8,2.5h-2.6
		c-1.4,0-1.7,0.7-0.5,1.5l2.1,1.5l-0.8,2.5c-0.4,1.4,0.1,1.8,1.3,0.9l0,0l2.1-1.5l2.1,1.5c1.2,0.8,1.7,0.4,1.3-0.9l-0.8-2.5
		L760.8,378.7z"/>
	<path class="st0" d="M1008.7,251.2c1.2-0.8,0.9-1.5-0.5-1.5h-2.6l-0.8-2.5c-0.4-1.4-1.2-1.4-1.6,0l-0.8,2.5h-2.6
		c-1.4,0-1.7,0.7-0.5,1.5l2.1,1.5l-0.8,2.5c-0.4,1.4,0.1,1.8,1.3,0.9l0,0l2.1-1.5l2.1,1.5c1.2,0.8,1.7,0.4,1.3-0.9l-0.8-2.5
		L1008.7,251.2z"/>
	<path class="st0" d="M1004.4,407.2c1.2-0.8,0.9-1.5-0.5-1.5h-2.6l-0.8-2.5c-0.4-1.4-1.2-1.4-1.6,0l-0.8,2.5h-2.6
		c-1.4,0-1.7,0.7-0.5,1.5l2.1,1.5l-0.8,2.5c-0.4,1.4,0.1,1.8,1.3,0.9l0,0l2.1-1.5l2.1,1.5c1.2,0.8,1.7,0.4,1.3-0.9l-0.8-2.5
		L1004.4,407.2z"/>
	<path class="st0" d="M183,619.4c1.2-0.8,0.9-1.5-0.5-1.5h-2.6l-0.8-2.5c-0.4-1.4-1.2-1.4-1.6,0l-0.8,2.5h-2.6
		c-1.4,0-1.7,0.7-0.5,1.5l2.1,1.5l-0.8,2.5c-0.4,1.4,0.1,1.8,1.3,0.9l0,0l2.1-1.5l2.1,1.5c1.2,0.8,1.7,0.4,1.3-0.9l-0.8-2.5
		L183,619.4z"/>
	<path class="st0" d="M257.2,385.9c1.2-0.8,0.9-1.5-0.5-1.5h-2.6l-0.8-2.5c-0.4-1.4-1.2-1.4-1.6,0l-0.8,2.5h-2.6
		c-1.4,0-1.7,0.7-0.5,1.5l2.1,1.5l-0.8,2.5c-0.4,1.4,0.1,1.8,1.3,0.9l0,0l2.1-1.5l2.1,1.5c1.2,0.8,1.7,0.4,1.3-0.9l-0.8-2.5
		L257.2,385.9z"/>
	<path class="st0" d="M306.2,586.3c1.2-0.8,0.9-1.5-0.5-1.5h-2.6l-0.8-2.5c-0.4-1.4-1.2-1.4-1.6,0l-0.8,2.5h-2.6
		c-1.4,0-1.7,0.7-0.5,1.5l2.1,1.5l-0.8,2.5c-0.4,1.4,0.1,1.8,1.3,0.9l0,0l2.1-1.5l2.1,1.5c1.2,0.8,1.7,0.4,1.3-0.9l-0.8-2.5
		L306.2,586.3z"/>
	<path class="st0" d="M142.8,315.7c1.2-0.8,0.9-1.5-0.5-1.5h-2.6l-0.8-2.5c-0.4-1.4-1.2-1.4-1.6,0l-0.8,2.5h-2.6
		c-1.4,0-1.7,0.7-0.5,1.5l2.1,1.5l-0.8,2.5c-0.4,1.4,0.1,1.8,1.3,0.9l0,0l2.1-1.5l2.1,1.5c1.2,0.8,1.7,0.4,1.3-0.9l-0.8-2.5
		L142.8,315.7z"/>
	<path class="st0" d="M235.3,104.7c1.2-0.8,0.9-1.5-0.5-1.5h-2.6l-0.8-2.5c-0.4-1.4-1.2-1.4-1.6,0l-0.8,2.5h-2.6
		c-1.4,0-1.7,0.7-0.5,1.5l2.1,1.5l-0.8,2.5c-0.4,1.4,0.1,1.8,1.3,0.9l0,0l2.1-1.5l2.1,1.5c1.2,0.8,1.7,0.4,1.3-0.9l-0.8-2.5
		L235.3,104.7z"/>
	<path class="st0" d="M920.8,559.4h-4.3l-1.3-4.1c0,0,0,0,0,0c-0.7-2.3-1.9-2.3-2.7,0l-1.3,4.1h-4.3c-2.4,0-2.8,1.1-0.8,2.5l3.5,2.5
		l-1.3,4.1v0c-0.7,2.3,0.2,3,2.2,1.6l0,0l3.5-2.5l3.5,2.5c1.9,1.4,2.9,0.7,2.2-1.6l-1.3-4.1l3.5-2.5v0
		C923.6,560.5,923.2,559.4,920.8,559.4z M913.8,564.9c-1.3,0-2.3-1-2.3-2.3c0-1.3,1-2.3,2.3-2.3c1.3,0,2.3,1,2.3,2.3
		C916.1,563.9,915.1,564.9,913.8,564.9z"/>
	<path class="st0" d="M955.6,257.5h-4.3l-1.3-4.1c0,0,0,0,0,0c-0.7-2.3-1.9-2.3-2.7,0l-1.3,4.1h-4.3c-2.4,0-2.8,1.1-0.8,2.5l3.5,2.5
		l-1.3,4.1v0c-0.7,2.3,0.2,3,2.2,1.6l0,0l3.5-2.5l3.5,2.5c1.9,1.4,2.9,0.7,2.2-1.6l-1.3-4.1l3.5-2.5v0
		C958.3,258.7,957.9,257.5,955.6,257.5z M948.5,263c-1.3,0-2.3-1-2.3-2.3c0-1.3,1-2.3,2.3-2.3c1.3,0,2.3,1,2.3,2.3
		C950.8,262,949.8,263,948.5,263z"/>
	<path class="st0" d="M875,440h-4.3l-1.3-4.1l0,0c-0.7-2.3-1.9-2.3-2.7,0l-1.3,4.1H861c-2.4,0-2.8,1.1-0.8,2.5l3.5,2.5l-1.3,4.1
		c0,0,0,0,0,0c-0.7,2.3,0.2,3,2.2,1.6l0,0l3.5-2.5l3.5,2.5c1.9,1.4,2.9,0.7,2.2-1.6l-1.3-4.1l3.5-2.5v0
		C877.8,441.2,877.4,440,875,440z M868,445.5c-1.3,0-2.3-1-2.3-2.3c0-1.3,1-2.3,2.3-2.3c1.3,0,2.3,1,2.3,2.3
		C870.3,444.5,869.3,445.5,868,445.5z"/>
	<path class="st0" d="M295.2,415h-4.3l-1.3-4.1l0,0c-0.7-2.3-1.9-2.3-2.7,0l-1.3,4.1h-4.3c-2.4,0-2.8,1.1-0.8,2.5l3.5,2.5l-1.3,4.1
		v0c-0.7,2.3,0.2,3,2.2,1.6l0,0l3.5-2.5l3.5,2.5c1.9,1.4,2.9,0.7,2.2-1.6l-1.3-4.1l3.5-2.5v0C298,416.1,297.6,415,295.2,415z
		 M288.2,420.4c-1.3,0-2.3-1-2.3-2.3c0-1.3,1-2.3,2.3-2.3c1.3,0,2.3,1,2.3,2.3C290.5,419.4,289.4,420.4,288.2,420.4z"/>
	<path class="st0" d="M356.8,87h-4.3l-1.3-4.1l0,0c-0.7-2.3-1.9-2.3-2.7,0l-1.3,4.1h-4.3c-2.4,0-2.8,1.1-0.8,2.5l3.5,2.5l-1.3,4.1v0
		c-0.7,2.3,0.2,3,2.2,1.6l0,0l3.5-2.5l3.5,2.5c1.9,1.4,2.9,0.7,2.2-1.6l-1.3-4.1l3.5-2.5v0C359.5,88.1,359.1,87,356.8,87z
		 M349.7,92.5c-1.3,0-2.3-1-2.3-2.3c0-1.3,1-2.3,2.3-2.3c1.3,0,2.3,1,2.3,2.3C352,91.4,351,92.5,349.7,92.5z"/>
	<path class="st0" d="M898,108.2l-2.1-2.3l2.1-2.3c1.2-1.3,0.8-2-0.9-1.6l0,0l-3.1,0.7l-0.9-3v0c-0.5-1.6-1.3-1.6-1.8,0l-0.9,3
		l-3.1-0.7h0c-1.7-0.4-2.1,0.3-0.9,1.6l0,0l2.1,2.3l-2.1,2.3l0,0c-1.2,1.3-0.8,2,0.9,1.6h0l3.1-0.7l0.9,3c0.5,1.6,1.3,1.6,1.8,0
		l0.9-3l3.1,0.7l0,0C898.7,110.2,899.1,109.5,898,108.2z"/>
	<path class="st0" d="M559.9,436.4l-2.1-2.3l2.1-2.3c1.2-1.3,0.8-2-0.9-1.6l0,0l-3.1,0.7l-0.9-3v0c-0.5-1.6-1.3-1.6-1.8,0l-0.9,3
		l-3.1-0.7h0c-1.7-0.4-2.1,0.3-0.9,1.6l0,0l2.1,2.3l-2.1,2.3l0,0c-1.2,1.3-0.8,2,0.9,1.6h0l3.1-0.7l0.9,3c0.5,1.6,1.3,1.6,1.8,0
		l0.9-3l3.1,0.7l0,0C560.7,438.4,561.1,437.7,559.9,436.4z"/>
	<path class="st0" d="M260,482.6l-2.1-2.3l2.1-2.3c1.2-1.3,0.8-2-0.9-1.6l0,0l-3.1,0.7l-0.9-3v0c-0.5-1.6-1.3-1.6-1.8,0l-0.9,3
		l-3.1-0.7h0c-1.7-0.4-2.1,0.3-0.9,1.6l0,0l2.1,2.3l-2.1,2.3l0,0c-1.2,1.3-0.8,2,0.9,1.6h0l3.1-0.7l0.9,3c0.5,1.6,1.3,1.6,1.8,0
		l0.9-3l3.1,0.7l0,0C260.7,484.5,261.2,483.8,260,482.6z"/>
	<path class="st0" d="M881.1,575l-2.1-2.3l2.1-2.3c1.2-1.3,0.8-2-0.9-1.6l0,0l-3.1,0.7l-0.9-3v0c-0.5-1.6-1.3-1.6-1.8,0l-0.9,3
		l-3.1-0.7h0c-1.7-0.4-2.1,0.3-0.9,1.6l0,0l2.1,2.3l-2.1,2.3l0,0c-1.2,1.3-0.8,2,0.9,1.6h0l3.1-0.7l0.9,3c0.5,1.6,1.3,1.6,1.8,0
		l0.9-3l3.1,0.7l0,0C881.8,577,882.2,576.3,881.1,575z"/>
	<path class="st0" d="M783.4,537.2l-2.1-2.3l2.1-2.3c1.2-1.3,0.8-2-0.9-1.6l0,0l-3.1,0.7l-0.9-3v0c-0.5-1.6-1.3-1.6-1.8,0l-0.9,3
		l-3.1-0.7h0c-1.7-0.4-2.1,0.3-0.9,1.6l0,0l2.1,2.3l-2.1,2.3l0,0c-1.2,1.3-0.8,2,0.9,1.6h0l3.1-0.7l0.9,3c0.5,1.6,1.3,1.6,1.8,0
		l0.9-3l3.1,0.7l0,0C784.2,539.1,784.6,538.4,783.4,537.2z"/>
	<path class="st0" d="M805.2,218.8l-2.1-2.3l2.1-2.3c1.2-1.3,0.8-2-0.9-1.6l0,0l-3.1,0.7l-0.9-3v0c-0.5-1.6-1.3-1.6-1.8,0l-0.9,3
		l-3.1-0.7h0c-1.7-0.4-2.1,0.3-0.9,1.6l0,0l2.1,2.3l-2.1,2.3l0,0c-1.2,1.3-0.8,2,0.9,1.6h0l3.1-0.7l0.9,3c0.5,1.6,1.3,1.6,1.8,0
		l0.9-3l3.1,0.7l0,0C806,220.8,806.4,220.1,805.2,218.8z"/>
	<path class="st0" d="M361.2,381l-2.1-2.3l2.1-2.3c1.2-1.3,0.8-2-0.9-1.6l0,0l-3.1,0.7l-0.9-3v0c-0.5-1.6-1.3-1.6-1.8,0l-0.9,3
		l-3.1-0.7h0c-1.7-0.4-2.1,0.3-0.9,1.6l0,0l2.1,2.3l-2.1,2.3l0,0c-1.2,1.3-0.8,2,0.9,1.6h0l3.1-0.7l0.9,3c0.5,1.6,1.3,1.6,1.8,0
		l0.9-3l3.1,0.7l0,0C361.9,382.9,362.3,382.2,361.2,381z"/>
	<path class="st0" d="M71.4,222.5l-2.1-2.3l2.1-2.3c1.2-1.3,0.8-2-0.9-1.6l0,0l-3.1,0.7l-0.9-3v0c-0.5-1.6-1.3-1.6-1.8,0l-0.9,3
		l-3.1-0.7h0c-1.7-0.4-2.1,0.3-0.9,1.6l0,0l2.1,2.3l-2.1,2.3l0,0c-1.2,1.3-0.8,2,0.9,1.6h0l3.1-0.7l0.9,3c0.5,1.6,1.3,1.6,1.8,0
		l0.9-3l3.1,0.7l0,0C72.2,224.4,72.6,223.7,71.4,222.5z"/>
	<path class="st0" d="M694.4,85.3l-5.5-1.4l2.6-4.4l0.3-0.5c1.3-2.1,0.6-2.8-1.5-1.5l-1,0.6l-3.9,2.3l-1.1-4.4l-0.1-0.6l-0.1-0.6
		c-0.6-2.4-1.6-2.4-2.2,0l-0.3,1.1l0,0l-1.1,4.4l-3.9-2.3l-1-0.6c-2.1-1.3-2.8-0.6-1.5,1.5l0.3,0.5l2.6,4.4l-5.5,1.4
		c-2.4,0.6-2.4,1.6,0,2.2l5.5,1.4l-2.6,4.4l-0.3,0.5c-1.3,2.1-0.6,2.8,1.5,1.5l0.5-0.3l0.5-0.3l3.9-2.3l1.1,4.4l0,0l0.3,1.1
		c0.6,2.4,1.6,2.4,2.2,0l0.1-0.6l0.1-0.6l1.1-4.4l3.9,2.3l0.5,0.3l0.5,0.3c2.1,1.3,2.8,0.6,1.5-1.5l-0.3-0.5l-2.6-4.4l5.5-1.4
		C696.8,86.9,696.8,85.9,694.4,85.3z M682.9,89.8c-1.9,0-3.4-1.5-3.4-3.4c0-1.9,1.5-3.4,3.4-3.4c1.9,0,3.4,1.5,3.4,3.4
		C686.3,88.3,684.8,89.8,682.9,89.8z"/>
	<path class="st1" d="M272.7,159.7"/>
	<g>
		<path class="st2" d="M259.3,472.1l-2.6-1.2c4.8-10.6,12.1-23.4,17.3-32.8c2-3.6,3.8-6.8,5.1-9.2l2.6,1.4c-1.3,2.4-3.1,5.6-5.1,9.2
			C271.2,448.9,264.1,461.6,259.3,472.1z"/>
		<path class="st2" d="M265.7,475.9l-1.9-2.2c25.5-22.3,66.2-64.7,83.7-87.2l2.3,1.8C332.2,410.9,291.3,453.5,265.7,475.9z"/>
		<path class="st2" d="M295.8,578.9c-8.3-30.5-26.5-66.1-36.2-85.2l-2.2-4.4l2.6-1.3l2.2,4.4c9.8,19.2,28,55,36.5,85.8L295.8,578.9z
			"/>
		<path class="st2" d="M183,611l-2.8-0.9c10.7-34.8,46.7-93.3,66.2-122.3l2.4,1.6C229.5,518.4,193.7,576.5,183,611z"/>
		<path class="st2" d="M249.8,469.5c-1.7-22.7-2.7-55.9,0-74.8l2.9,0.4c-2.7,18.7-1.7,51.6,0,74.2L249.8,469.5z"/>
		<path class="st2" d="M843.8,242.3c-9.3-8-19.6-14.8-34.3-22.5l1.3-2.6c15,7.8,25.4,14.7,34.9,22.9L843.8,242.3z"/>
		<path class="st2" d="M935.4,260.8c-21.3-5.9-53.5-11.1-74.9-12l0.1-2.9c21.7,0.9,54.2,6.1,75.6,12.1L935.4,260.8z"/>
		<path class="st2" d="M961.8,259.5l-0.9-2.8c9.4-3.1,21.8-5.5,34.1-6.6l0.3,2.9C983.1,254,971,256.4,961.8,259.5z"/>
		<path class="st2" d="M1002.4,397.3l-2.9-0.2c2.6-36.3,3.8-86.9,3.1-135.4l2.9,0C1006.2,310.2,1005,360.9,1002.4,397.3z"/>
		<path class="st2" d="M880.3,445.9l-0.4-2.9c48.1-6.8,84.4-16.2,111-28.9l1.2,2.6C965.3,429.6,928.7,439.1,880.3,445.9z"/>
		<path class="st2" d="M758.7,368.4l-2.8-0.6c9.4-45,25-102.2,36.3-142.2l2.8,0.8C783.6,266.4,768.1,323.5,758.7,368.4z"/>
		<path class="st2" d="M852.9,442.4c-39.4-13.7-67-29.5-92.4-52.7l2-2.1c25.4,23.3,51.9,38.4,91.4,52.1L852.9,442.4z"/>
		<path class="st2" d="M908.6,551.1c-8-23.2-18.6-50.7-28-74.9c-2.6-6.7-5.1-13.2-7.5-19.4l2.7-1c2.4,6.2,4.9,12.7,7.5,19.4
			c9.4,24.3,20.1,51.8,28.1,75L908.6,551.1z"/>
		<path class="st2" d="M870.7,560.5l-0.3-5.8c-1.7-28.9-3.6-61.6-3.8-97.3l2.9,0c0.2,35.6,2.1,68.3,3.8,97.1l0.3,5.8L870.7,560.5z"
			/>
		<path class="st2" d="M823.7,554.8l-2.7-1.2c13.1-29.7,26.8-64.2,38.4-97.3l2.7,1C850.5,490.4,836.8,525.1,823.7,554.8z"/>
		<path class="st2" d="M789.1,529.7l-2.1-2l10.7-11.5c19.1-20.5,38.9-41.7,57.9-64.3l2.2,1.9c-19,22.6-38.8,43.9-58,64.4
			L789.1,529.7z"/>
		<path class="st2" d="M788.4,471.6l-0.7-2.8c22-5.7,44.3-13.4,63.2-20.3l1,2.7C832.9,458,810.5,465.8,788.4,471.6z"/>
		
			<rect x="755.4" y="414.2" transform="matrix(0.7334 -0.6798 0.6798 0.7334 -100.5993 633.0723)" class="st2" width="2.9" height="61.2"/>
		<path class="st2" d="M130.7,310.2c-18.4-23.4-33.4-43.3-49.3-64.5l-12.4-16.5l2.3-1.7l12.4,16.5C99.6,265,114.5,285,133,308.4
			L130.7,310.2z"/>
		<path class="st2" d="M143.9,309.1l-2.6-1.3c15.3-31.5,31.3-66.9,43.7-97.1l2.7,1.1C175.2,242,159.2,277.5,143.9,309.1z"/>
		<path class="st2" d="M77.4,219.1l-0.5-2.9c35.6-6.7,88.2-12.2,103.5-13.7l0.3,2.9C165.4,206.9,112.9,212.4,77.4,219.1z"/>
		<path class="st2" d="M193.6,196.3l-2.7-1c10.9-29.1,21.6-55.3,33-80.1l2.6,1.2C215.2,141.1,204.4,167.2,193.6,196.3z"/>
		<path class="st2" d="M240.9,104.7l-0.5-2.9c33.4-5.9,70.2-11.1,96.1-13.4l0.3,2.9C310.9,93.6,274.2,98.8,240.9,104.7z"/>
	</g>
	<path class="st2" d="M636.5,336h-2.7v-29.8h9.1c7.4,0,10,4.3,10,9c0,4.7-2.5,9-10,9h-6.4L636.5,336L636.5,336z M636.5,321.6h6.8
		c5.6,0,6.7-3.6,6.7-6.4c0-2.9-1.1-6.4-6.7-6.4h-6.8V321.6z M662.8,318.2c-2.7,0-4.4,0.5-6,1v-2.4c1.8-0.8,4.1-1.1,6-1.1
		c6,0,7.5,2.7,7.5,6.7V336h-1.6l-0.6-1.6c-1.8,1.3-4,2-6,2c-5.2,0-7-3.1-7-6.4c0-3.4,1.9-5.9,7.1-6.2l5.3-0.3v-1.1
		C667.5,319.5,666.5,318.2,662.8,318.2z M662.1,325.9c-2.8,0.3-4.1,1.8-4.1,4.1c0,1.8,0.4,3.9,4.2,3.9c2.1,0,3.6-0.6,5.3-1.6v-6.9
		L662.1,325.9z M679.1,330.4c-0.4,0.4-0.8,1-0.8,1.5c0,1,0.5,1.4,1.5,1.6l6.8,0.8c3.7,0.4,5.5,1.9,5.5,5.3c0,4.9-4.9,6.8-10.3,6.8
		c-5.6,0-8.9-1.6-8.9-6c0-2.7,1.9-4.5,4.1-5.3v0c-0.8-0.5-1.3-1.3-1.3-2.6c0-1.1,0.7-2,1.5-2.7c-2.4-1.3-3.2-3.7-3.2-6.5
		c0-4.1,1.8-7.5,7.8-7.5c1.2,0,2.3,0.2,3.2,0.4h6.8v1.5l-3.3,1c0.8,1.3,1.2,2.9,1.2,4.6c0,4.1-1.8,7.5-7.8,7.5
		C680.7,330.7,679.8,330.6,679.1,330.4z M680.2,335.8c-2.6,0.6-4.9,1.8-4.9,4.4c0,2.9,2.2,3.8,6.3,3.8c4,0,7.7-1,7.7-4.4
		c0-2-1-2.8-3.4-3.1L680.2,335.8z M686.9,323.2c0-2.6-0.5-5.1-5.2-5.1c-4.7,0-5.2,2.4-5.2,5.1c0,2.6,0.5,5.1,5.2,5.1
		S686.9,325.8,686.9,323.2z M701.8,315.7c6.8,0,7.6,4.6,7.6,10.3v1.3h-13.1c0.2,3.5,1.1,6.6,5.6,6.6c2.9,0,4.6-0.3,6.6-1.1v2.4
		c-2.2,1-4.6,1.2-6.6,1.2c-6.7,0-8.4-4.6-8.4-10.3C693.5,320.3,695.1,315.7,701.8,315.7z M696.2,325.1h10.3c0-3.5-0.2-6.9-4.8-6.9
		C697.2,318.2,696.4,321.5,696.2,325.1z M720,324.6c5.7,0.5,7,2.4,7,5.7c0,3.1-2,6.1-8,6.1c-1.9,0-4.7-0.5-5.9-1V333
		c1.2,0.4,3.1,0.9,6,0.9c4.1,0,5.3-1.8,5.3-3.6c0-1.8-0.6-3.1-4.5-3.4c-5.8-0.5-7-2.5-7-5.3c0-2.8,1.8-5.9,7.4-5.9
		c1.9,0,4,0.2,5.7,1v2.4c-1.6-0.5-3.1-0.9-5.8-0.9c-3.9,0-4.8,1.5-4.8,3.4C715.5,323.4,716.2,324.3,720,324.6z M530.2,318.6h-9.7
		c-0.3,0-0.5,0.2-0.5,0.5v4.8c0,0.3,0.2,0.5,0.5,0.5h3.8v5.9c0,0-0.9,0.3-3.2,0.3c-2.8,0-6.7-1-6.7-9.6c0-8.6,4.1-9.7,7.9-9.7
		c3.3,0,4.7,0.6,5.6,0.9c0.3,0.1,0.5-0.2,0.5-0.4l1.1-4.6c0-0.1,0-0.3-0.2-0.4c-0.4-0.3-2.6-1.5-8.3-1.5c-6.5,0-13.2,2.8-13.2,16.1
		c0,13.3,7.6,15.3,14.1,15.3c5.3,0,8.6-2.3,8.6-2.3c0.1-0.1,0.1-0.3,0.1-0.3V319C530.6,318.8,530.4,318.6,530.2,318.6z M580.8,306.7
		c0-0.3-0.2-0.5-0.5-0.5h-5.5c-0.3,0-0.5,0.2-0.5,0.5l0,10.6h-8.6v-10.6c0-0.3-0.2-0.5-0.5-0.5h-5.5c-0.2,0-0.5,0.2-0.5,0.5v28.7
		c0,0.3,0.2,0.5,0.5,0.5h5.5c0.3,0,0.5-0.2,0.5-0.5v-12.3h8.6c0,0,0,12.3,0,12.3c0,0.3,0.2,0.5,0.5,0.5h5.5c0.3,0,0.5-0.2,0.5-0.5
		V306.7z M540.7,310.5c0-2-1.6-3.6-3.5-3.6c-2,0-3.5,1.6-3.5,3.6c0,2,1.6,3.6,3.5,3.6C539.1,314.1,540.7,312.5,540.7,310.5z
		 M540.3,329.4c0-0.7,0-13.3,0-13.3c0-0.3-0.2-0.5-0.5-0.5h-5.5c-0.2,0-0.5,0.3-0.5,0.5c0,0,0,16,0,19c0,0.6,0.3,0.7,0.8,0.7
		c0,0,2.3,0,4.9,0c0.5,0,0.7-0.3,0.7-0.7C540.3,334.2,540.3,330.2,540.3,329.4z M602.1,315.7h-5.4c-0.2,0-0.5,0.2-0.5,0.5v14.1
		c0,0-1.4,1-3.3,1s-2.5-0.9-2.5-2.8s0-12.3,0-12.3c0-0.3-0.2-0.5-0.5-0.5h-5.5c-0.2,0-0.5,0.2-0.5,0.5c0,0,0,7.5,0,13.2
		c0,5.7,3.2,7.1,7.6,7.1c3.6,0,6.5-2,6.5-2s0.1,1,0.2,1.2c0.1,0.1,0.2,0.2,0.4,0.2l3.5,0c0.2,0,0.5-0.2,0.5-0.5l0-19.3
		C602.6,315.9,602.4,315.7,602.1,315.7z M617.3,315.1c-3.1,0-5.2,1.4-5.2,1.4v-9.7c0-0.3-0.2-0.5-0.5-0.5h-5.5
		c-0.3,0-0.5,0.2-0.5,0.5v28.7c0,0.3,0.2,0.5,0.5,0.5h3.8c0.2,0,0.3-0.1,0.4-0.2c0.1-0.2,0.2-1.3,0.2-1.3s2.3,2.1,6.5,2.1
		c5,0,7.9-2.5,7.9-11.4C625,316.3,620.4,315.1,617.3,315.1z M615.1,331.3c-1.9-0.1-3.2-0.9-3.2-0.9v-9.1c0,0,1.3-0.8,2.8-0.9
		c2-0.2,3.9,0.4,3.9,5.1C618.6,330.4,617.8,331.4,615.1,331.3z M556,315.7h-4.1l0-5.4c0-0.2-0.1-0.3-0.3-0.3h-5.6
		c-0.2,0-0.3,0.1-0.3,0.3v5.6c0,0-2.8,0.7-3,0.7c-0.2,0.1-0.3,0.2-0.3,0.4v3.5c0,0.3,0.2,0.5,0.5,0.5h2.9c0,0,0,3.7,0,8.5
		c0,6.3,4.4,6.9,7.4,6.9c1.4,0,3-0.4,3.3-0.5c0.2-0.1,0.3-0.2,0.3-0.4l0-3.9c0-0.3-0.2-0.5-0.5-0.5c-0.2,0-0.9,0.1-1.5,0.1
		c-2,0-2.7-0.9-2.7-2.2c0-1.2,0-8.1,0-8.1h4.1c0.3,0,0.5-0.2,0.5-0.5v-4.4C556.5,315.9,556.3,315.7,556,315.7z"/>
	<g>
		<g>
			<defs>
				<path id="SVGID_1_" d="M353.9,222.2v0.9c0,1.6,0.1,3-0.7,4.4c-0.6,1.2-1.6,1.9-2.7,1.9c-1.5,0-2.4-1.3-2.4-3
					C348,222.8,351,222.2,353.9,222.2z M301.7,222.2v0.9c0,1.6,0.1,3-0.7,4.4c-0.6,1.2-1.6,1.9-2.7,1.9c-1.5,0-2.4-1.3-2.4-3
					C295.8,222.8,298.8,222.2,301.7,222.2z M390.1,214.5c1.3,0,2.2,0.6,2.6,2c0.5,1.7,0.6,3.8,0.6,5.6c0,2.7-0.1,7.2-3.2,7.2
					c-3.1,0-3.1-5.6-3.1-8.2C387,218.6,387.2,214.5,390.1,214.5z M365,210.5c-0.4,0-0.7,0.3-0.7,0.8v3c0,0.5,0.3,0.8,0.7,0.8h6.8
					l-7.8,11.7c-0.5,0.8-0.5,1.6-0.5,2.1v3.1c0,0.4,0.5,0.9,0.9,0.7c4.5-2.5,9.8-2.2,13.8-0.1c0.5,0.3,1-0.2,1-0.7v-3.2
					c0-0.4-0.2-0.9-0.7-1.2c-2.3-1.3-4.9-1.7-7.4-1.7l6.8-10.1c0.6-0.9,1-1.4,1-1.9v-2.6c0-0.5-0.3-0.8-0.7-0.8H365z M412.8,210.1
					c-2.7,0-4.3,1.4-5.4,4.3h-0.1v-3.2c-0.1-0.3-0.4-0.6-0.7-0.6h-3.7c-0.4,0-0.7,0.3-0.8,0.7v21.2c0,0.4,0.3,0.8,0.7,0.8h3.9
					c0.4,0,0.8-0.4,0.8-0.8v-11.4c0-1.4,0.1-2.7,0.7-4c0.4-1,1.3-1.7,2.3-1.7c2.7,0,2.5,3.4,2.5,5.7v11.5c0,0.4,0.4,0.7,0.7,0.7h4
					c0.4,0,0.7-0.3,0.8-0.7v-13.4c0-2.1,0-4.9-1-6.6C416.4,210.8,414.6,210.1,412.8,210.1z M390.1,210.1c-5.8,0-8.9,5.1-8.9,11.7
					c0,6.6,3.2,11.8,8.9,11.8c5.6,0,9.1-5.2,9.1-11.6C399.2,215.4,396,210.1,390.1,210.1z M322.4,210.1c-2.4,0-4.3,1.2-5.2,3.9h-0.1
					v-2.8c0-0.4-0.3-0.7-0.7-0.7h-3.7c-0.4,0-0.8,0.4-0.8,0.8v21.2c0,0.4,0.3,0.7,0.7,0.7h4c0.4,0,0.8-0.4,0.8-0.8v-11.3
					c0-2.5-0.1-5.8,2.7-5.8c2.8,0,2.4,3.4,2.4,5.8v11.3c0,0.4,0.3,0.8,0.7,0.8h4c0.4,0,0.8-0.4,0.8-0.8v-11.3c0-1.2,0-3,0.4-4
					c0.4-1.1,1.4-1.8,2.4-1.8c1.2,0,2,0.4,2.3,1.8c0.2,0.8,0.1,3.1,0.1,4v11.3c0,0.4,0.3,0.8,0.7,0.8h4c0.4,0,0.8-0.4,0.8-0.8v-13.4
					c0-2.3,0.2-4.9-1-6.6c-1.1-1.6-2.9-2.3-4.6-2.3c-2.3,0-4.5,1.2-5.5,3.9C326.5,211.4,324.9,210.1,322.4,210.1z M351.7,209.9
					c-3.8,0-8,1.5-8.9,6.3c-0.1,0.5,0.2,0.8,0.6,0.8l3.9,0.5c0.4,0,0.6-0.4,0.7-0.8c0.3-1.7,1.7-2.5,3.2-2.5c0.8,0,1.7,0.3,2.2,1
					c0.6,0.8,0.5,2,0.5,3v0.6c-2.3,0.3-5.3,0.4-7.4,1.4c-2.5,1.1-4.2,3.4-4.2,6.8c0,4.3,2.6,6.4,5.9,6.4c2.8,0,4.4-0.7,6.6-3
					c0.7,1.1,1,1.6,2.3,2.7c0.3,0.2,0.7,0.1,0.9-0.1v0.1c0.8-0.7,2.2-2.1,3.1-2.8c0.3-0.3,0.2-0.7,0-1.1c-0.7-1-1.5-1.9-1.5-3.8
					v-6.4c0-2.7,0.2-5.2-1.8-7.1C356.2,210.4,353.7,209.9,351.7,209.9z M299.6,209.9c-3.8,0-8,1.5-8.9,6.3c-0.1,0.5,0.2,0.8,0.6,0.8
					l3.9,0.5c0.4,0,0.6-0.4,0.7-0.8c0.3-1.7,1.7-2.5,3.2-2.5c0.8,0,1.7,0.3,2.2,1c0.6,0.8,0.5,2,0.5,3v0.6c-2.3,0.3-5.3,0.4-7.5,1.4
					c-2.5,1.1-4.2,3.4-4.2,6.8c0,4.3,2.6,6.4,5.9,6.4c2.8,0,4.4-0.7,6.6-3c0.7,1.1,1,1.6,2.3,2.7c0.3,0.2,0.7,0.1,0.9-0.1v0.1
					c0.8-0.7,2.2-2.1,3.1-2.8c0.3-0.3,0.3-0.7,0-1.1c-0.7-1-1.5-1.9-1.5-3.8v-6.4c0-2.7,0.2-5.2-1.7-7.1
					C304.1,210.4,301.5,209.9,299.6,209.9z"/>
			</defs>
			<use xlink:href="#SVGID_1_"  style="overflow:visible;fill-rule:evenodd;clip-rule:evenodd;fill:#8992A1;"/>
			<clipPath id="SVGID_2_">
				<use xlink:href="#SVGID_1_"  style="overflow:visible;"/>
			</clipPath>
			<g class="st3">
				<defs>
					<rect id="SVGID_3_" x="-124.1" y="-5821.7" width="1418.8" height="8995.2"/>
				</defs>
				<use xlink:href="#SVGID_3_"  style="overflow:visible;fill:#8992A1;"/>
				<clipPath id="SVGID_4_">
					<use xlink:href="#SVGID_3_"  style="overflow:visible;"/>
				</clipPath>
				<rect x="284.5" y="204.4" class="st4" width="139.6" height="34.9"/>
			</g>
		</g>
		<g>
			<defs>
				<path id="SVGID_5_" d="M327.2,242.3c0.9,0,1.7,0.5,2.3,1.5c0.6,1,0.9,2.4,0.9,4.5c0,2-0.3,3.5-0.9,4.5s-1.4,1.5-2.2,1.5
					c-0.6,0-1.2-0.2-1.7-0.6c-0.5-0.4-0.9-1-1.1-1.8c-0.3-0.8-0.4-2-0.4-3.7c0-1.9,0.3-3.3,1-4.3
					C325.6,242.8,326.4,242.3,327.2,242.3z M314.4,242.3c1,0,1.8,0.5,2.4,1.5c0.4,0.7,0.7,1.7,0.8,3h-6.6c0.1-1.4,0.4-2.5,1-3.3
					C312.7,242.7,313.5,242.3,314.4,242.3z M402.2,241.7c1,0,1.8,0.5,2.5,1.5c0.4,0.7,0.7,1.7,0.8,3h-6.7c0.1-1.4,0.4-2.4,1.1-3.2
					C400.5,242.1,401.3,241.7,402.2,241.7z M353.6,241.7c1,0,1.8,0.5,2.5,1.5c0.4,0.7,0.7,1.7,0.8,3h-6.7c0.1-1.4,0.4-2.4,1.1-3.2
					C352,242.1,352.7,241.7,353.6,241.7z M291.7,240.4l3.6,15.7h2.1l2.4-12l0.4,2.7l1.9,9.4h2.1l3.7-15.7H306l-2,9.1l-0.7,3l-0.6-3
					l-1.8-9.1h-2.1l-1.9,9.2l-0.6,3.2l-0.7-3.4l-1.9-9.1H291.7z M314.4,240.1c-1.6,0-2.9,0.7-3.9,2.1c-1,1.4-1.6,3.5-1.6,6.2
					c0,2.6,0.5,4.6,1.6,6c1,1.4,2.4,2.1,4.1,2.1c1.3,0,2.4-0.5,3.3-1.3c0.9-0.8,1.5-2.1,1.9-3.8l-2-0.3c-0.6,2.1-1.7,3.2-3.2,3.2
					c-1,0-1.8-0.4-2.4-1.3c-0.7-0.9-1.1-2.2-1.1-4h8.8l0.1-0.7c0-2.6-0.5-4.7-1.6-6.1C317.2,240.8,315.9,240.1,314.4,240.1z
					 M380.7,239.9v15.7h2v-15.7H380.7z M368,239.9l4.5,15.7h1.9l4.5-15.7h-2.1l-2.6,9.6c-0.3,1.2-0.6,2.2-0.8,3
					c-0.2-1-0.4-2.1-0.7-3.2l-2.6-9.4H368z M414.2,239.5c-1.4,0-2.5,0.4-3.3,1.3c-0.8,0.8-1.2,1.9-1.2,3.2c0,0.8,0.1,1.4,0.4,2
					c0.3,0.6,0.7,1.1,1.2,1.5c0.5,0.4,1.6,0.8,3.2,1.4c1.1,0.4,1.8,0.7,2.1,0.9c0.4,0.3,0.6,0.8,0.6,1.4c0,0.7-0.2,1.3-0.7,1.8
					c-0.5,0.5-1.1,0.7-2,0.7c-0.9,0-1.6-0.2-2.1-0.8c-0.5-0.5-0.9-1.4-1-2.5l-2,0.4c0.5,3.4,2.1,5,5,5c1.5,0,2.7-0.4,3.6-1.4
					c0.9-0.9,1.3-2.2,1.3-3.7c0-0.8-0.1-1.5-0.4-2.1s-0.7-1-1.2-1.4c-0.5-0.3-1.5-0.8-3.2-1.4c-1.2-0.4-2-0.7-2.2-0.9
					c-0.4-0.3-0.6-0.8-0.6-1.4c0-0.6,0.2-1.1,0.7-1.5c0.4-0.4,1.1-0.6,2-0.6c1.5,0,2.4,0.9,2.6,2.6l2-0.3c-0.1-1.1-0.4-1.9-0.7-2.5
					c-0.4-0.6-0.9-1.1-1.6-1.4C415.8,239.7,415,239.5,414.2,239.5z M402.2,239.5c-1.6,0-3,0.7-4,2.1c-1.1,1.4-1.6,3.5-1.6,6.2
					c0,2.6,0.5,4.6,1.6,6c1,1.4,2.4,2,4.1,2c1.3,0,2.5-0.4,3.4-1.3c0.9-0.8,1.6-2.1,1.9-3.8l-2.1-0.4c-0.6,2.1-1.6,3.2-3.2,3.2
					c-1,0-1.8-0.4-2.5-1.3c-0.7-0.9-1.1-2.2-1.1-4h8.9v-0.7c0-2.6-0.5-4.6-1.6-6C405,240.2,403.8,239.5,402.2,239.5z M390.7,239.5
					c-1.6,0-2.9,0.7-3.9,2c-1,1.4-1.6,3.4-1.6,6.1c0,2.7,0.5,4.7,1.6,6.1c1,1.4,2.3,2,3.8,2c1.3,0,2.4-0.5,3.3-1.5
					c0.9-1,1.5-2.4,1.7-4.3l-2-0.3c-0.1,1.3-0.5,2.3-1,2.9c-0.5,0.6-1.2,0.9-2,0.9c-1,0-1.8-0.5-2.4-1.4c-0.6-1-0.9-2.5-0.9-4.6
					c0-2.1,0.3-3.6,1-4.5c0.7-0.9,1.5-1.5,2.5-1.5c0.7,0,1.2,0.3,1.7,0.8c0.5,0.5,0.8,1.4,1,2.4l2-0.4c-0.2-1.7-0.8-2.9-1.6-3.7
					C392.9,239.9,391.9,239.5,390.7,239.5z M366,239.5c-0.5,0-0.9,0.2-1.3,0.5s-0.8,1.1-1.3,2.2v-2.4h-1.8v15.7h2v-8.2
					c0-1.1,0.1-2.2,0.4-3.2c0.1-0.6,0.4-1,0.8-1.4c0.4-0.3,0.8-0.5,1.2-0.5c0.5,0,0.9,0.2,1.4,0.6l0.7-2.5
					C367.3,239.8,366.6,239.5,366,239.5z M353.7,239.5c-1.6,0-3,0.7-4,2.1c-1.1,1.4-1.6,3.5-1.6,6.2c0,2.6,0.5,4.6,1.6,6
					c1,1.4,2.4,2,4.1,2c1.3,0,2.5-0.4,3.4-1.3c0.9-0.8,1.6-2.1,1.9-3.8l-2.1-0.4c-0.6,2.1-1.7,3.2-3.2,3.2c-1,0-1.8-0.4-2.4-1.3
					c-0.7-0.9-1.1-2.2-1.1-4h8.9v-0.7c0-2.6-0.5-4.6-1.6-6C356.5,240.2,355.2,239.5,353.7,239.5z M341.3,239.5
					c-1.4,0-2.5,0.4-3.3,1.3c-0.8,0.8-1.2,1.9-1.2,3.2c0,0.8,0.2,1.4,0.5,2c0.3,0.6,0.7,1.1,1.2,1.5c0.5,0.4,1.6,0.8,3.2,1.4
					c1.1,0.4,1.7,0.7,2,0.9c0.4,0.3,0.6,0.8,0.6,1.4c0,0.7-0.2,1.3-0.7,1.8c-0.5,0.5-1.1,0.7-2,0.7c-0.9,0-1.6-0.2-2.1-0.8
					c-0.5-0.5-0.8-1.4-0.9-2.5l-2,0.4c0.5,3.4,2.1,5,5,5c1.5,0,2.7-0.4,3.6-1.4s1.3-2.2,1.3-3.7c0-0.8-0.1-1.5-0.4-2.1
					c-0.3-0.6-0.6-1-1.1-1.4c-0.5-0.3-1.6-0.8-3.3-1.4c-1.2-0.4-1.9-0.7-2.2-0.9c-0.4-0.3-0.6-0.8-0.6-1.4c0-0.6,0.2-1.1,0.6-1.5
					c0.4-0.4,1.1-0.6,2-0.6c1.5,0,2.4,0.9,2.6,2.6l2-0.3c-0.1-1.1-0.4-1.9-0.7-2.5c-0.4-0.6-0.9-1.1-1.6-1.4
					C343,239.7,342.2,239.5,341.3,239.5z M322.2,234.5v21.6h1.9v-1.9c0.4,0.8,0.8,1.3,1.4,1.7c0.5,0.4,1.2,0.6,1.9,0.6
					c1.4,0,2.5-0.7,3.6-2.1c1-1.4,1.6-3.5,1.6-6.2c0-1.7-0.2-3.2-0.7-4.4c-0.5-1.2-1.1-2.1-1.8-2.7c-0.8-0.6-1.6-0.9-2.5-0.9
					c-0.7,0-1.3,0.2-1.8,0.5c-0.5,0.3-1,0.9-1.4,1.6v-7.7H322.2z M380.7,233.9v3h2v-3H380.7z"/>
			</defs>
			<use xlink:href="#SVGID_5_"  style="overflow:visible;fill-rule:evenodd;clip-rule:evenodd;fill:#8992A1;"/>
			<clipPath id="SVGID_6_">
				<use xlink:href="#SVGID_5_"  style="overflow:visible;"/>
			</clipPath>
			<g class="st5">
				<defs>
					<rect id="SVGID_7_" x="-124.1" y="-5821.7" width="1418.8" height="8995.2"/>
				</defs>
				<use xlink:href="#SVGID_7_"  style="overflow:visible;fill:#8992A1;"/>
				<clipPath id="SVGID_8_">
					<use xlink:href="#SVGID_7_"  style="overflow:visible;"/>
				</clipPath>
				<rect x="286.1" y="228.4" class="st6" width="138.6" height="33.6"/>
			</g>
		</g>
		<g>
			<defs>
				<path id="SVGID_9_" d="M273.2,229.9l-10.2,3.9v14.8l10.2-4.2V229.9z M250.1,229.9l-0.3,15.1l11.3,5v-15.7L250.1,229.9z
					 M261.7,225.7l-7.7,3.4l7.1,3.1l8.3-3.1L261.7,225.7z"/>
			</defs>
			<use xlink:href="#SVGID_9_"  style="overflow:visible;fill-rule:evenodd;clip-rule:evenodd;fill:#8992A1;"/>
			<clipPath id="SVGID_10_">
				<use xlink:href="#SVGID_9_"  style="overflow:visible;"/>
			</clipPath>
			<g class="st7">
				<defs>
					<rect id="SVGID_11_" x="-124.1" y="-5821.7" width="1418.8" height="8995.2"/>
				</defs>
				<use xlink:href="#SVGID_11_"  style="overflow:visible;fill:#8992A1;"/>
				<clipPath id="SVGID_12_">
					<use xlink:href="#SVGID_11_"  style="overflow:visible;"/>
				</clipPath>
				<rect x="244.3" y="220.1" class="st8" width="34.5" height="35.4"/>
			</g>
		</g>
		<g>
			<defs>
				<path id="SVGID_13_" d="M296.2,188.2l-9.1,3.9V207l9.1-4.2V188.2z M274.6,187.4v15.1l9.6,2.8l0.3-13.7L274.6,187.4z M285.4,183
					l-7.8,3.4l7.2,3.1l8.3-3.1L285.4,183z"/>
			</defs>
			<use xlink:href="#SVGID_13_"  style="overflow:visible;fill-rule:evenodd;clip-rule:evenodd;fill:#8992A1;"/>
			<clipPath id="SVGID_14_">
				<use xlink:href="#SVGID_13_"  style="overflow:visible;"/>
			</clipPath>
			<g class="st9">
				<defs>
					<rect id="SVGID_15_" x="-124.1" y="-5821.7" width="1418.8" height="8995.2"/>
				</defs>
				<use xlink:href="#SVGID_15_"  style="overflow:visible;fill:#8992A1;"/>
				<clipPath id="SVGID_16_">
					<use xlink:href="#SVGID_15_"  style="overflow:visible;"/>
				</clipPath>
				<rect x="269.1" y="177.4" class="st10" width="32.6" height="35.1"/>
			</g>
		</g>
		<g>
			<defs>
				<path id="SVGID_17_" d="M260.5,208.4l-10.2,3.9v14.8l10.2-4.2V208.4z M237.4,208.4l-0.3,15.1l11.3,5v-15.7L237.4,208.4z
					 M249,204.2l-7.7,3.4l7.1,3.1l8.3-3.1L249,204.2z"/>
			</defs>
			<use xlink:href="#SVGID_17_"  style="overflow:visible;fill-rule:evenodd;clip-rule:evenodd;fill:#8992A1;"/>
			<clipPath id="SVGID_18_">
				<use xlink:href="#SVGID_17_"  style="overflow:visible;"/>
			</clipPath>
			<g class="st11">
				<defs>
					<rect id="SVGID_19_" x="-124.1" y="-5821.7" width="1418.8" height="8995.2"/>
				</defs>
				<use xlink:href="#SVGID_19_"  style="overflow:visible;fill:#8992A1;"/>
				<clipPath id="SVGID_20_">
					<use xlink:href="#SVGID_19_"  style="overflow:visible;"/>
				</clipPath>
				<rect x="231.6" y="198.6" class="st12" width="34.5" height="35.4"/>
			</g>
		</g>
		<g>
			<defs>
				<path id="SVGID_21_" d="M285.4,207.8l-10.2,3.9v14.8l10.2-4.2V207.8z M262.2,207.8l-0.3,15.1l11.3,5v-15.7L262.2,207.8z
					 M273.8,203.6l-7.7,3.4l7.1,3.1l8.3-3.1L273.8,203.6z"/>
			</defs>
			<use xlink:href="#SVGID_21_"  style="overflow:visible;fill-rule:evenodd;clip-rule:evenodd;fill:#8992A1;"/>
			<clipPath id="SVGID_22_">
				<use xlink:href="#SVGID_21_"  style="overflow:visible;"/>
			</clipPath>
			<g class="st13">
				<defs>
					<rect id="SVGID_23_" x="-124.1" y="-5821.7" width="1418.8" height="8995.2"/>
				</defs>
				<use xlink:href="#SVGID_23_"  style="overflow:visible;fill:#8992A1;"/>
				<clipPath id="SVGID_24_">
					<use xlink:href="#SVGID_23_"  style="overflow:visible;"/>
				</clipPath>
				<rect x="256.4" y="198.1" class="st14" width="34.5" height="35.4"/>
			</g>
		</g>
		<g>
			<defs>
				<path id="SVGID_25_" d="M321.2,187.1l-10.2,3.9v14.8l10.2-4.2V187.1z M298.1,187.1l-0.3,15.1l11.3,5v-15.7L298.1,187.1z
					 M309.6,183l-7.7,3.4l7.1,3.1l8.3-3.1L309.6,183z"/>
			</defs>
			<use xlink:href="#SVGID_25_"  style="overflow:visible;fill-rule:evenodd;clip-rule:evenodd;fill:#8992A1;"/>
			<clipPath id="SVGID_26_">
				<use xlink:href="#SVGID_25_"  style="overflow:visible;"/>
			</clipPath>
			<g class="st15">
				<defs>
					<rect id="SVGID_27_" x="-124.1" y="-5821.7" width="1418.8" height="8995.2"/>
				</defs>
				<use xlink:href="#SVGID_27_"  style="overflow:visible;fill:#8992A1;"/>
				<clipPath id="SVGID_28_">
					<use xlink:href="#SVGID_27_"  style="overflow:visible;"/>
				</clipPath>
				<rect x="292.3" y="177.4" class="st16" width="34.5" height="35.4"/>
			</g>
		</g>
	</g>
	<g>
		<defs>
			<path id="SVGID_29_" d="M352.3,470.9c10.5-0.6,18.9,6.2,19.5,16.8c0.7,12.1-8.9,24.4-21.5,27.6c-4.3,1.1-8.4,1-12-0.1
				c-0.3-4.8,0.7-9.7,2.7-13.2c3.3-5.7,8.4-5.2,11.2,1.1c1.1,2.3,1.7,5.2,1.9,8.1c1-0.5,2-1.1,2.9-1.8c-3.1-7.6-4.5-16.5,6.7-32.2
				c-3.2-2.6-8.2-3.9-14.5-3C350.3,473.1,351.3,472,352.3,470.9z M349.8,483.8c-0.9,1.9-0.5,3.5,0.8,3.5c1.3,0,3.2-1.5,4.1-3.4
				c0.9-1.9,0.5-3.5-0.8-3.5C352.5,480.3,350.7,481.8,349.8,483.8z M348.8,478.4c-9.4,11.6-13.4,26.6-12.9,40
				c-5.6-2.2-9.7-7.6-10.1-14.4l0-0.1c-0.7-12.1,8.9-24.5,21.5-27.6c4.9-1.2,9.5-0.9,13.4,0.7c-0.8,2.3-2.1,4.9-3.5,6.9
				c-2.8,4.1-6.8,6.7-8.9,5.8c-2.1-0.9-1.6-5,1.2-9.2c0.6-1,1.4-1.8,2.1-2.6C350.7,478,349.8,478.1,348.8,478.4z M440.4,484.4
				l-3.3,17.4l8.5-9.8h7l-8.8,9.9l5.4,11.6h-6.9l-5.2-11.5l-2.2,11.5h-6.3l5.5-29.1L440.4,484.4L440.4,484.4z M386.1,494
				c1.5-1.6,3.3-2.5,5.2-2.5c0.4,0,0.8,0,1.2,0.1l-1.2,6.3c-0.2,0-0.6-0.1-1-0.1c-4.3,0-6,4.2-6.7,7.7l-1.5,8.3h-6.4l4.1-21.8h5.6
				l-0.3,1.5c-0.3,1.4-0.7,2.2-1,2.6l0,0.1c-0.1,0.2,0.1,0.4,0.2,0.5c0.2,0.1,0.4,0.1,0.5-0.1l0-0.1C385,495.9,385.2,495,386.1,494z
				 M451.6,499c0-4.4,3.8-7.5,9.5-7.5c2.6,0,4.6,0.6,5.5,1.1l0,0l-0.9,4.8l0,0c-1.1-0.6-2.9-1.2-4.9-1.2c-1.7,0-2.7,0.7-2.7,1.9
				c0,0.8,0.8,1.6,2.6,2.4c2.3,1.1,4.8,2.8,4.8,5.9c0,2-0.7,3.7-2,5c-1.7,1.7-4.6,2.7-7.9,2.6c-2.6,0-5.2-0.7-6.6-1.7l0,0l0.9-4.9
				l0,0c1.4,0.9,4.2,1.8,6.2,1.8c1.6,0,2.6-0.7,2.6-1.9c0-1.1-0.7-1.8-2.7-2.7C453.1,503.1,451.6,501.2,451.6,499z M411.5,505.2
				c0-7.8,6-13.6,14-13.6c1.6,0,3.3,0.3,4.4,0.7c0,0,0,0,0,0l-1,5.2l0,0c-1-0.5-2.1-0.8-3.5-0.8c-4.6,0-7.3,4-7.3,7.8
				c0,3.2,2.2,4.4,4.2,4.4c1.8,0,3.3-0.4,5.3-1.4l0.1,0l-1,5.4l0,0c-1.5,0.7-3.8,1.1-6.1,1.1C415.1,514,411.5,510.5,411.5,505.2z
				 M402.3,496.4c-0.9,0-1.8,0.4-2.6,1.3c-1.7,1.7-3,4.9-3,7.5c0,2.3,0.8,3.7,2.3,3.7c2.3,0,4.3-2.4,5-6c0.2-0.8,0.3-1.6,0.4-2.3
				c0.1-0.7,0.2-1.3,0.2-1.8C404.5,497.2,403.7,496.4,402.3,496.4z M402.1,513.5l0.2-1c0.2-0.9,0.9-2.1,1.1-2.4l0-0.1
				c0.1-0.2,0-0.5-0.2-0.5c-0.2-0.1-0.5,0-0.5,0.2l0,0.1c-0.1,0.5-0.4,1.5-1.3,2.4c-1.3,1.2-3,1.8-4.9,1.8c-4.2,0-6.2-3.8-6.2-7.5
				c0-4.3,1.7-8.5,4.5-11.3c2.4-2.4,5.4-3.6,8.8-3.6c2.6,0,4.5,0.8,5.7,2.2c1.8,2.2,1.6,5.4,1.2,7.7l-2.3,12.1H402.1z M474,503.5
				c-0.3,1.4-1,5.6,1.9,5.6c3.4,0,5.8-4.8,5.8-9c0-1-0.2-3.5-2.6-3.5C476.8,496.7,474.8,499.4,474,503.5z M476.4,493.5
				c1.5-1.3,3.2-1.9,5.1-1.9c4.2,0,7,3.2,7,8.2c0,5.2-2.5,10.6-7,13c-3.5,1.9-6.7,1.5-8.3,0.2c-0.4-0.3-0.5-1.1-0.5-1.4l0-0.1
				c-0.1-0.2-0.3-0.3-0.5-0.2c-0.2,0.1-0.3,0.3-0.3,0.5l0,0.1c0.3,0.5,0.5,0.9,0.4,1.4l-1.4,7.3h-6.4l5.4-28.6h5.6l-0.2,1
				c-0.3,1.6-0.8,2.2-1.1,2.5l0,0.1c-0.1,0.2,0,0.4,0.2,0.5c0.2,0.1,0.4,0.1,0.6-0.1l0-0.1C475.1,495.3,475.5,494.2,476.4,493.5z
				 M541,499.3c0.4-0.3,0.5-0.8,0.5-1.3c0-1.1-0.9-1.8-2.3-1.8c-2.1,0-3.7,1.3-4.5,2.9c-0.6,1.1-0.8,1.3-1.3,1.6l-0.1,0
				c-0.2,0.1-0.1,0.4,0,0.5c0.1,0.1,0.4,0.2,0.5,0.1l0.1-0.1c0.4-0.5,0.5-0.7,2.2-0.8C538.7,500.4,540.2,500,541,499.3z
				 M532.6,504.6L532.6,504.6c0.6,0.6,1,1.4,1.1,1.6c0.1,0.4,0.3,0.8,0.5,1.1c0.8,1.1,2.3,1.6,4.1,1.6c2.6,0,4.9-0.6,7.4-2.1l0.1,0
				l-1,5.4c-3.1,1.6-6.6,1.7-8,1.7c-5.9,0-9.3-3.3-9.3-9.1c0-3.3,1.2-6.7,3.4-9.2c2.3-2.7,5.6-4.2,9.2-4.2c4.5,0,7.5,2.6,7.5,6.5
				c0,1.8-0.6,3.3-1.7,4.4c-1.9,1.9-5.4,2.8-10.7,2.9c-1.3,0-1.5-0.6-1.8-1.1l0-0.1c-0.1-0.2-0.4-0.1-0.6,0
				C532.6,504.2,532.5,504.5,532.6,504.6z M500.9,496.4c-0.9,0-1.8,0.4-2.6,1.3c-1.7,1.7-3,4.9-3,7.5c0,2.3,0.8,3.7,2.3,3.7
				c2.3,0,4.3-2.4,5-6c0.2-0.8,0.3-1.6,0.4-2.3c0.1-0.7,0.2-1.3,0.2-1.8C503.1,497.2,502.3,496.4,500.9,496.4z M500.7,513.5l0.2-1
				c0.2-0.9,0.9-2.1,1.1-2.4l0-0.1c0.1-0.2,0-0.5-0.2-0.5c-0.2-0.1-0.5,0-0.5,0.2l0,0.1c-0.1,0.5-0.4,1.5-1.3,2.4
				c-1.3,1.2-3,1.8-4.9,1.8c-4.2,0-6.2-3.8-6.2-7.5c0-4.3,1.7-8.5,4.5-11.3c2.4-2.4,5.4-3.6,8.8-3.6c2.6,0,4.5,0.8,5.7,2.2
				c1.8,2.2,1.6,5.4,1.2,7.7l-2.3,12.1H500.7z M510.1,505.2c0-7.8,6-13.6,14-13.6c1.6,0,3.3,0.3,4.4,0.7c0,0,0,0,0,0l-1,5.2l0,0
				c-1-0.5-2.1-0.8-3.5-0.8c-4.6,0-7.3,4-7.3,7.8c0,3.2,2.2,4.4,4.2,4.4c1.8,0,3.3-0.4,5.3-1.4l0.1,0l-1,5.4l0,0
				c-1.5,0.7-3.8,1.1-6.1,1.1C513.7,514,510.1,510.5,510.1,505.2z"/>
		</defs>
		<use xlink:href="#SVGID_29_"  style="overflow:visible;fill-rule:evenodd;clip-rule:evenodd;fill:#8992A1;"/>
		<clipPath id="SVGID_30_">
			<use xlink:href="#SVGID_29_"  style="overflow:visible;"/>
		</clipPath>
		<g class="st17">
			<defs>
				<rect id="SVGID_31_" x="-154.7" y="-5009.3" width="1360.9" height="8627.9"/>
			</defs>
			<use xlink:href="#SVGID_31_"  style="overflow:visible;fill:#8992A1;"/>
			<clipPath id="SVGID_32_">
				<use xlink:href="#SVGID_31_"  style="overflow:visible;"/>
			</clipPath>
			<rect x="320.5" y="465.6" class="st18" width="232.3" height="60.2"/>
		</g>
	</g>
	<g>
		<path class="st2" d="M719.7,85.3h17.6v4.6h-12.2v7.3h10.5v4.6h-10.5v10.9h-5.4V85.3z"/>
		<path class="st2" d="M749.6,89.8h-8.8v-4.5H764v4.5h-8.8v22.9h-5.5V89.8z"/>
		<path class="st2" d="M768.5,85.3h8.9c2,0,3.8,0.4,5.3,1.1c1.5,0.7,2.7,1.8,3.6,3.1c0.9,1.3,1.3,2.9,1.3,4.8c0,2.8-0.9,5-2.8,6.6
			c-1.8,1.6-4.3,2.5-7.4,2.5h-3.6v9.4h-5.3V85.3z M773.9,98.9h2.9c1.8,0,3.2-0.4,4.1-1.2c1-0.8,1.4-1.9,1.4-3.4
			c0-1.5-0.5-2.6-1.4-3.4c-0.9-0.8-2.3-1.2-4.2-1.2h-2.9V98.9z"/>
	</g>
	<circle class="st19" cx="253.6" cy="160.1" r="2.3"/>
	<circle class="st19" cx="861.6" cy="292" r="2.3"/>
	<circle class="st19" cx="599.2" cy="209.9" r="2.3"/>
	<circle class="st19" cx="757.3" cy="554.5" r="2.3"/>
	<circle class="st19" cx="500.7" cy="160.1" r="2.3"/>
	<circle class="st19" cx="813.7" cy="164.6" r="2.3"/>
	<circle class="st19" cx="877.7" cy="406.2" r="2.3"/>
	<circle class="st19" cx="346.7" cy="404" r="2.3"/>
	<circle class="st19" cx="406.2" cy="296.5" r="2.3"/>
	<circle class="st19" cx="210.2" cy="273.3" r="2.3"/>
	<circle class="st19" cx="540.4" cy="373.6" r="2.3"/>
	<circle class="st19" cx="526.7" cy="503.8" r="2.3"/>
	<circle class="st19" cx="205.6" cy="447" r="2.3"/>
</g>
</svg>
