<?xml version="1.0" encoding="utf-8"?>
<!-- Generator: Adobe Illustrator 19.2.1, SVG Export Plug-In . SVG Version: 6.00 Build 0)  -->
<svg version="1.1" id="Layer_1" xmlns="http://www.w3.org/2000/svg" xmlns:xlink="http://www.w3.org/1999/xlink" x="0px" y="0px"
	 viewBox="0 0 241.9 146.8" style="enable-background:new 0 0 241.9 146.8;" xml:space="preserve">
<style type="text/css">
	.st0{fill:#FFFFFF;}
	.st1{fill:none;stroke:#FFFFFF;stroke-width:0.4;stroke-miterlimit:10;}
	.st2{fill:#AEB5C2;}
	.st3{fill:#8992A1;}
</style>
<circle class="st0" cx="136.8" cy="19.8" r="0.6"/>
<circle class="st0" cx="138.2" cy="130.1" r="0.6"/>
<circle class="st0" cx="179.5" cy="106.3" r="0.6"/>
<circle class="st0" cx="2.4" cy="90.4" r="0.6"/>
<circle class="st0" cx="228.4" cy="9" r="0.6"/>
<circle class="st0" cx="35.8" cy="33.9" r="0.6"/>
<path class="st0" d="M166,91.2c0.3-0.2,0.3-0.4-0.1-0.4h-0.7l-0.2-0.7c-0.1-0.4-0.3-0.4-0.4,0l-0.2,0.7h-0.7c-0.4,0-0.5,0.2-0.1,0.4
	l0.6,0.4l-0.2,0.7c-0.1,0.4,0,0.5,0.4,0.3l0,0l0.6-0.4l0.6,0.4c0.3,0.2,0.5,0.1,0.4-0.3l-0.2-0.7L166,91.2z"/>
<path class="st0" d="M190.1,131.1c0.3-0.2,0.3-0.4-0.1-0.4h-0.7L189,130c-0.1-0.4-0.3-0.4-0.4,0l-0.2,0.7h-0.7
	c-0.4,0-0.5,0.2-0.1,0.4l0.6,0.4l-0.2,0.7c-0.1,0.4,0,0.5,0.4,0.3l0,0l0.6-0.4l0.6,0.4c0.3,0.2,0.5,0.1,0.4-0.3l-0.2-0.7
	L190.1,131.1z"/>
<path class="st0" d="M199.6,44.7c0.3-0.2,0.3-0.4-0.1-0.4h-0.7l-0.2-0.7c-0.1-0.4-0.3-0.4-0.4,0l-0.2,0.7h-0.7
	c-0.4,0-0.5,0.2-0.1,0.4l0.6,0.4l-0.2,0.7c-0.1,0.4,0,0.5,0.4,0.3l0,0l0.6-0.4l0.6,0.4c0.3,0.2,0.5,0.1,0.4-0.3l-0.2-0.7L199.6,44.7
	z"/>
<path class="st0" d="M173.4,81c0.3-0.2,0.3-0.4-0.1-0.4h-0.7l-0.2-0.7c-0.1-0.4-0.3-0.4-0.4,0l-0.2,0.7h-0.7c-0.4,0-0.5,0.2-0.1,0.4
	l0.6,0.4l-0.2,0.7c-0.1,0.4,0,0.5,0.4,0.3l0,0l0.6-0.4l0.6,0.4c0.3,0.2,0.5,0.1,0.4-0.3l-0.2-0.7L173.4,81z"/>
<path class="st0" d="M241.7,45.9c0.3-0.2,0.3-0.4-0.1-0.4h-0.7l-0.2-0.7c-0.1-0.4-0.3-0.4-0.4,0l-0.2,0.7h-0.7
	c-0.4,0-0.5,0.2-0.1,0.4l0.6,0.4l-0.2,0.7c-0.1,0.4,0,0.5,0.4,0.3l0,0l0.6-0.4l0.6,0.4c0.3,0.2,0.5,0.1,0.4-0.3l-0.2-0.7L241.7,45.9
	z"/>
<path class="st0" d="M240.5,88.9c0.3-0.2,0.3-0.4-0.1-0.4h-0.7l-0.2-0.7c-0.1-0.4-0.3-0.4-0.4,0l-0.2,0.7h-0.7
	c-0.4,0-0.5,0.2-0.1,0.4l0.6,0.4l-0.2,0.7c-0.1,0.4,0,0.5,0.4,0.3l0,0l0.6-0.4l0.6,0.4c0.3,0.2,0.5,0.1,0.4-0.3l-0.2-0.7L240.5,88.9
	z"/>
<path class="st0" d="M29.6,145.4c0.3-0.2,0.3-0.4-0.1-0.4h-0.7l-0.2-0.7c-0.1-0.4-0.3-0.4-0.4,0l-0.2,0.7h-0.7
	c-0.4,0-0.5,0.2-0.1,0.4l0.6,0.4l-0.2,0.7c-0.1,0.4,0,0.5,0.4,0.3l0,0l0.6-0.4l0.6,0.4c0.3,0.2,0.5,0.1,0.4-0.3l-0.2-0.7L29.6,145.4
	z"/>
<path class="st0" d="M51.3,81c0.3-0.2,0.3-0.4-0.1-0.4h-0.7l-0.2-0.7c-0.1-0.4-0.3-0.4-0.4,0l-0.2,0.7h-0.7c-0.4,0-0.5,0.2-0.1,0.4
	l0.6,0.4l-0.2,0.7c-0.1,0.4,0,0.5,0.4,0.3l0,0l0.6-0.4l0.6,0.4c0.3,0.2,0.5,0.1,0.4-0.3l-0.2-0.7L51.3,81z"/>
<path class="st0" d="M62.1,136.2c0.3-0.2,0.3-0.4-0.1-0.4h-0.7l-0.2-0.7c-0.1-0.4-0.3-0.4-0.4,0l-0.2,0.7h-0.7
	c-0.4,0-0.5,0.2-0.1,0.4l0.6,0.4l-0.2,0.7c-0.1,0.4,0,0.5,0.4,0.3l0,0l0.6-0.4l0.6,0.4c0.3,0.2,0.5,0.1,0.4-0.3l-0.2-0.7L62.1,136.2
	z"/>
<path class="st0" d="M23.1,64.7c0.3-0.2,0.3-0.4-0.1-0.4h-0.7L22,63.6c-0.1-0.4-0.3-0.4-0.4,0l-0.2,0.7h-0.7c-0.4,0-0.5,0.2-0.1,0.4
	l0.6,0.4l-0.2,0.7c-0.1,0.4,0,0.5,0.4,0.3l0,0l0.6-0.4l0.6,0.4c0.3,0.2,0.5,0.1,0.4-0.3l-0.2-0.7L23.1,64.7z"/>
<path class="st0" d="M48.5,6.5c0.3-0.2,0.3-0.4-0.1-0.4h-0.7l-0.2-0.7C47.3,5,47.1,5,47,5.4l-0.2,0.7h-0.7c-0.4,0-0.5,0.2-0.1,0.4
	l0.6,0.4l-0.2,0.7c-0.1,0.4,0,0.5,0.4,0.3l0,0l0.6-0.4l0.6,0.4c0.3,0.2,0.5,0.1,0.4-0.3L48,6.9L48.5,6.5z"/>
<path class="st0" d="M109.6,48.9h-1.2l-0.4-1.1c0,0,0,0,0,0c-0.2-0.6-0.5-0.6-0.7,0l-0.4,1.1h-1.2c-0.7,0-0.8,0.3-0.2,0.7l1,0.7
	l-0.4,1.1c0,0,0,0,0,0c-0.2,0.6,0.1,0.8,0.6,0.4l0,0l1-0.7l1,0.7c0.5,0.4,0.8,0.2,0.6-0.4l-0.4-1.1l1-0.7v0
	C110.4,49.2,110.3,48.9,109.6,48.9z M107.7,50.4c-0.3,0-0.6-0.3-0.6-0.6c0-0.3,0.3-0.6,0.6-0.6c0.3,0,0.6,0.3,0.6,0.6
	C108.3,50.1,108,50.4,107.7,50.4z"/>
<path class="st0" d="M217.5,130.8h-1.2l-0.4-1.1c0,0,0,0,0,0c-0.2-0.6-0.5-0.6-0.7,0l-0.4,1.1h-1.2c-0.7,0-0.8,0.3-0.2,0.7l1,0.7
	l-0.4,1.1c0,0,0,0,0,0c-0.2,0.6,0.1,0.8,0.6,0.4l0,0l1-0.7l1,0.7c0.5,0.4,0.8,0.2,0.6-0.4l-0.4-1.1l1-0.7v0
	C218.3,131.1,218.2,130.8,217.5,130.8z M215.6,132.3c-0.3,0-0.6-0.3-0.6-0.6c0-0.3,0.3-0.6,0.6-0.6c0.3,0,0.6,0.3,0.6,0.6
	C216.2,132.1,215.9,132.3,215.6,132.3z"/>
<path class="st0" d="M227.1,47.6h-1.2l-0.4-1.1c0,0,0,0,0,0c-0.2-0.6-0.5-0.6-0.7,0l-0.4,1.1h-1.2c-0.7,0-0.8,0.3-0.2,0.7l1,0.7
	l-0.4,1.1c0,0,0,0,0,0c-0.2,0.6,0.1,0.8,0.6,0.4l0,0l1-0.7l1,0.7c0.5,0.4,0.8,0.2,0.6-0.4l-0.4-1.1l1-0.7v0
	C227.8,47.9,227.7,47.6,227.1,47.6z M225.1,49.1c-0.3,0-0.6-0.3-0.6-0.6c0-0.3,0.3-0.6,0.6-0.6c0.3,0,0.6,0.3,0.6,0.6
	C225.8,48.9,225.5,49.1,225.1,49.1z"/>
<path class="st0" d="M204.9,97.9h-1.2l-0.4-1.1c0,0,0,0,0,0c-0.2-0.6-0.5-0.6-0.7,0l-0.4,1.1H201c-0.7,0-0.8,0.3-0.2,0.7l1,0.7
	l-0.4,1.1c0,0,0,0,0,0c-0.2,0.6,0.1,0.8,0.6,0.4l0,0l1-0.7l1,0.7c0.5,0.4,0.8,0.2,0.6-0.4l-0.4-1.1l1-0.7v0
	C205.6,98.2,205.5,97.9,204.9,97.9z M202.9,99.4c-0.3,0-0.6-0.3-0.6-0.6c0-0.3,0.3-0.6,0.6-0.6c0.3,0,0.6,0.3,0.6,0.6
	C203.6,99.2,203.3,99.4,202.9,99.4z"/>
<path class="st0" d="M59.1,89h-1.2l-0.4-1.1c0,0,0,0,0,0c-0.2-0.6-0.5-0.6-0.7,0L56.4,89h-1.2c-0.7,0-0.8,0.3-0.2,0.7l1,0.7
	l-0.4,1.1c0,0,0,0,0,0c-0.2,0.6,0.1,0.8,0.6,0.4l0,0l1-0.7l1,0.7c0.5,0.4,0.8,0.2,0.6-0.4l-0.4-1.1l1-0.7v0
	C59.8,89.3,59.7,89,59.1,89z M57.1,90.5c-0.3,0-0.6-0.3-0.6-0.6c0-0.3,0.3-0.6,0.6-0.6c0.3,0,0.6,0.3,0.6,0.6
	C57.7,90.2,57.5,90.5,57.1,90.5z"/>
<path class="st0" d="M82,1.6h-1.2l-0.4-1.1c0,0,0,0,0,0c-0.2-0.6-0.5-0.6-0.7,0l-0.4,1.1h-1.2c-0.7,0-0.8,0.3-0.2,0.7l1,0.7
	l-0.4,1.1c0,0,0,0,0,0c-0.2,0.6,0.1,0.8,0.6,0.4l0,0l1-0.7l1,0.7c0.5,0.4,0.8,0.2,0.6-0.4L81.3,3l1-0.7v0C82.8,1.9,82.7,1.6,82,1.6z
	 M80.1,3.1c-0.3,0-0.6-0.3-0.6-0.6c0-0.3,0.3-0.6,0.6-0.6c0.3,0,0.6,0.3,0.6,0.6C80.7,2.8,80.4,3.1,80.1,3.1z"/>
<path class="st0" d="M221.2,7.5l-0.6-0.6l0.6-0.6c0.3-0.3,0.2-0.5-0.3-0.4l0,0L220.1,6l-0.3-0.8v0c-0.1-0.5-0.4-0.5-0.5,0L219.1,6
	l-0.8-0.2h0c-0.5-0.1-0.6,0.1-0.3,0.4l0,0l0.6,0.6L218,7.5l0,0c-0.3,0.3-0.2,0.5,0.3,0.4h0l0.8-0.2l0.3,0.8c0.1,0.5,0.4,0.5,0.5,0
	l0.3-0.8l0.8,0.2l0,0C221.4,8,221.5,7.8,221.2,7.5z"/>
<path class="st0" d="M128,97.9l-0.6-0.6l0.6-0.6c0.3-0.3,0.2-0.5-0.3-0.4l0,0l-0.8,0.2l-0.3-0.8v0c-0.1-0.5-0.4-0.5-0.5,0l-0.3,0.8
	l-0.8-0.2h0c-0.5-0.1-0.6,0.1-0.3,0.4l0,0l0.6,0.6l-0.6,0.6l0,0c-0.3,0.3-0.2,0.5,0.3,0.4h0l0.8-0.2l0.3,0.8c0.1,0.5,0.4,0.5,0.5,0
	l0.3-0.8l0.8,0.2l0,0C128.2,98.5,128.3,98.3,128,97.9z"/>
<path class="st0" d="M49.3,107.6l-0.6-0.6l0.6-0.6c0.3-0.3,0.2-0.5-0.3-0.4l0,0l-0.8,0.2l-0.3-0.8v0c-0.1-0.5-0.4-0.5-0.5,0
	l-0.3,0.8l-0.8-0.2h0c-0.5-0.1-0.6,0.1-0.3,0.4l0,0l0.6,0.6l-0.6,0.6l0,0c-0.3,0.3-0.2,0.5,0.3,0.4h0l0.8-0.2l0.3,0.8
	c0.1,0.5,0.4,0.5,0.5,0l0.3-0.8l0.8,0.2l0,0C49.6,108.2,49.7,108,49.3,107.6z"/>
<path class="st0" d="M206.5,135.1l-0.6-0.6l0.6-0.6c0.3-0.3,0.2-0.5-0.3-0.4l0,0l-0.8,0.2l-0.3-0.8v0c-0.1-0.5-0.4-0.5-0.5,0
	l-0.3,0.8l-0.8-0.2h0c-0.5-0.1-0.6,0.1-0.3,0.4l0,0l0.6,0.6l-0.6,0.6l0,0c-0.3,0.3-0.2,0.5,0.3,0.4h0l0.8-0.2l0.3,0.8
	c0.1,0.5,0.4,0.5,0.5,0l0.3-0.8l0.8,0.2l0,0C206.7,135.7,206.9,135.5,206.5,135.1z"/>
<path class="st0" d="M179.6,124.7l-0.6-0.6l0.6-0.6c0.3-0.3,0.2-0.5-0.3-0.4l0,0l-0.8,0.2l-0.3-0.8v0c-0.1-0.5-0.4-0.5-0.5,0
	l-0.3,0.8l-0.8-0.2h0c-0.5-0.1-0.6,0.1-0.3,0.4l0,0l0.6,0.6l-0.6,0.6l0,0c-0.3,0.3-0.2,0.5,0.3,0.4h0l0.8-0.2l0.3,0.8
	c0.1,0.5,0.4,0.5,0.5,0l0.3-0.8l0.8,0.2l0,0C179.8,125.2,180,125,179.6,124.7z"/>
<path class="st0" d="M185.6,37l-0.6-0.6l0.6-0.6c0.3-0.3,0.2-0.5-0.3-0.4l0,0l-0.8,0.2l-0.3-0.8v0c-0.1-0.5-0.4-0.5-0.5,0l-0.3,0.8
	l-0.8-0.2h0c-0.5-0.1-0.6,0.1-0.3,0.4l0,0l0.6,0.6l-0.6,0.6l0,0c-0.3,0.3-0.2,0.5,0.3,0.4h0l0.8-0.2l0.3,0.8c0.1,0.5,0.4,0.5,0.5,0
	l0.3-0.8l0.8,0.2l0,0C185.8,37.5,185.9,37.3,185.6,37z"/>
<path class="st0" d="M77.2,79.6L76.6,79l0.6-0.6c0.3-0.3,0.2-0.5-0.3-0.4l0,0l-0.8,0.2l-0.3-0.8v0c-0.1-0.5-0.4-0.5-0.5,0l-0.3,0.8
	l-0.8-0.2h0c-0.5-0.1-0.6,0.1-0.3,0.4l0,0l0.6,0.6L74,79.6l0,0c-0.3,0.3-0.2,0.5,0.3,0.4h0l0.8-0.2l0.3,0.8c0.1,0.5,0.4,0.5,0.5,0
	l0.3-0.8l0.8,0.2l0,0C77.4,80.2,77.6,80,77.2,79.6z"/>
<path class="st0" d="M3.4,39l-0.6-0.6l0.6-0.6c0.3-0.3,0.2-0.5-0.3-0.4l0,0l-0.8,0.2L2,36.6v0c-0.1-0.5-0.4-0.5-0.5,0l-0.3,0.8
	l-0.8-0.2h0c-0.5-0.1-0.6,0.1-0.3,0.4l0,0l0.6,0.6L0.2,39l0,0c-0.3,0.3-0.2,0.5,0.3,0.4h0l0.8-0.2L1.5,40c0.1,0.5,0.4,0.5,0.5,0
	l0.3-0.8l0.8,0.2l0,0C3.6,39.5,3.7,39.3,3.4,39z"/>
<path class="st0" d="M151,9.5l-1.5-0.4l0.7-1.2l0.1-0.1c0.4-0.6,0.2-0.8-0.4-0.4l-0.3,0.2l-1.1,0.6L148.2,7l0-0.2l0-0.2
	c-0.2-0.7-0.4-0.7-0.6,0L147.4,7c0,0,0,0,0,0l-0.3,1.2l-1.1-0.6l-0.3-0.2c-0.6-0.4-0.8-0.2-0.4,0.4l0.1,0.1l0.7,1.2l-1.5,0.4
	c-0.7,0.2-0.7,0.4,0,0.6l1.5,0.4l-0.7,1.2l-0.1,0.1c-0.4,0.6-0.2,0.8,0.4,0.4l0.1-0.1l0.1-0.1l1.1-0.6l0.3,1.2c0,0,0,0,0,0l0.1,0.3
	c0.2,0.7,0.4,0.7,0.6,0l0-0.2l0-0.2l0.3-1.2l1.1,0.6l0.1,0.1l0.1,0.1c0.6,0.4,0.8,0.2,0.4-0.4l-0.1-0.1l-0.7-1.2l1.5-0.4
	C151.6,10,151.6,9.7,151,9.5z M147.8,10.8c-0.5,0-0.9-0.4-0.9-0.9c0-0.5,0.4-0.9,0.9-0.9c0.5,0,0.9,0.4,0.9,0.9
	C148.7,10.3,148.3,10.8,147.8,10.8z"/>
<path class="st1" d="M58.8,21.6"/>
<g>
	<path class="st2" d="M49.1,104.8l-0.7-0.3c1.3-2.9,3.3-6.5,4.8-9c0.6-1,1.1-1.9,1.4-2.5l0.7,0.4c-0.4,0.7-0.9,1.5-1.4,2.6
		C52.4,98.3,50.4,101.9,49.1,104.8z"/>
	<path class="st2" d="M50.9,105.8l-0.5-0.6c7-6.2,18.3-17.8,23.1-24l0.6,0.5C69.2,87.9,58,99.6,50.9,105.8z"/>
	<path class="st2" d="M59.3,134.2c-2.3-8.4-7.3-18.2-10-23.5l-0.6-1.2l0.7-0.3l0.6,1.2c2.7,5.3,7.7,15.2,10,23.6L59.3,134.2z"/>
	<path class="st2" d="M29.4,143.3l-0.7-0.2c3-9.8,12.2-26.9,17-34l0.6,0.4C41.5,116.6,32.4,133.6,29.4,143.3z"/>
	<path class="st2" d="M47.3,104l-0.7,0c0.1-0.9,0.1-1.8,0.2-2.8c0.4-6.5,0.8-13.8,2.5-18.1l0.7,0.3c-1.6,4.1-2,11.4-2.4,17.8
		C47.4,102.2,47.4,103.1,47.3,104z"/>
	<path class="st2" d="M196.3,43.4c-2.6-2.2-5.4-4.1-9.5-6.2l0.3-0.7c4.1,2.2,7,4,9.6,6.3L196.3,43.4z"/>
	<path class="st2" d="M221.5,48.5c-5.9-1.6-14.7-3.1-20.7-3.3l0-0.7c6,0.3,14.9,1.7,20.8,3.3L221.5,48.5z"/>
	<path class="st2" d="M228.8,48.1l-0.2-0.7c2.6-0.9,6-1.5,9.4-1.8l0.1,0.7C234.7,46.6,231.3,47.3,228.8,48.1z"/>
	<path class="st2" d="M239.9,86.1l-0.7-0.1c0.7-10,1-24,0.9-37.3l0.8,0C241,62.1,240.7,76.1,239.9,86.1z"/>
	<path class="st2" d="M206.3,99.5l-0.1-0.7c13.3-1.9,23.3-4.5,30.6-8l0.3,0.7C229.7,95,219.7,97.6,206.3,99.5z"/>
	<path class="st2" d="M172.8,78.2L172,78c2.6-12.4,6.9-28.2,10-39.2l0.7,0.2C179.7,50.1,175.4,65.8,172.8,78.2z"/>
	<path class="st2" d="M198.8,98.5c-10.9-3.8-18.5-8.1-25.4-14.5l0.5-0.6c7,6.4,14.3,10.6,25.2,14.4L198.8,98.5z"/>
	<path class="st2" d="M214.1,128.5c-2.2-6.4-5.1-14-7.7-20.7c-0.7-1.8-1.4-3.6-2.1-5.3l0.7-0.3c0.7,1.7,1.4,3.5,2.1,5.3
		c2.6,6.7,5.5,14.3,7.7,20.7L214.1,128.5z"/>
	<path class="st2" d="M203.7,131.1l-0.1-1.6c-0.5-8-1-17-1-26.8l0.8,0c0.1,9.8,0.6,18.8,1,26.8l0.1,1.6L203.7,131.1z"/>
	<path class="st2" d="M190.7,129.5l-0.7-0.3c3.6-8.2,7.4-17.7,10.6-26.8l0.7,0.2C198.1,111.8,194.3,121.4,190.7,129.5z"/>
	<path class="st2" d="M181.2,122.6l-0.5-0.5c1-1,2-2.1,3-3.2c5.3-5.6,10.7-11.5,15.9-17.7l0.6,0.5c-5.2,6.2-10.7,12.1-16,17.7
		C183.1,120.5,182.1,121.6,181.2,122.6z"/>
	<path class="st2" d="M181,106.6l-0.2-0.7c6.1-1.6,12.2-3.7,17.4-5.6l0.3,0.7C193.2,102.9,187.1,105,181,106.6z"/>
	
		<rect x="171.9" y="90.8" transform="matrix(0.7334 -0.6798 0.6798 0.7334 -21.5227 143.5914)" class="st2" width="0.7" height="16.9"/>
	<path class="st2" d="M19.7,63.1c-5.1-6.4-9.2-11.9-13.6-17.8l-3.4-4.5l0.6-0.5l3.4,4.5c4.4,5.8,8.5,11.3,13.6,17.8L19.7,63.1z"/>
	<path class="st2" d="M23.3,62.8l-0.7-0.3c4.2-8.7,8.6-18.4,12-26.8l0.7,0.3C32,44.3,27.6,54.1,23.3,62.8z"/>
	<path class="st2" d="M5,38l-0.1-0.7c9.8-1.8,24.3-3.4,28.5-3.8l0.1,0.7C29.3,34.6,14.8,36.2,5,38z"/>
	<path class="st2" d="M37,31.7l-0.7-0.3c3-8,6-15.3,9.1-22.1l0.7,0.3C43,16.5,40,23.7,37,31.7z"/>
	<path class="st2" d="M50.1,6.5l-0.1-0.7c9.2-1.6,19.3-3,26.5-3.7l0.1,0.7C69.4,3.4,59.3,4.8,50.1,6.5z"/>
</g>
<g>
	<path class="st3" d="M68.8,108.8l1.6,0c0.7,0,1.2,0.1,1.6,0.4c0.4,0.3,0.6,0.7,0.6,1.3c0,0.4-0.1,0.8-0.3,1.1
		c-0.2,0.3-0.6,0.6-1,0.7l1.2,2.5l-1.3,0l-0.9-2.2c0,0-0.1,0-0.2,0l-0.8,0l-0.4,2.2l-1.2,0L68.8,108.8z M69.4,111.7l0.7,0
		c0.4,0,0.7-0.1,1-0.3c0.3-0.2,0.4-0.5,0.4-0.8c0-0.3-0.1-0.5-0.3-0.6c-0.2-0.1-0.5-0.2-0.8-0.2l-0.6,0L69.4,111.7z"/>
	<path class="st3" d="M76.7,108.7l1.2,0l1.2,6.1l-1.3,0l-0.3-1.6l-2.3,0l-0.9,1.6l-1.3,0L76.7,108.7z M77.5,112.2l-0.4-2.3l-1.2,2.3
		L77.5,112.2z"/>
	<path class="st3" d="M83.2,114.8c-0.6,0-1.1-0.1-1.5-0.3s-0.8-0.5-1-1c-0.3-0.4-0.4-0.9-0.4-1.5c0-0.6,0.1-1.2,0.4-1.7
		c0.3-0.5,0.7-0.9,1.2-1.3c0.5-0.3,1.1-0.5,1.8-0.5c0.4,0,0.7,0,1.1,0.1c0.4,0.1,0.7,0.2,0.9,0.4l-0.3,1c-0.6-0.3-1.1-0.5-1.7-0.5
		c-0.4,0-0.8,0.1-1.1,0.3c-0.3,0.2-0.6,0.5-0.8,0.8c-0.2,0.3-0.3,0.7-0.3,1.2c0,0.5,0.2,1,0.5,1.3c0.3,0.3,0.8,0.5,1.4,0.5
		c0.6,0,1.1-0.1,1.6-0.4v1.1C84.5,114.6,83.9,114.8,83.2,114.8z"/>
	<path class="st3" d="M86.2,114.7l1.1-6.1l1.2,0l-0.5,2.6l2.8-2.6l1.6,0l-3.4,3.1l2.5,3l-1.6,0l-2.1-2.7l-0.5,2.7L86.2,114.7z"/>
	<path class="st3" d="M94.4,114.8c-0.4,0-0.7-0.1-1.1-0.2s-0.7-0.2-0.9-0.4l0.3-1c0.3,0.2,0.6,0.3,0.9,0.4s0.6,0.2,0.9,0.2
		c0.4,0,0.7-0.1,0.9-0.2c0.2-0.1,0.3-0.3,0.3-0.6c0-0.2-0.1-0.3-0.2-0.5c-0.1-0.1-0.4-0.3-0.8-0.5c-0.5-0.2-0.9-0.5-1.1-0.7
		c-0.2-0.3-0.3-0.6-0.3-1c0-0.4,0.1-0.7,0.3-0.9s0.4-0.5,0.8-0.7c0.3-0.2,0.7-0.2,1.2-0.2c0.3,0,0.6,0,1,0.1
		c0.3,0.1,0.6,0.2,0.9,0.4l-0.3,1c-0.3-0.2-0.5-0.3-0.8-0.4s-0.5-0.1-0.8-0.1c-0.3,0-0.6,0.1-0.8,0.2c-0.2,0.1-0.3,0.3-0.3,0.5
		c0,0.2,0.1,0.3,0.2,0.4c0.1,0.1,0.4,0.3,0.7,0.4c0.4,0.2,0.7,0.4,0.9,0.5c0.2,0.2,0.4,0.4,0.5,0.6c0.1,0.2,0.1,0.5,0.2,0.7
		c0,0.4-0.1,0.7-0.3,1s-0.5,0.5-0.8,0.7C95.3,114.7,94.9,114.8,94.4,114.8z"/>
	<path class="st3" d="M98.9,108.5l1.6,0c0.7,0,1.2,0.2,1.6,0.5c0.4,0.3,0.6,0.7,0.6,1.3c0,0.7-0.2,1.3-0.7,1.7
		c-0.5,0.4-1.1,0.6-1.9,0.6h-0.9l-0.4,2.1l-1.2,0L98.9,108.5z M99.5,111.6l0.7,0c0.4,0,0.8-0.1,1-0.3c0.2-0.2,0.4-0.5,0.4-0.9
		c0-0.3-0.1-0.5-0.3-0.6c-0.2-0.1-0.5-0.2-0.8-0.2l-0.5,0L99.5,111.6z"/>
	<path class="st3" d="M105.9,108.6l1.2,0l1.2,6.1l-1.3,0l-0.3-1.6l-2.3,0l-0.9,1.6l-1.3,0L105.9,108.6z M106.6,112.1l-0.4-2.3
		l-1.3,2.3L106.6,112.1z"/>
	<path class="st3" d="M112.3,114.8c-0.6,0-1.1-0.1-1.5-0.3c-0.4-0.2-0.8-0.6-1-1s-0.4-0.9-0.4-1.5c0-0.6,0.2-1.2,0.5-1.7
		c0.3-0.5,0.7-0.9,1.2-1.2s1.1-0.5,1.8-0.5c0.4,0,0.7,0.1,1.1,0.2c0.4,0.1,0.7,0.2,0.9,0.4l-0.3,1c-0.5-0.3-1.1-0.5-1.7-0.5
		c-0.4,0-0.8,0.1-1.1,0.3s-0.6,0.5-0.8,0.8c-0.2,0.3-0.3,0.7-0.3,1.2c0,0.5,0.2,1,0.5,1.3s0.8,0.5,1.4,0.5c0.6,0,1.1-0.1,1.6-0.4
		l0,1.1C113.6,114.6,113,114.8,112.3,114.8z"/>
	<path class="st3" d="M116.5,108.6l3.9,0l-0.2,1l-2.7,0l-0.3,1.5l2.4,0l-0.2,1l-2.4,0l-0.3,1.6l2.9,0l-0.2,1l-4.1,0L116.5,108.6z"/>
</g>
<g>
	<path class="st3" d="M194.6,68.8c-0.6,0-1.2-0.1-1.6-0.3c-0.5-0.2-0.8-0.5-1.1-1c-0.3-0.4-0.4-0.9-0.4-1.5c0-0.6,0.1-1.2,0.4-1.8
		c0.3-0.5,0.7-0.9,1.3-1.3c0.6-0.3,1.2-0.5,1.9-0.5c0.4,0,0.8,0,1.2,0.1s0.7,0.2,1,0.4l-0.3,1c-0.3-0.2-0.6-0.3-0.9-0.4
		c-0.3-0.1-0.7-0.1-1-0.1c-0.4,0-0.8,0.1-1.2,0.3c-0.4,0.2-0.6,0.5-0.8,0.8c-0.2,0.3-0.3,0.7-0.3,1.2c0,0.6,0.2,1,0.5,1.3
		c0.3,0.3,0.8,0.5,1.4,0.5c0.3,0,0.6-0.1,0.9-0.2l0.2-1.3l-1.2,0l0.2-1l2.3,0l-0.6,3.1c-0.3,0.1-0.6,0.2-0.9,0.3
		C195.3,68.8,195,68.8,194.6,68.8z"/>
	<path class="st3" d="M199.2,62.7l1.2,0l-1.2,6.1l-1.2,0L199.2,62.7z"/>
	<path class="st3" d="M203.2,63.7l-1.9,0l0.2-1l5,0l-0.2,1l-1.9,0l-1,5.1l-1.2,0L203.2,63.7z"/>
	<path class="st3" d="M207.6,62.6l1.2,0l-0.5,2.4l2.8,0l0.5-2.4l1.2,0l-1.2,6.1h-1.2l0.5-2.6l-2.8,0l-0.5,2.6l-1.2,0L207.6,62.6z"/>
	<path class="st3" d="M216.1,68.8c-0.8,0-1.4-0.2-1.8-0.6c-0.4-0.4-0.6-0.9-0.6-1.6c0-0.2,0-0.4,0.1-0.8l0.6-3.2l1.2,0l-0.6,3.3
		c0,0.2-0.1,0.4-0.1,0.6c0,0.4,0.1,0.7,0.3,1c0.2,0.2,0.5,0.3,0.9,0.3c0.5,0,0.8-0.1,1.1-0.4c0.3-0.3,0.4-0.7,0.6-1.4l0.7-3.3l1.2,0
		l-0.7,3.6c-0.2,0.9-0.5,1.6-1,2S216.9,68.9,216.1,68.8z"/>
	<path class="st3" d="M221.3,62.7l1.9,0c0.6,0,1.1,0.1,1.4,0.4c0.3,0.3,0.5,0.6,0.5,1.1c0,0.3-0.1,0.6-0.3,0.9
		c-0.2,0.3-0.4,0.4-0.7,0.6c0.2,0.1,0.3,0.2,0.4,0.3c0.1,0.1,0.2,0.3,0.3,0.4c0.1,0.2,0.1,0.3,0.1,0.5c0,0.6-0.2,1.1-0.6,1.4
		c-0.4,0.3-1,0.5-1.8,0.5l-2.5,0L221.3,62.7z M221.4,67.8l1.1,0c0.4,0,0.7-0.1,0.9-0.3c0.2-0.2,0.3-0.4,0.3-0.7c0-0.5-0.3-0.7-1-0.7
		l-1,0L221.4,67.8z M221.9,65.1l0.9,0c0.3,0,0.6-0.1,0.8-0.2c0.2-0.2,0.3-0.4,0.3-0.7c0-0.2-0.1-0.4-0.2-0.5
		c-0.2-0.1-0.4-0.2-0.7-0.2l-0.8,0L221.9,65.1z"/>
</g>
<g>
	<path class="st3" d="M195,72.2l1.6,0c0.7,0,1.2,0.2,1.6,0.5c0.4,0.3,0.6,0.7,0.6,1.3c0,0.7-0.2,1.3-0.7,1.7
		c-0.5,0.4-1.1,0.6-1.9,0.6l-0.9,0l-0.4,2.1l-1.2,0L195,72.2z M195.6,75.3l0.7,0c0.4,0,0.8-0.1,1-0.3c0.2-0.2,0.4-0.5,0.4-0.9
		c0-0.3-0.1-0.5-0.3-0.6c-0.2-0.1-0.5-0.2-0.8-0.2l-0.5,0L195.6,75.3z"/>
	<path class="st3" d="M201.9,72.2l1.2,0l1.2,6.1l-1.3,0l-0.3-1.6l-2.3,0l-0.9,1.6l-1.3,0L201.9,72.2z M202.7,75.8l-0.4-2.3l-1.3,2.3
		L202.7,75.8z"/>
	<path class="st3" d="M208.5,78.4c-0.6,0-1.2-0.1-1.6-0.3c-0.5-0.2-0.8-0.5-1.1-1c-0.3-0.4-0.4-0.9-0.4-1.5c0-0.6,0.1-1.2,0.4-1.8
		c0.3-0.5,0.7-0.9,1.3-1.2s1.2-0.5,1.9-0.5c0.4,0,0.8,0,1.2,0.1c0.4,0.1,0.7,0.2,1,0.4l-0.3,1c-0.3-0.2-0.6-0.3-0.9-0.4
		c-0.3-0.1-0.7-0.1-1-0.1c-0.4,0-0.8,0.1-1.2,0.3c-0.4,0.2-0.6,0.5-0.8,0.8c-0.2,0.3-0.3,0.7-0.3,1.2c0,0.6,0.2,1,0.5,1.3
		c0.3,0.3,0.8,0.5,1.4,0.5c0.3,0,0.6-0.1,0.9-0.2l0.2-1.3l-1.2,0l0.2-1l2.3,0l-0.6,3.1c-0.3,0.1-0.6,0.2-0.9,0.3
		C209.2,78.3,208.9,78.4,208.5,78.4z"/>
	<path class="st3" d="M213.1,72.2l3.9,0l-0.2,1l-2.7,0l-0.3,1.5l2.4,0l-0.2,1l-2.4,0l-0.3,1.6l2.9,0l-0.2,1l-4.1,0L213.1,72.2z"/>
	<path class="st3" d="M219.2,78.4c-0.4,0-0.7-0.1-1.1-0.2c-0.4-0.1-0.7-0.3-0.9-0.4l0.3-1c0.3,0.2,0.6,0.3,0.9,0.4
		c0.3,0.1,0.6,0.2,0.9,0.2c0.4,0,0.7-0.1,0.9-0.2c0.2-0.1,0.3-0.3,0.3-0.6c0-0.2-0.1-0.3-0.2-0.5c-0.1-0.1-0.4-0.3-0.8-0.5
		c-0.5-0.2-0.9-0.5-1.1-0.7c-0.2-0.3-0.3-0.6-0.3-1c0-0.4,0.1-0.7,0.3-0.9c0.2-0.3,0.4-0.5,0.8-0.6c0.3-0.2,0.7-0.2,1.2-0.2
		c0.3,0,0.6,0,1,0.1c0.3,0.1,0.6,0.2,0.9,0.4l-0.3,1c-0.3-0.2-0.5-0.3-0.8-0.4c-0.3-0.1-0.5-0.1-0.8-0.1c-0.3,0-0.6,0.1-0.8,0.2
		c-0.2,0.1-0.3,0.3-0.3,0.5c0,0.2,0.1,0.3,0.2,0.4c0.1,0.1,0.4,0.3,0.7,0.4c0.4,0.2,0.7,0.4,0.9,0.5s0.4,0.4,0.5,0.6
		c0.1,0.2,0.1,0.5,0.1,0.7c0,0.4-0.1,0.7-0.3,1s-0.5,0.5-0.8,0.7S219.7,78.4,219.2,78.4z"/>
</g>
<g>
	<path class="st3" d="M58.2,27.2l1.2,0l1.3,6.1l-1.3,0l-0.3-1.6l-2.3,0L56,33.3l-1.3,0L58.2,27.2z M59,30.7l-0.4-2.3l-1.2,2.3
		L59,30.7z"/>
	<path class="st3" d="M61.6,33.2l1.4-6.1l1.1,0l1.2,3.8l2.7-3.9l1.2,0l-0.8,6.1l-1.2,0l0.6-4.1l-2.2,3.1l-1,0l-1-3.2l-0.9,4.2
		L61.6,33.2z"/>
	<path class="st3" d="M72.9,27l1.2,0l1.2,6.1l-1.3,0l-0.3-1.6l-2.3,0l-0.9,1.6l-1.3,0L72.9,27z M73.7,30.5l-0.4-2.3l-1.3,2.3
		L73.7,30.5z"/>
	<path class="st3" d="M76.4,32.2l3.9-4.2l-3,0l0.2-1l4.6,0L82,27.8L78,32.1l3.3,0l-0.2,1l-4.8,0L76.4,32.2z"/>
	<path class="st3" d="M85.4,33.2c-0.5,0-1-0.1-1.5-0.3s-0.8-0.6-1-1c-0.3-0.4-0.4-0.9-0.4-1.5c0-0.6,0.1-1.2,0.4-1.7
		c0.3-0.5,0.7-1,1.2-1.3c0.5-0.3,1.1-0.5,1.8-0.5c0.5,0,1,0.1,1.5,0.3c0.4,0.2,0.8,0.6,1,1s0.4,0.9,0.4,1.5c0,0.5-0.1,0.9-0.2,1.3
		c-0.2,0.4-0.4,0.8-0.7,1.1c-0.3,0.3-0.7,0.6-1.1,0.8C86.4,33,85.9,33.1,85.4,33.2z M85.5,32.1c0.4,0,0.7-0.1,1-0.3s0.6-0.5,0.8-0.9
		s0.3-0.8,0.3-1.2c0-0.5-0.2-1-0.5-1.3c-0.3-0.3-0.7-0.5-1.3-0.5c-0.4,0-0.7,0.1-1,0.3s-0.6,0.5-0.8,0.9c-0.2,0.4-0.3,0.8-0.3,1.2
		c0,0.5,0.2,1,0.5,1.3C84.6,31.9,85,32.1,85.5,32.1z"/>
	<path class="st3" d="M90.7,26.9l1.1,0l2.2,4.3l0.8-4.3l1.2,0L94.9,33l-1.1,0l-2.3-4.3L90.7,33l-1.2,0L90.7,26.9z"/>
	<path class="st3" d="M100,33.1c-0.4,0-0.7-0.1-1.1-0.2c-0.4-0.1-0.7-0.3-0.9-0.4l0.3-1c0.3,0.2,0.6,0.3,0.9,0.4
		c0.3,0.1,0.6,0.2,0.9,0.2c0.4,0,0.7-0.1,0.9-0.2c0.2-0.1,0.3-0.3,0.3-0.6c0-0.2-0.1-0.3-0.2-0.5c-0.1-0.1-0.4-0.3-0.8-0.5
		c-0.5-0.2-0.9-0.5-1.1-0.7s-0.3-0.6-0.3-1c0-0.4,0.1-0.7,0.3-0.9s0.4-0.5,0.8-0.6s0.7-0.2,1.2-0.2c0.3,0,0.6,0,1,0.1
		c0.3,0.1,0.6,0.2,0.9,0.4l-0.3,1c-0.3-0.2-0.5-0.3-0.8-0.4s-0.5-0.1-0.8-0.1c-0.3,0-0.6,0.1-0.8,0.2c-0.2,0.1-0.3,0.3-0.3,0.5
		c0,0.2,0.1,0.3,0.2,0.4c0.1,0.1,0.4,0.3,0.7,0.4c0.4,0.2,0.7,0.4,0.9,0.5c0.2,0.2,0.4,0.4,0.5,0.6s0.1,0.5,0.1,0.7
		c0,0.4-0.1,0.7-0.3,1c-0.2,0.3-0.5,0.5-0.8,0.7C100.9,33,100.5,33.1,100,33.1z"/>
	<path class="st3" d="M104.9,33.1c-0.3,0-0.6,0-0.9-0.1c-0.3-0.1-0.6-0.2-0.8-0.3l0.2-0.9c0.2,0.1,0.4,0.2,0.7,0.3
		c0.3,0.1,0.5,0.1,0.8,0.1c0.4,0,0.7-0.1,0.9-0.3c0.2-0.2,0.4-0.5,0.4-0.8c0-0.3-0.1-0.5-0.3-0.6c-0.2-0.1-0.4-0.2-0.8-0.2
		c-0.2,0-0.3,0-0.5,0.1l-0.2-0.6l1.8-1.7l-2.2,0l0.2-1l3.6,0l-0.2,0.8l-1.7,1.6c0.4,0.1,0.7,0.2,1,0.5c0.2,0.3,0.4,0.6,0.4,1.1
		c0,0.4-0.1,0.7-0.3,1c-0.2,0.3-0.5,0.5-0.9,0.7C105.8,33,105.4,33.1,104.9,33.1z"/>
</g>
<g>
	<path class="st3" d="M155.3,9.5l3.8,0.1l-0.2,1l-2.6-0.1l-0.3,1.6l2.3,0l-0.2,1l-2.3,0l-0.5,2.4l-1.2,0L155.3,9.5z"/>
	<path class="st3" d="M161.5,10.7l-1.9,0l0.2-1l5,0l-0.2,1l-1.9,0l-1,5.1l-1.2,0L161.5,10.7z"/>
	<path class="st3" d="M165.8,9.7l1.6,0c0.7,0,1.2,0.1,1.6,0.5c0.4,0.3,0.6,0.7,0.6,1.3c0,0.7-0.2,1.3-0.7,1.7
		c-0.5,0.4-1.1,0.6-1.9,0.6l-0.9,0l-0.4,2.1l-1.2,0L165.8,9.7z M166.4,12.7l0.7,0c0.4,0,0.8-0.1,1-0.3c0.2-0.2,0.4-0.5,0.4-0.9
		c0-0.3-0.1-0.5-0.3-0.6c-0.2-0.1-0.5-0.2-0.8-0.2l-0.5,0L166.4,12.7z"/>
</g>
</svg>
