<?xml version="1.0" encoding="utf-8"?>
<!-- Generator: Adobe Illustrator 19.2.1, SVG Export Plug-In . SVG Version: 6.00 Build 0)  -->
<svg version="1.1" id="Layer_1" xmlns="http://www.w3.org/2000/svg" xmlns:xlink="http://www.w3.org/1999/xlink" x="0px" y="0px"
	 viewBox="0 0 1129 541" style="enable-background:new 0 0 1129 541;" xml:space="preserve">
<style type="text/css">
	.st0{fill:#5A6574;}
	.st1{fill:#FFFFFF;}
	.st2{fill:#22A1EF;}
	.st3{fill:none;stroke:#FFFFFF;stroke-miterlimit:10;}
	.st4{clip-path:url(#SVGID_2_);}
	.st5{clip-path:url(#SVGID_4_);fill:#FFFFFF;}
	.st6{clip-path:url(#SVGID_6_);}
	.st7{clip-path:url(#SVGID_8_);fill:#FFFFFF;}
	.st8{clip-path:url(#SVGID_10_);}
	.st9{clip-path:url(#SVGID_12_);fill:#FFFFFF;}
	.st10{clip-path:url(#SVGID_14_);}
	.st11{clip-path:url(#SVGID_16_);fill:#FFFFFF;}
	.st12{clip-path:url(#SVGID_18_);}
	.st13{clip-path:url(#SVGID_20_);fill:#FFFFFF;}
	.st14{clip-path:url(#SVGID_22_);}
	.st15{clip-path:url(#SVGID_24_);fill:#FFFFFF;}
	.st16{clip-path:url(#SVGID_26_);}
	.st17{clip-path:url(#SVGID_28_);fill:#FFFFFF;}
	.st18{clip-path:url(#SVGID_30_);}
	.st19{clip-path:url(#SVGID_32_);fill:#FFFFFF;}
</style>
<circle class="st0" cx="844.4" cy="178.3" r="3"/>
<circle class="st0" cx="170.4" cy="197.9" r="3"/>
<circle class="st0" cx="108.7" cy="122.6" r="3"/>
<circle class="st1" cx="618.7" cy="62.4" r="3"/>
<circle class="st0" cx="800.9" cy="41.4" r="3"/>
<circle class="st0" cx="678.9" cy="259.4" r="3"/>
<circle class="st0" cx="582" cy="419.2" r="3"/>
<circle class="st1" cx="101.2" cy="216.6" r="2"/>
<circle class="st0" cx="533.2" cy="141.6" r="2"/>
<circle class="st2" cx="809.9" cy="156" r="2"/>
<circle class="st0" cx="807.9" cy="271.8" r="2"/>
<circle class="st1" cx="519.9" cy="247" r="2"/>
<circle class="st1" cx="660.2" cy="428.5" r="2"/>
<circle class="st0" cx="416.2" cy="344" r="2"/>
<circle class="st0" cx="733.8" cy="377.4" r="2"/>
<circle class="st0" cx="732.6" cy="494" r="2"/>
<circle class="st0" cx="306.5" cy="263.8" r="2"/>
<circle class="st0" cx="241.7" cy="143.6" r="2"/>
<circle class="st1" cx="450" cy="133.6" r="2"/>
<circle class="st0" cx="548" cy="36.4" r="2"/>
<circle class="st0" cx="148" cy="86.9" r="2"/>
<circle class="st0" cx="585" cy="154" r="2"/>
<circle class="st0" cx="370.9" cy="100.9" r="2"/>
<circle class="st0" cx="192.4" cy="60.9" r="1.5"/>
<circle class="st0" cx="508" cy="410.8" r="1.5"/>
<circle class="st0" cx="506.5" cy="474.8" r="1.5"/>
<circle class="st0" cx="291" cy="405.5" r="1.5"/>
<circle class="st0" cx="28" cy="353.2" r="1.5"/>
<circle class="st0" cx="554.3" cy="88.9" r="1.5"/>
<circle class="st0" cx="368.9" cy="160.5" r="1.5"/>
<circle class="st0" cx="614.2" cy="351.7" r="1.5"/>
<circle class="st0" cx="605.6" cy="257.9" r="1.5"/>
<circle class="st0" cx="418.2" cy="214.6" r="1.5"/>
<circle class="st0" cx="720.2" cy="74.5" r="1.5"/>
<circle class="st1" cx="884.5" cy="108.9" r="1.5"/>
<circle class="st0" cx="1029.3" cy="315" r="1.5"/>
<circle class="st0" cx="811.9" cy="346" r="1.5"/>
<circle class="st0" cx="919.6" cy="420.7" r="1.5"/>
<circle class="st0" cx="69.9" cy="277.8" r="2"/>
<circle class="st0" cx="330" cy="15" r="2"/>
<circle class="st0" cx="1048" cy="78" r="2"/>
<circle class="st0" cx="968.7" cy="200.9" r="2"/>
<circle class="st0" cx="1088.7" cy="202.9" r="2"/>
<circle class="st0" cx="919.6" cy="234.2" r="3"/>
<circle class="st0" cx="1090.7" cy="408.9" r="3"/>
<circle class="st0" cx="856.3" cy="238.4" r="3"/>
<circle class="st0" cx="784.8" cy="387.4" r="3"/>
<circle class="st1" cx="1072" cy="199.7" r="6"/>
<circle class="st1" cx="981.6" cy="231.2" r="4.5"/>
<circle class="st1" cx="472.5" cy="461.4" r="6"/>
<circle class="st1" cx="129" cy="379.9" r="6"/>
<circle class="st1" cx="142.9" cy="320" r="6"/>
<circle class="st1" cx="60" cy="480.8" r="6"/>
<circle class="st1" cx="103.2" cy="273.1" r="6"/>
<circle class="st1" cx="598.1" cy="131.6" r="4"/>
<circle class="st1" cx="208.8" cy="279.8" r="4"/>
<circle class="st1" cx="256.1" cy="122.4" r="4"/>
<circle class="st1" cx="164.2" cy="455.4" r="6"/>
<circle class="st1" cx="204.8" cy="204.9" r="6"/>
<circle class="st1" cx="302.9" cy="59.4" r="6"/>
<circle class="st1" cx="427.7" cy="38.4" r="6"/>
<circle class="st1" cx="598.1" cy="405.9" r="3"/>
<circle class="st1" cx="741.5" cy="110.4" r="7.5"/>
<circle class="st1" cx="809.9" cy="102.9" r="3"/>
<circle class="st1" cx="958.2" cy="352" r="4.5"/>
<circle class="st1" cx="904.9" cy="52.6" r="3"/>
<circle class="st1" cx="1056.5" cy="172.3" r="2"/>
<circle class="st1" cx="881.7" cy="277.6" r="7.5"/>
<circle class="st1" cx="892" cy="199.7" r="6"/>
<circle class="st1" cx="865.3" cy="446.1" r="4.5"/>
<circle class="st1" cx="1063.6" cy="304.8" r="6"/>
<circle class="st1" cx="965.5" cy="473.4" r="6"/>
<circle class="st1" cx="909.6" cy="470.4" r="4.5"/>
<circle class="st1" cx="1027.8" cy="463.4" r="5"/>
<circle class="st1" cx="354.4" cy="328.6" r="3"/>
<circle class="st1" cx="281" cy="481.8" r="3"/>
<circle class="st1" cx="135" cy="122.4" r="6"/>
<circle class="st1" cx="43.6" cy="72.8" r="3"/>
<circle class="st1" cx="17.5" cy="235.4" r="3"/>
<rect x="105.2" y="349.5" transform="matrix(0.2276 -0.9738 0.9738 0.2276 -235.7737 402.7195)" class="st1" width="61.5" height="1"/>
<rect x="115.6" y="271.6" transform="matrix(0.9721 -0.2345 0.2345 0.9721 -73.3362 36.3318)" class="st1" width="1" height="109.8"/>
<rect x="33.4" y="429.8" transform="matrix(0.5646 -0.8254 0.8254 0.5646 -314.0403 265.3725)" class="st1" width="122.2" height="1"/>
<rect x="146.1" y="376" transform="matrix(0.9064 -0.4223 0.4223 0.9064 -162.6807 100.9765)" class="st1" width="1" height="83.3"/>
<rect x="104.9" y="329.3" transform="matrix(0.623 -0.7822 0.7822 0.623 -194.3474 256.4301)" class="st1" width="128" height="1"/>
<path class="st3" d="M129,379.9"/>
<path class="st3" d="M142.9,326.6"/>
<rect x="169.4" y="109.6" transform="matrix(0.7634 -0.6459 0.6459 0.7634 -65.514 148.4224)" class="st1" width="1" height="108"/>
<rect x="302" y="48.4" transform="matrix(0.9861 -0.166 0.166 0.9861 -3.0485 61.3145)" class="st1" width="126.6" height="1"/>
<rect x="240.3" y="90.4" transform="matrix(0.5959 -0.803 0.803 0.5959 39.9365 261.2067)" class="st1" width="78.4" height="1"/>
<rect x="135" y="121.9" class="st1" width="121.2" height="1"/>
<rect x="181.9" y="163.1" transform="matrix(0.5285 -0.8489 0.8489 0.5285 -30.2689 272.7994)" class="st1" width="97.2" height="1"/>
<rect x="919.4" y="261.4" transform="matrix(0.6974 -0.7167 0.7167 0.6974 52.7559 754.5267)" class="st1" width="1" height="106.7"/>
<rect x="1022.1" y="212.9" transform="matrix(0.6685 -0.7437 0.7437 0.6685 139.651 849.3017)" class="st1" width="1" height="110.2"/>
<rect x="1015" y="251.8" transform="matrix(8.013362e-02 -0.9968 0.9968 8.013362e-02 730.7772 1296.3846)" class="st1" width="105.5" height="1"/>
<rect x="979" y="214.9" transform="matrix(0.9446 -0.3282 0.3282 0.9446 -13.8204 348.9502)" class="st1" width="95.7" height="1"/>
<rect x="936.3" y="167.9" transform="matrix(0.3313 -0.9435 0.9435 0.3313 423.162 1027.939)" class="st1" width="1" height="95"/>
<rect x="847.6" y="238.1" transform="matrix(0.1317 -0.9913 0.9913 0.1317 533.484 1086.3096)" class="st1" width="78.6" height="1"/>
<rect x="876.5" y="253.9" transform="matrix(0.9068 -0.4217 0.4217 0.9068 -20.3819 416.5525)" class="st1" width="110.2" height="1"/>
<rect x="953.1" y="327.9" transform="matrix(0.9129 -0.4081 0.4081 0.9129 -46.0128 441.1628)" class="st1" width="115.5" height="1"/>
<rect x="961.3" y="351.9" transform="matrix(0.9982 -6.045166e-02 6.045166e-02 0.9982 -23.1889 58.8993)" class="st1" width="1" height="121.6"/>
<rect x="992.5" y="342" transform="matrix(0.8479 -0.5302 0.5302 0.8479 -65.1096 588.4399)" class="st1" width="1" height="131.4"/>
<rect x="869.9" y="410.7" transform="matrix(0.3796 -0.9251 0.9251 0.3796 198.9379 1119.0524)" class="st1" width="128" height="1"/>
<g>
	<g>
		<defs>
			<path id="SVGID_1_" d="M401.7,189.7v0.8c0,1.5,0.1,2.7-0.7,4c-0.6,1.1-1.5,1.7-2.5,1.7c-1.4,0-2.2-1.1-2.2-2.7
				C396.4,190.2,399.1,189.7,401.7,189.7z M354.7,189.7v0.8c0,1.5,0.1,2.7-0.7,4c-0.6,1.1-1.5,1.7-2.5,1.7c-1.4,0-2.2-1.1-2.2-2.7
				C349.3,190.2,352.1,189.7,354.7,189.7z M434.4,182.7c1.1,0,2,0.5,2.4,1.8c0.5,1.5,0.5,3.4,0.5,5.1c0,2.5-0.1,6.5-2.9,6.5
				c-2.8,0-2.8-5-2.8-7.4C431.6,186.4,431.8,182.7,434.4,182.7z M411.8,179.1c-0.4,0-0.7,0.3-0.7,0.7v2.7c0,0.4,0.3,0.7,0.7,0.7h6.2
				l-7,10.5c-0.4,0.7-0.5,1.4-0.5,1.9v2.8c0,0.4,0.4,0.8,0.8,0.6c4-2.2,8.8-2,12.5,0c0.4,0.2,0.9-0.2,0.9-0.6v-2.9
				c0-0.4-0.2-0.8-0.7-1c-2.1-1.2-4.5-1.6-6.7-1.5l6.1-9.1c0.6-0.8,0.9-1.3,0.9-1.7v-2.4c0-0.4-0.3-0.7-0.7-0.7H411.8z M454.9,178.8
				c-2.5,0-3.9,1.3-4.9,3.9h0v-2.9c-0.1-0.3-0.3-0.5-0.7-0.5H446c-0.4,0-0.7,0.3-0.7,0.6v19.1c0,0.4,0.3,0.7,0.7,0.7h3.5
				c0.4,0,0.7-0.3,0.7-0.7v-10.3c0-1.3,0.1-2.5,0.6-3.6c0.4-0.9,1.2-1.5,2.1-1.5c2.5,0,2.2,3.1,2.2,5.1V199c0,0.3,0.3,0.6,0.7,0.6
				h3.6c0.4,0,0.7-0.3,0.7-0.6v-12c0-1.9,0-4.4-0.9-6C458.1,179.4,456.5,178.8,454.9,178.8z M434.4,178.8c-5.2,0-8.1,4.6-8.1,10.6
				c0,5.9,2.8,10.7,8.1,10.7c5,0,8.2-4.6,8.2-10.5C442.6,183.5,439.7,178.8,434.4,178.8z M373.3,178.8c-2.2,0-3.8,1.1-4.7,3.5h0
				v-2.5c0-0.3-0.3-0.6-0.7-0.7h-3.4c-0.4,0-0.7,0.3-0.7,0.7V199c0,0.3,0.3,0.6,0.7,0.7h3.6c0.4,0,0.7-0.3,0.7-0.7v-10.2
				c0-2.2-0.1-5.2,2.5-5.2c2.5,0,2.2,3.1,2.2,5.2v10.2c0,0.4,0.3,0.7,0.7,0.7h3.6c0.4,0,0.7-0.3,0.7-0.7v-10.2c0-1.1,0-2.7,0.3-3.6
				c0.4-1,1.3-1.6,2.1-1.6c1,0,1.8,0.4,2.1,1.7c0.2,0.8,0.1,2.8,0.1,3.6v10.2c0,0.4,0.3,0.7,0.7,0.7h3.6c0.4,0,0.7-0.3,0.7-0.7
				v-12.1c0-2.1,0.2-4.4-0.9-6c-1-1.4-2.6-2.1-4.2-2.1c-2.1,0-4.1,1.1-4.9,3.5C377,179.9,375.6,178.8,373.3,178.8z M399.8,178.6
				c-3.4,0-7.2,1.3-8,5.7c-0.1,0.5,0.2,0.7,0.5,0.8l3.5,0.4c0.3,0,0.5-0.4,0.6-0.7c0.3-1.5,1.5-2.2,2.9-2.2c0.7,0,1.6,0.3,2,0.9
				c0.5,0.8,0.4,1.8,0.4,2.7v0.5c-2.1,0.2-4.8,0.4-6.7,1.3c-2.2,1-3.8,3.1-3.8,6.1c0,3.9,2.3,5.8,5.4,5.8c2.5,0,4-0.6,5.9-2.7
				c0.6,1,0.9,1.4,2.1,2.5c0.3,0.1,0.6,0.1,0.8-0.1v0c0.7-0.7,2-1.9,2.8-2.5c0.3-0.2,0.2-0.7,0-1c-0.7-0.9-1.4-1.7-1.4-3.4v-5.8
				c0-2.5,0.2-4.7-1.6-6.4C403.8,179,401.5,178.6,399.8,178.6z M352.7,178.6c-3.4,0-7.2,1.3-8,5.7c-0.1,0.5,0.2,0.7,0.5,0.8l3.5,0.4
				c0.3,0,0.5-0.4,0.6-0.7c0.3-1.5,1.5-2.2,2.9-2.2c0.7,0,1.6,0.3,2,0.9c0.5,0.8,0.5,1.8,0.5,2.7v0.5c-2.1,0.2-4.8,0.4-6.8,1.3
				c-2.2,1-3.8,3.1-3.8,6.1c0,3.9,2.3,5.8,5.4,5.8c2.6,0,4-0.6,5.9-2.7c0.7,1,0.9,1.4,2.1,2.5c0.3,0.1,0.6,0.1,0.8-0.1v0
				c0.7-0.7,2-1.9,2.8-2.5c0.3-0.2,0.2-0.7,0-1c-0.7-0.9-1.4-1.7-1.4-3.4v-5.8c0-2.5,0.2-4.7-1.5-6.4
				C356.8,179,354.5,178.6,352.7,178.6z"/>
		</defs>
		<clipPath id="SVGID_2_">
			<use xlink:href="#SVGID_1_"  style="overflow:visible;"/>
		</clipPath>
		<g class="st4">
			<defs>
				<rect id="SVGID_3_" x="-29.5" y="-5262.8" width="1280" height="8115"/>
			</defs>
			<clipPath id="SVGID_4_">
				<use xlink:href="#SVGID_3_"  style="overflow:visible;"/>
			</clipPath>
			<rect x="339.1" y="173.6" class="st5" width="125.9" height="31.4"/>
		</g>
	</g>
	<g>
		<defs>
			<path id="SVGID_5_" d="M377.7,207.8c0.8,0,1.5,0.5,2.1,1.3c0.6,0.9,0.8,2.2,0.8,4.1c0,1.8-0.3,3.2-0.8,4.1
				c-0.6,0.9-1.3,1.4-2,1.4c-0.5,0-1-0.2-1.5-0.6c-0.5-0.4-0.8-0.9-1-1.7c-0.2-0.7-0.4-1.8-0.4-3.3c0-1.7,0.3-3,0.9-3.9
				C376.2,208.2,376.9,207.8,377.7,207.8z M366.1,207.8c0.9,0,1.6,0.4,2.2,1.3c0.4,0.6,0.7,1.5,0.7,2.7h-5.9c0.1-1.2,0.4-2.2,0.9-3
				C364.6,208.1,365.3,207.8,366.1,207.8z M445.3,207.2c0.9,0,1.7,0.4,2.2,1.3c0.4,0.6,0.7,1.5,0.7,2.7h-6c0.1-1.2,0.4-2.2,1-2.9
				C443.8,207.6,444.5,207.2,445.3,207.2z M401.5,207.2c0.9,0,1.7,0.4,2.2,1.3c0.4,0.6,0.7,1.5,0.7,2.7h-6c0.1-1.2,0.4-2.2,1-2.9
				C400,207.6,400.7,207.2,401.5,207.2z M345.6,206.1l3.3,14.1h1.9l2.1-10.9l0.4,2.4l1.7,8.5h1.9l3.3-14.1h-1.7l-1.8,8.2l-0.6,2.7
				l-0.6-2.7l-1.6-8.2H352l-1.7,8.3l-0.6,2.9l-0.7-3l-1.7-8.2H345.6z M366.1,205.8c-1.4,0-2.6,0.7-3.5,1.9c-0.9,1.3-1.4,3.1-1.4,5.6
				c0,2.3,0.5,4.1,1.4,5.4c0.9,1.2,2.2,1.9,3.7,1.9c1.2,0,2.2-0.4,3-1.2c0.8-0.8,1.4-1.9,1.7-3.4l-1.8-0.3c-0.5,1.9-1.5,2.9-2.8,2.9
				c-0.9,0-1.6-0.4-2.2-1.2c-0.6-0.8-1-2-1-3.6h7.9l0-0.7c0-2.4-0.5-4.2-1.4-5.5S367.5,205.8,366.1,205.8z M425.9,205.6v14.1h1.8
				v-14.1H425.9z M414.5,205.6l4.1,14.1h1.7l4.1-14.1h-1.9l-2.4,8.6c-0.3,1-0.5,1.9-0.7,2.7c-0.2-0.9-0.4-1.9-0.7-2.9l-2.3-8.5
				H414.5z M456.1,205.3c-1.3,0-2.3,0.4-3,1.1c-0.7,0.8-1.1,1.7-1.1,2.9c0,0.7,0.1,1.3,0.4,1.8c0.3,0.6,0.6,1,1.1,1.3
				c0.5,0.3,1.4,0.8,2.8,1.2c1,0.3,1.6,0.6,1.9,0.8c0.4,0.3,0.6,0.7,0.6,1.3c0,0.6-0.2,1.2-0.7,1.6c-0.4,0.4-1,0.6-1.8,0.6
				c-0.8,0-1.4-0.2-1.9-0.7c-0.5-0.5-0.8-1.2-0.9-2.2l-1.8,0.4c0.4,3,1.9,4.5,4.5,4.5c1.4,0,2.5-0.4,3.3-1.2c0.8-0.8,1.2-2,1.2-3.3
				c0-0.7-0.1-1.4-0.4-1.9s-0.6-0.9-1.1-1.2c-0.4-0.3-1.4-0.7-2.9-1.2c-1.1-0.4-1.8-0.7-2-0.9c-0.4-0.3-0.6-0.7-0.6-1.2
				c0-0.5,0.2-1,0.6-1.3c0.4-0.3,1-0.5,1.8-0.5c1.4,0,2.2,0.8,2.3,2.3l1.8-0.3c-0.1-1-0.3-1.7-0.7-2.3c-0.3-0.5-0.8-1-1.4-1.3
				C457.6,205.4,456.9,205.3,456.1,205.3z M445.3,205.3c-1.5,0-2.7,0.6-3.6,1.9c-1,1.3-1.4,3.1-1.4,5.6c0,2.3,0.5,4.2,1.4,5.4
				c0.9,1.2,2.2,1.8,3.7,1.8c1.2,0,2.2-0.4,3-1.1c0.8-0.8,1.4-1.9,1.7-3.4l-1.9-0.3c-0.5,1.9-1.5,2.9-2.8,2.9
				c-0.9,0-1.6-0.4-2.2-1.2c-0.6-0.8-1-2-1-3.6h8v-0.7c0-2.4-0.5-4.2-1.4-5.4C447.9,205.9,446.7,205.3,445.3,205.3z M434.9,205.3
				c-1.4,0-2.6,0.6-3.5,1.8c-0.9,1.2-1.4,3.1-1.4,5.5c0,2.4,0.5,4.3,1.4,5.5c0.9,1.2,2,1.8,3.5,1.8c1.2,0,2.2-0.4,3-1.3
				c0.8-0.9,1.3-2.2,1.5-3.9l-1.8-0.3c-0.1,1.2-0.4,2.1-0.9,2.6c-0.5,0.6-1.1,0.9-1.8,0.9c-0.9,0-1.6-0.4-2.2-1.3
				c-0.6-0.9-0.8-2.2-0.8-4.2c0-1.9,0.3-3.2,0.9-4.1c0.6-0.9,1.3-1.3,2.2-1.3c0.6,0,1.1,0.2,1.5,0.7c0.4,0.5,0.7,1.2,0.9,2.2
				l1.8-0.4c-0.2-1.5-0.7-2.6-1.4-3.4C437,205.6,436,205.3,434.9,205.3z M412.6,205.3c-0.4,0-0.8,0.1-1.2,0.5s-0.7,1-1.2,2v-2.2
				h-1.6v14.1h1.8v-7.4c0-1,0.1-2,0.3-2.9c0.1-0.5,0.4-0.9,0.7-1.2c0.3-0.3,0.7-0.4,1.1-0.4c0.4,0,0.9,0.2,1.3,0.5l0.6-2.2
				C413.8,205.5,413.2,205.3,412.6,205.3z M401.6,205.3c-1.5,0-2.7,0.6-3.6,1.9c-1,1.3-1.4,3.1-1.4,5.6c0,2.3,0.5,4.2,1.4,5.4
				c0.9,1.2,2.2,1.8,3.7,1.8c1.2,0,2.2-0.4,3-1.1c0.8-0.8,1.4-1.9,1.7-3.4l-1.9-0.3c-0.5,1.9-1.5,2.9-2.9,2.9
				c-0.9,0-1.6-0.4-2.2-1.2c-0.6-0.8-1-2-1-3.6h8v-0.7c0-2.4-0.5-4.2-1.4-5.4C404.1,205.9,402.9,205.3,401.6,205.3z M390.4,205.3
				c-1.3,0-2.3,0.4-3,1.1c-0.7,0.8-1.1,1.7-1.1,2.9c0,0.7,0.2,1.3,0.4,1.8s0.6,1,1.1,1.3c0.5,0.3,1.4,0.8,2.8,1.2
				c1,0.3,1.6,0.6,1.8,0.8c0.4,0.3,0.6,0.7,0.6,1.3c0,0.6-0.2,1.2-0.7,1.6c-0.4,0.4-1,0.6-1.8,0.6s-1.4-0.2-1.9-0.7
				s-0.7-1.2-0.8-2.2l-1.8,0.4c0.4,3,1.9,4.5,4.5,4.5c1.4,0,2.4-0.4,3.2-1.2c0.8-0.8,1.2-2,1.2-3.3c0-0.7-0.1-1.4-0.4-1.9
				c-0.2-0.5-0.6-0.9-1-1.2c-0.4-0.3-1.4-0.7-2.9-1.2c-1.1-0.4-1.7-0.7-2-0.9c-0.4-0.3-0.6-0.7-0.6-1.2c0-0.5,0.2-1,0.6-1.3
				c0.4-0.3,1-0.5,1.8-0.5c1.4,0,2.2,0.8,2.3,2.3l1.8-0.3c-0.1-1-0.3-1.7-0.7-2.3s-0.8-1-1.4-1.3
				C391.9,205.4,391.2,205.3,390.4,205.3z M373.1,200.7v19.5h1.7v-1.7c0.4,0.7,0.8,1.2,1.3,1.6c0.5,0.3,1.1,0.5,1.7,0.5
				c1.2,0,2.3-0.6,3.2-1.9c0.9-1.3,1.4-3.2,1.4-5.6c0-1.6-0.2-2.9-0.6-4c-0.4-1.1-1-1.9-1.6-2.5c-0.7-0.5-1.5-0.9-2.3-0.9
				c-0.6,0-1.1,0.2-1.6,0.5c-0.5,0.3-0.9,0.8-1.3,1.5v-7H373.1z M425.9,200.3v2.7h1.8v-2.7H425.9z"/>
		</defs>
		<clipPath id="SVGID_6_">
			<use xlink:href="#SVGID_5_"  style="overflow:visible;"/>
		</clipPath>
		<g class="st6">
			<defs>
				<rect id="SVGID_7_" x="-29.5" y="-5262.8" width="1280" height="8115"/>
			</defs>
			<clipPath id="SVGID_8_">
				<use xlink:href="#SVGID_7_"  style="overflow:visible;"/>
			</clipPath>
			<rect x="340.6" y="195.3" class="st7" width="125.1" height="30.3"/>
		</g>
	</g>
	<g>
		<defs>
			<path id="SVGID_9_" d="M329,196.6l-9.2,3.5v13.3l9.2-3.8V196.6z M308.1,196.6l-0.2,13.6l10.2,4.5v-14.1L308.1,196.6z
				 M318.5,192.8l-7,3l6.4,2.8l7.5-2.8L318.5,192.8z"/>
		</defs>
		<clipPath id="SVGID_10_">
			<use xlink:href="#SVGID_9_"  style="overflow:visible;"/>
		</clipPath>
		<g class="st8">
			<defs>
				<rect id="SVGID_11_" x="-29.5" y="-5262.8" width="1280" height="8115"/>
			</defs>
			<clipPath id="SVGID_12_">
				<use xlink:href="#SVGID_11_"  style="overflow:visible;"/>
			</clipPath>
			<rect x="302.8" y="187.8" class="st9" width="31.1" height="31.9"/>
		</g>
	</g>
	<g>
		<defs>
			<path id="SVGID_13_" d="M349.6,159l-8.2,3.5v13.4l8.2-3.8V159z M330.2,158.3v13.6l8.7,2.6l0.3-12.4L330.2,158.3z M339.9,154.2
				l-7,3l6.5,2.8l7.5-2.8L339.9,154.2z"/>
		</defs>
		<clipPath id="SVGID_14_">
			<use xlink:href="#SVGID_13_"  style="overflow:visible;"/>
		</clipPath>
		<g class="st10">
			<defs>
				<rect id="SVGID_15_" x="-29.5" y="-5262.8" width="1280" height="8115"/>
			</defs>
			<clipPath id="SVGID_16_">
				<use xlink:href="#SVGID_15_"  style="overflow:visible;"/>
			</clipPath>
			<rect x="325.2" y="149.2" class="st11" width="29.4" height="31.7"/>
		</g>
	</g>
	<g>
		<defs>
			<path id="SVGID_17_" d="M317.5,177.2l-9.2,3.5V194l9.2-3.8V177.2z M296.6,177.2l-0.2,13.6l10.2,4.5v-14.1L296.6,177.2z
				 M307.1,173.4l-7,3l6.4,2.8l7.5-2.8L307.1,173.4z"/>
		</defs>
		<clipPath id="SVGID_18_">
			<use xlink:href="#SVGID_17_"  style="overflow:visible;"/>
		</clipPath>
		<g class="st12">
			<defs>
				<rect id="SVGID_19_" x="-29.5" y="-5262.8" width="1280" height="8115"/>
			</defs>
			<clipPath id="SVGID_20_">
				<use xlink:href="#SVGID_19_"  style="overflow:visible;"/>
			</clipPath>
			<rect x="291.4" y="168.4" class="st13" width="31.1" height="31.9"/>
		</g>
	</g>
	<g>
		<defs>
			<path id="SVGID_21_" d="M339.9,176.7l-9.2,3.5v13.3l9.2-3.8V176.7z M319,176.7l-0.2,13.6l10.2,4.5v-14.1L319,176.7z M329.5,172.9
				l-7,3l6.4,2.8l7.5-2.8L329.5,172.9z"/>
		</defs>
		<clipPath id="SVGID_22_">
			<use xlink:href="#SVGID_21_"  style="overflow:visible;"/>
		</clipPath>
		<g class="st14">
			<defs>
				<rect id="SVGID_23_" x="-29.5" y="-5262.8" width="1280" height="8115"/>
			</defs>
			<clipPath id="SVGID_24_">
				<use xlink:href="#SVGID_23_"  style="overflow:visible;"/>
			</clipPath>
			<rect x="313.8" y="167.9" class="st15" width="31.1" height="31.9"/>
		</g>
	</g>
	<g>
		<defs>
			<path id="SVGID_25_" d="M372.3,158l-9.2,3.5v13.3l9.2-3.8V158z M351.4,158l-0.2,13.6l10.2,4.5V162L351.4,158z M361.8,154.2l-7,3
				l6.4,2.8l7.5-2.8L361.8,154.2z"/>
		</defs>
		<clipPath id="SVGID_26_">
			<use xlink:href="#SVGID_25_"  style="overflow:visible;"/>
		</clipPath>
		<g class="st16">
			<defs>
				<rect id="SVGID_27_" x="-29.5" y="-5262.8" width="1280" height="8115"/>
			</defs>
			<clipPath id="SVGID_28_">
				<use xlink:href="#SVGID_27_"  style="overflow:visible;"/>
			</clipPath>
			<rect x="346.1" y="149.2" class="st17" width="31.1" height="31.9"/>
		</g>
	</g>
</g>
<g>
	<defs>
		<path id="SVGID_29_" d="M252.8,356.6c9.8-0.6,17.6,5.8,18.2,15.7c0.7,11.3-8.3,22.8-20,25.8c-4.1,1-7.9,0.9-11.1-0.1
			c-0.2-4.4,0.6-9.1,2.5-12.3c3.1-5.3,7.8-4.8,10.5,1c1,2.2,1.6,4.8,1.8,7.5c0.9-0.5,1.8-1.1,2.7-1.7c-2.9-7-4.2-15.4,6.2-30.1
			c-3-2.4-7.7-3.6-13.5-2.8C251,358.6,251.9,357.6,252.8,356.6z M250.4,368.5c-0.8,1.8-0.5,3.2,0.7,3.3c1.3,0,3-1.4,3.8-3.2
			c0.8-1.8,0.5-3.2-0.7-3.3C253,365.3,251.3,366.7,250.4,368.5z M249.6,363.5c-8.8,10.8-12.5,24.8-12,37.3c-5.2-2.1-9-7.1-9.4-13.4
			l0-0.1c-0.6-11.3,8.3-22.8,20.1-25.8c4.6-1.2,8.9-0.8,12.5,0.6c-0.8,2.1-2,4.6-3.2,6.4c-2.6,3.9-6.3,6.3-8.3,5.4
			c-2-0.9-1.5-4.7,1.1-8.5c0.6-0.9,1.3-1.7,2-2.4C251.3,363.1,250.5,363.3,249.6,363.5z M334.9,369.1l-3.1,16.2l7.9-9.1h6.5
			l-8.2,9.2l5,10.8h-6.4l-4.8-10.8l-2,10.8h-5.9l5.2-27.1L334.9,369.1L334.9,369.1z M284.3,378c1.4-1.5,3-2.3,4.8-2.3
			c0.4,0,0.8,0,1.1,0.1l-1.2,5.8c-0.2,0-0.5-0.1-0.9-0.1c-4,0-5.6,3.9-6.2,7.2l-1.4,7.7h-6l3.9-20.3h5.2l-0.3,1.4
			c-0.3,1.3-0.6,2.1-0.9,2.4l0,0.1c-0.1,0.2,0.1,0.4,0.2,0.5c0.2,0.1,0.4,0.1,0.5-0.1l0-0.1C283.3,379.9,283.5,378.9,284.3,378z
			 M345.3,382.7c0-4.1,3.5-6.9,8.8-7c2.4,0,4.3,0.5,5.1,1l0,0l-0.9,4.5l0,0c-1-0.5-2.7-1.1-4.5-1.1c-1.5,0-2.5,0.6-2.5,1.7
			c0,0.8,0.8,1.5,2.4,2.3c2.1,1.1,4.5,2.6,4.5,5.5c0,1.9-0.6,3.4-1.8,4.6c-1.6,1.6-4.2,2.5-7.4,2.5c-2.4,0-4.9-0.7-6.1-1.6l0,0
			l0.9-4.5l0,0c1.3,0.8,3.9,1.7,5.8,1.7c1.5,0,2.5-0.7,2.5-1.8c0-1-0.7-1.7-2.5-2.6C346.7,386.6,345.3,384.8,345.3,382.7z
			 M308,388.5c0-7.2,5.6-12.7,13.1-12.7c1.5,0,3,0.3,4.1,0.7c0,0,0,0,0,0l-0.9,4.8l0,0c-0.9-0.5-2-0.8-3.2-0.8
			c-4.2,0-6.8,3.7-6.8,7.3c0,3,2,4.1,3.9,4.1c1.7,0,3.1-0.4,4.9-1.3l0.1,0l-0.9,5l0,0c-1.4,0.7-3.5,1.1-5.7,1.1
			C311.3,396.7,308,393.5,308,388.5z M299.4,380.3c-0.8,0-1.6,0.4-2.4,1.2c-1.6,1.6-2.8,4.6-2.8,7c0,2.1,0.8,3.4,2.1,3.4
			c2.2,0,4-2.3,4.7-5.6c0.1-0.7,0.3-1.5,0.4-2.2c0.1-0.7,0.2-1.3,0.2-1.7C301.5,381,300.7,380.3,299.4,380.3z M299.2,396.3l0.2-0.9
			c0.2-0.8,0.8-1.9,1.1-2.3l0-0.1c0.1-0.2,0-0.4-0.2-0.5c-0.2-0.1-0.4,0-0.5,0.2l0,0.1c-0.1,0.4-0.3,1.4-1.3,2.3
			c-1.2,1.1-2.8,1.7-4.6,1.7c-4,0-5.7-3.5-5.7-7c0-4,1.6-7.9,4.2-10.6c2.2-2.2,5-3.4,8.2-3.4c2.4,0,4.2,0.7,5.3,2.1
			c1.7,2,1.5,5,1.1,7.2l-2.2,11.2H299.2z M366.3,386.9c-0.3,1.3-0.9,5.2,1.8,5.2c3.1,0,5.4-4.4,5.4-8.4c0-0.9-0.2-3.2-2.4-3.2
			C368.9,380.6,367,383.1,366.3,386.9z M368.5,377.5c1.4-1.2,3-1.8,4.7-1.8c3.9,0,6.5,3,6.5,7.6c0,4.9-2.3,9.9-6.6,12.1
			c-3.3,1.8-6.3,1.4-7.7,0.2c-0.4-0.3-0.4-1-0.5-1.3l0-0.1c-0.1-0.2-0.3-0.3-0.5-0.2c-0.2,0.1-0.3,0.3-0.2,0.4l0,0.1
			c0.3,0.5,0.5,0.9,0.4,1.3l-1.3,6.8h-6l5.1-26.7h5.2l-0.2,1c-0.3,1.4-0.7,2-1,2.3l0,0.1c-0.1,0.2,0,0.4,0.2,0.5
			c0.1,0.1,0.4,0.1,0.5-0.1l0-0.1C367.3,379.3,367.7,378.3,368.5,377.5z M428.7,383c0.3-0.3,0.5-0.7,0.5-1.2c0-1-0.9-1.7-2.1-1.7
			c-2,0-3.4,1.3-4.2,2.7c-0.5,1.1-0.7,1.2-1.2,1.5l-0.1,0c-0.2,0.1-0.1,0.4,0,0.5c0.1,0.1,0.3,0.2,0.5,0.1l0.1-0.1
			c0.4-0.5,0.5-0.7,2.1-0.7C426.5,384.1,428,383.7,428.7,383z M420.9,388L420.9,388c0.6,0.6,1,1.3,1,1.5c0.1,0.4,0.3,0.8,0.5,1.1
			c0.8,1,2.1,1.5,3.8,1.5c2.5,0,4.6-0.6,6.9-1.9l0.1,0l-1,5c-2.9,1.4-6.2,1.6-7.5,1.6c-5.5,0-8.7-3.1-8.7-8.5c0-3.1,1.1-6.2,3.1-8.5
			c2.2-2.5,5.2-3.9,8.6-3.9c4.2,0,7,2.4,7,6c0,1.7-0.5,3-1.6,4.1c-1.8,1.8-5.1,2.6-9.9,2.7c-1.2,0-1.4-0.6-1.7-1l0-0.1
			c-0.1-0.2-0.4-0.1-0.5,0C420.8,387.6,420.8,387.8,420.9,388z M391.4,380.3c-0.8,0-1.6,0.4-2.4,1.2c-1.6,1.6-2.8,4.6-2.8,7
			c0,2.1,0.8,3.4,2.1,3.4c2.2,0,4-2.3,4.7-5.6c0.1-0.7,0.3-1.5,0.4-2.2c0.1-0.7,0.2-1.3,0.2-1.7C393.4,381,392.7,380.3,391.4,380.3z
			 M391.1,396.3l0.2-0.9c0.2-0.8,0.8-1.9,1.1-2.3l0-0.1c0.1-0.2,0-0.4-0.2-0.5c-0.2-0.1-0.4,0-0.5,0.2l0,0.1
			c-0.1,0.4-0.3,1.4-1.3,2.3c-1.2,1.1-2.8,1.7-4.6,1.7c-4,0-5.7-3.5-5.7-7c0-4,1.6-7.9,4.2-10.6c2.2-2.2,5-3.4,8.2-3.4
			c2.4,0,4.2,0.7,5.3,2.1c1.7,2,1.5,5,1.1,7.2l-2.2,11.2H391.1z M400,388.5c0-7.2,5.6-12.7,13.1-12.7c1.5,0,3,0.3,4.1,0.7
			c0,0,0,0,0,0l-0.9,4.8l0,0c-0.9-0.5-2-0.8-3.2-0.8c-4.2,0-6.8,3.7-6.8,7.3c0,3,2,4.1,3.9,4.1c1.7,0,3.1-0.4,4.9-1.3l0.1,0l-0.9,5
			l0,0c-1.4,0.7-3.5,1.1-5.7,1.1C403.3,396.7,400,393.5,400,388.5z"/>
	</defs>
	<clipPath id="SVGID_30_">
		<use xlink:href="#SVGID_29_"  style="overflow:visible;"/>
	</clipPath>
	<g class="st18">
		<defs>
			<rect id="SVGID_31_" x="-219.8" y="-4751.9" width="1268.6" height="8042.6"/>
		</defs>
		<clipPath id="SVGID_32_">
			<use xlink:href="#SVGID_31_"  style="overflow:visible;"/>
		</clipPath>
		<rect x="223.2" y="351.6" class="st19" width="216.5" height="56.1"/>
	</g>
</g>
<path class="st1" d="M755.1,331h-2.5v-27.9h8.5c7,0,9.3,4,9.3,8.4s-2.4,8.4-9.3,8.4h-6L755.1,331L755.1,331z M755.1,317.5h6.3
	c5.2,0,6.3-3.4,6.3-6s-1-6-6.3-6h-6.3V317.5z M779.7,314.3c-2.5,0-4.1,0.4-5.6,0.9V313c1.6-0.7,3.8-1,5.6-1c5.6,0,7,2.5,7,6.3V331
	h-1.5l-0.6-1.5c-1.7,1.2-3.8,1.9-5.6,1.9c-4.9,0-6.5-2.9-6.5-6c0-3.2,1.8-5.5,6.6-5.8l4.9-0.3v-1
	C784.2,315.5,783.2,314.3,779.7,314.3z M779.1,321.6c-2.6,0.3-3.8,1.6-3.8,3.8c0,1.7,0.4,3.7,3.9,3.7c2,0,3.4-0.6,5-1.5v-6.5
	L779.1,321.6z M794.9,325.8c-0.4,0.4-0.7,0.9-0.7,1.4c0,0.9,0.4,1.3,1.4,1.5l6.3,0.7c3.5,0.4,5.1,1.8,5.1,5c0,4.5-4.5,6.3-9.7,6.3
	c-5.2,0-8.3-1.5-8.3-5.6c0-2.5,1.8-4.2,3.8-4.9v0c-0.7-0.5-1.2-1.2-1.2-2.5c0-1,0.6-1.9,1.4-2.5c-2.2-1.2-3-3.5-3-6.1
	c0-3.8,1.6-7,7.3-7c1.2,0,2.1,0.1,3,0.4h6.3v1.4l-3.1,0.9c0.8,1.2,1.1,2.7,1.1,4.3c0,3.8-1.6,7-7.3,7
	C796.5,326,795.7,325.9,794.9,325.8z M796,330.8c-2.5,0.6-4.5,1.7-4.5,4.1c0,2.8,2.1,3.5,5.9,3.5c3.7,0,7.2-0.9,7.2-4.1
	c0-1.9-0.9-2.6-3.2-2.9L796,330.8z M802.2,319c0-2.5-0.5-4.7-4.8-4.7s-4.8,2.3-4.8,4.7s0.5,4.7,4.8,4.7S802.2,321.5,802.2,319z
	 M816.2,312c6.3,0,7.1,4.3,7.1,9.7v1.2H811c0.1,3.2,1,6.2,5.2,6.2c2.7,0,4.3-0.3,6.1-1v2.2c-2.1,0.9-4.3,1.1-6.1,1.1
	c-6.3,0-7.8-4.3-7.8-9.7C808.4,316.3,809.9,312,816.2,312z M811,320.8h9.7c0-3.3-0.2-6.4-4.5-6.4C811.9,314.3,811.1,317.4,811,320.8
	z M833.2,320.3c5.3,0.5,6.6,2.3,6.6,5.3c0,2.9-1.8,5.7-7.5,5.7c-1.8,0-4.4-0.4-5.5-0.9v-2.2c1.2,0.4,2.9,0.9,5.6,0.9
	c3.9,0,4.9-1.6,4.9-3.4c0-1.7-0.5-2.9-4.2-3.2c-5.4-0.5-6.5-2.4-6.5-5c0-2.6,1.7-5.5,7-5.5c1.7,0,3.7,0.2,5.4,0.9v2.2
	c-1.5-0.5-2.9-0.9-5.4-0.9c-3.7,0-4.5,1.4-4.5,3.2C829,319.2,829.7,320,833.2,320.3z M655.6,314.7h-9.1c-0.2,0-0.4,0.2-0.4,0.4v4.5
	c0,0.2,0.2,0.4,0.4,0.4h3.6v5.5c0,0-0.8,0.3-3,0.3c-2.6,0-6.2-1-6.2-9c0-8,3.8-9.1,7.3-9.1c3.1,0,4.4,0.5,5.3,0.8
	c0.3,0.1,0.5-0.2,0.5-0.4l1-4.3c0-0.1,0-0.2-0.2-0.3c-0.3-0.2-2.4-1.4-7.7-1.4c-6.1,0-12.3,2.6-12.3,15c0,12.5,7.2,14.3,13.2,14.3
	c5,0,8-2.1,8-2.1c0.1-0.1,0.1-0.2,0.1-0.3v-13.9C656,314.9,655.9,314.7,655.6,314.7z M703,303.6c0-0.2-0.2-0.4-0.4-0.4h-5.1
	c-0.2,0-0.4,0.2-0.4,0.4c0,0,0,9.9,0,9.9h-8v-9.9c0-0.2-0.2-0.4-0.4-0.4h-5.1c-0.2,0-0.4,0.2-0.4,0.4v26.9c0,0.2,0.2,0.4,0.4,0.4
	h5.1c0.2,0,0.4-0.2,0.4-0.4V319h8c0,0,0,11.5,0,11.5c0,0.2,0.2,0.4,0.4,0.4h5.1c0.2,0,0.4-0.2,0.4-0.4V303.6z M665.5,307.1
	c0-1.8-1.5-3.3-3.3-3.3c-1.8,0-3.3,1.5-3.3,3.3c0,1.8,1.5,3.3,3.3,3.3C664,310.5,665.5,309,665.5,307.1z M665.1,324.8
	c0-0.7,0-12.4,0-12.4c0-0.2-0.2-0.4-0.4-0.4h-5.1c-0.2,0-0.4,0.2-0.4,0.5c0,0,0,14.9,0,17.8c0,0.5,0.3,0.7,0.7,0.7c0,0,2.2,0,4.6,0
	c0.5,0,0.6-0.2,0.6-0.7C665.1,329.3,665.1,325.5,665.1,324.8z M722.9,312h-5.1c-0.2,0-0.4,0.2-0.4,0.4v13.2c0,0-1.3,0.9-3.1,0.9
	s-2.3-0.8-2.3-2.6c0-1.8,0-11.5,0-11.5c0-0.2-0.2-0.4-0.4-0.4h-5.2c-0.2,0-0.4,0.2-0.4,0.4c0,0,0,7,0,12.4c0,5.3,3,6.7,7.1,6.7
	c3.4,0,6.1-1.9,6.1-1.9s0.1,1,0.2,1.1s0.2,0.2,0.4,0.2l3.3,0c0.2,0,0.4-0.2,0.4-0.4l0-18C723.4,312.2,723.2,312,722.9,312z
	 M737.1,311.4c-2.9,0-4.9,1.3-4.9,1.3v-9.1c0-0.2-0.2-0.4-0.4-0.4h-5.1c-0.2,0-0.4,0.2-0.4,0.4v26.9c0,0.2,0.2,0.4,0.4,0.4h3.6
	c0.2,0,0.3-0.1,0.4-0.2c0.1-0.1,0.2-1.2,0.2-1.2s2.1,2,6.1,2c4.7,0,7.4-2.4,7.4-10.7C744.3,312.5,740,311.4,737.1,311.4z
	 M735.1,326.6c-1.8-0.1-3-0.9-3-0.9v-8.5c0,0,1.2-0.7,2.6-0.9c1.8-0.2,3.6,0.4,3.6,4.8C738.4,325.7,737.6,326.6,735.1,326.6z
	 M679.8,312h-3.9c0,0,0-5.1,0-5.1c0-0.2-0.1-0.3-0.3-0.3h-5.2c-0.2,0-0.3,0.1-0.3,0.3v5.3c0,0-2.6,0.6-2.8,0.7
	c-0.2,0.1-0.3,0.2-0.3,0.4v3.3c0,0.2,0.2,0.4,0.4,0.4h2.7c0,0,0,3.5,0,8c0,5.9,4.1,6.5,6.9,6.5c1.3,0,2.8-0.4,3.1-0.5
	c0.2-0.1,0.2-0.2,0.2-0.4l0-3.6c0-0.2-0.2-0.4-0.4-0.4c-0.2,0-0.8,0.1-1.4,0.1c-1.9,0-2.5-0.9-2.5-2c0-1.1,0-7.6,0-7.6h3.9
	c0.2,0,0.4-0.2,0.4-0.4v-4.1C680.2,312.2,680,312,679.8,312z"/>
<rect x="845.7" y="398.7" transform="matrix(0.7027 -0.7115 0.7115 0.7027 -12.9716 767.2932)" class="st1" width="131.9" height="1"/>
</svg>
