<?xml version="1.0" encoding="utf-8"?>
<!-- Generator: Adobe Illustrator 19.2.1, SVG Export Plug-In . SVG Version: 6.00 Build 0)  -->
<svg version="1.1" id="Layer_1" xmlns="http://www.w3.org/2000/svg" xmlns:xlink="http://www.w3.org/1999/xlink" x="0px" y="0px"
	 viewBox="0 0 305.5 206.8" style="enable-background:new 0 0 305.5 206.8;" xml:space="preserve">
<style type="text/css">
	.st0{fill:#5A6575;}
	.st1{fill:#FFFFFF;}
	.st2{fill:#8BCD3F;}
</style>
<polygon class="st0" points="235.8,148.2 202,90.6 180.6,74.2 140.5,111.5 123,113.9 84.9,157 0,206.8 305.5,206.8 "/>
<g>
	<path class="st1" d="M202,90.6l-19.8-15.2l3.6-68.9c0.9-0.6,1.6-1.6,1.6-2.8c0.1-1.9-1.4-3.6-3.3-3.7c-1.9-0.1-3.6,1.4-3.7,3.3
		c-0.1,1.2,0.5,2.3,1.3,2.9l-3.7,70.2l-37.6,35l-17.5,2.4L95.6,145l38.9-14.6l29.7,10.1l28.6-24.3l30.4,10.7L202,90.6z"/>
	<polygon class="st2" points="185.8,6.5 184,40.8 242.9,26.7 	"/>
</g>
</svg>
