<svg xmlns="http://www.w3.org/2000/svg" xmlns:xlink="http://www.w3.org/1999/xlink" viewBox="0 0 1080 675" enable-background="new 0 0 1080 675"><style type="text/css">.st0{fill:#FFFFFF;} .st1{fill:none;stroke:#FFFFFF;stroke-width:0.4;stroke-miterlimit:10;} .st2{fill:#8992A1;} .st3{clip-path:url(#SVGID_2_);} .st4{clip-path:url(#SVGID_4_);fill:#8992A1;} .st5{clip-path:url(#SVGID_6_);} .st6{clip-path:url(#SVGID_8_);fill:#8992A1;} .st7{clip-path:url(#SVGID_10_);} .st8{clip-path:url(#SVGID_12_);fill:#8992A1;} .st9{clip-path:url(#SVGID_14_);} .st10{clip-path:url(#SVGID_16_);fill:#8992A1;} .st11{clip-path:url(#SVGID_18_);} .st12{clip-path:url(#SVGID_20_);fill:#8992A1;} .st13{clip-path:url(#SVGID_22_);} .st14{clip-path:url(#SVGID_24_);fill:#8992A1;} .st15{clip-path:url(#SVGID_26_);} .st16{clip-path:url(#SVGID_28_);fill:#8992A1;} .st17{clip-path:url(#SVGID_30_);} .st18{clip-path:url(#SVGID_32_);fill:#8992A1;}</style><circle class="st0" cx="611.5" cy="141" r="2.3"/><circle class="st0" cx="602.3" cy="542.6" r="2.3"/><circle class="st0" cx="787.1" cy="460.4" r="2.3"/><circle class="st0" cx="112.1" cy="399.4" r="2.3"/><circle class="st0" cx="992.4" cy="147.4" r="2.3"/><circle class="st0" cx="927.5" cy="105.5" r="2.3"/><circle class="st0" cx="196.7" cy="195.3" r="2.3"/><path class="st0" d="M738.7 405.9c1.1-.8.9-1.5-.5-1.5h-2.6l-.8-2.5c-.4-1.4-1.2-1.4-1.6 0l-.8 2.5h-2.6c-1.4 0-1.6.7-.5 1.5l2.1 1.5-.8 2.5c-.4 1.4.1 1.8 1.3.9l2.1-1.5 2.1 1.5c1.1.8 1.7.4 1.3-.9l-.8-2.5 2.1-1.5zM603.3 188.8c1.1-.8.9-1.5-.5-1.5h-2.6l-.8-2.5c-.4-1.4-1.2-1.4-1.6 0l-.8 2.5h-2.6c-1.4 0-1.6.7-.5 1.5l2.1 1.5-.8 2.5c-.4 1.4.1 1.8 1.3.9l2.1-1.5 2.1 1.5c1.1.8 1.7.4 1.3-.9l-.8-2.5 2.1-1.5zM825.4 549.6c1.1-.8.9-1.5-.5-1.5h-2.6l-.8-2.5c-.4-1.4-1.2-1.4-1.6 0l-.8 2.5h-2.6c-1.4 0-1.6.7-.5 1.5l2.1 1.5-.8 2.5c-.4 1.4.1 1.8 1.3.9l2.1-1.5 2.1 1.5c1.1.8 1.7.4 1.3-.9l-.8-2.5 2.1-1.5zM859.9 238.1c1.1-.8.9-1.5-.5-1.5h-2.6l-.8-2.5c-.4-1.4-1.2-1.4-1.6 0l-.8 2.5h-2.6c-1.4 0-1.6.7-.5 1.5l2.1 1.5-.8 2.5c-.4 1.4.1 1.8 1.3.9l2.1-1.5 2.1 1.5c1.1.8 1.7.4 1.3-.9l-.8-2.5 2.1-1.5zM765.2 369.1c1.1-.8.9-1.5-.5-1.5h-2.6l-.8-2.5c-.4-1.4-1.2-1.4-1.6 0l-.8 2.5h-2.6c-1.4 0-1.6.7-.5 1.5l2.1 1.5-.8 2.5c-.4 1.4.1 1.8 1.3.9l2.1-1.5 2.1 1.5c1.1.8 1.7.4 1.3-.9l-.8-2.5 2.1-1.5zM1011.8 242.3c1.1-.8.9-1.5-.5-1.5h-2.6l-.8-2.5c-.4-1.4-1.2-1.4-1.6 0l-.8 2.5h-2.6c-1.4 0-1.6.7-.5 1.5l2.1 1.5-.8 2.5c-.4 1.4.1 1.8 1.3.9l2.1-1.5 2.1 1.5c1.1.8 1.7.4 1.3-.9l-.8-2.5 2.1-1.5zM1007.4 397.5c1.1-.8.9-1.5-.5-1.5h-2.6l-.8-2.5c-.4-1.4-1.2-1.4-1.6 0l-.8 2.5h-2.6c-1.4 0-1.6.7-.5 1.5l2.1 1.5-.8 2.5c-.4 1.4.1 1.8 1.3.9l2.1-1.5 2.1 1.5c1.1.8 1.7.4 1.3-.9l-.8-2.5 2.1-1.5zM190.6 608.5c1.1-.8.9-1.5-.5-1.5h-2.6l-.8-2.5c-.4-1.4-1.2-1.4-1.6 0l-.8 2.5h-2.6c-1.4 0-1.6.7-.5 1.5l2.1 1.5-.8 2.5c-.4 1.4.1 1.8 1.3.9l2.1-1.5 2.1 1.5c1.1.8 1.7.4 1.3-.9l-.8-2.5 2.1-1.5zM264.4 376.2c1.1-.8.9-1.5-.5-1.5h-2.6l-.8-2.5c-.4-1.4-1.2-1.4-1.6 0l-.8 2.5h-2.6c-1.4 0-1.6.7-.5 1.5l2.1 1.5-.8 2.5c-.4 1.4.1 1.8 1.3.9l2.1-1.5 2.1 1.5c1.1.8 1.7.4 1.3-.9l-.8-2.5 2.1-1.5zM313.2 575.6c1.1-.8.9-1.5-.5-1.5h-2.6l-.8-2.5c-.4-1.4-1.2-1.4-1.6 0l-.8 2.5h-2.6c-1.4 0-1.6.7-.5 1.5l2.1 1.5-.8 2.5c-.4 1.4.1 1.8 1.3.9l2.1-1.5 2.1 1.5c1.1.8 1.7.4 1.3-.9l-.8-2.5 2.1-1.5zM150.7 306.5c1.1-.8.9-1.5-.5-1.5h-2.6l-.8-2.5c-.4-1.4-1.2-1.4-1.6 0l-.8 2.5h-2.6c-1.4 0-1.6.7-.5 1.5l2.1 1.5-.8 2.5c-.4 1.4.1 1.8 1.3.9l2.1-1.5 2.1 1.5c1.1.8 1.7.4 1.3-.9l-.8-2.5 2.1-1.5zM242.6 96.6c1.1-.8.9-1.5-.5-1.5h-2.6l-.8-2.5c-.4-1.4-1.2-1.4-1.6 0l-.8 2.5h-2.6c-1.4 0-1.6.7-.5 1.5l2.1 1.5-.8 2.5c-.4 1.4.1 1.8 1.3.9l2.1-1.5 2.1 1.5c1.1.8 1.7.4 1.3-.9l-.8-2.5 2.1-1.5zM924.3 548.8h-4.3l-1.3-4.1c-.7-2.3-1.9-2.3-2.7 0l-1.3 4.1h-4.3c-2.4 0-2.7 1.1-.8 2.5l3.5 2.5-1.3 4.1c-.7 2.3.2 3 2.2 1.6l3.5-2.5 3.5 2.5c1.9 1.4 2.9.7 2.2-1.6l-1.3-4.1 3.5-2.5c1.7-1.4 1.3-2.5-1.1-2.5zm-6.9 5.4c-1.2 0-2.3-1-2.3-2.3 0-1.2 1-2.3 2.3-2.3 1.2 0 2.3 1 2.3 2.3-.1 1.3-1.1 2.3-2.3 2.3zM958.9 248.6h-4.3l-1.3-4.1c-.7-2.3-1.9-2.3-2.7 0l-1.3 4.1h-4.3c-2.4 0-2.7 1.1-.8 2.5l3.5 2.5-1.3 4.1c-.7 2.3.2 3 2.2 1.6l3.5-2.5 3.5 2.5c1.9 1.4 2.9.7 2.2-1.6l-1.3-4.1 3.5-2.5c1.6-1.4 1.2-2.5-1.1-2.5zm-7 5.4c-1.2 0-2.3-1-2.3-2.3 0-1.2 1-2.3 2.3-2.3 1.2 0 2.3 1 2.3 2.3 0 1.3-1.1 2.3-2.3 2.3zM878.8 430.1h-4.3l-1.3-4.1c-.7-2.3-1.9-2.3-2.7 0l-1.3 4.1h-4.3c-2.4 0-2.7 1.1-.8 2.5l3.5 2.5-1.3 4.1c-.7 2.3.2 3 2.2 1.6l3.5-2.5 3.5 2.5c1.9 1.4 2.9.7 2.2-1.6l-1.3-4.1 3.5-2.5c1.6-1.4 1.3-2.5-1.1-2.5zm-7 5.4c-1.2 0-2.3-1-2.3-2.3 0-1.2 1-2.3 2.3-2.3 1.2 0 2.3 1 2.3 2.3 0 1.3-1 2.3-2.3 2.3zM302.2 405.1h-4.3l-1.3-4.1c-.7-2.3-1.9-2.3-2.7 0l-1.3 4.1h-4.3c-2.4 0-2.7 1.1-.8 2.5l3.5 2.5-1.3 4.1c-.7 2.3.2 3 2.2 1.6l3.5-2.5 3.5 2.5c1.9 1.4 2.9.7 2.2-1.6l-1.3-4.1 3.5-2.5c1.6-1.3 1.3-2.5-1.1-2.5zm-7 5.5c-1.2 0-2.3-1-2.3-2.3 0-1.2 1-2.3 2.3-2.3 1.2 0 2.3 1 2.3 2.3 0 1.3-1 2.3-2.3 2.3zM363.4 79h-4.3l-1.3-4.1c-.7-2.3-1.9-2.3-2.7 0l-1.3 4.1h-4.3c-2.4 0-2.7 1.1-.8 2.5l3.5 2.5-1.3 4.1c-.7 2.3.2 3 2.2 1.6l3.5-2.5 3.5 2.5c1.9 1.4 2.9.7 2.2-1.6l-1.3-4.1 3.5-2.5c1.7-1.4 1.3-2.5-1.1-2.5zm-7 5.4c-1.2 0-2.3-1-2.3-2.3 0-1.2 1-2.3 2.3-2.3 1.2 0 2.3 1 2.3 2.3 0 1.3-1 2.3-2.3 2.3zM901.6 100.1l-2.1-2.3 2.1-2.3c1.2-1.3.8-2-.9-1.6l-3 .7-.9-3c-.5-1.6-1.3-1.6-1.8 0l-.9 3-3-.7c-1.7-.4-2.1.3-.9 1.6l2.1 2.3-2.1 2.3c-1.2 1.3-.8 2 .9 1.6l3-.7.9 3c.5 1.6 1.3 1.6 1.8 0l.9-3 3 .7c1.7.4 2.1-.3.9-1.6zM565.5 426.5l-2.1-2.3 2.1-2.3c1.2-1.3.8-2-.9-1.6l-3 .7-.9-3c-.5-1.6-1.3-1.6-1.8 0l-.9 3-3-.7c-1.7-.4-2.1.3-.9 1.6l2.1 2.3-2.1 2.3c-1.2 1.3-.8 2 .9 1.6l3-.7.9 3c.5 1.6 1.3 1.6 1.8 0l.9-3 3 .7c1.6.3 2-.4.9-1.6zM267.2 472.4l-2.1-2.3 2.1-2.3c1.2-1.3.8-2-.9-1.6l-3 .7-.9-3c-.5-1.6-1.3-1.6-1.8 0l-.9 3-3-.7c-1.7-.4-2.1.3-.9 1.6l2.1 2.3-2.1 2.3c-1.2 1.3-.8 2 .9 1.6l3-.7.9 3c.5 1.6 1.3 1.6 1.8 0l.9-3 3 .7c1.6.3 2.1-.4.9-1.6zM884.8 564.3l-2.1-2.3 2.1-2.3c1.2-1.3.8-2-.9-1.6l-3 .7-.9-3c-.5-1.6-1.3-1.6-1.8 0l-.9 3-3-.7c-1.7-.4-2.1.3-.9 1.6l2.1 2.3-2.1 2.3c-1.2 1.3-.8 2 .9 1.6l3-.7.9 3c.5 1.6 1.3 1.6 1.8 0l.9-3 3 .7c1.7.4 2.1-.3.9-1.6zM787.7 526.6l-2.1-2.3 2.1-2.3c1.2-1.3.8-2-.9-1.6l-3 .7-.9-3c-.5-1.6-1.3-1.6-1.8 0l-.9 3-3-.7c-1.7-.4-2.1.3-.9 1.6l2.1 2.3-2.1 2.3c-1.2 1.3-.8 2 .9 1.6l3-.7.9 3c.5 1.6 1.3 1.6 1.8 0l.9-3 3 .7c1.7.4 2.1-.3.9-1.6zM809.4 210.1l-2.1-2.3 2.1-2.3c1.2-1.3.8-2-.9-1.6l-3 .7-.9-3c-.5-1.6-1.3-1.6-1.8 0l-.9 3-3-.7c-1.7-.4-2.1.3-.9 1.6l2.1 2.3-2.1 2.3c-1.2 1.3-.8 2 .9 1.6l3-.7.9 3c.5 1.6 1.3 1.6 1.8 0l.9-3 3 .7c1.6.4 2-.3.9-1.6zM367.8 371.3l-2.1-2.3 2.1-2.3c1.2-1.3.8-2-.9-1.6l-3 .7-.9-3c-.5-1.6-1.3-1.6-1.8 0l-.9 3-3-.7c-1.7-.4-2.1.3-.9 1.6l2.1 2.3-2.1 2.3c-1.2 1.3-.8 2 .9 1.6l3-.7.9 3c.5 1.6 1.3 1.6 1.8 0l.9-3 3 .7c1.7.4 2.1-.3.9-1.6zM79.7 213.7l-2.1-2.3 2.1-2.3c1.2-1.3.8-2-.9-1.6l-3 .7-.9-3c-.5-1.6-1.3-1.6-1.8 0l-.9 3-3-.7c-1.7-.4-2.1.3-.9 1.6l2.1 2.3-2.1 2.3c-1.2 1.3-.8 2 .9 1.6l3-.7.9 3c.5 1.6 1.3 1.6 1.8 0l.9-3 3 .7c1.7.4 2.1-.3.9-1.6zM699.1 77.3l-5.5-1.4 2.6-4.4.3-.5c1.3-2.1.6-2.8-1.5-1.5l-1 .6-3.9 2.3-1.1-4.4-.1-.6-.1-.6c-.6-2.4-1.6-2.4-2.2 0l-.3 1.1-1.1 4.4-3.9-2.3-1-.6c-2.1-1.3-2.8-.6-1.5 1.5l.3.5 2.6 4.4-5.5 1.4c-2.4.6-2.4 1.6 0 2.2l5.5 1.4-2.6 4.4-.3.5c-1.3 2.1-.6 2.8 1.5 1.5l.5-.3.5-.3 3.9-2.3 1.1 4.4.3 1.1c.6 2.4 1.6 2.4 2.2 0l.1-.6.1-.6 1.1-4.4 3.9 2.3.5.3.5.3c2.1 1.3 2.8.6 1.5-1.5l-.3-.5-2.6-4.4 5.5-1.4c2.5-.4 2.5-1.4 0-2zm-11.4 4.5c-1.9 0-3.4-1.5-3.4-3.4s1.5-3.4 3.4-3.4 3.4 1.5 3.4 3.4-1.5 3.4-3.4 3.4z"/><path class="st1" d="M279.8 151.3"/><path class="st2" d="M266.4 461.9l-2.5-1.1c4.8-10.6 12-23.3 17.2-32.6 2-3.6 3.8-6.7 5.1-9.1l2.4 1.3c-1.3 2.4-3.1 5.6-5.1 9.2-5.2 9.2-12.3 21.9-17.1 32.3zM272.8 465.7l-1.8-2c25.4-22.2 65.9-64.3 83.3-86.7l2.1 1.7c-17.5 22.4-58.1 64.7-83.6 87zM302.9 568.1c-8.3-30.3-26.3-65.7-36-84.8l-2.2-4.3 2.4-1.2 2.2 4.3c9.7 19.1 27.9 54.7 36.2 85.3l-2.6.7zM190.6 600l-2.6-.8c10.7-34.6 46.4-92.7 65.9-121.6l2.2 1.5c-19.4 28.8-54.9 86.6-65.5 120.9zM257.1 459.3c-1.7-22.6-2.7-55.6 0-74.4l2.7.4c-2.7 18.6-1.7 51.4 0 73.8l-2.7.2zM847.8 233.4c-9.3-8-19.5-14.7-34.2-22.4l1.3-2.4c14.9 7.8 25.2 14.6 34.7 22.7l-1.8 2.1zM938.9 251.7c-21.1-5.9-53.2-11-74.5-11.9l.1-2.7c21.5.9 53.8 6.1 75.1 12l-.7 2.6zM965 250.4l-.9-2.6c9.4-3.1 21.7-5.5 33.9-6.6l.2 2.7c-11.9 1.1-24 3.5-33.2 6.5zM1005.3 387.6l-2.7-.2c2.6-36.1 3.8-86.4 3.1-134.6h2.7c.7 48.2-.5 98.6-3.1 134.8zM884 435.8l-.4-2.7c47.9-6.7 84-16.1 110.4-28.7l1.2 2.4c-26.7 12.8-63 22.2-111.2 29zM763 358.9l-2.6-.6c9.4-44.7 24.8-101.6 36.1-141.4l2.6.7c-11.3 39.8-26.7 96.6-36.1 141.3zM856.8 432.3c-39.1-13.6-66.6-29.3-91.8-52.4l1.8-2c25.3 23.2 51.6 38.2 90.9 51.9l-.9 2.5zM912.3 540.4c-7.9-23.1-18.5-50.4-27.9-74.5-2.6-6.7-5.1-13.1-7.5-19.3l2.5-1c2.4 6.2 4.9 12.6 7.5 19.3 9.4 24.1 20 51.5 27.9 74.6l-2.5.9zM874.6 549.9l-.3-5.8c-1.7-28.7-3.5-61.3-3.8-96.7h2.7c.2 35.4 2.1 67.9 3.8 96.6l.3 5.8-2.7.1zM827.6 544.2l-2.5-1.1c13.1-29.5 26.6-63.9 38.2-96.8l2.6.9c-11.6 33-25.2 67.4-38.3 97zM793.3 519.1l-2-1.8 10.6-11.4c19-20.4 38.7-41.5 57.6-64l2.1 1.7c-18.9 22.5-38.6 43.6-57.7 64.1l-10.6 11.4zM792.6 461.3l-.7-2.6c21.9-5.7 44.1-13.4 62.8-20.2l.9 2.5c-18.8 6.9-41 14.7-63 20.3zM739.601 413.462l1.98-1.835 41.332 44.591-1.98 1.835zM138.7 300.9c-18.4-23.3-33.2-43.1-49-64.2l-12.3-16.3 2.2-1.6 12.3 16.4c15.8 21 30.6 40.9 49 64.1l-2.2 1.6zM151.7 299.8l-2.4-1.2c15.3-31.3 31.1-66.5 43.5-96.6l2.5 1c-12.5 30.2-28.4 65.4-43.6 96.8zM85.6 210.3l-.5-2.7c35.4-6.6 87.7-12.1 102.9-13.6l.3 2.7c-15.2 1.5-67.4 7-102.7 13.6zM201.1 187.6l-2.5-.9c10.8-29 21.5-55.1 32.8-79.6l2.5 1.1c-11.3 24.5-22 50.5-32.8 79.4zM248.2 96.5l-.5-2.7c33.2-5.9 69.8-11 95.6-13.4l.3 2.7c-25.8 2.4-62.3 7.5-95.4 13.4zM641.6 326.6h-2.7v-29.6h9.1c7.4 0 9.9 4.3 9.9 8.9s-2.5 8.9-9.9 8.9h-6.4v11.8zm0-14.3h6.7c5.6 0 6.6-3.6 6.6-6.4s-1.1-6.4-6.6-6.4h-6.7v12.8zm26.1-3.4c-2.7 0-4.4.5-5.9 1v-2.4c1.7-.8 4-1.1 5.9-1.1 5.9 0 7.5 2.7 7.5 6.6v13.5h-1.5l-.6-1.6c-1.8 1.3-4 2-6 2-5.2 0-6.9-3-6.9-6.4 0-3.4 1.9-5.9 7-6.2l5.2-.3v-1.1c.1-2.7-1-4-4.7-4zm-.7 7.7c-2.8.3-4 1.7-4 4 0 1.8.4 3.9 4.2 3.9 2.1 0 3.6-.6 5.3-1.6v-6.9l-5.5.6zm16.9 4.5c-.4.4-.8 1-.8 1.5 0 1 .5 1.4 1.5 1.5l6.7.8c3.7.4 5.4 1.9 5.4 5.3 0 4.8-4.8 6.7-10.3 6.7-5.5 0-8.9-1.6-8.9-6 0-2.7 1.9-4.5 4.1-5.2-.8-.5-1.3-1.3-1.3-2.6 0-1.1.7-2 1.5-2.7-2.4-1.3-3.2-3.7-3.2-6.5 0-4.1 1.7-7.4 7.7-7.4 1.2 0 2.3.2 3.2.4h6.7v1.5l-3.3 1c.8 1.3 1.1 2.8 1.1 4.6 0 4.1-1.7 7.4-7.7 7.4-.7-.1-1.6-.1-2.4-.3zm1.2 5.3c-2.6.6-4.8 1.8-4.8 4.4 0 2.9 2.2 3.8 6.3 3.8 4 0 7.7-1 7.7-4.4 0-2-1-2.8-3.4-3.1l-5.8-.7zm6.6-12.5c0-2.6-.5-5-5.1-5s-5.1 2.4-5.1 5 .5 5 5.1 5 5.1-2.4 5.1-5zm14.9-7.4c6.7 0 7.5 4.6 7.5 10.3v1.3h-13.1c.2 3.4 1.1 6.6 5.5 6.6 2.8 0 4.6-.3 6.5-1.1v2.4c-2.2 1-4.6 1.2-6.5 1.2-6.7 0-8.3-4.6-8.3-10.3s1.7-10.4 8.4-10.4zm-5.6 9.3h10.3c0-3.5-.2-6.8-4.7-6.8-4.6-.1-5.5 3.2-5.6 6.8zm23.6-.5c5.6.5 7 2.4 7 5.7 0 3-1.9 6.1-8 6.1-1.9 0-4.6-.5-5.9-1v-2.4c1.2.4 3.1.9 5.9.9 4.1 0 5.2-1.7 5.2-3.6 0-1.8-.6-3.1-4.5-3.4-5.7-.5-6.9-2.5-6.9-5.3s1.8-5.9 7.4-5.9c1.9 0 4 .2 5.7 1v2.4c-1.5-.5-3.1-.9-5.7-.9-3.9 0-4.7 1.5-4.7 3.4 0 1.7.7 2.7 4.5 3zm-188.7-6h-9.7c-.3 0-.5.2-.5.5v4.7c0 .2.2.5.5.5h3.8v5.9s-.8.3-3.2.3c-2.8 0-6.6-1-6.6-9.5s4-9.6 7.8-9.6c3.3 0 4.7.6 5.6.9.3.1.5-.2.5-.4l1.1-4.6c0-.1 0-.3-.2-.4-.4-.3-2.6-1.5-8.2-1.5-6.5 0-13.1 2.8-13.1 16s7.6 15.2 14 15.2c5.3 0 8.5-2.3 8.5-2.3.1-.1.1-.3.1-.3v-14.8c0-.4-.2-.6-.4-.6zm50.3-11.8c0-.3-.2-.5-.5-.5h-5.5c-.2 0-.5.2-.5.5v10.5h-8.5v-10.5c0-.3-.2-.5-.5-.5h-5.5c-.2 0-.5.2-.5.5v28.6c0 .3.2.5.5.5h5.5c.2 0 .5-.2.5-.5v-12.2h8.5v12.2c0 .3.2.5.5.5h5.5c.2 0 .4-.2.5-.5v-28.6zm-39.8 3.8c0-2-1.6-3.6-3.5-3.6s-3.5 1.6-3.5 3.6 1.6 3.6 3.5 3.6c1.9-.1 3.5-1.7 3.5-3.6zm-.4 18.8v-13.2c0-.3-.2-.5-.5-.5h-5.4c-.2 0-.5.3-.5.5v18.9c0 .6.3.7.8.7h4.9c.5 0 .7-.3.7-.7v-5.7zm61.4-13.6h-5.4c-.2 0-.5.2-.5.5v14s-1.4 1-3.3 1-2.5-.9-2.5-2.8v-12.2c0-.3-.2-.5-.5-.5h-5.5c-.2 0-.5.2-.5.5v13.1c0 5.7 3.2 7.1 7.5 7.1 3.6 0 6.5-2 6.5-2s.1 1 .2 1.2c.1.1.2.2.4.2h3.5c.2 0 .5-.2.5-.5v-19.2c0-.2-.2-.4-.4-.4zm15.1-.7c-3.1 0-5.2 1.4-5.2 1.4v-9.7c0-.3-.2-.5-.4-.5h-5.5c-.2 0-.5.2-.5.5v28.6c0 .3.2.5.5.5h3.8c.2 0 .3-.1.4-.2.1-.2.2-1.3.2-1.3s2.2 2.1 6.5 2.1c5 0 7.8-2.5 7.8-11.3 0-8.9-4.5-10.1-7.6-10.1zm-2.1 16.1c-1.9-.1-3.2-.9-3.2-.9v-9s1.3-.8 2.8-.9c2-.2 3.8.4 3.8 5.1 0 4.8-.8 5.8-3.4 5.7zm-58.8-15.5h-4.1v-5.4c0-.2-.1-.3-.3-.3h-5.6c-.2 0-.3.1-.3.3v5.6s-2.8.7-3 .7c-.2.1-.3.2-.3.4v3.5c0 .3.2.5.5.5h2.9v8.4c0 6.3 4.4 6.9 7.4 6.9 1.4 0 3-.4 3.2-.5.2-.1.3-.2.3-.4v-3.9c0-.3-.2-.5-.5-.5-.2 0-.8.1-1.5.1-2 0-2.7-.9-2.7-2.1v-8h4.1c.2 0 .5-.2.5-.5v-4.4c-.2-.2-.4-.4-.6-.4z"/><defs><path id="SVGID_1_" d="M360.5 213.5v.9c0 1.6.1 2.9-.7 4.4-.6 1.2-1.6 1.9-2.7 1.9-1.5 0-2.4-1.2-2.4-3 0-3.6 3-4.2 5.8-4.2zm-51.8 0v.9c0 1.6.1 2.9-.7 4.4-.6 1.2-1.6 1.9-2.7 1.9-1.5 0-2.4-1.2-2.4-3-.1-3.6 2.9-4.2 5.8-4.2zm87.9-7.7c1.3 0 2.2.6 2.6 2 .5 1.7.6 3.8.6 5.6 0 2.7-.1 7.2-3.2 7.2s-3.1-5.5-3.1-8.1c0-2.6.2-6.7 3.1-6.7zm-25-4c-.4 0-.7.3-.7.8v3c0 .5.3.8.7.8h6.8l-7.8 11.6c-.5.7-.5 1.6-.5 2.1v3.1c0 .4.5.9.9.7 4.4-2.4 9.7-2.2 13.7-.1.5.3 1-.2 1-.7v-3.2c0-.4-.2-.8-.7-1.1-2.3-1.3-4.9-1.7-7.4-1.7l6.7-10c.6-.9 1-1.4 1-1.9v-2.6c0-.4-.3-.8-.7-.8h-13zm47.6-.4c-2.7 0-4.3 1.4-5.4 4.3h-.1v-3.2c-.1-.3-.4-.6-.7-.6h-3.7c-.4 0-.7.3-.8.7v21.1c0 .4.3.8.7.8h3.9c.4 0 .8-.4.8-.8v-11.3c0-1.4.1-2.7.7-4 .4-1 1.3-1.7 2.3-1.7 2.7 0 2.5 3.4 2.5 5.7v11.5c0 .4.4.7.7.7h4c.4 0 .7-.3.8-.7v-13.3c0-2 0-4.9-1-6.6-1.2-1.9-3-2.6-4.7-2.6zm-22.6 0c-5.7 0-8.9 5.1-8.9 11.7 0 6.5 3.1 11.8 8.9 11.8 5.5 0 9.1-5.1 9.1-11.6-.1-6.6-3.2-11.9-9.1-11.9zm-67.3 0c-2.4 0-4.2 1.2-5.2 3.9h-.1v-2.8c0-.4-.3-.7-.7-.7h-3.7c-.4 0-.8.4-.8.8v21.1c0 .4.3.7.7.7h4c.4 0 .8-.4.8-.8v-11.2c0-2.4-.1-5.8 2.7-5.8 2.8 0 2.4 3.4 2.4 5.8v11.2c0 .4.3.8.7.8h4c.4 0 .8-.4.8-.8v-11.2c0-1.2 0-2.9.4-4s1.4-1.8 2.4-1.8c1.1 0 2 .4 2.3 1.8.2.8.1 3.1.1 4v11.2c0 .4.3.8.7.8h4c.4 0 .8-.4.8-.8v-13.3c0-2.3.2-4.8-1-6.6-1.1-1.6-2.9-2.3-4.6-2.3-2.3 0-4.5 1.2-5.5 3.9-1.2-2.6-2.8-3.9-5.2-3.9zm29.1-.2c-3.8 0-8 1.5-8.8 6.3-.1.5.2.8.6.8l3.9.5c.4 0 .6-.4.7-.8.3-1.7 1.7-2.4 3.2-2.4.8 0 1.7.3 2.2 1 .6.8.5 2 .5 3v.6c-2.3.3-5.3.4-7.4 1.4-2.5 1.1-4.2 3.4-4.2 6.7 0 4.3 2.6 6.4 5.9 6.4 2.8 0 4.4-.7 6.5-3 .7 1.1.9 1.6 2.3 2.7.3.2.7.1.9-.1v.1l3-2.8c.3-.3.2-.7 0-1.1-.7-1-1.5-1.9-1.5-3.8v-6.4c0-2.7.2-5.2-1.7-7.1-1.7-1.4-4.2-2-6.1-2zm-51.8 0c-3.8 0-8 1.5-8.8 6.3-.1.5.2.8.6.8l3.9.5c.4 0 .6-.4.7-.8.3-1.7 1.7-2.4 3.2-2.4.8 0 1.7.3 2.2 1 .6.8.5 2 .5 3v.6c-2.3.3-5.3.4-7.5 1.4-2.5 1.1-4.2 3.4-4.2 6.7 0 4.3 2.6 6.4 5.9 6.4 2.8 0 4.4-.7 6.5-3 .7 1.1.9 1.6 2.3 2.7.3.2.7.1.9-.1v.1l3-2.8c.3-.3.3-.7 0-1.1-.7-1-1.5-1.9-1.5-3.8v-6.4c0-2.7.2-5.2-1.7-7.1-1.6-1.4-4.1-2-6-2z"/></defs><use xlink:href="#SVGID_1_" overflow="visible" fill-rule="evenodd" clip-rule="evenodd" fill="#8992A1"/><clipPath id="SVGID_2_"><use xlink:href="#SVGID_1_" overflow="visible"/></clipPath><g class="st3"><defs><path id="SVGID_3_" d="M-114.8-5796.7h1410.9v8944.9h-1410.9z"/></defs><use xlink:href="#SVGID_3_" overflow="visible" fill="#8992A1"/><clipPath id="SVGID_4_"><use xlink:href="#SVGID_3_" overflow="visible"/></clipPath><path class="st4" d="M291.5 195.7h138.8v34.7h-138.8z"/></g><defs><path id="SVGID_5_" d="M334 233.4c.9 0 1.7.5 2.3 1.5.6 1 .9 2.4.9 4.5 0 2-.3 3.5-.9 4.5-.6 1-1.4 1.5-2.2 1.5-.6 0-1.2-.2-1.6-.6-.5-.4-.9-1-1.1-1.8-.3-.8-.4-2-.4-3.6 0-1.9.3-3.3 1-4.3.5-1.2 1.2-1.7 2-1.7zm-12.7 0c1 0 1.8.5 2.4 1.5.4.7.7 1.7.8 3h-6.5c.1-1.4.4-2.5 1-3.3.6-.8 1.4-1.2 2.3-1.2zm87.3-.6c1 0 1.8.5 2.5 1.5.4.7.7 1.7.8 3h-6.6c.1-1.4.4-2.4 1.1-3.2.5-.8 1.3-1.3 2.2-1.3zm-48.3 0c1 0 1.8.5 2.5 1.5.4.7.7 1.7.8 3h-6.6c.1-1.4.4-2.4 1.1-3.2.6-.8 1.3-1.3 2.2-1.3zm-61.6-1.2l3.6 15.6h2.1l2.4-12 .4 2.7 1.9 9.3h2.1l3.7-15.6h-1.9l-2 9-.7 3-.6-3-1.7-9h-2.1l-1.9 9.1-.6 3.2-.7-3.3-1.9-9h-2.1zm22.6-.4c-1.6 0-2.9.7-3.9 2.1-1 1.4-1.6 3.5-1.6 6.1 0 2.6.5 4.6 1.5 5.9 1 1.4 2.4 2.1 4.1 2.1 1.3 0 2.4-.5 3.3-1.3.9-.8 1.5-2.1 1.9-3.7l-2-.3c-.6 2.1-1.6 3.2-3.1 3.2-1 0-1.8-.4-2.4-1.3-.7-.9-1.1-2.2-1.1-4h8.7l.1-.7c0-2.6-.5-4.7-1.5-6-1.2-1.4-2.5-2.1-4-2.1zm65.9-.2v15.6h2v-15.6h-2zm-12.6 0l4.5 15.6h1.9l4.5-15.6h-2.1l-2.6 9.5c-.3 1.2-.6 2.1-.8 3-.2-1-.4-2.1-.7-3.2l-2.6-9.3h-2.1zm45.9-.3c-1.4 0-2.5.4-3.3 1.2-.8.8-1.2 1.9-1.2 3.2 0 .8.1 1.4.4 2 .3.6.7 1.1 1.2 1.5.5.4 1.6.8 3.1 1.4 1.1.4 1.8.7 2.1.9.4.3.6.8.6 1.4 0 .7-.2 1.3-.7 1.8-.5.5-1.1.7-2 .7-.9 0-1.6-.2-2.1-.8-.5-.5-.9-1.3-1-2.4l-2 .4c.5 3.3 2.1 5 4.9 5 1.5 0 2.7-.4 3.6-1.4.9-.9 1.3-2.2 1.3-3.6 0-.8-.1-1.5-.4-2.1s-.7-1-1.2-1.4c-.5-.3-1.5-.8-3.2-1.4-1.2-.4-2-.7-2.2-.9-.4-.3-.6-.8-.6-1.4 0-.6.2-1.1.7-1.5.4-.4 1.1-.6 2-.6 1.5 0 2.4.9 2.6 2.6l2-.3c-.1-1.1-.4-1.9-.7-2.5-.4-.6-.9-1.1-1.5-1.4-.7-.3-1.5-.4-2.4-.4zm-11.9 0c-1.6 0-3 .7-4 2.1-1 1.4-1.5 3.5-1.5 6.1 0 2.6.5 4.6 1.5 6 1 1.4 2.4 2 4.1 2 1.3 0 2.4-.4 3.3-1.2.9-.8 1.6-2.1 1.9-3.7l-2.1-.4c-.6 2.1-1.6 3.2-3.1 3.2-1 0-1.8-.4-2.5-1.3s-1-2.2-1.1-4h8.8v-.7c0-2.6-.5-4.6-1.5-6-1-1.4-2.2-2.1-3.8-2.1zm-11.4 0c-1.6 0-2.9.7-3.9 2-1 1.4-1.5 3.4-1.5 6.1 0 2.7.5 4.7 1.5 6.1 1 1.4 2.3 2 3.8 2 1.3 0 2.4-.5 3.3-1.5.9-1 1.5-2.4 1.7-4.3l-2-.3c-.1 1.3-.5 2.3-1 2.9-.5.6-1.2.9-2 .9-1 0-1.8-.5-2.4-1.4-.6-.9-.9-2.5-.9-4.6 0-2.1.3-3.5 1-4.5.6-.9 1.5-1.5 2.5-1.5.7 0 1.2.3 1.7.8s.8 1.3 1 2.4l2-.4c-.2-1.6-.8-2.9-1.6-3.7-1-.6-2-1-3.2-1zm-24.6 0c-.5 0-.9.2-1.3.5-.4.4-.8 1.1-1.3 2.2v-2.4h-1.8v15.6h2v-8.1c0-1.1.1-2.2.4-3.2.1-.6.4-1 .8-1.4.4-.3.8-.5 1.2-.5.5 0 .9.2 1.4.6l.7-2.4c-.8-.6-1.5-.9-2.1-.9zm-12.2 0c-1.6 0-3 .7-4 2.1-1 1.4-1.5 3.5-1.5 6.1 0 2.6.5 4.6 1.5 6 1 1.4 2.4 2 4.1 2 1.3 0 2.4-.4 3.3-1.2.9-.8 1.6-2.1 1.9-3.7l-2.1-.4c-.6 2.1-1.7 3.2-3.2 3.2-1 0-1.7-.4-2.4-1.3s-1.1-2.2-1.1-4h8.8v-.7c0-2.6-.5-4.6-1.5-6-1-1.4-2.3-2.1-3.8-2.1zm-12.3 0c-1.4 0-2.5.4-3.3 1.2-.8.8-1.2 1.9-1.2 3.2 0 .8.2 1.4.5 2 .3.6.7 1.1 1.2 1.5.5.4 1.6.8 3.1 1.4 1.1.4 1.7.7 2 .9.4.3.6.8.6 1.4 0 .7-.2 1.3-.7 1.8-.5.5-1.1.7-2 .7-.9 0-1.6-.2-2.1-.8-.5-.5-.8-1.3-.9-2.4l-2 .4c.5 3.3 2.1 5 4.9 5 1.5 0 2.7-.4 3.5-1.4.9-.9 1.3-2.2 1.3-3.6 0-.8-.1-1.5-.4-2.1-.3-.6-.6-1-1.1-1.4-.5-.3-1.6-.8-3.2-1.4-1.2-.4-1.9-.7-2.2-.9-.4-.3-.6-.8-.6-1.4 0-.6.2-1.1.6-1.5.4-.4 1.1-.6 2-.6 1.5 0 2.4.9 2.6 2.6l2-.3c-.1-1.1-.4-1.9-.7-2.5-.4-.6-.9-1.1-1.5-1.4-.8-.3-1.5-.4-2.4-.4zm-19-5v21.5h1.9v-1.9c.4.8.8 1.3 1.4 1.7.5.4 1.2.6 1.9.6 1.4 0 2.5-.7 3.5-2.1 1-1.4 1.5-3.5 1.5-6.1 0-1.7-.2-3.2-.7-4.4-.4-1.2-1-2.1-1.8-2.7-.8-.6-1.6-.9-2.5-.9-.7 0-1.3.2-1.8.5s-1 .9-1.4 1.6v-7.7h-2zm58.1-.6v3h2v-3h-2z"/></defs><use xlink:href="#SVGID_5_" overflow="visible" fill-rule="evenodd" clip-rule="evenodd" fill="#8992A1"/><clipPath id="SVGID_6_"><use xlink:href="#SVGID_5_" overflow="visible"/></clipPath><g class="st5"><defs><path id="SVGID_7_" d="M-114.8-5796.7h1410.9v8944.9h-1410.9z"/></defs><use xlink:href="#SVGID_7_" overflow="visible" fill="#8992A1"/><clipPath id="SVGID_8_"><use xlink:href="#SVGID_7_" overflow="visible"/></clipPath><path class="st6" d="M293.2 219.6h137.9v33.4h-137.9z"/></g><defs><path id="SVGID_9_" d="M280.4 221.1l-10.1 3.9v14.7l10.1-4.2v-14.4zm-23.1 0l-.3 15 11.2 5v-15.6l-10.9-4.4zm11.5-4.2l-7.7 3.3 7.1 3.1 8.2-3.1-7.6-3.3z"/></defs><use xlink:href="#SVGID_9_" overflow="visible" fill-rule="evenodd" clip-rule="evenodd" fill="#8992A1"/><clipPath id="SVGID_10_"><use xlink:href="#SVGID_9_" overflow="visible"/></clipPath><g class="st7"><defs><path id="SVGID_11_" d="M-114.8-5796.7h1410.9v8944.9h-1410.9z"/></defs><use xlink:href="#SVGID_11_" overflow="visible" fill="#8992A1"/><clipPath id="SVGID_12_"><use xlink:href="#SVGID_11_" overflow="visible"/></clipPath><path class="st8" d="M251.6 211.4h34.3v35.2h-34.3z"/></g><defs><path id="SVGID_13_" d="M303.2 179.7l-9.1 3.9v14.7l9.1-4.2v-14.4zm-21.4-.8v15l9.6 2.8.3-13.6-9.9-4.2zm10.7-4.5l-7.7 3.3 7.1 3.1 8.2-3.1-7.6-3.3z"/></defs><use xlink:href="#SVGID_13_" overflow="visible" fill-rule="evenodd" clip-rule="evenodd" fill="#8992A1"/><clipPath id="SVGID_14_"><use xlink:href="#SVGID_13_" overflow="visible"/></clipPath><g class="st9"><defs><path id="SVGID_15_" d="M-114.8-5796.7h1410.9v8944.9h-1410.9z"/></defs><use xlink:href="#SVGID_15_" overflow="visible" fill="#8992A1"/><clipPath id="SVGID_16_"><use xlink:href="#SVGID_15_" overflow="visible"/></clipPath><path class="st10" d="M276.2 168.9h32.4v34.9h-32.4z"/></g><defs><path id="SVGID_17_" d="M267.7 199.7l-10.1 3.9v14.7l10.1-4.2v-14.4zm-23 0l-.3 15 11.2 5v-15.6l-10.9-4.4zm11.5-4.2l-7.7 3.3 7.1 3.1 8.2-3.1-7.6-3.3z"/></defs><use xlink:href="#SVGID_17_" overflow="visible" fill-rule="evenodd" clip-rule="evenodd" fill="#8992A1"/><clipPath id="SVGID_18_"><use xlink:href="#SVGID_17_" overflow="visible"/></clipPath><g class="st11"><defs><path id="SVGID_19_" d="M-114.8-5796.7h1410.9v8944.9h-1410.9z"/></defs><use xlink:href="#SVGID_19_" overflow="visible" fill="#8992A1"/><clipPath id="SVGID_20_"><use xlink:href="#SVGID_19_" overflow="visible"/></clipPath><path class="st12" d="M238.9 190h34.3v35.2h-34.3z"/></g><defs><path id="SVGID_21_" d="M292.4 199.1l-10.1 3.9v14.7l10.1-4.2v-14.4zm-23 0l-.3 15 11.2 5v-15.6l-10.9-4.4zm11.5-4.1l-7.7 3.3 7.1 3.1 8.2-3.1-7.6-3.3z"/></defs><use xlink:href="#SVGID_21_" overflow="visible" fill-rule="evenodd" clip-rule="evenodd" fill="#8992A1"/><clipPath id="SVGID_22_"><use xlink:href="#SVGID_21_" overflow="visible"/></clipPath><g class="st13"><defs><path id="SVGID_23_" d="M-114.8-5796.7h1410.9v8944.9h-1410.9z"/></defs><use xlink:href="#SVGID_23_" overflow="visible" fill="#8992A1"/><clipPath id="SVGID_24_"><use xlink:href="#SVGID_23_" overflow="visible"/></clipPath><path class="st14" d="M263.6 189.5h34.3v35.2h-34.3z"/></g><defs><path id="SVGID_25_" d="M328.1 178.6l-10.1 3.9v14.7l10.1-4.2v-14.4zm-23.1 0l-.3 15 11.2 5v-15.6l-10.9-4.4zm11.6-4.2l-7.7 3.3 7.1 3.1 8.2-3.1-7.6-3.3z"/></defs><use xlink:href="#SVGID_25_" overflow="visible" fill-rule="evenodd" clip-rule="evenodd" fill="#8992A1"/><clipPath id="SVGID_26_"><use xlink:href="#SVGID_25_" overflow="visible"/></clipPath><g class="st15"><defs><path id="SVGID_27_" d="M-114.8-5796.7h1410.9v8944.9h-1410.9z"/></defs><use xlink:href="#SVGID_27_" overflow="visible" fill="#8992A1"/><clipPath id="SVGID_28_"><use xlink:href="#SVGID_27_" overflow="visible"/></clipPath><path class="st16" d="M299.3 168.9h34.3v35.2h-34.3z"/></g><defs><path id="SVGID_29_" d="M359 460.8c10.5-.6 18.8 6.2 19.4 16.7.7 12-8.9 24.3-21.4 27.5-4.3 1.1-8.4 1-11.9-.1-.3-4.7.7-9.7 2.7-13.1 3.3-5.6 8.3-5.1 11.2 1.1 1.1 2.3 1.7 5.2 1.9 8.1 1-.5 2-1.1 2.9-1.8-3.1-7.5-4.5-16.4 6.6-32.1-3.2-2.6-8.2-3.8-14.4-3 1-1.2 2-2.2 3-3.3zm-2.5 12.7c-.9 1.9-.5 3.4.8 3.5 1.3 0 3.2-1.5 4.1-3.4.9-1.9.5-3.4-.8-3.5-1.4 0-3.2 1.6-4.1 3.4zm-1-5.3c-9.4 11.5-13.4 26.4-12.8 39.8-5.5-2.2-9.6-7.6-10-14.3v-.1c-.7-12 8.9-24.3 21.4-27.5 4.9-1.2 9.5-.9 13.3.7-.8 2.3-2.1 4.9-3.5 6.8-2.8 4.1-6.8 6.7-8.9 5.8-2.1-.9-1.6-5 1.2-9.1.6-.9 1.4-1.8 2.1-2.6-.9.1-1.8.3-2.8.5zm91.1 6l-3.3 17.3 8.5-9.7h6.9l-8.8 9.9 5.3 11.6h-6.8l-5.2-11.5-2.2 11.5h-6.3l5.5-28.9 6.4-.2zm-54 9.5c1.5-1.6 3.2-2.5 5.2-2.5.4 0 .8 0 1.2.1l-1.2 6.2c-.2 0-.6-.1-1-.1-4.3 0-6 4.2-6.7 7.7l-1.5 8.2h-6.4l4.1-21.7h5.6l-.3 1.5c-.3 1.4-.7 2.2-1 2.6v.1c-.1.2.1.4.2.5.2.1.4.1.5-.1v-.1c.2-.4.5-1.4 1.3-2.4zm65.1 5c0-4.4 3.8-7.4 9.4-7.4 2.6 0 4.5.6 5.5 1.1l-.9 4.8c-1.1-.6-2.9-1.2-4.8-1.2-1.6 0-2.7.7-2.7 1.8 0 .8.8 1.6 2.6 2.4 2.3 1.1 4.8 2.8 4.8 5.8 0 2-.7 3.6-2 4.9-1.7 1.7-4.5 2.7-7.9 2.6-2.6 0-5.2-.7-6.5-1.7l.9-4.8c1.4.9 4.2 1.8 6.2 1.8 1.6 0 2.6-.7 2.6-1.9 0-1.1-.7-1.8-2.6-2.7-3.1-1.4-4.6-3.3-4.6-5.5zm-39.8 6.1c0-7.7 6-13.5 14-13.5 1.6 0 3.2.3 4.4.7l-1 5.2c-1-.5-2.1-.8-3.5-.8-4.5 0-7.2 3.9-7.2 7.7 0 3.2 2.2 4.4 4.2 4.4 1.8 0 3.3-.4 5.3-1.3h.1l-1 5.3c-1.5.7-3.7 1.1-6.1 1.1-5.7 0-9.2-3.4-9.2-8.8zm-9.2-8.7c-.9 0-1.8.4-2.6 1.3-1.7 1.7-3 4.9-3 7.5 0 2.2.8 3.6 2.3 3.6 2.3 0 4.3-2.4 5-6 .2-.8.3-1.6.4-2.3.1-.7.2-1.3.2-1.8-.1-1.5-.9-2.3-2.3-2.3zm-.2 17.1l.2-1c.2-.9.9-2 1.1-2.4v-.1c.1-.2 0-.4-.2-.5-.2-.1-.4 0-.5.2v.1c-.1.5-.4 1.5-1.3 2.4-1.2 1.1-3 1.8-4.9 1.8-4.2 0-6.1-3.7-6.1-7.5 0-4.3 1.7-8.5 4.5-11.3 2.4-2.4 5.4-3.6 8.8-3.6 2.6 0 4.5.8 5.7 2.2 1.8 2.1 1.6 5.4 1.2 7.7l-2.3 12h-6.2zm71.6-10c-.3 1.4-1 5.6 1.9 5.6 3.3 0 5.8-4.7 5.8-8.9 0-1-.2-3.5-2.6-3.5s-4.4 2.7-5.1 6.8zm2.3-10c1.4-1.2 3.2-1.9 5-1.9 4.2 0 6.9 3.2 6.9 8.2 0 5.2-2.5 10.6-7 13-3.5 1.9-6.7 1.4-8.3.2-.4-.3-.5-1.1-.5-1.4v-.1c-.1-.2-.3-.3-.5-.2-.2.1-.3.3-.3.5v.1c.3.5.5.9.4 1.3l-1.4 7.2h-6.4l5.4-28.5h5.6l-.2 1c-.3 1.5-.8 2.1-1.1 2.5v.1c-.1.2 0 .4.2.5.2.1.4.1.6-.1v-.1c.3-.5.7-1.6 1.6-2.3zm64.2 5.8c.4-.3.5-.8.5-1.3 0-1.1-.9-1.8-2.3-1.8-2.1 0-3.6 1.3-4.5 2.9-.6 1.1-.8 1.2-1.3 1.6h-.1c-.2.1-.1.4 0 .5.1.1.4.2.5.1l.1-.1c.4-.5.5-.7 2.2-.8 2.6 0 4.1-.4 4.9-1.1zm-8.3 5.3c.6.6 1 1.4 1.1 1.6.1.4.3.8.5 1.1.8 1 2.3 1.6 4.1 1.6 2.6 0 4.9-.6 7.4-2.1h.1l-1 5.3c-3 1.5-6.6 1.7-8 1.7-5.9 0-9.3-3.3-9.3-9 0-3.3 1.2-6.6 3.3-9.1 2.3-2.7 5.6-4.2 9.1-4.2 4.5 0 7.5 2.6 7.5 6.4 0 1.8-.6 3.2-1.7 4.4-1.9 1.9-5.4 2.8-10.6 2.9-1.3 0-1.5-.6-1.8-1.1v-.1c-.1-.2-.4-.1-.6 0-.2.2-.3.4-.1.6zm-31.5-8.2c-.9 0-1.8.4-2.6 1.3-1.7 1.7-3 4.9-3 7.5 0 2.2.8 3.6 2.3 3.6 2.3 0 4.3-2.4 5-6 .2-.8.3-1.6.4-2.3.1-.7.2-1.3.2-1.8-.1-1.5-.9-2.3-2.3-2.3zm-.3 17.1l.2-1c.2-.9.9-2 1.1-2.4v-.1c.1-.2 0-.4-.2-.5-.2-.1-.4 0-.5.2v.1c-.1.5-.4 1.5-1.3 2.4-1.2 1.1-3 1.8-4.9 1.8-4.2 0-6.1-3.7-6.1-7.5 0-4.3 1.7-8.5 4.5-11.3 2.4-2.4 5.4-3.6 8.8-3.6 2.6 0 4.5.8 5.7 2.2 1.8 2.1 1.6 5.4 1.2 7.7l-2.3 12h-6.2zm9.5-8.4c0-7.7 6-13.5 14-13.5 1.6 0 3.2.3 4.4.7l-1 5.2c-1-.5-2.1-.8-3.5-.8-4.5 0-7.2 3.9-7.2 7.7 0 3.2 2.2 4.4 4.2 4.4 1.8 0 3.3-.4 5.3-1.3h.1l-1 5.3c-1.5.7-3.7 1.1-6.1 1.1-5.7 0-9.2-3.4-9.2-8.8z"/></defs><use xlink:href="#SVGID_29_" overflow="visible" fill-rule="evenodd" clip-rule="evenodd" fill="#8992A1"/><clipPath id="SVGID_30_"><use xlink:href="#SVGID_29_" overflow="visible"/></clipPath><g class="st17"><defs><path id="SVGID_31_" d="M-145.2-4988.8h1353.3v8579.7h-1353.3z"/></defs><use xlink:href="#SVGID_31_" overflow="visible" fill="#8992A1"/><clipPath id="SVGID_32_"><use xlink:href="#SVGID_31_" overflow="visible"/></clipPath><path class="st18" d="M327.4 455.5h231v59.8h-231z"/></g><path class="st2" d="M724.3 77.3h17.5v4.6h-12.1v7.3h10.5v4.6h-10.5v10.8h-5.4v-27.3zM754.1 81.8h-8.8v-4.5h23v4.5h-8.8v22.8h-5.5v-22.8zM772.9 77.3h8.9c2 0 3.7.4 5.2 1.1 1.5.7 2.7 1.7 3.5 3.1.8 1.3 1.3 2.9 1.3 4.7 0 2.8-.9 4.9-2.7 6.6-1.8 1.6-4.3 2.5-7.3 2.5h-3.6v9.3h-5.3v-27.3zm5.3 13.5h2.8c1.8 0 3.2-.4 4.1-1.2.9-.8 1.4-1.9 1.4-3.4s-.5-2.6-1.4-3.4c-.9-.8-2.3-1.1-4.1-1.1h-2.8v9.1z"/></svg>