<?xml version="1.0" encoding="utf-8"?>
<!-- Generator: Adobe Illustrator 19.2.1, SVG Export Plug-In . SVG Version: 6.00 Build 0)  -->
<svg version="1.1" id="Layer_1" xmlns="http://www.w3.org/2000/svg" xmlns:xlink="http://www.w3.org/1999/xlink" x="0px" y="0px"
	 viewBox="0 0 1080 675" style="enable-background:new 0 0 1080 675;" xml:space="preserve">
<style type="text/css">
	.st0{fill:#FFFFFF;}
	.st1{fill:none;stroke:#FFFFFF;stroke-width:0.4;stroke-miterlimit:10;}
	.st2{fill:#8992A1;}
	.st3{clip-path:url(#SVGID_2_);}
	.st4{clip-path:url(#SVGID_4_);fill:#8992A1;}
	.st5{clip-path:url(#SVGID_6_);}
	.st6{clip-path:url(#SVGID_8_);fill:#8992A1;}
	.st7{clip-path:url(#SVGID_10_);}
	.st8{clip-path:url(#SVGID_12_);fill:#8992A1;}
	.st9{clip-path:url(#SVGID_14_);}
	.st10{clip-path:url(#SVGID_16_);fill:#8992A1;}
	.st11{clip-path:url(#SVGID_18_);}
	.st12{clip-path:url(#SVGID_20_);fill:#8992A1;}
	.st13{clip-path:url(#SVGID_22_);}
	.st14{clip-path:url(#SVGID_24_);fill:#8992A1;}
	.st15{clip-path:url(#SVGID_26_);}
	.st16{clip-path:url(#SVGID_28_);fill:#8992A1;}
	.st17{clip-path:url(#SVGID_30_);}
	.st18{clip-path:url(#SVGID_32_);fill:#8992A1;}
</style>
<g>
	<circle class="st0" cx="611.5" cy="141" r="2.3"/>
	<circle class="st0" cx="602.3" cy="542.6" r="2.3"/>
	<circle class="st0" cx="787.1" cy="460.4" r="2.3"/>
	<circle class="st0" cx="112.1" cy="399.4" r="2.3"/>
	<circle class="st0" cx="992.4" cy="147.4" r="2.3"/>
	<circle class="st0" cx="927.5" cy="105.5" r="2.3"/>
	<circle class="st0" cx="196.7" cy="195.3" r="2.3"/>
	<path class="st0" d="M738.7,405.9c1.1-0.8,0.9-1.5-0.5-1.5h-2.6l-0.8-2.5c-0.4-1.4-1.2-1.4-1.6,0l-0.8,2.5h-2.6
		c-1.4,0-1.6,0.7-0.5,1.5l2.1,1.5l-0.8,2.5c-0.4,1.4,0.1,1.8,1.3,0.9l0,0l2.1-1.5l2.1,1.5c1.1,0.8,1.7,0.4,1.3-0.9l-0.8-2.5
		L738.7,405.9z"/>
	<path class="st0" d="M603.3,188.8c1.1-0.8,0.9-1.5-0.5-1.5h-2.6l-0.8-2.5c-0.4-1.4-1.2-1.4-1.6,0l-0.8,2.5h-2.6
		c-1.4,0-1.6,0.7-0.5,1.5l2.1,1.5l-0.8,2.5c-0.4,1.4,0.1,1.8,1.3,0.9l0,0l2.1-1.5l2.1,1.5c1.1,0.8,1.7,0.4,1.3-0.9l-0.8-2.5
		L603.3,188.8z"/>
	<path class="st0" d="M825.4,549.6c1.1-0.8,0.9-1.5-0.5-1.5h-2.6l-0.8-2.5c-0.4-1.4-1.2-1.4-1.6,0l-0.8,2.5h-2.6
		c-1.4,0-1.6,0.7-0.5,1.5l2.1,1.5l-0.8,2.5c-0.4,1.4,0.1,1.8,1.3,0.9l0,0l2.1-1.5l2.1,1.5c1.1,0.8,1.7,0.4,1.3-0.9l-0.8-2.5
		L825.4,549.6z"/>
	<path class="st0" d="M859.9,238.1c1.1-0.8,0.9-1.5-0.5-1.5h-2.6l-0.8-2.5c-0.4-1.4-1.2-1.4-1.6,0l-0.8,2.5H851
		c-1.4,0-1.6,0.7-0.5,1.5l2.1,1.5l-0.8,2.5c-0.4,1.4,0.1,1.8,1.3,0.9l0,0l2.1-1.5l2.1,1.5c1.1,0.8,1.7,0.4,1.3-0.9l-0.8-2.5
		L859.9,238.1z"/>
	<path class="st0" d="M765.2,369.1c1.1-0.8,0.9-1.5-0.5-1.5h-2.6l-0.8-2.5c-0.4-1.4-1.2-1.4-1.6,0l-0.8,2.5h-2.6
		c-1.4,0-1.6,0.7-0.5,1.5l2.1,1.5l-0.8,2.5c-0.4,1.4,0.1,1.8,1.3,0.9l0,0l2.1-1.5l2.1,1.5c1.1,0.8,1.7,0.4,1.3-0.9l-0.8-2.5
		L765.2,369.1z"/>
	<path class="st0" d="M1011.8,242.3c1.1-0.8,0.9-1.5-0.5-1.5h-2.6l-0.8-2.5c-0.4-1.4-1.2-1.4-1.6,0l-0.8,2.5h-2.6
		c-1.4,0-1.6,0.7-0.5,1.5l2.1,1.5l-0.8,2.5c-0.4,1.4,0.1,1.8,1.3,0.9l0,0l2.1-1.5l2.1,1.5c1.1,0.8,1.7,0.4,1.3-0.9l-0.8-2.5
		L1011.8,242.3z"/>
	<path class="st0" d="M1007.4,397.5c1.1-0.8,0.9-1.5-0.5-1.5h-2.6l-0.8-2.5c-0.4-1.4-1.2-1.4-1.6,0l-0.8,2.5h-2.6
		c-1.4,0-1.6,0.7-0.5,1.5l2.1,1.5l-0.8,2.5c-0.4,1.4,0.1,1.8,1.3,0.9l0,0l2.1-1.5l2.1,1.5c1.1,0.8,1.7,0.4,1.3-0.9l-0.8-2.5
		L1007.4,397.5z"/>
	<path class="st0" d="M190.6,608.5c1.1-0.8,0.9-1.5-0.5-1.5h-2.6l-0.8-2.5c-0.4-1.4-1.2-1.4-1.6,0l-0.8,2.5h-2.6
		c-1.4,0-1.6,0.7-0.5,1.5l2.1,1.5l-0.8,2.5c-0.4,1.4,0.1,1.8,1.3,0.9l0,0l2.1-1.5l2.1,1.5c1.1,0.8,1.7,0.4,1.3-0.9l-0.8-2.5
		L190.6,608.5z"/>
	<path class="st0" d="M264.4,376.2c1.1-0.8,0.9-1.5-0.5-1.5h-2.6l-0.8-2.5c-0.4-1.4-1.2-1.4-1.6,0l-0.8,2.5h-2.6
		c-1.4,0-1.6,0.7-0.5,1.5l2.1,1.5l-0.8,2.5c-0.4,1.4,0.1,1.8,1.3,0.9l0,0l2.1-1.5l2.1,1.5c1.1,0.8,1.7,0.4,1.3-0.9l-0.8-2.5
		L264.4,376.2z"/>
	<path class="st0" d="M313.2,575.6c1.1-0.8,0.9-1.5-0.5-1.5h-2.6l-0.8-2.5c-0.4-1.4-1.2-1.4-1.6,0l-0.8,2.5h-2.6
		c-1.4,0-1.6,0.7-0.5,1.5l2.1,1.5l-0.8,2.5c-0.4,1.4,0.1,1.8,1.3,0.9l0,0l2.1-1.5l2.1,1.5c1.1,0.8,1.7,0.4,1.3-0.9l-0.8-2.5
		L313.2,575.6z"/>
	<path class="st0" d="M150.7,306.5c1.1-0.8,0.9-1.5-0.5-1.5h-2.6l-0.8-2.5c-0.4-1.4-1.2-1.4-1.6,0l-0.8,2.5h-2.6
		c-1.4,0-1.6,0.7-0.5,1.5l2.1,1.5l-0.8,2.5c-0.4,1.4,0.1,1.8,1.3,0.9l0,0l2.1-1.5l2.1,1.5c1.1,0.8,1.7,0.4,1.3-0.9l-0.8-2.5
		L150.7,306.5z"/>
	<path class="st0" d="M242.6,96.6c1.1-0.8,0.9-1.5-0.5-1.5h-2.6l-0.8-2.5c-0.4-1.4-1.2-1.4-1.6,0l-0.8,2.5h-2.6
		c-1.4,0-1.6,0.7-0.5,1.5l2.1,1.5l-0.8,2.5c-0.4,1.4,0.1,1.8,1.3,0.9l0,0l2.1-1.5l2.1,1.5c1.1,0.8,1.7,0.4,1.3-0.9l-0.8-2.5
		L242.6,96.6z"/>
	<path class="st0" d="M924.3,548.8H920l-1.3-4.1c0,0,0,0,0,0c-0.7-2.3-1.9-2.3-2.7,0l-1.3,4.1h-4.3c-2.4,0-2.7,1.1-0.8,2.5l3.5,2.5
		l-1.3,4.1v0c-0.7,2.3,0.2,3,2.2,1.6l0,0l3.5-2.5l3.5,2.5c1.9,1.4,2.9,0.7,2.2-1.6l-1.3-4.1l3.5-2.5v0
		C927.1,549.9,926.7,548.8,924.3,548.8z M917.4,554.2c-1.2,0-2.3-1-2.3-2.3c0-1.2,1-2.3,2.3-2.3c1.2,0,2.3,1,2.3,2.3
		C919.6,553.2,918.6,554.2,917.4,554.2z"/>
	<path class="st0" d="M958.9,248.6h-4.3l-1.3-4.1c0,0,0,0,0,0c-0.7-2.3-1.9-2.3-2.7,0l-1.3,4.1h-4.3c-2.4,0-2.7,1.1-0.8,2.5l3.5,2.5
		l-1.3,4.1v0c-0.7,2.3,0.2,3,2.2,1.6l0,0l3.5-2.5l3.5,2.5c1.9,1.4,2.9,0.7,2.2-1.6l-1.3-4.1l3.5-2.5v0
		C961.6,249.7,961.2,248.6,958.9,248.6z M951.9,254c-1.2,0-2.3-1-2.3-2.3c0-1.2,1-2.3,2.3-2.3c1.2,0,2.3,1,2.3,2.3
		C954.2,253,953.1,254,951.9,254z"/>
	<path class="st0" d="M878.8,430.1h-4.3l-1.3-4.1l0,0c-0.7-2.3-1.9-2.3-2.7,0l-1.3,4.1h-4.3c-2.4,0-2.7,1.1-0.8,2.5l3.5,2.5
		l-1.3,4.1c0,0,0,0,0,0c-0.7,2.3,0.2,3,2.2,1.6l0,0l3.5-2.5l3.5,2.5c1.9,1.4,2.9,0.7,2.2-1.6l-1.3-4.1l3.5-2.5v0
		C881.5,431.2,881.2,430.1,878.8,430.1z M871.8,435.5c-1.2,0-2.3-1-2.3-2.3c0-1.2,1-2.3,2.3-2.3c1.2,0,2.3,1,2.3,2.3
		C874.1,434.5,873.1,435.5,871.8,435.5z"/>
	<path class="st0" d="M302.2,405.1h-4.3l-1.3-4.1l0,0c-0.7-2.3-1.9-2.3-2.7,0l-1.3,4.1h-4.3c-2.4,0-2.7,1.1-0.8,2.5l3.5,2.5
		l-1.3,4.1v0c-0.7,2.3,0.2,3,2.2,1.6l0,0l3.5-2.5l3.5,2.5c1.9,1.4,2.9,0.7,2.2-1.6l-1.3-4.1l3.5-2.5v0
		C304.9,406.3,304.6,405.1,302.2,405.1z M295.2,410.6c-1.2,0-2.3-1-2.3-2.3c0-1.2,1-2.3,2.3-2.3c1.2,0,2.3,1,2.3,2.3
		C297.5,409.6,296.5,410.6,295.2,410.6z"/>
	<path class="st0" d="M363.4,79h-4.3l-1.3-4.1l0,0c-0.7-2.3-1.9-2.3-2.7,0l-1.3,4.1h-4.3c-2.4,0-2.7,1.1-0.8,2.5l3.5,2.5l-1.3,4.1v0
		c-0.7,2.3,0.2,3,2.2,1.6l0,0l3.5-2.5l3.5,2.5c1.9,1.4,2.9,0.7,2.2-1.6l-1.3-4.1l3.5-2.5v0C366.2,80.1,365.8,79,363.4,79z
		 M356.4,84.4c-1.2,0-2.3-1-2.3-2.3c0-1.2,1-2.3,2.3-2.3c1.2,0,2.3,1,2.3,2.3C358.7,83.4,357.7,84.4,356.4,84.4z"/>
	<path class="st0" d="M901.6,100.1l-2.1-2.3l2.1-2.3c1.2-1.3,0.8-2-0.9-1.6l0,0l-3,0.7l-0.9-3v0c-0.5-1.6-1.3-1.6-1.8,0l-0.9,3
		l-3-0.7h0c-1.7-0.4-2.1,0.3-0.9,1.6l0,0l2.1,2.3l-2.1,2.3l0,0c-1.2,1.3-0.8,2,0.9,1.6h0l3-0.7l0.9,3c0.5,1.6,1.3,1.6,1.8,0l0.9-3
		l3,0.7l0,0C902.4,102.1,902.8,101.4,901.6,100.1z"/>
	<path class="st0" d="M565.5,426.5l-2.1-2.3l2.1-2.3c1.2-1.3,0.8-2-0.9-1.6l0,0l-3,0.7l-0.9-3v0c-0.5-1.6-1.3-1.6-1.8,0l-0.9,3
		l-3-0.7h0c-1.7-0.4-2.1,0.3-0.9,1.6l0,0l2.1,2.3l-2.1,2.3l0,0c-1.2,1.3-0.8,2,0.9,1.6h0l3-0.7l0.9,3c0.5,1.6,1.3,1.6,1.8,0l0.9-3
		l3,0.7l0,0C566.2,428.4,566.6,427.7,565.5,426.5z"/>
	<path class="st0" d="M267.2,472.4l-2.1-2.3l2.1-2.3c1.2-1.3,0.8-2-0.9-1.6l0,0l-3,0.7l-0.9-3v0c-0.5-1.6-1.3-1.6-1.8,0l-0.9,3
		l-3-0.7h0c-1.7-0.4-2.1,0.3-0.9,1.6l0,0l2.1,2.3l-2.1,2.3l0,0c-1.2,1.3-0.8,2,0.9,1.6h0l3-0.7l0.9,3c0.5,1.6,1.3,1.6,1.8,0l0.9-3
		l3,0.7l0,0C267.9,474.3,268.4,473.6,267.2,472.4z"/>
	<path class="st0" d="M884.8,564.3l-2.1-2.3l2.1-2.3c1.2-1.3,0.8-2-0.9-1.6l0,0l-3,0.7l-0.9-3v0c-0.5-1.6-1.3-1.6-1.8,0l-0.9,3
		l-3-0.7h0c-1.7-0.4-2.1,0.3-0.9,1.6l0,0l2.1,2.3l-2.1,2.3l0,0c-1.2,1.3-0.8,2,0.9,1.6h0l3-0.7l0.9,3c0.5,1.6,1.3,1.6,1.8,0l0.9-3
		l3,0.7l0,0C885.6,566.3,886,565.6,884.8,564.3z"/>
	<path class="st0" d="M787.7,526.6l-2.1-2.3l2.1-2.3c1.2-1.3,0.8-2-0.9-1.6l0,0l-3,0.7l-0.9-3v0c-0.5-1.6-1.3-1.6-1.8,0l-0.9,3
		l-3-0.7h0c-1.7-0.4-2.1,0.3-0.9,1.6l0,0l2.1,2.3l-2.1,2.3l0,0c-1.2,1.3-0.8,2,0.9,1.6h0l3-0.7l0.9,3c0.5,1.6,1.3,1.6,1.8,0l0.9-3
		l3,0.7l0,0C788.5,528.6,788.9,527.9,787.7,526.6z"/>
	<path class="st0" d="M809.4,210.1l-2.1-2.3l2.1-2.3c1.2-1.3,0.8-2-0.9-1.6l0,0l-3,0.7l-0.9-3v0c-0.5-1.6-1.3-1.6-1.8,0l-0.9,3
		l-3-0.7h0c-1.7-0.4-2.1,0.3-0.9,1.6l0,0l2.1,2.3l-2.1,2.3l0,0c-1.2,1.3-0.8,2,0.9,1.6h0l3-0.7l0.9,3c0.5,1.6,1.3,1.6,1.8,0l0.9-3
		l3,0.7l0,0C810.1,212.1,810.5,211.4,809.4,210.1z"/>
	<path class="st0" d="M367.8,371.3l-2.1-2.3l2.1-2.3c1.2-1.3,0.8-2-0.9-1.6l0,0l-3,0.7l-0.9-3v0c-0.5-1.6-1.3-1.6-1.8,0l-0.9,3
		l-3-0.7h0c-1.7-0.4-2.1,0.3-0.9,1.6l0,0l2.1,2.3l-2.1,2.3l0,0c-1.2,1.3-0.8,2,0.9,1.6h0l3-0.7l0.9,3c0.5,1.6,1.3,1.6,1.8,0l0.9-3
		l3,0.7l0,0C368.6,373.3,369,372.6,367.8,371.3z"/>
	<path class="st0" d="M79.7,213.7l-2.1-2.3l2.1-2.3c1.2-1.3,0.8-2-0.9-1.6l0,0l-3,0.7l-0.9-3v0c-0.5-1.6-1.3-1.6-1.8,0l-0.9,3
		l-3-0.7h0c-1.7-0.4-2.1,0.3-0.9,1.6l0,0l2.1,2.3l-2.1,2.3l0,0c-1.2,1.3-0.8,2,0.9,1.6h0l3-0.7l0.9,3c0.5,1.6,1.3,1.6,1.8,0l0.9-3
		l3,0.7l0,0C80.5,215.7,80.9,215,79.7,213.7z"/>
	<path class="st0" d="M699.1,77.3l-5.5-1.4l2.6-4.4l0.3-0.5c1.3-2.1,0.6-2.8-1.5-1.5l-1,0.6l-3.9,2.3l-1.1-4.4l-0.1-0.6l-0.1-0.6
		c-0.6-2.4-1.6-2.4-2.2,0l-0.3,1.1l0,0l-1.1,4.4l-3.9-2.3l-1-0.6c-2.1-1.3-2.8-0.6-1.5,1.5l0.3,0.5l2.6,4.4l-5.5,1.4
		c-2.4,0.6-2.4,1.6,0,2.2l5.5,1.4l-2.6,4.4l-0.3,0.5c-1.3,2.1-0.6,2.8,1.5,1.5l0.5-0.3l0.5-0.3l3.9-2.3l1.1,4.4l0,0l0.3,1.1
		c0.6,2.4,1.6,2.4,2.2,0l0.1-0.6l0.1-0.6l1.1-4.4l3.9,2.3l0.5,0.3l0.5,0.3c2.1,1.3,2.8,0.6,1.5-1.5l-0.3-0.5l-2.6-4.4l5.5-1.4
		C701.6,78.9,701.6,77.9,699.1,77.3z M687.7,81.8c-1.9,0-3.4-1.5-3.4-3.4c0-1.9,1.5-3.4,3.4-3.4c1.9,0,3.4,1.5,3.4,3.4
		C691.1,80.3,689.6,81.8,687.7,81.8z"/>
	<path class="st1" d="M279.8,151.3"/>
	<path class="st2" d="M266.4,461.9l-2.5-1.1c4.8-10.6,12-23.3,17.2-32.6c2-3.6,3.8-6.7,5.1-9.1l2.4,1.3c-1.3,2.4-3.1,5.6-5.1,9.2
		C278.3,438.8,271.2,451.5,266.4,461.9z"/>
	<path class="st2" d="M272.8,465.7l-1.8-2c25.4-22.2,65.9-64.3,83.3-86.7l2.1,1.7C338.9,401.1,298.3,443.4,272.8,465.7z"/>
	<path class="st2" d="M302.9,568.1c-8.3-30.3-26.3-65.7-36-84.8l-2.2-4.3l2.4-1.2l2.2,4.3c9.7,19.1,27.9,54.7,36.2,85.3L302.9,568.1
		z"/>
	<path class="st2" d="M190.6,600l-2.6-0.8c10.7-34.6,46.4-92.7,65.9-121.6l2.2,1.5C236.7,507.9,201.2,565.7,190.6,600z"/>
	<path class="st2" d="M257.1,459.3c-1.7-22.6-2.7-55.6,0-74.4l2.7,0.4c-2.7,18.6-1.7,51.4,0,73.8L257.1,459.3z"/>
	<path class="st2" d="M847.8,233.4c-9.3-8-19.5-14.7-34.2-22.4l1.3-2.4c14.9,7.8,25.2,14.6,34.7,22.7L847.8,233.4z"/>
	<path class="st2" d="M938.9,251.7c-21.1-5.9-53.2-11-74.5-11.9l0.1-2.7c21.5,0.9,53.8,6.1,75.1,12L938.9,251.7z"/>
	<path class="st2" d="M965,250.4l-0.9-2.6c9.4-3.1,21.7-5.5,33.9-6.6l0.2,2.7C986.3,245,974.2,247.4,965,250.4z"/>
	<path class="st2" d="M1005.3,387.6l-2.7-0.2c2.6-36.1,3.8-86.4,3.1-134.6l2.7,0C1009.1,301,1007.9,351.4,1005.3,387.6z"/>
	<path class="st2" d="M884,435.8l-0.4-2.7c47.9-6.7,84-16.1,110.4-28.7l1.2,2.4C968.5,419.6,932.2,429,884,435.8z"/>
	<path class="st2" d="M763,358.9l-2.6-0.6c9.4-44.7,24.8-101.6,36.1-141.4l2.6,0.7C787.8,257.4,772.4,314.2,763,358.9z"/>
	<path class="st2" d="M856.8,432.3c-39.1-13.6-66.6-29.3-91.8-52.4l1.8-2c25.3,23.2,51.6,38.2,90.9,51.9L856.8,432.3z"/>
	<path class="st2" d="M912.3,540.4c-7.9-23.1-18.5-50.4-27.9-74.5c-2.6-6.7-5.1-13.1-7.5-19.3l2.5-1c2.4,6.2,4.9,12.6,7.5,19.3
		c9.4,24.1,20,51.5,27.9,74.6L912.3,540.4z"/>
	<path class="st2" d="M874.6,549.9l-0.3-5.8c-1.7-28.7-3.5-61.3-3.8-96.7l2.7,0c0.2,35.4,2.1,67.9,3.8,96.6l0.3,5.8L874.6,549.9z"/>
	<path class="st2" d="M827.6,544.2l-2.5-1.1c13.1-29.5,26.6-63.9,38.2-96.8l2.6,0.9C854.3,480.2,840.7,514.6,827.6,544.2z"/>
	<path class="st2" d="M793.3,519.1l-2-1.8l10.6-11.4c19-20.4,38.7-41.5,57.6-64l2.1,1.7c-18.9,22.5-38.6,43.6-57.7,64.1L793.3,519.1
		z"/>
	<path class="st2" d="M792.6,461.3l-0.7-2.6c21.9-5.7,44.1-13.4,62.8-20.2l0.9,2.5C836.8,447.9,814.6,455.7,792.6,461.3z"/>
	
		<rect x="759.9" y="404.4" transform="matrix(0.7334 -0.6798 0.6798 0.7334 -92.6203 633.455)" class="st2" width="2.7" height="60.8"/>
	<path class="st2" d="M138.7,300.9c-18.4-23.3-33.2-43.1-49-64.2l-12.3-16.3l2.2-1.6l12.3,16.4c15.8,21,30.6,40.9,49,64.1
		L138.7,300.9z"/>
	<path class="st2" d="M151.7,299.8l-2.4-1.2c15.3-31.3,31.1-66.5,43.5-96.6l2.5,1C182.8,233.2,166.9,268.4,151.7,299.8z"/>
	<path class="st2" d="M85.6,210.3l-0.5-2.7c35.4-6.6,87.7-12.1,102.9-13.6l0.3,2.7C173.1,198.2,120.9,203.7,85.6,210.3z"/>
	<path class="st2" d="M201.1,187.6l-2.5-0.9c10.8-29,21.5-55.1,32.8-79.6l2.5,1.1C222.6,132.7,211.9,158.7,201.1,187.6z"/>
	<path class="st2" d="M248.2,96.5l-0.5-2.7c33.2-5.9,69.8-11,95.6-13.4l0.3,2.7C317.8,85.5,281.3,90.6,248.2,96.5z"/>
	<path class="st2" d="M641.6,326.6h-2.7V297h9.1c7.4,0,9.9,4.3,9.9,8.9s-2.5,8.9-9.9,8.9h-6.4L641.6,326.6L641.6,326.6z
		 M641.6,312.3h6.7c5.6,0,6.6-3.6,6.6-6.4s-1.1-6.4-6.6-6.4h-6.7V312.3z M667.7,308.9c-2.7,0-4.4,0.5-5.9,1v-2.4
		c1.7-0.8,4-1.1,5.9-1.1c5.9,0,7.5,2.7,7.5,6.6v13.5h-1.5l-0.6-1.6c-1.8,1.3-4,2-6,2c-5.2,0-6.9-3-6.9-6.4c0-3.4,1.9-5.9,7-6.2
		l5.2-0.3v-1.1C672.5,310.2,671.4,308.9,667.7,308.9z M667,316.6c-2.8,0.3-4,1.7-4,4c0,1.8,0.4,3.9,4.2,3.9c2.1,0,3.6-0.6,5.3-1.6
		v-6.9L667,316.6z M683.9,321.1c-0.4,0.4-0.8,1-0.8,1.5c0,1,0.5,1.4,1.5,1.5l6.7,0.8c3.7,0.4,5.4,1.9,5.4,5.3
		c0,4.8-4.8,6.7-10.3,6.7c-5.5,0-8.9-1.6-8.9-6c0-2.7,1.9-4.5,4.1-5.2v0c-0.8-0.5-1.3-1.3-1.3-2.6c0-1.1,0.7-2,1.5-2.7
		c-2.4-1.3-3.2-3.7-3.2-6.5c0-4.1,1.7-7.4,7.7-7.4c1.2,0,2.3,0.2,3.2,0.4h6.7v1.5l-3.3,1c0.8,1.3,1.1,2.8,1.1,4.6
		c0,4.1-1.7,7.4-7.7,7.4C685.6,321.3,684.7,321.3,683.9,321.1z M685.1,326.4c-2.6,0.6-4.8,1.8-4.8,4.4c0,2.9,2.2,3.8,6.3,3.8
		c4,0,7.7-1,7.7-4.4c0-2-1-2.8-3.4-3.1L685.1,326.4z M691.7,313.9c0-2.6-0.5-5-5.1-5s-5.1,2.4-5.1,5c0,2.6,0.5,5,5.1,5
		S691.7,316.5,691.7,313.9z M706.6,306.5c6.7,0,7.5,4.6,7.5,10.3v1.3H701c0.2,3.4,1.1,6.6,5.5,6.6c2.8,0,4.6-0.3,6.5-1.1v2.4
		c-2.2,1-4.6,1.2-6.5,1.2c-6.7,0-8.3-4.6-8.3-10.3S699.9,306.5,706.6,306.5z M701,315.8h10.3c0-3.5-0.2-6.8-4.7-6.8
		C702,308.9,701.1,312.2,701,315.8z M724.6,315.3c5.6,0.5,7,2.4,7,5.7c0,3-1.9,6.1-8,6.1c-1.9,0-4.6-0.5-5.9-1v-2.4
		c1.2,0.4,3.1,0.9,5.9,0.9c4.1,0,5.2-1.7,5.2-3.6c0-1.8-0.6-3.1-4.5-3.4c-5.7-0.5-6.9-2.5-6.9-5.3c0-2.8,1.8-5.9,7.4-5.9
		c1.9,0,4,0.2,5.7,1v2.4c-1.5-0.5-3.1-0.9-5.7-0.9c-3.9,0-4.7,1.5-4.7,3.4C720.1,314,720.8,315,724.6,315.3z M535.9,309.3h-9.7
		c-0.3,0-0.5,0.2-0.5,0.5v4.7c0,0.2,0.2,0.5,0.5,0.5h3.8v5.9c0,0-0.8,0.3-3.2,0.3c-2.8,0-6.6-1-6.6-9.5c0-8.5,4-9.6,7.8-9.6
		c3.3,0,4.7,0.6,5.6,0.9c0.3,0.1,0.5-0.2,0.5-0.4l1.1-4.6c0-0.1,0-0.3-0.2-0.4c-0.4-0.3-2.6-1.5-8.2-1.5c-6.5,0-13.1,2.8-13.1,16
		c0,13.2,7.6,15.2,14,15.2c5.3,0,8.5-2.3,8.5-2.3c0.1-0.1,0.1-0.3,0.1-0.3v-14.8C536.3,309.5,536.1,309.3,535.9,309.3z M586.2,297.5
		c0-0.3-0.2-0.5-0.5-0.5h-5.5c-0.2,0-0.5,0.2-0.5,0.5l0,10.5h-8.5v-10.5c0-0.3-0.2-0.5-0.5-0.5h-5.5c-0.2,0-0.5,0.2-0.5,0.5v28.6
		c0,0.3,0.2,0.5,0.5,0.5h5.5c0.2,0,0.5-0.2,0.5-0.5v-12.2h8.5c0,0,0,12.2,0,12.2c0,0.3,0.2,0.5,0.5,0.5h5.5c0.2,0,0.4-0.2,0.5-0.5
		V297.5z M546.4,301.3c0-2-1.6-3.6-3.5-3.6c-1.9,0-3.5,1.6-3.5,3.6c0,2,1.6,3.6,3.5,3.6C544.8,304.8,546.4,303.2,546.4,301.3z
		 M546,320.1c0-0.7,0-13.2,0-13.2c0-0.3-0.2-0.5-0.5-0.5h-5.4c-0.2,0-0.5,0.3-0.5,0.5c0,0,0,15.9,0,18.9c0,0.6,0.3,0.7,0.8,0.7
		c0,0,2.3,0,4.9,0c0.5,0,0.7-0.3,0.7-0.7C546,324.8,546,320.8,546,320.1z M607.4,306.5H602c-0.2,0-0.5,0.2-0.5,0.5v14
		c0,0-1.4,1-3.3,1s-2.5-0.9-2.5-2.8c0-1.9,0-12.2,0-12.2c0-0.3-0.2-0.5-0.5-0.5h-5.5c-0.2,0-0.5,0.2-0.5,0.5c0,0,0,7.5,0,13.1
		c0,5.7,3.2,7.1,7.5,7.1c3.6,0,6.5-2,6.5-2s0.1,1,0.2,1.2c0.1,0.1,0.2,0.2,0.4,0.2l3.5,0c0.2,0,0.5-0.2,0.5-0.5l0-19.2
		C607.8,306.7,607.6,306.5,607.4,306.5z M622.5,305.8c-3.1,0-5.2,1.4-5.2,1.4v-9.7c0-0.3-0.2-0.5-0.4-0.5h-5.5
		c-0.2,0-0.5,0.2-0.5,0.5v28.6c0,0.3,0.2,0.5,0.5,0.5h3.8c0.2,0,0.3-0.1,0.4-0.2c0.1-0.2,0.2-1.3,0.2-1.3s2.2,2.1,6.5,2.1
		c5,0,7.8-2.5,7.8-11.3C630.1,307,625.6,305.8,622.5,305.8z M620.4,321.9c-1.9-0.1-3.2-0.9-3.2-0.9v-9c0,0,1.3-0.8,2.8-0.9
		c2-0.2,3.8,0.4,3.8,5.1C623.8,321,623,322,620.4,321.9z M561.6,306.4h-4.1l0-5.4c0-0.2-0.1-0.3-0.3-0.3h-5.6
		c-0.2,0-0.3,0.1-0.3,0.3v5.6c0,0-2.8,0.7-3,0.7c-0.2,0.1-0.3,0.2-0.3,0.4v3.5c0,0.3,0.2,0.5,0.5,0.5h2.9c0,0,0,3.7,0,8.4
		c0,6.3,4.4,6.9,7.4,6.9c1.4,0,3-0.4,3.2-0.5c0.2-0.1,0.3-0.2,0.3-0.4l0-3.9c0-0.3-0.2-0.5-0.5-0.5c-0.2,0-0.8,0.1-1.5,0.1
		c-2,0-2.7-0.9-2.7-2.1c0-1.2,0-8,0-8h4.1c0.2,0,0.5-0.2,0.5-0.5v-4.4C562,306.6,561.8,306.4,561.6,306.4z"/>
	<g>
		<g>
			<defs>
				<path id="SVGID_1_" d="M360.5,213.5v0.9c0,1.6,0.1,2.9-0.7,4.4c-0.6,1.2-1.6,1.9-2.7,1.9c-1.5,0-2.4-1.2-2.4-3
					C354.7,214.1,357.7,213.5,360.5,213.5z M308.7,213.5v0.9c0,1.6,0.1,2.9-0.7,4.4c-0.6,1.2-1.6,1.9-2.7,1.9c-1.5,0-2.4-1.2-2.4-3
					C302.8,214.1,305.8,213.5,308.7,213.5z M396.6,205.8c1.3,0,2.2,0.6,2.6,2c0.5,1.7,0.6,3.8,0.6,5.6c0,2.7-0.1,7.2-3.2,7.2
					c-3.1,0-3.1-5.5-3.1-8.1C393.5,209.9,393.7,205.8,396.6,205.8z M371.6,201.8c-0.4,0-0.7,0.3-0.7,0.8v3c0,0.5,0.3,0.8,0.7,0.8
					h6.8l-7.8,11.6c-0.5,0.7-0.5,1.6-0.5,2.1v3.1c0,0.4,0.5,0.9,0.9,0.7c4.4-2.4,9.7-2.2,13.7-0.1c0.5,0.3,1-0.2,1-0.7v-3.2
					c0-0.4-0.2-0.8-0.7-1.1c-2.3-1.3-4.9-1.7-7.4-1.7l6.7-10c0.6-0.9,1-1.4,1-1.9v-2.6c0-0.4-0.3-0.8-0.7-0.8H371.6z M419.2,201.4
					c-2.7,0-4.3,1.4-5.4,4.3h-0.1v-3.2c-0.1-0.3-0.4-0.6-0.7-0.6h-3.7c-0.4,0-0.7,0.3-0.8,0.7v21.1c0,0.4,0.3,0.8,0.7,0.8h3.9
					c0.4,0,0.8-0.4,0.8-0.8v-11.3c0-1.4,0.1-2.7,0.7-4c0.4-1,1.3-1.7,2.3-1.7c2.7,0,2.5,3.4,2.5,5.7v11.5c0,0.4,0.4,0.7,0.7,0.7h4
					c0.4,0,0.7-0.3,0.8-0.7v-13.3c0-2,0-4.9-1-6.6C422.7,202.1,420.9,201.4,419.2,201.4z M396.6,201.4c-5.7,0-8.9,5.1-8.9,11.7
					c0,6.5,3.1,11.8,8.9,11.8c5.5,0,9.1-5.1,9.1-11.6C405.6,206.7,402.5,201.4,396.6,201.4z M329.3,201.4c-2.4,0-4.2,1.2-5.2,3.9
					H324v-2.8c0-0.4-0.3-0.7-0.7-0.7h-3.7c-0.4,0-0.8,0.4-0.8,0.8v21.1c0,0.4,0.3,0.7,0.7,0.7h4c0.4,0,0.8-0.4,0.8-0.8v-11.2
					c0-2.4-0.1-5.8,2.7-5.8c2.8,0,2.4,3.4,2.4,5.8v11.2c0,0.4,0.3,0.8,0.7,0.8h4c0.4,0,0.8-0.4,0.8-0.8v-11.2c0-1.2,0-2.9,0.4-4
					c0.4-1.1,1.4-1.8,2.4-1.8c1.1,0,2,0.4,2.3,1.8c0.2,0.8,0.1,3.1,0.1,4v11.2c0,0.4,0.3,0.8,0.7,0.8h4c0.4,0,0.8-0.4,0.8-0.8v-13.3
					c0-2.3,0.2-4.8-1-6.6c-1.1-1.6-2.9-2.3-4.6-2.3c-2.3,0-4.5,1.2-5.5,3.9C333.3,202.7,331.7,201.4,329.3,201.4z M358.4,201.2
					c-3.8,0-8,1.5-8.8,6.3c-0.1,0.5,0.2,0.8,0.6,0.8l3.9,0.5c0.4,0,0.6-0.4,0.7-0.8c0.3-1.7,1.7-2.4,3.2-2.4c0.8,0,1.7,0.3,2.2,1
					c0.6,0.8,0.5,2,0.5,3v0.6c-2.3,0.3-5.3,0.4-7.4,1.4c-2.5,1.1-4.2,3.4-4.2,6.7c0,4.3,2.6,6.4,5.9,6.4c2.8,0,4.4-0.7,6.5-3
					c0.7,1.1,0.9,1.6,2.3,2.7c0.3,0.2,0.7,0.1,0.9-0.1v0.1c0.8-0.7,2.2-2.1,3-2.8c0.3-0.3,0.2-0.7,0-1.1c-0.7-1-1.5-1.9-1.5-3.8
					v-6.4c0-2.7,0.2-5.2-1.7-7.1C362.8,201.8,360.3,201.2,358.4,201.2z M306.6,201.2c-3.8,0-8,1.5-8.8,6.3c-0.1,0.5,0.2,0.8,0.6,0.8
					l3.9,0.5c0.4,0,0.6-0.4,0.7-0.8c0.3-1.7,1.7-2.4,3.2-2.4c0.8,0,1.7,0.3,2.2,1c0.6,0.8,0.5,2,0.5,3v0.6c-2.3,0.3-5.3,0.4-7.5,1.4
					c-2.5,1.1-4.2,3.4-4.2,6.7c0,4.3,2.6,6.4,5.9,6.4c2.8,0,4.4-0.7,6.5-3c0.7,1.1,0.9,1.6,2.3,2.7c0.3,0.2,0.7,0.1,0.9-0.1v0.1
					c0.8-0.7,2.2-2.1,3-2.8c0.3-0.3,0.3-0.7,0-1.1c-0.7-1-1.5-1.9-1.5-3.8v-6.4c0-2.7,0.2-5.2-1.7-7.1
					C311,201.8,308.5,201.2,306.6,201.2z"/>
			</defs>
			<use xlink:href="#SVGID_1_"  style="overflow:visible;fill-rule:evenodd;clip-rule:evenodd;fill:#8992A1;"/>
			<clipPath id="SVGID_2_">
				<use xlink:href="#SVGID_1_"  style="overflow:visible;"/>
			</clipPath>
			<g class="st3">
				<defs>
					<rect id="SVGID_3_" x="-114.8" y="-5796.7" width="1410.9" height="8944.9"/>
				</defs>
				<use xlink:href="#SVGID_3_"  style="overflow:visible;fill:#8992A1;"/>
				<clipPath id="SVGID_4_">
					<use xlink:href="#SVGID_3_"  style="overflow:visible;"/>
				</clipPath>
				<rect x="291.5" y="195.7" class="st4" width="138.8" height="34.7"/>
			</g>
		</g>
		<g>
			<defs>
				<path id="SVGID_5_" d="M334,233.4c0.9,0,1.7,0.5,2.3,1.5c0.6,1,0.9,2.4,0.9,4.5c0,2-0.3,3.5-0.9,4.5c-0.6,1-1.4,1.5-2.2,1.5
					c-0.6,0-1.2-0.2-1.6-0.6c-0.5-0.4-0.9-1-1.1-1.8c-0.3-0.8-0.4-2-0.4-3.6c0-1.9,0.3-3.3,1-4.3C332.5,233.9,333.2,233.4,334,233.4
					z M321.3,233.4c1,0,1.8,0.5,2.4,1.5c0.4,0.7,0.7,1.7,0.8,3H318c0.1-1.4,0.4-2.5,1-3.3C319.6,233.8,320.4,233.4,321.3,233.4z
					 M408.6,232.8c1,0,1.8,0.5,2.5,1.5c0.4,0.7,0.7,1.7,0.8,3h-6.6c0.1-1.4,0.4-2.4,1.1-3.2C406.9,233.3,407.7,232.8,408.6,232.8z
					 M360.3,232.8c1,0,1.8,0.5,2.5,1.5c0.4,0.7,0.7,1.7,0.8,3H357c0.1-1.4,0.4-2.4,1.1-3.2C358.7,233.3,359.4,232.8,360.3,232.8z
					 M298.7,231.6l3.6,15.6h2.1l2.4-12l0.4,2.7l1.9,9.3h2.1l3.7-15.6h-1.9l-2,9l-0.7,3l-0.6-3l-1.7-9h-2.1l-1.9,9.1l-0.6,3.2
					l-0.7-3.3l-1.9-9H298.7z M321.3,231.2c-1.6,0-2.9,0.7-3.9,2.1c-1,1.4-1.6,3.5-1.6,6.1c0,2.6,0.5,4.6,1.5,5.9
					c1,1.4,2.4,2.1,4.1,2.1c1.3,0,2.4-0.5,3.3-1.3c0.9-0.8,1.5-2.1,1.9-3.7l-2-0.3c-0.6,2.1-1.6,3.2-3.1,3.2c-1,0-1.8-0.4-2.4-1.3
					c-0.7-0.9-1.1-2.2-1.1-4h8.7l0.1-0.7c0-2.6-0.5-4.7-1.5-6C324.1,231.9,322.8,231.2,321.3,231.2z M387.2,231v15.6h2V231H387.2z
					 M374.6,231l4.5,15.6h1.9l4.5-15.6h-2.1l-2.6,9.5c-0.3,1.2-0.6,2.1-0.8,3c-0.2-1-0.4-2.1-0.7-3.2l-2.6-9.3H374.6z M420.5,230.7
					c-1.4,0-2.5,0.4-3.3,1.2c-0.8,0.8-1.2,1.9-1.2,3.2c0,0.8,0.1,1.4,0.4,2c0.3,0.6,0.7,1.1,1.2,1.5c0.5,0.4,1.6,0.8,3.1,1.4
					c1.1,0.4,1.8,0.7,2.1,0.9c0.4,0.3,0.6,0.8,0.6,1.4c0,0.7-0.2,1.3-0.7,1.8c-0.5,0.5-1.1,0.7-2,0.7c-0.9,0-1.6-0.2-2.1-0.8
					c-0.5-0.5-0.9-1.3-1-2.4l-2,0.4c0.5,3.3,2.1,5,4.9,5c1.5,0,2.7-0.4,3.6-1.4c0.9-0.9,1.3-2.2,1.3-3.6c0-0.8-0.1-1.5-0.4-2.1
					s-0.7-1-1.2-1.4c-0.5-0.3-1.5-0.8-3.2-1.4c-1.2-0.4-2-0.7-2.2-0.9c-0.4-0.3-0.6-0.8-0.6-1.4c0-0.6,0.2-1.1,0.7-1.5
					c0.4-0.4,1.1-0.6,2-0.6c1.5,0,2.4,0.9,2.6,2.6l2-0.3c-0.1-1.1-0.4-1.9-0.7-2.5c-0.4-0.6-0.9-1.1-1.5-1.4
					C422.2,230.8,421.4,230.7,420.5,230.7z M408.6,230.7c-1.6,0-3,0.7-4,2.1c-1,1.4-1.5,3.5-1.5,6.1c0,2.6,0.5,4.6,1.5,6
					c1,1.4,2.4,2,4.1,2c1.3,0,2.4-0.4,3.3-1.2c0.9-0.8,1.6-2.1,1.9-3.7l-2.1-0.4c-0.6,2.1-1.6,3.2-3.1,3.2c-1,0-1.8-0.4-2.5-1.3
					c-0.7-0.9-1-2.2-1.1-4h8.8v-0.7c0-2.6-0.5-4.6-1.5-6C411.4,231.4,410.2,230.7,408.6,230.7z M397.2,230.7c-1.6,0-2.9,0.7-3.9,2
					c-1,1.4-1.5,3.4-1.5,6.1c0,2.7,0.5,4.7,1.5,6.1c1,1.4,2.3,2,3.8,2c1.3,0,2.4-0.5,3.3-1.5c0.9-1,1.5-2.4,1.7-4.3l-2-0.3
					c-0.1,1.3-0.5,2.3-1,2.9c-0.5,0.6-1.2,0.9-2,0.9c-1,0-1.8-0.5-2.4-1.4c-0.6-0.9-0.9-2.5-0.9-4.6c0-2.1,0.3-3.5,1-4.5
					c0.6-0.9,1.5-1.5,2.5-1.5c0.7,0,1.2,0.3,1.7,0.8c0.5,0.5,0.8,1.3,1,2.4l2-0.4c-0.2-1.6-0.8-2.9-1.6-3.7
					C399.4,231.1,398.4,230.7,397.2,230.7z M372.6,230.7c-0.5,0-0.9,0.2-1.3,0.5c-0.4,0.4-0.8,1.1-1.3,2.2V231h-1.8v15.6h2v-8.1
					c0-1.1,0.1-2.2,0.4-3.2c0.1-0.6,0.4-1,0.8-1.4c0.4-0.3,0.8-0.5,1.2-0.5c0.5,0,0.9,0.2,1.4,0.6l0.7-2.4
					C373.9,231,373.2,230.7,372.6,230.7z M360.4,230.7c-1.6,0-3,0.7-4,2.1c-1,1.4-1.5,3.5-1.5,6.1c0,2.6,0.5,4.6,1.5,6
					c1,1.4,2.4,2,4.1,2c1.3,0,2.4-0.4,3.3-1.2c0.9-0.8,1.6-2.1,1.9-3.7l-2.1-0.4c-0.6,2.1-1.7,3.2-3.2,3.2c-1,0-1.7-0.4-2.4-1.3
					c-0.7-0.9-1.1-2.2-1.1-4h8.8v-0.7c0-2.6-0.5-4.6-1.5-6C363.2,231.4,361.9,230.7,360.4,230.7z M348.1,230.7
					c-1.4,0-2.5,0.4-3.3,1.2c-0.8,0.8-1.2,1.9-1.2,3.2c0,0.8,0.2,1.4,0.5,2c0.3,0.6,0.7,1.1,1.2,1.5c0.5,0.4,1.6,0.8,3.1,1.4
					c1.1,0.4,1.7,0.7,2,0.9c0.4,0.3,0.6,0.8,0.6,1.4c0,0.7-0.2,1.3-0.7,1.8c-0.5,0.5-1.1,0.7-2,0.7c-0.9,0-1.6-0.2-2.1-0.8
					c-0.5-0.5-0.8-1.3-0.9-2.4l-2,0.4c0.5,3.3,2.1,5,4.9,5c1.5,0,2.7-0.4,3.5-1.4c0.9-0.9,1.3-2.2,1.3-3.6c0-0.8-0.1-1.5-0.4-2.1
					c-0.3-0.6-0.6-1-1.1-1.4c-0.5-0.3-1.6-0.8-3.2-1.4c-1.2-0.4-1.9-0.7-2.2-0.9c-0.4-0.3-0.6-0.8-0.6-1.4c0-0.6,0.2-1.1,0.6-1.5
					c0.4-0.4,1.1-0.6,2-0.6c1.5,0,2.4,0.9,2.6,2.6l2-0.3c-0.1-1.1-0.4-1.9-0.7-2.5c-0.4-0.6-0.9-1.1-1.5-1.4
					C349.7,230.8,349,230.7,348.1,230.7z M329.1,225.7v21.5h1.9v-1.9c0.4,0.8,0.8,1.3,1.4,1.7c0.5,0.4,1.2,0.6,1.9,0.6
					c1.4,0,2.5-0.7,3.5-2.1c1-1.4,1.5-3.5,1.5-6.1c0-1.7-0.2-3.2-0.7-4.4c-0.4-1.2-1-2.1-1.8-2.7c-0.8-0.6-1.6-0.9-2.5-0.9
					c-0.7,0-1.3,0.2-1.8,0.5c-0.5,0.3-1,0.9-1.4,1.6v-7.7H329.1z M387.2,225.1v3h2v-3H387.2z"/>
			</defs>
			<use xlink:href="#SVGID_5_"  style="overflow:visible;fill-rule:evenodd;clip-rule:evenodd;fill:#8992A1;"/>
			<clipPath id="SVGID_6_">
				<use xlink:href="#SVGID_5_"  style="overflow:visible;"/>
			</clipPath>
			<g class="st5">
				<defs>
					<rect id="SVGID_7_" x="-114.8" y="-5796.7" width="1410.9" height="8944.9"/>
				</defs>
				<use xlink:href="#SVGID_7_"  style="overflow:visible;fill:#8992A1;"/>
				<clipPath id="SVGID_8_">
					<use xlink:href="#SVGID_7_"  style="overflow:visible;"/>
				</clipPath>
				<rect x="293.2" y="219.6" class="st6" width="137.9" height="33.4"/>
			</g>
		</g>
		<g>
			<defs>
				<path id="SVGID_9_" d="M280.4,221.1l-10.1,3.9v14.7l10.1-4.2V221.1z M257.3,221.1l-0.3,15l11.2,5v-15.6L257.3,221.1z
					 M268.8,216.9l-7.7,3.3l7.1,3.1l8.2-3.1L268.8,216.9z"/>
			</defs>
			<use xlink:href="#SVGID_9_"  style="overflow:visible;fill-rule:evenodd;clip-rule:evenodd;fill:#8992A1;"/>
			<clipPath id="SVGID_10_">
				<use xlink:href="#SVGID_9_"  style="overflow:visible;"/>
			</clipPath>
			<g class="st7">
				<defs>
					<rect id="SVGID_11_" x="-114.8" y="-5796.7" width="1410.9" height="8944.9"/>
				</defs>
				<use xlink:href="#SVGID_11_"  style="overflow:visible;fill:#8992A1;"/>
				<clipPath id="SVGID_12_">
					<use xlink:href="#SVGID_11_"  style="overflow:visible;"/>
				</clipPath>
				<rect x="251.6" y="211.4" class="st8" width="34.3" height="35.2"/>
			</g>
		</g>
		<g>
			<defs>
				<path id="SVGID_13_" d="M303.2,179.7l-9.1,3.9v14.7l9.1-4.2V179.7z M281.8,178.9v15l9.6,2.8l0.3-13.6L281.8,178.9z M292.5,174.4
					l-7.7,3.3l7.1,3.1l8.2-3.1L292.5,174.4z"/>
			</defs>
			<use xlink:href="#SVGID_13_"  style="overflow:visible;fill-rule:evenodd;clip-rule:evenodd;fill:#8992A1;"/>
			<clipPath id="SVGID_14_">
				<use xlink:href="#SVGID_13_"  style="overflow:visible;"/>
			</clipPath>
			<g class="st9">
				<defs>
					<rect id="SVGID_15_" x="-114.8" y="-5796.7" width="1410.9" height="8944.9"/>
				</defs>
				<use xlink:href="#SVGID_15_"  style="overflow:visible;fill:#8992A1;"/>
				<clipPath id="SVGID_16_">
					<use xlink:href="#SVGID_15_"  style="overflow:visible;"/>
				</clipPath>
				<rect x="276.2" y="168.9" class="st10" width="32.4" height="34.9"/>
			</g>
		</g>
		<g>
			<defs>
				<path id="SVGID_17_" d="M267.7,199.7l-10.1,3.9v14.7l10.1-4.2V199.7z M244.7,199.7l-0.3,15l11.2,5v-15.6L244.7,199.7z
					 M256.2,195.5l-7.7,3.3l7.1,3.1l8.2-3.1L256.2,195.5z"/>
			</defs>
			<use xlink:href="#SVGID_17_"  style="overflow:visible;fill-rule:evenodd;clip-rule:evenodd;fill:#8992A1;"/>
			<clipPath id="SVGID_18_">
				<use xlink:href="#SVGID_17_"  style="overflow:visible;"/>
			</clipPath>
			<g class="st11">
				<defs>
					<rect id="SVGID_19_" x="-114.8" y="-5796.7" width="1410.9" height="8944.9"/>
				</defs>
				<use xlink:href="#SVGID_19_"  style="overflow:visible;fill:#8992A1;"/>
				<clipPath id="SVGID_20_">
					<use xlink:href="#SVGID_19_"  style="overflow:visible;"/>
				</clipPath>
				<rect x="238.9" y="190" class="st12" width="34.3" height="35.2"/>
			</g>
		</g>
		<g>
			<defs>
				<path id="SVGID_21_" d="M292.4,199.1l-10.1,3.9v14.7l10.1-4.2V199.1z M269.4,199.1l-0.3,15l11.2,5v-15.6L269.4,199.1z
					 M280.9,195l-7.7,3.3l7.1,3.1l8.2-3.1L280.9,195z"/>
			</defs>
			<use xlink:href="#SVGID_21_"  style="overflow:visible;fill-rule:evenodd;clip-rule:evenodd;fill:#8992A1;"/>
			<clipPath id="SVGID_22_">
				<use xlink:href="#SVGID_21_"  style="overflow:visible;"/>
			</clipPath>
			<g class="st13">
				<defs>
					<rect id="SVGID_23_" x="-114.8" y="-5796.7" width="1410.9" height="8944.9"/>
				</defs>
				<use xlink:href="#SVGID_23_"  style="overflow:visible;fill:#8992A1;"/>
				<clipPath id="SVGID_24_">
					<use xlink:href="#SVGID_23_"  style="overflow:visible;"/>
				</clipPath>
				<rect x="263.6" y="189.5" class="st14" width="34.3" height="35.2"/>
			</g>
		</g>
		<g>
			<defs>
				<path id="SVGID_25_" d="M328.1,178.6l-10.1,3.9v14.7l10.1-4.2V178.6z M305,178.6l-0.3,15l11.2,5V183L305,178.6z M316.6,174.4
					l-7.7,3.3l7.1,3.1l8.2-3.1L316.6,174.4z"/>
			</defs>
			<use xlink:href="#SVGID_25_"  style="overflow:visible;fill-rule:evenodd;clip-rule:evenodd;fill:#8992A1;"/>
			<clipPath id="SVGID_26_">
				<use xlink:href="#SVGID_25_"  style="overflow:visible;"/>
			</clipPath>
			<g class="st15">
				<defs>
					<rect id="SVGID_27_" x="-114.8" y="-5796.7" width="1410.9" height="8944.9"/>
				</defs>
				<use xlink:href="#SVGID_27_"  style="overflow:visible;fill:#8992A1;"/>
				<clipPath id="SVGID_28_">
					<use xlink:href="#SVGID_27_"  style="overflow:visible;"/>
				</clipPath>
				<rect x="299.3" y="168.9" class="st16" width="34.3" height="35.2"/>
			</g>
		</g>
	</g>
	<g>
		<defs>
			<path id="SVGID_29_" d="M359,460.8c10.5-0.6,18.8,6.2,19.4,16.7c0.7,12-8.9,24.3-21.4,27.5c-4.3,1.1-8.4,1-11.9-0.1
				c-0.3-4.7,0.7-9.7,2.7-13.1c3.3-5.6,8.3-5.1,11.2,1.1c1.1,2.3,1.7,5.2,1.9,8.1c1-0.5,2-1.1,2.9-1.8c-3.1-7.5-4.5-16.4,6.6-32.1
				c-3.2-2.6-8.2-3.8-14.4-3C357,462.9,358,461.9,359,460.8z M356.5,473.5c-0.9,1.9-0.5,3.4,0.8,3.5c1.3,0,3.2-1.5,4.1-3.4
				c0.9-1.9,0.5-3.4-0.8-3.5C359.2,470.1,357.4,471.7,356.5,473.5z M355.5,468.2c-9.4,11.5-13.4,26.4-12.8,39.8
				c-5.5-2.2-9.6-7.6-10-14.3l0-0.1c-0.7-12,8.9-24.3,21.4-27.5c4.9-1.2,9.5-0.9,13.3,0.7c-0.8,2.3-2.1,4.9-3.5,6.8
				c-2.8,4.1-6.8,6.7-8.9,5.8c-2.1-0.9-1.6-5,1.2-9.1c0.6-0.9,1.4-1.8,2.1-2.6C357.4,467.8,356.5,468,355.5,468.2z M446.6,474.2
				l-3.3,17.3l8.5-9.7h6.9l-8.8,9.9l5.3,11.6h-6.8l-5.2-11.5l-2.2,11.5h-6.3l5.5-28.9L446.6,474.2L446.6,474.2z M392.6,483.7
				c1.5-1.6,3.2-2.5,5.2-2.5c0.4,0,0.8,0,1.2,0.1l-1.2,6.2c-0.2,0-0.6-0.1-1-0.1c-4.3,0-6,4.2-6.7,7.7l-1.5,8.2h-6.4l4.1-21.7h5.6
				l-0.3,1.5c-0.3,1.4-0.7,2.2-1,2.6l0,0.1c-0.1,0.2,0.1,0.4,0.2,0.5c0.2,0.1,0.4,0.1,0.5-0.1l0-0.1
				C391.5,485.7,391.8,484.7,392.6,483.7z M457.7,488.7c0-4.4,3.8-7.4,9.4-7.4c2.6,0,4.5,0.6,5.5,1.1l0,0l-0.9,4.8l0,0
				c-1.1-0.6-2.9-1.2-4.8-1.2c-1.6,0-2.7,0.7-2.7,1.8c0,0.8,0.8,1.6,2.6,2.4c2.3,1.1,4.8,2.8,4.8,5.8c0,2-0.7,3.6-2,4.9
				c-1.7,1.7-4.5,2.7-7.9,2.6c-2.6,0-5.2-0.7-6.5-1.7l0,0l0.9-4.8l0,0c1.4,0.9,4.2,1.8,6.2,1.8c1.6,0,2.6-0.7,2.6-1.9
				c0-1.1-0.7-1.8-2.6-2.7C459.2,492.8,457.7,490.9,457.7,488.7z M417.9,494.8c0-7.7,6-13.5,14-13.5c1.6,0,3.2,0.3,4.4,0.7
				c0,0,0,0,0,0l-1,5.2l0,0c-1-0.5-2.1-0.8-3.5-0.8c-4.5,0-7.2,3.9-7.2,7.7c0,3.2,2.2,4.4,4.2,4.4c1.8,0,3.3-0.4,5.3-1.3l0.1,0
				l-1,5.3l0,0c-1.5,0.7-3.7,1.1-6.1,1.1C421.4,503.6,417.9,500.2,417.9,494.8z M408.7,486.1c-0.9,0-1.8,0.4-2.6,1.3
				c-1.7,1.7-3,4.9-3,7.5c0,2.2,0.8,3.6,2.3,3.6c2.3,0,4.3-2.4,5-6c0.2-0.8,0.3-1.6,0.4-2.3c0.1-0.7,0.2-1.3,0.2-1.8
				C410.9,486.9,410.1,486.1,408.7,486.1z M408.5,503.2l0.2-1c0.2-0.9,0.9-2,1.1-2.4l0-0.1c0.1-0.2,0-0.4-0.2-0.5
				c-0.2-0.1-0.4,0-0.5,0.2l0,0.1c-0.1,0.5-0.4,1.5-1.3,2.4c-1.2,1.1-3,1.8-4.9,1.8c-4.2,0-6.1-3.7-6.1-7.5c0-4.3,1.7-8.5,4.5-11.3
				c2.4-2.4,5.4-3.6,8.8-3.6c2.6,0,4.5,0.8,5.7,2.2c1.8,2.1,1.6,5.4,1.2,7.7l-2.3,12H408.5z M480.1,493.2c-0.3,1.4-1,5.6,1.9,5.6
				c3.3,0,5.8-4.7,5.8-8.9c0-1-0.2-3.5-2.6-3.5C482.8,486.4,480.8,489.1,480.1,493.2z M482.4,483.2c1.4-1.2,3.2-1.9,5-1.9
				c4.2,0,6.9,3.2,6.9,8.2c0,5.2-2.5,10.6-7,13c-3.5,1.9-6.7,1.4-8.3,0.2c-0.4-0.3-0.5-1.1-0.5-1.4l0-0.1c-0.1-0.2-0.3-0.3-0.5-0.2
				c-0.2,0.1-0.3,0.3-0.3,0.5l0,0.1c0.3,0.5,0.5,0.9,0.4,1.3l-1.4,7.2h-6.4l5.4-28.5h5.6l-0.2,1c-0.3,1.5-0.8,2.1-1.1,2.5l0,0.1
				c-0.1,0.2,0,0.4,0.2,0.5c0.2,0.1,0.4,0.1,0.6-0.1l0-0.1C481.1,485,481.5,483.9,482.4,483.2z M546.6,489c0.4-0.3,0.5-0.8,0.5-1.3
				c0-1.1-0.9-1.8-2.3-1.8c-2.1,0-3.6,1.3-4.5,2.9c-0.6,1.1-0.8,1.2-1.3,1.6l-0.1,0c-0.2,0.1-0.1,0.4,0,0.5c0.1,0.1,0.4,0.2,0.5,0.1
				l0.1-0.1c0.4-0.5,0.5-0.7,2.2-0.8C544.3,490.1,545.8,489.7,546.6,489z M538.3,494.3L538.3,494.3c0.6,0.6,1,1.4,1.1,1.6
				c0.1,0.4,0.3,0.8,0.5,1.1c0.8,1,2.3,1.6,4.1,1.6c2.6,0,4.9-0.6,7.4-2.1l0.1,0l-1,5.3c-3,1.5-6.6,1.7-8,1.7c-5.9,0-9.3-3.3-9.3-9
				c0-3.3,1.2-6.6,3.3-9.1c2.3-2.7,5.6-4.2,9.1-4.2c4.5,0,7.5,2.6,7.5,6.4c0,1.8-0.6,3.2-1.7,4.4c-1.9,1.9-5.4,2.8-10.6,2.9
				c-1.3,0-1.5-0.6-1.8-1.1l0-0.1c-0.1-0.2-0.4-0.1-0.6,0C538.2,493.9,538.1,494.1,538.3,494.3z M506.8,486.1
				c-0.9,0-1.8,0.4-2.6,1.3c-1.7,1.7-3,4.9-3,7.5c0,2.2,0.8,3.6,2.3,3.6c2.3,0,4.3-2.4,5-6c0.2-0.8,0.3-1.6,0.4-2.3
				c0.1-0.7,0.2-1.3,0.2-1.8C509,486.9,508.2,486.1,506.8,486.1z M506.5,503.2l0.2-1c0.2-0.9,0.9-2,1.1-2.4l0-0.1
				c0.1-0.2,0-0.4-0.2-0.5c-0.2-0.1-0.4,0-0.5,0.2l0,0.1c-0.1,0.5-0.4,1.5-1.3,2.4c-1.2,1.1-3,1.8-4.9,1.8c-4.2,0-6.1-3.7-6.1-7.5
				c0-4.3,1.7-8.5,4.5-11.3c2.4-2.4,5.4-3.6,8.8-3.6c2.6,0,4.5,0.8,5.7,2.2c1.8,2.1,1.6,5.4,1.2,7.7l-2.3,12H506.5z M516,494.8
				c0-7.7,6-13.5,14-13.5c1.6,0,3.2,0.3,4.4,0.7c0,0,0,0,0,0l-1,5.2l0,0c-1-0.5-2.1-0.8-3.5-0.8c-4.5,0-7.2,3.9-7.2,7.7
				c0,3.2,2.2,4.4,4.2,4.4c1.8,0,3.3-0.4,5.3-1.3l0.1,0l-1,5.3l0,0c-1.5,0.7-3.7,1.1-6.1,1.1C519.5,503.6,516,500.2,516,494.8z"/>
		</defs>
		<use xlink:href="#SVGID_29_"  style="overflow:visible;fill-rule:evenodd;clip-rule:evenodd;fill:#8992A1;"/>
		<clipPath id="SVGID_30_">
			<use xlink:href="#SVGID_29_"  style="overflow:visible;"/>
		</clipPath>
		<g class="st17">
			<defs>
				<rect id="SVGID_31_" x="-145.2" y="-4988.8" width="1353.3" height="8579.7"/>
			</defs>
			<use xlink:href="#SVGID_31_"  style="overflow:visible;fill:#8992A1;"/>
			<clipPath id="SVGID_32_">
				<use xlink:href="#SVGID_31_"  style="overflow:visible;"/>
			</clipPath>
			<rect x="327.4" y="455.5" class="st18" width="231" height="59.8"/>
		</g>
	</g>
	<g>
		<path class="st2" d="M724.3,77.3h17.5v4.6h-12.1v7.3h10.5v4.6h-10.5v10.8h-5.4V77.3z"/>
		<path class="st2" d="M754.1,81.8h-8.8v-4.5h23v4.5h-8.8v22.8h-5.5V81.8z"/>
		<path class="st2" d="M772.9,77.3h8.9c2,0,3.7,0.4,5.2,1.1c1.5,0.7,2.7,1.7,3.5,3.1c0.8,1.3,1.3,2.9,1.3,4.7c0,2.8-0.9,4.9-2.7,6.6
			c-1.8,1.6-4.3,2.5-7.3,2.5h-3.6v9.3h-5.3V77.3z M778.2,90.8h2.8c1.8,0,3.2-0.4,4.1-1.2c0.9-0.8,1.4-1.9,1.4-3.4
			c0-1.5-0.5-2.6-1.4-3.4c-0.9-0.8-2.3-1.1-4.1-1.1h-2.8V90.8z"/>
	</g>
</g>
</svg>
