<?xml version="1.0" encoding="utf-8"?>
<!-- Generator: Adobe Illustrator 19.2.1, SVG Export Plug-In . SVG Version: 6.00 Build 0)  -->
<svg version="1.1" id="Layer_1" xmlns="http://www.w3.org/2000/svg" xmlns:xlink="http://www.w3.org/1999/xlink" x="0px" y="0px"
	 viewBox="0 0 261.9 146.8" style="enable-background:new 0 0 261.9 146.8;" xml:space="preserve">
<style type="text/css">
	.st0{fill:#FFFFFF;}
	.st1{fill:none;stroke:#FFFFFF;stroke-width:0.4;stroke-miterlimit:10;}
	.st2{fill:#8992A1;}
	.st3{clip-path:url(#SVGID_2_);}
	.st4{clip-path:url(#SVGID_4_);fill:#8992A1;}
	.st5{clip-path:url(#SVGID_6_);}
	.st6{clip-path:url(#SVGID_8_);fill:#8992A1;}
	.st7{clip-path:url(#SVGID_10_);}
	.st8{clip-path:url(#SVGID_12_);fill:#8992A1;}
	.st9{clip-path:url(#SVGID_14_);}
	.st10{clip-path:url(#SVGID_16_);fill:#8992A1;}
	.st11{clip-path:url(#SVGID_18_);}
	.st12{clip-path:url(#SVGID_20_);fill:#8992A1;}
	.st13{clip-path:url(#SVGID_22_);}
	.st14{clip-path:url(#SVGID_24_);fill:#8992A1;}
	.st15{clip-path:url(#SVGID_26_);}
	.st16{clip-path:url(#SVGID_28_);fill:#8992A1;}
	.st17{clip-path:url(#SVGID_30_);}
	.st18{clip-path:url(#SVGID_32_);fill:#8992A1;}
</style>
<circle class="st0" cx="150.8" cy="18.8" r="0.6"/>
<circle class="st0" cx="148.2" cy="130.1" r="0.6"/>
<circle class="st0" cx="199.5" cy="107.3" r="0.6"/>
<circle class="st0" cx="12.4" cy="90.4" r="0.6"/>
<circle class="st0" cx="238.4" cy="9" r="0.6"/>
<circle class="st0" cx="35.8" cy="33.9" r="0.6"/>
<path class="st0" d="M186,92.2c0.3-0.2,0.3-0.4-0.1-0.4h-0.7l-0.2-0.7c-0.1-0.4-0.3-0.4-0.4,0l-0.2,0.7h-0.7c-0.4,0-0.5,0.2-0.1,0.4
	l0.6,0.4l-0.2,0.7c-0.1,0.4,0,0.5,0.4,0.3l0,0l0.6-0.4l0.6,0.4c0.3,0.2,0.5,0.1,0.4-0.3l-0.2-0.7L186,92.2z"/>
<path class="st0" d="M210.1,132.1c0.3-0.2,0.3-0.4-0.1-0.4h-0.7L209,131c-0.1-0.4-0.3-0.4-0.4,0l-0.2,0.7h-0.7
	c-0.4,0-0.5,0.2-0.1,0.4l0.6,0.4l-0.2,0.7c-0.1,0.4,0,0.5,0.4,0.3l0,0l0.6-0.4l0.6,0.4c0.3,0.2,0.5,0.1,0.4-0.3l-0.2-0.7
	L210.1,132.1z"/>
<path class="st0" d="M219.6,45.7c0.3-0.2,0.3-0.4-0.1-0.4h-0.7l-0.2-0.7c-0.1-0.4-0.3-0.4-0.4,0l-0.2,0.7h-0.7
	c-0.4,0-0.5,0.2-0.1,0.4l0.6,0.4l-0.2,0.7c-0.1,0.4,0,0.5,0.4,0.3l0,0l0.6-0.4l0.6,0.4c0.3,0.2,0.5,0.1,0.4-0.3l-0.2-0.7L219.6,45.7
	z"/>
<path class="st0" d="M193.4,82c0.3-0.2,0.3-0.4-0.1-0.4h-0.7l-0.2-0.7c-0.1-0.4-0.3-0.4-0.4,0l-0.2,0.7h-0.7c-0.4,0-0.5,0.2-0.1,0.4
	l0.6,0.4l-0.2,0.7c-0.1,0.4,0,0.5,0.4,0.3l0,0l0.6-0.4l0.6,0.4c0.3,0.2,0.5,0.1,0.4-0.3l-0.2-0.7L193.4,82z"/>
<path class="st0" d="M261.7,46.9c0.3-0.2,0.3-0.4-0.1-0.4h-0.7l-0.2-0.7c-0.1-0.4-0.3-0.4-0.4,0l-0.2,0.7h-0.7
	c-0.4,0-0.5,0.2-0.1,0.4l0.6,0.4l-0.2,0.7c-0.1,0.4,0,0.5,0.4,0.3l0,0l0.6-0.4l0.6,0.4c0.3,0.2,0.5,0.1,0.4-0.3l-0.2-0.7L261.7,46.9
	z"/>
<path class="st0" d="M260.5,89.9c0.3-0.2,0.3-0.4-0.1-0.4h-0.7l-0.2-0.7c-0.1-0.4-0.3-0.4-0.4,0l-0.2,0.7h-0.7
	c-0.4,0-0.5,0.2-0.1,0.4l0.6,0.4l-0.2,0.7c-0.1,0.4,0,0.5,0.4,0.3l0,0l0.6-0.4l0.6,0.4c0.3,0.2,0.5,0.1,0.4-0.3l-0.2-0.7L260.5,89.9
	z"/>
<path class="st0" d="M38.1,145.4c0.3-0.2,0.3-0.4-0.1-0.4h-0.7l-0.2-0.7c-0.1-0.4-0.3-0.4-0.4,0l-0.2,0.7h-0.7
	c-0.4,0-0.5,0.2-0.1,0.4l0.6,0.4l-0.2,0.7c-0.1,0.4,0,0.5,0.4,0.3l0,0l0.6-0.4l0.6,0.4c0.3,0.2,0.5,0.1,0.4-0.3l-0.2-0.7L38.1,145.4
	z"/>
<path class="st0" d="M58.6,81c0.3-0.2,0.3-0.4-0.1-0.4h-0.7l-0.2-0.7c-0.1-0.4-0.3-0.4-0.4,0l-0.2,0.7h-0.7c-0.4,0-0.5,0.2-0.1,0.4
	l0.6,0.4l-0.2,0.7c-0.1,0.4,0,0.5,0.4,0.3l0,0l0.6-0.4l0.6,0.4c0.3,0.2,0.5,0.1,0.4-0.3L58,81.4L58.6,81z"/>
<path class="st0" d="M72.1,136.2c0.3-0.2,0.3-0.4-0.1-0.4h-0.7l-0.2-0.7c-0.1-0.4-0.3-0.4-0.4,0l-0.2,0.7h-0.7
	c-0.4,0-0.5,0.2-0.1,0.4l0.6,0.4l-0.2,0.7c-0.1,0.4,0,0.5,0.4,0.3l0,0l0.6-0.4l0.6,0.4c0.3,0.2,0.5,0.1,0.4-0.3l-0.2-0.7L72.1,136.2
	z"/>
<path class="st0" d="M23.1,64.7c0.3-0.2,0.3-0.4-0.1-0.4h-0.7L22,63.6c-0.1-0.4-0.3-0.4-0.4,0l-0.2,0.7h-0.7c-0.4,0-0.5,0.2-0.1,0.4
	l0.6,0.4l-0.2,0.7c-0.1,0.4,0,0.5,0.4,0.3l0,0l0.6-0.4l0.6,0.4c0.3,0.2,0.5,0.1,0.4-0.3l-0.2-0.7L23.1,64.7z"/>
<path class="st0" d="M48.5,6.5c0.3-0.2,0.3-0.4-0.1-0.4h-0.7l-0.2-0.7C47.3,5,47.1,5,47,5.4l-0.2,0.7h-0.7c-0.4,0-0.5,0.2-0.1,0.4
	l0.6,0.4l-0.2,0.7c-0.1,0.4,0,0.5,0.4,0.3l0,0l0.6-0.4l0.6,0.4c0.3,0.2,0.5,0.1,0.4-0.3L48,6.9L48.5,6.5z"/>
<path class="st0" d="M132.3,48.9h-1.2l-0.4-1.1l0,0c-0.2-0.6-0.5-0.6-0.7,0l-0.4,1.1h-1.2c-0.7,0-0.8,0.3-0.2,0.7l1,0.7l-0.4,1.1v0
	c-0.2,0.6,0.1,0.8,0.6,0.4l0,0l1-0.7l1,0.7c0.5,0.4,0.8,0.2,0.6-0.4l-0.4-1.1l1-0.7v0C133,49.2,132.9,48.9,132.3,48.9z M130.4,50.4
	c-0.3,0-0.6-0.3-0.6-0.6c0-0.3,0.3-0.6,0.6-0.6c0.3,0,0.6,0.3,0.6,0.6C131,50.1,130.7,50.4,130.4,50.4z"/>
<path class="st0" d="M237.5,131.8h-1.2l-0.4-1.1c0,0,0,0,0,0c-0.2-0.6-0.5-0.6-0.7,0l-0.4,1.1h-1.2c-0.7,0-0.8,0.3-0.2,0.7l1,0.7
	l-0.4,1.1v0c-0.2,0.6,0.1,0.8,0.6,0.4l0,0l1-0.7l1,0.7c0.5,0.4,0.8,0.2,0.6-0.4l-0.4-1.1l1-0.7v0
	C238.3,132.1,238.2,131.8,237.5,131.8z M235.6,133.3c-0.3,0-0.6-0.3-0.6-0.6c0-0.3,0.3-0.6,0.6-0.6c0.3,0,0.6,0.3,0.6,0.6
	C236.2,133.1,235.9,133.3,235.6,133.3z"/>
<path class="st0" d="M247.1,48.6h-1.2l-0.4-1.1c0,0,0,0,0,0c-0.2-0.6-0.5-0.6-0.7,0l-0.4,1.1h-1.2c-0.7,0-0.8,0.3-0.2,0.7l1,0.7
	l-0.4,1.1v0c-0.2,0.6,0.1,0.8,0.6,0.4l0,0l1-0.7l1,0.7c0.5,0.4,0.8,0.2,0.6-0.4l-0.4-1.1l1-0.7v0C247.8,48.9,247.7,48.6,247.1,48.6z
	 M245.1,50.1c-0.3,0-0.6-0.3-0.6-0.6c0-0.3,0.3-0.6,0.6-0.6c0.3,0,0.6,0.3,0.6,0.6C245.8,49.9,245.5,50.1,245.1,50.1z"/>
<path class="st0" d="M224.9,98.9h-1.2l-0.4-1.1l0,0c-0.2-0.6-0.5-0.6-0.7,0l-0.4,1.1H221c-0.7,0-0.8,0.3-0.2,0.7l1,0.7l-0.4,1.1
	c0,0,0,0,0,0c-0.2,0.6,0.1,0.8,0.6,0.4l0,0l1-0.7l1,0.7c0.5,0.4,0.8,0.2,0.6-0.4l-0.4-1.1l1-0.7v0C225.6,99.2,225.5,98.9,224.9,98.9
	z M222.9,100.4c-0.3,0-0.6-0.3-0.6-0.6c0-0.3,0.3-0.6,0.6-0.6c0.3,0,0.6,0.3,0.6,0.6C223.6,100.2,223.3,100.4,222.9,100.4z"/>
<path class="st0" d="M69.1,89h-1.2l-0.4-1.1l0,0c-0.2-0.6-0.5-0.6-0.7,0L66.4,89h-1.2c-0.7,0-0.8,0.3-0.2,0.7l1,0.7l-0.4,1.1v0
	c-0.2,0.6,0.1,0.8,0.6,0.4l0,0l1-0.7l1,0.7c0.5,0.4,0.8,0.2,0.6-0.4l-0.4-1.1l1-0.7v0C69.8,89.3,69.7,89,69.1,89z M67.1,90.5
	c-0.3,0-0.6-0.3-0.6-0.6c0-0.3,0.3-0.6,0.6-0.6c0.3,0,0.6,0.3,0.6,0.6C67.7,90.2,67.5,90.5,67.1,90.5z"/>
<path class="st0" d="M82,1.6h-1.2l-0.4-1.1l0,0c-0.2-0.6-0.5-0.6-0.7,0l-0.4,1.1h-1.2c-0.7,0-0.8,0.3-0.2,0.7l1,0.7l-0.4,1.1v0
	c-0.2,0.6,0.1,0.8,0.6,0.4l0,0l1-0.7l1,0.7c0.5,0.4,0.8,0.2,0.6-0.4L81.3,3l1-0.7v0C82.8,1.9,82.7,1.6,82,1.6z M80.1,3.1
	c-0.3,0-0.6-0.3-0.6-0.6c0-0.3,0.3-0.6,0.6-0.6c0.3,0,0.6,0.3,0.6,0.6C80.7,2.8,80.4,3.1,80.1,3.1z"/>
<path class="st0" d="M231.2,7.5l-0.6-0.6l0.6-0.6c0.3-0.3,0.2-0.5-0.3-0.4l0,0L230.1,6l-0.3-0.8v0c-0.1-0.5-0.4-0.5-0.5,0L229.1,6
	l-0.8-0.2h0c-0.5-0.1-0.6,0.1-0.3,0.4l0,0l0.6,0.6L228,7.5l0,0c-0.3,0.3-0.2,0.5,0.3,0.4h0l0.8-0.2l0.3,0.8c0.1,0.5,0.4,0.5,0.5,0
	l0.3-0.8l0.8,0.2l0,0C231.4,8,231.5,7.8,231.2,7.5z"/>
<path class="st0" d="M138,97.9l-0.6-0.6l0.6-0.6c0.3-0.3,0.2-0.5-0.3-0.4l0,0l-0.8,0.2l-0.3-0.8v0c-0.1-0.5-0.4-0.5-0.5,0l-0.3,0.8
	l-0.8-0.2h0c-0.5-0.1-0.6,0.1-0.3,0.4l0,0l0.6,0.6l-0.6,0.6l0,0c-0.3,0.3-0.2,0.5,0.3,0.4h0l0.8-0.2l0.3,0.8c0.1,0.5,0.4,0.5,0.5,0
	l0.3-0.8l0.8,0.2l0,0C138.2,98.5,138.3,98.3,138,97.9z"/>
<path class="st0" d="M59.3,107.6l-0.6-0.6l0.6-0.6c0.3-0.3,0.2-0.5-0.3-0.4l0,0l-0.8,0.2l-0.3-0.8v0c-0.1-0.5-0.4-0.5-0.5,0
	l-0.3,0.8l-0.8-0.2h0c-0.5-0.1-0.6,0.1-0.3,0.4l0,0l0.6,0.6l-0.6,0.6l0,0c-0.3,0.3-0.2,0.5,0.3,0.4h0l0.8-0.2l0.3,0.8
	c0.1,0.5,0.4,0.5,0.5,0l0.3-0.8l0.8,0.2l0,0C59.6,108.2,59.7,108,59.3,107.6z"/>
<path class="st0" d="M226.5,136.1l-0.6-0.6l0.6-0.6c0.3-0.3,0.2-0.5-0.3-0.4l0,0l-0.8,0.2l-0.3-0.8v0c-0.1-0.5-0.4-0.5-0.5,0
	l-0.3,0.8l-0.8-0.2h0c-0.5-0.1-0.6,0.1-0.3,0.4l0,0l0.6,0.6l-0.6,0.6l0,0c-0.3,0.3-0.2,0.5,0.3,0.4h0l0.8-0.2l0.3,0.8
	c0.1,0.5,0.4,0.5,0.5,0l0.3-0.8l0.8,0.2l0,0C226.7,136.7,226.9,136.5,226.5,136.1z"/>
<path class="st0" d="M199.6,125.7l-0.6-0.6l0.6-0.6c0.3-0.3,0.2-0.5-0.3-0.4l0,0l-0.8,0.2l-0.3-0.8v0c-0.1-0.5-0.4-0.5-0.5,0
	l-0.3,0.8l-0.8-0.2h0c-0.5-0.1-0.6,0.1-0.3,0.4l0,0l0.6,0.6l-0.6,0.6l0,0c-0.3,0.3-0.2,0.5,0.3,0.4h0l0.8-0.2l0.3,0.8
	c0.1,0.5,0.4,0.5,0.5,0l0.3-0.8l0.8,0.2l0,0C199.8,126.2,200,126,199.6,125.7z"/>
<path class="st0" d="M205.6,38l-0.6-0.6l0.6-0.6c0.3-0.3,0.2-0.5-0.3-0.4l0,0l-0.8,0.2l-0.3-0.8v0c-0.1-0.5-0.4-0.5-0.5,0l-0.3,0.8
	l-0.8-0.2h0c-0.5-0.1-0.6,0.1-0.3,0.4l0,0l0.6,0.6l-0.6,0.6l0,0c-0.3,0.3-0.2,0.5,0.3,0.4h0l0.8-0.2l0.3,0.8c0.1,0.5,0.4,0.5,0.5,0
	l0.3-0.8l0.8,0.2l0,0C205.8,38.5,205.9,38.3,205.6,38z"/>
<path class="st0" d="M87.2,79.6L86.6,79l0.6-0.6c0.3-0.3,0.2-0.5-0.3-0.4l0,0l-0.8,0.2l-0.3-0.8v0c-0.1-0.5-0.4-0.5-0.5,0l-0.3,0.8
	l-0.8-0.2h0c-0.5-0.1-0.6,0.1-0.3,0.4l0,0l0.6,0.6L84,79.6l0,0c-0.3,0.3-0.2,0.5,0.3,0.4h0l0.8-0.2l0.3,0.8c0.1,0.5,0.4,0.5,0.5,0
	l0.3-0.8l0.8,0.2l0,0C87.4,80.2,87.6,80,87.2,79.6z"/>
<path class="st0" d="M3.4,39l-0.6-0.6l0.6-0.6c0.3-0.3,0.2-0.5-0.3-0.4l0,0l-0.8,0.2L2,36.6v0c-0.1-0.5-0.4-0.5-0.5,0l-0.3,0.8
	l-0.8-0.2h0c-0.5-0.1-0.6,0.1-0.3,0.4l0,0l0.6,0.6L0.2,39l0,0c-0.3,0.3-0.2,0.5,0.3,0.4h0l0.8-0.2L1.5,40c0.1,0.5,0.4,0.5,0.5,0
	l0.3-0.8l0.8,0.2l0,0C3.6,39.5,3.7,39.3,3.4,39z"/>
<path class="st0" d="M164,10.5l-1.5-0.4l0.7-1.2l0.1-0.1c0.4-0.6,0.2-0.8-0.4-0.4l-0.3,0.2l-1.1,0.6L161.2,8l0-0.2l0-0.2
	c-0.2-0.7-0.4-0.7-0.6,0L160.4,8l0,0l-0.3,1.2l-1.1-0.6l-0.3-0.2c-0.6-0.4-0.8-0.2-0.4,0.4l0.1,0.1l0.7,1.2l-1.5,0.4
	c-0.7,0.2-0.7,0.4,0,0.6l1.5,0.4l-0.7,1.2l-0.1,0.1c-0.4,0.6-0.2,0.8,0.4,0.4l0.1-0.1l0.1-0.1l1.1-0.6l0.3,1.2l0,0l0.1,0.3
	c0.2,0.7,0.4,0.7,0.6,0l0-0.2l0-0.2l0.3-1.2l1.1,0.6l0.1,0.1l0.1,0.1c0.6,0.4,0.8,0.2,0.4-0.4l-0.1-0.1l-0.7-1.2l1.5-0.4
	C164.6,11,164.6,10.7,164,10.5z M160.8,11.8c-0.5,0-0.9-0.4-0.9-0.9c0-0.5,0.4-0.9,0.9-0.9c0.5,0,0.9,0.4,0.9,0.9
	C161.7,11.3,161.3,11.8,160.8,11.8z"/>
<path class="st1" d="M58.8,21.6"/>
<path class="st2" d="M59.1,104.8l-0.7-0.3c1.3-2.9,3.3-6.5,4.8-9c0.6-1,1.1-1.9,1.4-2.5l0.7,0.4c-0.4,0.7-0.9,1.5-1.4,2.5
	C62.4,98.3,60.4,101.9,59.1,104.8z"/>
<path class="st2" d="M60.9,105.8l-0.5-0.6c7-6.2,18.3-17.8,23.1-24l0.6,0.5C79.2,87.9,68,99.6,60.9,105.8z"/>
<path class="st2" d="M69.3,134.2c-2.3-8.4-7.3-18.2-10-23.5l-0.6-1.2l0.7-0.3l0.6,1.2c2.7,5.3,7.7,15.2,10,23.6L69.3,134.2z"/>
<path class="st2" d="M38.1,143l-0.7-0.2c3-9.6,12.9-25.7,18.3-33.7l0.6,0.4C50.9,117.5,41.1,133.5,38.1,143z"/>
<path class="st2" d="M56.6,104c-0.5-6.3-0.8-15.4,0-20.6l0.7,0.1c-0.7,5.1-0.5,14.2,0,20.5L56.6,104z"/>
<path class="st2" d="M216.3,44.4c-2.6-2.2-5.4-4.1-9.5-6.2l0.3-0.7c4.1,2.2,7,4,9.6,6.3L216.3,44.4z"/>
<path class="st2" d="M241.5,49.5c-5.9-1.6-14.7-3.1-20.7-3.3l0-0.8c6,0.3,14.9,1.7,20.8,3.3L241.5,49.5z"/>
<path class="st2" d="M248.8,49.1l-0.2-0.7c2.6-0.9,6-1.5,9.4-1.8l0.1,0.7C254.7,47.6,251.3,48.3,248.8,49.1z"/>
<path class="st2" d="M259.9,87.1l-0.7-0.1c0.7-10,1-24,0.9-37.3l0.8,0C261,63.1,260.7,77.1,259.9,87.1z"/>
<path class="st2" d="M226.3,100.5l-0.1-0.7c13.3-1.9,23.3-4.5,30.6-8l0.3,0.7C249.7,96,239.7,98.6,226.3,100.5z"/>
<path class="st2" d="M192.8,79.2L192,79c2.6-12.4,6.9-28.2,10-39.2l0.7,0.2C199.7,51.1,195.4,66.8,192.8,79.2z"/>
<path class="st2" d="M218.8,99.5c-10.9-3.8-18.5-8.1-25.5-14.5l0.5-0.6c7,6.4,14.3,10.6,25.2,14.4L218.8,99.5z"/>
<path class="st2" d="M234.1,129.5c-2.2-6.4-5.1-14-7.7-20.7c-0.7-1.8-1.4-3.6-2.1-5.4l0.7-0.3c0.7,1.7,1.4,3.5,2.1,5.4
	c2.6,6.7,5.5,14.3,7.7,20.7L234.1,129.5z"/>
<path class="st2" d="M223.7,132.1l-0.1-1.6c-0.5-8-1-17-1-26.8l0.8,0c0.1,9.8,0.6,18.8,1,26.8l0.1,1.6L223.7,132.1z"/>
<path class="st2" d="M210.7,130.5l-0.7-0.3c3.6-8.2,7.4-17.7,10.6-26.8l0.7,0.2C218.1,112.8,214.3,122.4,210.7,130.5z"/>
<path class="st2" d="M201.2,123.6l-0.5-0.5l2.9-3.2c5.3-5.7,10.7-11.5,16-17.7l0.6,0.5c-5.2,6.2-10.7,12.1-16,17.8L201.2,123.6z"/>
<path class="st2" d="M201,107.6l-0.2-0.7c6.1-1.6,12.2-3.7,17.4-5.6l0.3,0.7C213.2,103.9,207.1,106,201,107.6z"/>
<rect x="191.9" y="91.8" transform="matrix(0.7334 -0.6798 0.6798 0.7334 -16.8711 157.45)" class="st2" width="0.8" height="16.9"/>
<path class="st2" d="M19.7,63.1c-5.1-6.4-9.2-12-13.6-17.8l-3.4-4.5l0.6-0.5l3.4,4.5c4.4,5.8,8.5,11.3,13.6,17.8L19.7,63.1z"/>
<path class="st2" d="M23.3,62.8l-0.7-0.3c4.2-8.7,8.6-18.4,12-26.8l0.7,0.3C32,44.3,27.6,54.1,23.3,62.8z"/>
<path class="st2" d="M5,38l-0.1-0.7c9.8-1.8,24.3-3.4,28.5-3.8l0.1,0.7C29.3,34.6,14.8,36.2,5,38z"/>
<path class="st2" d="M37,31.7l-0.7-0.3c3-8,6-15.3,9.1-22.1l0.7,0.3C43,16.5,40,23.7,37,31.7z"/>
<path class="st2" d="M50.1,6.5l-0.1-0.7c9.2-1.6,19.3-3,26.5-3.7l0.1,0.7C69.4,3.4,59.3,4.8,50.1,6.5z"/>
<path class="st2" d="M160.6,76H160v-7.5h2.3c1.9,0,2.5,1.1,2.5,2.2c0,1.2-0.6,2.2-2.5,2.2h-1.6L160.6,76L160.6,76z M160.6,72.4h1.7
	c1.4,0,1.7-0.9,1.7-1.6c0-0.7-0.3-1.6-1.7-1.6h-1.7V72.4z M167.2,71.5c-0.7,0-1.1,0.1-1.5,0.2v-0.6c0.4-0.2,1-0.3,1.5-0.3
	c1.5,0,1.9,0.7,1.9,1.7V76h-0.4l-0.1-0.4c-0.4,0.3-1,0.5-1.5,0.5c-1.3,0-1.7-0.8-1.7-1.6c0-0.8,0.5-1.5,1.8-1.6l1.3-0.1v-0.3
	C168.4,71.8,168.2,71.5,167.2,71.5z M167.1,73.5c-0.7,0.1-1,0.4-1,1c0,0.4,0.1,1,1.1,1c0.5,0,0.9-0.1,1.3-0.4v-1.7L167.1,73.5z
	 M171.3,74.6c-0.1,0.1-0.2,0.2-0.2,0.4c0,0.2,0.1,0.4,0.4,0.4l1.7,0.2c0.9,0.1,1.4,0.5,1.4,1.3c0,1.2-1.2,1.7-2.6,1.7
	c-1.4,0-2.2-0.4-2.2-1.5c0-0.7,0.5-1.1,1-1.3v0c-0.2-0.1-0.3-0.3-0.3-0.7c0-0.3,0.2-0.5,0.4-0.7c-0.6-0.3-0.8-0.9-0.8-1.6
	c0-1,0.4-1.9,1.9-1.9c0.3,0,0.6,0,0.8,0.1h1.7v0.4l-0.8,0.2c0.2,0.3,0.3,0.7,0.3,1.2c0,1-0.4,1.9-1.9,1.9
	C171.7,74.7,171.5,74.6,171.3,74.6z M171.6,75.9c-0.7,0.1-1.2,0.5-1.2,1.1c0,0.7,0.6,0.9,1.6,0.9c1,0,1.9-0.2,1.9-1.1
	c0-0.5-0.2-0.7-0.8-0.8L171.6,75.9z M173.3,72.8c0-0.7-0.1-1.3-1.3-1.3s-1.3,0.6-1.3,1.3c0,0.7,0.1,1.3,1.3,1.3
	S173.3,73.4,173.3,72.8z M177,70.9c1.7,0,1.9,1.2,1.9,2.6v0.3h-3.3c0,0.9,0.3,1.7,1.4,1.7c0.7,0,1.2-0.1,1.6-0.3v0.6
	c-0.6,0.2-1.2,0.3-1.6,0.3c-1.7,0-2.1-1.2-2.1-2.6S175.3,70.9,177,70.9z M175.6,73.3h2.6c0-0.9,0-1.7-1.2-1.7
	C175.9,71.5,175.6,72.4,175.6,73.3z M181.6,73.1c1.4,0.1,1.8,0.6,1.8,1.4c0,0.8-0.5,1.5-2,1.5c-0.5,0-1.2-0.1-1.5-0.2v-0.6
	c0.3,0.1,0.8,0.2,1.5,0.2c1,0,1.3-0.4,1.3-0.9c0-0.5-0.1-0.8-1.1-0.9c-1.4-0.1-1.7-0.6-1.7-1.3c0-0.7,0.5-1.5,1.9-1.5
	c0.5,0,1,0.1,1.4,0.2v0.6c-0.4-0.1-0.8-0.2-1.4-0.2c-1,0-1.2,0.4-1.2,0.9C180.4,72.8,180.6,73.1,181.6,73.1z M134,71.6h-2.4
	c-0.1,0-0.1,0.1-0.1,0.1v1.2c0,0.1,0.1,0.1,0.1,0.1h1v1.5c0,0-0.2,0.1-0.8,0.1c-0.7,0-1.7-0.3-1.7-2.4c0-2.1,1-2.4,2-2.4
	c0.8,0,1.2,0.1,1.4,0.2c0.1,0,0.1,0,0.1-0.1l0.3-1.2c0,0,0-0.1,0-0.1c-0.1-0.1-0.7-0.4-2.1-0.4c-1.6,0-3.3,0.7-3.3,4
	c0,3.3,1.9,3.8,3.5,3.8c1.3,0,2.1-0.6,2.1-0.6c0,0,0-0.1,0-0.1v-3.7C134.1,71.7,134.1,71.6,134,71.6z M146.7,68.7
	c0-0.1-0.1-0.1-0.1-0.1h-1.4c-0.1,0-0.1,0.1-0.1,0.1l0,2.7h-2.1v-2.7c0-0.1-0.1-0.1-0.1-0.1h-1.4c-0.1,0-0.1,0.1-0.1,0.1v7.2
	c0,0.1,0.1,0.1,0.1,0.1h1.4c0.1,0,0.1-0.1,0.1-0.1v-3.1h2.1c0,0,0,3.1,0,3.1c0,0.1,0.1,0.1,0.1,0.1h1.4c0.1,0,0.1-0.1,0.1-0.1V68.7z
	 M136.6,69.6c0-0.5-0.4-0.9-0.9-0.9c-0.5,0-0.9,0.4-0.9,0.9c0,0.5,0.4,0.9,0.9,0.9C136.2,70.5,136.6,70.1,136.6,69.6z M136.5,74.3
	c0-0.2,0-3.3,0-3.3c0-0.1-0.1-0.1-0.1-0.1h-1.4c-0.1,0-0.1,0.1-0.1,0.1c0,0,0,4,0,4.8c0,0.1,0.1,0.2,0.2,0.2c0,0,0.6,0,1.2,0
	c0.1,0,0.2-0.1,0.2-0.2C136.5,75.5,136.5,74.5,136.5,74.3z M152,70.9h-1.4c-0.1,0-0.1,0.1-0.1,0.1v3.5c0,0-0.3,0.3-0.8,0.3
	s-0.6-0.2-0.6-0.7c0-0.5,0-3.1,0-3.1c0-0.1-0.1-0.1-0.1-0.1h-1.4c-0.1,0-0.1,0.1-0.1,0.1c0,0,0,1.9,0,3.3c0,1.4,0.8,1.8,1.9,1.8
	c0.9,0,1.6-0.5,1.6-0.5s0,0.3,0.1,0.3c0,0,0.1,0.1,0.1,0.1l0.9,0c0.1,0,0.1-0.1,0.1-0.1l0-4.8C152.1,71,152.1,70.9,152,70.9z
	 M155.8,70.8c-0.8,0-1.3,0.3-1.3,0.3v-2.4c0-0.1-0.1-0.1-0.1-0.1H153c-0.1,0-0.1,0.1-0.1,0.1v7.2c0,0.1,0.1,0.1,0.1,0.1h1
	c0,0,0.1,0,0.1-0.1c0,0,0.1-0.3,0.1-0.3s0.6,0.5,1.6,0.5c1.3,0,2-0.6,2-2.9C157.8,71,156.6,70.8,155.8,70.8z M155.3,74.8
	c-0.5,0-0.8-0.2-0.8-0.2v-2.3c0,0,0.3-0.2,0.7-0.2c0.5,0,1,0.1,1,1.3C156.2,74.6,156,74.8,155.3,74.8z M140.5,70.9h-1l0-1.4
	c0-0.1,0-0.1-0.1-0.1H138c-0.1,0-0.1,0-0.1,0.1v1.4c0,0-0.7,0.2-0.8,0.2c0,0-0.1,0.1-0.1,0.1v0.9c0,0.1,0.1,0.1,0.1,0.1h0.7
	c0,0,0,0.9,0,2.1c0,1.6,1.1,1.7,1.9,1.7c0.3,0,0.8-0.1,0.8-0.1c0,0,0.1-0.1,0.1-0.1l0-1c0-0.1-0.1-0.1-0.1-0.1c-0.1,0-0.2,0-0.4,0
	c-0.5,0-0.7-0.2-0.7-0.5c0-0.3,0-2,0-2h1c0.1,0,0.1-0.1,0.1-0.1V71C140.6,71,140.5,70.9,140.5,70.9z"/>
<g>
	<g>
		<defs>
			<path id="SVGID_1_" d="M74.6,38.8V39c0,0.4,0,0.7-0.2,1.1c-0.2,0.3-0.4,0.5-0.7,0.5c-0.4,0-0.6-0.3-0.6-0.8
				C73.1,39,73.9,38.8,74.6,38.8z M61.5,38.8V39c0,0.4,0,0.7-0.2,1.1c-0.2,0.3-0.4,0.5-0.7,0.5c-0.4,0-0.6-0.3-0.6-0.8
				C60,39,60.8,38.8,61.5,38.8z M83.7,36.9c0.3,0,0.5,0.1,0.7,0.5c0.1,0.4,0.1,1,0.1,1.4c0,0.7,0,1.8-0.8,1.8c-0.8,0-0.8-1.4-0.8-2
				C82.9,37.9,82.9,36.9,83.7,36.9z M77.4,35.9c-0.1,0-0.2,0.1-0.2,0.2v0.8c0,0.1,0.1,0.2,0.2,0.2h1.7l-2,2.9
				C77,40.2,77,40.4,77,40.5v0.8c0,0.1,0.1,0.2,0.2,0.2c1.1-0.6,2.5-0.6,3.5,0c0.1,0.1,0.2-0.1,0.2-0.2v-0.8c0-0.1-0.1-0.2-0.2-0.3
				c-0.6-0.3-1.2-0.4-1.9-0.4l1.7-2.5c0.2-0.2,0.2-0.4,0.2-0.5v-0.7c0-0.1-0.1-0.2-0.2-0.2H77.4z M89.4,35.8c-0.7,0-1.1,0.3-1.4,1.1
				h0v-0.8c0-0.1-0.1-0.1-0.2-0.1h-0.9c-0.1,0-0.2,0.1-0.2,0.2v5.3c0,0.1,0.1,0.2,0.2,0.2h1c0.1,0,0.2-0.1,0.2-0.2v-2.9
				c0-0.4,0-0.7,0.2-1c0.1-0.3,0.3-0.4,0.6-0.4c0.7,0,0.6,0.8,0.6,1.4v2.9c0,0.1,0.1,0.2,0.2,0.2h1c0.1,0,0.2-0.1,0.2-0.2v-3.3
				c0-0.5,0-1.2-0.3-1.7C90.2,36,89.8,35.8,89.4,35.8z M83.7,35.8c-1.4,0-2.2,1.3-2.2,2.9c0,1.6,0.8,3,2.2,3c1.4,0,2.3-1.3,2.3-2.9
				C85.9,37.1,85.1,35.8,83.7,35.8z M66.7,35.8c-0.6,0-1.1,0.3-1.3,1h0v-0.7c0-0.1-0.1-0.2-0.2-0.2h-0.9c-0.1,0-0.2,0.1-0.2,0.2v5.3
				c0,0.1,0.1,0.2,0.2,0.2h1c0.1,0,0.2-0.1,0.2-0.2v-2.8c0-0.6,0-1.5,0.7-1.5c0.7,0,0.6,0.9,0.6,1.5v2.8c0,0.1,0.1,0.2,0.2,0.2h1
				c0.1,0,0.2-0.1,0.2-0.2v-2.8c0-0.3,0-0.7,0.1-1c0.1-0.3,0.4-0.4,0.6-0.4c0.3,0,0.5,0.1,0.6,0.5c0,0.2,0,0.8,0,1v2.8
				c0,0.1,0.1,0.2,0.2,0.2h1c0.1,0,0.2-0.1,0.2-0.2V38c0-0.6,0.1-1.2-0.3-1.7c-0.3-0.4-0.7-0.6-1.2-0.6c-0.6,0-1.1,0.3-1.4,1
				C67.7,36.1,67.3,35.8,66.7,35.8z M74,35.7c-0.9,0-2,0.4-2.2,1.6c0,0.1,0.1,0.2,0.1,0.2l1,0.1c0.1,0,0.2-0.1,0.2-0.2
				c0.1-0.4,0.4-0.6,0.8-0.6c0.2,0,0.4,0.1,0.6,0.3c0.1,0.2,0.1,0.5,0.1,0.7V38c-0.6,0.1-1.3,0.1-1.9,0.4c-0.6,0.3-1.1,0.9-1.1,1.7
				c0,1.1,0.7,1.6,1.5,1.6c0.7,0,1.1-0.2,1.6-0.7c0.2,0.3,0.2,0.4,0.6,0.7c0.1,0,0.2,0,0.2,0v0c0.2-0.2,0.6-0.5,0.8-0.7
				c0.1-0.1,0.1-0.2,0-0.3c-0.2-0.3-0.4-0.5-0.4-1V38c0-0.7,0-1.3-0.4-1.8C75.2,35.9,74.5,35.7,74,35.7z M61,35.7
				c-0.9,0-2,0.4-2.2,1.6c0,0.1,0.1,0.2,0.1,0.2l1,0.1c0.1,0,0.2-0.1,0.2-0.2c0.1-0.4,0.4-0.6,0.8-0.6c0.2,0,0.4,0.1,0.6,0.3
				c0.1,0.2,0.1,0.5,0.1,0.7V38c-0.6,0.1-1.3,0.1-1.9,0.4c-0.6,0.3-1.1,0.9-1.1,1.7c0,1.1,0.7,1.6,1.5,1.6c0.7,0,1.1-0.2,1.6-0.7
				c0.2,0.3,0.2,0.4,0.6,0.7c0.1,0,0.2,0,0.2,0v0c0.2-0.2,0.6-0.5,0.8-0.7c0.1-0.1,0.1-0.2,0-0.3c-0.2-0.3-0.4-0.5-0.4-1V38
				c0-0.7,0.1-1.3-0.4-1.8C62.1,35.9,61.5,35.7,61,35.7z"/>
		</defs>
		<use xlink:href="#SVGID_1_"  style="overflow:visible;fill-rule:evenodd;clip-rule:evenodd;fill:#8992A1;"/>
		<clipPath id="SVGID_2_">
			<use xlink:href="#SVGID_1_"  style="overflow:visible;"/>
		</clipPath>
		<g class="st3">
			<defs>
				<rect id="SVGID_3_" x="-45.2" y="-1475.6" width="355.5" height="2253.9"/>
			</defs>
			<use xlink:href="#SVGID_3_"  style="overflow:visible;fill:#8992A1;"/>
			<clipPath id="SVGID_4_">
				<use xlink:href="#SVGID_3_"  style="overflow:visible;"/>
			</clipPath>
			<rect x="57.2" y="34.4" class="st4" width="35" height="8.7"/>
		</g>
	</g>
	<g>
		<defs>
			<path id="SVGID_5_" d="M67.9,43.8c0.2,0,0.4,0.1,0.6,0.4c0.2,0.2,0.2,0.6,0.2,1.1c0,0.5-0.1,0.9-0.2,1.1s-0.4,0.4-0.6,0.4
				c-0.2,0-0.3-0.1-0.4-0.2c-0.1-0.1-0.2-0.3-0.3-0.5c-0.1-0.2-0.1-0.5-0.1-0.9c0-0.5,0.1-0.8,0.2-1.1C67.5,44,67.7,43.8,67.9,43.8z
				 M64.7,43.8c0.2,0,0.4,0.1,0.6,0.4c0.1,0.2,0.2,0.4,0.2,0.8h-1.6c0-0.3,0.1-0.6,0.3-0.8C64.3,43.9,64.5,43.8,64.7,43.8z
				 M86.7,43.7c0.3,0,0.5,0.1,0.6,0.4c0.1,0.2,0.2,0.4,0.2,0.8h-1.7c0-0.3,0.1-0.6,0.3-0.8C86.3,43.8,86.5,43.7,86.7,43.7z
				 M74.5,43.7c0.3,0,0.5,0.1,0.6,0.4c0.1,0.2,0.2,0.4,0.2,0.8h-1.7c0-0.3,0.1-0.6,0.3-0.8C74.1,43.8,74.3,43.7,74.5,43.7z M59,43.4
				l0.9,3.9h0.5l0.6-3l0.1,0.7l0.5,2.3h0.5l0.9-3.9h-0.5l-0.5,2.3l-0.2,0.8l-0.2-0.8l-0.4-2.3h-0.5l-0.5,2.3l-0.2,0.8L60,45.7
				l-0.5-2.3H59z M64.7,43.3c-0.4,0-0.7,0.2-1,0.5c-0.3,0.4-0.4,0.9-0.4,1.5c0,0.7,0.1,1.2,0.4,1.5c0.3,0.3,0.6,0.5,1,0.5
				c0.3,0,0.6-0.1,0.8-0.3c0.2-0.2,0.4-0.5,0.5-0.9l-0.5-0.1c-0.1,0.5-0.4,0.8-0.8,0.8c-0.2,0-0.4-0.1-0.6-0.3
				c-0.2-0.2-0.3-0.6-0.3-1H66l0-0.2c0-0.7-0.1-1.2-0.4-1.5C65.4,43.5,65.1,43.3,64.7,43.3z M81.3,43.2v3.9h0.5v-3.9H81.3z
				 M78.1,43.2l1.1,3.9h0.5l1.1-3.9h-0.5l-0.7,2.4c-0.1,0.3-0.2,0.5-0.2,0.7c-0.1-0.3-0.1-0.5-0.2-0.8l-0.6-2.3H78.1z M89.7,43.2
				c-0.4,0-0.6,0.1-0.8,0.3c-0.2,0.2-0.3,0.5-0.3,0.8c0,0.2,0,0.4,0.1,0.5c0.1,0.2,0.2,0.3,0.3,0.4c0.1,0.1,0.4,0.2,0.8,0.3
				c0.3,0.1,0.4,0.2,0.5,0.2c0.1,0.1,0.2,0.2,0.2,0.4c0,0.2-0.1,0.3-0.2,0.4c-0.1,0.1-0.3,0.2-0.5,0.2c-0.2,0-0.4-0.1-0.5-0.2
				c-0.1-0.1-0.2-0.3-0.2-0.6L88.5,46c0.1,0.8,0.5,1.3,1.2,1.3c0.4,0,0.7-0.1,0.9-0.3c0.2-0.2,0.3-0.5,0.3-0.9c0-0.2,0-0.4-0.1-0.5
				s-0.2-0.3-0.3-0.3c-0.1-0.1-0.4-0.2-0.8-0.3c-0.3-0.1-0.5-0.2-0.6-0.2c-0.1-0.1-0.2-0.2-0.2-0.3c0-0.1,0.1-0.3,0.2-0.4
				c0.1-0.1,0.3-0.1,0.5-0.1c0.4,0,0.6,0.2,0.6,0.6l0.5-0.1c0-0.3-0.1-0.5-0.2-0.6c-0.1-0.1-0.2-0.3-0.4-0.4
				C90.1,43.2,89.9,43.2,89.7,43.2z M86.7,43.2c-0.4,0-0.7,0.2-1,0.5c-0.3,0.4-0.4,0.9-0.4,1.5c0,0.7,0.1,1.2,0.4,1.5
				c0.3,0.3,0.6,0.5,1,0.5c0.3,0,0.6-0.1,0.8-0.3c0.2-0.2,0.4-0.5,0.5-0.9l-0.5-0.1c-0.1,0.5-0.4,0.8-0.8,0.8
				c-0.2,0-0.5-0.1-0.6-0.3c-0.2-0.2-0.3-0.6-0.3-1H88v-0.2c0-0.7-0.1-1.2-0.4-1.5C87.4,43.3,87.1,43.2,86.7,43.2z M83.8,43.2
				c-0.4,0-0.7,0.2-1,0.5c-0.3,0.3-0.4,0.9-0.4,1.5c0,0.7,0.1,1.2,0.4,1.5c0.3,0.3,0.6,0.5,1,0.5c0.3,0,0.6-0.1,0.8-0.4
				c0.2-0.2,0.4-0.6,0.4-1.1l-0.5-0.1c0,0.3-0.1,0.6-0.3,0.7c-0.1,0.2-0.3,0.2-0.5,0.2c-0.2,0-0.5-0.1-0.6-0.4
				c-0.2-0.2-0.2-0.6-0.2-1.2c0-0.5,0.1-0.9,0.2-1.1c0.2-0.2,0.4-0.4,0.6-0.4c0.2,0,0.3,0.1,0.4,0.2c0.1,0.1,0.2,0.3,0.2,0.6
				l0.5-0.1c-0.1-0.4-0.2-0.7-0.4-0.9C84.4,43.3,84.1,43.2,83.8,43.2z M77.6,43.2c-0.1,0-0.2,0-0.3,0.1c-0.1,0.1-0.2,0.3-0.3,0.6
				v-0.6h-0.5v3.9H77v-2c0-0.3,0-0.6,0.1-0.8c0-0.1,0.1-0.3,0.2-0.3c0.1-0.1,0.2-0.1,0.3-0.1c0.1,0,0.2,0,0.4,0.1l0.2-0.6
				C78,43.2,77.8,43.2,77.6,43.2z M74.5,43.2c-0.4,0-0.7,0.2-1,0.5c-0.3,0.4-0.4,0.9-0.4,1.5c0,0.7,0.1,1.2,0.4,1.5
				c0.3,0.3,0.6,0.5,1,0.5c0.3,0,0.6-0.1,0.8-0.3c0.2-0.2,0.4-0.5,0.5-0.9l-0.5-0.1c-0.1,0.5-0.4,0.8-0.8,0.8
				c-0.2,0-0.4-0.1-0.6-0.3c-0.2-0.2-0.3-0.6-0.3-1h2.2v-0.2c0-0.7-0.1-1.2-0.4-1.5C75.2,43.3,74.9,43.2,74.5,43.2z M71.4,43.2
				c-0.4,0-0.6,0.1-0.8,0.3c-0.2,0.2-0.3,0.5-0.3,0.8c0,0.2,0,0.4,0.1,0.5c0.1,0.2,0.2,0.3,0.3,0.4c0.1,0.1,0.4,0.2,0.8,0.3
				c0.3,0.1,0.4,0.2,0.5,0.2c0.1,0.1,0.2,0.2,0.2,0.4c0,0.2-0.1,0.3-0.2,0.4c-0.1,0.1-0.3,0.2-0.5,0.2c-0.2,0-0.4-0.1-0.5-0.2
				c-0.1-0.1-0.2-0.3-0.2-0.6L70.2,46c0.1,0.8,0.5,1.3,1.2,1.3c0.4,0,0.7-0.1,0.9-0.3c0.2-0.2,0.3-0.5,0.3-0.9c0-0.2,0-0.4-0.1-0.5
				c-0.1-0.1-0.2-0.3-0.3-0.3c-0.1-0.1-0.4-0.2-0.8-0.3c-0.3-0.1-0.5-0.2-0.5-0.2c-0.1-0.1-0.2-0.2-0.2-0.3c0-0.1,0-0.3,0.2-0.4
				c0.1-0.1,0.3-0.1,0.5-0.1c0.4,0,0.6,0.2,0.6,0.6l0.5-0.1c0-0.3-0.1-0.5-0.2-0.6c-0.1-0.1-0.2-0.3-0.4-0.4
				C71.9,43.2,71.7,43.2,71.4,43.2z M66.6,41.9v5.4h0.5v-0.5c0.1,0.2,0.2,0.3,0.3,0.4c0.1,0.1,0.3,0.1,0.5,0.1
				c0.3,0,0.6-0.2,0.9-0.5c0.3-0.4,0.4-0.9,0.4-1.5c0-0.4-0.1-0.8-0.2-1.1c-0.1-0.3-0.3-0.5-0.5-0.7c-0.2-0.1-0.4-0.2-0.6-0.2
				c-0.2,0-0.3,0-0.5,0.1c-0.1,0.1-0.2,0.2-0.3,0.4v-1.9H66.6z M81.3,41.8v0.8h0.5v-0.8H81.3z"/>
		</defs>
		<use xlink:href="#SVGID_5_"  style="overflow:visible;fill-rule:evenodd;clip-rule:evenodd;fill:#8992A1;"/>
		<clipPath id="SVGID_6_">
			<use xlink:href="#SVGID_5_"  style="overflow:visible;"/>
		</clipPath>
		<g class="st5">
			<defs>
				<rect id="SVGID_7_" x="-45.2" y="-1475.6" width="355.5" height="2253.9"/>
			</defs>
			<use xlink:href="#SVGID_7_"  style="overflow:visible;fill:#8992A1;"/>
			<clipPath id="SVGID_8_">
				<use xlink:href="#SVGID_7_"  style="overflow:visible;"/>
			</clipPath>
			<rect x="57.6" y="40.4" class="st6" width="34.7" height="8.4"/>
		</g>
	</g>
	<g>
		<defs>
			<path id="SVGID_9_" d="M54.4,40.7l-2.6,1v3.7l2.6-1V40.7z M48.6,40.7l-0.1,3.8l2.8,1.3v-3.9L48.6,40.7z M51.5,39.7l-1.9,0.8
				l1.8,0.8l2.1-0.8L51.5,39.7z"/>
		</defs>
		<use xlink:href="#SVGID_9_"  style="overflow:visible;fill-rule:evenodd;clip-rule:evenodd;fill:#8992A1;"/>
		<clipPath id="SVGID_10_">
			<use xlink:href="#SVGID_9_"  style="overflow:visible;"/>
		</clipPath>
		<g class="st7">
			<defs>
				<rect id="SVGID_11_" x="-45.2" y="-1475.6" width="355.5" height="2253.9"/>
			</defs>
			<use xlink:href="#SVGID_11_"  style="overflow:visible;fill:#8992A1;"/>
			<clipPath id="SVGID_12_">
				<use xlink:href="#SVGID_11_"  style="overflow:visible;"/>
			</clipPath>
			<rect x="47.1" y="38.3" class="st8" width="8.6" height="8.9"/>
		</g>
	</g>
	<g>
		<defs>
			<path id="SVGID_13_" d="M60.1,30.3l-2.3,1V35l2.3-1V30.3z M54.7,30.1v3.8l2.4,0.7l0.1-3.4L54.7,30.1z M57.4,29l-1.9,0.8l1.8,0.8
				l2.1-0.8L57.4,29z"/>
		</defs>
		<use xlink:href="#SVGID_13_"  style="overflow:visible;fill-rule:evenodd;clip-rule:evenodd;fill:#8992A1;"/>
		<clipPath id="SVGID_14_">
			<use xlink:href="#SVGID_13_"  style="overflow:visible;"/>
		</clipPath>
		<g class="st9">
			<defs>
				<rect id="SVGID_15_" x="-45.2" y="-1475.6" width="355.5" height="2253.9"/>
			</defs>
			<use xlink:href="#SVGID_15_"  style="overflow:visible;fill:#8992A1;"/>
			<clipPath id="SVGID_16_">
				<use xlink:href="#SVGID_15_"  style="overflow:visible;"/>
			</clipPath>
			<rect x="53.3" y="27.6" class="st10" width="8.2" height="8.8"/>
		</g>
	</g>
	<g>
		<defs>
			<path id="SVGID_17_" d="M51.2,35.4l-2.6,1V40l2.6-1V35.4z M45.4,35.4l-0.1,3.8l2.8,1.3v-3.9L45.4,35.4z M48.3,34.3l-1.9,0.8
				l1.8,0.8l2.1-0.8L48.3,34.3z"/>
		</defs>
		<use xlink:href="#SVGID_17_"  style="overflow:visible;fill-rule:evenodd;clip-rule:evenodd;fill:#8992A1;"/>
		<clipPath id="SVGID_18_">
			<use xlink:href="#SVGID_17_"  style="overflow:visible;"/>
		</clipPath>
		<g class="st11">
			<defs>
				<rect id="SVGID_19_" x="-45.2" y="-1475.6" width="355.5" height="2253.9"/>
			</defs>
			<use xlink:href="#SVGID_19_"  style="overflow:visible;fill:#8992A1;"/>
			<clipPath id="SVGID_20_">
				<use xlink:href="#SVGID_19_"  style="overflow:visible;"/>
			</clipPath>
			<rect x="43.9" y="32.9" class="st12" width="8.6" height="8.9"/>
		</g>
	</g>
	<g>
		<defs>
			<path id="SVGID_21_" d="M57.4,35.2l-2.6,1v3.7l2.6-1V35.2z M51.6,35.2L51.5,39l2.8,1.3v-3.9L51.6,35.2z M54.5,34.2L52.6,35
				l1.8,0.8l2.1-0.8L54.5,34.2z"/>
		</defs>
		<use xlink:href="#SVGID_21_"  style="overflow:visible;fill-rule:evenodd;clip-rule:evenodd;fill:#8992A1;"/>
		<clipPath id="SVGID_22_">
			<use xlink:href="#SVGID_21_"  style="overflow:visible;"/>
		</clipPath>
		<g class="st13">
			<defs>
				<rect id="SVGID_23_" x="-45.2" y="-1475.6" width="355.5" height="2253.9"/>
			</defs>
			<use xlink:href="#SVGID_23_"  style="overflow:visible;fill:#8992A1;"/>
			<clipPath id="SVGID_24_">
				<use xlink:href="#SVGID_23_"  style="overflow:visible;"/>
			</clipPath>
			<rect x="50.2" y="32.8" class="st14" width="8.6" height="8.9"/>
		</g>
	</g>
	<g>
		<defs>
			<path id="SVGID_25_" d="M66.4,30l-2.6,1v3.7l2.6-1V30z M60.6,30l-0.1,3.8l2.8,1.3v-3.9L60.6,30z M63.5,29l-1.9,0.8l1.8,0.8
				l2.1-0.8L63.5,29z"/>
		</defs>
		<use xlink:href="#SVGID_25_"  style="overflow:visible;fill-rule:evenodd;clip-rule:evenodd;fill:#8992A1;"/>
		<clipPath id="SVGID_26_">
			<use xlink:href="#SVGID_25_"  style="overflow:visible;"/>
		</clipPath>
		<g class="st15">
			<defs>
				<rect id="SVGID_27_" x="-45.2" y="-1475.6" width="355.5" height="2253.9"/>
			</defs>
			<use xlink:href="#SVGID_27_"  style="overflow:visible;fill:#8992A1;"/>
			<clipPath id="SVGID_28_">
				<use xlink:href="#SVGID_27_"  style="overflow:visible;"/>
			</clipPath>
			<rect x="59.1" y="27.6" class="st16" width="8.6" height="8.9"/>
		</g>
	</g>
</g>
<g>
	<defs>
		<path id="SVGID_29_" d="M81.1,107.4c2.6-0.2,4.7,1.6,4.9,4.2c0.2,3-2.2,6.1-5.4,6.9c-1.1,0.3-2.1,0.2-3,0
			c-0.1-1.2,0.2-2.4,0.7-3.3c0.8-1.4,2.1-1.3,2.8,0.3c0.3,0.6,0.4,1.3,0.5,2c0.3-0.1,0.5-0.3,0.7-0.4c-0.8-1.9-1.1-4.1,1.7-8.1
			c-0.8-0.6-2.1-1-3.6-0.8C80.6,107.9,80.8,107.7,81.1,107.4z M80.5,110.6c-0.2,0.5-0.1,0.9,0.2,0.9c0.3,0,0.8-0.4,1-0.9
			c0.2-0.5,0.1-0.9-0.2-0.9C81.1,109.7,80.7,110.1,80.5,110.6z M80.2,109.2c-2.4,2.9-3.4,6.7-3.2,10c-1.4-0.6-2.4-1.9-2.5-3.6l0,0
			c-0.2-3,2.2-6.1,5.4-6.9c1.2-0.3,2.4-0.2,3.3,0.2c-0.2,0.6-0.5,1.2-0.9,1.7c-0.7,1-1.7,1.7-2.2,1.5c-0.5-0.2-0.4-1.3,0.3-2.3
			c0.2-0.2,0.3-0.5,0.5-0.7C80.7,109.1,80.5,109.2,80.2,109.2z M103.2,110.8l-0.8,4.4l2.1-2.5h1.7l-2.2,2.5l1.3,2.9h-1.7l-1.3-2.9
			l-0.5,2.9h-1.6l1.4-7.3L103.2,110.8L103.2,110.8z M89.6,113.2c0.4-0.4,0.8-0.6,1.3-0.6c0.1,0,0.2,0,0.3,0l-0.3,1.6
			c-0.1,0-0.1,0-0.3,0c-1.1,0-1.5,1.1-1.7,1.9l-0.4,2.1h-1.6l1-5.5h1.4l-0.1,0.4c-0.1,0.3-0.2,0.6-0.2,0.7l0,0c0,0.1,0,0.1,0.1,0.1
			c0,0,0.1,0,0.1,0l0,0C89.3,113.6,89.4,113.4,89.6,113.2z M106,114.4c0-1.1,0.9-1.9,2.4-1.9c0.7,0,1.1,0.1,1.4,0.3l0,0l-0.2,1.2
			l0,0c-0.3-0.1-0.7-0.3-1.2-0.3c-0.4,0-0.7,0.2-0.7,0.5c0,0.2,0.2,0.4,0.6,0.6c0.6,0.3,1.2,0.7,1.2,1.5c0,0.5-0.2,0.9-0.5,1.2
			c-0.4,0.4-1.1,0.7-2,0.7c-0.7,0-1.3-0.2-1.6-0.4l0,0l0.2-1.2l0,0c0.4,0.2,1,0.5,1.6,0.5c0.4,0,0.7-0.2,0.7-0.5
			c0-0.3-0.2-0.5-0.7-0.7C106.3,115.5,106,115,106,114.4z M95.9,116c0-1.9,1.5-3.4,3.5-3.4c0.4,0,0.8,0.1,1.1,0.2c0,0,0,0,0,0
			l-0.2,1.3l0,0c-0.2-0.1-0.5-0.2-0.9-0.2c-1.1,0-1.8,1-1.8,2c0,0.8,0.5,1.1,1,1.1c0.5,0,0.8-0.1,1.3-0.3l0,0l-0.3,1.3l0,0
			c-0.4,0.2-0.9,0.3-1.5,0.3C96.8,118.2,95.9,117.3,95.9,116z M93.6,113.8c-0.2,0-0.4,0.1-0.7,0.3c-0.4,0.4-0.8,1.2-0.8,1.9
			c0,0.6,0.2,0.9,0.6,0.9c0.6,0,1.1-0.6,1.3-1.5c0-0.2,0.1-0.4,0.1-0.6c0-0.2,0-0.3,0-0.4C94.2,114,94,113.8,93.6,113.8z
			 M93.6,118.1l0.1-0.3c0-0.2,0.2-0.5,0.3-0.6l0,0c0-0.1,0-0.1-0.1-0.1c-0.1,0-0.1,0-0.1,0l0,0c0,0.1-0.1,0.4-0.3,0.6
			c-0.3,0.3-0.8,0.5-1.2,0.5c-1.1,0-1.5-0.9-1.5-1.9c0-1.1,0.4-2.1,1.1-2.8c0.6-0.6,1.4-0.9,2.2-0.9c0.6,0,1.1,0.2,1.4,0.6
			c0.4,0.5,0.4,1.4,0.3,1.9l-0.6,3H93.6z M111.6,115.5c-0.1,0.4-0.3,1.4,0.5,1.4c0.8,0,1.5-1.2,1.5-2.2c0-0.3-0.1-0.9-0.6-0.9
			C112.3,113.8,111.8,114.5,111.6,115.5z M112.2,113c0.4-0.3,0.8-0.5,1.3-0.5c1.1,0,1.7,0.8,1.7,2.1c0,1.3-0.6,2.7-1.8,3.3
			c-0.9,0.5-1.7,0.4-2.1,0.1c-0.1-0.1-0.1-0.3-0.1-0.3l0,0c0-0.1-0.1-0.1-0.1-0.1c0,0-0.1,0.1-0.1,0.1l0,0c0.1,0.1,0.1,0.2,0.1,0.3
			l-0.3,1.8h-1.6l1.4-7.2h1.4l0,0.3c-0.1,0.4-0.2,0.5-0.3,0.6l0,0c0,0,0,0.1,0,0.1c0,0,0.1,0,0.1,0l0,0
			C111.9,113.5,112,113.2,112.2,113z M128.4,114.5c0.1-0.1,0.1-0.2,0.1-0.3c0-0.3-0.2-0.5-0.6-0.5c-0.5,0-0.9,0.3-1.1,0.7
			c-0.1,0.3-0.2,0.3-0.3,0.4l0,0c0,0,0,0.1,0,0.1c0,0,0.1,0.1,0.1,0l0,0c0.1-0.1,0.1-0.2,0.6-0.2
			C127.8,114.8,128.2,114.7,128.4,114.5z M126.3,115.8L126.3,115.8c0.2,0.2,0.3,0.3,0.3,0.4c0,0.1,0.1,0.2,0.1,0.3
			c0.2,0.3,0.6,0.4,1,0.4c0.7,0,1.2-0.2,1.9-0.5l0,0l-0.3,1.3c-0.8,0.4-1.7,0.4-2,0.4c-1.5,0-2.3-0.8-2.3-2.3c0-0.8,0.3-1.7,0.8-2.3
			c0.6-0.7,1.4-1.1,2.3-1.1c1.1,0,1.9,0.7,1.9,1.6c0,0.4-0.1,0.8-0.4,1.1c-0.5,0.5-1.4,0.7-2.7,0.7c-0.3,0-0.4-0.2-0.4-0.3l0,0
			c0,0-0.1,0-0.1,0C126.3,115.7,126.2,115.8,126.3,115.8z M118.3,113.8c-0.2,0-0.4,0.1-0.7,0.3c-0.4,0.4-0.8,1.2-0.8,1.9
			c0,0.6,0.2,0.9,0.6,0.9c0.6,0,1.1-0.6,1.3-1.5c0-0.2,0.1-0.4,0.1-0.6c0-0.2,0-0.3,0-0.4C118.9,114,118.7,113.8,118.3,113.8z
			 M118.3,118.1l0.1-0.3c0-0.2,0.2-0.5,0.3-0.6l0,0c0-0.1,0-0.1-0.1-0.1c-0.1,0-0.1,0-0.1,0l0,0c0,0.1-0.1,0.4-0.3,0.6
			c-0.3,0.3-0.8,0.5-1.2,0.5c-1.1,0-1.5-0.9-1.5-1.9c0-1.1,0.4-2.1,1.1-2.8c0.6-0.6,1.4-0.9,2.2-0.9c0.6,0,1.1,0.2,1.4,0.6
			c0.4,0.5,0.4,1.4,0.3,1.9l-0.6,3H118.3z M120.6,116c0-1.9,1.5-3.4,3.5-3.4c0.4,0,0.8,0.1,1.1,0.2c0,0,0,0,0,0L125,114l0,0
			c-0.2-0.1-0.5-0.2-0.9-0.2c-1.1,0-1.8,1-1.8,2c0,0.8,0.5,1.1,1,1.1c0.5,0,0.8-0.1,1.3-0.3l0,0l-0.3,1.3l0,0
			c-0.4,0.2-0.9,0.3-1.5,0.3C121.5,118.2,120.6,117.3,120.6,116z"/>
	</defs>
	<use xlink:href="#SVGID_29_"  style="overflow:visible;fill-rule:evenodd;clip-rule:evenodd;fill:#8992A1;"/>
	<clipPath id="SVGID_30_">
		<use xlink:href="#SVGID_29_"  style="overflow:visible;"/>
	</clipPath>
	<g class="st17">
		<defs>
			<rect id="SVGID_31_" x="-45.9" y="-1265.8" width="341" height="2161.9"/>
		</defs>
		<use xlink:href="#SVGID_31_"  style="overflow:visible;fill:#8992A1;"/>
		<clipPath id="SVGID_32_">
			<use xlink:href="#SVGID_31_"  style="overflow:visible;"/>
		</clipPath>
		<rect x="73.1" y="106" class="st18" width="58.2" height="15.1"/>
	</g>
</g>
<g>
	<path class="st2" d="M168.5,11.9h4.4V13h-3v1.8h2.6V16h-2.6v2.7h-1.4V11.9z"/>
	<path class="st2" d="M175.9,13h-2.2v-1.1h5.8V13h-2.2v5.7h-1.4V13z"/>
	<path class="st2" d="M180.6,11.9h2.2c0.5,0,0.9,0.1,1.3,0.3s0.7,0.4,0.9,0.8c0.2,0.3,0.3,0.7,0.3,1.2c0,0.7-0.2,1.2-0.7,1.7
		c-0.5,0.4-1.1,0.6-1.8,0.6H182v2.3h-1.3V11.9z M182,15.3h0.7c0.4,0,0.8-0.1,1-0.3s0.4-0.5,0.4-0.9s-0.1-0.7-0.4-0.8
		c-0.2-0.2-0.6-0.3-1-0.3H182V15.3z"/>
</g>
</svg>
