<?xml version="1.0" encoding="UTF-8" standalone="no"?>
<svg width="2048px" height="1280px" viewBox="0 0 2048 1280" version="1.1" xmlns="http://www.w3.org/2000/svg" xmlns:xlink="http://www.w3.org/1999/xlink">
    <!-- Generator: Sketch 3.8.3 (29802) - http://www.bohemiancoding.com/sketch -->
    <title>home__manage--preview</title>
    <desc>Created with Sketch.</desc>
    <defs></defs>
    <g id="Page-1" stroke="none" stroke-width="1" fill="none" fill-rule="evenodd">
        <g id="home__manage--preview">
            <rect id="Rectangle-1" fill="#DFE0D8" x="0" y="0" width="2048" height="1280"></rect>
            <g id="Page-1" transform="translate(520.000000, 376.000000)">
                <polygon id="Fill-2" fill="#742824" points="990.610658 415.296247 994.117827 415.296247 994.117827 320.648126 990.610658 320.648126"></polygon>
                <g id="Group-137" transform="translate(0.000000, 0.204205)">
                    <path d="M631.488999,50.3008621 C649.136743,45.025843 663.527246,37.7594183 673.032704,29.2465274 L454.456983,29.2465274 C463.962442,37.7594183 478.352128,45.025843 496.001505,50.3008621 C515.394666,56.0978288 538.68459,59.4761935 563.745252,59.4761935 C588.805097,59.4761935 612.095839,56.0978288 631.488999,50.3008621 L631.488999,50.3008621 Z M679.165759,28.6363634 C669.411188,39.0475424 653.08333,47.8634733 632.587542,53.9920686 C612.843991,59.8927714 589.172639,63.3332143 563.745252,63.3332143 C538.316232,63.3332143 514.646513,59.8927714 494.902145,53.9920686 C474.405541,47.8634733 458.078499,39.0475424 448.323112,28.6363634 L445.280679,25.3895066 L449.72549,25.3895066 L677.764198,25.3895066 L682.206558,25.3895066 L679.165759,28.6363634 L679.165759,28.6363634 Z" id="Fill-3" fill="#742824"></path>
                    <path d="M406.779326,50.3008621 C424.427886,45.025843 438.818389,37.7594183 448.32303,29.2465274 L229.748126,29.2465274 C239.254401,37.7594183 253.644087,45.025843 271.291831,50.3008621 C290.684992,56.0978288 313.975733,59.4761935 339.036395,59.4761935 C364.09624,59.4761935 387.386165,56.0978288 406.779326,50.3008621 L406.779326,50.3008621 Z M454.456902,28.6363634 C444.702331,39.0475424 428.374473,47.8634733 407.878685,53.9920686 C388.134317,59.8927714 364.463782,63.3332143 339.036395,63.3332143 C313.607374,63.3332143 289.936839,59.8927714 270.193288,53.9920686 C249.696684,47.8634733 233.368825,39.0475424 223.615072,28.6363634 L220.572639,25.3895066 L225.016633,25.3895066 L453.055341,25.3895066 L457.497701,25.3895066 L454.456902,28.6363634 Z" id="Fill-5" fill="#742824"></path>
                    <path d="M927.6947,50.3091937 C952.107671,45.0333577 972.005589,37.7652994 985.13338,29.2458739 L683.016948,29.2458739 C696.145556,37.7652994 716.043474,45.0333577 740.454811,50.3091937 C767.253539,56.0996258 799.440436,59.4763569 834.075981,59.4763569 C868.709075,59.4763569 900.897606,56.0996258 927.6947,50.3091937 L927.6947,50.3091937 Z M993.859649,28.5981362 C980.351248,39.0232012 957.744135,47.8489339 929.359258,53.9848806 C902.031269,59.8904843 869.27019,63.3325609 834.075981,63.3325609 C798.880955,63.3325609 766.118242,59.8904843 738.79107,53.9848806 C710.406193,47.8489339 687.798264,39.0232012 674.291496,28.5981362 L670.130918,25.3896699 L676.379952,25.3896699 L991.769559,25.3896699 L998.01696,25.3896699 L993.859649,28.5981362 Z" id="Fill-7" fill="#742824"></path>
                    <path d="M833.802284,489.367955 C839.046703,489.367955 843.297942,493.6195 843.297942,498.864297 C843.297942,504.10991 839.046703,508.361455 833.802284,508.361455 C828.557049,508.361455 824.30336,504.10991 824.30336,498.864297 C824.30336,493.6195 828.557049,489.367955 833.802284,489.367955 M837.68108,455.265749 C837.68108,463.341641 831.079205,469.943992 823.004711,469.943992 L808.329159,469.943992 L808.329159,482.894662 L808.329159,516.140025 C808.329159,524.211834 814.9294,530.815818 823.004711,530.815818 L837.68353,530.815818 L881.06658,530.815818 L881.06658,157.380729 L837.68353,157.380729 C837.68353,256.678186 837.68108,355.969925 837.68108,455.265749" id="Fill-9" fill="#BC9153"></path>
                    <path d="M907.42246,167.005474 L907.42246,265.597199 L799.845304,265.597199 C788.558491,265.597199 778.085988,269.257367 769.550025,275.447223 C753.506399,261.180657 743.351616,240.413843 743.351616,217.386073 L743.351616,215.219868 C743.351616,192.190464 753.506399,171.422833 769.552475,157.157084 C778.085988,163.346123 788.558491,167.005474 799.845304,167.005474 L907.42246,167.005474 Z" id="Fill-11" fill="#ECECEC"></path>
                    <path d="M907.42246,167.005474 L907.42246,265.597199 L823.591798,265.597199 L799.845304,265.597199 C794.916972,265.597199 790.14464,266.29558 785.617337,267.596773 C774.081412,254.029404 767.098927,236.484125 767.098927,217.386073 L767.098927,215.219868 C767.098927,196.120999 774.081412,178.576536 785.620604,165.007534 C790.14464,166.308727 794.916972,167.005474 799.845304,167.005474 L823.591798,167.005474 L907.42246,167.005474 Z" id="Fill-13" fill="#C5C5C6"></path>
                    <polygon id="Fill-15" fill="#9D773D" points="862.511578 411.055321 869.850171 411.055321 869.850171 290.177498 862.511578 290.177498"></polygon>
                    <polygon id="Fill-17" fill="#9D773D" points="862.511578 442.797737 869.850171 442.797737 869.850171 421.418308 862.511578 421.418308"></polygon>
                    <polygon id="Fill-18" fill="#9D773D" points="862.511578 494.820959 869.850171 494.820959 869.850171 452.286727 862.511578 452.286727"></polygon>
                    <polygon id="Fill-19" fill="#9D773D" points="848.268909 373.943953 855.607502 373.943953 855.607502 290.177498 848.268909 290.177498"></polygon>
                    <polygon id="Fill-20" fill="#9D773D" points="848.268909 283.707472 855.607502 283.707472 855.607502 270.769054 848.268909 270.769054"></polygon>
                    <path d="M489.871146,178.881292 L651.742454,178.881292 C668.077664,178.881292 681.441498,192.24854 681.441498,208.584926 L681.441498,495.21826 C681.441498,511.554646 668.077664,524.919444 651.742454,524.919444 L489.871146,524.919444 C473.535936,524.919444 460.172101,511.554646 460.172101,495.21826 L460.172101,208.584926 C460.172101,192.24854 473.535936,178.881292 489.871146,178.881292" id="Fill-21" fill="#4F5E3D"></path>
                    <path d="M489.871146,178.881292 L559.669862,178.881292 C576.005889,178.881292 589.369724,192.24854 589.369724,208.584926 L589.369724,495.21826 C589.369724,511.554646 576.005889,524.919444 559.669862,524.919444 L489.871146,524.919444 C473.535936,524.919444 460.172101,511.554646 460.172101,495.21826 L460.172101,208.584926 C460.172101,192.24854 473.535936,178.881292 489.871146,178.881292" id="Fill-22" fill="#687C52"></path>
                    <path d="M473.561092,158.090708 L667.311379,158.090708 C681.549147,158.090708 693.290079,169.304004 694.146044,183.337776 L694.1975,183.337776 L694.1975,184.98285 L694.1975,233.674267 L694.1975,235.319341 L694.146044,235.319341 C693.290079,249.353113 681.549147,260.565592 667.311379,260.565592 L473.561092,260.565592 C459.325774,260.565592 447.583209,249.353113 446.724793,235.319341 L446.674971,235.319341 L446.674971,233.674267 L446.674971,184.98285 L446.674971,183.337776 L446.724793,183.337776 C447.583209,169.304004 459.325774,158.090708 473.561092,158.090708" id="Fill-23" fill="#576743"></path>
                    <path d="M473.561092,158.090708 L617.337889,158.090708 C631.574841,158.090708 643.314956,169.304004 644.174188,183.337776 L644.224011,183.337776 L644.224011,184.98285 L644.224011,233.674267 L644.224011,235.319341 L644.174188,235.319341 C643.314956,249.353113 631.574841,260.565592 617.337889,260.565592 L473.561092,260.565592 C459.325774,260.565592 447.583209,249.353113 446.724793,235.319341 L446.674971,235.319341 L446.674971,233.674267 L446.674971,184.98285 L446.674971,183.337776 L446.724793,183.337776 C447.583209,169.304004 459.325774,158.090708 473.561092,158.090708" id="Fill-24" fill="#758760"></path>
                    <path d="M477.617778,337.058271 L444.209008,337.058271 C435.221376,337.058271 427.871348,344.408011 427.871348,353.395474 L427.871348,461.808635 C427.871348,470.796914 435.221376,478.147472 444.209008,478.147472 L477.617778,478.147472 C482.519158,478.147472 486.530269,474.137705 486.530269,469.235973 L486.530269,345.968136 C486.530269,341.068854 482.519158,337.058271 477.617778,337.058271" id="Fill-25" fill="#72845C"></path>
                    <path d="M663.993534,337.058271 L697.402305,337.058271 C706.38912,337.058271 713.739148,344.408011 713.739148,353.395474 L713.739148,461.808635 C713.739148,470.796914 706.38912,478.147472 697.402305,478.147472 L663.993534,478.147472 C659.091338,478.147472 655.081044,474.137705 655.081044,469.235973 L655.081044,345.968136 C655.081044,341.068854 659.091338,337.058271 663.993534,337.058271" id="Fill-26" fill="#576743"></path>
                    <path d="M458.598612,337.058271 L444.208926,337.058271 C435.221294,337.058271 427.871266,344.408011 427.871266,353.395474 L427.871266,461.808635 C427.871266,470.796914 435.221294,478.147472 444.208926,478.147472 L458.598612,478.147472 C463.499992,478.147472 467.508652,474.137705 467.508652,469.235973 L467.508652,345.968136 C467.508652,341.068854 463.499992,337.058271 458.598612,337.058271" id="Fill-27" fill="#758760"></path>
                    <path d="M636.518774,399.825771 L636.518774,514.134734 C636.518774,528.369444 625.306286,540.114489 611.273524,540.972149 L611.273524,541.021975 L609.631019,541.021975 L531.980784,541.021975 L530.337462,541.021975 L530.337462,540.972149 C516.303883,540.114489 505.092212,528.373528 505.092212,514.134734 L505.092212,399.825771 C505.092212,385.58861 516.303883,373.845199 530.337462,372.989172 L530.337462,372.937713 L531.980784,372.937713 L609.631019,372.937713 L611.273524,372.937713 L611.273524,372.989172 C625.306286,373.845199 636.518774,385.592695 636.518774,399.825771" id="Fill-28" fill="#576743"></path>
                    <path d="M567.091765,541.02222 L565.44926,541.02222 L531.980866,541.02222 L530.337543,541.02222 L530.337543,540.971577 C516.303965,540.114734 505.092294,528.373773 505.092294,514.134979 L505.092294,399.826016 C505.092294,385.588855 516.303965,373.845444 530.337543,372.988601 L530.337543,372.937958 L531.980866,372.937958 L565.44926,372.937958 L567.091765,372.937958 L567.091765,372.988601 C581.126977,373.845444 592.339465,385.59294 592.339465,399.826016 L592.339465,514.134979 C592.339465,528.369689 581.126977,540.114734 567.091765,540.971577 L567.091765,541.02222 Z" id="Fill-29" fill="#758760"></path>
                    <polygon id="Fill-30" fill="#50613B" points="471.355186 250.84193 481.398889 250.84193 481.398889 246.61244 471.355186 246.61244"></polygon>
                    <polygon id="Fill-31" fill="#50613B" points="488.456517 250.84193 498.501854 250.84193 498.501854 246.61244 488.456517 246.61244"></polygon>
                    <polygon id="Fill-32" fill="#50613B" points="505.558664 250.84193 515.603184 250.84193 515.603184 246.61244 505.558664 246.61244"></polygon>
                    <polygon id="Fill-33" fill="#50613B" points="522.659995 250.84193 532.706149 250.84193 532.706149 246.61244 522.659995 246.61244"></polygon>
                    <polygon id="Fill-34" fill="#50613B" points="539.760509 250.84193 549.805846 250.84193 549.805846 246.61244 539.760509 246.61244"></polygon>
                    <polygon id="Fill-35" fill="#50613B" points="556.863473 250.84193 566.907177 250.84193 566.907177 246.61244 556.863473 246.61244"></polygon>
                    <polygon id="Fill-36" fill="#50613B" points="573.963987 250.84193 584.009325 250.84193 584.009325 246.61244 573.963987 246.61244"></polygon>
                    <polygon id="Fill-37" fill="#50613B" points="591.066135 250.84193 601.110655 250.84193 601.110655 246.61244 591.066135 246.61244"></polygon>
                    <polygon id="Fill-38" fill="#50613B" points="608.167466 250.84193 618.21362 250.84193 618.21362 246.61244 608.167466 246.61244"></polygon>
                    <polygon id="Fill-39" fill="#50613B" points="625.269614 250.84193 635.313317 250.84193 635.313317 246.61244 625.269614 246.61244"></polygon>
                    <polygon id="Fill-40" fill="#50613B" points="642.370944 250.84193 652.417098 250.84193 652.417098 246.61244 642.370944 246.61244"></polygon>
                    <polygon id="Fill-41" fill="#50613B" points="659.473909 250.84193 669.516795 250.84193 669.516795 246.61244 659.473909 246.61244"></polygon>
                    <path d="M636.518774,311.457683 L636.518774,325.518411 C636.518774,339.752304 625.306286,351.498983 611.273524,352.356643 L611.273524,352.40892 L609.631019,352.40892 L531.980784,352.40892 L530.337462,352.40892 L530.337462,352.356643 C516.303883,351.498983 505.092212,339.758839 505.092212,325.518411 L505.092212,311.457683 C505.092212,297.221339 516.303883,285.477928 530.337462,284.619451 L530.337462,284.567991 L531.980784,284.567991 L609.631019,284.567991 L611.273524,284.567991 L611.273524,284.619451 C625.306286,285.477928 636.518774,297.22624 636.518774,311.457683" id="Fill-42" fill="#72845C"></path>
                    <polygon id="Fill-43" fill="#934E10" points="541.480198 417.866778 599.390149 417.866778 605.333715 423.809138 605.333715 443.111396 599.390149 449.05539 541.480198 449.05539 535.538266 443.111396 535.538266 423.809138"></polygon>
                    <path d="M555.858123,121.798446 L585.011571,121.798446 C591.24182,121.798446 596.906871,124.346105 601.006192,128.444904 C605.107963,132.545337 607.654622,138.209979 607.654622,144.443127 L607.654622,158.090545 L598.659639,158.090545 L598.659639,144.443127 C598.659639,140.69556 597.121679,137.282889 594.645261,134.80711 C592.171294,132.330514 588.758868,130.794077 585.011571,130.794077 L555.858123,130.794077 C552.112459,130.794077 548.699217,132.330514 546.223616,134.80711 C543.750466,137.282889 542.211689,140.69556 542.211689,144.443127 L542.211689,158.090545 L533.215889,158.090545 L533.215889,144.443127 C533.215889,138.209979 535.763365,132.545337 539.862686,128.444904 C543.96364,124.346105 549.627057,121.798446 555.858123,121.798446" id="Fill-44" fill="#AA5A1D"></path>
                    <path d="M570.435337,121.798446 L585.012061,121.798446 C591.24231,121.798446 596.906544,124.346105 601.006682,128.444904 C605.107636,132.545337 607.654295,138.209979 607.654295,144.443127 L607.654295,158.090545 L598.660129,158.090545 L598.660129,144.443127 C598.660129,140.69556 597.121352,137.282889 594.645751,134.80711 C592.170967,132.330514 588.759358,130.794077 585.012061,130.794077 L570.435337,130.794077 L570.435337,121.798446 Z" id="Fill-45" fill="#965326"></path>
                    <polygon id="Fill-46" fill="#AC5F2D" points="521.051794 403.920405 541.841615 403.920405 541.841615 219.020283 521.051794 219.020283"></polygon>
                    <polygon id="Fill-47" fill="#AC5F2D" points="599.031183 403.920405 619.821004 403.920405 619.821004 219.020283 599.031183 219.020283"></polygon>
                    <polygon id="Fill-48" fill="#D8D9D9" points="521.051794 403.921221 541.841615 403.921221 541.841615 392.783073 521.051794 392.783073"></polygon>
                    <polygon id="Fill-49" fill="#C5C5C6" points="537.748828 403.921221 541.841615 403.921221 541.841615 392.783073 537.748828 392.783073"></polygon>
                    <polygon id="Fill-50" fill="#D8D9D9" points="599.031183 403.921221 619.821004 403.921221 619.821004 392.783073 599.031183 392.783073"></polygon>
                    <polygon id="Fill-51" fill="#C5C5C6" points="615.727401 403.921221 619.821821 403.921221 619.821821 392.783073 615.727401 392.783073"></polygon>
                    <path d="M521.6905,329.50163 L541.202908,329.50163 L541.202908,312.373746 L521.6905,312.373746 L521.6905,329.50163 Z M518.082053,305.157964 L544.812989,305.157964 L548.419804,305.157964 L548.419804,308.766672 L548.419804,333.110338 L548.419804,336.718229 L544.812989,336.718229 L518.082053,336.718229 L514.474422,336.718229 L514.474422,333.110338 L514.474422,308.766672 L514.474422,305.157964 L518.082053,305.157964 Z" id="Fill-52" fill="#D8D9D9"></path>
                    <path d="M599.031183,329.50163 L618.545225,329.50163 L618.545225,312.373746 L599.031183,312.373746 L599.031183,329.50163 Z M595.423552,305.157964 L622.152039,305.157964 L625.76212,305.157964 L625.76212,308.766672 L625.76212,333.110338 L625.76212,336.718229 L622.152039,336.718229 L595.423552,336.718229 L591.815104,336.718229 L591.815104,333.110338 L591.815104,308.766672 L591.815104,305.157964 L595.423552,305.157964 Z" id="Fill-53" fill="#D8D9D9"></path>
                    <polygon id="Fill-54" fill="#965326" points="521.051794 245.006573 541.841615 245.006573 541.841615 219.020283 521.051794 219.020283"></polygon>
                    <polygon id="Fill-55" fill="#965326" points="599.031183 245.006573 619.821004 245.006573 619.821004 219.020283 599.031183 219.020283"></polygon>
                    <polygon id="Fill-56" fill="#50613B" points="471.355186 171.947803 481.398889 171.947803 481.398889 167.719129 471.355186 167.719129"></polygon>
                    <polygon id="Fill-57" fill="#50613B" points="488.456517 171.947803 498.501854 171.947803 498.501854 167.719129 488.456517 167.719129"></polygon>
                    <polygon id="Fill-58" fill="#50613B" points="505.558664 171.947803 515.603184 171.947803 515.603184 167.719129 505.558664 167.719129"></polygon>
                    <polygon id="Fill-59" fill="#50613B" points="522.659995 171.947803 532.706149 171.947803 532.706149 167.719129 522.659995 167.719129"></polygon>
                    <polygon id="Fill-60" fill="#50613B" points="539.760509 171.947803 549.805846 171.947803 549.805846 167.719129 539.760509 167.719129"></polygon>
                    <polygon id="Fill-61" fill="#50613B" points="556.863473 171.947803 566.907177 171.947803 566.907177 167.719129 556.863473 167.719129"></polygon>
                    <polygon id="Fill-62" fill="#50613B" points="573.963987 171.947803 584.009325 171.947803 584.009325 167.719129 573.963987 167.719129"></polygon>
                    <polygon id="Fill-63" fill="#50613B" points="591.066135 171.947803 601.110655 171.947803 601.110655 167.719129 591.066135 167.719129"></polygon>
                    <polygon id="Fill-64" fill="#50613B" points="608.167466 171.947803 618.21362 171.947803 618.21362 167.719129 608.167466 167.719129"></polygon>
                    <polygon id="Fill-65" fill="#50613B" points="625.269614 171.947803 635.313317 171.947803 635.313317 167.719129 625.269614 167.719129"></polygon>
                    <polygon id="Fill-66" fill="#50613B" points="642.370944 171.947803 652.417098 171.947803 652.417098 167.719129 642.370944 167.719129"></polygon>
                    <polygon id="Fill-67" fill="#50613B" points="659.473909 171.947803 669.516795 171.947803 669.516795 167.719129 659.473909 167.719129"></polygon>
                    <polygon id="Fill-68" fill="#50613B" points="427.871675 379.993316 486.529779 379.993316 486.529779 371.824306 427.871675 371.824306"></polygon>
                    <polygon id="Fill-69" fill="#4F5E3D" points="655.081371 379.993316 713.739475 379.993316 713.739475 371.824306 655.081371 371.824306"></polygon>
                    <polygon id="Fill-70" fill="#AA5A1D" points="420.25375 453.507872 427.871675 453.507872 427.871675 359.944486 420.25375 359.944486"></polygon>
                    <polygon id="Fill-71" fill="#D8D9D9" points="417.654001 416.750186 427.871675 416.750186 427.871675 377.393381 417.654001 377.393381"></polygon>
                    <polygon id="Fill-72" fill="#D8D9D9" points="417.654001 453.507872 427.871675 453.507872 427.871675 444.968843 417.654001 444.968843"></polygon>
                    <polygon id="Fill-73" fill="#AA5A1D" points="713.739475 453.507872 721.358216 453.507872 721.358216 359.944486 713.739475 359.944486"></polygon>
                    <polygon id="Fill-74" fill="#D8D9D9" points="713.739475 416.750186 723.957148 416.750186 723.957148 377.393381 713.739475 377.393381"></polygon>
                    <polygon id="Fill-75" fill="#D8D9D9" points="713.739475 453.507872 723.957148 453.507872 723.957148 444.968843 713.739475 444.968843"></polygon>
                    <polygon id="Fill-76" fill="#AC5F2D" points="521.051794 566.172577 541.841615 566.172577 541.841615 505.871708 521.051794 505.871708"></polygon>
                    <polygon id="Fill-77" fill="#D8D9D9" points="521.051794 566.173394 541.841615 566.173394 541.841615 555.034429 521.051794 555.034429"></polygon>
                    <polygon id="Fill-78" fill="#C5C5C6" points="537.748828 566.173394 541.841615 566.173394 541.841615 555.034429 537.748828 555.034429"></polygon>
                    <polygon id="Fill-79" fill="#965326" points="521.051794 509.953354 541.841615 509.953354 541.841615 492.876929 521.051794 492.876929"></polygon>
                    <polygon id="Fill-80" fill="#AC5F2D" points="599.031183 566.175027 619.821004 566.175027 619.821004 505.873341 599.031183 505.873341"></polygon>
                    <polygon id="Fill-81" fill="#D8D9D9" points="599.031183 566.175844 619.821004 566.175844 619.821004 555.036062 599.031183 555.036062"></polygon>
                    <polygon id="Fill-82" fill="#C5C5C6" points="615.727401 566.175844 619.821821 566.175844 619.821821 555.036062 615.727401 555.036062"></polygon>
                    <polygon id="Fill-83" fill="#965326" points="599.031183 509.955804 619.821004 509.955804 619.821004 492.87938 599.031183 492.87938"></polygon>
                    <path d="M548.342946,181.591008 L592.524788,181.591008 C595.791013,181.591008 598.465087,184.263641 598.465087,187.530101 L598.465087,193.10326 C598.465087,196.36972 595.791013,199.042353 592.524788,199.042353 L548.342946,199.042353 C545.076721,199.042353 542.405098,196.36972 542.405098,193.10326 L542.405098,187.530101 C542.405098,184.263641 545.076721,181.591008 548.342946,181.591008" id="Fill-84" fill="#576743"></path>
                    <polygon id="Fill-85" fill="#868685" points="192.274665 471.583266 247.111147 471.583266 247.111147 464.726068 192.274665 464.726068"></polygon>
                    <polygon id="Fill-86" fill="#B0B1B2" points="184.050704 483.373236 195.291779 483.373236 195.291779 453.21055 184.050704 453.21055"></polygon>
                    <polygon id="Fill-87" fill="#868685" points="184.050704 483.37242 195.291779 483.37242 195.291779 473.775609 184.050704 473.775609"></polygon>
                    <path d="M290.396185,185.046562 L259.138762,185.046562 C250.807805,185.046562 243.225817,188.461684 237.734737,193.95316 C232.241206,199.444636 228.82878,207.02717 228.82878,215.358727 L228.82878,276.383298 L320.706983,276.383298 L320.706983,215.358727 C320.706983,207.02717 317.293741,199.444636 311.80266,193.95316 C306.309129,188.461684 298.727959,185.046562 290.396185,185.046562 M259.138762,179.865477 L290.396185,179.865477 C300.160557,179.865477 309.037926,183.858907 315.465831,190.288909 C321.894553,196.718094 325.889328,205.596919 325.889328,215.358727 L325.889328,278.975883 L325.889328,281.5652 L323.297747,281.5652 L226.237199,281.5652 L223.647252,281.5652 L223.647252,278.975883 L223.647252,215.358727 C223.647252,205.596919 227.640394,196.718094 234.069116,190.288909 C240.497837,183.858907 249.375207,179.865477 259.138762,179.865477" id="Fill-88" fill="#868685"></path>
                    <path d="M250.057039,266.588083 L299.477581,266.588083 C305.255345,266.588083 309.978671,271.310115 309.978671,277.089929 L309.978671,287.590958 L239.556766,287.590958 L239.556766,277.089929 C239.556766,271.310115 244.280909,266.588083 250.057039,266.588083" id="Fill-89" fill="#59546D"></path>
                    <path d="M219.929848,478.306588 L329.605262,478.306588 C342.421867,478.306588 352.909072,488.792914 352.909072,501.612077 L352.909072,524.919199 L196.626039,524.919199 L196.626039,501.612077 C196.626039,488.792914 207.11161,478.306588 219.929848,478.306588" id="Fill-90" fill="#5E5971"></path>
                    <path d="M219.929848,478.306588 L277.38078,478.306588 C290.199836,478.306588 300.685407,488.792914 300.685407,501.612077 L300.685407,524.919199 L196.626039,524.919199 L196.626039,501.612077 C196.626039,488.792914 207.11161,478.306588 219.929848,478.306588" id="Fill-91" fill="#56698F"></path>
                    <path d="M246.586623,454.351646 L302.947997,454.351646 C309.536804,454.351646 314.924156,459.739386 314.924156,466.327851 L314.924156,478.306506 L234.612915,478.306506 L234.612915,466.327851 C234.612915,459.739386 239.998633,454.351646 246.586623,454.351646" id="Fill-92" fill="#5E5971"></path>
                    <path d="M246.586623,454.351646 L276.110064,454.351646 C282.698871,454.351646 288.086223,459.741837 288.086223,466.327851 L288.086223,478.306506 L234.612915,478.306506 L234.612915,466.327851 C234.612915,459.741837 240.000267,454.351646 246.586623,454.351646" id="Fill-93" fill="#56698F"></path>
                    <path d="M299.443114,327.905729 C326.034385,337.897063 344.957092,363.550907 344.957092,393.633546 C344.957092,415.481829 334.971378,434.997276 319.319797,447.870348 L230.214496,447.870348 C214.563732,434.997276 204.579652,415.481829 204.579652,393.633546 C204.579652,363.550907 223.501542,337.897063 250.091996,327.905729 L250.091996,294.644029 L299.443114,294.644029 L299.443114,327.905729 Z" id="Fill-94" fill="#B5CAD6"></path>
                    <path d="M250.057039,266.588083 L275.944262,266.588083 C281.722026,266.588083 286.445351,271.312566 286.445351,277.089929 L286.445351,287.590958 L239.556766,287.590958 L239.556766,277.089929 C239.556766,271.312566 244.282542,266.588083 250.057039,266.588083" id="Fill-95" fill="#51658C"></path>
                    <polygon id="Fill-96" fill="#FBD48A" points="267.642055 447.870185 282.174674 447.870185 282.174674 410.15682 267.642055 410.15682"></polygon>
                    <path d="M222.781323,415.911639 C219.025041,408.303784 216.910448,399.742701 216.910448,390.683358 C216.910448,370.047234 227.872191,351.97184 244.286626,341.959268 C232.856063,352.389234 225.684089,367.406457 225.684089,384.102244 C225.684089,395.879962 229.252516,406.82289 235.370869,415.911639 L222.781323,415.911639 Z" id="Fill-97" fill="#FFFFFF"></path>
                    <path d="M274.768454,251.570615 C284.144864,251.570615 292.033136,257.939355 294.347019,266.587838 L255.188255,266.587838 C257.502137,257.939355 265.389593,251.570615 274.768454,251.570615" id="Fill-98" fill="#59546D"></path>
                    <path d="M280.365713,266.588083 L255.188255,266.588083 C256.896918,260.203823 261.637395,255.065213 267.776984,252.806707 C273.916572,255.065213 278.657867,260.203823 280.365713,266.588083" id="Fill-99" fill="#51658C"></path>
                    <polygon id="Fill-100" fill="#D0A264" points="92.5277924 287.111158 100.947776 287.111158 100.947776 127.938395 92.5277924 127.938395"></polygon>
                    <path d="M96.0000045,113.942604 L97.4734404,113.942604 C101.319565,113.942604 104.46246,117.087358 104.46246,120.932944 L104.46246,143.501662 L89.0101684,143.501662 L89.0101684,120.932944 C89.0101684,117.087358 92.1555129,113.942604 96.0000045,113.942604" id="Fill-101" fill="#E03324"></path>
                    <polygon id="Fill-102" fill="#D0A264" points="58.8421401 287.111158 67.2613071 287.111158 67.2613071 127.938395 58.8421401 127.938395"></polygon>
                    <path d="M62.315414,113.942604 L63.7880331,113.942604 C67.6333415,113.942604 70.7778693,117.087358 70.7778693,120.932944 L70.7778693,143.501662 L55.3255779,143.501662 L55.3255779,120.932944 C55.3255779,117.087358 58.4701057,113.942604 62.315414,113.942604" id="Fill-103" fill="#E03324"></path>
                    <polygon id="Fill-104" fill="#D0A264" points="25.155671 287.111158 33.5756548 287.111158 33.5756548 127.938395 25.155671 127.938395"></polygon>
                    <path d="M28.6300068,113.942604 L30.1034427,113.942604 C33.9479342,113.942604 37.0932788,117.087358 37.0932788,120.932944 L37.0932788,143.501662 L21.6409874,143.501662 L21.6409874,120.932944 C21.6409874,117.087358 24.7855152,113.942604 28.6300068,113.942604" id="Fill-105" fill="#E03324"></path>
                    <path d="M12.7905709,0.621257785 L212.77274,0.621257785 C219.507747,0.621257785 225.016796,6.12988726 225.016796,12.8653794 L225.016796,37.3552561 C225.016796,44.0899314 219.507747,49.5993777 212.77274,49.5993777 L12.7905709,49.5993777 C6.05474722,49.5993777 0.546514572,44.0899314 0.546514572,37.3552561 L0.546514572,12.8653794 C0.546514572,6.12988726 6.05474722,0.621257785 12.7905709,0.621257785" id="Fill-106" fill="#8F6121"></path>
                    <path d="M12.7905709,0.621257785 L212.77274,0.621257785 C219.507747,0.621257785 225.016796,6.12988726 225.016796,12.8653794 L225.016796,21.0278548 C225.016796,27.7633469 219.507747,33.2727932 212.77274,33.2727932 L12.7905709,33.2727932 C6.05474722,33.2727932 0.546514572,27.7633469 0.546514572,21.0278548 L0.546514572,12.8653794 C0.546514572,6.12988726 6.05474722,0.621257785 12.7905709,0.621257785" id="Fill-107" fill="#AD7A34"></path>
                    <path d="M190.325467,0.621257785 L212.772495,0.621257785 C219.507502,0.621257785 225.016551,6.12988726 225.016551,12.8653794 L225.016551,37.3552561 C225.016551,44.0899314 219.507502,49.5993777 212.772495,49.5993777 L190.325467,49.5993777 L190.325467,0.621257785 Z" id="Fill-108" fill="#664210"></path>
                    <polygon id="Fill-109" fill="#664210" points="24.0089393 49.5997044 35.7417036 49.5997044 35.7417036 0.621584513 24.0089393 0.621584513"></polygon>
                    <polygon id="Fill-110" fill="#8C6628" points="225.016959 32.7086978 670.131816 32.7086978 670.131816 17.5101407 225.016959 17.5101407"></polygon>
                    <path d="M670.131163,20.9735363 L993.881947,20.9735363 C996.155808,20.9735363 998.016388,22.8350675 998.016388,25.1099093 C998.016388,27.3855679 996.155808,29.2462823 993.881947,29.2462823 L670.131163,29.2462823 L670.131163,20.9735363 Z" id="Fill-111" fill="#8C6628"></path>
                    <polygon id="Fill-112" fill="#BC8E4C" points="225.016959 25.5223214 670.131816 25.5223214 670.131816 17.5101407 225.016959 17.5101407"></polygon>
                    <path d="M677.632781,16.2608973 L677.635231,16.2608973 C678.75746,16.2608973 679.674682,17.179819 679.674682,18.3004951 L679.674682,46.6196208 C679.674682,47.7427474 678.75746,48.6608523 677.635231,48.6608523 L677.632781,48.6608523 C676.511369,48.6608523 675.59333,47.7427474 675.59333,46.6196208 L675.59333,18.3004951 C675.59333,17.179819 676.511369,16.2608973 677.632781,16.2608973" id="Fill-113" fill="#575656"></path>
                    <path d="M451.379348,16.2608973 L451.380982,16.2608973 C452.504027,16.2608973 453.421249,17.179819 453.421249,18.3004951 L453.421249,46.6196208 C453.421249,47.7427474 452.504027,48.6608523 451.380982,48.6608523 L451.379348,48.6608523 C450.257936,48.6608523 449.33908,47.7427474 449.33908,46.6196208 L449.33908,18.3004951 C449.33908,17.179819 450.257936,16.2608973 451.379348,16.2608973" id="Fill-114" fill="#575656"></path>
                    <polygon id="Fill-115" fill="#742824" points="990.610658 259.108958 994.117827 259.108958 994.117827 29.2462007 990.610658 29.2462007"></polygon>
                    <path d="M997.008424,272.741346 C1004.16978,274.777677 1009.45259,281.391463 1009.45259,289.181468 L1009.45259,332.279306 C1009.45259,341.68008 1001.76442,349.367983 992.364324,349.367983 L992.363508,349.367983 C982.965862,349.367983 975.276878,341.68008 975.276878,332.279306 L975.276878,289.181468 C975.276878,281.391463 980.558868,274.777677 987.718591,272.741346 L987.718591,230.02823 C987.718591,227.474036 989.809498,225.386246 992.361874,225.386246 L992.363508,225.386246 C994.918334,225.386246 997.008424,227.474036 997.008424,230.02823 L997.008424,272.741346 Z" id="Fill-116" fill="#FFFFFF"></path>
                    <path d="M1009.45291,322.724889 L1009.45291,332.279224 C1009.45291,341.679998 1001.76475,349.367901 992.364651,349.367901 L992.363834,349.367901 C982.965371,349.367901 975.276388,341.679998 975.276388,332.279224 L975.276388,322.724889 L1009.45291,322.724889 Z" id="Fill-117" fill="#E03324"></path>
                    <polygon id="Fill-118" fill="#E03324" points="975.276797 315.666345 1009.45332 315.666345 1009.45332 300.061012 975.276797 300.061012"></polygon>
                    <path d="M1006.58943,437.824614 L1006.58535,438.088447 L1006.58943,438.366165 L1006.578,438.366165 C1006.43915,441.849083 1004.96816,444.991387 1002.66327,447.298085 L1002.65673,447.305436 C1000.23014,449.729756 996.878968,451.231886 993.183127,451.231886 C989.483202,451.231886 986.127133,449.729756 983.703805,447.305436 C981.278843,444.880299 979.77682,441.523989 979.77682,437.824614 C979.77682,434.131774 981.276392,430.781998 983.703805,428.352777 L983.711972,428.343792 C985.562751,426.49533 987.946059,425.183518 990.611148,424.664021 L990.611148,419.939538 L994.117501,419.939538 L994.117501,428.274363 L993.183127,428.274363 L993.059796,428.274363 C990.466581,428.307035 988.125746,429.367267 986.430151,431.063801 L986.4228,431.071152 C984.699436,432.793824 983.632746,435.18302 983.632746,437.824614 C983.632746,440.462124 984.702703,442.85132 986.430151,444.578076 C988.155966,446.304832 990.54499,447.374866 993.183127,447.374866 C995.820446,447.374866 998.209471,446.308916 999.936919,444.587061 L999.94427,444.578076 C1001.54675,442.970576 1002.58241,440.788035 1002.71799,438.366165 L1001.72889,438.366165 L996.867533,438.366165 L1001.66927,432.531625 L1006.46855,426.696268 L1006.52818,432.531625 L1006.58372,437.824614 L1006.58943,437.824614 Z" id="Fill-119" fill="#868685"></path>
                    <polygon id="Fill-120" fill="#96A7B1" points="23.4755947 513.658446 110.316019 513.658446 110.316019 363.681435 23.4755947 363.681435"></polygon>
                    <polygon id="Fill-121" fill="#B5CAD6" points="23.4755947 513.658446 86.0525153 513.658446 86.0525153 363.681435 23.4755947 363.681435"></polygon>
                    <polygon id="Fill-122" fill="#ECECEC" points="37.530409 513.658446 55.3970444 513.658446 55.3970444 363.681435 37.530409 363.681435"></polygon>
                    <path d="M23.4758398,513.658773 L110.316264,513.658773 L110.316264,519.289109 C110.316264,522.384037 107.784306,524.919444 104.686334,524.919444 L29.1065865,524.919444 C26.0094308,524.919444 23.4758398,522.384037 23.4758398,519.289109 L23.4758398,513.658773 Z" id="Fill-123" fill="#4E565A"></path>
                    <path d="M23.4758398,513.658773 L86.0527604,513.658773 L86.0527604,519.290742 C86.0527604,522.387304 83.5208029,524.919444 80.4244639,524.919444 L29.104953,524.919444 C26.0077972,524.919444 23.4758398,522.387304 23.4758398,519.290742 L23.4758398,513.658773 Z" id="Fill-124" fill="#3B3A39"></path>
                    <path d="M23.4758398,513.658773 L86.0527604,513.658773 L86.0527604,519.290742 C86.0527604,522.387304 83.5208029,524.919444 80.4244639,524.919444 L29.104953,524.919444 C26.0077972,524.919444 23.4758398,522.387304 23.4758398,519.290742 L23.4758398,513.658773 Z" id="Fill-125" fill="#748187"></path>
                    <path d="M110.316427,379.986782 L125.517973,379.986782 C130.247833,379.986782 134.54726,381.92101 137.655851,385.029824 C140.763624,388.137822 142.697713,392.438376 142.697713,397.17021 L142.697713,481.051019 C142.697713,485.784487 140.763624,490.085041 137.655851,493.193855 C134.54726,496.301036 130.247833,498.236081 125.517973,498.236081 L110.316427,498.236081 L110.316427,486.168392 L125.517973,486.168392 C126.913817,486.168392 128.194497,485.58845 129.123154,484.65891 C130.050994,483.731003 130.63171,482.451047 130.63171,481.051019 L130.63171,397.17021 C130.63171,395.771815 130.050994,394.493493 129.123154,393.563953 C128.194497,392.634412 126.913817,392.053654 125.517973,392.053654 L110.316427,392.053654 L110.316427,379.986782 Z" id="Fill-126" fill="#4E565A"></path>
                    <path d="M23.4758398,363.681516 L110.316264,363.681516 L110.316264,358.050364 C110.316264,354.956252 107.784306,352.420028 104.686334,352.420028 L29.1065865,352.420028 C26.0094308,352.420028 23.4758398,354.956252 23.4758398,358.050364 L23.4758398,363.681516 Z" id="Fill-127" fill="#4E565A"></path>
                    <path d="M23.4758398,363.681516 L86.0527604,363.681516 L86.0527604,358.04873 C86.0527604,354.951351 83.5208029,352.420028 80.4244639,352.420028 L29.104953,352.420028 C26.0077972,352.420028 23.4758398,354.951351 23.4758398,358.04873 L23.4758398,363.681516 Z" id="Fill-128" fill="#748187"></path>
                    <path d="M168.621935,253.169212 C167.052939,251.600102 164.879539,250.625636 162.47663,250.625636 C160.080254,250.625636 157.902771,251.600102 156.333774,253.169212 L156.328057,253.165128 C154.762327,254.735054 153.788748,256.911878 153.788748,259.314143 C153.788748,261.714775 154.762327,263.894049 156.328057,265.463976 C157.899504,267.029819 160.076171,268.003467 162.47663,268.003467 C164.881172,268.003467 167.056206,267.029819 168.627653,265.463976 L168.621935,265.459892 C170.193383,263.889148 171.166961,261.713142 171.166961,259.314143 C171.166961,256.913511 170.193383,254.738322 168.621935,253.169212 L168.621935,253.169212 Z M191.73299,309.831968 L191.727273,310.143176 L191.73299,310.469904 L191.719105,310.469904 C191.554936,314.567886 189.824221,318.266444 187.112576,320.981551 L187.102775,320.990536 C184.24738,323.842869 180.304061,325.611283 175.954811,325.611283 C171.599027,325.611283 167.652441,323.842869 164.79868,320.990536 C163.900243,320.092852 163.109619,319.08408 162.44641,317.988725 C161.7832,319.08408 160.991759,320.092852 160.093323,320.990536 C157.239561,323.842869 153.292975,325.611283 148.937191,325.611283 C144.587125,325.611283 140.644622,323.842869 137.788411,320.990536 L137.779426,320.981551 C135.067782,318.266444 133.336249,314.567886 133.172897,310.469904 L133.159012,310.469904 L133.165546,310.143176 L133.159012,309.831968 L133.16718,309.831968 L133.232521,303.60372 L133.304396,296.735087 L138.950661,303.60372 L144.60101,310.469904 L138.88042,310.469904 L137.717353,310.469904 C137.875804,313.320603 139.094411,315.888683 140.980311,317.782887 L140.989295,317.790238 C143.021395,319.816767 145.832685,321.072218 148.937191,321.072218 C152.041698,321.072218 154.852987,319.812683 156.885087,317.782887 C158.76527,315.900935 159.986327,313.350008 160.15703,310.518096 L160.15703,272.338327 C157.440485,271.853954 155.005722,270.539691 153.13289,268.669175 L153.123089,268.659373 C150.734881,266.268543 149.251644,262.959608 149.251644,259.314143 C149.251644,255.668679 150.734881,252.361377 153.123089,249.96973 L153.123089,249.959929 C155.518647,247.565831 158.828977,246.086571 162.47663,246.086571 C166.130816,246.086571 169.437879,247.565831 171.832621,249.959929 C174.224912,252.353209 175.704066,255.660511 175.704066,259.314143 C175.704066,262.962875 174.224912,266.273444 171.832621,268.669175 L171.82282,268.669175 C169.949988,270.539691 167.516859,271.853954 164.79868,272.338327 L164.79868,310.527081 L164.734156,310.527081 C164.908126,313.354909 166.126732,315.900935 168.006915,317.782887 C170.039015,319.812683 172.850304,321.072218 175.954811,321.072218 C179.059318,321.072218 181.870607,319.816767 183.902707,317.790238 L183.912508,317.782887 C185.797591,315.888683 187.017015,313.320603 187.17465,310.469904 L186.012399,310.469904 L180.290992,310.469904 L185.940525,303.60372 L191.587607,296.735087 L191.659481,303.60372 L191.725639,309.831968 L191.73299,309.831968 Z" id="Fill-129" fill="#868685"></path>
                    <path d="M163.895588,114.231758 L272.43162,114.231758 L272.43162,149.265139 L223.046198,149.265139 L223.046198,149.119745 C223.046198,143.513097 218.458454,138.927473 212.853844,138.927473 L163.895588,138.927473 L163.895588,114.231758 Z" id="Fill-130" fill="#BC8E4C"></path>
                    <path d="M272.431457,129.742912 L272.431457,149.264894 L223.046035,149.264894 L223.046035,149.120317 C223.046035,143.512852 218.458291,138.928045 212.853681,138.928045 L163.895424,138.928045 L163.895424,129.742912 L272.431457,129.742912 Z" id="Fill-131" fill="#946E30"></path>
                    <path d="M163.895588,106.765049 L148.79287,106.765049 L148.79287,144.872121 C148.79287,149.027281 152.192227,152.423616 156.343004,152.423616 L163.895588,152.423616 L163.895588,106.765049 Z" id="Fill-132" fill="#C5C5C6"></path>
                    <path d="M272.431457,106.765049 L287.534991,106.765049 L287.534991,154.060521 C287.534991,158.212414 284.135634,161.611199 279.984041,161.611199 L272.431457,161.611199 L272.431457,106.765049 Z" id="Fill-133" fill="#C5C5C6"></path>
                    <path d="M449.798835,114.231758 C440.422425,136.043284 412.716276,151.852822 379.990317,151.852822 L287.534665,151.852822 L287.534665,114.231758 L449.798835,114.231758 Z" id="Fill-134" fill="#ECECEC"></path>
                    <path d="M287.534746,144.101044 L287.534746,114.231595 L441.226199,114.231595 C429.22717,131.93697 404.386217,144.101044 375.680354,144.101044 L287.534746,144.101044 Z" id="Fill-135" fill="#C5C5C6"></path>
                    <polygon id="Fill-136" fill="#868685" points="287.535073 151.852414 293.245046 151.852414 293.245046 114.23135 287.535073 114.23135"></polygon>
                </g>
            </g>
            <path d="M680.86,1042.68 L685.148,1042.68 L694.908,1067 L690.652,1067 L688.092,1060.184 L677.724,1060.184 L675.164,1067 L671.1,1067 L680.86,1042.68 Z M686.876,1057.016 L682.876,1046.392 L678.908,1057.016 L686.876,1057.016 Z M699.78,1042.68 L708.676,1042.68 C711.086679,1042.68 712.963993,1043.21866 714.308,1044.296 C715.652007,1045.37334 716.324,1046.89332 716.324,1048.856 C716.324,1051.30935 715.278677,1053.016 713.188,1053.976 C714.55334,1054.40267 715.625329,1055.14933 716.404,1056.216 C717.182671,1057.28267 717.572,1058.54133 717.572,1059.992 C717.572,1062.23201 716.841341,1063.95999 715.38,1065.176 C713.918659,1066.39201 711.833347,1067 709.124,1067 L699.78,1067 L699.78,1042.68 Z M703.556,1063.704 L708.964,1063.704 C710.457341,1063.704 711.582663,1063.38934 712.34,1062.76 C713.097337,1062.13066 713.476,1061.19734 713.476,1059.96 C713.476,1057.35732 711.854683,1056.056 708.612,1056.056 L703.556,1056.056 L703.556,1063.704 Z M703.556,1052.76 L707.748,1052.76 C709.326675,1052.76 710.483996,1052.46134 711.22,1051.864 C711.956004,1051.26666 712.324,1050.33867 712.324,1049.08 C712.324,1048.03466 711.972004,1047.256 711.268,1046.744 C710.563996,1046.232 709.486674,1045.976 708.036,1045.976 L703.556,1045.976 L703.556,1052.76 Z M735.052,1063.928 C736.630675,1063.928 738.065327,1063.55467 739.356,1062.808 C740.646673,1062.06133 741.675996,1060.99467 742.444,1059.608 C743.212004,1058.22133 743.596,1056.63201 743.596,1054.84 C743.596,1053.15466 743.244004,1051.62401 742.54,1050.248 C741.835996,1048.87199 740.828007,1047.77867 739.516,1046.968 C738.203993,1046.15733 736.716008,1045.752 735.052,1045.752 C733.473325,1045.752 732.038673,1046.13066 730.748,1046.888 C729.457327,1047.64534 728.433337,1048.71733 727.676,1050.104 C726.918663,1051.49067 726.54,1053.06932 726.54,1054.84 C726.54,1056.52534 726.891996,1058.05599 727.596,1059.432 C728.300004,1060.80801 729.30266,1061.90133 730.604,1062.712 C731.90534,1063.52267 733.387992,1063.928 735.052,1063.928 L735.052,1063.928 Z M735.052,1067.512 C732.747988,1067.512 730.63601,1066.98401 728.716,1065.928 C726.79599,1064.87199 725.260006,1063.37334 724.108,1061.432 C722.955994,1059.49066 722.38,1057.29335 722.38,1054.84 C722.38,1052.57866 722.913328,1050.48801 723.98,1048.568 C725.046672,1046.64799 726.550657,1045.10134 728.492,1043.928 C730.433343,1042.75466 732.619988,1042.168 735.052,1042.168 C737.377345,1042.168 739.49999,1042.69599 741.42,1043.752 C743.34001,1044.80801 744.875994,1046.30666 746.028,1048.248 C747.180006,1050.18934 747.756,1052.38665 747.756,1054.84 C747.756,1057.10134 747.222672,1059.19199 746.156,1061.112 C745.089328,1063.03201 743.58001,1064.57866 741.628,1065.752 C739.67599,1066.92534 737.484012,1067.512 735.052,1067.512 L735.052,1067.512 Z M763.828,1067.512 C760.521317,1067.512 757.950676,1066.57868 756.116,1064.712 C754.281324,1062.84532 753.364,1060.22668 753.364,1056.856 L753.364,1042.68 L757.364,1042.68 L757.364,1056.536 C757.364,1058.98935 757.913328,1060.83466 759.012,1062.072 C760.110672,1063.30934 761.737323,1063.928 763.892,1063.928 C766.046677,1063.928 767.678661,1063.30934 768.788,1062.072 C769.897339,1060.83466 770.452,1058.98935 770.452,1056.536 L770.452,1042.68 L774.452,1042.68 L774.452,1056.856 C774.452,1060.22668 773.524009,1062.84532 771.668,1064.712 C769.811991,1066.57868 767.198684,1067.512 763.828,1067.512 L763.828,1067.512 Z M787.548,1046.04 L779.516,1046.04 L779.516,1042.68 L799.58,1042.68 L799.58,1046.04 L791.548,1046.04 L791.548,1067 L787.548,1067 L787.548,1046.04 Z M844.388,1042.68 L848.676,1042.68 L858.436,1067 L854.18,1067 L851.62,1060.184 L841.252,1060.184 L838.692,1067 L834.628,1067 L844.388,1042.68 Z M850.404,1057.016 L846.404,1046.392 L842.436,1057.016 L850.404,1057.016 Z M873.676,1067.352 C871.222654,1067.352 869.030676,1066.85067 867.1,1065.848 C865.169324,1064.84533 863.644006,1063.40534 862.524,1061.528 C861.403994,1059.65066 860.844,1057.47468 860.844,1055 C860.844,1052.58932 861.382661,1050.42934 862.46,1048.52 C863.537339,1046.61066 865.073323,1045.10134 867.068,1043.992 C869.062677,1042.88266 871.36132,1042.328 873.964,1042.328 C875.286673,1042.328 876.625327,1042.50933 877.98,1042.872 C879.334673,1043.23467 880.502662,1043.71466 881.484,1044.312 L880.812,1047.768 C879.489327,1047.128 878.278672,1046.65867 877.18,1046.36 C876.081328,1046.06133 874.977339,1045.912 873.868,1045.912 C872.161325,1045.912 870.64134,1046.27466 869.308,1047 C867.97466,1047.72534 866.924004,1048.77066 866.156,1050.136 C865.387996,1051.50134 865.004,1053.07999 865.004,1054.872 C865.004,1056.64268 865.36133,1058.19466 866.076,1059.528 C866.79067,1060.86134 867.825327,1061.90133 869.18,1062.648 C870.534673,1063.39467 872.129324,1063.768 873.964,1063.768 C875.094672,1063.768 876.299994,1063.608 877.58,1063.288 C878.860006,1062.968 880.086661,1062.52 881.26,1061.944 L881.676,1065.432 C879.243988,1066.71201 876.577348,1067.352 873.676,1067.352 L873.676,1067.352 Z M893.78,1046.04 L885.748,1046.04 L885.748,1042.68 L905.812,1042.68 L905.812,1046.04 L897.78,1046.04 L897.78,1067 L893.78,1067 L893.78,1046.04 Z M911.036,1042.68 L915.036,1042.68 L915.036,1067 L911.036,1067 L911.036,1042.68 Z M919.94,1042.68 L924.356,1042.68 L931.492,1062.712 L938.628,1042.68 L942.884,1042.68 L933.54,1067 L929.252,1067 L919.94,1042.68 Z M947.788,1042.68 L951.788,1042.68 L951.788,1067 L947.788,1067 L947.788,1042.68 Z M965.044,1046.04 L957.012,1046.04 L957.012,1042.68 L977.076,1042.68 L977.076,1046.04 L969.044,1046.04 L969.044,1067 L965.044,1067 L965.044,1046.04 Z M982.3,1042.68 L986.3,1042.68 L986.3,1067 L982.3,1067 L982.3,1042.68 Z M993.508,1042.68 L1009.092,1042.68 L1009.092,1046.04 L997.348,1046.04 L997.348,1052.92 L1007.812,1052.92 L1007.812,1056.28 L997.348,1056.28 L997.348,1063.64 L1009.572,1063.64 L1009.572,1067 L993.508,1067 L993.508,1042.68 Z M1022.764,1067.512 C1021.33466,1067.512 1019.86801,1067.32534 1018.364,1066.952 C1016.85999,1066.57866 1015.66,1066.104 1014.764,1065.528 L1015.212,1061.944 C1016.25734,1062.584 1017.45199,1063.096 1018.796,1063.48 C1020.14001,1063.864 1021.40933,1064.056 1022.604,1064.056 C1024.24667,1064.056 1025.516,1063.74667 1026.412,1063.128 C1027.308,1062.50933 1027.756,1061.63467 1027.756,1060.504 C1027.756,1059.544 1027.388,1058.77067 1026.652,1058.184 C1025.916,1057.59733 1024.53468,1056.984 1022.508,1056.344 C1019.86265,1055.512 1017.98534,1054.53067 1016.876,1053.4 C1015.76666,1052.26933 1015.212,1050.75468 1015.212,1048.856 C1015.212,1047.55466 1015.548,1046.39734 1016.22,1045.384 C1016.892,1044.37066 1017.86266,1043.58134 1019.132,1043.016 C1020.40134,1042.45066 1021.88932,1042.168 1023.596,1042.168 C1024.83334,1042.168 1026.08133,1042.32267 1027.34,1042.632 C1028.59867,1042.94133 1029.708,1043.36266 1030.668,1043.896 L1030.06,1047.384 C1029.12133,1046.85066 1028.08134,1046.424 1026.94,1046.104 C1025.79866,1045.784 1024.71601,1045.624 1023.692,1045.624 C1022.19866,1045.624 1021.05734,1045.90133 1020.268,1046.456 C1019.47866,1047.01067 1019.084,1047.81066 1019.084,1048.856 C1019.084,1049.53867 1019.23333,1050.09333 1019.532,1050.52 C1019.83067,1050.94667 1020.31066,1051.33066 1020.972,1051.672 C1021.63334,1052.01334 1022.57199,1052.376 1023.788,1052.76 C1025.79334,1053.4 1027.37199,1054.088 1028.524,1054.824 C1029.67601,1055.56 1030.50266,1056.38666 1031.004,1057.304 C1031.50534,1058.22134 1031.756,1059.28799 1031.756,1060.504 C1031.756,1061.89067 1031.39867,1063.11199 1030.684,1064.168 C1029.96933,1065.22401 1028.93467,1066.04533 1027.58,1066.632 C1026.22533,1067.21867 1024.62001,1067.512 1022.764,1067.512 L1022.764,1067.512 Z M1070.356,1042.68 L1079.252,1042.68 C1081.66268,1042.68 1083.53999,1043.21866 1084.884,1044.296 C1086.22801,1045.37334 1086.9,1046.89332 1086.9,1048.856 C1086.9,1051.30935 1085.85468,1053.016 1083.764,1053.976 C1085.12934,1054.40267 1086.20133,1055.14933 1086.98,1056.216 C1087.75867,1057.28267 1088.148,1058.54133 1088.148,1059.992 C1088.148,1062.23201 1087.41734,1063.95999 1085.956,1065.176 C1084.49466,1066.39201 1082.40935,1067 1079.7,1067 L1070.356,1067 L1070.356,1042.68 Z M1074.132,1063.704 L1079.54,1063.704 C1081.03334,1063.704 1082.15866,1063.38934 1082.916,1062.76 C1083.67334,1062.13066 1084.052,1061.19734 1084.052,1059.96 C1084.052,1057.35732 1082.43068,1056.056 1079.188,1056.056 L1074.132,1056.056 L1074.132,1063.704 Z M1074.132,1052.76 L1078.324,1052.76 C1079.90267,1052.76 1081.06,1052.46134 1081.796,1051.864 C1082.532,1051.26666 1082.9,1050.33867 1082.9,1049.08 C1082.9,1048.03466 1082.548,1047.256 1081.844,1046.744 C1081.14,1046.232 1080.06267,1045.976 1078.612,1045.976 L1074.132,1045.976 L1074.132,1052.76 Z M1094.076,1042.68 L1098.076,1042.68 L1098.076,1063.48 L1109.5,1063.48 L1109.5,1067 L1094.076,1067 L1094.076,1042.68 Z M1125.476,1063.928 C1127.05467,1063.928 1128.48933,1063.55467 1129.78,1062.808 C1131.07067,1062.06133 1132.1,1060.99467 1132.868,1059.608 C1133.636,1058.22133 1134.02,1056.63201 1134.02,1054.84 C1134.02,1053.15466 1133.668,1051.62401 1132.964,1050.248 C1132.26,1048.87199 1131.25201,1047.77867 1129.94,1046.968 C1128.62799,1046.15733 1127.14001,1045.752 1125.476,1045.752 C1123.89733,1045.752 1122.46267,1046.13066 1121.172,1046.888 C1119.88133,1047.64534 1118.85734,1048.71733 1118.1,1050.104 C1117.34266,1051.49067 1116.964,1053.06932 1116.964,1054.84 C1116.964,1056.52534 1117.316,1058.05599 1118.02,1059.432 C1118.724,1060.80801 1119.72666,1061.90133 1121.028,1062.712 C1122.32934,1063.52267 1123.81199,1063.928 1125.476,1063.928 L1125.476,1063.928 Z M1125.476,1067.512 C1123.17199,1067.512 1121.06001,1066.98401 1119.14,1065.928 C1117.21999,1064.87199 1115.68401,1063.37334 1114.532,1061.432 C1113.37999,1059.49066 1112.804,1057.29335 1112.804,1054.84 C1112.804,1052.57866 1113.33733,1050.48801 1114.404,1048.568 C1115.47067,1046.64799 1116.97466,1045.10134 1118.916,1043.928 C1120.85734,1042.75466 1123.04399,1042.168 1125.476,1042.168 C1127.80134,1042.168 1129.92399,1042.69599 1131.844,1043.752 C1133.76401,1044.80801 1135.29999,1046.30666 1136.452,1048.248 C1137.60401,1050.18934 1138.18,1052.38665 1138.18,1054.84 C1138.18,1057.10134 1137.64667,1059.19199 1136.58,1061.112 C1135.51333,1063.03201 1134.00401,1064.57866 1132.052,1065.752 C1130.09999,1066.92534 1127.90801,1067.512 1125.476,1067.512 L1125.476,1067.512 Z M1156.044,1067.352 C1153.52665,1067.352 1151.28134,1066.856 1149.308,1065.864 C1147.33466,1064.872 1145.78801,1063.44268 1144.668,1061.576 C1143.54799,1059.70932 1142.988,1057.52801 1142.988,1055.032 C1142.988,1052.57865 1143.53199,1050.39734 1144.62,1048.488 C1145.70801,1046.57866 1147.27066,1045.07467 1149.308,1043.976 C1151.34534,1042.87733 1153.70799,1042.328 1156.396,1042.328 C1157.86801,1042.328 1159.31866,1042.49866 1160.748,1042.84 C1162.17734,1043.18134 1163.48933,1043.66133 1164.684,1044.28 L1164.012,1047.8 C1162.88133,1047.18133 1161.63867,1046.712 1160.284,1046.392 C1158.92933,1046.072 1157.54801,1045.912 1156.14,1045.912 C1154.39066,1045.912 1152.83867,1046.27466 1151.484,1047 C1150.12933,1047.72534 1149.068,1048.77066 1148.3,1050.136 C1147.532,1051.50134 1147.148,1053.09066 1147.148,1054.904 C1147.148,1057.65601 1147.96399,1059.83199 1149.596,1061.432 C1151.22801,1063.03201 1153.44132,1063.832 1156.236,1063.832 C1157.15334,1063.832 1157.98533,1063.784 1158.732,1063.688 C1159.47867,1063.592 1160.32133,1063.416 1161.26,1063.16 L1161.26,1057.08 L1156.14,1057.08 L1156.14,1053.752 L1165.228,1053.752 L1165.228,1065.592 C1162.41199,1066.76534 1159.35068,1067.352 1156.044,1067.352 L1156.044,1067.352 Z M1215.252,1067.352 C1212.79865,1067.352 1210.60668,1066.85067 1208.676,1065.848 C1206.74532,1064.84533 1205.22001,1063.40534 1204.1,1061.528 C1202.97999,1059.65066 1202.42,1057.47468 1202.42,1055 C1202.42,1052.58932 1202.95866,1050.42934 1204.036,1048.52 C1205.11334,1046.61066 1206.64932,1045.10134 1208.644,1043.992 C1210.63868,1042.88266 1212.93732,1042.328 1215.54,1042.328 C1216.86267,1042.328 1218.20133,1042.50933 1219.556,1042.872 C1220.91067,1043.23467 1222.07866,1043.71466 1223.06,1044.312 L1222.388,1047.768 C1221.06533,1047.128 1219.85467,1046.65867 1218.756,1046.36 C1217.65733,1046.06133 1216.55334,1045.912 1215.444,1045.912 C1213.73732,1045.912 1212.21734,1046.27466 1210.884,1047 C1209.55066,1047.72534 1208.5,1048.77066 1207.732,1050.136 C1206.964,1051.50134 1206.58,1053.07999 1206.58,1054.872 C1206.58,1056.64268 1206.93733,1058.19466 1207.652,1059.528 C1208.36667,1060.86134 1209.40133,1061.90133 1210.756,1062.648 C1212.11067,1063.39467 1213.70532,1063.768 1215.54,1063.768 C1216.67067,1063.768 1217.87599,1063.608 1219.156,1063.288 C1220.43601,1062.968 1221.66266,1062.52 1222.836,1061.944 L1223.252,1065.432 C1220.81999,1066.71201 1218.15335,1067.352 1215.252,1067.352 L1215.252,1067.352 Z M1240.22,1063.928 C1241.79867,1063.928 1243.23333,1063.55467 1244.524,1062.808 C1245.81467,1062.06133 1246.844,1060.99467 1247.612,1059.608 C1248.38,1058.22133 1248.764,1056.63201 1248.764,1054.84 C1248.764,1053.15466 1248.412,1051.62401 1247.708,1050.248 C1247.004,1048.87199 1245.99601,1047.77867 1244.684,1046.968 C1243.37199,1046.15733 1241.88401,1045.752 1240.22,1045.752 C1238.64133,1045.752 1237.20667,1046.13066 1235.916,1046.888 C1234.62533,1047.64534 1233.60134,1048.71733 1232.844,1050.104 C1232.08666,1051.49067 1231.708,1053.06932 1231.708,1054.84 C1231.708,1056.52534 1232.06,1058.05599 1232.764,1059.432 C1233.468,1060.80801 1234.47066,1061.90133 1235.772,1062.712 C1237.07334,1063.52267 1238.55599,1063.928 1240.22,1063.928 L1240.22,1063.928 Z M1240.22,1067.512 C1237.91599,1067.512 1235.80401,1066.98401 1233.884,1065.928 C1231.96399,1064.87199 1230.42801,1063.37334 1229.276,1061.432 C1228.12399,1059.49066 1227.548,1057.29335 1227.548,1054.84 C1227.548,1052.57866 1228.08133,1050.48801 1229.148,1048.568 C1230.21467,1046.64799 1231.71866,1045.10134 1233.66,1043.928 C1235.60134,1042.75466 1237.78799,1042.168 1240.22,1042.168 C1242.54534,1042.168 1244.66799,1042.69599 1246.588,1043.752 C1248.50801,1044.80801 1250.04399,1046.30666 1251.196,1048.248 C1252.34801,1050.18934 1252.924,1052.38665 1252.924,1054.84 C1252.924,1057.10134 1252.39067,1059.19199 1251.324,1061.112 C1250.25733,1063.03201 1248.74801,1064.57866 1246.796,1065.752 C1244.84399,1066.92534 1242.65201,1067.512 1240.22,1067.512 L1240.22,1067.512 Z M1258.692,1042.68 L1262.372,1042.68 L1276.324,1061.208 L1276.324,1042.68 L1280.004,1042.68 L1280.004,1067 L1276.356,1067 L1262.372,1048.504 L1262.372,1067 L1258.692,1067 L1258.692,1042.68 Z M1293.26,1046.04 L1285.228,1046.04 L1285.228,1042.68 L1305.292,1042.68 L1305.292,1046.04 L1297.26,1046.04 L1297.26,1067 L1293.26,1067 L1293.26,1046.04 Z M1315.124,1042.68 L1319.412,1042.68 L1329.172,1067 L1324.916,1067 L1322.356,1060.184 L1311.988,1060.184 L1309.428,1067 L1305.364,1067 L1315.124,1042.68 Z M1321.14,1057.016 L1317.14,1046.392 L1313.172,1057.016 L1321.14,1057.016 Z M1344.412,1067.352 C1341.95865,1067.352 1339.76668,1066.85067 1337.836,1065.848 C1335.90532,1064.84533 1334.38001,1063.40534 1333.26,1061.528 C1332.13999,1059.65066 1331.58,1057.47468 1331.58,1055 C1331.58,1052.58932 1332.11866,1050.42934 1333.196,1048.52 C1334.27334,1046.61066 1335.80932,1045.10134 1337.804,1043.992 C1339.79868,1042.88266 1342.09732,1042.328 1344.7,1042.328 C1346.02267,1042.328 1347.36133,1042.50933 1348.716,1042.872 C1350.07067,1043.23467 1351.23866,1043.71466 1352.22,1044.312 L1351.548,1047.768 C1350.22533,1047.128 1349.01467,1046.65867 1347.916,1046.36 C1346.81733,1046.06133 1345.71334,1045.912 1344.604,1045.912 C1342.89732,1045.912 1341.37734,1046.27466 1340.044,1047 C1338.71066,1047.72534 1337.66,1048.77066 1336.892,1050.136 C1336.124,1051.50134 1335.74,1053.07999 1335.74,1054.872 C1335.74,1056.64268 1336.09733,1058.19466 1336.812,1059.528 C1337.52667,1060.86134 1338.56133,1061.90133 1339.916,1062.648 C1341.27067,1063.39467 1342.86532,1063.768 1344.7,1063.768 C1345.83067,1063.768 1347.03599,1063.608 1348.316,1063.288 C1349.59601,1062.968 1350.82266,1062.52 1351.996,1061.944 L1352.412,1065.432 C1349.97999,1066.71201 1347.31335,1067.352 1344.412,1067.352 L1344.412,1067.352 Z M1364.516,1046.04 L1356.484,1046.04 L1356.484,1042.68 L1376.548,1042.68 L1376.548,1046.04 L1368.516,1046.04 L1368.516,1067 L1364.516,1067 L1364.516,1046.04 Z" id="ABOUT----ACTIVITIES-" fill="#4E565A"></path>
            <path d="M712.708,275.792 C707.043972,275.792 702.028022,274.676011 697.66,272.444 C693.291978,270.211989 689.860012,266.984021 687.364,262.76 C684.867988,258.535979 683.62,253.592028 683.62,247.928 C683.62,242.551973 684.831988,237.716021 687.256,233.42 C689.680012,229.123979 693.147977,225.728012 697.66,223.232 C702.172023,220.735988 707.37997,219.488 713.284,219.488 C716.260015,219.488 719.295985,219.883996 722.392,220.676 C725.488015,221.468004 728.139989,222.535993 730.348,223.88 L728.548,233.168 C723.315974,230.575987 718.276024,229.28 713.428,229.28 C709.875982,229.28 706.708014,230.023993 703.924,231.512 C701.139986,233.000007 698.956008,235.135986 697.372,237.92 C695.787992,240.704014 694.996,243.967981 694.996,247.712 C694.996,253.328028 696.675983,257.779984 700.036,261.068 C703.396017,264.356016 707.931971,266 713.644,266 C716.140012,266 718.803986,265.640004 721.636,264.92 C724.468014,264.199996 727.131988,263.192006 729.628,261.896 L730.78,271.4 C728.331988,272.792007 725.524016,273.871996 722.356,274.64 C719.187984,275.408004 715.972016,275.792 712.708,275.792 L712.708,275.792 Z M764.644,220.28 L776.308,220.28 L798.052,275 L786.388,275 L781.204,260.6 L759.172,260.6 L753.916,275 L742.9,275 L764.644,220.28 Z M778.18,252.104 L770.116,230.072 L762.124,252.104 L778.18,252.104 Z M812.26,220.28 L823.636,220.28 L841.348,253.76 L859.204,220.28 L869.932,220.28 L869.932,275 L859.852,275 L859.852,236.552 L845.596,263.264 L836.596,263.264 L822.34,236.552 L822.34,275 L812.26,275 L812.26,220.28 Z M889.036,220.28 L906.892,220.28 C910.87602,220.28 914.379985,220.999993 917.404,222.44 C920.428015,223.880007 922.791991,225.943987 924.496,228.632 C926.200009,231.320013 927.052,234.487982 927.052,238.136 C927.052,243.656028 925.216018,248.059984 921.544,251.348 C917.871982,254.636016 912.964031,256.28 906.82,256.28 L899.692,256.28 L899.692,275 L889.036,275 L889.036,220.28 Z M899.692,247.424 L905.38,247.424 C908.980018,247.424 911.727991,246.632008 913.624,245.048 C915.520009,243.463992 916.468,241.184015 916.468,238.208 C916.468,235.231985 915.532009,232.976008 913.66,231.44 C911.787991,229.903992 909.028018,229.136 905.38,229.136 L899.692,229.136 L899.692,247.424 Z M979.948,276.152 C976.539983,276.152 973.108017,275.732004 969.652,274.892 C966.195983,274.051996 963.48401,272.960007 961.516,271.616 L962.596,262.184 C964.900012,263.672007 967.587985,264.847996 970.66,265.712 C973.732015,266.576004 976.683986,267.008 979.516,267.008 C982.828017,267.008 985.383991,266.396006 987.184,265.172 C988.984009,263.947994 989.884,262.232011 989.884,260.024 C989.884,258.151991 989.128008,256.640006 987.616,255.488 C986.103992,254.335994 983.236021,253.088007 979.012,251.744 C973.05997,249.871991 968.812013,247.640013 966.268,245.048 C963.723987,242.455987 962.452,239.024021 962.452,234.752 C962.452,231.679985 963.231992,228.968012 964.792,226.616 C966.352008,224.263988 968.619985,222.428007 971.596,221.108 C974.572015,219.787993 978.05198,219.128 982.036,219.128 C984.868014,219.128 987.747985,219.487996 990.676,220.208 C993.604015,220.928004 996.171989,221.911994 998.38,223.16 L996.868,232.304 C994.80399,231.103994 992.464013,230.132004 989.848,229.388 C987.231987,228.643996 984.748012,228.272 982.396,228.272 C979.323985,228.272 977.008008,228.823994 975.448,229.928 C973.887992,231.032006 973.108,232.61599 973.108,234.68 C973.108,235.976006 973.407997,237.043996 974.008,237.884 C974.608003,238.724004 975.591993,239.479997 976.96,240.152 C978.328007,240.824003 980.283987,241.567996 982.828,242.384 C989.356033,244.44801 993.987986,246.811987 996.724,249.476 C999.460014,252.140013 1000.828,255.607979 1000.828,259.88 C1000.828,264.920025 998.968019,268.891985 995.248,271.796 C991.527981,274.700015 986.428032,276.152 979.948,276.152 L979.948,276.152 Z M1017.7,220.28 L1028.716,220.28 L1028.716,275 L1017.7,275 L1017.7,220.28 Z M1061.356,229.352 L1043.788,229.352 L1043.788,220.28 L1089.94,220.28 L1089.94,229.352 L1072.372,229.352 L1072.372,275 L1061.356,275 L1061.356,229.352 Z M1105.012,220.28 L1141.156,220.28 L1141.156,229.496 L1115.668,229.496 L1115.668,242.6 L1138.204,242.6 L1138.204,251.744 L1115.668,251.744 L1115.668,265.784 L1142.164,265.784 L1142.164,275 L1105.012,275 L1105.012,220.28 Z M1159.396,220.28 L1170.412,220.28 L1170.412,265.928 L1195.18,265.928 L1195.18,275 L1159.396,275 L1159.396,220.28 Z M1210.252,220.28 L1246.396,220.28 L1246.396,229.496 L1220.908,229.496 L1220.908,242.6 L1243.444,242.6 L1243.444,251.744 L1220.908,251.744 L1220.908,265.784 L1247.404,265.784 L1247.404,275 L1210.252,275 L1210.252,220.28 Z M1281.844,220.28 L1293.508,220.28 L1315.252,275 L1303.588,275 L1298.404,260.6 L1276.372,260.6 L1271.116,275 L1260.1,275 L1281.844,220.28 Z M1295.38,252.104 L1287.316,230.072 L1279.324,252.104 L1295.38,252.104 Z M1329.46,220.28 L1364.668,220.28 L1364.668,229.496 L1340.332,229.496 L1340.332,244.112 L1361.356,244.112 L1361.356,253.256 L1340.332,253.256 L1340.332,275 L1329.46,275 L1329.46,220.28 Z" id="CAMP-SITELEAF" fill="#DCB600"></path>
        </g>
    </g>
</svg>