<?xml version="1.0" encoding="utf-8"?>
<!-- Generator: Adobe Illustrator 19.2.1, SVG Export Plug-In . SVG Version: 6.00 Build 0)  -->
<svg version="1.1" id="Layer_1" xmlns="http://www.w3.org/2000/svg" xmlns:xlink="http://www.w3.org/1999/xlink" x="0px" y="0px"
	 viewBox="0 0 360 360" style="enable-background:new 0 0 360 360;" xml:space="preserve">
<style type="text/css">
	.st0{fill:#374252;}
	.st1{fill:#F7F8FA;}
	.st2{fill:#8B94A1;}
	.st3{fill:#111111;}
	.st4{fill:none;}
	.st5{fill:#D3D8E0;}
	.st6{fill:#B0B7C2;}
	.st7{fill:#8DCF3F;}
	.st8{fill:#FFFFFF;}
</style>
<path class="st0" d="M106,341.8l-6.6-5.5c-14.6,0-23.7-7.9-26.6-20.5H35C48,338.2,74.2,355,97.7,355h8.3c3.6,0,6.6-2.9,6.6-6.6
	S109.6,341.8,106,341.8z"/>
<g>
	<path class="st1" d="M153.6,85.3c-7.4-19.5-30.7-33.3-39.4-28.5s-9.5,31.8,3.1,48.5L153.6,85.3z"/>
	<path class="st0" d="M118.4,64.5c-6.1,3.4-3.9,25.9,4.1,37.6L148.1,88C142.4,75,124.5,61.2,118.4,64.5z"/>
</g>
<g>
	<path class="st1" d="M190.4,85.3c7.4-19.5,30.7-33.3,39.4-28.5s9.5,31.8-3.1,48.5L190.4,85.3z"/>
	<path class="st0" d="M225.6,64.5c6.1,3.4,3.9,25.9-4.1,37.6L195.9,88C201.6,75,219.5,61.2,225.6,64.5z"/>
</g>
<path class="st2" d="M172,80.2c-41,0-74.9,33.9-74.9,70.8l74.9,37.4l74.9-37.4C246.9,114.1,213,80.2,172,80.2z"/>
<path class="st2" d="M172,166.1c-40,0-72,32.4-72,72.5V355h144V238.6C244,198.6,212,166.1,172,166.1z"/>
<path class="st1" d="M179.2,104.6v56.2h-14.4v-56.2c-29.8,2.1-54.9,23.1-58.4,51l65.7,32.8l65.7-32.8
	C234.1,127.7,209,106.7,179.2,104.6z"/>
<path class="st0" d="M183.2,118.5v25.6c13.5,2.8,22.8,13.6,25.3,26.1l19.9-9.9C225,137.2,203.8,119.7,183.2,118.5z"/>
<path class="st0" d="M160.8,118.5v25.6c-13.5,2.8-22.8,13.6-25.3,26.1l-19.9-9.9C119,137.2,140.2,119.7,160.8,118.5z"/>
<circle class="st3" cx="194.1" cy="131.8" r="7"/>
<circle class="st3" cx="149.9" cy="131.8" r="7"/>
<path class="st0" d="M146.5,230.3c-7.5,0-13.5,6-13.5,13.5V355h27V243.8C160,236.4,154,230.3,146.5,230.3z"/>
<path class="st0" d="M197.5,230.3c-7.5,0-13.5,6-13.5,13.5V355h27V243.8C211,236.4,205,230.3,197.5,230.3z"/>
<path class="st0" d="M168.5,169.9l-11.6-11.6c7.7-7.7,21.6-8.3,30.2,0.2l-11.4,11.4C173.7,171.9,170.5,171.9,168.5,169.9z"/>
<line class="st4" x1="239.7" y1="154.6" x2="251.5" y2="148.7"/>
<g>
	<path class="st5" d="M355,346H198v-91.9c0-5.6,4-10.1,9.6-10.1h137.7c5.6,0,9.7,4.6,9.7,10.1V346z"/>
	<rect x="198" y="346" class="st6" width="157" height="9"/>
	<g>
		<path class="st7" d="M225.8,254.6l0.5,0c9.4,0.1,14.8,8,14.6,19.2c-0.2,16.3-9.3,27.1-21.9,26.9l-6.2-0.1
			c-2.7-6-4.4-13.8-4.3-22.3C208.7,263.5,214.8,254.4,225.8,254.6z"/>
		<g>
			<path class="st8" d="M213.5,286.1c-0.2-0.1-0.3-0.3-0.3-0.5c0-0.3,0.2-0.6,0.6-0.6c0.1,0,0.2,0,0.3,0.1c0.5,0.3,1,0.5,1.4,0.5
				c0.4,0,0.6-0.2,0.6-0.4v0c0-0.3-0.5-0.4-1.1-0.6c-0.7-0.2-1.5-0.5-1.5-1.5v0c0-1,0.8-1.6,1.9-1.6c0.5,0,1.1,0.1,1.6,0.4
				c0.2,0.1,0.3,0.3,0.3,0.5c0,0.3-0.3,0.6-0.6,0.6c-0.1,0-0.2,0-0.3-0.1c-0.4-0.2-0.8-0.3-1.1-0.3c-0.4,0-0.5,0.2-0.5,0.4v0
				c0,0.3,0.5,0.4,1,0.6c0.7,0.2,1.5,0.6,1.5,1.5v0c0,1.1-0.8,1.7-2,1.7C214.8,286.7,214.1,286.5,213.5,286.1z"/>
			<path class="st8" d="M218.3,280.2c0-0.4,0.4-0.7,0.8-0.7c0.5,0,0.8,0.3,0.8,0.7v0c0,0.4-0.4,0.7-0.8,0.7
				C218.7,280.9,218.3,280.7,218.3,280.2L218.3,280.2z M218.4,282.1c0-0.4,0.3-0.7,0.7-0.7c0.4,0,0.7,0.3,0.7,0.7v3.8
				c0,0.4-0.3,0.7-0.7,0.7c-0.4,0-0.7-0.3-0.7-0.7V282.1z"/>
			<path class="st8" d="M221.3,285.1v-2.4h0c-0.3,0-0.6-0.3-0.6-0.6c0-0.3,0.3-0.6,0.6-0.6h0v-0.6c0-0.4,0.3-0.7,0.7-0.7
				c0.4,0,0.7,0.3,0.7,0.7v0.6h0.6c0.3,0,0.6,0.3,0.6,0.6c0,0.3-0.3,0.6-0.6,0.6h-0.6v2.2c0,0.3,0.1,0.5,0.5,0.5c0,0,0.1,0,0.2,0
				c0.3,0,0.6,0.3,0.6,0.6c0,0.3-0.2,0.5-0.4,0.5c-0.3,0.1-0.5,0.1-0.8,0.1C221.9,286.6,221.3,286.3,221.3,285.1z"/>
			<path class="st8" d="M227.2,286.7c-1.5,0-2.7-1.1-2.7-2.6v0c0-1.5,1-2.7,2.5-2.7c1.7,0,2.5,1.4,2.5,2.5c0,0.4-0.3,0.7-0.7,0.7
				H226c0.1,0.7,0.6,1,1.3,1c0.4,0,0.7-0.1,1-0.3c0.1-0.1,0.2-0.1,0.4-0.1c0.3,0,0.6,0.2,0.6,0.6c0,0.2-0.1,0.3-0.2,0.4
				C228.6,286.4,228,286.7,227.2,286.7z M228.2,283.6c-0.1-0.6-0.5-1.1-1.1-1.1c-0.6,0-1,0.4-1.1,1.1H228.2z"/>
			<path class="st8" d="M213.7,288.4c0-0.4,0.3-0.7,0.7-0.7c0.4,0,0.7,0.3,0.7,0.7v5.6c0,0.4-0.3,0.7-0.7,0.7
				c-0.4,0-0.7-0.3-0.7-0.7V288.4z"/>
			<path class="st8" d="M218.6,294.9c-1.5,0-2.7-1.1-2.7-2.6v0c0-1.5,1-2.7,2.5-2.7c1.7,0,2.5,1.4,2.5,2.5c0,0.4-0.3,0.7-0.7,0.7
				h-2.9c0.1,0.7,0.6,1,1.3,1c0.4,0,0.7-0.1,1-0.3c0.1-0.1,0.2-0.1,0.4-0.1c0.3,0,0.6,0.2,0.6,0.6c0,0.2-0.1,0.3-0.2,0.4
				C219.9,294.6,219.3,294.9,218.6,294.9z M219.5,291.8c-0.1-0.6-0.5-1.1-1.1-1.1c-0.6,0-1,0.4-1.1,1.1H219.5z"/>
			<path class="st8" d="M221.2,293.3L221.2,293.3c0-1.1,0.8-1.7,2.1-1.7c0.5,0,0.9,0.1,1.3,0.2v-0.1c0-0.6-0.4-0.9-1.1-0.9
				c-0.4,0-0.7,0.1-1,0.1c-0.1,0-0.1,0-0.2,0c-0.3,0-0.6-0.3-0.6-0.6c0-0.3,0.2-0.5,0.4-0.6c0.5-0.2,1-0.3,1.6-0.3
				c0.8,0,1.4,0.2,1.7,0.6c0.4,0.4,0.6,0.9,0.6,1.6v2.3c0,0.4-0.3,0.7-0.7,0.7c-0.4,0-0.7-0.3-0.7-0.6v0c-0.4,0.4-0.8,0.6-1.5,0.6
				C222,294.8,221.2,294.3,221.2,293.3z M224.6,292.9v-0.3c-0.2-0.1-0.6-0.2-0.9-0.2c-0.6,0-1,0.2-1,0.7v0c0,0.4,0.3,0.6,0.8,0.6
				C224.1,293.8,224.6,293.5,224.6,292.9z"/>
			<path class="st8" d="M227.1,290.9L227.1,290.9c-0.4,0-0.7-0.3-0.7-0.6c0-0.3,0.3-0.6,0.6-0.6h0.1v-0.3c0-0.6,0.1-1,0.4-1.2
				c0.3-0.3,0.7-0.4,1.2-0.4c0.2,0,0.4,0,0.6,0c0.2,0,0.5,0.3,0.5,0.6c0,0.3-0.3,0.6-0.6,0.6H229c-0.3,0-0.5,0.2-0.5,0.6v0.2h0.6
				c0.3,0,0.6,0.3,0.6,0.6c0,0.3-0.3,0.6-0.6,0.6h-0.6v3.2c0,0.4-0.3,0.7-0.7,0.7c-0.4,0-0.7-0.3-0.7-0.7V290.9z"/>
		</g>
	</g>
	<path class="st8" d="M291.5,301.8c1.5-1.5,1.5-4.1,0-5.6l-5.7-5.7l2.5-2.5h3.6c1.3,0,2.3-0.8,2.3-2.1c0-1.3-1-2.1-2.3-2.1l-5.6,0
		l-3.7,3.6l-6.3-6.3c-1.5-1.5-4.1-1.5-5.6,0l-3.3,3.3l2.2,2.2c-2,2-4.8,4.8-6.8,6.8c-5.6,5.6-0.6,16.9-0.6,16.9s11.3,5.1,16.9-0.6
		c2-2,4.8-4.8,6.8-6.8l2.2,2.2L291.5,301.8z"/>
</g>
<path class="st0" d="M52.2,140.9c-7.4,2.5-14.9,17.5-20.4,39.2l50.6,1.3C80,161.4,69.2,135.1,52.2,140.9z"/>
<path class="st0" d="M83.1,210.5l-56.8-1.3c-1.2,9.4-2.1,19.4-2.5,29.7l57.5-0.7C82.3,229,82.9,219.7,83.1,210.5z"/>
<path class="st1" d="M81.4,238.1l-57.5,0.7c-0.3,8.7-0.3,17.7,0.2,26.7l54-0.2C79.4,256.5,80.5,247.4,81.4,238.1z"/>
<path class="st1" d="M82.9,186.3c-0.1-1.6-0.2-3.2-0.5-5l-50.6-1.3c-2.2,8.7-4.1,18.6-5.5,29.1l56.8,1.3
	C83.3,202.3,83.3,194.2,82.9,186.3z"/>
<path class="st0" d="M78,265.4l-54,0.2c0.4,8.5,1.3,17.1,2.5,25.5l47.4-1.8C75.4,281.7,76.8,273.7,78,265.4z"/>
<path class="st1" d="M73,294.5c0.3-1.7,0.7-3.5,1-5.3L26.6,291c0.2,1.3,0.4,2.6,0.6,3.9c1.2,7.3,3.9,14.3,7.8,20.9h37.8
	C71.3,309.7,71.4,302.5,73,294.5z"/>
<g>
	<path class="st0" d="M186.2,175.1c-0.7,0-1.4-0.5-1.6-1.2c-0.3-0.9,0.2-1.8,1.1-2c0.1,0,9.1-2.8,11.5-10.8c0.3-0.9,1.2-1.4,2-1.1
		c0.9,0.3,1.4,1.2,1.1,2c-2.9,9.7-13.3,12.8-13.7,13C186.5,175.1,186.3,175.1,186.2,175.1z"/>
</g>
</svg>
