<?xml version="1.0" encoding="utf-8"?>
<!-- Generator: Adobe Illustrator 19.2.1, SVG Export Plug-In . SVG Version: 6.00 Build 0)  -->
<svg version="1.1" id="Layer_1" xmlns="http://www.w3.org/2000/svg" xmlns:xlink="http://www.w3.org/1999/xlink" x="0px" y="0px"
	 viewBox="0 0 1080 675" style="enable-background:new 0 0 1080 675;" xml:space="preserve">
<style type="text/css">
	.st0{fill:#5A6576;}
	.st1{fill:#FFFFFF;}
	.st2{fill:none;stroke:#FFFFFF;stroke-width:0.4;stroke-miterlimit:10;}
	.st3{fill:#8992A1;}
</style>
<circle class="st0" cx="253.2" cy="161" r="2.3"/>
<circle class="st0" cx="861.2" cy="292.9" r="2.3"/>
<circle class="st0" cx="598.8" cy="210.8" r="2.3"/>
<circle class="st0" cx="756.9" cy="555.3" r="2.3"/>
<circle class="st0" cx="500.3" cy="161" r="2.3"/>
<circle class="st0" cx="813.3" cy="165.5" r="2.3"/>
<circle class="st0" cx="877.3" cy="407.1" r="2.3"/>
<circle class="st0" cx="346.2" cy="404.8" r="2.3"/>
<circle class="st0" cx="405.8" cy="297.4" r="2.3"/>
<circle class="st0" cx="209.8" cy="274.1" r="2.3"/>
<circle class="st0" cx="540" cy="374.4" r="2.3"/>
<circle class="st0" cx="470.8" cy="532.2" r="2.3"/>
<circle class="st0" cx="205.2" cy="447.9" r="2.3"/>
<circle class="st1" cx="605.8" cy="150.2" r="2.3"/>
<circle class="st1" cx="596.5" cy="554" r="2.3"/>
<circle class="st1" cx="782.4" cy="471.4" r="2.3"/>
<circle class="st1" cx="103.6" cy="410" r="2.3"/>
<circle class="st1" cx="988.8" cy="156.6" r="2.3"/>
<circle class="st1" cx="923.6" cy="114.5" r="2.3"/>
<circle class="st1" cx="188.7" cy="204.8" r="2.3"/>
<path class="st1" d="M733.7,416.6c1.2-0.8,0.9-1.5-0.5-1.5h-2.6l-0.8-2.5c-0.4-1.4-1.2-1.4-1.6,0l-0.8,2.5h-2.6
	c-1.4,0-1.7,0.7-0.5,1.5l2.1,1.5l-0.8,2.5c-0.4,1.4,0.1,1.8,1.3,0.9l0,0l2.1-1.5l2.1,1.5c1.2,0.8,1.7,0.4,1.3-0.9l-0.8-2.5
	L733.7,416.6z"/>
<path class="st1" d="M597.5,198.3c1.2-0.8,0.9-1.5-0.5-1.5h-2.6l-0.8-2.5c-0.4-1.4-1.2-1.4-1.6,0l-0.8,2.5h-2.6
	c-1.4,0-1.7,0.7-0.5,1.5l2.1,1.5l-0.8,2.5c-0.4,1.4,0.1,1.8,1.3,0.9l0,0l2.1-1.5l2.1,1.5c1.2,0.8,1.7,0.4,1.3-0.9l-0.8-2.5
	L597.5,198.3z"/>
<path class="st1" d="M820.9,561.1c1.2-0.8,0.9-1.5-0.5-1.5h-2.6l-0.8-2.5c-0.4-1.4-1.2-1.4-1.6,0l-0.8,2.5H812
	c-1.4,0-1.7,0.7-0.5,1.5l2.1,1.5l-0.8,2.5c-0.4,1.4,0.1,1.8,1.3,0.9l0,0l2.1-1.5l2.1,1.5c1.2,0.8,1.7,0.4,1.3-0.9l-0.8-2.5
	L820.9,561.1z"/>
<path class="st1" d="M855.6,247.9c1.2-0.8,0.9-1.5-0.5-1.5h-2.6l-0.8-2.5c-0.4-1.4-1.2-1.4-1.6,0l-0.8,2.5h-2.6
	c-1.4,0-1.7,0.7-0.5,1.5l2.1,1.5l-0.8,2.5c-0.4,1.4,0.1,1.8,1.3,0.9l0,0l2.1-1.5l2.1,1.5c1.2,0.8,1.7,0.4,1.3-0.9l-0.8-2.5
	L855.6,247.9z"/>
<path class="st1" d="M760.4,379.6c1.2-0.8,0.9-1.5-0.5-1.5h-2.6l-0.8-2.5c-0.4-1.4-1.2-1.4-1.6,0l-0.8,2.5h-2.6
	c-1.4,0-1.7,0.7-0.5,1.5l2.1,1.5l-0.8,2.5c-0.4,1.4,0.1,1.8,1.3,0.9l0,0l2.1-1.5l2.1,1.5c1.2,0.8,1.7,0.4,1.3-0.9l-0.8-2.5
	L760.4,379.6z"/>
<path class="st1" d="M1008.3,252c1.2-0.8,0.9-1.5-0.5-1.5h-2.6l-0.8-2.5c-0.4-1.4-1.2-1.4-1.6,0l-0.8,2.5h-2.6
	c-1.4,0-1.7,0.7-0.5,1.5l2.1,1.5l-0.8,2.5c-0.4,1.4,0.1,1.8,1.3,0.9l0,0l2.1-1.5l2.1,1.5c1.2,0.8,1.7,0.4,1.3-0.9l-0.8-2.5
	L1008.3,252z"/>
<path class="st1" d="M1004,408.1c1.2-0.8,0.9-1.5-0.5-1.5h-2.6l-0.8-2.5c-0.4-1.4-1.2-1.4-1.6,0l-0.8,2.5h-2.6
	c-1.4,0-1.7,0.7-0.5,1.5l2.1,1.5l-0.8,2.5c-0.4,1.4,0.1,1.8,1.3,0.9l0,0l2.1-1.5l2.1,1.5c1.2,0.8,1.7,0.4,1.3-0.9l-0.8-2.5
	L1004,408.1z"/>
<path class="st1" d="M182.6,620.3c1.2-0.8,0.9-1.5-0.5-1.5h-2.6l-0.8-2.5c-0.4-1.4-1.2-1.4-1.6,0l-0.8,2.5h-2.6
	c-1.4,0-1.7,0.7-0.5,1.5l2.1,1.5l-0.8,2.5c-0.4,1.4,0.1,1.8,1.3,0.9l0,0l2.1-1.5l2.1,1.5c1.2,0.8,1.7,0.4,1.3-0.9l-0.8-2.5
	L182.6,620.3z"/>
<path class="st1" d="M256.8,386.8c1.2-0.8,0.9-1.5-0.5-1.5h-2.6l-0.8-2.5c-0.4-1.4-1.2-1.4-1.6,0l-0.8,2.5h-2.6
	c-1.4,0-1.7,0.7-0.5,1.5l2.1,1.5l-0.8,2.5c-0.4,1.4,0.1,1.8,1.3,0.9l0,0l2.1-1.5l2.1,1.5c1.2,0.8,1.7,0.4,1.3-0.9l-0.8-2.5
	L256.8,386.8z"/>
<path class="st1" d="M305.8,587.2c1.2-0.8,0.9-1.5-0.5-1.5h-2.6l-0.8-2.5c-0.4-1.4-1.2-1.4-1.6,0l-0.8,2.5h-2.6
	c-1.4,0-1.7,0.7-0.5,1.5l2.1,1.5l-0.8,2.5c-0.4,1.4,0.1,1.8,1.3,0.9l0,0l2.1-1.5l2.1,1.5c1.2,0.8,1.7,0.4,1.3-0.9l-0.8-2.5
	L305.8,587.2z"/>
<path class="st1" d="M142.4,316.6c1.2-0.8,0.9-1.5-0.5-1.5h-2.6l-0.8-2.5c-0.4-1.4-1.2-1.4-1.6,0l-0.8,2.5h-2.6
	c-1.4,0-1.7,0.7-0.5,1.5l2.1,1.5l-0.8,2.5c-0.4,1.4,0.1,1.8,1.3,0.9l0,0l2.1-1.5l2.1,1.5c1.2,0.8,1.7,0.4,1.3-0.9l-0.8-2.5
	L142.4,316.6z"/>
<path class="st1" d="M234.9,105.6c1.2-0.8,0.9-1.5-0.5-1.5h-2.6l-0.8-2.5c-0.4-1.4-1.2-1.4-1.6,0l-0.8,2.5H226
	c-1.4,0-1.7,0.7-0.5,1.5l2.1,1.5l-0.8,2.5c-0.4,1.4,0.1,1.8,1.3,0.9l0,0l2.1-1.5l2.1,1.5c1.2,0.8,1.7,0.4,1.3-0.9l-0.8-2.5
	L234.9,105.6z"/>
<path class="st1" d="M920.4,560.3h-4.3l-1.3-4.1c0,0,0,0,0,0c-0.7-2.3-1.9-2.3-2.7,0l-1.3,4.1h-4.3c-2.4,0-2.8,1.1-0.8,2.5l3.5,2.5
	l-1.3,4.1v0c-0.7,2.3,0.2,3,2.2,1.6l0,0l3.5-2.5l3.5,2.5c1.9,1.4,2.9,0.7,2.2-1.6l-1.3-4.1l3.5-2.5v0
	C923.2,561.4,922.8,560.3,920.4,560.3z M913.4,565.8c-1.3,0-2.3-1-2.3-2.3c0-1.3,1-2.3,2.3-2.3c1.3,0,2.3,1,2.3,2.3
	C915.7,564.7,914.7,565.8,913.4,565.8z"/>
<path class="st1" d="M955.1,258.4h-4.3l-1.3-4.1c0,0,0,0,0,0c-0.7-2.3-1.9-2.3-2.7,0l-1.3,4.1h-4.3c-2.4,0-2.8,1.1-0.8,2.5l3.5,2.5
	l-1.3,4.1v0c-0.7,2.3,0.2,3,2.2,1.6l0,0l3.5-2.5l3.5,2.5c1.9,1.4,2.9,0.7,2.2-1.6l-1.3-4.1l3.5-2.5v0
	C957.9,259.5,957.5,258.4,955.1,258.4z M948.1,263.9c-1.3,0-2.3-1-2.3-2.3c0-1.3,1-2.3,2.3-2.3c1.3,0,2.3,1,2.3,2.3
	C950.4,262.9,949.4,263.9,948.1,263.9z"/>
<path class="st1" d="M874.6,440.9h-4.3l-1.3-4.1l0,0c-0.7-2.3-1.9-2.3-2.7,0l-1.3,4.1h-4.3c-2.4,0-2.8,1.1-0.8,2.5l3.5,2.5l-1.3,4.1
	c0,0,0,0,0,0c-0.7,2.3,0.2,3,2.2,1.6l0,0l3.5-2.5l3.5,2.5c1.9,1.4,2.9,0.7,2.2-1.6l-1.3-4.1l3.5-2.5v0
	C877.3,442,877,440.9,874.6,440.9z M867.6,446.4c-1.3,0-2.3-1-2.3-2.3c0-1.3,1-2.3,2.3-2.3c1.3,0,2.3,1,2.3,2.3
	C869.9,445.4,868.8,446.4,867.6,446.4z"/>
<path class="st1" d="M294.8,415.8h-4.3l-1.3-4.1l0,0c-0.7-2.3-1.9-2.3-2.7,0l-1.3,4.1h-4.3c-2.4,0-2.8,1.1-0.8,2.5l3.5,2.5l-1.3,4.1
	v0c-0.7,2.3,0.2,3,2.2,1.6l0,0l3.5-2.5l3.5,2.5c1.9,1.4,2.9,0.7,2.2-1.6l-1.3-4.1l3.5-2.5v0C297.5,417,297.2,415.8,294.8,415.8z
	 M287.8,421.3c-1.3,0-2.3-1-2.3-2.3c0-1.3,1-2.3,2.3-2.3c1.3,0,2.3,1,2.3,2.3C290,420.3,289,421.3,287.8,421.3z"/>
<path class="st1" d="M356.3,87.8H352l-1.3-4.1l0,0c-0.7-2.3-1.9-2.3-2.7,0l-1.3,4.1h-4.3c-2.4,0-2.8,1.1-0.8,2.5l3.5,2.5l-1.3,4.1v0
	c-0.7,2.3,0.2,3,2.2,1.6l0,0l3.5-2.5l3.5,2.5c1.9,1.4,2.9,0.7,2.2-1.6l-1.3-4.1l3.5-2.5v0C359.1,89,358.7,87.8,356.3,87.8z
	 M349.3,93.3c-1.3,0-2.3-1-2.3-2.3c0-1.3,1-2.3,2.3-2.3c1.3,0,2.3,1,2.3,2.3C351.6,92.3,350.6,93.3,349.3,93.3z"/>
<path class="st1" d="M897.5,109.1l-2.1-2.3l2.1-2.3c1.2-1.3,0.8-2-0.9-1.6l0,0l-3.1,0.7l-0.9-3v0c-0.5-1.6-1.3-1.6-1.8,0l-0.9,3
	l-3.1-0.7h0c-1.7-0.4-2.1,0.3-0.9,1.6l0,0l2.1,2.3l-2.1,2.3l0,0c-1.2,1.3-0.8,2,0.9,1.6h0l3.1-0.7l0.9,3c0.5,1.6,1.3,1.6,1.8,0
	l0.9-3l3.1,0.7l0,0C898.3,111.1,898.7,110.4,897.5,109.1z"/>
<path class="st1" d="M559.5,437.3l-2.1-2.3l2.1-2.3c1.2-1.3,0.8-2-0.9-1.6l0,0l-3.1,0.7l-0.9-3v0c-0.5-1.6-1.3-1.6-1.8,0l-0.9,3
	l-3.1-0.7h0c-1.7-0.4-2.1,0.3-0.9,1.6l0,0l2.1,2.3l-2.1,2.3l0,0c-1.2,1.3-0.8,2,0.9,1.6h0l3.1-0.7l0.9,3c0.5,1.6,1.3,1.6,1.8,0
	l0.9-3l3.1,0.7l0,0C560.3,439.2,560.7,438.5,559.5,437.3z"/>
<path class="st1" d="M259.6,483.4l-2.1-2.3l2.1-2.3c1.2-1.3,0.8-2-0.9-1.6l0,0l-3.1,0.7l-0.9-3v0c-0.5-1.6-1.3-1.6-1.8,0l-0.9,3
	l-3.1-0.7h0c-1.7-0.4-2.1,0.3-0.9,1.6l0,0l2.1,2.3l-2.1,2.3l0,0c-1.2,1.3-0.8,2,0.9,1.6h0l3.1-0.7l0.9,3c0.5,1.6,1.3,1.6,1.8,0
	l0.9-3l3.1,0.7l0,0C260.3,485.4,260.7,484.7,259.6,483.4z"/>
<path class="st1" d="M880.6,575.9l-2.1-2.3l2.1-2.3c1.2-1.3,0.8-2-0.9-1.6l0,0l-3.1,0.7l-0.9-3v0c-0.5-1.6-1.3-1.6-1.8,0l-0.9,3
	l-3.1-0.7h0c-1.7-0.4-2.1,0.3-0.9,1.6l0,0l2.1,2.3l-2.1,2.3l0,0c-1.2,1.3-0.8,2,0.9,1.6h0l3.1-0.7l0.9,3c0.5,1.6,1.3,1.6,1.8,0
	l0.9-3l3.1,0.7l0,0C881.4,577.9,881.8,577.2,880.6,575.9z"/>
<path class="st1" d="M783,538l-2.1-2.3l2.1-2.3c1.2-1.3,0.8-2-0.9-1.6l0,0l-3.1,0.7l-0.9-3v0c-0.5-1.6-1.3-1.6-1.8,0l-0.9,3
	l-3.1-0.7h0c-1.7-0.4-2.1,0.3-0.9,1.6l0,0l2.1,2.3l-2.1,2.3l0,0c-1.2,1.3-0.8,2,0.9,1.6h0l3.1-0.7l0.9,3c0.5,1.6,1.3,1.6,1.8,0
	l0.9-3l3.1,0.7l0,0C783.8,540,784.2,539.3,783,538z"/>
<path class="st1" d="M804.8,219.7l-2.1-2.3l2.1-2.3c1.2-1.3,0.8-2-0.9-1.6l0,0l-3.1,0.7l-0.9-3v0c-0.5-1.6-1.3-1.6-1.8,0l-0.9,3
	l-3.1-0.7h0c-1.7-0.4-2.1,0.3-0.9,1.6l0,0l2.1,2.3l-2.1,2.3l0,0c-1.2,1.3-0.8,2,0.9,1.6h0l3.1-0.7l0.9,3c0.5,1.6,1.3,1.6,1.8,0
	l0.9-3l3.1,0.7l0,0C805.5,221.7,806,221,804.8,219.7z"/>
<path class="st1" d="M360.7,381.8l-2.1-2.3l2.1-2.3c1.2-1.3,0.8-2-0.9-1.6l0,0l-3.1,0.7l-0.9-3v0c-0.5-1.6-1.3-1.6-1.8,0l-0.9,3
	l-3.1-0.7h0c-1.7-0.4-2.1,0.3-0.9,1.6l0,0l2.1,2.3l-2.1,2.3l0,0c-1.2,1.3-0.8,2,0.9,1.6h0l3.1-0.7l0.9,3c0.5,1.6,1.3,1.6,1.8,0
	l0.9-3l3.1,0.7l0,0C361.5,383.8,361.9,383.1,360.7,381.8z"/>
<path class="st1" d="M71,223.3l-2.1-2.3l2.1-2.3c1.2-1.3,0.8-2-0.9-1.6l0,0l-3.1,0.7l-0.9-3v0c-0.5-1.6-1.3-1.6-1.8,0l-0.9,3
	l-3.1-0.7h0c-1.7-0.4-2.1,0.3-0.9,1.6l0,0l2.1,2.3l-2.1,2.3l0,0c-1.2,1.3-0.8,2,0.9,1.6h0l3.1-0.7l0.9,3c0.5,1.6,1.3,1.6,1.8,0
	l0.9-3l3.1,0.7l0,0C71.8,225.3,72.2,224.6,71,223.3z"/>
<path class="st1" d="M693.9,86.2l-5.5-1.4l2.6-4.4l0.3-0.5c1.3-2.1,0.6-2.8-1.5-1.5l-1,0.6l-3.9,2.3l-1.1-4.4l-0.1-0.6l-0.1-0.6
	c-0.6-2.4-1.6-2.4-2.2,0l-0.3,1.1l0,0l-1.1,4.4l-3.9-2.3l-1-0.6c-2.1-1.3-2.8-0.6-1.5,1.5l0.3,0.5l2.6,4.4l-5.5,1.4
	c-2.4,0.6-2.4,1.6,0,2.2l5.5,1.4l-2.6,4.4l-0.3,0.5c-1.3,2.1-0.6,2.8,1.5,1.5l0.5-0.3l0.5-0.3l3.9-2.3l1.1,4.4l0,0l0.3,1.1
	c0.6,2.4,1.6,2.4,2.2,0l0.1-0.6l0.1-0.6l1.1-4.4l3.9,2.3l0.5,0.3l0.5,0.3c2.1,1.3,2.8,0.6,1.5-1.5l-0.3-0.5l-2.6-4.4l5.5-1.4
	C696.4,87.7,696.4,86.8,693.9,86.2z M682.5,90.7c-1.9,0-3.4-1.5-3.4-3.4c0-1.9,1.5-3.4,3.4-3.4c1.9,0,3.4,1.5,3.4,3.4
	C685.9,89.1,684.4,90.7,682.5,90.7z"/>
<path class="st2" d="M272.2,160.5"/>
<g>
	<path class="st3" d="M258.8,473l-2.6-1.2c4.8-10.6,12.1-23.4,17.3-32.8c2-3.6,3.8-6.8,5.1-9.2l2.6,1.4c-1.3,2.4-3.1,5.6-5.1,9.2
		C270.8,449.7,263.6,462.5,258.8,473z"/>
	<path class="st3" d="M265.2,476.8l-1.9-2.2c25.5-22.3,66.2-64.7,83.7-87.2l2.3,1.8C331.7,411.8,290.9,454.3,265.2,476.8z"/>
	<path class="st3" d="M295.4,579.7c-8.3-30.5-26.5-66.1-36.2-85.2l-2.2-4.4l2.6-1.3l2.2,4.3c9.8,19.2,28,55,36.5,85.8L295.4,579.7z"
		/>
	<path class="st3" d="M182.6,611.8l-2.8-0.9c10.7-34.8,46.7-93.2,66.2-122.3l2.4,1.6C229,519.2,193.3,577.4,182.6,611.8z"/>
	<path class="st3" d="M249.3,470.3c-1.7-22.7-2.7-55.9,0-74.8l2.9,0.4c-2.7,18.7-1.7,51.6,0,74.2L249.3,470.3z"/>
	<path class="st3" d="M843.3,243.1c-9.3-8-19.6-14.7-34.3-22.5l1.3-2.6c15,7.9,25.4,14.7,34.9,22.9L843.3,243.1z"/>
	<path class="st3" d="M935,261.6c-21.3-5.9-53.5-11.1-74.9-12l0.1-2.9c21.7,0.9,54.1,6.1,75.6,12.1L935,261.6z"/>
	<path class="st3" d="M961.3,260.3l-0.9-2.8c9.4-3.1,21.8-5.5,34.1-6.6l0.3,2.9C982.7,254.9,970.5,257.3,961.3,260.3z"/>
	<path class="st3" d="M1001.9,398.2l-2.9-0.2c2.6-36.3,3.8-86.9,3.1-135.4l2.9,0C1005.7,311.1,1004.6,361.8,1001.9,398.2z"/>
	<path class="st3" d="M879.9,446.8l-0.4-2.9c48.1-6.8,84.4-16.2,111-28.9l1.2,2.6C964.9,430.4,928.3,440,879.9,446.8z"/>
	<path class="st3" d="M758.3,369.3l-2.8-0.6c9.5-45.1,25-102.2,36.3-142.2l2.8,0.8C783.2,267.2,767.7,324.3,758.3,369.3z"/>
	<path class="st3" d="M852.5,443.2c-39.4-13.7-67-29.5-92.4-52.7l2-2.1c25.4,23.3,51.8,38.4,91.4,52.1L852.5,443.2z"/>
	<path class="st3" d="M908.2,551.9c-8-23.2-18.6-50.7-28-75c-2.6-6.7-5.1-13.2-7.5-19.4l2.7-1c2.4,6.2,4.9,12.7,7.5,19.4
		c9.4,24.3,20.1,51.8,28.1,75.1L908.2,551.9z"/>
	<path class="st3" d="M870.3,561.4l-0.3-5.7c-1.7-28.9-3.6-61.7-3.8-97.4l2.9,0c0.2,35.6,2.1,68.4,3.8,97.2l0.3,5.7L870.3,561.4z"/>
	<path class="st3" d="M823.2,555.7l-2.7-1.2c13.1-29.7,26.8-64.2,38.4-97.3l2.7,1C850.1,491.3,836.4,525.9,823.2,555.7z"/>
	<path class="st3" d="M788.7,530.5l-2.1-2l10.8-11.6c19.1-20.5,38.9-41.7,57.8-64.2l2.2,1.9c-19,22.6-38.8,43.8-57.9,64.3
		L788.7,530.5z"/>
	<path class="st3" d="M788,472.4l-0.7-2.8c22-5.7,44.3-13.4,63.2-20.3l1,2.7C832.4,458.9,810.1,466.7,788,472.4z"/>
	<polygon class="st3" points="776.2,469.1 734.6,424.2 736.7,422.2 778.3,467.1 	"/>
	<path class="st3" d="M130.2,311c-18.5-23.4-33.4-43.4-49.3-64.6L68.6,230l2.3-1.7l12.3,16.4c15.8,21.2,30.8,41.1,49.2,64.5
		L130.2,311z"/>
	<path class="st3" d="M143.5,309.9l-2.6-1.3c15.3-31.5,31.3-66.9,43.7-97.1l2.7,1.1C174.8,242.9,158.8,278.4,143.5,309.9z"/>
	<path class="st3" d="M77,219.9l-0.5-2.9c35.6-6.7,88.2-12.2,103.5-13.7l0.3,2.9C165,207.8,112.5,213.3,77,219.9z"/>
	<path class="st3" d="M193.2,197.1l-2.7-1c10.9-29.2,21.7-55.4,33-80.1l2.6,1.2C214.8,141.9,204,168,193.2,197.1z"/>
	<path class="st3" d="M240.5,105.5l-0.5-2.9c33.4-5.9,70.2-11.1,96.1-13.4l0.3,2.9C310.5,94.5,273.7,99.6,240.5,105.5z"/>
</g>
<g>
	<path class="st3" d="M719.3,86.1h17.6v4.6h-12.2v7.3h10.5v4.6h-10.5v10.9h-5.4V86.1z"/>
	<path class="st3" d="M749.2,90.7h-8.8v-4.5h23.1v4.5h-8.8v22.9h-5.5V90.7z"/>
	<path class="st3" d="M768.1,86.1h8.9c2,0,3.8,0.4,5.3,1.1c1.5,0.7,2.7,1.8,3.6,3.1c0.9,1.3,1.3,2.9,1.3,4.8c0,2.8-0.9,5-2.8,6.6
		c-1.8,1.6-4.3,2.5-7.4,2.5h-3.6v9.4h-5.3V86.1z M773.4,99.8h2.9c1.8,0,3.2-0.4,4.1-1.2c1-0.8,1.4-1.9,1.4-3.4
		c0-1.5-0.5-2.6-1.4-3.4c-0.9-0.8-2.3-1.2-4.2-1.2h-2.9V99.8z"/>
</g>
<path class="st3" d="M644.7,333.4H642v-30.1h9.2c7.5,0,10.1,4.3,10.1,9s-2.6,9-10.1,9h-6.5L644.7,333.4L644.7,333.4z M644.7,318.8
	h6.8c5.7,0,6.7-3.6,6.7-6.5s-1.1-6.5-6.7-6.5h-6.8V318.8z M671.3,315.4c-2.7,0-4.5,0.5-6,1V314c1.8-0.8,4.1-1.1,6-1.1
	c6,0,7.6,2.7,7.6,6.7v13.7h-1.6l-0.6-1.6c-1.8,1.3-4.1,2-6.1,2c-5.3,0-7-3.1-7-6.5c0-3.4,1.9-5.9,7.2-6.3l5.3-0.3v-1.1
	C676.1,316.7,675,315.4,671.3,315.4z M670.6,323.2c-2.9,0.3-4.1,1.8-4.1,4.1c0,1.8,0.4,4,4.3,4c2.2,0,3.6-0.6,5.3-1.6v-7
	L670.6,323.2z M687.7,327.8c-0.4,0.4-0.8,1-0.8,1.5c0,1,0.5,1.4,1.5,1.6l6.8,0.8c3.8,0.4,5.5,1.9,5.5,5.4c0,4.9-4.9,6.8-10.4,6.8
	c-5.6,0-9-1.6-9-6.1c0-2.7,1.9-4.5,4.1-5.3v0c-0.8-0.5-1.3-1.3-1.3-2.7c0-1.1,0.7-2,1.5-2.7c-2.4-1.3-3.2-3.8-3.2-6.6
	c0-4.1,1.8-7.6,7.8-7.6c1.2,0,2.3,0.2,3.2,0.4h6.8v1.5l-3.4,1c0.8,1.3,1.2,2.9,1.2,4.7c0,4.1-1.8,7.6-7.8,7.6
	C689.4,328,688.5,327.9,687.7,327.8z M688.9,333.2c-2.7,0.6-4.9,1.8-4.9,4.4c0,3,2.3,3.8,6.4,3.8c4,0,7.8-1,7.8-4.4
	c0-2-1-2.9-3.4-3.1L688.9,333.2z M695.6,320.5c0-2.7-0.5-5.1-5.2-5.1s-5.2,2.5-5.2,5.1c0,2.7,0.5,5.1,5.2,5.1
	S695.6,323.1,695.6,320.5z M710.7,312.9c6.8,0,7.6,4.7,7.6,10.4v1.3h-13.3c0.2,3.5,1.1,6.7,5.6,6.7c2.9,0,4.7-0.3,6.6-1.1v2.4
	c-2.3,1-4.7,1.2-6.6,1.2c-6.8,0-8.4-4.7-8.4-10.4C702.3,317.6,703.9,312.9,710.7,312.9z M705.1,322.3h10.4c0-3.6-0.2-7-4.8-7
	C706,315.4,705.2,318.7,705.1,322.3z M729,321.9c5.7,0.5,7.1,2.5,7.1,5.7c0,3.1-2,6.2-8.1,6.2c-1.9,0-4.7-0.5-6-1v-2.4
	c1.2,0.4,3.2,0.9,6,0.9c4.2,0,5.3-1.8,5.3-3.7c0-1.8-0.6-3.1-4.5-3.5c-5.8-0.5-7-2.6-7-5.3c0-2.9,1.8-5.9,7.5-5.9c1.9,0,4,0.2,5.8,1
	v2.4c-1.6-0.5-3.1-0.9-5.8-0.9c-4,0-4.8,1.5-4.8,3.5C724.5,320.6,725.2,321.5,729,321.9z M537.4,315.8h-9.8c-0.3,0-0.5,0.2-0.5,0.5
	v4.8c0,0.3,0.2,0.5,0.5,0.5h3.8v6c0,0-0.9,0.3-3.2,0.3c-2.8,0-6.7-1-6.7-9.7c0-8.6,4.1-9.8,7.9-9.8c3.3,0,4.8,0.6,5.7,0.9
	c0.3,0.1,0.6-0.2,0.6-0.5l1.1-4.6c0-0.1,0-0.3-0.2-0.4c-0.4-0.3-2.6-1.5-8.3-1.5c-6.6,0-13.3,2.8-13.3,16.2
	c0,13.4,7.7,15.4,14.2,15.4c5.4,0,8.7-2.3,8.7-2.3c0.1-0.1,0.1-0.3,0.1-0.3v-15C537.8,316,537.6,315.8,537.4,315.8z M588.5,303.8
	c0-0.3-0.2-0.5-0.5-0.5h-5.5c-0.3,0-0.5,0.2-0.5,0.5c0,0,0,10.7,0,10.7h-8.6v-10.7c0-0.3-0.2-0.5-0.5-0.5h-5.5
	c-0.3,0-0.5,0.2-0.5,0.5v29c0,0.3,0.2,0.5,0.5,0.5h5.5c0.3,0,0.5-0.2,0.5-0.5v-12.4h8.6c0,0,0,12.4,0,12.4c0,0.3,0.2,0.5,0.5,0.5
	h5.6c0.3,0,0.5-0.2,0.5-0.5V303.8z M548,307.6c0-2-1.6-3.6-3.6-3.6c-2,0-3.6,1.6-3.6,3.6c0,2,1.6,3.6,3.6,3.6
	C546.4,311.3,548,309.6,548,307.6z M547.6,326.7c0-0.7,0-13.4,0-13.4c0-0.3-0.2-0.5-0.5-0.5h-5.5c-0.3,0-0.5,0.3-0.5,0.5
	c0,0,0,16.1,0,19.2c0,0.6,0.4,0.7,0.8,0.7c0,0,2.4,0,5,0c0.5,0,0.7-0.3,0.7-0.7C547.6,331.5,547.6,327.5,547.6,326.7z M610,312.9
	h-5.5c-0.3,0-0.5,0.2-0.5,0.5v14.2c0,0-1.4,1-3.4,1s-2.5-0.9-2.5-2.8s0-12.4,0-12.4c0-0.3-0.2-0.5-0.5-0.5h-5.6
	c-0.3,0-0.5,0.2-0.5,0.5c0,0,0,7.6,0,13.3c0,5.8,3.2,7.2,7.6,7.2c3.6,0,6.6-2,6.6-2s0.1,1.1,0.2,1.2c0.1,0.1,0.2,0.2,0.4,0.2l3.6,0
	c0.3,0,0.5-0.2,0.5-0.5l0-19.5C610.5,313.1,610.3,312.9,610,312.9z M625.3,312.3c-3.1,0-5.2,1.4-5.2,1.4v-9.8c0-0.3-0.2-0.5-0.5-0.5
	h-5.6c-0.3,0-0.5,0.2-0.5,0.5v29c0,0.3,0.2,0.5,0.5,0.5h3.9c0.2,0,0.3-0.1,0.4-0.2c0.1-0.2,0.2-1.3,0.2-1.3s2.3,2.2,6.6,2.2
	c5.1,0,7.9-2.6,7.9-11.5C633.1,313.4,628.5,312.3,625.3,312.3z M623.2,328.6c-1.9-0.1-3.2-0.9-3.2-0.9v-9.2c0,0,1.3-0.8,2.8-0.9
	c2-0.2,3.9,0.4,3.9,5.1C626.7,327.7,625.8,328.7,623.2,328.6z M563.5,312.9h-4.2c0,0,0-5.5,0-5.5c0-0.2-0.1-0.3-0.3-0.3h-5.7
	c-0.2,0-0.3,0.1-0.3,0.3v5.7c0,0-2.8,0.7-3,0.7c-0.2,0.1-0.3,0.2-0.3,0.4v3.6c0,0.3,0.2,0.5,0.5,0.5h2.9c0,0,0,3.7,0,8.6
	c0,6.4,4.5,7,7.5,7c1.4,0,3-0.4,3.3-0.5c0.2-0.1,0.3-0.2,0.3-0.4l0-3.9c0-0.3-0.2-0.5-0.5-0.5c-0.2,0-0.9,0.1-1.5,0.1
	c-2,0-2.7-0.9-2.7-2.2c0-1.2,0-8.2,0-8.2h4.2c0.3,0,0.5-0.2,0.5-0.5v-4.5C563.9,313.1,563.7,312.9,563.5,312.9z"/>
<g id="Page-1">
	<g id="Group-6">
		<path id="path243" class="st3" d="M301.9,211.7c-4,0-8.6,1.6-9.5,6.7c-0.1,0.5,0.3,0.8,0.6,0.9l4.1,0.5c0.4,0,0.6-0.4,0.7-0.8
			c0.4-1.8,1.8-2.6,3.4-2.6c0.9,0,1.9,0.3,2.4,1.1c0.6,0.9,0.6,2.1,0.6,3.1v0.6c-2.5,0.3-5.7,0.5-8,1.5c-2.7,1.2-4.5,3.6-4.5,7.1
			c0,4.5,2.8,6.8,6.3,6.8c3,0,4.7-0.7,7-3.1c0.8,1.1,1,1.7,2.4,2.9c0.3,0.2,0.7,0.2,1-0.1v0.1c0.8-0.8,2.4-2.2,3.3-2.9
			c0.3-0.3,0.3-0.8,0-1.2c-0.8-1.1-1.6-2-1.6-4v-6.8c0-2.9,0.2-5.5-1.8-7.5C306.7,212.3,304,211.7,301.9,211.7L301.9,211.7z
			 M357.6,211.7c-4,0-8.5,1.6-9.5,6.7c-0.1,0.5,0.3,0.8,0.6,0.9l4.1,0.5c0.4,0,0.6-0.4,0.7-0.8c0.4-1.8,1.8-2.6,3.4-2.6
			c0.9,0,1.9,0.3,2.4,1.1c0.6,0.9,0.5,2.1,0.5,3.1v0.6c-2.5,0.3-5.6,0.5-8,1.5c-2.7,1.2-4.5,3.6-4.5,7.1c0,4.5,2.8,6.8,6.3,6.8
			c3,0,4.7-0.7,7-3.1c0.8,1.1,1,1.7,2.4,2.9c0.3,0.2,0.7,0.2,1-0.1v0.1c0.8-0.8,2.4-2.2,3.3-2.9c0.3-0.3,0.3-0.8,0-1.2
			c-0.8-1.1-1.6-2-1.6-4v-6.8c0-2.9,0.2-5.5-1.9-7.5C362.3,212.3,359.6,211.7,357.6,211.7L357.6,211.7z M326.2,211.9
			c-2.6,0-4.5,1.3-5.6,4.1h-0.1v-2.9c0-0.4-0.4-0.8-0.8-0.8h-4c-0.5,0-0.8,0.4-0.8,0.8v22.4c0,0.4,0.4,0.7,0.8,0.8h4.3
			c0.5,0,0.8-0.4,0.8-0.8v-11.9c0-2.6-0.1-6.1,2.9-6.1c3,0,2.6,3.6,2.6,6.1v11.9c0,0.4,0.3,0.8,0.8,0.8h4.3c0.5,0,0.8-0.4,0.8-0.8
			v-11.9c0-1.3-0.1-3.1,0.4-4.3c0.4-1.1,1.5-1.9,2.5-1.9c1.2,0,2.2,0.4,2.5,1.9c0.2,0.9,0.1,3.3,0.1,4.2v11.9c0,0.4,0.3,0.8,0.8,0.8
			h4.3c0.5,0,0.8-0.4,0.8-0.8v-14.1c0-2.4,0.2-5.1-1.1-7c-1.2-1.7-3.1-2.4-4.9-2.4c-2.5,0-4.8,1.3-5.9,4.1
			C330.6,213.2,328.9,211.9,326.2,211.9L326.2,211.9z M398.5,211.9c-6.1,0-9.6,5.4-9.6,12.4c0,6.9,3.4,12.5,9.6,12.5
			c5.9,0,9.7-5.4,9.7-12.3C408.2,217.5,404.8,211.9,398.5,211.9L398.5,211.9z M422.8,211.9c-2.9,0-4.6,1.5-5.8,4.5h-0.1V213
			c-0.1-0.3-0.4-0.6-0.8-0.6h-3.9c-0.4,0-0.8,0.3-0.8,0.7v22.4c0,0.4,0.3,0.8,0.8,0.8h4.2c0.5,0,0.8-0.4,0.8-0.8v-12
			c0-1.5,0.1-2.9,0.7-4.3c0.5-1.1,1.4-1.8,2.4-1.8c2.9,0,2.7,3.6,2.7,6v12.1c0,0.4,0.4,0.7,0.8,0.7h4.3c0.4,0,0.8-0.3,0.8-0.7v-14.1
			c0-2.2,0-5.2-1.1-7C426.5,212.6,424.7,211.9,422.8,211.9L422.8,211.9z M371.7,212.3c-0.4,0-0.8,0.3-0.8,0.8v3.2
			c0,0.5,0.3,0.8,0.8,0.8h7.3l-8.3,12.3c-0.5,0.8-0.6,1.7-0.6,2.2v3.3c0,0.5,0.5,1,1,0.7c4.8-2.6,10.4-2.4,14.7-0.1
			c0.5,0.3,1-0.2,1-0.7v-3.4c0-0.5-0.2-0.9-0.8-1.2c-2.4-1.4-5.3-1.8-8-1.8l7.2-10.6c0.7-1,1-1.5,1-2v-2.8c0-0.5-0.3-0.8-0.8-0.8
			H371.7L371.7,212.3z M398.5,216.5c1.3,0,2.3,0.6,2.8,2.2c0.6,1.8,0.6,4,0.6,5.9c0,2.9-0.1,7.6-3.4,7.6c-3.3,0-3.3-5.9-3.3-8.6
			C395.2,220.8,395.4,216.5,398.5,216.5L398.5,216.5z M304.2,224.7v0.9c0,1.7,0.1,3.1-0.8,4.6c-0.7,1.2-1.7,2-2.9,2
			c-1.6,0-2.6-1.3-2.6-3.2C297.9,225.3,301.1,224.7,304.2,224.7L304.2,224.7z M359.8,224.7v0.9c0,1.7,0.1,3.1-0.8,4.6
			c-0.7,1.2-1.7,2-2.9,2c-1.6,0-2.6-1.3-2.6-3.2C353.5,225.3,356.7,224.7,359.8,224.7L359.8,224.7z"/>
		<path id="path257" class="st3" d="M387.4,237v3.2h2.2V237H387.4L387.4,237z M324.9,237.6v22.8h2v-2c0.4,0.8,0.9,1.4,1.5,1.8
			c0.6,0.4,1.3,0.6,2,0.6c1.5,0,2.7-0.7,3.8-2.3c1.1-1.5,1.7-3.7,1.7-6.5c0-1.8-0.2-3.4-0.7-4.6c-0.5-1.3-1.1-2.2-1.9-2.9
			c-0.8-0.6-1.7-1-2.7-1c-0.7,0-1.4,0.2-1.9,0.6c-0.6,0.4-1,1-1.5,1.7v-8.2H324.9L324.9,237.6z M345.4,243c-1.5,0-2.7,0.4-3.5,1.3
			c-0.8,0.9-1.3,2-1.3,3.4c0,0.8,0.2,1.5,0.5,2.2c0.3,0.6,0.8,1.2,1.3,1.5c0.6,0.4,1.7,0.9,3.4,1.4c1.2,0.4,1.9,0.7,2.2,0.9
			c0.4,0.4,0.7,0.8,0.7,1.5c0,0.8-0.3,1.4-0.8,1.9c-0.5,0.5-1.2,0.7-2.2,0.7s-1.7-0.3-2.3-0.8c-0.6-0.6-0.9-1.4-1-2.6l-2.2,0.4
			c0.5,3.5,2.3,5.3,5.3,5.3c1.6,0,2.9-0.5,3.8-1.4c0.9-1,1.4-2.3,1.4-3.9c0-0.9-0.2-1.6-0.4-2.2c-0.3-0.6-0.7-1.1-1.2-1.4
			c-0.5-0.4-1.7-0.8-3.5-1.4c-1.3-0.5-2.1-0.8-2.3-1c-0.4-0.3-0.7-0.8-0.7-1.4c0-0.6,0.2-1.1,0.7-1.5c0.5-0.4,1.2-0.6,2.1-0.6
			c1.6,0,2.6,0.9,2.8,2.7l2.1-0.3c-0.1-1.1-0.4-2-0.8-2.7c-0.4-0.6-0.9-1.1-1.7-1.5C347.1,243.1,346.3,243,345.4,243L345.4,243z
			 M358.5,243c-1.7,0-3.2,0.7-4.3,2.2c-1.1,1.5-1.7,3.7-1.7,6.5c0,2.7,0.5,4.9,1.7,6.3c1.1,1.5,2.6,2.2,4.4,2.2
			c1.4,0,2.6-0.4,3.6-1.3c1-0.9,1.7-2.2,2-4l-2.2-0.4c-0.6,2.3-1.8,3.4-3.4,3.4c-1,0-1.9-0.4-2.6-1.4c-0.7-0.9-1.1-2.3-1.2-4.2h9.5
			v-0.8c0-2.8-0.6-4.9-1.7-6.3C361.5,243.7,360.2,243,358.5,243L358.5,243z M371.6,243c-0.5,0-1,0.2-1.4,0.6
			c-0.4,0.4-0.9,1.2-1.4,2.3v-2.5h-1.9v16.5h2.2v-8.6c0-1.2,0.1-2.4,0.4-3.4c0.2-0.6,0.4-1.1,0.8-1.4c0.4-0.3,0.8-0.5,1.3-0.5
			c0.5,0,1,0.2,1.5,0.6l0.7-2.6C373.1,243.2,372.4,243,371.6,243L371.6,243z M398,243c-1.7,0-3.1,0.7-4.2,2.2
			c-1.1,1.4-1.7,3.6-1.7,6.5c0,2.8,0.6,5,1.7,6.5c1.1,1.5,2.4,2.2,4.1,2.2c1.4,0,2.6-0.5,3.5-1.5c1-1,1.6-2.6,1.8-4.5l-2.1-0.3
			c-0.2,1.4-0.5,2.4-1.1,3.1c-0.6,0.7-1.3,1-2.1,1c-1,0-1.9-0.5-2.6-1.5c-0.7-1-1-2.6-1-4.9c0-2.2,0.4-3.7,1-4.7
			c0.7-1,1.6-1.5,2.7-1.5c0.7,0,1.3,0.3,1.8,0.8c0.5,0.6,0.8,1.4,1,2.5l2.1-0.4c-0.3-1.7-0.8-3.1-1.7-3.9
			C400.4,243.3,399.3,243,398,243L398,243z M410.3,243c-1.7,0-3.2,0.7-4.3,2.2c-1.1,1.5-1.7,3.7-1.7,6.5c0,2.7,0.5,4.9,1.7,6.3
			c1.1,1.5,2.6,2.2,4.4,2.2c1.4,0,2.6-0.4,3.6-1.3c1-0.9,1.7-2.2,2-4l-2.2-0.4c-0.6,2.3-1.8,3.4-3.4,3.4c-1,0-1.9-0.4-2.7-1.4
			c-0.7-0.9-1.1-2.3-1.2-4.2h9.5v-0.8c0-2.8-0.6-4.9-1.7-6.3C413.3,243.7,412,243,410.3,243L410.3,243z M423.1,243
			c-1.5,0-2.7,0.4-3.5,1.3c-0.8,0.9-1.3,2-1.3,3.4c0,0.8,0.1,1.5,0.4,2.2c0.3,0.6,0.8,1.2,1.3,1.5c0.6,0.4,1.7,0.9,3.4,1.4
			c1.2,0.4,1.9,0.7,2.2,0.9c0.4,0.4,0.7,0.8,0.7,1.5c0,0.8-0.3,1.4-0.8,1.9c-0.5,0.5-1.2,0.7-2.2,0.7c-0.9,0-1.7-0.3-2.3-0.8
			c-0.6-0.6-0.9-1.4-1-2.6l-2.2,0.4c0.5,3.5,2.3,5.3,5.3,5.3c1.6,0,2.9-0.5,3.9-1.4c0.9-1,1.4-2.3,1.4-3.9c0-0.9-0.2-1.6-0.4-2.2
			c-0.3-0.6-0.7-1.1-1.3-1.4c-0.5-0.4-1.6-0.8-3.4-1.4c-1.3-0.5-2.1-0.8-2.4-1c-0.4-0.3-0.7-0.8-0.7-1.4c0-0.6,0.3-1.2,0.7-1.5
			c0.5-0.4,1.2-0.6,2.1-0.6c1.6,0,2.6,0.9,2.8,2.7l2.1-0.3c-0.1-1.1-0.4-2-0.8-2.7c-0.4-0.6-0.9-1.1-1.7-1.5
			C424.9,243.1,424,243,423.1,243L423.1,243z M373.8,243.3l4.8,16.5h2l4.8-16.5h-2.2l-2.8,10.1c-0.3,1.2-0.6,2.3-0.8,3.1
			c-0.2-1.1-0.5-2.2-0.8-3.4l-2.8-9.9H373.8L373.8,243.3z M387.4,243.3v16.5h2.2v-16.5H387.4L387.4,243.3z M316.6,243.5
			c-1.7,0-3.1,0.8-4.2,2.3c-1.1,1.5-1.7,3.7-1.7,6.5c0,2.7,0.6,4.8,1.7,6.3s2.6,2.2,4.4,2.2c1.4,0,2.6-0.5,3.5-1.4
			c1-0.9,1.6-2.2,2-4l-2.2-0.3c-0.6,2.3-1.8,3.4-3.4,3.4c-1,0-1.9-0.4-2.6-1.4c-0.7-0.9-1.1-2.3-1.2-4.2h9.4l0.1-0.8
			c0-2.8-0.6-4.9-1.7-6.4C319.6,244.2,318.2,243.5,316.6,243.5L316.6,243.5z M292.3,243.9l3.9,16.5h2.3l2.5-12.7l0.4,2.8l2,9.9h2.2
			l3.9-16.5h-2l-2.2,9.6l-0.7,3.2l-0.7-3.2l-1.9-9.6H300l-2,9.7l-0.7,3.4l-0.8-3.5l-2-9.6H292.3L292.3,243.9z M358.5,245.2
			c1.1,0,2,0.5,2.7,1.5c0.5,0.7,0.8,1.8,0.9,3.2h-7.1c0.1-1.5,0.5-2.6,1.2-3.4C356.7,245.7,357.5,245.2,358.5,245.2L358.5,245.2z
			 M410.3,245.2c1.1,0,2,0.5,2.7,1.5c0.5,0.7,0.8,1.8,0.9,3.2h-7.1c0.1-1.5,0.5-2.6,1.2-3.4C408.5,245.7,409.3,245.2,410.3,245.2
			L410.3,245.2z M316.6,245.8c1.1,0,1.9,0.5,2.6,1.5c0.5,0.7,0.8,1.8,0.9,3.2h-7c0.1-1.5,0.4-2.6,1.1-3.5
			C314.8,246.2,315.6,245.8,316.6,245.8L316.6,245.8z M330.3,245.8c1,0,1.8,0.5,2.4,1.5c0.7,1,0.9,2.6,0.9,4.7c0,2.1-0.3,3.7-1,4.7
			c-0.7,1.1-1.5,1.6-2.4,1.6c-0.6,0-1.2-0.2-1.8-0.7c-0.5-0.4-0.9-1.1-1.2-1.9c-0.3-0.8-0.4-2.2-0.4-3.9c0-2,0.4-3.5,1-4.6
			C328.6,246.4,329.4,245.8,330.3,245.8L330.3,245.8z"/>
		<path id="polygon287" class="st3" d="M261.4,228.3l-8.2,3.5l7.6,3.3l8.8-3.3L261.4,228.3L261.4,228.3z M249,232.7l-0.3,15.9
			l12,5.3v-16.5L249,232.7L249,232.7z M273.8,232.7l-10.9,4.1v15.6l10.9-4.4V232.7L273.8,232.7z"/>
		<path id="polygon311" class="st3" d="M286.7,183.3l-8.3,3.5l7.7,3.3l8.8-3.3L286.7,183.3L286.7,183.3z M275.3,188v15.9l10.3,3
			l0.3-14.5L275.3,188L275.3,188z M298.2,188.8l-9.7,4.1v15.6l9.7-4.4V188.8L298.2,188.8z"/>
		<path id="use3387" class="st3" d="M247.8,205.6l-8.2,3.5l7.6,3.3l8.8-3.3L247.8,205.6L247.8,205.6z M235.5,210.1l-0.3,15.9l12,5.3
			v-16.5L235.5,210.1L235.5,210.1z M260.2,210.1l-10.9,4.1v15.6l10.9-4.4V210.1L260.2,210.1z"/>
		<path id="use3389" class="st3" d="M274.3,205.1l-8.2,3.5l7.6,3.3l8.8-3.3L274.3,205.1L274.3,205.1z M262,209.5l-0.3,15.9l12,5.3
			v-16.5L262,209.5L262,209.5z M286.7,209.5l-10.9,4.1v15.6l10.9-4.4V209.5L286.7,209.5z"/>
		<path id="use3391" class="st3" d="M312.6,183.3l-8.2,3.5l7.6,3.3l8.8-3.3L312.6,183.3L312.6,183.3z M300.3,187.7l-0.3,15.9l12,5.3
			v-16.5L300.3,187.7L300.3,187.7z M325,187.7l-10.9,4.1v15.6L325,203V187.7L325,187.7z"/>
	</g>
</g>
<g id="Page-1_1_">
	<path id="Shape" class="st3" d="M508.9,506.5c0-7.7,6-13.6,14-13.6c1.6,0,3.3,0.3,4.4,0.7c0,0,0,0,0,0l-1,5.2l0,0
		c-1-0.5-2.1-0.8-3.5-0.8c-4.5,0-7.2,4-7.2,7.8c0,3.2,2.2,4.4,4.2,4.4c1.8,0,3.3-0.4,5.3-1.4l0.1,0l-1,5.3l0,0
		c-1.5,0.7-3.8,1.1-6.1,1.1C512.4,515.3,508.9,511.9,508.9,506.5L508.9,506.5z M499.4,514.9l0.2-1c0.2-0.9,0.9-2.1,1.1-2.4l0-0.1
		c0.1-0.2,0-0.5-0.2-0.5c-0.2-0.1-0.5,0-0.5,0.2l0,0.1c-0.1,0.5-0.4,1.5-1.3,2.4c-1.3,1.2-3,1.8-4.9,1.8c-4.2,0-6.2-3.8-6.2-7.5
		c0-4.3,1.7-8.5,4.5-11.3c2.4-2.4,5.4-3.6,8.8-3.6c2.6,0,4.5,0.8,5.7,2.2c1.8,2.2,1.6,5.4,1.2,7.7l-2.3,12H499.4L499.4,514.9z
		 M499.7,497.8c-0.9,0-1.8,0.4-2.6,1.3c-1.7,1.7-3,4.9-3,7.5c0,2.3,0.8,3.7,2.3,3.7c2.3,0,4.3-2.4,5-6c0.2-0.8,0.3-1.6,0.4-2.3
		c0.1-0.7,0.2-1.3,0.2-1.8C501.9,498.6,501.1,497.8,499.7,497.8L499.7,497.8z M531.3,506L531.3,506c0.6,0.6,1,1.4,1.1,1.6
		c0.1,0.4,0.3,0.8,0.5,1.1c0.8,1,2.3,1.6,4.1,1.6c2.6,0,4.9-0.6,7.4-2.1l0.1,0l-1,5.4c-3.1,1.6-6.6,1.7-8,1.7
		c-5.9,0-9.3-3.3-9.3-9.1c0-3.3,1.2-6.7,3.3-9.1c2.3-2.7,5.6-4.2,9.2-4.2c4.5,0,7.5,2.6,7.5,6.5c0,1.8-0.6,3.3-1.7,4.4
		c-1.9,1.9-5.4,2.8-10.7,2.9c-1.3,0-1.5-0.6-1.8-1.1l0-0.1c-0.1-0.2-0.4-0.1-0.6,0C531.3,505.6,531.2,505.8,531.3,506L531.3,506z
		 M539.7,500.7c0.4-0.3,0.5-0.8,0.5-1.3c0-1.1-0.9-1.8-2.3-1.8c-2.1,0-3.7,1.3-4.5,2.9c-0.6,1.1-0.8,1.2-1.3,1.6l-0.1,0
		c-0.2,0.1-0.1,0.4,0,0.5c0.1,0.1,0.4,0.2,0.5,0.1l0.1-0.1c0.4-0.5,0.5-0.7,2.2-0.8C537.4,501.8,538.9,501.4,539.7,500.7
		L539.7,500.7z M475.2,494.8c1.5-1.3,3.2-1.9,5.1-1.9c4.2,0,7,3.2,7,8.2c0,5.2-2.5,10.6-7,13c-3.5,1.9-6.7,1.5-8.3,0.2
		c-0.4-0.3-0.5-1.1-0.5-1.4l0-0.1c-0.1-0.2-0.3-0.3-0.5-0.2c-0.2,0.1-0.3,0.3-0.3,0.5l0,0.1c0.3,0.5,0.5,0.9,0.4,1.4l-1.4,7.2h-6.4
		l5.4-28.6h5.6l-0.2,1c-0.3,1.6-0.8,2.1-1.1,2.5l0,0.1c-0.1,0.2,0,0.4,0.2,0.5c0.2,0.1,0.4,0.1,0.6-0.1l0-0.1
		C473.9,496.7,474.3,495.6,475.2,494.8L475.2,494.8z M472.8,504.9c-0.3,1.4-1,5.6,1.9,5.6c3.4,0,5.8-4.8,5.8-9c0-1-0.2-3.5-2.6-3.5
		C475.6,498.1,473.6,500.8,472.8,504.9L472.8,504.9z M401,514.9l0.2-1c0.2-0.9,0.9-2.1,1.1-2.4l0-0.1c0.1-0.2,0-0.5-0.2-0.5
		c-0.2-0.1-0.5,0-0.5,0.2l0,0.1c-0.1,0.5-0.4,1.5-1.3,2.4c-1.3,1.2-3,1.8-4.9,1.8c-4.2,0-6.2-3.8-6.2-7.5c0-4.3,1.7-8.5,4.5-11.3
		c2.4-2.4,5.4-3.6,8.8-3.6c2.6,0,4.5,0.8,5.7,2.2c1.8,2.2,1.6,5.4,1.2,7.7l-2.3,12H401L401,514.9z M401.2,497.8
		c-0.9,0-1.8,0.4-2.6,1.3c-1.7,1.7-3,4.9-3,7.5c0,2.3,0.8,3.7,2.3,3.7c2.3,0,4.3-2.4,5-6c0.2-0.8,0.3-1.6,0.4-2.3
		c0.1-0.7,0.2-1.3,0.2-1.8C403.4,498.6,402.6,497.8,401.2,497.8L401.2,497.8z M410.4,506.5c0-7.7,6-13.6,14-13.6
		c1.6,0,3.3,0.3,4.4,0.7c0,0,0,0,0,0l-1,5.2l0,0c-1-0.5-2.1-0.8-3.5-0.8c-4.5,0-7.2,4-7.2,7.8c0,3.2,2.2,4.4,4.2,4.4
		c1.8,0,3.3-0.4,5.3-1.4l0.1,0l-1,5.3l0,0c-1.5,0.7-3.8,1.1-6.1,1.1C413.9,515.3,410.4,511.9,410.4,506.5L410.4,506.5z M450.4,500.4
		c0-4.4,3.8-7.4,9.5-7.5c2.6,0,4.6,0.6,5.5,1.1l0,0l-0.9,4.8l0,0c-1.1-0.6-2.9-1.2-4.9-1.2c-1.7,0-2.7,0.7-2.7,1.9
		c0,0.8,0.8,1.6,2.6,2.4c2.3,1.1,4.8,2.8,4.8,5.9c0,2-0.7,3.6-2,4.9c-1.7,1.7-4.6,2.7-7.9,2.6c-2.6,0-5.2-0.7-6.6-1.7l0,0l0.9-4.8
		l0,0c1.4,0.9,4.2,1.8,6.2,1.8c1.6,0,2.6-0.7,2.6-1.9c0-1.1-0.7-1.8-2.7-2.7C451.9,504.5,450.4,502.6,450.4,500.4L450.4,500.4z
		 M385,495.4c1.5-1.6,3.3-2.5,5.2-2.5c0.4,0,0.8,0,1.2,0.1l-1.2,6.2c-0.2,0-0.6-0.1-1-0.1c-4.3,0-6,4.2-6.7,7.7l-1.5,8.3h-6.4
		l4.1-21.8h5.6l-0.3,1.5c-0.3,1.4-0.7,2.2-1,2.6l0,0.1c-0.1,0.2,0.1,0.4,0.2,0.5c0.2,0.1,0.4,0.1,0.5-0.1l0-0.1
		C383.9,497.3,384.2,496.3,385,495.4L385,495.4z M439.2,485.8l-3.3,17.3l8.5-9.8h7l-8.8,9.9l5.4,11.6h-6.9l-5.2-11.5l-2.2,11.5h-6.3
		l5.5-29.1L439.2,485.8L439.2,485.8z M347.8,479.8c-9.4,11.6-13.4,26.6-12.9,39.9c-5.6-2.2-9.6-7.6-10.1-14.4l0-0.1
		c-0.7-12.1,8.9-24.4,21.5-27.6c4.9-1.2,9.5-0.9,13.3,0.7c-0.8,2.3-2.1,4.9-3.5,6.9c-2.8,4.1-6.8,6.7-8.9,5.8
		c-2.1-0.9-1.6-5,1.2-9.2c0.6-1,1.4-1.8,2.1-2.6C349.7,479.4,348.7,479.5,347.8,479.8L347.8,479.8z M348.7,485.2
		c-0.9,1.9-0.5,3.5,0.8,3.5c1.3,0,3.2-1.5,4.1-3.4c0.9-1.9,0.5-3.5-0.8-3.5C351.5,481.7,349.6,483.3,348.7,485.2L348.7,485.2z
		 M351.3,472.4c10.5-0.6,18.9,6.2,19.5,16.8c0.7,12.1-8.9,24.4-21.5,27.6c-4.3,1.1-8.4,1-11.9-0.1c-0.3-4.8,0.7-9.7,2.7-13.2
		c3.3-5.6,8.4-5.2,11.2,1.1c1.1,2.3,1.7,5.2,1.9,8.1c1-0.5,2-1.1,2.9-1.8c-3.1-7.5-4.5-16.5,6.6-32.2c-3.2-2.6-8.2-3.8-14.4-3
		C349.3,474.5,350.3,473.4,351.3,472.4L351.3,472.4z"/>
</g>
</svg>
