<?xml version="1.0" encoding="utf-8"?>
<!-- Generator: Adobe Illustrator 19.2.1, SVG Export Plug-In . SVG Version: 6.00 Build 0)  -->
<svg version="1.1" id="Layer_1" xmlns="http://www.w3.org/2000/svg" xmlns:xlink="http://www.w3.org/1999/xlink" x="0px" y="0px"
	 viewBox="0 0 360 360" style="enable-background:new 0 0 360 360;" xml:space="preserve">
<style type="text/css">
	.st0{fill:#5B4D45;}
	.st1{fill:#F8BA2E;}
	.st2{fill:#736357;}
	.st3{fill:#FFFFFF;}
	.st4{fill:#374252;}
	.st5{fill:#109EF1;}
	.st6{fill:#323131;}
	.st7{fill:#CC0000;}
	.st8{fill:#9764C6;}
	.st9{fill:#EA6A13;}
</style>
<path class="st0" d="M97.5,237.4c-1.3-29.3,18.8-51.9,42.2-50.6c23.5,1.3,33.4,25.9,33.3,44.2c-0.1,48.1-41.6,107.9-60.5,111.7
	C103.5,312.8,98.8,269,97.5,237.4z"/>
<path class="st1" d="M176.3,355h-19.7c-2,0-3.7-1.6-3.7-3.7c0-2,1.6-3.7,3.7-3.7h16.9l13.7-50.7c0.5-2,2.5-3.1,4.5-2.6
	c2,0.5,3.1,2.5,2.6,4.5l-14.4,53.4C179.4,353.9,177.9,355,176.3,355z"/>
<path class="st1" d="M219.1,355h-19.7c-2,0-3.7-1.6-3.7-3.7c0-2,1.6-3.7,3.7-3.7h16.9l9.6-37.3c0.5-2,2.5-3.1,4.5-2.6
	c2,0.5,3.1,2.5,2.6,4.5l-10.3,40C222.3,353.9,220.8,355,219.1,355z"/>
<g>
	<path class="st2" d="M254.3,153.7c0-38.3-31-69.3-69.3-69.3c-38.3,0-69.3,31-69.3,69.3c0,102.4,52.4,184.1,143.8,184.1
		c0,0-5.2-64.3-5.2-99.8S254.3,153.7,254.3,153.7L254.3,153.7C254.3,153.7,254.3,153.7,254.3,153.7z"/>
	<path class="st3" d="M213.3,127.5c-12.8,0-23.1,10.3-23.1,23.1v29.1h-10.5v-29.1c0-12.8-10.3-23.1-23.1-23.1s-23.1,10.3-23.1,23.1
		c0,0,0,2.1,0,3.1c0,28.4,23,51.4,51.4,51.4s51.5-23,51.5-51.4c0-1,0-3.1,0-3.1C236.4,137.8,226.1,127.5,213.3,127.5z"/>
	<path class="st1" d="M190.2,179.7c0,4.2-5.3,10.8-5.3,10.8s-5.2-6.6-5.2-10.8H190.2z"/>
	<g>
		<path class="st4" d="M210.2,167.1c3.9,0,7.4-3.2,7.4-7v-8.5c0-3.9-3.5-7-7.4-7s-7.4,3.2-7.4,7v8.5
			C202.8,164,206.3,167.1,210.2,167.1z"/>
	</g>
	<g>
		<path class="st4" d="M159.8,167.1c-3.9,0-7.3-3.2-7.3-7v-8.5c0-3.9,3.5-7,7.3-7s7.4,3.2,7.4,7v8.5
			C167.1,164,163.7,167.1,159.8,167.1z"/>
	</g>
</g>
<path class="st0" d="M296,229.1c-6.3-28.6-31.5-45.3-53.8-38.1c-22.4,7.2-25.6,33.6-20.8,51.3c12.5,46.5,67.9,93.6,87.2,92.4
	C309.5,303.5,302.8,259.9,296,229.1z"/>
<path class="st5" d="M173,254.4c0-5.5-4.2-10.3-9.5-10.3l-135.1,0c-5.2,0-9.8,4.9-9.8,10.3l0,91.4c0,5.5,4.5,9.2,9.8,9.2l135.1,0
	c5.2,0,9.5-3.8,9.5-9.2L173,254.4z"/>
<path class="st5" d="M123.9,271.1H67.1v-32.7c0-9,7.4-16.4,16.4-16.4h24c9,0,16.4,7.4,16.4,16.4V271.1z M75,263.2h41v-24.7
	c0-4.7-3.8-8.5-8.5-8.5h-24c-4.7,0-8.5,3.8-8.5,8.5V263.2z"/>
<g>
	<circle class="st3" cx="143" cy="275.5" r="18"/>
	<g>
		<path class="st6" d="M143,259.8c-8.6,0-15.6,7-15.6,15.6c0,6.9,4.5,12.7,10.6,14.8c0.8,0.1,1.1-0.3,1.1-0.7c0-0.4,0-1.6,0-2.9
			c-4.3,0.9-5.2-1.8-5.2-1.8c-0.7-1.8-1.7-2.3-1.7-2.3c-1.4-1,0.1-0.9,0.1-0.9c1.6,0.1,2.4,1.6,2.4,1.6c1.4,2.4,3.6,1.7,4.5,1.3
			c0.1-1,0.5-1.7,1-2.1c-3.5-0.4-7.1-1.7-7.1-7.7c0-1.7,0.6-3.1,1.6-4.2c-0.2-0.4-0.7-2,0.2-4.1c0,0,1.3-0.4,4.3,1.6
			c1.2-0.3,2.6-0.5,3.9-0.5c1.3,0,2.7,0.2,3.9,0.5c3-2,4.3-1.6,4.3-1.6c0.8,2.1,0.3,3.7,0.2,4.1c1,1.1,1.6,2.5,1.6,4.2
			c0,6-3.6,7.3-7.1,7.7c0.6,0.5,1.1,1.4,1.1,2.9c0,2.1,0,3.8,0,4.3c0,0.4,0.3,0.9,1.1,0.7c6.2-2.1,10.6-7.9,10.6-14.8
			C158.5,266.8,151.6,259.8,143,259.8z M133.2,282c0,0.1-0.2,0.1-0.3,0c-0.1-0.1-0.2-0.2-0.1-0.2c0-0.1,0.2-0.1,0.3,0
			C133.2,281.8,133.3,281.9,133.2,282z M134,282.6c-0.1,0.1-0.2,0-0.3-0.1c-0.1-0.1-0.1-0.3,0-0.3c0.1-0.1,0.2,0,0.3,0.1
			C134.1,282.4,134.1,282.6,134,282.6z M134.5,283.5c-0.1,0.1-0.3,0-0.3-0.1c-0.1-0.1-0.1-0.3,0-0.4c0.1-0.1,0.3,0,0.3,0.1
			C134.6,283.3,134.6,283.4,134.5,283.5z M135.4,284.5c-0.1,0.1-0.3,0.1-0.4-0.1c-0.1-0.1-0.2-0.3-0.1-0.4c0.1-0.1,0.3-0.1,0.4,0.1
			C135.5,284.2,135.5,284.4,135.4,284.5z M136.6,284.9c0,0.1-0.2,0.2-0.4,0.1c-0.2-0.1-0.3-0.2-0.3-0.3c0-0.1,0.2-0.2,0.4-0.1
			C136.5,284.6,136.6,284.7,136.6,284.9z M137.9,285c0,0.1-0.1,0.2-0.3,0.2c-0.2,0-0.3-0.1-0.3-0.2c0-0.1,0.1-0.2,0.3-0.2
			C137.7,284.8,137.9,284.9,137.9,285z M139.1,285c0,0.1-0.1,0.3-0.3,0.3c-0.2,0-0.3,0-0.4-0.2c0-0.1,0.1-0.3,0.3-0.3
			C139,284.8,139.1,284.8,139.1,285z"/>
	</g>
</g>
<g>
	<path class="st3" d="M99.1,319.1C99.1,319.1,99.1,319.1,99.1,319.1c-0.9-0.9-1.9-1.7-2.7-2.1c-0.9-0.6-2.3-1.3-3.7-1.5
		c-1-0.2-1.7-0.1-2.4,0.1c-3.7,1.5-3.2,5.5-3.2,5.5c-0.5,0-3.5,0.2-4.1,0.3c-0.5-0.7-1.4-1.2-2.9-1.5c0,0-0.1,0-0.1,0
		c-1.7-0.3-4,0.2-5.2,0.8c-0.1,0.1-0.2,0.1-0.4,0.2c-0.7,0.5-1.2,1.1-1.4,1.8c-0.3,0-0.7-0.1-1,0c-0.3,0-0.7,0.1-1,0.2
		c0,0,0-0.1,0-0.1c0.8-1.7,0.8-3.5-0.2-4.9c-1.4-2.2-5-3.4-9.4-0.6c-2.2,1.4-4.1,3-5.8,5c-0.6-0.4-1.3-0.6-1.9-0.8
		c-0.1,0-0.3-0.1-0.4-0.1c-0.1-0.8-0.4-1.6-0.9-2.2c0,0,0,0,0,0c-1.5-1.7-3.7-1.8-5.7-0.3c-1.6,1.3-5.6,8.7-10.6,10.6
		c-0.1-1.2-0.7-2.3-1.7-2.9c-1.1-0.7-2.5-0.7-3.7-0.1c-1.1,0.6-1.8,1.8-1.8,3.2c0,3.8,2.4,6.5,6.4,7.3c3.5,0.6,7.4-1,9.7-2.9
		c0.3-0.3,0.6-0.2,0.9-0.5c0.7,0.4,1.4,1,2.2,1.2c0,0,0,0,0,0c1.1,0.2,2.2-0.2,3.1-0.4c0.2,0.3,0.4,0.4,0.5,0.6
		c0.4,3.2,2.7,5.5,6.4,6.1c3,0.5,6.3-0.4,9.1-2.5c0.7-0.5,1.4-1.1,1.9-1.7c0.3,0.2,0.7,0.3,1.1,0.4c1.1,0.4,2.3,0.3,3.4,0.1
		c0.6,0.6,1.3,1.1,2.2,1.4c-0.4,2.5,0.8,5.1,3.1,6.5c0.7,0.4,1.4,0.7,2.2,0.8c2.2,0.4,4.5-0.4,6-2.1c0.2-0.2,0.4-0.4,0.6-0.7
		l10.5-17.3c0,0,0.1,0,0.1-0.1c0.5-0.3,0.9-0.6,1.2-1.1l0-0.1c0.1-0.1,0.1-0.2,0.2-0.3C100.4,324,101.5,321.7,99.1,319.1z M47.4,320
		C47.4,320,47.4,320,47.4,320C47.4,320,47.4,320,47.4,320L47.4,320z"/>
	<path id="tube_5_" d="M82.1,342.7L82.1,342.7c-0.4-0.1-0.7-0.2-1-0.4c-1.3-0.8-1.8-2.5-1.2-3.8l0,0l0.1-0.2l10.6-17.5
		c0.2-0.3,0.2-0.9,0.2-1.3c0-0.1,0-0.2,0.1-0.2l0,0c0,0,0,0,0,0c0.2-0.3,0.6-0.4,1.1-0.3c0.7,0.1,1.6,0.5,2.5,1.1
		c0.8,0.5,1.4,1,1.9,1.5c0.5,0.6,0.7,1,0.5,1.4c0,0,0,0,0,0l0,0c0,0.1-0.1,0.1-0.2,0.2c-0.4,0.2-0.9,0.6-1,0.8l-10.7,17.7l0,0
		C84.4,342.5,83.2,342.9,82.1,342.7L82.1,342.7z M80.5,338.5L80.5,338.5c-0.7,1.2-0.3,2.7,0.8,3.4c0.3,0.2,0.5,0.3,0.8,0.3
		c1,0.2,2-0.3,2.5-1.1l0-0.1l10.5-17.4c0.2-0.4,1.1-0.9,1.2-1l0,0c0,0,0,0,0,0l0,0c0,0,0-0.3-0.4-0.8c-0.4-0.5-1.1-0.9-1.8-1.4
		c-0.8-0.5-1.6-0.9-2.2-1c-0.4-0.1-0.5,0-0.5,0.1l0,0l0,0l0,0c0,0.1-0.2,1.1-0.4,1.5L80.5,338.5L80.5,338.5z"/>
	<path id="liquid_5_" class="st7" d="M91.9,328.2c0,0-1.2,1-2.2,1.2s-1.6,0-2.5,0.4c-0.9,0.3-1.4,0.9-1.4,0.9l-4.9,8.1
		c-0.5,0.9-0.2,2.1,0.7,2.7c0.9,0.6,2.1,0.3,2.7-0.6l0,0L91.9,328.2L91.9,328.2z M87.7,332.6c0.2,0,0.3,0.1,0.4,0.2
		c0,0.2-0.1,0.3-0.2,0.4c-0.2,0-0.3-0.1-0.4-0.2C87.4,332.8,87.5,332.7,87.7,332.6L87.7,332.6z M86.6,331c0.1,0,0.2,0,0.3,0.2
		c0,0.1,0,0.2-0.2,0.3c-0.1,0-0.2,0-0.3-0.2C86.4,331.1,86.5,331,86.6,331L86.6,331z M84.3,335.6c-0.2,0-0.3-0.1-0.4-0.2
		c0-0.2,0.1-0.3,0.2-0.4c0.2,0,0.3,0.1,0.4,0.2C84.6,335.4,84.4,335.5,84.3,335.6L84.3,335.6z M84.8,334.5c-0.1-0.3,0.1-0.6,0.4-0.7
		c0.3-0.1,0.6,0.1,0.7,0.4c0.1,0.3-0.1,0.6-0.4,0.7C85.2,335,84.8,334.8,84.8,334.5L84.8,334.5z M85,337.6c0.1,0,0.2,0,0.3,0.2
		c0,0.1,0,0.2-0.2,0.3c-0.1,0-0.2,0-0.3-0.2C84.8,337.8,84.9,337.7,85,337.6L85,337.6z"/>
	<ellipse id="top_5_" transform="matrix(0.5183 -0.8552 0.8552 0.5183 -229.4384 235.0054)" cx="93.9" cy="321.2" rx="0.5" ry="2"/>
	<path id="jekyll-text_5_" d="M48.2,322.9c0.3,0.3,0.9,0.3,1.3-0.1c0.5-0.4,0.7-0.9,0.4-1.3c-0.3-0.3-0.9-0.3-1.3,0.1
		C48.1,322,47.9,322.5,48.2,322.9L48.2,322.9z M47.1,323.5c-0.1,0-0.3,0.1-0.1,0.2c0.2,0.1,0.2,0.3,0.2,0.5
		c-0.3,0.8-1.6,1.7-2.1,1.9c-0.1,0.1,0,0.3,0.1,0.3c0.3-0.1,0.8-0.4,1.3-0.9c-0.9,1.4-2.5,3-3.2,3.6c-2.4,2.3-5.8,4.2-7.8,3.9
		c-1.6-0.3-2.8-1.6-2.8-3.3c0-0.2-0.2-0.3-0.2,0c0,2.3,1.5,3.4,3.5,3.8c2.2,0.4,5.2-0.8,6.9-2.1c2.8-2.3,4.9-5.1,4.8-6.9
		C47.8,323.7,47.4,323.5,47.1,323.5L47.1,323.5z M60.4,331.9c0.6,0,1.2-0.3,1.3-0.8c0-0.1-0.1-0.1-0.1,0c-0.1,0.3-0.5,0.5-0.9,0.5
		c-1,0-2.7-1.5-3.4-2.8c0.9,0.5,2.9,0.4,4-0.1c1-0.5,1.4-1.1,1.6-1.6c0.3-0.9-0.6-1.6-2.1-1.3c-1,0.2-2.2,0.8-3.5,2.1
		c1.5-1.7,4.4-4.5,7-6.1c3.2-2,4.7-1.2,1.8,1c-1.2,0.9-3.4,1.9-4.8,2.3c-0.4,0.1-0.3,0.4,0,0.3c1.5-0.4,3.6-1.3,4.9-2.2
		c3.9-2.6,1.6-5.5-2.8-2.8c-2.9,1.9-5,4-7,6.9c-0.6,0.5-1,0.9-1.6,1.2c-0.1,0-0.1,0.1-0.2,0.1c-1.4,0.8-3.6,1.9-4.8,1.7
		c-0.9-0.1-1.1-0.8-0.8-1.6c0.5-1.3,2.1-2.5,3.3-2.9c1.6-0.4,2.3,1.1,0.1,1.8c-0.8,0.2-1.8,0.3-2.1,0.2c-0.4-0.1-0.4,0.1-0.1,0.2
		c0.6,0.1,1.6,0,2.3-0.1c2.2-0.6,2.6-2.4,0.5-2.8c-2.4-0.5-5.5,1-6,3.6c-0.2,1.2,0.6,1.9,1.9,2.2c2.1,0.4,4.3-0.9,6-2
		c0.2-0.1,0.5-0.3,0.7-0.5c-0.8,1.3-1.3,2.5-1.3,3.4c0,0.7,0.3,1.1,0.5,1.4c0.1,0.1,0.2,0,0.1-0.1c-0.4-0.6,0.1-2.2,0.9-3.6
		C56.5,330.4,58.3,332,60.4,331.9L60.4,331.9z M58.7,327c2.8-1.8,3.4,0.4,1.7,1.3c-0.9,0.5-2.6,0.7-3.1,0.3l-0.1-0.1
		c0-0.1-0.1-0.2-0.1-0.3C57.6,327.7,58.2,327.4,58.7,327L58.7,327z M72.8,327c1,0.3,0.8-1-0.3-0.9c-0.5,0-1,0.8-1.5,1.5
		c-1.2,1.3-3.2,3-4.6,3.8c-1.2,0.7-2.2,0.8-0.7-0.7c0.6-0.6,1.3-1.2,1.8-1.8c1.1-1.6-0.5-2.7-2-1.9c-0.9,0.5-2.2,1.6-3.2,2.1
		c-0.3,0.1-0.3,0.4,0,0.3c0.8-0.4,2.2-1.5,3.4-2c1-0.5,1.2,0,0.6,0.4c-0.8,0.7-2.3,1.8-2.7,2.6c-0.7,1.2-0.3,1.9,0.6,2
		c1.2,0.2,3.2-1.3,4.7-2.5c0.5-0.4,1-0.9,1.5-1.4c-1.4,1.8-2.8,3.6-4.4,5.2c-2.3,2.2-5,3.7-7.2,3.3c-1.6-0.3-2.8-1.6-2.8-3.3
		c0-0.2-0.2-0.3-0.2,0c0,2.3,1.5,3.4,3.5,3.8c2.2,0.4,4.6-0.5,6.4-1.8c3.6-2.7,4.6-6.2,5.9-8.1C72,326.9,72.5,326.9,72.8,327
		L72.8,327z M85.7,326.1c0.6-0.7,0.7-1.3-0.4-1.5c-0.8-0.1-2.3,0.2-3.1,0.6c-0.2,0.1-0.1,0.2,0.1,0.2c0.1,0,0.3-0.1,0.5-0.1
		c0.8-0.3,0.4,0.5,0.1,0.8c-1.2,1.4-3.1,3.3-4.2,4.3c-0.5,0.5-1,0.9-1.6,1.3c-0.9,0.6-2.8,1.7-4,1.9c-4.1,0.8,2-5,2.5-5.4
		c1.1-1,3.5-2.6,4.3-3.5c0.6-0.7,0.7-1.3-0.4-1.5c-0.8-0.1-2.3,0.2-3.1,0.6c-0.2,0.1-0.1,0.2,0.1,0.2c0.1,0,0.3-0.1,0.5-0.1
		c0.8-0.3,0.4,0.5,0.1,0.8c-1.2,1.4-3.1,3.3-4.2,4.3c-0.8,0.8-1.8,1.6-2.6,2c-0.3,0.2-0.2,0.4,0.1,0.3c0.3-0.1,0.7-0.4,1.1-0.7
		c-1,1.3-1.9,3.2-0.1,3.7c1.5,0.5,3.7-0.8,5.1-1.8c0.2-0.1,0.3-0.2,0.5-0.4c0,0,0.1-0.1,0.1-0.1c-1,1.3-1.9,3.2-0.1,3.7
		c2,0.6,5-1.6,6.1-2.5c0.2-0.2,0.2-0.5-0.2-0.2c-0.7,0.5-2.9,1.9-4.4,2.2c-4.1,0.8,2-5,2.5-5.4C82.5,328.6,84.9,327,85.7,326.1
		L85.7,326.1z"/>
</g>
<g>
	
		<ellipse transform="matrix(0.6533 -0.7571 0.7571 0.6533 -203.0153 212.8383)" class="st8" cx="130.9" cy="328.1" rx="21.1" ry="16.4"/>
	<g>
		<path class="st3" d="M131.3,311c7.1-1.3,13.4,2.7,14.6,9.9c1.4,8.2-4.1,17.4-12.4,20.5c-2.9,1.1-5.7,1.3-8.2,0.9
			c-0.6-3.2-0.3-6.7,0.8-9.2c1.8-4.1,5.3-4.2,7.7-0.2c0.9,1.5,1.6,3.4,1.9,5.4c0.6-0.4,1.3-0.9,1.8-1.4c-2.7-4.9-4.4-10.9,2-22.5
			c-2.4-1.5-5.9-2-10.1-0.9C130.1,312.7,130.7,311.9,131.3,311L131.3,311z"/>
		<path class="st3" d="M130.6,320c-0.5,1.4-0.1,2.4,0.8,2.3c0.9-0.1,2-1.3,2.5-2.6c0.5-1.4,0.1-2.4-0.8-2.3
			C132.1,317.4,131,318.6,130.6,320L130.6,320z M129.5,316.4c-5.5,8.6-7,19.2-5.6,28.3c-4-1.1-7.2-4.4-8-9l0-0.1
			c-1.4-8.2,4.1-17.4,12.4-20.5c3.2-1.2,6.4-1.4,9.1-0.6c-0.4,1.6-1.1,3.5-1.8,5c-1.6,3-4.1,5.1-5.6,4.7c-1.5-0.5-1.5-3.3,0.1-6.3
			c0.4-0.7,0.8-1.4,1.2-1.9C130.7,315.9,130.1,316.1,129.5,316.4L129.5,316.4z"/>
	</g>
</g>
<g>
	<path class="st3" d="M113,288.8c0.3-0.9,0.5-1.9,0.5-2.9c0.2-6.2-4.6-11.4-10.8-11.6c-4.5-0.2-8.4,2.3-10.4,6
		c-1.4-1.3-3.2-2.1-5.2-2.1c-4.5-0.2-8.4,3.4-8.5,7.9c0,0.6,0,1.1,0.1,1.6c-3.5,1.2-6,4.4-6.2,8.3c-0.2,5,3.7,9.2,8.7,9.4
		c5,0.2,23.5,0.9,28.5,1.1c5,0.2,9.2-3.7,9.4-8.7C119.4,293.6,116.8,290,113,288.8z"/>
	<g>
		<polygon class="st5" points="95.4,289 91.7,288.8 91.6,291.2 95.2,291.4 94.9,298.6 97.2,298.7 97.5,291.5 101.3,291.6 
			101.4,289.2 97.5,289.1 		"/>
		<polygon class="st5" points="83.1,292.5 83,294.6 82.9,298.1 85.3,298.2 85.5,294.6 89.1,294.8 89.2,292.3 85.5,292.2 85.6,291 
			90.4,291.2 90.5,288.8 83.3,288.5 		"/>
		<path class="st5" d="M107.4,289.4l-4.9-0.2l-0.4,9.6l2.4,0.1l0.1-2.4l2.5,0.1c2.1,0.1,3.8-1.4,3.9-3.5
			C111.1,291.1,109.5,289.5,107.4,289.4z M106.9,294.3l-2.1-0.1l0.1-2.4l2.1,0.1c0.9,0,1.6,0.4,1.6,1.3
			C108.5,294.1,107.8,294.3,106.9,294.3z"/>
	</g>
</g>
<g>
	<g>
		<path class="st3" d="M76.1,270.1l-28.5,37.6c-1.4,1.9-4.1,2.2-5.9,0.8l-12.9-9.7c-1.9-1.4-2.2-4.1-0.8-5.9l28.5-37.6
			c1.4-1.9,4.1-2.2,5.9-0.8l12.9,9.7C77.1,265.6,77.5,268.3,76.1,270.1z"/>
		<path class="st9" d="M77.6,267.7c0,1.3-0.4,2.6-1.2,3.6l-27.5,36.3c-1,1.3-2.4,2.1-4,2.3c-1.6,0.2-3.2-0.2-4.5-1.2l-11.5-8.8
			c-2.6-2-3.2-5.8-1.2-8.4l27.5-36.3c2-2.6,5.8-3.2,8.4-1.2l11.5,8.8c1.3,1,2.1,2.4,2.3,4C77.6,267.2,77.6,267.5,77.6,267.7z
			 M28.5,295.3c0,1.2,0.6,2.5,1.6,3.3l11.5,8.8c0.9,0.7,1.9,0.9,3,0.8c1.1-0.1,2-0.7,2.7-1.6l27.5-36.3c0.7-0.9,0.9-1.9,0.8-3
			c-0.1-1.1-0.7-2-1.6-2.7l-11.5-8.8c-1.8-1.4-4.3-1-5.7,0.8l-27.5,36.3C28.7,293.5,28.5,294.4,28.5,295.3z"/>
	</g>
	<path class="st9" d="M48,300.1l-2.4,1.6l-3.2-2.4l2.4-1.6L48,300.1"/>
	<path class="st9" d="M48.3,299.7l0.9-2.8l-3.2-2.4l-0.9,2.7L48.3,299.7"/>
	<path class="st9" d="M42.3,298.9l1.1-2.7l2.2-1.5l-0.9,2.6L42.3,298.9"/>
	<path class="st9" d="M41.6,299.3l-2.4,1.6l-3.2-2.4l2.4-1.6L41.6,299.3"/>
	<path class="st9" d="M41.9,298.9l0.9-2.8l-3.2-2.4l-0.9,2.7L41.9,298.9"/>
	<path class="st9" d="M35.9,298.1l1.1-2.7l2.2-1.5l-0.9,2.6L35.9,298.1"/>
	<path class="st9" d="M45.5,294.2l-2.4,1.6l-3.2-2.4l2.4-1.6L45.5,294.2"/>
	<path class="st9" d="M45.8,293.8l0.9-2.8l-3.2-2.4l-0.9,2.7L45.8,293.8"/>
	<path class="st9" d="M39.8,293l1.1-2.7l2.2-1.5l-0.9,2.6L39.8,293"/>
	<path class="st9" d="M43,288.3l-2.4,1.6l-3.2-2.4l2.4-1.6L43,288.3"/>
	<path class="st9" d="M43.3,287.9l0.9-2.8l-3.2-2.4l-0.9,2.7L43.3,287.9"/>
	<path class="st9" d="M37.3,287l1.1-2.7l2.2-1.5l-0.9,2.6L37.3,287"/>
	<path class="st9" d="M46.8,283.2l-2.4,1.6l-3.2-2.4l2.4-1.6L46.8,283.2"/>
	<path class="st9" d="M47.1,282.8L48,280l-3.2-2.4l-0.9,2.7L47.1,282.8"/>
	<path class="st9" d="M41.1,282l1.1-2.7l2.2-1.5l-0.9,2.6L41.1,282"/>
	<path class="st9" d="M52.8,289.5l2,2.7l-0.2,0.3l-2.3-0.9l1.5,2l-0.2,0.3l-3.1-1.2l0.3-0.4l2.3,0.9l-1.5-2l0.2-0.3l2.3,0.9l-1.5-2
		L52.8,289.5L52.8,289.5z"/>
	<path class="st9" d="M52.8,289.5l2,2.7l-0.2,0.3l-2.3-0.9l1.5,2l-0.2,0.3l-3.1-1.2l0.3-0.4l2.3,0.9l-1.5-2l0.2-0.3l2.3,0.9l-1.5-2
		L52.8,289.5L52.8,289.5z"/>
	<path class="st9" d="M56.1,288.8l0.4-0.3c0.2,0.2,0.2,0.5,0.2,0.8c0,0.3-0.1,0.6-0.3,0.8c-0.3,0.3-0.6,0.5-1,0.6
		c-0.4,0-0.8-0.1-1.2-0.4c-0.4-0.3-0.6-0.7-0.7-1.1c-0.1-0.4,0-0.8,0.3-1.1c0.3-0.3,0.6-0.5,1-0.5c0.4,0,0.8,0.1,1.3,0.5l-1.4,1.8
		c0.4,0.3,0.7,0.4,1,0.3c0.3-0.1,0.5-0.2,0.6-0.4C56.4,289.5,56.4,289.2,56.1,288.8L56.1,288.8z M55.4,288.2
		c-0.1-0.1-0.3-0.2-0.4-0.2c-0.1,0-0.3,0-0.5,0c-0.2,0-0.3,0.1-0.4,0.3c-0.1,0.2-0.2,0.4-0.2,0.7c0,0.2,0.2,0.5,0.4,0.7L55.4,288.2
		L55.4,288.2z"/>
	<path class="st9" d="M56.1,288.8l0.4-0.3c0.2,0.2,0.2,0.5,0.2,0.8c0,0.3-0.1,0.6-0.3,0.8c-0.3,0.3-0.6,0.5-1,0.6
		c-0.4,0-0.8-0.1-1.2-0.4c-0.4-0.3-0.6-0.7-0.7-1.1c-0.1-0.4,0-0.8,0.3-1.1c0.3-0.3,0.6-0.5,1-0.5c0.4,0,0.8,0.1,1.3,0.5l-1.4,1.8
		c0.4,0.3,0.7,0.4,1,0.3c0.3-0.1,0.5-0.2,0.6-0.4C56.4,289.5,56.4,289.2,56.1,288.8L56.1,288.8z M55.4,288.2
		c-0.1-0.1-0.3-0.2-0.4-0.2c-0.1,0-0.3,0-0.5,0c-0.2,0-0.3,0.1-0.4,0.3c-0.1,0.2-0.2,0.4-0.2,0.7c0,0.2,0.2,0.5,0.4,0.7L55.4,288.2
		L55.4,288.2z"/>
	<path class="st9" d="M57.7,288.3l-0.1,0.2l-3.4-2.6l0.3-0.4l1.3,1c-0.2-0.4-0.2-0.8,0.1-1.1c0.2-0.3,0.5-0.4,0.9-0.5
		c0.4,0,0.8,0.1,1.2,0.5c0.4,0.3,0.6,0.6,0.7,1c0.1,0.4,0,0.7-0.2,1c-0.3,0.3-0.6,0.5-1.1,0.4L57.7,288.3L57.7,288.3z M56.9,287.3
		c0.3,0.2,0.5,0.2,0.7,0.2c0.2-0.1,0.4-0.2,0.5-0.3c0.2-0.2,0.2-0.4,0.1-0.7c-0.1-0.3-0.3-0.5-0.6-0.7c-0.3-0.2-0.6-0.4-0.9-0.4
		c-0.3,0-0.5,0.1-0.7,0.3c-0.1,0.2-0.2,0.4-0.1,0.6c0,0.2,0.1,0.4,0.3,0.6L56.9,287.3L56.9,287.3z"/>
	<path class="st9" d="M57.7,288.3l-0.1,0.2l-3.4-2.6l0.3-0.4l1.3,1c-0.2-0.4-0.2-0.8,0.1-1.1c0.2-0.3,0.5-0.4,0.9-0.5
		c0.4,0,0.8,0.1,1.2,0.5c0.4,0.3,0.6,0.6,0.7,1c0.1,0.4,0,0.7-0.2,1c-0.3,0.3-0.6,0.5-1.1,0.4L57.7,288.3L57.7,288.3z M56.9,287.3
		c0.3,0.2,0.5,0.2,0.7,0.2c0.2-0.1,0.4-0.2,0.5-0.3c0.2-0.2,0.2-0.4,0.1-0.7c-0.1-0.3-0.3-0.5-0.6-0.7c-0.3-0.2-0.6-0.4-0.9-0.4
		c-0.3,0-0.5,0.1-0.7,0.3c-0.1,0.2-0.2,0.4-0.1,0.6c0,0.2,0.1,0.4,0.3,0.6L56.9,287.3L56.9,287.3z"/>
	<path class="st9" d="M59.4,284.8l0.2-0.4c0.4,0.2,0.7,0,1.1-0.4c0.1-0.2,0.2-0.3,0.2-0.5c0-0.2,0-0.3-0.2-0.4
		c-0.2-0.2-0.4-0.1-0.7,0.1l-0.5,0.5c-0.2,0.2-0.4,0.3-0.6,0.3c-0.2,0-0.4,0-0.6-0.2c-0.2-0.2-0.3-0.4-0.3-0.7
		c0-0.3,0.1-0.6,0.3-0.8c0.4-0.6,0.9-0.7,1.4-0.5l-0.2,0.4c-0.3-0.1-0.6,0-0.9,0.3c-0.1,0.2-0.2,0.3-0.2,0.5c0,0.2,0,0.3,0.2,0.4
		c0.2,0.1,0.4,0.1,0.7-0.1l0.5-0.4c0.5-0.4,0.9-0.5,1.3-0.2c0.2,0.2,0.3,0.4,0.3,0.7c0,0.3-0.1,0.6-0.4,0.9
		C60.5,284.8,59.9,285,59.4,284.8L59.4,284.8z"/>
	<path class="st9" d="M59.4,284.8l0.2-0.4c0.4,0.2,0.7,0,1.1-0.4c0.1-0.2,0.2-0.3,0.2-0.5c0-0.2,0-0.3-0.2-0.4
		c-0.2-0.2-0.4-0.1-0.7,0.1l-0.5,0.5c-0.2,0.2-0.4,0.3-0.6,0.3c-0.2,0-0.4,0-0.6-0.2c-0.2-0.2-0.3-0.4-0.3-0.7
		c0-0.3,0.1-0.6,0.3-0.8c0.4-0.6,0.9-0.7,1.4-0.5l-0.2,0.4c-0.3-0.1-0.6,0-0.9,0.3c-0.1,0.2-0.2,0.3-0.2,0.5c0,0.2,0,0.3,0.2,0.4
		c0.2,0.1,0.4,0.1,0.7-0.1l0.5-0.4c0.5-0.4,0.9-0.5,1.3-0.2c0.2,0.2,0.3,0.4,0.3,0.7c0,0.3-0.1,0.6-0.4,0.9
		C60.5,284.8,59.9,285,59.4,284.8L59.4,284.8z"/>
	<path class="st9" d="M62.5,280.4l0.4-0.3c0.2,0.2,0.2,0.5,0.2,0.8c0,0.3-0.1,0.6-0.3,0.8c-0.3,0.3-0.6,0.5-1,0.6
		c-0.4,0-0.8-0.1-1.2-0.4c-0.4-0.3-0.6-0.7-0.7-1.1c-0.1-0.4,0-0.8,0.3-1.1c0.3-0.3,0.6-0.5,1-0.5c0.4,0,0.8,0.1,1.3,0.5l-1.4,1.8
		c0.4,0.3,0.7,0.4,1,0.3c0.3-0.1,0.5-0.2,0.6-0.4C62.7,281.2,62.7,280.8,62.5,280.4L62.5,280.4z M61.7,279.9
		c-0.1-0.1-0.3-0.2-0.4-0.2c-0.1,0-0.3,0-0.5,0c-0.2,0-0.3,0.1-0.4,0.3c-0.1,0.2-0.2,0.4-0.2,0.7c0,0.2,0.2,0.5,0.4,0.7L61.7,279.9
		L61.7,279.9z"/>
	<path class="st9" d="M62.5,280.4l0.4-0.3c0.2,0.2,0.2,0.5,0.2,0.8c0,0.3-0.1,0.6-0.3,0.8c-0.3,0.3-0.6,0.5-1,0.6
		c-0.4,0-0.8-0.1-1.2-0.4c-0.4-0.3-0.6-0.7-0.7-1.1c-0.1-0.4,0-0.8,0.3-1.1c0.3-0.3,0.6-0.5,1-0.5c0.4,0,0.8,0.1,1.3,0.5l-1.4,1.8
		c0.4,0.3,0.7,0.4,1,0.3c0.3-0.1,0.5-0.2,0.6-0.4C62.7,281.2,62.7,280.8,62.5,280.4L62.5,280.4z M61.7,279.9
		c-0.1-0.1-0.3-0.2-0.4-0.2c-0.1,0-0.3,0-0.5,0c-0.2,0-0.3,0.1-0.4,0.3c-0.1,0.2-0.2,0.4-0.2,0.7c0,0.2,0.2,0.5,0.4,0.7L61.7,279.9
		L61.7,279.9z"/>
	<path class="st9" d="M64.2,279.8l-0.3,0.4l-2.5-1.9l0.3-0.3l0.6,0.4c-0.2-0.3-0.3-0.6-0.3-0.8c0-0.2,0.1-0.3,0.2-0.5
		c0,0,0.1-0.1,0.1-0.1l0.4,0.3l-0.1,0.1c-0.2,0.2-0.2,0.5-0.2,0.7c0.1,0.3,0.2,0.5,0.5,0.7L64.2,279.8L64.2,279.8z"/>
	<path class="st9" d="M64.2,279.8l-0.3,0.4l-2.5-1.9l0.3-0.3l0.6,0.4c-0.2-0.3-0.3-0.6-0.3-0.8c0-0.2,0.1-0.3,0.2-0.5
		c0,0,0.1-0.1,0.1-0.1l0.4,0.3l-0.1,0.1c-0.2,0.2-0.2,0.5-0.2,0.7c0.1,0.3,0.2,0.5,0.5,0.7L64.2,279.8L64.2,279.8z"/>
	<path class="st9" d="M64.2,274.5l1.9,2.8l-0.3,0.4l-3.2-1l0.3-0.4l2.6,0.9l-1.5-2.3L64.2,274.5L64.2,274.5z"/>
	<path class="st9" d="M64.2,274.5l1.9,2.8l-0.3,0.4l-3.2-1l0.3-0.4l2.6,0.9l-1.5-2.3L64.2,274.5L64.2,274.5z"/>
	<path class="st9" d="M63.5,273.5l0.3-0.4l0.4,0.3l-0.3,0.4L63.5,273.5z M64.4,274.2l0.3-0.4l2.5,1.9l-0.3,0.4L64.4,274.2z"/>
	<path class="st9" d="M63.5,273.5l0.3-0.4l0.4,0.3l-0.3,0.4L63.5,273.5z M64.4,274.2l0.3-0.4l2.5,1.9l-0.3,0.4L64.4,274.2z"/>
	<path class="st9" d="M67.9,273l0.3-0.3c0.2,0.3,0.4,0.5,0.4,0.8c0,0.3-0.1,0.6-0.3,0.8c-0.3,0.4-0.6,0.5-1,0.5
		c-0.4,0-0.8-0.2-1.2-0.4c-0.4-0.3-0.6-0.6-0.7-1c-0.1-0.4,0-0.7,0.2-1.1c0.2-0.3,0.5-0.4,0.8-0.5c0.3,0,0.6,0,0.9,0.2l-0.2,0.4
		c-0.5-0.3-0.8-0.2-1.1,0.1c-0.2,0.2-0.2,0.5-0.1,0.7c0.1,0.3,0.3,0.5,0.6,0.7c0.3,0.2,0.6,0.4,0.9,0.4c0.3,0,0.5-0.1,0.6-0.3
		C68.3,273.8,68.3,273.4,67.9,273L67.9,273z"/>
	<path class="st9" d="M67.9,273l0.3-0.3c0.2,0.3,0.4,0.5,0.4,0.8c0,0.3-0.1,0.6-0.3,0.8c-0.3,0.4-0.6,0.5-1,0.5
		c-0.4,0-0.8-0.2-1.2-0.4c-0.4-0.3-0.6-0.6-0.7-1c-0.1-0.4,0-0.7,0.2-1.1c0.2-0.3,0.5-0.4,0.8-0.5c0.3,0,0.6,0,0.9,0.2l-0.2,0.4
		c-0.5-0.3-0.8-0.2-1.1,0.1c-0.2,0.2-0.2,0.5-0.1,0.7c0.1,0.3,0.3,0.5,0.6,0.7c0.3,0.2,0.6,0.4,0.9,0.4c0.3,0,0.5-0.1,0.6-0.3
		C68.3,273.8,68.3,273.4,67.9,273L67.9,273z"/>
	<path class="st9" d="M70,270.5l0.4-0.3c0.2,0.2,0.2,0.5,0.2,0.8c0,0.3-0.1,0.6-0.3,0.8c-0.3,0.3-0.6,0.5-1,0.6
		c-0.4,0-0.8-0.1-1.2-0.4c-0.4-0.3-0.6-0.7-0.7-1.1c-0.1-0.4,0-0.8,0.3-1.1c0.3-0.3,0.6-0.5,1-0.5c0.4,0,0.8,0.1,1.3,0.5l-1.4,1.8
		c0.4,0.3,0.7,0.4,1,0.3c0.3-0.1,0.5-0.2,0.6-0.4C70.3,271.2,70.3,270.9,70,270.5L70,270.5z M69.2,269.9c-0.1-0.1-0.3-0.2-0.4-0.2
		s-0.3,0-0.5,0c-0.2,0-0.3,0.1-0.4,0.3c-0.1,0.2-0.2,0.4-0.2,0.7c0,0.2,0.2,0.5,0.4,0.7L69.2,269.9L69.2,269.9z"/>
	<path class="st9" d="M70,270.5l0.4-0.3c0.2,0.2,0.2,0.5,0.2,0.8c0,0.3-0.1,0.6-0.3,0.8c-0.3,0.3-0.6,0.5-1,0.6
		c-0.4,0-0.8-0.1-1.2-0.4c-0.4-0.3-0.6-0.7-0.7-1.1c-0.1-0.4,0-0.8,0.3-1.1c0.3-0.3,0.6-0.5,1-0.5c0.4,0,0.8,0.1,1.3,0.5l-1.4,1.8
		c0.4,0.3,0.7,0.4,1,0.3c0.3-0.1,0.5-0.2,0.6-0.4C70.3,271.2,70.3,270.9,70,270.5L70,270.5z M69.2,269.9c-0.1-0.1-0.3-0.2-0.4-0.2
		s-0.3,0-0.5,0c-0.2,0-0.3,0.1-0.4,0.3c-0.1,0.2-0.2,0.4-0.2,0.7c0,0.2,0.2,0.5,0.4,0.7L69.2,269.9L69.2,269.9z"/>
	<path class="st9" d="M70.6,269.9l0.2-0.4c0.4,0.2,0.7,0,1.1-0.4c0.1-0.2,0.2-0.3,0.2-0.5c0-0.2,0-0.3-0.2-0.4
		c-0.2-0.2-0.4-0.1-0.7,0.1l-0.5,0.5c-0.2,0.2-0.4,0.3-0.6,0.3c-0.2,0-0.4,0-0.6-0.2c-0.2-0.2-0.3-0.4-0.3-0.7
		c0-0.3,0.1-0.6,0.3-0.8c0.4-0.6,0.9-0.7,1.4-0.5l-0.2,0.4c-0.3-0.1-0.6,0-0.9,0.3c-0.1,0.2-0.2,0.3-0.2,0.5s0,0.3,0.2,0.4
		c0.2,0.1,0.4,0.1,0.7-0.1l0.5-0.4c0.5-0.4,0.9-0.5,1.3-0.2c0.2,0.2,0.3,0.4,0.3,0.7c0,0.3-0.1,0.6-0.4,0.9
		C71.7,270,71.2,270.2,70.6,269.9L70.6,269.9z"/>
	<path class="st9" d="M70.6,269.9l0.2-0.4c0.4,0.2,0.7,0,1.1-0.4c0.1-0.2,0.2-0.3,0.2-0.5c0-0.2,0-0.3-0.2-0.4
		c-0.2-0.2-0.4-0.1-0.7,0.1l-0.5,0.5c-0.2,0.2-0.4,0.3-0.6,0.3c-0.2,0-0.4,0-0.6-0.2c-0.2-0.2-0.3-0.4-0.3-0.7
		c0-0.3,0.1-0.6,0.3-0.8c0.4-0.6,0.9-0.7,1.4-0.5l-0.2,0.4c-0.3-0.1-0.6,0-0.9,0.3c-0.1,0.2-0.2,0.3-0.2,0.5s0,0.3,0.2,0.4
		c0.2,0.1,0.4,0.1,0.7-0.1l0.5-0.4c0.5-0.4,0.9-0.5,1.3-0.2c0.2,0.2,0.3,0.4,0.3,0.7c0,0.3-0.1,0.6-0.4,0.9
		C71.7,270,71.2,270.2,70.6,269.9L70.6,269.9z"/>
	<path class="st9" d="M56.5,273.3l-0.6-0.5c-0.1-0.1-0.1-0.2,0-0.3l2.1-2.7c0.1-0.1,0.2-0.1,0.3,0l0.5,0.4c0.1,0.1,0.1,0.2,0.2,0.5
		l0.9,3c0.4-0.5,0.9-1,1.5-1.3c0.1-0.1,0.3,0,0.3,0l0.7,0.5c0.1,0.1,0.1,0.2,0,0.3c-1.1,0.5-2,1.6-2.2,2.9c0,0.1-0.2,0.2-0.3,0.1
		l-0.6-0.5c-0.1-0.1-0.3-0.2-0.3-0.4l-1.1-3.4l-1.1,1.4C56.7,273.4,56.6,273.4,56.5,273.3"/>
	<path class="st9" d="M52.9,286l-0.6,0.8c-0.1,0.1-0.2,0.1-0.3,0l-4.3-3.2c-0.1-0.1-0.1-0.2,0-0.3l0.6-0.8c0.1-0.1,0.2-0.1,0.3,0
		l0.6,0.4l0,0c-0.4-0.6-0.3-1.2,0-1.7c0.4-0.5,0.9-0.7,1.6-0.5c-0.4-0.6-0.3-1.3,0.1-1.7c0.3-0.3,0.7-0.6,1.2-0.6
		c0.6,0,1,0.5,1.5,0.8l2.7,2c0.1,0.1,0.1,0.2,0,0.3l-0.6,0.8c-0.1,0.1-0.2,0.1-0.3,0l-2.3-1.7c-0.2-0.1-0.6-0.5-0.8-0.6
		c-0.3-0.2-0.6,0-0.7,0.2c-0.2,0.2-0.2,0.5,0,0.8c0.2,0.2,0.5,0.5,0.8,0.7l2.3,1.7c0.1,0.1,0.1,0.2,0,0.3l-0.6,0.8
		c-0.1,0.1-0.2,0.1-0.3,0l-2.3-1.7c-0.5-0.4-1.1-1-1.6-0.4c-0.5,0.6,0.2,1.1,0.7,1.5l2.3,1.7C53,285.8,53,285.9,52.9,286"/>
	<path class="st9" d="M59.5,267.6c0.9-1.2,2.5-1.1,3.8-0.1c1.3,1,1.8,2.5,0.9,3.7c-0.9,1.2-2.5,1.1-3.8,0.1
		C59.2,270.3,58.6,268.8,59.5,267.6L59.5,267.6z M60.5,268.3c-0.5,0.6,0.3,1.3,0.9,1.7c0.5,0.4,1.5,1.2,2,0.5
		c0.5-0.6-0.3-1.3-0.8-1.7c-0.4-0.3-0.8-0.6-1.2-0.7C61,268,60.7,268.1,60.5,268.3L60.5,268.3z"/>
	<path class="st9" d="M67,267.5l-0.6,0.8c-0.1,0.1-0.2,0.1-0.3,0l-4.3-3.2c-0.1-0.1-0.1-0.2,0-0.3l0.6-0.8c0.1-0.1,0.2-0.1,0.2-0.1
		l0.7,0.5l0,0c-0.4-0.7-0.4-1.2,0-1.8c0.3-0.4,0.7-0.6,1.2-0.6c0.5,0,1.1,0.5,1.5,0.8l2.7,2c0.1,0.1,0.1,0.2,0,0.3l-0.6,0.8
		c-0.1,0.1-0.2,0.1-0.2,0l-2.3-1.8c-0.5-0.4-1.1-0.9-1.5-0.4c-0.2,0.2-0.2,0.5,0,0.7c0.2,0.3,0.4,0.5,0.7,0.7l2.3,1.7
		C67,267.3,67,267.4,67,267.5"/>
	<path class="st9" d="M59.3,276.4c0-0.1-0.1-0.2-0.2-0.2c-0.3,0-0.6,0-1-0.3l-1.3-1c-0.5-0.4-1-0.8-1.7-0.7
		c-0.5,0.1-1.1,0.5-1.4,0.9c-0.6,0.8-1,1.9-0.1,2.8c0.1,0.1,0.2,0.1,0.3,0l0.7-0.7c0.1-0.1,0-0.2,0-0.3c-0.3-0.3-0.2-0.7,0-1
		c0.1-0.2,0.3-0.3,0.6-0.3c0.3,0,0.5,0.2,0.7,0.4l0.1,0.1c-0.3,0.5-0.8,1.2-0.9,1.8c-0.2,0.7,0,1.4,0.7,1.9c0.9,0.7,1.7,0.4,2.2-0.3
		c0.4-0.6,0.6-1,0.4-1.8c0.3,0,0.5,0,0.9-0.1c0.1,0,0.1-0.1,0.1-0.2l0,0C59.4,277.2,59.3,276.7,59.3,276.4z M57.4,278.4
		c-0.2,0.3-0.6,0.3-1,0c-0.7-0.5-0.4-1.3,0.1-1.9l0.2,0.1c0.3,0.2,0.6,0.4,0.8,0.8C57.6,277.9,57.6,278.2,57.4,278.4z"/>
	<path class="st3" d="M64.1,293.5L64.1,293.5"/>
	<path class="st9" d="M51.1,287.2c0-0.1-0.1-0.2-0.2-0.2c-0.3,0-0.6,0-1-0.3l-1.3-1c-0.5-0.4-1-0.8-1.7-0.7
		c-0.5,0.1-1.1,0.5-1.4,0.9c-0.6,0.8-1,1.9-0.1,2.8c0.1,0.1,0.2,0.1,0.3,0l0.7-0.7c0.1-0.1,0-0.2,0-0.3c-0.3-0.3-0.2-0.7,0-1
		c0.1-0.2,0.3-0.3,0.6-0.3c0.3,0,0.5,0.2,0.7,0.4l0.1,0.1c-0.3,0.5-0.8,1.2-0.9,1.8c-0.2,0.7,0,1.4,0.7,1.9c0.9,0.7,1.7,0.4,2.2-0.3
		c0.4-0.6,0.6-1,0.4-1.8c0.3,0,0.5,0,0.9-0.1c0.1,0,0.1-0.1,0.1-0.2l0,0C51.2,288,51.1,287.5,51.1,287.2z M49.2,289.2
		c-0.2,0.3-0.6,0.3-1,0c-0.7-0.5-0.4-1.3,0.1-1.9l0.2,0.1c0.3,0.2,0.6,0.4,0.8,0.8C49.4,288.7,49.4,289,49.2,289.2z"/>
</g>
</svg>
