<?xml version="1.0" encoding="utf-8"?>
<!-- Generator: Adobe Illustrator 19.2.1, SVG Export Plug-In . SVG Version: 6.00 Build 0)  -->
<svg version="1.1" id="Layer_1" xmlns="http://www.w3.org/2000/svg" xmlns:xlink="http://www.w3.org/1999/xlink" x="0px" y="0px"
	 viewBox="0 0 360 360" style="enable-background:new 0 0 360 360;" xml:space="preserve">
<style type="text/css">
	.st0{fill:#F6F7F9;}
	.st1{fill:#EA722F;}
	.st2{fill:#374251;}
	.st3{fill:#374252;}
	.st4{fill:#111111;}
	.st5{fill:#25BC9F;}
	.st6{fill:#E2613C;}
	.st7{fill:#F8BA2E;}
	.st8{fill:#D2D7DF;}
	.st9{fill:#E3D4B5;}
	.st10{fill:#3F4754;}
	.st11{fill:#B0B7C2;}
	.st12{fill:#D3D8E0;}
	.st13{fill:#29323E;}
	.st14{fill:#1C2129;}
	.st15{opacity:0.7;}
	.st16{fill:#FFFFFF;}
</style>
<path class="st0" d="M292,204.1l14.4-17l15,14.6c1.4-31-0.1-61.1-6-83.7c-29.7,11.7-51.5,35-60.5,69.7l21.5-13.5L292,204.1z"/>
<path class="st1" d="M306.5,187.1l-14.4,17l-15.5-29.8L255,187.8c-6.9,26.8-6.1,60.4,4.7,100.7c9.2,34.2-1.7,46.6-18.6,46.6h-23.6
	v20h26.7c36.5,0,55.8-14.1,66.6-66.6c5.3-25.8,9.3-56.7,10.7-86.7L306.5,187.1z"/>
<path class="st1" d="M86.8,355V215.8c0-39.8,32.2-72,72-72s72,32.2,72,72V355H86.8z"/>
<g>
	<path class="st2" d="M179.5,66.9c7.3-19.2,36.9-35.2,46.6-40.3c1.4-0.7,3.2,0.2,3.3,1.8c0.9,10.8,3.1,44.5-9.3,60.8L179.5,66.9z"/>
	<path class="st0" d="M186.9,70.9c4.7-12.3,22.9-24.7,30.4-28.8c1.5-0.8,3.4,0.2,3.5,1.9c0.6,8.5-0.2,30.5-8.2,41.1L186.9,70.9z"/>
</g>
<g>
	<path class="st2" d="M138,66.9c-7.3-19.2-36.9-35.2-46.6-40.3c-1.4-0.7-3.2,0.2-3.3,1.8c-0.9,10.8-3.1,44.5,9.3,60.8L138,66.9z"/>
	<path class="st0" d="M130.6,70.9c-4.7-12.3-22.9-24.7-30.4-28.8c-1.5-0.8-3.4,0.2-3.5,1.9c-0.6,8.5,0.2,30.5,8.2,41.1L130.6,70.9z"
		/>
</g>
<path class="st1" d="M227.3,104.3V84.8c0,0-28.4-32.5-68.6-32.5c-40.2,0-68.6,32.5-68.6,32.5v19.5l68.6,43.1L227.3,104.3z"/>
<polygon class="st0" points="158.8,147.4 158.8,147.4 158.8,147.4 90.2,104.3 90.2,127.7 158.8,159.8 227.3,127.7 227.3,104.3 "/>
<path class="st3" d="M184.3,214c-7.5,0-13.5,6-13.5,13.5V355h27V227.5C197.8,220.1,191.7,214,184.3,214z"/>
<path class="st3" d="M133.3,214c-7.5,0-13.5,6-13.5,13.5V355h27V227.5C146.8,220.1,140.7,214,133.3,214z"/>
<circle class="st4" cx="134.8" cy="103.3" r="7"/>
<circle class="st4" cx="182.1" cy="103.3" r="7"/>
<path class="st3" d="M173.2,142.3c0,0-4.4-9-14.4-9s-14.4,9-14.4,9l12.2,10.3c1.3,1.1,3.1,1.1,4.4,0L173.2,142.3z"/>
<g>
	<path class="st0" d="M162.1,348.3H64.5v-9.8l74.6-12.8c12.2-1.3,23,8.3,23,20.5V348.3z"/>
	<path class="st0" d="M157.7,348.3h95.4v-9.8l-72.8-12.8c-12.2-1.3-22.7,8.3-22.7,20.5V348.3z"/>
</g>
<path class="st5" d="M166.7,360h-15.2c-4.6,0-8.3-3.7-8.3-8.3V350h32.2v1.3C175.4,356.1,171.5,360,166.7,360z"/>
<path class="st5" d="M250.1,355H67.9c-4.9,0-9-4-9-9v-1h199.7v1.5C258.6,351.2,254.8,355,250.1,355z"/>
<g>
	<path class="st6" d="M137.5,322.2c-0.4-2.1-2.4-3.5-4.5-3.2l-11,1.9l1.3,7.6l11-1.9C136.4,326.4,137.9,324.3,137.5,322.2z"/>
	<g>
		<polygon class="st7" points="60.9,339.6 50,337.6 59.5,332 127,320.1 128.4,327.8 		"/>
	</g>
	<g>
		
			<rect x="118.8" y="320.6" transform="matrix(0.9849 -0.173 0.173 0.9849 -54.2541 26.4385)" class="st8" width="11.6" height="7.8"/>
	</g>
	<polygon class="st9" points="60.9,339.6 59.5,332 50.1,337.6 	"/>
	<polygon class="st10" points="54.1,338.3 53.6,335.5 50.1,337.6 	"/>
</g>
<g>
	<g>
		<g>
			<path class="st11" d="M302.3,322.7h-3.2v-2.2h3.2c0.8,0,1.5-0.8,1.5-1.7c0-0.8-0.7-1.7-1.5-1.7h-3.2v-3.3h3.2
				c2.5,0,4.5,2,4.5,4.4C306.8,320.8,304.7,322.7,302.3,322.7z"/>
		</g>
	</g>
	<rect x="230.4" y="301.7" class="st11" width="8.8" height="5.5"/>
	<rect x="217" y="300.6" class="st11" width="10" height="7"/>
	<path class="st12" d="M296.9,354.9h-82.4c-1.7,0-4.2-1.7-4.2-3.4v-26.2V308c0-1.7,2.5-4.1,4.2-4.1h26.3l3.4-5.9
		c0.3-0.6,0.9-0.8,1.6-0.8h51.1c1.7,0,2.2,2.1,2.2,3.7v24.4v26.2C299.1,353.3,298.6,354.9,296.9,354.9z"/>
	<circle class="st13" cx="256.7" cy="331.2" r="19.2"/>
	<circle class="st3" cx="256.7" cy="331.2" r="15.4"/>
	<circle class="st14" cx="256.7" cy="331.2" r="5.2"/>
	<g>
		<path class="st13" d="M233.6,331.6c0-6.4,2.6-12.2,6.7-16.6h-30v33.3h30C236.1,343.8,233.6,338,233.6,331.6z"/>
		<path class="st13" d="M273.1,315c4.2,4.4,6.7,10.3,6.7,16.6s-2.6,12.2-6.7,16.6h26V315H273.1z"/>
	</g>
	<g>
		<g>
			<path class="st11" d="M210.3,322.7h-1.2c-2.5,0-4.5-2-4.5-4.4c0-2.5,2-4.4,4.5-4.4h1.2v3.3h-1.2c-0.8,0-1.5,0.8-1.5,1.7
				c0,0.8,0.7,1.7,1.5,1.7h1.2V322.7z"/>
		</g>
	</g>
	<path class="st3" d="M295.7,302.8h-12.1c-0.6,0-1.2,0.5-1.2,1.2v6.5c0,0.6,0.5,1.2,1.2,1.2h12.1c0.6,0,1.2-0.5,1.2-1.2v-6.5
		C296.9,303.3,296.3,302.8,295.7,302.8z"/>
	<circle class="st6" cx="277.3" cy="304.2" r="2.3"/>
	<g class="st15">
		<path class="st16" d="M291.3,307.2h-4c-0.6,0-1-0.6-1-1.1c0-0.6,0.4-1.1,1-1.1h4c0.6,0,1,0.6,1,1.1
			C292.3,306.7,291.8,307.2,291.3,307.2z"/>
	</g>
</g>
</svg>
