<?xml version="1.0" encoding="utf-8"?>
<!-- Generator: Adobe Illustrator 19.2.1, SVG Export Plug-In . SVG Version: 6.00 Build 0)  -->
<svg version="1.1" id="Layer_1" xmlns="http://www.w3.org/2000/svg" xmlns:xlink="http://www.w3.org/1999/xlink" x="0px" y="0px"
	 viewBox="0 0 305.5 202.8" style="enable-background:new 0 0 305.5 202.8;" xml:space="preserve">
<style type="text/css">
	.st0{fill:#5A6575;}
	.st1{fill:#FFFFFF;}
	.st2{fill:#8BCD3F;}
</style>
<g>
	<polygon class="st0" points="235.8,144.2 202,86.6 180.6,70.2 140.5,107.5 123,109.9 84.9,153 0,202.8 305.5,202.8 	"/>
	<path class="st1" d="M202,86.6l-19.6-15.1l3.4-65c0.9-0.6,1.6-1.6,1.6-2.8c0.1-1.9-1.4-3.6-3.3-3.7c-1.9-0.1-3.6,1.4-3.7,3.3
		c-0.1,1.2,0.5,2.3,1.3,2.9l-3.5,66l-37.8,35.2l-17.5,2.4l-22.9,25.9l36.7-13.9l29.8,8.7l25.7-23.6l25.3,6.2L202,86.6z"/>
	<polygon class="st2" points="185.8,6.5 184,40.8 242.9,26.7 	"/>
</g>
</svg>
