<?xml version="1.0" encoding="utf-8"?>
<!-- Generator: Adobe Illustrator 19.2.1, SVG Export Plug-In . SVG Version: 6.00 Build 0)  -->
<svg version="1.1" id="Layer_1" xmlns="http://www.w3.org/2000/svg" xmlns:xlink="http://www.w3.org/1999/xlink" x="0px" y="0px"
	 viewBox="0 0 1080 605.5" style="enable-background:new 0 0 1080 605.5;" xml:space="preserve">
<style type="text/css">
	.st0{fill:#FFFFFF;}
	.st1{fill:none;stroke:#FFFFFF;stroke-width:0.4;stroke-miterlimit:10;}
	.st2{fill:#8992A1;}
	.st3{clip-path:url(#SVGID_2_);}
	.st4{clip-path:url(#SVGID_4_);fill:#8992A1;}
	.st5{clip-path:url(#SVGID_6_);}
	.st6{clip-path:url(#SVGID_8_);fill:#8992A1;}
	.st7{clip-path:url(#SVGID_10_);}
	.st8{clip-path:url(#SVGID_12_);fill:#8992A1;}
	.st9{clip-path:url(#SVGID_14_);}
	.st10{clip-path:url(#SVGID_16_);fill:#8992A1;}
	.st11{clip-path:url(#SVGID_18_);}
	.st12{clip-path:url(#SVGID_20_);fill:#8992A1;}
	.st13{clip-path:url(#SVGID_22_);}
	.st14{clip-path:url(#SVGID_24_);fill:#8992A1;}
	.st15{clip-path:url(#SVGID_26_);}
	.st16{clip-path:url(#SVGID_28_);fill:#8992A1;}
	.st17{clip-path:url(#SVGID_30_);}
	.st18{clip-path:url(#SVGID_32_);fill:#8992A1;}
</style>
<g>
	<circle class="st0" cx="621.8" cy="77.5" r="2.6"/>
	<circle class="st0" cx="611.2" cy="536.4" r="2.6"/>
	<circle class="st0" cx="822.4" cy="442.5" r="2.6"/>
	<circle class="st0" cx="50.9" cy="372.8" r="2.6"/>
	<circle class="st0" cx="1057" cy="84.8" r="2.6"/>
	<circle class="st0" cx="982.9" cy="37" r="2.6"/>
	<circle class="st0" cx="147.7" cy="139.6" r="2.6"/>
	<path class="st0" d="M767.1,380.3c1.3-1,1.1-1.7-0.6-1.7h-3l-0.9-2.8c-0.5-1.5-1.3-1.5-1.8,0l-0.9,2.8h-3c-1.6,0-1.9,0.8-0.6,1.7
		l2.4,1.7l-0.9,2.8c-0.5,1.5,0.2,2,1.5,1.1l0,0l2.4-1.7l2.4,1.7c1.3,1,2,0.5,1.5-1.1l-0.9-2.8L767.1,380.3z"/>
	<path class="st0" d="M866.2,544.5c1.3-1,1.1-1.7-0.6-1.7h-3l-0.9-2.8c-0.5-1.5-1.3-1.5-1.8,0l-0.9,2.8h-3c-1.6,0-1.9,0.8-0.6,1.7
		l2.4,1.7L857,549c-0.5,1.5,0.2,2,1.5,1.1l0,0l2.4-1.7l2.4,1.7c1.3,1,2,0.5,1.5-1.1l-0.9-2.8L866.2,544.5z"/>
	<path class="st0" d="M905.6,188.5c1.3-1,1.1-1.7-0.6-1.7h-3l-0.9-2.8c-0.5-1.5-1.3-1.5-1.8,0l-0.9,2.8h-3c-1.6,0-1.9,0.8-0.6,1.7
		l2.4,1.7l-0.9,2.8c-0.5,1.5,0.2,2,1.5,1.1l0,0l2.4-1.7l2.4,1.7c1.3,1,2,0.5,1.5-1.1l-0.9-2.8L905.6,188.5z"/>
	<path class="st0" d="M797.4,338.2c1.3-1,1.1-1.7-0.6-1.7h-3l-0.9-2.8c-0.5-1.5-1.3-1.5-1.8,0l-0.9,2.8h-3c-1.6,0-1.9,0.8-0.6,1.7
		l2.4,1.7l-0.9,2.8c-0.5,1.5,0.2,2,1.5,1.1l0,0l2.4-1.7l2.4,1.7c1.3,1,2,0.5,1.5-1.1L795,340L797.4,338.2z"/>
	<path class="st0" d="M1079.2,193.2c1.3-1,1.1-1.7-0.6-1.7h-3l-0.9-2.8c-0.5-1.5-1.3-1.5-1.8,0l-0.9,2.8h-3c-1.6,0-1.9,0.8-0.6,1.7
		l2.4,1.7l-0.9,2.8c-0.5,1.5,0.2,2,1.5,1.1l0,0l2.4-1.7l2.4,1.7c1.3,1,2,0.5,1.5-1.1l-0.9-2.8L1079.2,193.2z"/>
	<path class="st0" d="M1074.2,370.6c1.3-1,1.1-1.7-0.6-1.7h-3l-0.9-2.8c-0.5-1.5-1.3-1.5-1.8,0l-0.9,2.8h-3c-1.6,0-1.9,0.8-0.6,1.7
		l2.4,1.7l-0.9,2.8c-0.5,1.5,0.2,2,1.5,1.1l0,0l2.4-1.7l2.4,1.7c1.3,1,2,0.5,1.5-1.1l-0.9-2.8L1074.2,370.6z"/>
	<path class="st0" d="M157.2,599.4c1.3-1,1.1-1.7-0.6-1.7h-3l-0.9-2.8c-0.5-1.5-1.3-1.5-1.8,0l-0.9,2.8h-3c-1.6,0-1.9,0.8-0.6,1.7
		l2.4,1.7l-0.9,2.8c-0.5,1.5,0.2,2,1.5,1.1l0,0l2.4-1.7l2.4,1.7c1.3,1,2,0.5,1.5-1.1l-0.9-2.8L157.2,599.4z"/>
	<path class="st0" d="M241.6,334c1.3-1,1.1-1.7-0.6-1.7h-3l-0.9-2.8c-0.5-1.5-1.3-1.5-1.8,0l-0.9,2.8h-3c-1.6,0-1.9,0.8-0.6,1.7
		l2.4,1.7l-0.9,2.8c-0.5,1.5,0.2,2,1.5,1.1l0,0l2.4-1.7l2.4,1.7c1.3,1,2,0.5,1.5-1.1l-0.9-2.8L241.6,334z"/>
	<path class="st0" d="M297.2,561.8c1.3-1,1.1-1.7-0.6-1.7h-3l-0.9-2.8c-0.5-1.5-1.3-1.5-1.8,0l-0.9,2.8h-3c-1.6,0-1.9,0.8-0.6,1.7
		l2.4,1.7l-0.9,2.8c-0.5,1.5,0.2,2,1.5,1.1l0,0l2.4-1.7l2.4,1.7c1.3,1,2,0.5,1.5-1.1l-0.9-2.8L297.2,561.8z"/>
	<path class="st0" d="M95.1,266.6c1.3-1,1.1-1.7-0.6-1.7h-3l-0.9-2.8c-0.5-1.5-1.3-1.5-1.8,0l-0.9,2.8h-3c-1.6,0-1.9,0.8-0.6,1.7
		l2.4,1.7l-0.9,2.8c-0.5,1.5,0.2,2,1.5,1.1l0,0l2.4-1.7l2.4,1.7c1.3,1,2,0.5,1.5-1.1l-0.9-2.8L95.1,266.6z"/>
	<path class="st0" d="M200.2,26.8c1.3-1,1.1-1.7-0.6-1.7h-3l-0.9-2.8c-0.5-1.5-1.3-1.5-1.8,0l-0.9,2.8h-3c-1.6,0-1.9,0.8-0.6,1.7
		l2.4,1.7l-0.9,2.8c-0.5,1.5,0.2,2,1.5,1.1l0,0l2.4-1.7l2.4,1.7c1.3,1,2,0.5,1.5-1.1l-0.9-2.8L200.2,26.8z"/>
	<path class="st0" d="M545.4,201.6h-4.9L539,197l0,0c-0.8-2.6-2.2-2.6-3,0l-1.5,4.7h-4.9c-2.7,0-3.1,1.3-0.9,2.9l4,2.9l-1.5,4.7v0
		c-0.8,2.6,0.3,3.4,2.5,1.8l0,0l4-2.9l4,2.9c2.2,1.6,3.3,0.8,2.5-1.8l-1.5-4.7l4-2.9v0C548.6,202.9,548.1,201.6,545.4,201.6z
		 M537.5,207.9c-1.4,0-2.6-1.2-2.6-2.6c0-1.4,1.2-2.6,2.6-2.6c1.4,0,2.6,1.2,2.6,2.6C540.1,206.7,538.9,207.9,537.5,207.9z"/>
	<path class="st0" d="M979.3,543.5h-4.9l-1.5-4.7c0,0,0,0,0,0c-0.8-2.6-2.2-2.6-3,0l-1.5,4.7h-4.9c-2.7,0-3.1,1.3-0.9,2.9l4,2.9
		l-1.5,4.7v0c-0.8,2.6,0.3,3.4,2.5,1.8l0,0l4-2.9l4,2.9c2.2,1.6,3.3,0.8,2.5-1.8l-1.5-4.7l4-2.9v0
		C982.4,544.8,982,543.5,979.3,543.5z M971.3,549.8c-1.4,0-2.6-1.2-2.6-2.6c0-1.4,1.2-2.6,2.6-2.6c1.4,0,2.6,1.2,2.6,2.6
		C973.9,548.6,972.7,549.8,971.3,549.8z"/>
	<path class="st0" d="M1018.7,200.5h-4.9l-1.5-4.7c0,0,0,0,0,0c-0.8-2.6-2.2-2.6-3,0l-1.5,4.7h-4.9c-2.7,0-3.1,1.3-0.9,2.9l4,2.9
		l-1.5,4.7v0c-0.8,2.6,0.3,3.4,2.5,1.8l0,0l4-2.9l4,2.9c2.2,1.6,3.3,0.8,2.5-1.8l-1.5-4.7l4-2.9v0
		C1021.8,201.8,1021.4,200.5,1018.7,200.5z M1010.7,206.7c-1.4,0-2.6-1.2-2.6-2.6c0-1.4,1.2-2.6,2.6-2.6c1.4,0,2.6,1.2,2.6,2.6
		C1013.3,205.5,1012.2,206.7,1010.7,206.7z"/>
	<path class="st0" d="M927.2,407.9h-4.9l-1.5-4.7l0,0c-0.8-2.6-2.2-2.6-3,0l-1.5,4.7h-4.9c-2.7,0-3.1,1.3-0.9,2.9l4,2.9l-1.5,4.7
		c0,0,0,0,0,0c-0.8,2.6,0.3,3.4,2.5,1.8l0,0l4-2.9l4,2.9c2.2,1.6,3.3,0.8,2.5-1.8l-1.5-4.7l4-2.9v0
		C930.3,409.2,929.9,407.9,927.2,407.9z M919.2,414.1c-1.4,0-2.6-1.2-2.6-2.6c0-1.4,1.2-2.6,2.6-2.6c1.4,0,2.6,1.2,2.6,2.6
		C921.8,413,920.6,414.1,919.2,414.1z"/>
	<path class="st0" d="M284.7,367h-4.9l-1.5-4.7l0,0c-0.8-2.6-2.2-2.6-3,0l-1.5,4.7h-4.9c-2.7,0-3.1,1.3-0.9,2.9l4,2.9l-1.5,4.7v0
		c-0.8,2.6,0.3,3.4,2.5,1.8l0,0l4-2.9l4,2.9c2.2,1.6,3.3,0.8,2.5-1.8l-1.5-4.7l4-2.9v0C287.9,368.3,287.4,367,284.7,367z
		 M276.8,373.2c-1.4,0-2.6-1.2-2.6-2.6c0-1.4,1.2-2.6,2.6-2.6c1.4,0,2.6,1.2,2.6,2.6C279.3,372.1,278.2,373.2,276.8,373.2z"/>
	<path class="st0" d="M338.2,6.6h-4.9l-1.5-4.7l0,0c-0.8-2.6-2.2-2.6-3,0l-1.5,4.7h-4.9c-2.7,0-3.1,1.3-0.9,2.9l4,2.9l-1.5,4.7v0
		c-0.8,2.6,0.3,3.4,2.5,1.8l0,0l4-2.9l4,2.9c2.2,1.6,3.3,0.8,2.5-1.8l-1.5-4.7l4-2.9v0C341.3,7.9,340.9,6.6,338.2,6.6z M330.2,12.9
		c-1.4,0-2.6-1.2-2.6-2.6c0-1.4,1.2-2.6,2.6-2.6c1.4,0,2.6,1.2,2.6,2.6C332.8,11.7,331.6,12.9,330.2,12.9z"/>
	<path class="st0" d="M953.3,30.8l-2.4-2.6l2.4-2.6c1.3-1.4,0.9-2.2-1-1.8l0,0l-3.5,0.8l-1-3.4v0c-0.6-1.9-1.5-1.9-2.1,0l-1,3.4
		l-3.5-0.8h0c-1.9-0.4-2.4,0.4-1,1.8l0,0l2.4,2.6l-2.4,2.6l0,0c-1.3,1.4-0.9,2.2,1,1.8h0l3.5-0.8l1,3.4c0.6,1.9,1.5,1.9,2.1,0l1-3.4
		l3.5,0.8l0,0C954.1,33,954.6,32.2,953.3,30.8z"/>
	<path class="st0" d="M569.1,403.8l-2.4-2.6l2.4-2.6c1.3-1.4,0.9-2.2-1-1.8l0,0l-3.5,0.8l-1-3.4v0c-0.6-1.9-1.5-1.9-2.1,0l-1,3.4
		l-3.5-0.8h0c-1.9-0.4-2.4,0.4-1,1.8l0,0l2.4,2.6l-2.4,2.6l0,0c-1.3,1.4-0.9,2.2,1,1.8h0l3.5-0.8l1,3.4c0.6,1.9,1.5,1.9,2.1,0l1-3.4
		l3.5,0.8l0,0C570,406,570.4,405.2,569.1,403.8z"/>
	<path class="st0" d="M244.7,443.8l-2.4-2.6l2.4-2.6c1.3-1.4,0.9-2.2-1-1.8l0,0l-3.5,0.8l-1-3.4v0c-0.6-1.9-1.5-1.9-2.1,0l-1,3.4
		l-3.5-0.8h0c-1.9-0.4-2.4,0.4-1,1.8l0,0l2.4,2.6l-2.4,2.6l0,0c-1.3,1.4-0.9,2.2,1,1.8h0l3.5-0.8l1,3.4c0.6,1.9,1.5,1.9,2.1,0l1-3.4
		l3.5,0.8l0,0C245.6,446.1,246,445.3,244.7,443.8z"/>
	<path class="st0" d="M934.1,561.3l-2.4-2.6l2.4-2.6c1.3-1.4,0.9-2.2-1-1.8l0,0l-3.5,0.8l-1-3.4v0c-0.6-1.9-1.5-1.9-2.1,0l-1,3.4
		l-3.5-0.8h0c-1.9-0.4-2.4,0.4-1,1.8l0,0l2.4,2.6l-2.4,2.6l0,0c-1.3,1.4-0.9,2.2,1,1.8h0l3.5-0.8l1,3.4c0.6,1.9,1.5,1.9,2.1,0l1-3.4
		l3.5,0.8l0,0C934.9,563.6,935.4,562.7,934.1,561.3z"/>
	<path class="st0" d="M823.1,518.2l-2.4-2.6l2.4-2.6c1.3-1.4,0.9-2.2-1-1.8l0,0l-3.5,0.8l-1-3.4v0c-0.6-1.9-1.5-1.9-2.1,0l-1,3.4
		l-3.5-0.8h0c-1.9-0.4-2.4,0.4-1,1.8l0,0l2.4,2.6l-2.4,2.6l0,0c-1.3,1.4-0.9,2.2,1,1.8h0l3.5-0.8l1,3.4c0.6,1.9,1.5,1.9,2.1,0l1-3.4
		l3.5,0.8l0,0C824,520.5,824.5,519.7,823.1,518.2z"/>
	<path class="st0" d="M847.8,156.5l-2.4-2.6l2.4-2.6c1.3-1.4,0.9-2.2-1-1.8l0,0l-3.5,0.8l-1-3.4v0c-0.6-1.9-1.5-1.9-2.1,0l-1,3.4
		l-3.5-0.8h0c-1.9-0.4-2.4,0.4-1,1.8l0,0l2.4,2.6l-2.4,2.6l0,0c-1.3,1.4-0.9,2.2,1,1.8h0l3.5-0.8l1,3.4c0.6,1.9,1.5,1.9,2.1,0l1-3.4
		l3.5,0.8l0,0C848.7,158.7,849.2,157.9,847.8,156.5z"/>
	<path class="st0" d="M359.7,328.4l-2.4-2.6l2.4-2.6c1.3-1.4,0.9-2.2-1-1.8l0,0l-3.5,0.8l-1-3.4v0c-0.6-1.9-1.5-1.9-2.1,0l-1,3.4
		l-3.5-0.8h0c-1.9-0.4-2.4,0.4-1,1.8l0,0l2.4,2.6l-2.4,2.6l0,0c-1.3,1.4-0.9,2.2,1,1.8h0l3.5-0.8l1,3.4c0.6,1.9,1.5,1.9,2.1,0l1-3.4
		l3.5,0.8l0,0C360.6,330.6,361,329.8,359.7,328.4z"/>
	<path class="st0" d="M13.9,160.6l-2.4-2.6l2.4-2.6c1.3-1.4,0.9-2.2-1-1.8l0,0l-3.5,0.8l-1-3.4v0c-0.6-1.9-1.5-1.9-2.1,0l-1,3.4
		l-3.5-0.8h0c-1.9-0.4-2.4,0.4-1,1.8l0,0l2.4,2.6l-2.4,2.6l0,0c-1.3,1.4-0.9,2.2,1,1.8h0l3.5-0.8l1,3.4c0.6,1.9,1.5,1.9,2.1,0l1-3.4
		l3.5,0.8l0,0C14.8,162.9,15.3,162,13.9,160.6z"/>
	<path class="st0" d="M676.1,43.4l-6.3-1.6l3-5l0.3-0.6c1.5-2.4,0.7-3.2-1.8-1.8l-1.1,0.7l-4.4,2.7l-1.2-5l-0.2-0.6l-0.2-0.6
		c-0.7-2.8-1.8-2.8-2.5,0l-0.3,1.3l0,0l-1.2,5l-4.4-2.7l-1.1-0.7c-2.4-1.5-3.2-0.7-1.8,1.8l0.3,0.6l3,5l-6.3,1.6
		c-2.8,0.7-2.8,1.8,0,2.5l6.3,1.6l-3,5L653,53c-1.5,2.4-0.7,3.2,1.8,1.8l0.6-0.3l0.6-0.3l4.4-2.7l1.2,5l0,0l0.3,1.3
		c0.7,2.8,1.8,2.8,2.5,0l0.2-0.6l0.2-0.6l1.2-5l4.4,2.7l0.6,0.3l0.6,0.3c2.4,1.5,3.2,0.7,1.8-1.8l-0.3-0.6l-3-5l6.3-1.6
		C678.8,45.2,678.8,44.1,676.1,43.4z M663.1,48.5c-2.1,0-3.9-1.7-3.9-3.9c0-2.1,1.7-3.9,3.9-3.9c2.1,0,3.9,1.7,3.9,3.9
		C666.9,46.8,665.2,48.5,663.1,48.5z"/>
	<path class="st1" d="M242.6,89.3"/>
	<path class="st2" d="M243.8,431.9l-2.8-1.3c5.5-12.1,13.7-26.6,19.7-37.3c2.3-4.1,4.4-7.7,5.8-10.5l2.7,1.5
		c-1.5,2.8-3.5,6.4-5.9,10.5C257.4,405.5,249.2,420,243.8,431.9z"/>
	<path class="st2" d="M251.1,436.2l-2-2.3c29-25.4,75.3-73.5,95.2-99.1l2.4,1.9C326.6,362.4,280.2,410.7,251.1,436.2z"/>
	<path class="st2" d="M285.6,553.3c-9.5-34.7-30.1-75.1-41.2-96.9l-2.5-4.9l2.8-1.4l2.5,4.9c11.1,21.8,31.9,62.5,41.4,97.5
		L285.6,553.3z"/>
	<path class="st2" d="M157.2,589.8l-3-0.9c12.2-39.6,53.1-106,75.3-138.9l2.6,1.7C209.9,484.5,169.3,550.5,157.2,589.8z"/>
	<path class="st2" d="M233.2,428.9c-1.9-25.8-3.1-63.6,0-85l3.1,0.4c-3.1,21.2-1.9,58.7,0,84.3L233.2,428.9z"/>
	<path class="st2" d="M891.7,183.1c-10.6-9.1-22.3-16.8-39.1-25.6l1.4-2.7c17,8.9,28.9,16.7,39.6,26L891.7,183.1z"/>
	<path class="st2" d="M995.8,204c-24.2-6.7-60.8-12.6-85.2-13.6l0.1-3.1c24.6,1,61.5,7,85.9,13.8L995.8,204z"/>
	<path class="st2" d="M1025.7,202.6l-1-2.9c10.7-3.5,24.8-6.3,38.7-7.5l0.3,3.1C1050,196.4,1036.2,199.1,1025.7,202.6z"/>
	<path class="st2" d="M1071.8,359.3l-3.1-0.2c3-41.2,4.3-98.8,3.6-153.9l3.1,0C1076.1,260.3,1074.8,318,1071.8,359.3z"/>
	<path class="st2" d="M933.2,414.4l-0.4-3.1c54.7-7.7,96-18.4,126.2-32.8l1.3,2.8C1029.8,395.9,988.2,406.7,933.2,414.4z"/>
	<path class="st2" d="M794.9,326.5l-3-0.6c10.8-51.2,28.4-116.2,41.3-161.6l3,0.8C823.2,210.5,805.6,275.4,794.9,326.5z"/>
	<path class="st2" d="M902.1,410.4c-44.7-15.6-76.1-33.5-104.9-59.9l2.1-2.3c28.9,26.5,58.9,43.7,103.9,59.3L902.1,410.4z"/>
	<path class="st2" d="M965.4,534c-9-26.4-21.2-57.6-31.9-85.2c-3-7.6-5.8-15-8.5-22l2.9-1.1c2.7,7,5.6,14.4,8.5,22
		c10.7,27.6,22.8,58.9,31.9,85.3L965.4,534z"/>
	<path class="st2" d="M922.4,544.8l-0.4-6.5c-1.9-32.9-4-70.1-4.3-110.7l3.1,0c0.3,40.5,2.4,77.7,4.3,110.5l0.4,6.5L922.4,544.8z"/>
	<path class="st2" d="M868.7,538.3l-2.8-1.3c14.9-33.7,30.4-73,43.6-110.6l2.9,1C899.2,465.1,883.7,504.5,868.7,538.3z"/>
	<path class="st2" d="M829.4,509.7l-2.3-2.1c4-4.3,8.1-8.7,12.2-13.1c21.7-23.3,44.2-47.4,65.8-73l2.4,2
		c-21.6,25.7-44.1,49.8-65.9,73.2C837.5,501,833.4,505.4,829.4,509.7z"/>
	<path class="st2" d="M828.7,443.6l-0.8-3c25.1-6.5,50.4-15.3,71.8-23.1l1.1,2.9C879.3,428.2,853.9,437.1,828.7,443.6z"/>
	
		<rect x="791.3" y="378.5" transform="matrix(0.7334 -0.6798 0.6798 0.7334 -69.5649 649.2086)" class="st2" width="3.1" height="69.5"/>
	<path class="st2" d="M81.3,260.2C60.4,233.7,43.4,211,25.4,187l-14.1-18.8l2.5-1.9l14.1,18.8c18,24,35,46.7,55.9,73.2L81.3,260.2z"
		/>
	<path class="st2" d="M96.2,259l-2.8-1.4c17.4-35.8,35.5-76,49.7-110.4l2.9,1.2C131.8,182.8,113.6,223.2,96.2,259z"/>
	<path class="st2" d="M20.7,156.7l-0.6-3c40.4-7.6,100.2-13.8,117.6-15.6l0.3,3.1C120.7,142.9,61,149.1,20.7,156.7z"/>
	<path class="st2" d="M152.7,130.8l-2.9-1.1c12.3-33.1,24.6-62.9,37.5-91L190,40C177.2,68,165,97.7,152.7,130.8z"/>
	<path class="st2" d="M206.5,26.6l-0.5-3c37.9-6.7,79.8-12.6,109.2-15.3l0.3,3.1C286.1,14.1,244.3,19.9,206.5,26.6z"/>
	<path class="st2" d="M662.4,313.3h-2.8v-30.8h9.4c7.7,0,10.3,4.4,10.3,9.3s-2.6,9.3-10.3,9.3h-6.6L662.4,313.3L662.4,313.3z
		 M662.4,298.4h7c5.8,0,6.9-3.7,6.9-6.7s-1.1-6.7-6.9-6.7h-7V298.4z M689.6,294.9c-2.8,0-4.6,0.5-6.2,1v-2.5
		c1.8-0.8,4.2-1.1,6.2-1.1c6.2,0,7.8,2.8,7.8,6.9v14.1h-1.6l-0.6-1.6c-1.8,1.4-4.2,2.1-6.2,2.1c-5.4,0-7.2-3.2-7.2-6.6
		c0-3.5,1.9-6.1,7.3-6.4l5.4-0.3v-1.2C694.4,296.2,693.4,294.9,689.6,294.9z M688.8,302.9c-2.9,0.3-4.2,1.8-4.2,4.2
		c0,1.8,0.5,4.1,4.4,4.1c2.2,0,3.7-0.6,5.5-1.6v-7.2L688.8,302.9z M706.4,307.6c-0.5,0.5-0.8,1-0.8,1.5c0,1,0.5,1.5,1.6,1.6l7,0.8
		c3.9,0.4,5.6,1.9,5.6,5.5c0,5-5,7-10.7,7c-5.8,0-9.2-1.7-9.2-6.2c0-2.8,1.9-4.6,4.2-5.4v0c-0.8-0.5-1.3-1.4-1.3-2.7
		c0-1.1,0.7-2.1,1.6-2.8c-2.5-1.4-3.3-3.9-3.3-6.7c0-4.2,1.8-7.7,8-7.7c1.3,0,2.3,0.2,3.3,0.4h7v1.6l-3.5,1c0.9,1.3,1.2,3,1.2,4.8
		c0,4.2-1.8,7.7-8,7.7C708.1,307.8,707.2,307.7,706.4,307.6z M707.6,313.1c-2.7,0.6-5,1.9-5,4.5c0,3,2.3,3.9,6.5,3.9
		c4.1,0,8-1,8-4.5c0-2.1-1-2.9-3.5-3.2L707.6,313.1z M714.4,300.1c0-2.7-0.5-5.2-5.3-5.2s-5.3,2.5-5.3,5.2s0.5,5.2,5.3,5.2
		C713.9,305.3,714.4,302.8,714.4,300.1z M729.9,292.4c7,0,7.8,4.8,7.8,10.7v1.3h-13.6c0.2,3.6,1.1,6.8,5.8,6.8c3,0,4.8-0.3,6.8-1.2
		v2.5c-2.3,1-4.8,1.2-6.8,1.2c-6.9,0-8.6-4.8-8.6-10.7S722.9,292.4,729.9,292.4z M724.1,302h10.7c0-3.7-0.2-7.1-4.9-7.1
		C725.1,294.9,724.2,298.3,724.1,302z M748.7,301.5c5.8,0.5,7.2,2.5,7.2,5.9c0,3.2-2,6.3-8.3,6.3c-2,0-4.8-0.5-6.1-1v-2.5
		c1.3,0.5,3.2,0.9,6.2,0.9c4.3,0,5.4-1.8,5.4-3.7c0-1.9-0.6-3.2-4.6-3.5c-6-0.5-7.2-2.6-7.2-5.5c0-2.9,1.9-6.1,7.7-6.1
		c1.9,0,4.1,0.2,5.9,1v2.5c-1.6-0.5-3.2-0.9-6-0.9c-4.1,0-4.9,1.5-4.9,3.5C744,300.3,744.7,301.2,748.7,301.5z M552.5,295.3h-10.1
		c-0.3,0-0.5,0.2-0.5,0.5v4.9c0,0.3,0.2,0.5,0.5,0.5h3.9v6.1c0,0-0.9,0.3-3.3,0.3c-2.9,0-6.9-1.1-6.9-9.9c0-8.8,4.2-10,8.1-10
		c3.4,0,4.9,0.6,5.8,0.9c0.3,0.1,0.6-0.2,0.6-0.5l1.1-4.8c0-0.1,0-0.3-0.2-0.4c-0.4-0.3-2.7-1.6-8.5-1.6c-6.7,0-13.6,2.9-13.6,16.6
		c0,13.8,7.9,15.8,14.6,15.8c5.5,0,8.9-2.4,8.9-2.4c0.1-0.1,0.2-0.3,0.2-0.4v-15.4C553,295.5,552.8,295.3,552.5,295.3z M604.8,283.1
		c0-0.3-0.2-0.5-0.5-0.5h-5.7c-0.3,0-0.5,0.2-0.5,0.5l0,11h-8.8v-11c0-0.3-0.2-0.5-0.5-0.5h-5.7c-0.3,0-0.5,0.2-0.5,0.5v29.7
		c0,0.3,0.2,0.5,0.5,0.5h5.7c0.3,0,0.5-0.2,0.5-0.5v-12.7h8.8c0,0,0,12.7,0,12.7c0,0.3,0.2,0.5,0.5,0.5h5.7c0.3,0,0.5-0.2,0.5-0.5
		V283.1z M563.4,287c0-2-1.6-3.7-3.7-3.7c-2,0-3.7,1.6-3.7,3.7c0,2,1.6,3.7,3.7,3.7C561.8,290.7,563.4,289,563.4,287z M563,306.5
		c0-0.8,0-13.7,0-13.7c0-0.3-0.2-0.5-0.5-0.5h-5.7c-0.3,0-0.5,0.3-0.5,0.5c0,0,0,16.5,0,19.6c0,0.6,0.4,0.7,0.8,0.7c0,0,2.4,0,5.1,0
		c0.6,0,0.7-0.3,0.7-0.8C563,311.4,563,307.3,563,306.5z M626.8,292.4h-5.6c-0.3,0-0.5,0.2-0.5,0.5v14.5c0,0-1.4,1-3.5,1
		s-2.6-0.9-2.6-2.9s0-12.7,0-12.7c0-0.3-0.2-0.5-0.5-0.5h-5.7c-0.3,0-0.5,0.2-0.5,0.5c0,0,0,7.7,0,13.6c0,5.9,3.3,7.4,7.8,7.4
		c3.7,0,6.7-2,6.7-2s0.1,1.1,0.2,1.2c0.1,0.1,0.2,0.3,0.4,0.3l3.6,0c0.3,0,0.5-0.2,0.5-0.5l0-19.9
		C627.3,292.6,627.1,292.4,626.8,292.4z M642.5,291.7c-3.2,0-5.4,1.4-5.4,1.4v-10c0-0.3-0.2-0.5-0.5-0.5H631c-0.3,0-0.5,0.2-0.5,0.5
		v29.7c0,0.3,0.2,0.5,0.5,0.5h3.9c0.2,0,0.3-0.1,0.4-0.3c0.1-0.2,0.2-1.4,0.2-1.4s2.3,2.2,6.7,2.2c5.2,0,8.1-2.6,8.1-11.8
		C650.5,292.9,645.7,291.7,642.5,291.7z M640.3,308.4c-2-0.1-3.3-0.9-3.3-0.9v-9.4c0,0,1.3-0.8,2.9-0.9c2-0.2,4,0.4,4,5.3
		C643.9,307.5,643,308.5,640.3,308.4z M579.2,292.3H575l0-5.6c0-0.2-0.1-0.3-0.4-0.3h-5.8c-0.2,0-0.3,0.1-0.3,0.3v5.8
		c0,0-2.9,0.7-3.1,0.8c-0.2,0.1-0.3,0.2-0.3,0.5v3.6c0,0.3,0.2,0.5,0.5,0.5h3c0,0,0,3.8,0,8.8c0,6.5,4.6,7.2,7.7,7.2
		c1.4,0,3.1-0.5,3.4-0.6c0.2-0.1,0.3-0.2,0.3-0.4l0-4c0-0.3-0.2-0.5-0.5-0.5c-0.2,0-0.9,0.1-1.5,0.1c-2.1,0-2.8-1-2.8-2.2
		c0-1.3,0-8.3,0-8.3h4.3c0.3,0,0.5-0.2,0.5-0.5v-4.6C579.7,292.6,579.5,292.3,579.2,292.3z"/>
	<g>
		<g>
			<defs>
				<path id="SVGID_1_" d="M307.5,160.1v0.9c0,1.7,0.1,3.1-0.7,4.5c-0.7,1.2-1.7,1.9-2.8,1.9c-1.6,0-2.5-1.3-2.5-3.1
					C301.4,160.7,304.5,160.1,307.5,160.1z M253.6,160.1v0.9c0,1.7,0.1,3.1-0.7,4.5c-0.7,1.2-1.7,1.9-2.8,1.9
					c-1.6,0-2.5-1.3-2.5-3.1C247.5,160.7,250.7,160.1,253.6,160.1z M345,152.1c1.3,0,2.3,0.6,2.7,2.1c0.5,1.8,0.6,3.9,0.6,5.8
					c0,2.8-0.1,7.5-3.3,7.5c-3.2,0-3.2-5.8-3.2-8.4C341.8,156.3,341.9,152.1,345,152.1z M319,148c-0.4,0-0.7,0.3-0.7,0.8v3.1
					c0,0.5,0.3,0.8,0.7,0.8h7.1l-8.1,12.1c-0.5,0.8-0.5,1.7-0.5,2.2v3.2c0,0.5,0.5,1,1,0.7c4.6-2.5,10.1-2.3,14.3-0.1
					c0.5,0.3,1-0.2,1-0.7v-3.4c0-0.4-0.2-0.9-0.7-1.2c-2.4-1.4-5.1-1.8-7.7-1.7l7-10.4c0.6-0.9,1-1.5,1-1.9v-2.7
					c0-0.5-0.3-0.8-0.7-0.8H319z M368.4,147.6c-2.8,0-4.5,1.4-5.6,4.4h-0.1v-3.4c-0.1-0.3-0.4-0.6-0.7-0.6h-3.8
					c-0.4,0-0.8,0.3-0.8,0.7v21.9c0,0.4,0.3,0.8,0.7,0.8h4.1c0.4,0,0.8-0.4,0.8-0.8v-11.8c0-1.5,0.1-2.8,0.7-4.2
					c0.5-1.1,1.4-1.7,2.4-1.7c2.8,0,2.6,3.5,2.6,5.9v11.9c0,0.4,0.4,0.7,0.7,0.7h4.1c0.4,0,0.8-0.3,0.8-0.7V157c0-2.1,0-5.1-1.1-6.8
					C372.1,148.3,370.3,147.6,368.4,147.6z M345,147.6c-5.9,0-9.2,5.3-9.2,12.1c0,6.8,3.3,12.2,9.2,12.2c5.8,0,9.4-5.3,9.4-12
					C354.4,153,351.1,147.6,345,147.6z M275,147.6c-2.5,0-4.4,1.3-5.4,4.1h-0.1v-2.9c0-0.4-0.3-0.7-0.7-0.8H265
					c-0.4,0-0.8,0.4-0.8,0.8v21.9c0,0.4,0.4,0.7,0.7,0.8h4.1c0.4,0,0.8-0.4,0.8-0.8V159c0-2.5-0.1-6,2.8-6c2.9,0,2.5,3.6,2.5,6v11.6
					c0,0.4,0.3,0.8,0.7,0.8h4.1c0.4,0,0.8-0.4,0.8-0.8V159c0-1.2-0.1-3.1,0.4-4.2c0.4-1.1,1.5-1.8,2.5-1.8c1.2,0,2.1,0.4,2.4,1.9
					c0.2,0.9,0.1,3.2,0.1,4.1v11.6c0,0.4,0.3,0.8,0.7,0.8h4.1c0.4,0,0.8-0.4,0.8-0.8v-13.8c0-2.4,0.2-5-1.1-6.9
					c-1.2-1.7-3-2.4-4.8-2.4c-2.4,0-4.7,1.3-5.7,4.1C279.2,148.9,277.6,147.6,275,147.6z M305.3,147.4c-3.9,0-8.3,1.5-9.2,6.5
					c-0.1,0.5,0.2,0.8,0.6,0.9l4,0.5c0.4,0,0.6-0.4,0.7-0.8c0.3-1.7,1.7-2.5,3.3-2.5c0.8,0,1.8,0.3,2.3,1.1c0.6,0.9,0.5,2.1,0.5,3.1
					v0.6c-2.4,0.3-5.5,0.4-7.7,1.5c-2.6,1.2-4.4,3.5-4.4,7c0,4.4,2.7,6.7,6.1,6.7c2.9,0,4.5-0.7,6.8-3.1c0.7,1.1,1,1.6,2.4,2.8
					c0.3,0.2,0.7,0.1,1-0.1v0.1c0.8-0.8,2.3-2.1,3.2-2.9c0.3-0.3,0.3-0.7,0-1.1c-0.8-1.1-1.5-1.9-1.5-3.9v-6.7
					c0-2.8,0.2-5.4-1.8-7.4C309.9,147.9,307.3,147.4,305.3,147.4z M251.4,147.4c-3.9,0-8.3,1.5-9.2,6.5c-0.1,0.5,0.3,0.8,0.6,0.9
					l4,0.5c0.4,0,0.6-0.4,0.7-0.8c0.3-1.7,1.7-2.5,3.3-2.5c0.8,0,1.8,0.3,2.3,1.1c0.6,0.9,0.5,2.1,0.5,3.1v0.6
					c-2.4,0.3-5.5,0.4-7.7,1.5c-2.6,1.2-4.4,3.5-4.4,7c0,4.4,2.7,6.7,6.1,6.7c2.9,0,4.5-0.7,6.8-3.1c0.7,1.1,1,1.6,2.4,2.8
					c0.3,0.2,0.7,0.1,1-0.1v0.1c0.8-0.8,2.3-2.1,3.2-2.9c0.3-0.3,0.3-0.7,0-1.1c-0.8-1.1-1.5-1.9-1.5-3.9v-6.7
					c0-2.8,0.2-5.4-1.8-7.4C256.1,147.9,253.4,147.4,251.4,147.4z"/>
			</defs>
			<use xlink:href="#SVGID_1_"  style="overflow:visible;fill-rule:evenodd;clip-rule:evenodd;fill:#8992A1;"/>
			<clipPath id="SVGID_2_">
				<use xlink:href="#SVGID_1_"  style="overflow:visible;"/>
			</clipPath>
			<g class="st3">
				<defs>
					<rect id="SVGID_3_" x="-186.3" y="-6084.2" width="1465.9" height="9293.4"/>
				</defs>
				<use xlink:href="#SVGID_3_"  style="overflow:visible;fill:#8992A1;"/>
				<clipPath id="SVGID_4_">
					<use xlink:href="#SVGID_3_"  style="overflow:visible;"/>
				</clipPath>
				<rect x="235.8" y="141.6" class="st4" width="144.2" height="36"/>
			</g>
		</g>
		<g>
			<defs>
				<path id="SVGID_5_" d="M280,180.8c0.9,0,1.7,0.5,2.4,1.5c0.6,1,0.9,2.5,0.9,4.7c0,2.1-0.3,3.6-1,4.7s-1.4,1.6-2.3,1.6
					c-0.6,0-1.2-0.2-1.7-0.6c-0.5-0.4-0.9-1.1-1.2-1.9c-0.3-0.8-0.4-2.1-0.4-3.8c0-2,0.3-3.4,1-4.5
					C278.3,181.3,279.1,180.8,280,180.8z M266.7,180.8c1,0,1.8,0.5,2.5,1.5c0.5,0.7,0.8,1.7,0.9,3.1h-6.8c0.1-1.4,0.4-2.6,1.1-3.4
					C265,181.2,265.8,180.8,266.7,180.8z M357.4,180.2c1,0,1.9,0.5,2.6,1.5c0.5,0.7,0.8,1.7,0.9,3.1h-6.9c0.1-1.4,0.5-2.5,1.1-3.4
					C355.7,180.7,356.5,180.2,357.4,180.2z M307.3,180.2c1,0,1.9,0.5,2.6,1.5c0.5,0.7,0.8,1.7,0.9,3.1h-6.9c0.1-1.4,0.5-2.5,1.1-3.4
					C305.6,180.7,306.4,180.2,307.3,180.2z M243.3,178.9l3.7,16.2h2.2l2.5-12.4l0.4,2.8l2,9.7h2.1l3.8-16.2h-2l-2.1,9.4l-0.7,3.1
					l-0.6-3.1l-1.8-9.4h-2.1l-1.9,9.5l-0.6,3.4l-0.7-3.5l-1.9-9.4H243.3z M266.7,178.5c-1.7,0-3,0.8-4.1,2.2
					c-1.1,1.5-1.7,3.6-1.7,6.4c0,2.7,0.5,4.7,1.6,6.2c1.1,1.4,2.5,2.2,4.2,2.2c1.4,0,2.5-0.5,3.4-1.4c0.9-0.9,1.6-2.2,1.9-3.9
					l-2.1-0.3c-0.6,2.2-1.7,3.3-3.3,3.3c-1,0-1.8-0.4-2.5-1.4c-0.7-0.9-1.1-2.3-1.2-4.1h9.1l0.1-0.8c0-2.7-0.5-4.8-1.6-6.3
					C269.6,179.2,268.3,178.5,266.7,178.5z M335.2,178.3v16.2h2.1v-16.2H335.2z M322.1,178.3l4.6,16.2h2l4.6-16.2h-2.1l-2.7,9.9
					c-0.3,1.2-0.6,2.2-0.8,3.1c-0.2-1.1-0.4-2.2-0.7-3.3l-2.7-9.7H322.1z M369.8,178c-1.5,0-2.6,0.4-3.4,1.3c-0.8,0.9-1.2,2-1.2,3.4
					c0,0.8,0.1,1.5,0.4,2.1c0.3,0.6,0.7,1.1,1.3,1.5c0.5,0.4,1.6,0.9,3.3,1.4c1.1,0.4,1.8,0.7,2.1,0.9c0.4,0.4,0.6,0.8,0.6,1.5
					c0,0.7-0.3,1.4-0.7,1.8c-0.5,0.5-1.2,0.7-2.1,0.7c-0.9,0-1.6-0.3-2.2-0.8c-0.5-0.6-0.9-1.4-1-2.5l-2.1,0.4
					c0.5,3.5,2.2,5.2,5.1,5.2c1.6,0,2.8-0.5,3.7-1.4c0.9-1,1.4-2.2,1.4-3.8c0-0.8-0.1-1.6-0.4-2.2c-0.3-0.6-0.7-1.1-1.2-1.4
					c-0.5-0.3-1.6-0.8-3.3-1.4c-1.3-0.4-2-0.8-2.3-1c-0.4-0.3-0.6-0.8-0.6-1.4c0-0.6,0.3-1.1,0.7-1.5c0.4-0.4,1.1-0.6,2-0.6
					c1.6,0,2.5,0.9,2.7,2.7l2-0.3c-0.1-1.1-0.4-2-0.7-2.6c-0.4-0.6-0.9-1.1-1.6-1.5C371.5,178.1,370.7,178,369.8,178z M357.5,178
					c-1.7,0-3.1,0.7-4.2,2.2c-1.1,1.5-1.6,3.6-1.6,6.4c0,2.7,0.5,4.8,1.6,6.2c1.1,1.4,2.5,2.1,4.2,2.1c1.4,0,2.5-0.4,3.5-1.3
					c0.9-0.9,1.6-2.2,2-3.9l-2.1-0.4c-0.6,2.2-1.7,3.3-3.3,3.3c-1,0-1.9-0.4-2.6-1.4c-0.7-0.9-1.1-2.3-1.2-4.1h9.2v-0.8
					c0-2.7-0.5-4.8-1.6-6.2C360.4,178.7,359.1,178,357.5,178z M345.5,178c-1.7,0-3,0.7-4.1,2.1c-1.1,1.4-1.6,3.5-1.6,6.3
					c0,2.8,0.6,4.9,1.6,6.3c1,1.4,2.3,2.1,4,2.1c1.3,0,2.5-0.5,3.4-1.5c0.9-1,1.5-2.5,1.8-4.4l-2-0.3c-0.2,1.4-0.5,2.4-1.1,3
					c-0.6,0.7-1.2,1-2,1c-1,0-1.9-0.5-2.5-1.5c-0.6-1-1-2.6-1-4.8c0-2.1,0.3-3.7,1-4.7c0.7-1,1.5-1.5,2.6-1.5c0.7,0,1.3,0.3,1.8,0.8
					c0.5,0.5,0.8,1.4,1,2.5l2-0.4c-0.2-1.7-0.8-3-1.7-3.8C347.9,178.4,346.8,178,345.5,178z M320,178c-0.5,0-0.9,0.2-1.3,0.5
					c-0.4,0.4-0.9,1.1-1.3,2.3v-2.5h-1.9v16.2h2.1V186c0-1.2,0.1-2.3,0.4-3.4c0.2-0.6,0.4-1.1,0.8-1.4c0.4-0.3,0.8-0.5,1.2-0.5
					c0.5,0,1,0.2,1.5,0.6l0.7-2.5C321.4,178.3,320.7,178,320,178z M307.3,178c-1.7,0-3.1,0.7-4.2,2.2c-1.1,1.5-1.6,3.6-1.6,6.4
					c0,2.7,0.5,4.8,1.6,6.2c1.1,1.4,2.5,2.1,4.2,2.1c1.4,0,2.5-0.4,3.5-1.3c0.9-0.9,1.6-2.2,2-3.9l-2.1-0.4
					c-0.6,2.2-1.7,3.3-3.3,3.3c-1,0-1.8-0.4-2.5-1.4c-0.7-0.9-1.1-2.3-1.2-4.1h9.2v-0.8c0-2.7-0.5-4.8-1.6-6.2
					C310.2,178.7,308.9,178,307.3,178z M294.6,178c-1.5,0-2.6,0.4-3.4,1.3c-0.8,0.9-1.2,2-1.2,3.4c0,0.8,0.2,1.5,0.5,2.1
					s0.7,1.1,1.3,1.5c0.5,0.4,1.6,0.9,3.3,1.4c1.1,0.4,1.8,0.7,2.1,0.9c0.4,0.4,0.6,0.8,0.6,1.5c0,0.7-0.3,1.4-0.7,1.8
					c-0.5,0.5-1.2,0.7-2.1,0.7s-1.6-0.3-2.2-0.8s-0.8-1.4-1-2.5l-2.1,0.4c0.5,3.5,2.2,5.2,5.1,5.2c1.6,0,2.8-0.5,3.7-1.4
					c0.9-1,1.4-2.2,1.4-3.8c0-0.8-0.1-1.6-0.4-2.2c-0.3-0.6-0.7-1.1-1.2-1.4c-0.5-0.3-1.6-0.8-3.4-1.4c-1.3-0.4-2-0.8-2.2-1
					c-0.4-0.3-0.6-0.8-0.6-1.4c0-0.6,0.2-1.1,0.6-1.5c0.4-0.4,1.1-0.6,2-0.6c1.6,0,2.5,0.9,2.7,2.7l2-0.3c-0.1-1.1-0.4-2-0.7-2.6
					s-0.9-1.1-1.6-1.5C296.3,178.1,295.5,178,294.6,178z M274.8,172.7v22.3h1.9v-2c0.4,0.8,0.9,1.4,1.4,1.8c0.6,0.4,1.2,0.6,1.9,0.6
					c1.4,0,2.6-0.7,3.7-2.2c1.1-1.5,1.6-3.6,1.6-6.4c0-1.8-0.2-3.3-0.7-4.5c-0.5-1.3-1.1-2.2-1.9-2.8c-0.8-0.6-1.7-1-2.6-1
					c-0.7,0-1.3,0.2-1.9,0.5c-0.6,0.4-1,0.9-1.4,1.7v-8H274.8z M335.2,172.2v3.1h2.1v-3.1H335.2z"/>
			</defs>
			<use xlink:href="#SVGID_5_"  style="overflow:visible;fill-rule:evenodd;clip-rule:evenodd;fill:#8992A1;"/>
			<clipPath id="SVGID_6_">
				<use xlink:href="#SVGID_5_"  style="overflow:visible;"/>
			</clipPath>
			<g class="st5">
				<defs>
					<rect id="SVGID_7_" x="-186.3" y="-6084.2" width="1465.9" height="9293.4"/>
				</defs>
				<use xlink:href="#SVGID_7_"  style="overflow:visible;fill:#8992A1;"/>
				<clipPath id="SVGID_8_">
					<use xlink:href="#SVGID_7_"  style="overflow:visible;"/>
				</clipPath>
				<rect x="237.5" y="166.5" class="st6" width="143.2" height="34.7"/>
			</g>
		</g>
		<g>
			<defs>
				<path id="SVGID_9_" d="M224.2,168l-10.5,4.1v15.3l10.5-4.3V168z M200.3,168l-0.3,15.6l11.7,5.2v-16.2L200.3,168z M212.2,163.6
					l-8,3.5l7.4,3.2l8.6-3.2L212.2,163.6z"/>
			</defs>
			<use xlink:href="#SVGID_9_"  style="overflow:visible;fill-rule:evenodd;clip-rule:evenodd;fill:#8992A1;"/>
			<clipPath id="SVGID_10_">
				<use xlink:href="#SVGID_9_"  style="overflow:visible;"/>
			</clipPath>
			<g class="st7">
				<defs>
					<rect id="SVGID_11_" x="-186.3" y="-6084.2" width="1465.9" height="9293.4"/>
				</defs>
				<use xlink:href="#SVGID_11_"  style="overflow:visible;fill:#8992A1;"/>
				<clipPath id="SVGID_12_">
					<use xlink:href="#SVGID_11_"  style="overflow:visible;"/>
				</clipPath>
				<rect x="194.3" y="157.9" class="st8" width="35.7" height="36.6"/>
			</g>
		</g>
		<g>
			<defs>
				<path id="SVGID_13_" d="M247.9,125l-9.4,4.1v15.3l9.4-4.3V125z M225.7,124.1v15.6l9.9,2.9l0.3-14.2L225.7,124.1z M236.8,119.5
					l-8,3.5l7.4,3.2l8.6-3.2L236.8,119.5z"/>
			</defs>
			<use xlink:href="#SVGID_13_"  style="overflow:visible;fill-rule:evenodd;clip-rule:evenodd;fill:#8992A1;"/>
			<clipPath id="SVGID_14_">
				<use xlink:href="#SVGID_13_"  style="overflow:visible;"/>
			</clipPath>
			<g class="st9">
				<defs>
					<rect id="SVGID_15_" x="-186.3" y="-6084.2" width="1465.9" height="9293.4"/>
				</defs>
				<use xlink:href="#SVGID_15_"  style="overflow:visible;fill:#8992A1;"/>
				<clipPath id="SVGID_16_">
					<use xlink:href="#SVGID_15_"  style="overflow:visible;"/>
				</clipPath>
				<rect x="219.9" y="113.8" class="st10" width="33.7" height="36.3"/>
			</g>
		</g>
		<g>
			<defs>
				<path id="SVGID_17_" d="M211.1,145.8l-10.5,4.1v15.3l10.5-4.3V145.8z M187.1,145.8l-0.3,15.6l11.7,5.2v-16.2L187.1,145.8z
					 M199.1,141.4l-8,3.5l7.4,3.2l8.6-3.2L199.1,141.4z"/>
			</defs>
			<use xlink:href="#SVGID_17_"  style="overflow:visible;fill-rule:evenodd;clip-rule:evenodd;fill:#8992A1;"/>
			<clipPath id="SVGID_18_">
				<use xlink:href="#SVGID_17_"  style="overflow:visible;"/>
			</clipPath>
			<g class="st11">
				<defs>
					<rect id="SVGID_19_" x="-186.3" y="-6084.2" width="1465.9" height="9293.4"/>
				</defs>
				<use xlink:href="#SVGID_19_"  style="overflow:visible;fill:#8992A1;"/>
				<clipPath id="SVGID_20_">
					<use xlink:href="#SVGID_19_"  style="overflow:visible;"/>
				</clipPath>
				<rect x="181.2" y="135.7" class="st12" width="35.7" height="36.6"/>
			</g>
		</g>
		<g>
			<defs>
				<path id="SVGID_21_" d="M236.7,145.2l-10.5,4.1v15.3l10.5-4.3V145.2z M212.8,145.2l-0.3,15.6l11.7,5.2v-16.2L212.8,145.2z
					 M224.8,140.9l-8,3.5l7.4,3.2l8.6-3.2L224.8,140.9z"/>
			</defs>
			<use xlink:href="#SVGID_21_"  style="overflow:visible;fill-rule:evenodd;clip-rule:evenodd;fill:#8992A1;"/>
			<clipPath id="SVGID_22_">
				<use xlink:href="#SVGID_21_"  style="overflow:visible;"/>
			</clipPath>
			<g class="st13">
				<defs>
					<rect id="SVGID_23_" x="-186.3" y="-6084.2" width="1465.9" height="9293.4"/>
				</defs>
				<use xlink:href="#SVGID_23_"  style="overflow:visible;fill:#8992A1;"/>
				<clipPath id="SVGID_24_">
					<use xlink:href="#SVGID_23_"  style="overflow:visible;"/>
				</clipPath>
				<rect x="206.8" y="135.1" class="st14" width="35.7" height="36.6"/>
			</g>
		</g>
		<g>
			<defs>
				<path id="SVGID_25_" d="M273.8,123.8l-10.5,4.1v15.3l10.5-4.3V123.8z M249.9,123.8l-0.3,15.6l11.7,5.2v-16.2L249.9,123.8z
					 M261.8,119.5l-8,3.5l7.4,3.2l8.6-3.2L261.8,119.5z"/>
			</defs>
			<use xlink:href="#SVGID_25_"  style="overflow:visible;fill-rule:evenodd;clip-rule:evenodd;fill:#8992A1;"/>
			<clipPath id="SVGID_26_">
				<use xlink:href="#SVGID_25_"  style="overflow:visible;"/>
			</clipPath>
			<g class="st15">
				<defs>
					<rect id="SVGID_27_" x="-186.3" y="-6084.2" width="1465.9" height="9293.4"/>
				</defs>
				<use xlink:href="#SVGID_27_"  style="overflow:visible;fill:#8992A1;"/>
				<clipPath id="SVGID_28_">
					<use xlink:href="#SVGID_27_"  style="overflow:visible;"/>
				</clipPath>
				<rect x="243.9" y="113.8" class="st16" width="35.7" height="36.6"/>
			</g>
		</g>
	</g>
	<g>
		<defs>
			<path id="SVGID_29_" d="M334.4,442.8c10.9-0.7,19.5,6.4,20.2,17.4c0.7,12.5-9.2,25.2-22.2,28.6c-4.5,1.1-8.7,1-12.4-0.1
				c-0.3-4.9,0.7-10.1,2.8-13.6c3.4-5.8,8.6-5.3,11.6,1.1c1.1,2.4,1.8,5.4,2,8.4c1-0.6,2-1.2,3-1.8c-3.2-7.8-4.7-17.1,6.9-33.3
				c-3.4-2.7-8.5-4-14.9-3.2C332.3,445,333.3,443.9,334.4,442.8z M331.8,456c-0.9,2-0.6,3.6,0.8,3.6c1.4,0,3.3-1.5,4.2-3.5
				c0.9-2,0.6-3.6-0.8-3.6C334.6,452.5,332.7,454,331.8,456z M330.8,450.4c-9.7,12-13.9,27.5-13.3,41.3c-5.8-2.3-10-7.9-10.4-14.9
				l0-0.1c-0.7-12.5,9.2-25.3,22.2-28.6c5-1.3,9.8-0.9,13.8,0.7c-0.8,2.4-2.2,5.1-3.6,7.1c-2.9,4.3-7,7-9.2,6
				c-2.2-0.9-1.7-5.2,1.2-9.5c0.7-1,1.4-1.9,2.2-2.7C332.7,450,331.8,450.2,330.8,450.4z M425.4,456.7l-3.4,17.9l8.8-10.1h7.2
				l-9.1,10.2l5.5,12h-7.1l-5.4-11.9l-2.3,11.9h-6.6l5.7-30.1L425.4,456.7L425.4,456.7z M369.3,466.6c1.5-1.7,3.4-2.6,5.4-2.6
				c0.4,0,0.9,0,1.2,0.1l-1.3,6.5c-0.2,0-0.6-0.1-1-0.1c-4.5,0-6.2,4.4-6.9,8l-1.6,8.5h-6.6l4.3-22.5h5.8l-0.3,1.6
				c-0.3,1.4-0.7,2.3-1,2.7l0,0.1c-0.1,0.2,0.1,0.4,0.2,0.5c0.2,0.1,0.5,0.1,0.5-0.2l0-0.1C368.2,468.6,368.4,467.6,369.3,466.6z
				 M436.9,471.7c0-4.6,3.9-7.7,9.8-7.7c2.7,0,4.7,0.6,5.7,1.1l0,0l-0.9,5l0,0c-1.1-0.6-3-1.2-5-1.2c-1.7,0-2.8,0.7-2.8,1.9
				c0,0.9,0.8,1.6,2.7,2.5c2.3,1.2,5,2.9,5,6.1c0,2.1-0.7,3.8-2,5.1c-1.8,1.8-4.7,2.8-8.2,2.7c-2.7,0-5.4-0.7-6.8-1.7l0,0l1-5l0,0
				c1.5,0.9,4.3,1.9,6.4,1.9c1.6,0,2.7-0.8,2.7-2c0-1.1-0.8-1.9-2.7-2.8C438.5,476,436.9,474.1,436.9,471.7z M395.6,478.1
				c0-8,6.2-14.1,14.5-14.1c1.7,0,3.4,0.3,4.5,0.8c0,0,0,0,0,0l-1,5.4l0,0c-1-0.6-2.2-0.8-3.6-0.8c-4.7,0-7.5,4.1-7.5,8
				c0,3.4,2.2,4.5,4.3,4.5c1.9,0,3.4-0.4,5.5-1.4l0.1,0l-1.1,5.5l0,0c-1.5,0.7-3.9,1.2-6.3,1.2C399.2,487.2,395.6,483.7,395.6,478.1
				z M386,469c-0.9,0-1.8,0.5-2.7,1.3c-1.8,1.8-3.1,5.1-3.1,7.8c0,2.3,0.9,3.8,2.4,3.8c2.4,0,4.5-2.5,5.2-6.2
				c0.2-0.8,0.3-1.7,0.4-2.4c0.1-0.7,0.2-1.4,0.2-1.9C388.3,469.9,387.5,469,386,469z M385.8,486.8l0.2-1c0.2-0.9,0.9-2.1,1.2-2.5
				l0-0.1c0.1-0.2,0-0.5-0.2-0.5c-0.2-0.1-0.5,0-0.6,0.2l0,0.1c-0.1,0.5-0.4,1.6-1.4,2.5c-1.3,1.2-3.1,1.9-5.1,1.9
				c-4.4,0-6.4-3.9-6.4-7.8c0-4.4,1.7-8.8,4.6-11.7c2.4-2.4,5.6-3.7,9.1-3.7c2.7,0,4.7,0.8,5.9,2.3c1.8,2.2,1.7,5.6,1.2,8l-2.4,12.5
				H385.8z M460.2,476.4c-0.3,1.5-1,5.8,2,5.8c3.5,0,6-4.9,6-9.3c0-1.1-0.2-3.6-2.7-3.6C463,469.4,461,472.2,460.2,476.4z
				 M462.6,466c1.5-1.3,3.3-2,5.2-2c4.4,0,7.2,3.3,7.2,8.5c0,5.4-2.6,11-7.3,13.5c-3.6,1.9-6.9,1.5-8.6,0.2
				c-0.4-0.3-0.5-1.1-0.5-1.4l0-0.1c-0.1-0.2-0.3-0.3-0.5-0.2c-0.2,0.1-0.3,0.3-0.3,0.5l0,0.1c0.3,0.5,0.5,1,0.4,1.4l-1.4,7.5h-6.6
				l5.6-29.6h5.8l-0.2,1.1c-0.3,1.6-0.8,2.2-1.1,2.6l0,0.1c-0.1,0.2,0,0.4,0.2,0.5c0.2,0.1,0.5,0.1,0.6-0.1l0-0.1
				C461.3,468,461.7,466.8,462.6,466z M529.3,472.1c0.4-0.4,0.5-0.8,0.5-1.3c0-1.2-0.9-1.9-2.4-1.9c-2.2,0-3.8,1.4-4.6,3
				c-0.6,1.2-0.8,1.3-1.4,1.6l-0.1,0c-0.2,0.1-0.1,0.4,0,0.6c0.1,0.1,0.4,0.2,0.5,0.1l0.1-0.1c0.5-0.5,0.6-0.7,2.3-0.8
				C526.9,473.2,528.5,472.8,529.3,472.1z M520.7,477.6L520.7,477.6c0.7,0.6,1.1,1.4,1.1,1.7c0.1,0.4,0.3,0.8,0.5,1.2
				c0.9,1.1,2.4,1.7,4.2,1.7c2.7,0,5.1-0.7,7.7-2.1l0.1,0l-1.1,5.6c-3.2,1.6-6.8,1.8-8.3,1.8c-6.1,0-9.7-3.4-9.7-9.4
				c0-3.4,1.3-6.9,3.5-9.5c2.4-2.8,5.8-4.4,9.5-4.4c4.6,0,7.7,2.7,7.7,6.7c0,1.8-0.6,3.4-1.8,4.5c-2,2-5.6,2.9-11,3
				c-1.3,0-1.6-0.7-1.8-1.1l0-0.1c-0.1-0.2-0.4-0.1-0.6,0C520.6,477.1,520.5,477.4,520.7,477.6z M487.9,469c-0.9,0-1.8,0.5-2.7,1.3
				c-1.8,1.8-3.1,5.1-3.1,7.8c0,2.3,0.9,3.8,2.4,3.8c2.4,0,4.5-2.5,5.2-6.2c0.2-0.8,0.3-1.7,0.4-2.4c0.1-0.7,0.2-1.4,0.2-1.9
				C490.2,469.9,489.4,469,487.9,469z M487.7,486.8l0.2-1c0.2-0.9,0.9-2.1,1.2-2.5l0-0.1c0.1-0.2,0-0.5-0.2-0.5
				c-0.2-0.1-0.5,0-0.6,0.2l0,0.1c-0.1,0.5-0.4,1.6-1.4,2.5c-1.3,1.2-3.1,1.9-5.1,1.9c-4.4,0-6.4-3.9-6.4-7.8
				c0-4.4,1.7-8.8,4.6-11.7c2.4-2.4,5.6-3.7,9.1-3.7c2.7,0,4.7,0.8,5.9,2.3c1.8,2.2,1.7,5.6,1.2,8l-2.4,12.5H487.7z M497.5,478.1
				c0-8,6.2-14.1,14.5-14.1c1.7,0,3.4,0.3,4.5,0.8c0,0,0,0,0,0l-1,5.4l0,0c-1-0.6-2.2-0.8-3.6-0.8c-4.7,0-7.5,4.1-7.5,8
				c0,3.4,2.2,4.5,4.3,4.5c1.9,0,3.4-0.4,5.5-1.4l0.1,0l-1.1,5.5l0,0c-1.5,0.7-3.9,1.2-6.3,1.2C501.1,487.2,497.5,483.7,497.5,478.1
				z"/>
		</defs>
		<use xlink:href="#SVGID_29_"  style="overflow:visible;fill-rule:evenodd;clip-rule:evenodd;fill:#8992A1;"/>
		<clipPath id="SVGID_30_">
			<use xlink:href="#SVGID_29_"  style="overflow:visible;"/>
		</clipPath>
		<g class="st17">
			<defs>
				<rect id="SVGID_31_" x="-189.5" y="-5219.2" width="1406" height="8914"/>
			</defs>
			<use xlink:href="#SVGID_31_"  style="overflow:visible;fill:#8992A1;"/>
			<clipPath id="SVGID_32_">
				<use xlink:href="#SVGID_31_"  style="overflow:visible;"/>
			</clipPath>
			<rect x="301.5" y="437.2" class="st18" width="240" height="62.2"/>
		</g>
	</g>
	<g>
		<path class="st2" d="M694.7,49h18.1v4.7h-12.5v7.5h10.8V66h-10.8v11.2h-5.6V49z"/>
		<path class="st2" d="M725.4,53.7h-9.1V49h23.8v4.7h-9.1v23.5h-5.7V53.7z"/>
		<path class="st2" d="M744.9,49h9.2c2.1,0,3.9,0.4,5.4,1.1c1.6,0.7,2.8,1.8,3.7,3.2c0.9,1.4,1.3,3,1.3,4.9c0,2.8-0.9,5.1-2.8,6.8
			c-1.9,1.7-4.4,2.5-7.6,2.5h-3.7v9.6h-5.5V49z M750.4,63h2.9c1.9,0,3.3-0.4,4.2-1.2c1-0.8,1.5-2,1.5-3.5c0-1.5-0.5-2.7-1.4-3.5
			c-1-0.8-2.4-1.2-4.3-1.2h-2.9V63z"/>
	</g>
</g>
</svg>
