<?xml version="1.0" encoding="utf-8"?>
<!-- Generator: Adobe Illustrator 19.2.1, SVG Export Plug-In . SVG Version: 6.00 Build 0)  -->
<svg version="1.1" id="Layer_1" xmlns="http://www.w3.org/2000/svg" xmlns:xlink="http://www.w3.org/1999/xlink" x="0px" y="0px"
	 viewBox="0 0 305.5 201.3" style="enable-background:new 0 0 305.5 201.3;" xml:space="preserve">
<style type="text/css">
	.st0{fill:#5A6575;}
	.st1{fill:#FFFFFF;}
	.st2{fill:#8BCD3F;}
</style>
<polygon class="st0" points="235.8,142.7 202,85.1 180.6,68.7 140.5,106 123,108.4 84.9,151.5 0,201.3 305.5,201.3 "/>
<path class="st1" d="M202,85.1l-18.9-14.5l3.4-65.2c0.6-0.5,1.1-1.3,1.1-2.2c0.1-1.7-1.2-3.1-2.8-3.2s-3.1,1.2-3.2,2.8
	c0,0.9,0.3,1.7,0.9,2.3l-3.4,65L140.5,106l-17.5,2.4l-22.9,25.9l36.7-13.9l29.8,8.7l25.7-23.6l25.3,6.2L202,85.1z"/>
<polygon class="st2" points="186.5,5.3 184.7,39.6 243.6,25.5 "/>
</svg>
