<?xml version="1.0" encoding="utf-8"?>
<!-- Generator: Adobe Illustrator 19.2.1, SVG Export Plug-In . SVG Version: 6.00 Build 0)  -->
<svg version="1.1" id="Layer_1" xmlns="http://www.w3.org/2000/svg" xmlns:xlink="http://www.w3.org/1999/xlink" x="0px" y="0px"
	 viewBox="0 0 226.7 180.6" style="enable-background:new 0 0 226.7 180.6;" xml:space="preserve">
<style type="text/css">
	.st0{fill:#706F6F;}
	.st1{fill:#050F22;}
	.st2{fill:#FFFFFF;}
	.st3{fill:#8DCF3F;}
	.st4{fill:#FABA0A;}
	.st5{fill:#8DCF3F;stroke:#050F22;stroke-width:2.238;stroke-miterlimit:10;}
	.st6{fill:#B2B2B2;}
	.st7{fill:#B2B2B2;stroke:#050F22;stroke-width:2.2378;stroke-linecap:round;stroke-linejoin:round;stroke-miterlimit:10;}
</style>
<g>
	<path class="st0" d="M186.9,151.5c0.6-4.7-0.1-9.3-3.1-11.4c-3.6-2.5-8.6,1.1-8.6,1.1s-0.1-10.1-5.1-11.3
		c-6.1-1.5-10.8,5.8-10.8,5.8s-2.7-5.7-6.8-5.7c-4.2,0-6.6,3.1-8.2,6.1c-10.1-2.1-20.4-3.1-31-3.1c-15,0-29.5,2.2-43.4,6.2
		c-1.7-3.8-4.9-6.6-8.4-6.6c-5.4,0-7.5,8.5-7.5,8.5s-3.5-5.5-9-4.6c-4.9,0.9-8,7.8-7.3,16.1c-12.9,7.1-24.9,15.9-35.9,26.1h96.3
		h126.7C213.3,167.9,200.6,158.8,186.9,151.5z"/>
	<path class="st1" d="M224.8,180.6H1.9c-0.8,0-1.5-0.5-1.7-1.2s-0.1-1.5,0.5-2c10.8-10.2,22.7-18.8,35.2-25.8
		c-0.4-8.9,3.2-15.9,8.9-16.9c3.8-0.7,6.8,1.1,8.7,2.8c1.3-2.9,3.8-6.8,8.2-6.8c3.7,0,7.2,2.4,9.4,6.3c13.8-3.9,28.1-5.9,42.4-5.9
		c10.1,0,20.2,1,30,2.9c1.4-2.2,4.2-5.8,9.1-5.8c0,0,0,0,0,0c3.2,0,5.6,2.4,7,4.3c2.2-2.3,6.2-5.5,11-4.4c4.4,1.1,5.8,6.6,6.3,10.2
		c2.2-0.9,5.3-1.5,8,0.3c3,2.1,4.4,6.3,4,11.9c13.3,7.2,25.8,16.2,37.2,26.9c0.6,0.5,0.7,1.3,0.5,2S225.6,180.6,224.8,180.6z
		 M6.7,176.9H220c-10.5-9.4-21.9-17.3-34-23.7c-0.7-0.4-1.1-1.1-1-1.9c0.6-4.7-0.3-8.3-2.3-9.6c-2.5-1.7-6.4,1-6.5,1.1
		c-0.6,0.4-1.3,0.5-1.9,0.1c-0.6-0.3-1-0.9-1-1.6c0-2.8-1-8.9-3.7-9.5c-4.7-1.1-8.8,4.9-8.8,5c-0.4,0.6-1,0.9-1.7,0.8
		c-0.7,0-1.3-0.4-1.6-1.1c-0.6-1.2-2.8-4.6-5.1-4.6c0,0,0,0,0,0c-2.6,0-4.7,1.6-6.6,5.1c-0.4,0.7-1.2,1.1-2,0.9
		c-10-2.1-20.3-3.1-30.6-3.1c-14.5,0-28.9,2.1-42.8,6.2c-0.9,0.3-1.8-0.2-2.2-1c-1.5-3.4-4.2-5.6-6.7-5.6c-3.2,0-5.2,5.2-5.6,7.1
		c-0.2,0.7-0.8,1.3-1.5,1.4c-0.7,0.1-1.5-0.2-1.9-0.8c0,0-3-4.5-7.1-3.7c-3.8,0.7-6.4,6.9-5.7,14.1c0.1,0.7-0.3,1.4-1,1.8
		C27.4,160.4,16.6,168,6.7,176.9z"/>
</g>
<path class="st1" d="M130.1,168.6c-0.1,0-0.2,0-0.3,0c-0.9-0.1-1.6-0.9-1.6-1.8c-0.1-5-1.6-18.5-7.7-20.4c-9-2.8-14.6,9.8-14.7,9.9
	c-0.2,0.5-0.7,0.9-1.3,1.1c-0.6,0.1-1.2,0-1.6-0.4c-2.7-2.3-5.3-3.2-8-2.7c-5.8,1.1-9.8,8.4-9.9,8.4c-0.5,0.9-1.6,1.2-2.5,0.7
	c-0.9-0.5-1.2-1.6-0.8-2.5c0.2-0.4,4.9-8.9,12.4-10.3c3.1-0.6,6.2,0.1,9.2,2.2c3.1-5.5,9.6-12.6,18.2-9.9c4.3,1.4,7.4,5.9,9.1,13.5
	c0.4,1.6,0.6,3.2,0.8,4.6c2.1-2.5,5.5-5,10.5-5.5c1-0.1,1.9,0.6,2.1,1.6c0.1,1-0.6,1.9-1.6,2.1c-7.9,0.9-10.5,8-10.6,8.3
	C131.6,168.1,130.8,168.6,130.1,168.6z"/>
<g>
	<g>
		
			<rect x="86.8" y="25.5" transform="matrix(0.9843 -0.1765 0.1765 0.9843 -7.975 23.3361)" class="st2" width="80.7" height="61.9"/>
		<path class="st1" d="M92.9,95.9c-0.4,0-0.8-0.1-1.1-0.3c-0.4-0.3-0.7-0.7-0.8-1.2L80.1,33.5c-0.2-1,0.5-2,1.5-2.2l79.5-14.3
			c1-0.2,2,0.5,2.2,1.5l10.9,60.9c0.1,0.5,0,1-0.3,1.4c-0.3,0.4-0.7,0.7-1.2,0.8L93.2,95.9C93.1,95.9,93,95.9,92.9,95.9z M84.1,34.7
			l10.3,57.2l75.8-13.6l-10.3-57.2L84.1,34.7z"/>
	</g>
	<g>
		<polygon class="st3" points="201,62.8 170.3,68.3 161.4,18.9 146.8,9.6 190.1,1.9 172.5,36.5 		"/>
		<path class="st1" d="M170.3,70.2c-0.4,0-0.8-0.1-1.1-0.3c-0.4-0.3-0.7-0.7-0.8-1.2L159.8,20l-14-8.8c-0.7-0.4-1-1.2-0.8-1.9
			s0.7-1.3,1.5-1.5L189.8,0c0.7-0.1,1.4,0.2,1.8,0.7c0.4,0.6,0.5,1.3,0.2,2l-17,33.3l27.5,25.4c0.5,0.5,0.7,1.2,0.5,1.9
			s-0.8,1.2-1.5,1.3l-30.7,5.5C170.5,70.1,170.4,70.2,170.3,70.2z M151.8,10.6l10.6,6.7c0.4,0.3,0.7,0.7,0.8,1.2l8.5,47.6l25.2-4.5
			l-25.8-23.8c-0.6-0.6-0.8-1.5-0.4-2.2l15.9-31.3L151.8,10.6z"/>
	</g>
	<g>
		<polygon class="st3" points="146.8,9.6 148.8,21.2 161.4,18.9 		"/>
		<path class="st1" d="M148.8,23c-0.9,0-1.7-0.6-1.8-1.5L144.9,10c-0.1-0.7,0.2-1.5,0.8-1.9c0.6-0.4,1.4-0.4,2,0l14.7,9.3
			c0.7,0.4,1,1.2,0.8,1.9s-0.7,1.3-1.5,1.5L149.2,23C149.1,23,148.9,23,148.8,23z M149.4,13.5l1,5.5l6-1.1L149.4,13.5z"/>
	</g>
	<path class="st1" d="M103.8,156.8c-0.9,0-1.7-0.6-1.8-1.5L78.6,24.7c-0.2-1,0.5-2,1.5-2.2c1-0.2,2,0.5,2.2,1.5l23.4,130.6
		c0.2,1-0.5,2-1.5,2.2C104,156.8,103.9,156.8,103.8,156.8z"/>
	<g>
		<ellipse transform="matrix(0.9843 -0.1765 0.1765 0.9843 -2.0061 14.2929)" class="st4" cx="79.3" cy="18.4" rx="6" ry="6"/>
		<path class="st1" d="M79.3,26.3c-3.7,0-7.1-2.7-7.7-6.5c-0.8-4.3,2.1-8.4,6.4-9.1c4.3-0.8,8.4,2.1,9.1,6.4l0,0
			c0.4,2.1-0.1,4.2-1.3,5.9c-1.2,1.7-3,2.9-5.1,3.2C80.3,26.2,79.8,26.3,79.3,26.3z M79.3,14.3c-0.2,0-0.5,0-0.7,0.1
			c-2.2,0.4-3.7,2.6-3.3,4.8c0.2,1.1,0.8,2,1.7,2.7s2,0.9,3.1,0.7c1.1-0.2,2-0.8,2.7-1.7s0.9-2,0.7-3.1l0,0
			C83,15.7,81.3,14.3,79.3,14.3z"/>
	</g>
</g>
<path class="st5" d="M124,36.4l0.4-0.1c8.2-1.3,14.1,4.7,15.8,14.5c2.3,14.2-3.9,25.1-14.9,26.9l-5.4,0.9c-3.3-4.8-6-11.4-7.2-18.8
	C110.5,46.9,114.4,38,124,36.4z"/>
<g>
	<path class="st2" d="M118.4,65.6c-0.1-0.1-0.3-0.2-0.3-0.4c0-0.3,0.1-0.5,0.4-0.6c0.1,0,0.2,0,0.3,0c0.5,0.2,0.9,0.2,1.3,0.2
		c0.4-0.1,0.5-0.2,0.5-0.4l0,0c0-0.3-0.5-0.3-1-0.3c-0.6-0.1-1.4-0.2-1.5-1.1l0,0c-0.2-0.9,0.5-1.5,1.3-1.7c0.5-0.1,1,0,1.4,0.1
		c0.2,0.1,0.3,0.2,0.4,0.4c0,0.3-0.1,0.5-0.4,0.6c-0.1,0-0.1,0-0.2,0c-0.4-0.1-0.7-0.2-1-0.1c-0.3,0.1-0.4,0.2-0.4,0.4l0,0
		c0,0.2,0.5,0.3,1,0.4c0.6,0.1,1.4,0.3,1.6,1.1l0,0c0.2,1-0.5,1.5-1.4,1.7C119.6,65.9,119,65.9,118.4,65.6z"/>
	<path class="st2" d="M121.6,59.9c-0.1-0.4,0.2-0.6,0.6-0.7c0.4-0.1,0.7,0.1,0.8,0.5l0,0c0.1,0.4-0.2,0.6-0.6,0.7
		C122,60.4,121.7,60.3,121.6,59.9L121.6,59.9z M121.9,61.5c-0.1-0.3,0.2-0.7,0.5-0.7c0.3-0.1,0.7,0.2,0.7,0.5l0.6,3.2
		c0.1,0.3-0.2,0.7-0.5,0.7c-0.3,0.1-0.7-0.2-0.7-0.5L121.9,61.5z"/>
	<path class="st2" d="M124.9,63.6l-0.4-2.1l0,0c-0.3,0.1-0.6-0.1-0.6-0.4c-0.1-0.3,0.1-0.6,0.4-0.6l0,0l-0.1-0.5
		c-0.1-0.3,0.2-0.7,0.5-0.7c0.3-0.1,0.7,0.2,0.7,0.5l0.1,0.5l0.5-0.1c0.3-0.1,0.6,0.1,0.6,0.4c0.1,0.3-0.1,0.6-0.4,0.6l-0.5,0.1
		l0.3,1.9c0.1,0.3,0.2,0.4,0.5,0.4c0,0,0.1,0,0.1,0c0.3,0,0.6,0.1,0.6,0.4c0,0.2-0.1,0.4-0.2,0.5c-0.2,0.1-0.4,0.2-0.7,0.2
		C125.7,64.8,125.1,64.6,124.9,63.6z"/>
	<path class="st2" d="M130.2,64c-1.3,0.2-2.4-0.5-2.7-1.8l0,0c-0.2-1.2,0.5-2.4,1.8-2.7c1.5-0.3,2.3,0.8,2.5,1.7
		c0.1,0.4-0.1,0.6-0.5,0.7l-2.5,0.4c0.2,0.5,0.7,0.8,1.2,0.7c0.3-0.1,0.6-0.2,0.8-0.5c0.1-0.1,0.2-0.1,0.3-0.2
		c0.3,0,0.5,0.1,0.6,0.4c0,0.2,0,0.3-0.1,0.4C131.3,63.6,130.8,63.9,130.2,64z M130.5,61.3c-0.2-0.5-0.6-0.9-1.1-0.8
		c-0.5,0.1-0.8,0.5-0.8,1.1L130.5,61.3z"/>
	<path class="st2" d="M118.9,67.6c-0.1-0.3,0.2-0.7,0.5-0.7c0.3-0.1,0.7,0.2,0.7,0.5l0.9,4.8c0.1,0.3-0.2,0.7-0.5,0.7
		c-0.3,0.1-0.7-0.2-0.7-0.5L118.9,67.6z"/>
	<path class="st2" d="M124.1,72.3c-1.3,0.2-2.4-0.5-2.7-1.8l0,0c-0.2-1.2,0.5-2.4,1.8-2.7c1.5-0.3,2.3,0.8,2.5,1.7
		c0.1,0.4-0.1,0.6-0.5,0.7l-2.5,0.4c0.2,0.5,0.7,0.8,1.2,0.7c0.3-0.1,0.6-0.2,0.8-0.5c0.1-0.1,0.2-0.1,0.3-0.2
		c0.3,0,0.5,0.1,0.6,0.4c0,0.2,0,0.3-0.1,0.4C125.1,71.9,124.7,72.2,124.1,72.3z M124.4,69.6c-0.2-0.5-0.6-0.9-1.1-0.8
		c-0.5,0.1-0.8,0.5-0.8,1.1L124.4,69.6z"/>
	<path class="st2" d="M126.1,70.6L126.1,70.6c-0.2-1,0.5-1.5,1.5-1.7c0.4-0.1,0.8-0.1,1.1,0l0-0.1c-0.1-0.5-0.5-0.7-1.1-0.6
		c-0.3,0.1-0.6,0.2-0.8,0.3c-0.1,0-0.1,0.1-0.2,0.1c-0.3,0.1-0.6-0.1-0.6-0.4c0-0.2,0.1-0.4,0.2-0.5c0.4-0.2,0.8-0.4,1.4-0.5
		c0.7-0.1,1.2,0,1.6,0.2c0.4,0.3,0.6,0.7,0.7,1.3l0.4,2c0.1,0.3-0.2,0.6-0.5,0.7c-0.4,0.1-0.6-0.1-0.7-0.4l0,0
		c-0.2,0.4-0.6,0.7-1.2,0.8C127,71.8,126.2,71.4,126.1,70.6z M128.9,69.8l0-0.2c-0.2-0.1-0.5-0.1-0.8,0c-0.5,0.1-0.8,0.4-0.7,0.8
		l0,0c0.1,0.3,0.4,0.5,0.8,0.4C128.6,70.6,129,70.2,128.9,69.8z"/>
	<path class="st2" d="M130.7,67.6L130.7,67.6c-0.3,0.1-0.6-0.1-0.7-0.4c-0.1-0.3,0.1-0.6,0.4-0.6l0,0l0-0.3c-0.1-0.5,0-0.9,0.2-1.1
		c0.2-0.3,0.5-0.4,0.9-0.5c0.2,0,0.4-0.1,0.5-0.1c0.2,0,0.5,0.1,0.5,0.4c0,0.3-0.1,0.6-0.4,0.6l-0.1,0c-0.3,0.1-0.4,0.2-0.4,0.6
		l0,0.2l0.5-0.1c0.3-0.1,0.6,0.1,0.6,0.4c0.1,0.3-0.1,0.5-0.4,0.6l-0.5,0.1l0.5,2.7c0.1,0.3-0.2,0.7-0.5,0.7
		c-0.3,0.1-0.7-0.2-0.7-0.5L130.7,67.6z"/>
</g>
<g>
	
		<ellipse transform="matrix(0.9472 -0.3207 0.3207 0.9472 -47.8581 26.4941)" class="st6" cx="56.5" cy="158.5" rx="12.8" ry="6.8"/>
	<path class="st1" d="M51.9,167.3c-0.9,0-1.7-0.1-2.6-0.2c-3.1-0.5-5.2-2-6-4.1c-0.7-2.1,0.1-4.6,2.2-6.9c2-2.1,5-3.9,8.4-5.1
		c7.4-2.5,14.3-1.2,15.7,3c0.7,2.1-0.1,4.6-2.2,6.9c-2,2.1-5,3.9-8.4,5.1C56.6,166.9,54.1,167.3,51.9,167.3z M61.2,152
		c-1.9,0-4.1,0.3-6.5,1.1c-3.1,1-5.7,2.6-7.5,4.5c-1.6,1.7-2.2,3.3-1.8,4.6c0.4,1.3,2,2.2,4.2,2.6c2.5,0.4,5.6,0.1,8.7-1
		c3.1-1,5.7-2.6,7.5-4.5c1.6-1.7,2.2-3.3,1.8-4.6C67,153.1,64.6,152,61.2,152z"/>
</g>
<g>
	<ellipse transform="matrix(0.4 -0.9165 0.9165 0.4 -42.9884 256.9877)" class="st6" cx="174.8" cy="161.3" rx="5.6" ry="10.5"/>
	<path class="st1" d="M179.2,169.1c-2.2,0-4.7-0.6-7-1.6c-2.7-1.2-5.1-2.9-6.6-4.8c-1.7-2.1-2.2-4.2-1.4-6c0.8-1.8,2.7-2.8,5.3-3.1
		c2.4-0.2,5.3,0.4,8,1.6c6,2.6,9.5,7.3,8,10.8c-0.8,1.8-2.7,2.9-5.3,3.1C179.8,169.1,179.5,169.1,179.2,169.1z M170.4,155.8
		c-0.3,0-0.5,0-0.8,0c-1.8,0.1-3,0.8-3.5,1.7c-0.4,1,0,2.3,1.1,3.7c1.3,1.6,3.3,3.1,5.7,4.1s4.9,1.5,6.9,1.4c1.8-0.1,3-0.8,3.5-1.7
		c0.8-1.9-1.7-5.6-6.8-7.8C174.5,156.3,172.3,155.8,170.4,155.8z"/>
</g>
<ellipse transform="matrix(1.134812e-02 -0.9999 0.9999 1.134812e-02 -62.2985 269.9036)" class="st7" cx="105.3" cy="166.5" rx="3.4" ry="6.5"/>
<g>
	
		<ellipse transform="matrix(0.1324 -0.9912 0.9912 0.1324 -19.4567 270.3506)" class="st6" cx="144.7" cy="146.3" rx="2.9" ry="5.5"/>
	<path class="st1" d="M145.7,150.4c-0.5,0-1,0-1.5-0.1c-3.7-0.5-6.3-2.6-6-4.9c0.3-2.3,3.4-3.6,7.1-3.1c3.7,0.5,6.3,2.6,6,4.9
		c0,0,0,0,0,0C151,149.1,148.7,150.4,145.7,150.4z M143.7,144.4c-2,0-3.3,0.7-3.4,1.3c-0.1,0.7,1.5,2,4.1,2.4
		c2.6,0.4,4.5-0.5,4.6-1.2c0.1-0.7-1.5-2-4.1-2.4C144.5,144.4,144.1,144.4,143.7,144.4z M150.2,147L150.2,147L150.2,147z"/>
</g>
</svg>
