<svg width="2048" height="1280" viewBox="0 0 2048 1280" xmlns="http://www.w3.org/2000/svg"><title>home__manage--preview</title><desc>Created with Sketch.</desc><g fill="none"><path fill="#374252" d="M0 0h2048v1280h-2048z"/><g><path fill="#742824" d="M1510.611 791.296h3.507v-94.648h-3.507z"/><g><path d="M1151.489 426.505c17.648-5.275 32.038-12.541 41.544-21.054h-218.576c9.505 8.513 23.895 15.779 41.545 21.054 19.393 5.797 42.683 9.175 67.744 9.175 25.06 0 48.351-3.378 67.744-9.175zm47.677-21.664c-9.755 10.411-26.082 19.227-46.578 25.356-19.744 5.901-43.415 9.341-68.842 9.341-25.429 0-49.099-3.44-68.843-9.341-20.497-6.129-36.824-14.945-46.579-25.356l-3.042-3.247h236.926l-3.041 3.247z" fill="#742824"/><path d="M926.779 426.505c17.649-5.275 32.039-12.541 41.544-21.054h-218.575c9.506 8.513 23.896 15.779 41.544 21.054 19.393 5.797 42.684 9.175 67.745 9.175 25.06 0 48.35-3.378 67.743-9.175zm47.678-21.664c-9.755 10.411-26.082 19.227-46.578 25.356-19.744 5.901-43.415 9.341-68.842 9.341-25.429 0-49.1-3.44-68.843-9.341-20.497-6.129-36.824-14.945-46.578-25.356l-3.042-3.247h236.92499999999998l-3.041 3.247z" fill="#742824"/><path d="M1447.695 426.513c24.413-5.276 44.311-12.544 57.439-21.063h-302.116c13.129 8.519 33.027 15.787 57.438 21.063 26.799 5.79 58.986 9.167 93.621 9.167 34.633 0 66.822-3.377 93.619-9.167zm66.165-21.711c-13.508 10.425-36.116 19.251-64.5 25.387-27.328 5.906-60.089 9.348-95.283 9.348-35.195 0-67.958-3.442-95.285-9.348-28.385-6.136-50.993-14.962-64.5-25.387l-4.161-3.208h327.886l-4.157 3.208z" fill="#742824"/><path d="M1353.802 865.572c5.244 0 9.496 4.252 9.496 9.496 0 5.246-4.251 9.497-9.496 9.497s-9.499-4.252-9.499-9.497 4.254-9.496 9.499-9.496m3.879-34.102c0 8.076-6.602 14.678-14.676 14.678h-14.676v46.196c0 8.072 6.6 14.676 14.676 14.676h58.062000000000005v-373.435h-43.383l-.002 297.885" fill="#BC9153"/><path d="M1427.422 543.209v98.592h-107.577c-11.287 0-21.759 3.66-30.295 9.85-16.044-14.267-26.198-35.033-26.198-58.061v-2.166c0-23.029 10.155-43.797 26.201-58.063 8.534 6.189 19.006 9.848 30.293 9.848h107.577z" fill="#ECECEC"/><path d="M1427.422 543.209v98.592h-107.577c-4.928 0-9.701.698-14.228 2-11.536-13.567-18.518-31.113-18.518-50.211v-2.166c0-19.099 6.982-36.643 18.522-50.212 4.524 1.301 9.296 1.998 14.225 1.998h107.577z" fill="#C5C5C6"/><path fill="#9D773D" d="M1382.512 787.259h7.339v-120.878h-7.339z"/><path fill="#9D773D" d="M1382.512 819.002h7.339v-21.379h-7.339z"/><path fill="#9D773D" d="M1382.512 871.025h7.339v-42.534h-7.339z"/><path fill="#9D773D" d="M1368.269 750.148h7.339v-83.766h-7.339z"/><path fill="#9D773D" d="M1368.269 659.911h7.339v-12.938h-7.339z"/><path d="M1009.871 555.085h161.871c16.335 0 29.699 13.367 29.699 29.704v286.633c0 16.336-13.364 29.701-29.699 29.701h-161.871c-16.335 0-29.699-13.365-29.699-29.701v-286.633c0-16.336 13.364-29.704 29.699-29.704" fill="#4F5E3D"/><path d="M1009.871 555.085h69.799c16.336 0 29.7 13.367 29.7 29.704v286.633c0 16.336-13.364 29.701-29.7 29.701h-69.799c-16.335 0-29.699-13.365-29.699-29.701v-286.633c0-16.336 13.364-29.704 29.699-29.704" fill="#687C52"/><path d="M993.561 534.295h193.75c14.238 0 25.979 11.213 26.835 25.247h.051v51.98100000000001h-.051c-.856 14.034-12.597 25.246-26.835 25.246h-193.75c-14.235 0-25.978-11.212-26.836-25.246h-.05v-51.98100000000001h.05c.858-14.034 12.601-25.247 26.836-25.247" fill="#576743"/><path d="M993.561 534.295h143.777c14.237 0 25.977 11.213 26.836 25.247h.05v51.98100000000001h-.05c-.859 14.034-12.599 25.246-26.836 25.246h-143.777c-14.235 0-25.978-11.212-26.836-25.246h-.05v-51.98100000000001h.05c.858-14.034 12.601-25.247 26.836-25.247" fill="#758760"/><path d="M997.618 713.262h-33.409c-8.988 0-16.338 7.35-16.338 16.337v108.413c0 8.988 7.35 16.339 16.338 16.339h33.409c4.901 0 8.912-4.01 8.912-8.911v-123.268c0-4.899-4.011-8.91-8.912-8.91" fill="#72845C"/><path d="M1183.994 713.262h33.409c8.987 0 16.337 7.35 16.337 16.337v108.413c0 8.988-7.35 16.339-16.337 16.339h-33.409c-4.902 0-8.912-4.01-8.912-8.911v-123.268c0-4.899 4.01-8.91 8.912-8.91" fill="#576743"/><path d="M978.599 713.262h-14.39c-8.988 0-16.338 7.35-16.338 16.337v108.413c0 8.988 7.35 16.339 16.338 16.339h14.39c4.901 0 8.91-4.01 8.91-8.911v-123.268c0-4.899-4.009-8.91-8.91-8.91" fill="#758760"/><path d="M1156.519 776.03v114.309c0 14.235-11.212 25.98-25.245 26.837v.05h-80.936v-.05c-14.034-.858-25.245-12.599-25.245-26.837v-114.309c0-14.237 11.212-25.981 25.245-26.837v-.051h80.936v.051c14.033.856 25.245 12.604 25.245 26.837" fill="#576743"/><path d="M1087.092 917.226h-36.754000000000005v-.051c-14.034-.857-25.245-12.598-25.245-26.837v-114.309c0-14.237 11.212-25.981 25.245-26.837v-.051h36.754000000000005v.051c14.035.857 25.248 12.604 25.248 26.837v114.309c0 14.235-11.212 25.98-25.248 26.837v.051z" fill="#758760"/><path fill="#50613B" d="M991.355 627.046h10.044v-4.229h-10.044z"/><path fill="#50613B" d="M1008.457 627.046h10.045v-4.229h-10.045z"/><path fill="#50613B" d="M1025.559 627.046h10.045v-4.229h-10.045z"/><path fill="#50613B" d="M1042.66 627.046h10.046v-4.229h-10.046z"/><path fill="#50613B" d="M1059.761 627.046h10.045v-4.229h-10.045z"/><path fill="#50613B" d="M1076.863 627.046h10.044v-4.229h-10.044z"/><path fill="#50613B" d="M1093.964 627.046h10.045v-4.229h-10.045z"/><path fill="#50613B" d="M1111.066 627.046h10.045v-4.229h-10.045z"/><path fill="#50613B" d="M1128.167 627.046h10.046v-4.229h-10.046z"/><path fill="#50613B" d="M1145.27 627.046h10.044v-4.229h-10.044z"/><path fill="#50613B" d="M1162.371 627.046h10.046v-4.229h-10.046z"/><path fill="#50613B" d="M1179.474 627.046h10.043v-4.229h-10.043z"/><path d="M1156.519 687.662v14.061c0 14.234-11.212 25.981-25.245 26.838v.052h-80.936v-.052c-14.034-.858-25.245-12.598-25.245-26.838v-14.061c0-14.236 11.212-25.98 25.245-26.838v-.051h80.936v.051c14.033.858 25.245 12.607 25.245 26.838" fill="#72845C"/><path fill="#934E10" d="M1061.48 794.071h57.91l5.944 5.942v19.302l-5.944 5.944h-57.91l-5.942-5.944v-19.302z"/><path d="M1075.858 498.002h29.153c6.23 0 11.895 2.548 15.995 6.646 4.102 4.1 6.648 9.765 6.648 15.998v13.647h-8.995v-13.647c0-3.748-1.538-7.16-4.014-9.636-2.474-2.477-5.886-4.013-9.634-4.013h-29.153c-3.746 0-7.159 1.536-9.635 4.013-2.473 2.476-4.012 5.888-4.012 9.636v13.647h-8.996v-13.647c0-6.233 2.547-11.898 6.647-15.998 4.101-4.099 9.764-6.646 15.995-6.646" fill="#AA5A1D"/><path d="M1090.435 498.002h14.577c6.23 0 11.894 2.548 15.995 6.646 4.101 4.1 6.648 9.765 6.648 15.998v13.647h-8.994v-13.647c0-3.748-1.539-7.16-4.014-9.636-2.475-2.477-5.886-4.013-9.634-4.013h-14.577v-8.996z" fill="#965326"/><path fill="#AC5F2D" d="M1041.052 780.124h20.79v-184.9h-20.79z"/><path fill="#AC5F2D" d="M1119.031 780.124h20.79v-184.9h-20.79z"/><path fill="#D8D9D9" d="M1041.052 780.125h20.79v-11.138h-20.79z"/><path fill="#C5C5C6" d="M1057.749 780.125h4.093v-11.138h-4.093z"/><path fill="#D8D9D9" d="M1119.031 780.125h20.79v-11.138h-20.79z"/><path fill="#C5C5C6" d="M1135.727 780.125h4.094v-11.138h-4.094z"/><path d="M1041.691 705.706h19.512v-17.128h-19.512v17.128zm-3.608-24.344h30.338v31.561000000000003h-33.946v-31.561h3.608z" fill="#D8D9D9"/><path d="M1119.031 705.706h19.514v-17.128h-19.514v17.128zm-3.608-24.344h30.338v31.561000000000003h-33.946v-31.561h3.608z" fill="#D8D9D9"/><path fill="#965326" d="M1041.052 621.211h20.79v-25.986h-20.79z"/><path fill="#965326" d="M1119.031 621.211h20.79v-25.986h-20.79z"/><path fill="#50613B" d="M991.355 548.152h10.044v-4.229h-10.044z"/><path fill="#50613B" d="M1008.457 548.152h10.045v-4.229h-10.045z"/><path fill="#50613B" d="M1025.559 548.152h10.045v-4.229h-10.045z"/><path fill="#50613B" d="M1042.66 548.152h10.046v-4.229h-10.046z"/><path fill="#50613B" d="M1059.761 548.152h10.045v-4.229h-10.045z"/><path fill="#50613B" d="M1076.863 548.152h10.044v-4.229h-10.044z"/><path fill="#50613B" d="M1093.964 548.152h10.045v-4.229h-10.045z"/><path fill="#50613B" d="M1111.066 548.152h10.045v-4.229h-10.045z"/><path fill="#50613B" d="M1128.167 548.152h10.046v-4.229h-10.046z"/><path fill="#50613B" d="M1145.27 548.152h10.044v-4.229h-10.044z"/><path fill="#50613B" d="M1162.371 548.152h10.046v-4.229h-10.046z"/><path fill="#50613B" d="M1179.474 548.152h10.043v-4.229h-10.043z"/><path fill="#50613B" d="M947.872 756.197h58.658v-8.169h-58.658z"/><path fill="#4F5E3D" d="M1175.081 756.197h58.658v-8.169h-58.658z"/><path fill="#AA5A1D" d="M940.254 829.712h7.618v-93.563h-7.618z"/><path fill="#D8D9D9" d="M937.654 792.954h10.218v-39.357h-10.218z"/><path fill="#D8D9D9" d="M937.654 829.712h10.218v-8.539h-10.218z"/><path fill="#AA5A1D" d="M1233.739 829.712h7.619v-93.563h-7.619z"/><path fill="#D8D9D9" d="M1233.739 792.954h10.218v-39.357h-10.218z"/><path fill="#D8D9D9" d="M1233.739 829.712h10.218v-8.539h-10.218z"/><path fill="#AC5F2D" d="M1041.052 942.377h20.79v-60.301h-20.79z"/><path fill="#D8D9D9" d="M1041.052 942.377h20.79v-11.139h-20.79z"/><path fill="#C5C5C6" d="M1057.749 942.377h4.093v-11.139h-4.093z"/><path fill="#965326" d="M1041.052 886.157h20.79v-17.076h-20.79z"/><path fill="#AC5F2D" d="M1119.031 942.379h20.79v-60.302h-20.79z"/><path fill="#D8D9D9" d="M1119.031 942.38h20.79v-11.14h-20.79z"/><path fill="#C5C5C6" d="M1135.727 942.38h4.094v-11.14h-4.094z"/><path fill="#965326" d="M1119.031 886.16h20.79v-17.076h-20.79z"/><path d="M1068.343 557.795h44.182c3.266 0 5.94 2.673 5.94 5.939v5.573c0 3.266-2.674 5.939-5.94 5.939h-44.182c-3.266 0-5.938-2.673-5.938-5.939v-5.573c0-3.266 2.672-5.939 5.938-5.939" fill="#576743"/><path fill="#868685" d="M712.275 847.787h54.836v-6.857h-54.836z"/><path fill="#B0B1B2" d="M704.051 859.577h11.241v-30.163h-11.241z"/><path fill="#868685" d="M704.051 859.576h11.241v-9.597h-11.241z"/><path d="M810.396 561.251h-31.257c-8.331 0-15.913 3.415-21.404 8.907-5.494 5.491-8.906 13.074-8.906 21.406v61.025h91.878v-61.025c0-8.332-3.413-15.914-8.904-21.406-5.494-5.491-13.075-8.907-21.406-8.907m-31.257-5.181h31.257c9.764 0 18.642 3.993 25.07 10.423 6.429 6.429 10.423 15.308 10.423 25.07v66.206h-102.24300000000001v-66.206c0-9.762 3.993-18.641 10.422-25.07 6.429-6.43 15.306-10.423 25.07-10.423" fill="#868685"/><path d="M770.057 642.792h49.421c5.778 0 10.501 4.722 10.501 10.502v10.501h-70.422v-10.501c0-5.78 4.724-10.502 10.5-10.502" fill="#59546D"/><path d="M739.93 854.511h109.675c12.817 0 23.304 10.486 23.304 23.305v23.307h-156.283v-23.307c0-12.819 10.486-23.305 23.304-23.305" fill="#5E5971"/><path d="M739.93 854.511h57.451c12.819 0 23.305 10.486 23.305 23.305v23.307h-104.059v-23.307c0-12.819 10.486-23.305 23.304-23.305" fill="#56698F"/><path d="M766.587 830.556h56.361c6.589 0 11.976 5.388 11.976 11.976v11.979h-80.311v-11.979c0-6.588 5.386-11.976 11.974-11.976" fill="#5E5971"/><path d="M766.587 830.556h29.523c6.589 0 11.976 5.39 11.976 11.976v11.979h-53.473v-11.979c0-6.586 5.387-11.976 11.974-11.976" fill="#56698F"/><path d="M819.443 704.11c26.591 9.991 45.514 35.645 45.514 65.728 0 21.848-9.986 41.364-25.637 54.237h-89.105c-15.651-12.873-25.635-32.389-25.635-54.237 0-30.083 18.922-55.736 45.512-65.728v-33.262h49.351v33.262z" fill="#B5CAD6"/><path d="M770.057 642.792h25.887c5.778 0 10.501 4.724 10.501 10.502v10.501h-46.889v-10.501c0-5.777 4.726-10.502 10.5-10.502" fill="#51658C"/><path fill="#FBD48A" d="M787.642 824.074h14.533v-37.713h-14.533z"/><path d="M742.781 792.116c-3.756-7.608-5.871-16.169-5.871-25.228 0-20.636 10.962-38.712 27.376-48.724-11.431 10.43-18.603 25.447-18.603 42.143 0 11.778 3.568 22.721 9.687 31.809h-12.59z" fill="#fff"/><path d="M794.768 627.775c9.376 0 17.265 6.369 19.579 15.017h-39.159c2.314-8.648 10.201-15.017 19.58-15.017" fill="#59546D"/><path d="M800.366 642.792h-25.177c1.709-6.384 6.449-11.523 12.589-13.781 6.14 2.259 10.881 7.397 12.589 13.781" fill="#51658C"/><path fill="#D0A264" d="M612.528 663.315h8.42v-159.173h-8.42z"/><path d="M616 490.147h1.473c3.846 0 6.989 3.145 6.989 6.99v22.569h-15.452v-22.569c0-3.846 3.145-6.99 6.99-6.99" fill="#E03324"/><path fill="#D0A264" d="M578.842 663.315h8.419v-159.173h-8.419z"/><path d="M582.315 490.147h1.473c3.845 0 6.99 3.145 6.99 6.99v22.569h-15.452v-22.569c0-3.846 3.145-6.99 6.99-6.99" fill="#E03324"/><path fill="#D0A264" d="M545.156 663.315h8.42v-159.173h-8.42z"/><path d="M548.63 490.147h1.473c3.844 0 6.99 3.145 6.99 6.99v22.569h-15.452v-22.569c0-3.846 3.145-6.99 6.989-6.99" fill="#E03324"/><path d="M532.791 376.825h199.982c6.735 0 12.244 5.509 12.244 12.244v24.49c0 6.735-5.509 12.244-12.244 12.244h-199.982c-6.736 0-12.244-5.509-12.244-12.244v-24.49c0-6.735 5.508-12.244 12.244-12.244" fill="#8F6121"/><path d="M532.791 376.825h199.982c6.735 0 12.244 5.509 12.244 12.244v8.162c0 6.735-5.509 12.245-12.244 12.245h-199.982c-6.736 0-12.244-5.509-12.244-12.245v-8.162c0-6.735 5.508-12.244 12.244-12.244" fill="#AD7A34"/><path d="M710.325 376.825h22.447c6.735 0 12.244 5.509 12.244 12.244v24.49c0 6.735-5.509 12.244-12.244 12.244h-22.447v-48.978z" fill="#664210"/><path fill="#664210" d="M544.009 425.804h11.733v-48.978h-11.733z"/><path fill="#8C6628" d="M745.017 408.913h445.115v-15.199h-445.115z"/><path d="M1190.131 397.178h323.751c2.274 0 4.134 1.862 4.134 4.136 0 2.276-1.861 4.136-4.134 4.136h-323.751v-8.273z" fill="#8C6628"/><path fill="#BC8E4C" d="M745.017 401.726h445.115v-8.012h-445.115z"/><path d="M1197.633 392.465h.002c1.122 0 2.039.919 2.039 2.04v28.319c0 1.123-.917 2.041-2.039 2.041h-.002c-1.121 0-2.039-.918-2.039-2.041v-28.319c0-1.121.918-2.04 2.039-2.04" fill="#575656"/><path d="M971.379 392.465h.002c1.123 0 2.04.919 2.04 2.04v28.319c0 1.123-.917 2.041-2.04 2.041h-.002c-1.121 0-2.04-.918-2.04-2.041v-28.319c0-1.121.919-2.04 2.04-2.04" fill="#575656"/><path fill="#742824" d="M1510.611 635.313h3.507v-229.863h-3.507z"/><path d="M1517.008 648.945c7.161 2.036 12.444 8.65 12.444 16.44v43.098c0 9.401-7.688 17.089-17.088 17.089h-.001c-9.398 0-17.087-7.688-17.087-17.089v-43.098c0-7.79 5.282-14.404 12.442-16.44v-42.713c0-2.554 2.091-4.642 4.643-4.642h.002c2.555 0 4.645 2.088 4.645 4.642v42.713z" fill="#fff"/><path d="M1529.453 698.929v9.554c0 9.401-7.688 17.089-17.088 17.089h-.001c-9.398 0-17.087-7.688-17.087-17.089v-9.554h34.177z" fill="#E03324"/><path fill="#E03324" d="M1495.277 691.87h34.177v-15.605h-34.177z"/><path d="M1526.589 814.029l-.004.264.004.278h-.011c-.139 3.483-1.61 6.625-3.915 8.932l-.007.007c-2.427 2.424-5.778 3.926-9.474 3.926-3.7 0-7.056-1.502-9.479-3.926-2.425-2.425-3.927-5.781-3.927-9.481 0-3.693 1.5-7.043 3.927-9.472l.008-.009c1.851-1.848 4.234-3.16 6.899-3.68v-4.724h3.506v8.335h-1.057c-2.593.033-4.934 1.093-6.63 2.789l-.007.007c-1.723 1.723-2.79 4.112-2.79 6.753 0 2.638 1.07 5.027 2.797 6.753 1.726 1.727 4.115 2.797 6.753 2.797 2.637 0 5.026-1.066 6.754-2.788l.007-.009c1.602-1.608 2.638-3.79 2.774-6.212h-5.85l4.802-5.835 4.799-5.835.06 5.835.056 5.293h.006z" fill="#868685"/><path fill="#96A7B1" d="M543.476 889.862h86.84v-149.977h-86.84z"/><path fill="#B5CAD6" d="M543.476 889.862h62.577v-149.977h-62.577z"/><path fill="#ECECEC" d="M557.53 889.862h17.867v-149.977h-17.867z"/><path d="M543.476 889.863h86.84v5.63c0 3.095-2.532 5.63-5.63 5.63h-75.58c-3.097 0-5.631-2.535-5.631-5.63v-5.63z" fill="#4E565A"/><path d="M543.476 889.863h62.577v5.632c0 3.097-2.532 5.629-5.628 5.629h-51.32c-3.097 0-5.629-2.532-5.629-5.629v-5.632z" fill="#3B3A39"/><path d="M543.476 889.863h62.577v5.632c0 3.097-2.532 5.629-5.628 5.629h-51.32c-3.097 0-5.629-2.532-5.629-5.629v-5.632z" fill="#748187"/><path d="M630.316 756.191h15.202c4.73 0 9.029 1.934 12.138 5.043 3.108 3.108 5.042 7.409 5.042 12.14v83.881c0 4.733-1.934 9.034-5.042 12.143-3.109 3.107-7.408 5.042-12.138 5.042h-15.202v-12.068h15.202c1.396 0 2.677-.58 3.605-1.509.928-.928 1.509-2.208 1.509-3.608v-83.881c0-1.398-.581-2.677-1.509-3.606-.929-.93-2.209-1.51-3.605-1.51h-15.202v-12.067z" fill="#4E565A"/><path d="M543.476 739.886h86.84v-5.631c0-3.094-2.532-5.63-5.63-5.63h-75.58c-3.097 0-5.631 2.536-5.631 5.63v5.631z" fill="#4E565A"/><path d="M543.476 739.886h62.577v-5.633c0-3.097-2.532-5.629-5.628-5.629h-51.32c-3.097 0-5.629 2.531-5.629 5.629v5.633z" fill="#748187"/><path d="M688.622 629.373c-1.569-1.569-3.742-2.544-6.145-2.544-2.396 0-4.574.974-6.143 2.544l-.006-.004c-1.566 1.57-2.539 3.747-2.539 6.149 0 2.401.974 4.58 2.539 6.15 1.571 1.566 3.748 2.539 6.149 2.539 2.405 0 4.58-.974 6.151-2.539l-.006-.004c1.571-1.571 2.545-3.747 2.545-6.146 0-2.401-.974-4.576-2.545-6.145zm23.111 56.663l-.006.311.006.327h-.014c-.164 4.098-1.895 7.797-4.607 10.512l-.01.009c-2.855 2.852-6.799 4.621-11.148 4.621-4.356 0-8.302-1.768-11.156-4.621-.898-.898-1.689-1.906-2.352-3.002-.663 1.095-1.455 2.104-2.353 3.002-2.854 2.852-6.8 4.621-11.156 4.621-4.35 0-8.293-1.768-11.149-4.621l-.009-.009c-2.712-2.715-4.443-6.414-4.607-10.512h-.014l.007-.327-.007-.311h.008l.065-6.228.072-6.869 5.646 6.869 5.65 6.866h-6.884c.158 2.851 1.377 5.419 3.263 7.313l.009.007c2.032 2.027 4.843 3.282 7.948 3.282 3.105 0 5.916-1.26 7.948-3.289 1.88-1.882 3.101-4.433 3.272-7.265v-38.18c-2.717-.484-5.151-1.799-7.024-3.669l-.01-.01c-2.388-2.391-3.871-5.7-3.871-9.345 0-3.645 1.483-6.953 3.871-9.344v-.01c2.396-2.394 5.706-3.873 9.354-3.873 3.654 0 6.961 1.479 9.356 3.873 2.392 2.393 3.871 5.701 3.871 9.354 0 3.649-1.479 6.959-3.871 9.355h-.01c-1.873 1.871-4.306 3.185-7.024 3.669v38.189h-.065c.174 2.828 1.393 5.374 3.273 7.256 2.032 2.03 4.843 3.289 7.948 3.289 3.105 0 5.916-1.255 7.948-3.282l.01-.007c1.885-1.894 3.105-4.462 3.262-7.313h-6.883l5.65-6.866 5.647-6.869.072 6.869.066 6.228h.007z" fill="#868685"/><path d="M683.896 490.436h108.536v35.033h-49.385v-.145c0-5.607-4.588-10.192-10.192-10.192h-48.958v-24.696z" fill="#BC8E4C"/><path d="M792.431 505.947v19.522h-49.385v-.145c0-5.607-4.588-10.192-10.192-10.192h-48.958v-9.185h108.536z" fill="#946E30"/><path d="M683.896 482.969h-15.103v38.107c0 4.155 3.399 7.551 7.55 7.551h7.553v-45.659z" fill="#C5C5C6"/><path d="M792.431 482.969h15.104v47.295c0 4.152-3.399 7.551-7.551 7.551h-7.553v-54.846z" fill="#C5C5C6"/><path d="M969.799 490.436c-9.376 21.812-37.083 37.621-69.809 37.621h-92.456v-37.621h162.264z" fill="#ECECEC"/><path d="M807.535 520.305v-29.869h153.691c-11.999 17.705-36.84 29.869-65.546 29.869h-88.146z" fill="#C5C5C6"/><path fill="#868685" d="M807.535 528.056h5.71v-37.621h-5.71z"/></g></g><path d="M680.86 1042.68h4.288l9.76 24.32h-4.256l-2.56-6.816h-10.368l-2.56 6.816h-4.064l9.76-24.32zm6.016 14.336l-4-10.624-3.968 10.624h7.968zm12.904-14.336h8.896c2.411 0 4.288.539 5.632 1.616 1.344 1.077 2.016 2.597 2.016 4.56 0 2.453-1.045 4.16-3.136 5.12 1.365.427 2.437 1.173 3.216 2.24.779 1.067 1.168 2.325 1.168 3.776 0 2.24-.731 3.968-2.192 5.184-1.461 1.216-3.547 1.824-6.256 1.824h-9.344v-24.32zm3.776 21.024h5.408c1.493 0 2.619-.315 3.376-.944.757-.629 1.136-1.563 1.136-2.8 0-2.603-1.621-3.904-4.864-3.904h-5.056v7.648zm0-10.944h4.192c1.579 0 2.736-.299 3.472-.896.736-.597 1.104-1.525 1.104-2.784 0-1.045-.352-1.824-1.056-2.336-.704-.512-1.781-.768-3.232-.768h-4.48v6.784zm31.496 11.168c1.579 0 3.013-.373 4.304-1.12 1.291-.747 2.32-1.813 3.088-3.2.768-1.387 1.152-2.976 1.152-4.768 0-1.685-.352-3.216-1.056-4.592-.704-1.376-1.712-2.469-3.024-3.28-1.312-.811-2.8-1.216-4.464-1.216-1.579 0-3.013.379-4.304 1.136-1.291.757-2.315 1.829-3.072 3.216-.757 1.387-1.136 2.965-1.136 4.736 0 1.685.352 3.216 1.056 4.592.704 1.376 1.707 2.469 3.008 3.28 1.301.811 2.784 1.216 4.448 1.216zm0 3.584c-2.304 0-4.416-.528-6.336-1.584s-3.456-2.555-4.608-4.496c-1.152-1.941-1.728-4.139-1.728-6.592 0-2.261.533-4.352 1.6-6.272 1.067-1.92 2.571-3.467 4.512-4.64 1.941-1.173 4.128-1.76 6.56-1.76 2.325 0 4.448.528 6.368 1.584s3.456 2.555 4.608 4.496c1.152 1.941 1.728 4.139 1.728 6.592 0 2.261-.533 4.352-1.6 6.272-1.067 1.92-2.576 3.467-4.528 4.64-1.952 1.173-4.144 1.76-6.576 1.76zm28.776 0c-3.307 0-5.877-.933-7.712-2.8-1.835-1.867-2.752-4.485-2.752-7.856v-14.176h4v13.856c0 2.453.549 4.299 1.648 5.536 1.099 1.237 2.725 1.856 4.88 1.856s3.787-.619 4.896-1.856 1.664-3.083 1.664-5.536v-13.856h4v14.176c0 3.371-.928 5.989-2.784 7.856-1.856 1.867-4.469 2.8-7.84 2.8zm23.72-21.472h-8.032v-3.36h20.064v3.36h-8.032v20.96h-4v-20.96zm56.84-3.36h4.288l9.76 24.32h-4.256l-2.56-6.816h-10.368l-2.56 6.816h-4.064l9.76-24.32zm6.016 14.336l-4-10.624-3.968 10.624h7.968zm23.272 10.336c-2.453 0-4.645-.501-6.576-1.504-1.931-1.003-3.456-2.443-4.576-4.32-1.12-1.877-1.68-4.053-1.68-6.528 0-2.411.539-4.571 1.616-6.48 1.077-1.909 2.613-3.419 4.608-4.528 1.995-1.109 4.293-1.664 6.896-1.664 1.323 0 2.661.181 4.016.544 1.355.363 2.523.843 3.504 1.44l-.672 3.456c-1.323-.64-2.533-1.109-3.632-1.408-1.099-.299-2.203-.448-3.312-.448-1.707 0-3.227.363-4.56 1.088-1.333.725-2.384 1.771-3.152 3.136-.768 1.365-1.152 2.944-1.152 4.736 0 1.771.357 3.323 1.072 4.656.715 1.333 1.749 2.373 3.104 3.12 1.355.747 2.949 1.12 4.784 1.12 1.131 0 2.336-.16 3.616-.48 1.28-.32 2.507-.768 3.68-1.344l.416 3.488c-2.432 1.28-5.099 1.92-8 1.92zm20.104-21.312h-8.032v-3.36h20.064v3.36h-8.032v20.96h-4v-20.96zm17.256-3.36h4v24.32h-4v-24.32zm8.904 0h4.416l7.136 20.032 7.136-20.032h4.256l-9.344 24.32h-4.288l-9.312-24.32zm27.848 0h4v24.32h-4v-24.32zm17.256 3.36h-8.032v-3.36h20.064v3.36h-8.032v20.96h-4v-20.96zm17.256-3.36h4v24.32h-4v-24.32zm11.208 0h15.584v3.36h-11.744v6.88h10.464v3.36h-10.464v7.36h12.224v3.36h-16.064v-24.32zm29.256 24.832c-1.429 0-2.896-.187-4.4-.56-1.504-.373-2.704-.848-3.6-1.424l.448-3.584c1.045.64 2.24 1.152 3.584 1.536 1.344.384 2.613.576 3.808.576 1.643 0 2.912-.309 3.808-.928.896-.619 1.344-1.493 1.344-2.624 0-.96-.368-1.733-1.104-2.32-.736-.587-2.117-1.2-4.144-1.84-2.645-.832-4.523-1.813-5.632-2.944s-1.664-2.645-1.664-4.544c0-1.301.336-2.459 1.008-3.472.672-1.013 1.643-1.803 2.912-2.368s2.757-.848 4.464-.848c1.237 0 2.485.155 3.744.464 1.259.309 2.368.731 3.328 1.264l-.608 3.488c-.939-.533-1.979-.96-3.12-1.28-1.141-.32-2.224-.48-3.248-.48-1.493 0-2.635.277-3.424.832-.789.555-1.184 1.355-1.184 2.4 0 .683.149 1.237.448 1.664.299.427.779.811 1.44 1.152.661.341 1.6.704 2.816 1.088 2.005.64 3.584 1.328 4.736 2.064 1.152.736 1.979 1.563 2.48 2.48.501.917.752 1.984.752 3.2 0 1.387-.357 2.608-1.072 3.664-.715 1.056-1.749 1.877-3.104 2.464s-2.96.88-4.816.88zm47.592-24.832h8.896c2.411 0 4.288.539 5.632 1.616 1.344 1.077 2.016 2.597 2.016 4.56 0 2.453-1.045 4.16-3.136 5.12 1.365.427 2.437 1.173 3.216 2.24.779 1.067 1.168 2.325 1.168 3.776 0 2.24-.731 3.968-2.192 5.184-1.461 1.216-3.547 1.824-6.256 1.824h-9.344v-24.32zm3.776 21.024h5.408c1.493 0 2.619-.315 3.376-.944.757-.629 1.136-1.563 1.136-2.8 0-2.603-1.621-3.904-4.864-3.904h-5.056v7.648zm0-10.944h4.192c1.579 0 2.736-.299 3.472-.896.736-.597 1.104-1.525 1.104-2.784 0-1.045-.352-1.824-1.056-2.336-.704-.512-1.781-.768-3.232-.768h-4.48v6.784zm19.944-10.08h4v20.8h11.424v3.52h-15.424v-24.32zm31.4 21.248c1.579 0 3.013-.373 4.304-1.12 1.291-.747 2.32-1.813 3.088-3.2.768-1.387 1.152-2.976 1.152-4.768 0-1.685-.352-3.216-1.056-4.592-.704-1.376-1.712-2.469-3.024-3.28-1.312-.811-2.8-1.216-4.464-1.216-1.579 0-3.013.379-4.304 1.136-1.291.757-2.315 1.829-3.072 3.216-.757 1.387-1.136 2.965-1.136 4.736 0 1.685.352 3.216 1.056 4.592.704 1.376 1.707 2.469 3.008 3.28 1.301.811 2.784 1.216 4.448 1.216zm0 3.584c-2.304 0-4.416-.528-6.336-1.584s-3.456-2.555-4.608-4.496c-1.152-1.941-1.728-4.139-1.728-6.592 0-2.261.533-4.352 1.6-6.272 1.067-1.92 2.571-3.467 4.512-4.64 1.941-1.173 4.128-1.76 6.56-1.76 2.325 0 4.448.528 6.368 1.584s3.456 2.555 4.608 4.496c1.152 1.941 1.728 4.139 1.728 6.592 0 2.261-.533 4.352-1.6 6.272-1.067 1.92-2.576 3.467-4.528 4.64-1.952 1.173-4.144 1.76-6.576 1.76zm30.568-.16c-2.517 0-4.763-.496-6.736-1.488-1.973-.992-3.52-2.421-4.64-4.288-1.12-1.867-1.68-4.048-1.68-6.544 0-2.453.544-4.635 1.632-6.544 1.088-1.909 2.651-3.413 4.688-4.512 2.037-1.099 4.4-1.648 7.088-1.648 1.472 0 2.923.171 4.352.512 1.429.341 2.741.821 3.936 1.44l-.672 3.52c-1.131-.619-2.373-1.088-3.728-1.408-1.355-.32-2.736-.48-4.144-.48-1.749 0-3.301.363-4.656 1.088-1.355.725-2.416 1.771-3.184 3.136-.768 1.365-1.152 2.955-1.152 4.768 0 2.752.816 4.928 2.448 6.528 1.632 1.6 3.845 2.4 6.64 2.4.917 0 1.749-.048 2.496-.144.747-.096 1.589-.272 2.528-.528v-6.08h-5.12v-3.328h9.088v11.84c-2.816 1.173-5.877 1.76-9.184 1.76zm59.208 0c-2.453 0-4.645-.501-6.576-1.504-1.931-1.003-3.456-2.443-4.576-4.32-1.12-1.877-1.68-4.053-1.68-6.528 0-2.411.539-4.571 1.616-6.48 1.077-1.909 2.613-3.419 4.608-4.528 1.995-1.109 4.293-1.664 6.896-1.664 1.323 0 2.661.181 4.016.544 1.355.363 2.523.843 3.504 1.44l-.672 3.456c-1.323-.64-2.533-1.109-3.632-1.408-1.099-.299-2.203-.448-3.312-.448-1.707 0-3.227.363-4.56 1.088-1.333.725-2.384 1.771-3.152 3.136-.768 1.365-1.152 2.944-1.152 4.736 0 1.771.357 3.323 1.072 4.656.715 1.333 1.749 2.373 3.104 3.12 1.355.747 2.949 1.12 4.784 1.12 1.131 0 2.336-.16 3.616-.48 1.28-.32 2.507-.768 3.68-1.344l.416 3.488c-2.432 1.28-5.099 1.92-8 1.92zm24.968-3.424c1.579 0 3.013-.373 4.304-1.12 1.291-.747 2.32-1.813 3.088-3.2.768-1.387 1.152-2.976 1.152-4.768 0-1.685-.352-3.216-1.056-4.592-.704-1.376-1.712-2.469-3.024-3.28-1.312-.811-2.8-1.216-4.464-1.216-1.579 0-3.013.379-4.304 1.136-1.291.757-2.315 1.829-3.072 3.216-.757 1.387-1.136 2.965-1.136 4.736 0 1.685.352 3.216 1.056 4.592.704 1.376 1.707 2.469 3.008 3.28 1.301.811 2.784 1.216 4.448 1.216zm0 3.584c-2.304 0-4.416-.528-6.336-1.584s-3.456-2.555-4.608-4.496c-1.152-1.941-1.728-4.139-1.728-6.592 0-2.261.533-4.352 1.6-6.272 1.067-1.92 2.571-3.467 4.512-4.64 1.941-1.173 4.128-1.76 6.56-1.76 2.325 0 4.448.528 6.368 1.584s3.456 2.555 4.608 4.496c1.152 1.941 1.728 4.139 1.728 6.592 0 2.261-.533 4.352-1.6 6.272-1.067 1.92-2.576 3.467-4.528 4.64-1.952 1.173-4.144 1.76-6.576 1.76zm18.472-24.832h3.68l13.952 18.528v-18.528h3.68v24.32h-3.648l-13.984-18.496v18.496h-3.68v-24.32zm34.568 3.36h-8.032v-3.36h20.064v3.36h-8.032v20.96h-4v-20.96zm21.864-3.36h4.288l9.76 24.32h-4.256l-2.56-6.816h-10.368l-2.56 6.816h-4.064l9.76-24.32zm6.016 14.336l-4-10.624-3.968 10.624h7.968zm23.272 10.336c-2.453 0-4.645-.501-6.576-1.504-1.931-1.003-3.456-2.443-4.576-4.32-1.12-1.877-1.68-4.053-1.68-6.528 0-2.411.539-4.571 1.616-6.48 1.077-1.909 2.613-3.419 4.608-4.528 1.995-1.109 4.293-1.664 6.896-1.664 1.323 0 2.661.181 4.016.544 1.355.363 2.523.843 3.504 1.44l-.672 3.456c-1.323-.64-2.533-1.109-3.632-1.408-1.099-.299-2.203-.448-3.312-.448-1.707 0-3.227.363-4.56 1.088-1.333.725-2.384 1.771-3.152 3.136-.768 1.365-1.152 2.944-1.152 4.736 0 1.771.357 3.323 1.072 4.656.715 1.333 1.749 2.373 3.104 3.12 1.355.747 2.949 1.12 4.784 1.12 1.131 0 2.336-.16 3.616-.48 1.28-.32 2.507-.768 3.68-1.344l.416 3.488c-2.432 1.28-5.099 1.92-8 1.92zm20.104-21.312h-8.032v-3.36h20.064v3.36h-8.032v20.96h-4v-20.96z" fill="#fff"/><path d="M708.376 275.792c-5.664 0-10.68-1.116-15.048-3.348-4.368-2.232-7.8-5.46-10.296-9.684-2.496-4.224-3.744-9.168-3.744-14.832 0-5.376 1.212-10.212 3.636-14.508 2.424-4.296 5.892-7.692 10.404-10.188 4.512-2.496 9.72-3.744 15.624-3.744 2.976 0 6.012.396 9.108 1.188 3.096.792 5.748 1.86 7.956 3.204l-1.8 9.288c-5.232-2.592-10.272-3.888-15.12-3.888-3.552 0-6.72.744-9.504 2.232-2.784 1.488-4.968 3.624-6.552 6.408-1.584 2.784-2.376 6.048-2.376 9.792 0 5.616 1.68 10.068 5.04 13.356 3.36 3.288 7.896 4.932 13.608 4.932 2.496 0 5.16-.36 7.992-1.08 2.832-.72 5.496-1.728 7.992-3.024l1.152 9.504c-2.448 1.392-5.256 2.472-8.424 3.24-3.168.768-6.384 1.152-9.648 1.152zm51.936-55.512h11.664l21.744 54.72h-11.664l-5.184-14.4h-22.032l-5.256 14.4h-11.016l21.744-54.72zm13.536 31.824l-8.064-22.032-7.992 22.032h16.056zm35.88-31.824h10.152l18.432 34.848 17.928-34.848h10.152l3.024 54.72h-10.584l-1.44-37.872-15.048 28.728h-8.496l-15.048-27.936-1.44 37.08h-10.584l2.952-54.72zm77.64 0h17.856c3.984 0 7.488.72 10.512 2.16 3.024 1.44 5.388 3.504 7.092 6.192 1.704 2.688 2.556 5.856 2.556 9.504 0 5.52-1.836 9.924-5.508 13.212-3.672 3.288-8.58 4.932-14.724 4.932h-7.128v18.72h-10.656v-54.72zm10.656 27.144h5.688c3.6 0 6.348-.792 8.244-2.376 1.896-1.584 2.844-3.864 2.844-6.84s-.936-5.232-2.808-6.768c-1.872-1.536-4.632-2.304-8.28-2.304h-5.688v18.288zm80.256 28.728c-3.408 0-6.84-.42-10.296-1.26-3.456-.84-6.168-1.932-8.136-3.276l1.08-9.432c2.304 1.488 4.992 2.664 8.064 3.528 3.072.864 6.024 1.296 8.856 1.296 3.312 0 5.868-.612 7.668-1.836 1.8-1.224 2.7-2.94 2.7-5.148 0-1.872-.756-3.384-2.268-4.536-1.512-1.152-4.38-2.4-8.604-3.744-5.952-1.872-10.2-4.104-12.744-6.696-2.544-2.592-3.816-6.024-3.816-10.296 0-3.072.78-5.784 2.34-8.136 1.56-2.352 3.828-4.188 6.804-5.508 2.976-1.32 6.456-1.98 10.44-1.98 2.832 0 5.712.36 8.64 1.08 2.928.72 5.496 1.704 7.704 2.952l-1.512 9.144c-2.064-1.2-4.404-2.172-7.02-2.916-2.616-.744-5.1-1.116-7.452-1.116-3.072 0-5.388.552-6.948 1.656-1.56 1.104-2.34 2.688-2.34 4.752 0 1.296.3 2.364.9 3.204.6.84 1.584 1.596 2.952 2.268 1.368.672 3.324 1.416 5.868 2.232 6.528 2.064 11.16 4.428 13.896 7.092 2.736 2.664 4.104 6.132 4.104 10.404 0 5.04-1.86 9.012-5.58 11.916-3.72 2.904-8.82 4.356-15.3 4.356zm37.752-55.872h11.016v54.72h-11.016v-54.72zm43.656 9.072h-17.568v-9.072h46.152v9.072h-17.568v45.648h-11.016v-45.648zm43.656-9.072h36.144v9.216h-25.488v13.104h22.536v9.144h-22.536v14.04h26.496v9.216h-37.152v-54.72zm54.384 0h11.016v45.648h24.768v9.072h-35.784v-54.72zm50.856 0h36.144v9.216h-25.488v13.104h22.536v9.144h-22.536v14.04h26.496v9.216h-37.152v-54.72zm71.592 0h11.664l21.744 54.72h-11.664l-5.184-14.4h-22.032l-5.256 14.4h-11.016l21.744-54.72zm13.536 31.824l-8.064-22.032-7.992 22.032h16.056zm34.08-31.824h35.208v9.216h-24.336v14.616h21.024v9.144h-21.024v21.744h-10.872v-54.72z" fill="#FBBC09"/></g></svg>