<?xml version="1.0" encoding="utf-8"?>
<!-- Generator: Adobe Illustrator 19.2.1, SVG Export Plug-In . SVG Version: 6.00 Build 0)  -->
<svg version="1.1" id="Layer_1" xmlns="http://www.w3.org/2000/svg" xmlns:xlink="http://www.w3.org/1999/xlink" x="0px" y="0px"
	 viewBox="0 0 305.5 237.8" style="enable-background:new 0 0 305.5 237.8;" xml:space="preserve">
<style type="text/css">
	.st0{fill:#8BCD3F;}
	.st1{fill:#5A6575;}
	.st2{fill:#FFFFFF;}
</style>
<g>
	<polygon class="st0" points="188.5,9.5 185.6,63.9 279.2,41.5 	"/>
	<polygon class="st1" points="235.8,179.2 202,121.6 180.6,105.2 140.5,142.6 123,145 84.9,188.1 0,237.8 305.5,237.8 	"/>
	<path class="st2" d="M202,121.6l-18.6-14.3l5.1-97.9c1.5-0.8,2.6-2.3,2.7-4.2c0.1-2.8-2-5.1-4.7-5.3c-2.8-0.1-5.1,2-5.3,4.7
		c-0.1,1.8,0.8,3.5,2.3,4.4l-5.1,98.2l-37.8,35.2L123,145l-22.9,25.9l36.7-13.9l29.8,8.7l25.7-23.6l25.3,6.2L202,121.6z"/>
</g>
</svg>
