<?xml version="1.0" encoding="utf-8"?>
<!-- Generator: Adobe Illustrator 19.2.1, SVG Export Plug-In . SVG Version: 6.00 Build 0)  -->
<svg version="1.1" id="Layer_1" xmlns="http://www.w3.org/2000/svg" xmlns:xlink="http://www.w3.org/1999/xlink" x="0px" y="0px"
	 viewBox="0 0 253.6 141.6" style="enable-background:new 0 0 253.6 141.6;" xml:space="preserve">
<style type="text/css">
	.st0{fill:#FFFFFF;}
	.st1{fill:none;stroke:#FFFFFF;stroke-width:0.25;stroke-miterlimit:10;}
	.st2{fill:#8992A1;}
</style>
<circle class="st0" cx="157.9" cy="25.6" r="0.5"/>
<circle class="st0" cx="93.2" cy="43" r="0.5"/>
<circle class="st0" cx="145.2" cy="133.9" r="0.5"/>
<circle class="st0" cx="0.5" cy="95.2" r="0.5"/>
<circle class="st0" cx="228.5" cy="3.8" r="0.5"/>
<circle class="st0" cx="227.5" cy="134.4" r="0.5"/>
<circle class="st0" cx="60.4" cy="132.9" r="0.5"/>
<circle class="st0" cx="36" cy="34.6" r="0.5"/>
<path class="st0" d="M177.7,94c0.3-0.2,0.2-0.3-0.1-0.3H177l-0.2-0.5c-0.1-0.3-0.3-0.3-0.4,0l-0.2,0.5h-0.6c-0.3,0-0.4,0.2-0.1,0.3
	l0.5,0.3l-0.2,0.5c-0.1,0.3,0,0.4,0.3,0.2l0,0l0.5-0.3l0.5,0.3c0.3,0.2,0.4,0.1,0.3-0.2l-0.2-0.5L177.7,94z"/>
<path class="st0" d="M201.8,133.9c0.3-0.2,0.2-0.3-0.1-0.3h-0.6l-0.2-0.5c-0.1-0.3-0.3-0.3-0.4,0l-0.2,0.5h-0.6
	c-0.3,0-0.4,0.2-0.1,0.3l0.5,0.3l-0.2,0.5c-0.1,0.3,0,0.4,0.3,0.2l0,0l0.5-0.3l0.5,0.3c0.3,0.2,0.4,0.1,0.3-0.2l-0.2-0.5
	L201.8,133.9z"/>
<path class="st0" d="M211.3,47.5c0.3-0.2,0.2-0.3-0.1-0.3h-0.6l-0.2-0.5c-0.1-0.3-0.3-0.3-0.4,0l-0.2,0.5h-0.6
	c-0.3,0-0.4,0.2-0.1,0.3l0.5,0.3l-0.2,0.5c-0.1,0.3,0,0.4,0.3,0.2l0,0l0.5-0.3l0.5,0.3c0.3,0.2,0.4,0.1,0.3-0.2l-0.2-0.5L211.3,47.5
	z"/>
<path class="st0" d="M185.1,83.8c0.3-0.2,0.2-0.3-0.1-0.3h-0.6l-0.2-0.5c-0.1-0.3-0.3-0.3-0.4,0l-0.2,0.5h-0.6
	c-0.3,0-0.4,0.2-0.1,0.3l0.5,0.3l-0.2,0.5c-0.1,0.3,0,0.4,0.3,0.2l0,0l0.5-0.3l0.5,0.3c0.3,0.2,0.4,0.1,0.3-0.2l-0.2-0.5L185.1,83.8
	z"/>
<path class="st0" d="M253.4,48.7c0.3-0.2,0.2-0.3-0.1-0.3h-0.6l-0.2-0.5c-0.1-0.3-0.3-0.3-0.4,0l-0.2,0.5h-0.6
	c-0.3,0-0.4,0.2-0.1,0.3l0.5,0.3l-0.2,0.5c-0.1,0.3,0,0.4,0.3,0.2l0,0l0.5-0.3l0.5,0.3c0.3,0.2,0.4,0.1,0.3-0.2L253,49L253.4,48.7z"
	/>
<path class="st0" d="M252.2,91.7c0.3-0.2,0.2-0.3-0.1-0.3h-0.6l-0.2-0.5c-0.1-0.3-0.3-0.3-0.4,0l-0.2,0.5h-0.6
	c-0.3,0-0.4,0.2-0.1,0.3l0.5,0.3l-0.2,0.5c-0.1,0.3,0,0.4,0.3,0.2l0,0l0.5-0.3l0.5,0.3c0.3,0.2,0.4,0.1,0.3-0.2l-0.2-0.5L252.2,91.7
	z"/>
<path class="st0" d="M33.4,140.4c0.3-0.2,0.2-0.3-0.1-0.3h-0.6l-0.2-0.5c-0.1-0.3-0.3-0.3-0.4,0l-0.2,0.5h-0.6
	c-0.3,0-0.4,0.2-0.1,0.3l0.5,0.3l-0.2,0.5c-0.1,0.3,0,0.4,0.3,0.2l0,0l0.5-0.3l0.5,0.3c0.3,0.2,0.4,0.1,0.3-0.2l-0.2-0.5L33.4,140.4
	z"/>
<path class="st0" d="M54.2,84.9c0.3-0.2,0.2-0.3-0.1-0.3h-0.6L53.3,84c-0.1-0.3-0.3-0.3-0.4,0l-0.2,0.5h-0.6c-0.3,0-0.4,0.2-0.1,0.3
	l0.5,0.3l-0.2,0.5c-0.1,0.3,0,0.4,0.3,0.2l0,0l0.5-0.3l0.5,0.3c0.3,0.2,0.4,0.1,0.3-0.2l-0.2-0.5L54.2,84.9z"/>
<path class="st0" d="M22.9,65.5c0.3-0.2,0.2-0.3-0.1-0.3h-0.6l-0.2-0.5c-0.1-0.3-0.3-0.3-0.4,0l-0.2,0.5H21c-0.3,0-0.4,0.2-0.1,0.3
	l0.5,0.3l-0.2,0.5c-0.1,0.3,0,0.4,0.3,0.2l0,0l0.5-0.3l0.5,0.3c0.3,0.2,0.4,0.1,0.3-0.2l-0.2-0.5L22.9,65.5z"/>
<path class="st0" d="M48.4,7.3C48.7,7.1,48.6,7,48.3,7h-0.6l-0.2-0.5c-0.1-0.3-0.3-0.3-0.4,0L47,7h-0.6c-0.3,0-0.4,0.2-0.1,0.3
	l0.5,0.3l-0.2,0.5c-0.1,0.3,0,0.4,0.3,0.2l0,0l0.5-0.3l0.5,0.3c0.3,0.2,0.4,0.1,0.3-0.2L48,7.6L48.4,7.3z"/>
<path class="st0" d="M107.4,53.9h-1l-0.3-0.9c0,0,0,0,0,0c-0.2-0.5-0.4-0.5-0.6,0l-0.3,0.9h-1c-0.5,0-0.6,0.3-0.2,0.6l0.8,0.6
	l-0.3,0.9c0,0,0,0,0,0c-0.2,0.5,0.1,0.7,0.5,0.3l0,0l0.8-0.6l0.8,0.6c0.4,0.3,0.6,0.2,0.5-0.3l-0.3-0.9l0.8-0.6v0
	C108,54.1,107.9,53.9,107.4,53.9z M105.8,55.1c-0.3,0-0.5-0.2-0.5-0.5c0-0.3,0.2-0.5,0.5-0.5c0.3,0,0.5,0.2,0.5,0.5
	C106.3,54.8,106.1,55.1,105.8,55.1z"/>
<path class="st0" d="M192.9,108.5h-1l-0.3-0.9c0,0,0,0,0,0c-0.2-0.5-0.4-0.5-0.6,0l-0.3,0.9h-1c-0.5,0-0.6,0.3-0.2,0.6l0.8,0.6
	l-0.3,0.9c0,0,0,0,0,0c-0.2,0.5,0.1,0.7,0.5,0.3l0,0l0.8-0.6l0.8,0.6c0.4,0.3,0.6,0.2,0.5-0.3l-0.3-0.9l0.8-0.6v0
	C193.6,108.7,193.5,108.5,192.9,108.5z M191.4,109.7c-0.3,0-0.5-0.2-0.5-0.5c0-0.3,0.2-0.5,0.5-0.5c0.3,0,0.5,0.2,0.5,0.5
	C191.9,109.5,191.7,109.7,191.4,109.7z"/>
<path class="st0" d="M238.6,50.6h-1l-0.3-0.9c0,0,0,0,0,0c-0.2-0.5-0.4-0.5-0.6,0l-0.3,0.9h-1c-0.5,0-0.6,0.3-0.2,0.6l0.8,0.6
	l-0.3,0.9c0,0,0,0,0,0c-0.2,0.5,0.1,0.7,0.5,0.3l0,0l0.8-0.6l0.8,0.6c0.4,0.3,0.6,0.2,0.5-0.3l-0.3-0.9l0.8-0.6v0
	C239.2,50.8,239.2,50.6,238.6,50.6z M237.1,51.8c-0.3,0-0.5-0.2-0.5-0.5c0-0.3,0.2-0.5,0.5-0.5c0.3,0,0.5,0.2,0.5,0.5
	C237.6,51.6,237.4,51.8,237.1,51.8z"/>
<path class="st0" d="M216.4,100.9h-1l-0.3-0.9c0,0,0,0,0,0c-0.2-0.5-0.4-0.5-0.6,0l-0.3,0.9h-1c-0.5,0-0.6,0.3-0.2,0.6l0.8,0.6
	l-0.3,0.9c0,0,0,0,0,0c-0.2,0.5,0.1,0.7,0.5,0.3l0,0l0.8-0.6l0.8,0.6c0.4,0.3,0.6,0.2,0.5-0.3l-0.3-0.9l0.8-0.6v0
	C217,101.1,217,100.9,216.4,100.9z M214.9,102.1c-0.3,0-0.5-0.2-0.5-0.5c0-0.3,0.2-0.5,0.5-0.5c0.3,0,0.5,0.2,0.5,0.5
	C215.4,101.9,215.2,102.1,214.9,102.1z"/>
<path class="st0" d="M59.3,91.4h-1l-0.3-0.9c0,0,0,0,0,0c-0.2-0.5-0.4-0.5-0.6,0l-0.3,0.9h-1c-0.5,0-0.6,0.3-0.2,0.6l0.8,0.6
	l-0.3,0.9c0,0,0,0,0,0c-0.2,0.5,0.1,0.7,0.5,0.3l0,0l0.8-0.6l0.8,0.6c0.4,0.3,0.6,0.2,0.5-0.3l-0.3-0.9l0.8-0.6v0
	C59.9,91.7,59.9,91.4,59.3,91.4z M57.8,92.6c-0.3,0-0.5-0.2-0.5-0.5c0-0.3,0.2-0.5,0.5-0.5c0.3,0,0.5,0.2,0.5,0.5
	C58.3,92.4,58.1,92.6,57.8,92.6z"/>
<path class="st0" d="M81.8,2.6h-1l-0.3-0.9c0,0,0,0,0,0c-0.2-0.5-0.4-0.5-0.6,0l-0.3,0.9h-1c-0.5,0-0.6,0.3-0.2,0.6l0.8,0.6L79,4.6
	c0,0,0,0,0,0c-0.2,0.5,0.1,0.7,0.5,0.3l0,0l0.8-0.6L81,4.9c0.4,0.3,0.6,0.2,0.5-0.3l-0.3-0.9L82,3.1v0C82.4,2.8,82.3,2.6,81.8,2.6z
	 M80.2,3.8c-0.3,0-0.5-0.2-0.5-0.5c0-0.3,0.2-0.5,0.5-0.5c0.3,0,0.5,0.2,0.5,0.5C80.7,3.5,80.5,3.8,80.2,3.8z"/>
<path class="st0" d="M221,2.1l-0.5-0.5l0.5-0.5c0.3-0.3,0.2-0.4-0.2-0.3l0,0l-0.7,0.2l-0.2-0.7v0c-0.1-0.4-0.3-0.4-0.4,0l-0.2,0.7
	l-0.7-0.2h0c-0.4-0.1-0.5,0.1-0.2,0.3l0,0l0.5,0.5l-0.5,0.5l0,0c-0.3,0.3-0.2,0.4,0.2,0.3h0l0.7-0.2l0.2,0.7c0.1,0.4,0.3,0.4,0.4,0
	l0.2-0.7l0.7,0.2l0,0C221.2,2.6,221.3,2.4,221,2.1z"/>
<path class="st0" d="M125.8,102.6l-0.5-0.5l0.5-0.5c0.3-0.3,0.2-0.4-0.2-0.3l0,0l-0.7,0.2l-0.2-0.7v0c-0.1-0.4-0.3-0.4-0.4,0
	l-0.2,0.7l-0.7-0.2h0c-0.4-0.1-0.5,0.1-0.2,0.3l0,0l0.5,0.5l-0.5,0.5l0,0c-0.3,0.3-0.2,0.4,0.2,0.3h0l0.7-0.2l0.2,0.7
	c0.1,0.4,0.3,0.4,0.4,0l0.2-0.7l0.7,0.2l0,0C126,103,126.1,102.9,125.8,102.6z"/>
<path class="st0" d="M51.5,108.6l-0.5-0.5l0.5-0.5c0.3-0.3,0.2-0.4-0.2-0.3l0,0l-0.7,0.2l-0.2-0.7v0c-0.1-0.4-0.3-0.4-0.4,0
	l-0.2,0.7l-0.7-0.2h0c-0.4-0.1-0.5,0.1-0.2,0.3l0,0l0.5,0.5l-0.5,0.5l0,0c-0.3,0.3-0.2,0.4,0.2,0.3h0l0.7-0.2l0.2,0.7
	c0.1,0.4,0.3,0.4,0.4,0l0.2-0.7l0.7,0.2l0,0C51.7,109,51.8,108.9,51.5,108.6z"/>
<path class="st0" d="M218.2,137.8l-0.5-0.5l0.5-0.5c0.3-0.3,0.2-0.4-0.2-0.3l0,0l-0.7,0.2l-0.2-0.7v0c-0.1-0.4-0.3-0.4-0.4,0
	l-0.2,0.7l-0.7-0.2h0c-0.4-0.1-0.5,0.1-0.2,0.3l0,0l0.5,0.5l-0.5,0.5l0,0c-0.3,0.3-0.2,0.4,0.2,0.3h0l0.7-0.2l0.2,0.7
	c0.1,0.4,0.3,0.4,0.4,0l0.2-0.7l0.7,0.2l0,0C218.3,138.2,218.4,138.1,218.2,137.8z"/>
<path class="st0" d="M191.3,127.4l-0.5-0.5l0.5-0.5c0.3-0.3,0.2-0.4-0.2-0.3l0,0l-0.7,0.2l-0.2-0.7v0c-0.1-0.4-0.3-0.4-0.4,0
	l-0.2,0.7l-0.7-0.2h0c-0.4-0.1-0.5,0.1-0.2,0.3l0,0l0.5,0.5l-0.5,0.5l0,0c-0.3,0.3-0.2,0.4,0.2,0.3h0l0.7-0.2l0.2,0.7
	c0.1,0.4,0.3,0.4,0.4,0l0.2-0.7l0.7,0.2l0,0C191.4,127.8,191.5,127.6,191.3,127.4z"/>
<path class="st0" d="M197.3,39.6l-0.5-0.5l0.5-0.5c0.3-0.3,0.2-0.4-0.2-0.3l0,0l-0.7,0.2l-0.2-0.7v0c-0.1-0.4-0.3-0.4-0.4,0
	l-0.2,0.7l-0.7-0.2h0c-0.4-0.1-0.5,0.1-0.2,0.3l0,0l0.5,0.5l-0.5,0.5l0,0c-0.3,0.3-0.2,0.4,0.2,0.3h0l0.7-0.2l0.2,0.7
	c0.1,0.4,0.3,0.4,0.4,0l0.2-0.7l0.7,0.2l0,0C197.4,40.1,197.5,39.9,197.3,39.6z"/>
<path class="st0" d="M75.1,84.3l-0.5-0.5l0.5-0.5c0.3-0.3,0.2-0.4-0.2-0.3l0,0l-0.7,0.2L74,82.4v0c-0.1-0.4-0.3-0.4-0.4,0l-0.2,0.7
	l-0.7-0.2h0c-0.4-0.1-0.5,0.1-0.2,0.3l0,0l0.5,0.5l-0.5,0.5l0,0c-0.3,0.3-0.2,0.4,0.2,0.3h0l0.7-0.2l0.2,0.7c0.1,0.4,0.3,0.4,0.4,0
	l0.2-0.7l0.7,0.2l0,0C75.2,84.7,75.3,84.6,75.1,84.3z"/>
<path class="st0" d="M3.2,39.6l-0.5-0.5l0.5-0.5c0.3-0.3,0.2-0.4-0.2-0.3l0,0l-0.7,0.2l-0.2-0.7v0c-0.1-0.4-0.3-0.4-0.4,0l-0.2,0.7
	l-0.7-0.2h0c-0.4-0.1-0.5,0.1-0.2,0.3l0,0l0.5,0.5l-0.5,0.5l0,0c-0.3,0.3-0.2,0.4,0.2,0.3h0l0.7-0.2l0.2,0.7c0.1,0.4,0.3,0.4,0.4,0
	l0.2-0.7L3,40l0,0C3.4,40.1,3.5,39.9,3.2,39.6z"/>
<path class="st0" d="M178.5,16.4l-1.2-0.3l0.6-1l0.1-0.1c0.3-0.5,0.1-0.6-0.3-0.3l-0.2,0.1l-0.9,0.5l-0.2-1l0-0.1l0-0.1
	c-0.1-0.5-0.3-0.5-0.5,0l-0.1,0.2c0,0,0,0,0,0l-0.2,1l-0.9-0.5l-0.2-0.1c-0.5-0.3-0.6-0.1-0.3,0.3l0.1,0.1l0.6,1l-1.2,0.3
	c-0.5,0.1-0.5,0.3,0,0.5l1.2,0.3l-0.6,1l-0.1,0.1c-0.3,0.5-0.1,0.6,0.3,0.3l0.1-0.1l0.1-0.1l0.9-0.5l0.2,1c0,0,0,0,0,0l0.1,0.2
	c0.1,0.5,0.3,0.5,0.5,0l0-0.1l0-0.1l0.2-1l0.9,0.5l0.1,0.1l0.1,0.1c0.5,0.3,0.6,0.1,0.3-0.3l-0.1-0.1l-0.6-1l1.2-0.3
	C179,16.7,179,16.5,178.5,16.4z M176,17.4c-0.4,0-0.8-0.3-0.8-0.8c0-0.4,0.3-0.7,0.8-0.7c0.4,0,0.8,0.3,0.8,0.7
	C176.7,17,176.4,17.4,176,17.4z"/>
<path class="st0" d="M51.3,106l-0.2-0.1c0.5-1.1,1-2.3,1.5-3.4c1.4-3,2.7-6.1,3.7-7.9l0.2,0.1c-0.9,1.8-2.3,4.9-3.7,7.9
	C52.3,103.7,51.8,104.9,51.3,106z"/>
<path class="st0" d="M52.6,107.4l-0.2-0.2c6.4-5.6,15.6-16.1,20-21.8l0.2,0.2C68.5,90.8,59.4,101.5,52.6,107.4z"/>
<path class="st0" d="M60,131.9c-2.7-9.9-7.4-19.1-8.9-22.2l0.2-0.1c1.5,3.1,6.2,12.3,9,22.2L60,131.9z"/>
<path class="st0" d="M33.2,139.1l-0.2-0.1c3.2-10.3,11.1-23.6,15.3-29.9l0.2,0.1C44.3,115.5,36.3,128.8,33.2,139.1z"/>
<path class="st0" d="M49.1,105.9l-0.2,0c0.5-8,1.7-14.9,3.5-19.3l0.2,0.1C50.9,91.1,49.7,98,49.1,105.9z"/>
<path class="st0" d="M209,46.5c-3.4-2.8-6.5-4.8-10.4-6.9l0.1-0.2c3.9,2.1,7,4.1,10.4,6.9L209,46.5z"/>
<path class="st0" d="M234,51.2c-5.8-1.6-15.8-3.2-21.8-3.5l0-0.2c6,0.3,16,1.8,21.9,3.5L234,51.2z"/>
<path class="st0" d="M239.9,50.9l-0.1-0.2c3-0.9,7.2-1.8,10.6-2.1l0,0.2C247.1,49.1,242.9,50,239.9,50.9z"/>
<path class="st0" d="M251.6,89.8l-0.2,0c0.7-9.9,1.1-25.2,0.9-39l0.2,0C252.7,64.6,252.4,79.9,251.6,89.8z"/>
<path class="st0" d="M217.2,102.2l0-0.2c4.9-0.7,21.7-3.3,32.7-8.6l0.1,0.2C238.9,98.9,222.1,101.5,217.2,102.2z"/>
<path class="st0" d="M184.5,81.9l-0.2-0.1c2.3-11.1,6.5-27.9,10.2-40.8l0.2,0.1C191,54,186.8,70.8,184.5,81.9z"/>
<path class="st0" d="M211.8,101.6c-10.3-3.6-19.3-8.8-26.6-15.6l0.2-0.2c7.3,6.7,16.2,11.9,26.5,15.5L211.8,101.6z"/>
<path class="st0" d="M226.9,133.2c-3.1-9-8.5-23.2-10.7-28.8l0.2-0.1c2.2,5.7,7.6,19.9,10.7,28.8L226.9,133.2z"/>
<path class="st0" d="M215.9,134.9c-0.5-8.6-1.1-19.7-1.1-30.1l0.2,0c0.1,10.3,0.6,21.5,1.1,30L215.9,134.9z"/>
<path class="st0" d="M202,132.9l-0.2-0.1c4.5-8.5,7.6-16.6,10.9-28l0.2,0.1C209.7,116.3,206.5,124.4,202,132.9z"/>
<path class="st0" d="M192.5,126.2l-0.2-0.2c5.5-5.2,13.2-13.9,19.7-22.3l0.2,0.2C205.7,112.2,198,121,192.5,126.2z"/>
<path class="st0" d="M195,108.8l-0.1-0.2c4.6-1.2,8.1-2.5,11.5-3.9c1.2-0.5,2.5-1,3.8-1.4l0.1,0.2c-1.3,0.5-2.6,1-3.8,1.4
	C203.1,106.3,199.6,107.6,195,108.8z"/>
<path class="st0" d="M189.3,107.6c-1.9-2.1-4.1-4.5-6.1-6.8c-1.9-2.1-3.6-4-5-5.5l0.2-0.2c1.4,1.5,3.1,3.5,5,5.5
	c2.1,2.3,4.2,4.7,6.1,6.8L189.3,107.6z"/>
<path class="st0" d="M20.5,64.3C13.6,55.9,8.6,49.1,2.6,40.8l0.2-0.1c5.9,8.2,11,15,17.8,23.5L20.5,64.3z"/>
<path class="st0" d="M22.9,64.2l-0.2-0.1c4.3-8.7,9.2-19.7,12.6-28l0.2,0.1C32.1,44.5,27.1,55.5,22.9,64.2z"/>
<path class="st0" d="M4,38.7l0-0.2c8.4-1.6,23-3.4,30.4-3.9l0,0.2C27,35.4,12.4,37.2,4,38.7z"/>
<path class="st1" d="M59,22.4"/>
<path class="st0" d="M36.6,33.4l-0.2-0.1c3-8.1,6.7-17,9.8-23.9l0.2,0.1C43.3,16.4,39.6,25.3,36.6,33.4z"/>
<path class="st0" d="M49.3,7.2l0-0.2c8.5-1.7,21.2-3.5,28.4-3.9l0,0.2C70.5,3.7,57.8,5.5,49.3,7.2z"/>
<g>
	<path class="st2" d="M66.2,115.1l1.2,0c0.5,0,0.9,0.1,1.2,0.3c0.3,0.2,0.4,0.6,0.4,1c0,0.3-0.1,0.6-0.3,0.9
		c-0.2,0.2-0.4,0.4-0.7,0.6l0.9,1.8l-1,0l-0.7-1.6c0,0-0.1,0-0.2,0l-0.6,0l-0.3,1.6l-0.9,0L66.2,115.1z M66.7,117.3l0.5,0
		c0.3,0,0.5-0.1,0.7-0.2s0.3-0.4,0.3-0.6c0-0.2-0.1-0.4-0.2-0.5c-0.1-0.1-0.4-0.2-0.6-0.2l-0.4,0L66.7,117.3z"/>
	<path class="st2" d="M72.2,115.1l0.9,0l0.9,4.6l-1,0l-0.2-1.2l-1.7,0l-0.6,1.2l-1,0L72.2,115.1z M72.8,117.7l-0.3-1.7l-0.9,1.8
		L72.8,117.7z"/>
	<path class="st2" d="M77.1,119.6c-0.4,0-0.8-0.1-1.1-0.2c-0.3-0.2-0.6-0.4-0.8-0.7c-0.2-0.3-0.3-0.7-0.3-1.1c0-0.5,0.1-0.9,0.3-1.3
		s0.5-0.7,0.9-0.9c0.4-0.2,0.8-0.4,1.4-0.4c0.3,0,0.5,0,0.8,0.1c0.3,0.1,0.5,0.2,0.7,0.3l-0.2,0.8c-0.4-0.2-0.8-0.3-1.3-0.3
		c-0.3,0-0.6,0.1-0.8,0.2c-0.2,0.1-0.4,0.4-0.6,0.6c-0.1,0.3-0.2,0.6-0.2,0.9c0,0.4,0.1,0.7,0.4,1c0.3,0.2,0.6,0.4,1,0.4
		c0.4,0,0.8-0.1,1.2-0.3l0,0.8C78.1,119.5,77.6,119.6,77.1,119.6z"/>
	<path class="st2" d="M79.4,119.5l0.8-4.6l0.9,0l-0.4,1.9l2.1-2l1.2,0l-2.5,2.3l1.9,2.3l-1.2,0l-1.6-2l-0.4,2L79.4,119.5z"/>
	<path class="st2" d="M85.6,119.5c-0.3,0-0.6,0-0.8-0.1c-0.3-0.1-0.5-0.2-0.7-0.3l0.2-0.8c0.2,0.1,0.4,0.2,0.7,0.3
		c0.2,0.1,0.5,0.1,0.7,0.1c0.3,0,0.5-0.1,0.7-0.2c0.2-0.1,0.2-0.3,0.2-0.4c0-0.1-0.1-0.3-0.2-0.4c-0.1-0.1-0.3-0.2-0.6-0.3
		c-0.4-0.2-0.7-0.3-0.8-0.5c-0.2-0.2-0.2-0.4-0.3-0.7c0-0.3,0.1-0.5,0.2-0.7c0.1-0.2,0.3-0.4,0.6-0.5c0.3-0.1,0.5-0.2,0.9-0.2
		c0.2,0,0.5,0,0.7,0.1c0.2,0.1,0.5,0.2,0.6,0.3l-0.2,0.8c-0.2-0.1-0.4-0.2-0.6-0.3c-0.2-0.1-0.4-0.1-0.6-0.1c-0.2,0-0.4,0.1-0.6,0.2
		c-0.1,0.1-0.2,0.2-0.2,0.4c0,0.1,0.1,0.2,0.2,0.3c0.1,0.1,0.3,0.2,0.5,0.3c0.3,0.1,0.5,0.3,0.7,0.4c0.2,0.1,0.3,0.3,0.4,0.4
		c0.1,0.2,0.1,0.3,0.1,0.5c0,0.3-0.1,0.5-0.2,0.7c-0.1,0.2-0.3,0.4-0.6,0.5C86.3,119.5,86,119.5,85.6,119.5z"/>
	<path class="st2" d="M89,114.8l1.2,0c0.5,0,0.9,0.1,1.2,0.3c0.3,0.2,0.4,0.5,0.4,1c0,0.5-0.2,0.9-0.5,1.2c-0.3,0.3-0.8,0.5-1.4,0.5
		l-0.6,0l-0.3,1.6l-0.9,0L89,114.8z M89.5,117.1l0.5,0c0.3,0,0.6-0.1,0.7-0.2c0.2-0.2,0.3-0.4,0.3-0.7c0-0.2-0.1-0.4-0.2-0.5
		c-0.1-0.1-0.4-0.2-0.6-0.2l-0.4,0L89.5,117.1z"/>
	<path class="st2" d="M94.3,114.8l0.9,0l1,4.5l-1,0l-0.2-1.2l-1.7,0l-0.6,1.2l-1,0L94.3,114.8z M94.9,117.4l-0.3-1.7l-0.9,1.8
		L94.9,117.4z"/>
	<path class="st2" d="M99.2,119.3c-0.4,0-0.8-0.1-1.1-0.2c-0.3-0.2-0.6-0.4-0.8-0.7c-0.2-0.3-0.3-0.7-0.3-1.1c0-0.5,0.1-0.9,0.3-1.3
		c0.2-0.4,0.5-0.7,0.9-0.9c0.4-0.2,0.9-0.4,1.4-0.4c0.3,0,0.5,0,0.8,0.1c0.3,0.1,0.5,0.2,0.7,0.3l-0.2,0.8c-0.4-0.2-0.8-0.3-1.3-0.3
		c-0.3,0-0.6,0.1-0.8,0.2c-0.3,0.1-0.5,0.4-0.6,0.6c-0.1,0.3-0.2,0.6-0.2,0.9c0,0.4,0.1,0.7,0.4,1c0.3,0.2,0.6,0.4,1,0.4
		c0.4,0,0.8-0.1,1.2-0.3l0,0.8C100.2,119.2,99.8,119.3,99.2,119.3z"/>
	<path class="st2" d="M102.4,114.7l2.9,0l-0.1,0.8l-2,0l-0.2,1.1l1.8,0l-0.1,0.8l-1.8,0l-0.2,1.2l2.2,0l-0.1,0.8l-3.1,0L102.4,114.7
		z"/>
</g>
<g>
	<path class="st2" d="M153.7,109.6c-0.5,0-0.9-0.1-1.2-0.2c-0.3-0.2-0.6-0.4-0.8-0.7c-0.2-0.3-0.3-0.7-0.3-1.1
		c0-0.5,0.1-0.9,0.3-1.3c0.2-0.4,0.5-0.7,0.9-0.9c0.4-0.2,0.9-0.3,1.4-0.4c0.3,0,0.6,0,0.9,0.1c0.3,0.1,0.5,0.2,0.8,0.3l-0.2,0.8
		c-0.2-0.1-0.4-0.2-0.7-0.3c-0.3-0.1-0.5-0.1-0.7-0.1c-0.3,0-0.6,0.1-0.9,0.2c-0.3,0.1-0.5,0.3-0.6,0.6s-0.2,0.6-0.2,0.9
		c0,0.4,0.1,0.8,0.4,1c0.3,0.2,0.6,0.4,1,0.4c0.2,0,0.5,0,0.7-0.1l0.2-1l-0.9,0l0.1-0.7l1.7,0l-0.4,2.3c-0.2,0.1-0.4,0.2-0.7,0.2
		S153.9,109.6,153.7,109.6z"/>
	<path class="st2" d="M157.1,105l0.9,0l-0.9,4.6l-0.9,0L157.1,105z"/>
	<path class="st2" d="M160.2,105.7l-1.4,0l0.1-0.8l3.8,0l-0.1,0.8l-1.4,0l-0.7,3.8l-0.9,0L160.2,105.7z"/>
	<path class="st2" d="M163.6,105l0.9,0l-0.4,1.8l2.1,0l0.4-1.8l0.9,0l-0.9,4.6l-0.9,0l0.4-2l-2.1,0l-0.4,2l-0.9,0L163.6,105z"/>
	<path class="st2" d="M170,109.6c-0.6,0-1-0.1-1.3-0.4c-0.3-0.3-0.5-0.7-0.5-1.2c0-0.1,0-0.3,0.1-0.6l0.5-2.4h0.9l-0.5,2.4
		c0,0.2,0,0.3,0,0.4c0,0.3,0.1,0.6,0.2,0.7c0.2,0.2,0.4,0.2,0.7,0.2c0.4,0,0.6-0.1,0.8-0.3c0.2-0.2,0.3-0.6,0.4-1l0.5-2.5h0.9
		l-0.5,2.7c-0.1,0.7-0.4,1.2-0.7,1.5C171.1,109.4,170.6,109.6,170,109.6z"/>
	<path class="st2" d="M173.9,105l1.5,0c0.5,0,0.8,0.1,1.1,0.3c0.2,0.2,0.4,0.5,0.4,0.8c0,0.3-0.1,0.5-0.2,0.7
		c-0.1,0.2-0.3,0.3-0.5,0.4c0.1,0,0.2,0.1,0.3,0.2c0.1,0.1,0.2,0.2,0.2,0.3s0.1,0.3,0.1,0.4c0,0.5-0.2,0.8-0.5,1.1s-0.8,0.4-1.3,0.4
		l-1.9,0L173.9,105z M174,108.8l0.8,0c0.3,0,0.5-0.1,0.7-0.2s0.2-0.3,0.2-0.5c0-0.4-0.3-0.5-0.8-0.5l-0.8,0L174,108.8z M174.4,106.8
		l0.7,0c0.3,0,0.5-0.1,0.6-0.2c0.1-0.1,0.2-0.3,0.2-0.5c0-0.2-0.1-0.3-0.2-0.4c-0.1-0.1-0.3-0.1-0.5-0.1l-0.6,0L174.4,106.8z"/>
</g>
<g>
	<path class="st2" d="M154.6,113.6l1.2,0c0.5,0,0.9,0.1,1.2,0.3c0.3,0.2,0.4,0.6,0.4,1c0,0.5-0.2,0.9-0.5,1.2s-0.8,0.5-1.4,0.5
		l-0.6,0l-0.3,1.6l-0.9,0L154.6,113.6z M155,115.8l0.5,0c0.3,0,0.6-0.1,0.8-0.2c0.2-0.2,0.3-0.4,0.3-0.7c0-0.2-0.1-0.4-0.2-0.5
		c-0.1-0.1-0.4-0.2-0.6-0.2l-0.4,0L155,115.8z"/>
	<path class="st2" d="M159.8,113.5l0.9,0l0.9,4.6l-1,0l-0.2-1.2l-1.7,0l-0.7,1.2l-1,0L159.8,113.5z M160.4,116.2l-0.3-1.7l-1,1.7
		L160.4,116.2z"/>
	<path class="st2" d="M164.9,118.2c-0.5,0-0.9-0.1-1.2-0.2c-0.3-0.2-0.6-0.4-0.8-0.7c-0.2-0.3-0.3-0.7-0.3-1.1
		c0-0.5,0.1-0.9,0.3-1.3s0.5-0.7,1-0.9c0.4-0.2,0.9-0.3,1.4-0.3c0.3,0,0.6,0,0.9,0.1c0.3,0.1,0.5,0.2,0.8,0.3l-0.2,0.8
		c-0.2-0.1-0.4-0.2-0.7-0.3s-0.5-0.1-0.7-0.1c-0.3,0-0.6,0.1-0.9,0.2s-0.5,0.3-0.6,0.6c-0.2,0.3-0.2,0.6-0.2,0.9
		c0,0.4,0.1,0.8,0.4,1c0.3,0.2,0.6,0.4,1,0.4c0.2,0,0.5,0,0.7-0.1l0.2-1l-0.9,0l0.1-0.7l1.7,0l-0.4,2.3c-0.2,0.1-0.4,0.2-0.7,0.2
		C165.4,118.1,165.1,118.2,164.9,118.2z"/>
	<path class="st2" d="M168.3,113.5l2.9,0l-0.2,0.8l-2,0l-0.2,1.1l1.8,0l-0.1,0.8l-1.8,0l-0.2,1.2l2.2,0l-0.1,0.8l-3.1,0L168.3,113.5
		z"/>
	<path class="st2" d="M173,118.2c-0.3,0-0.6,0-0.8-0.1c-0.3-0.1-0.5-0.2-0.7-0.3l0.2-0.8c0.2,0.1,0.4,0.3,0.6,0.3
		c0.2,0.1,0.5,0.1,0.7,0.1c0.3,0,0.5-0.1,0.7-0.2s0.2-0.3,0.2-0.4c0-0.1-0.1-0.3-0.2-0.4c-0.1-0.1-0.3-0.2-0.6-0.4
		c-0.4-0.2-0.6-0.4-0.8-0.6c-0.2-0.2-0.2-0.4-0.2-0.7c0-0.3,0.1-0.5,0.2-0.7c0.1-0.2,0.3-0.4,0.6-0.5c0.3-0.1,0.6-0.2,0.9-0.2
		c0.2,0,0.5,0,0.7,0.1s0.5,0.2,0.6,0.3l-0.2,0.7c-0.2-0.1-0.4-0.2-0.6-0.3c-0.2-0.1-0.4-0.1-0.6-0.1c-0.2,0-0.4,0.1-0.6,0.2
		c-0.1,0.1-0.2,0.2-0.2,0.4c0,0.1,0,0.2,0.1,0.3s0.3,0.2,0.5,0.3c0.3,0.1,0.5,0.3,0.7,0.4c0.2,0.1,0.3,0.3,0.4,0.4
		c0.1,0.2,0.1,0.3,0.1,0.5c0,0.3-0.1,0.5-0.2,0.7s-0.4,0.4-0.6,0.5C173.7,118.1,173.3,118.2,173,118.2z"/>
</g>
<g>
	<path class="st2" d="M55.2,23.7l0.9,0l1,4.5l-1,0L55.9,27l-1.7,0l-0.6,1.2l-1,0L55.2,23.7z M55.8,26.3l-0.3-1.7l-0.9,1.8L55.8,26.3
		z"/>
	<path class="st2" d="M57.9,28.2l1-4.6l0.8,0l1,2.9l2-2.9l0.9,0L63,28.1l-0.9,0l0.4-3.1L61,27.3l-0.7,0L59.4,25l-0.6,3.2L57.9,28.2z
		"/>
	<path class="st2" d="M66.4,23.4l0.9,0l1,4.5l-1,0l-0.2-1.2l-1.7,0L64.8,28l-1,0L66.4,23.4z M67,26.1l-0.3-1.7l-0.9,1.8L67,26.1z"/>
	<path class="st2" d="M69.1,27.3l2.9-3.2l-2.2,0l0.1-0.8l3.4-0.1L73.2,24l-2.9,3.2l2.5,0l-0.1,0.8L69,27.9L69.1,27.3z"/>
	<path class="st2" d="M75.9,27.9c-0.4,0-0.8-0.1-1.1-0.2c-0.3-0.2-0.6-0.4-0.8-0.7c-0.2-0.3-0.3-0.7-0.3-1.1c0-0.5,0.1-0.9,0.3-1.3
		s0.5-0.7,0.9-1c0.4-0.2,0.8-0.4,1.3-0.4c0.4,0,0.8,0.1,1.1,0.2c0.3,0.2,0.6,0.4,0.8,0.7c0.2,0.3,0.3,0.7,0.3,1.1
		c0,0.3-0.1,0.7-0.2,1s-0.3,0.6-0.5,0.8s-0.5,0.5-0.8,0.6C76.6,27.8,76.3,27.9,75.9,27.9z M76,27.1c0.3,0,0.5-0.1,0.8-0.2
		c0.2-0.2,0.4-0.4,0.6-0.6s0.2-0.6,0.2-0.9c0-0.4-0.1-0.7-0.4-1c-0.2-0.2-0.6-0.4-0.9-0.4c-0.3,0-0.5,0.1-0.8,0.2
		c-0.2,0.2-0.4,0.4-0.6,0.6c-0.1,0.3-0.2,0.6-0.2,0.9c0,0.4,0.1,0.7,0.4,1C75.3,27,75.6,27.1,76,27.1z"/>
	<path class="st2" d="M79.9,23.2l0.8,0l1.7,3.2l0.6-3.3l0.9,0l-0.9,4.6l-0.8,0l-1.7-3.2L80,27.8l-0.9,0L79.9,23.2z"/>
	<path class="st2" d="M86.9,27.8c-0.3,0-0.6,0-0.8-0.1c-0.3-0.1-0.5-0.2-0.7-0.3l0.2-0.8c0.2,0.1,0.4,0.2,0.6,0.3
		c0.2,0.1,0.5,0.1,0.7,0.1c0.3,0,0.5-0.1,0.7-0.2c0.2-0.1,0.2-0.3,0.2-0.4c0-0.1-0.1-0.3-0.2-0.4c-0.1-0.1-0.3-0.2-0.6-0.4
		c-0.4-0.2-0.7-0.4-0.8-0.5c-0.2-0.2-0.2-0.4-0.2-0.7c0-0.3,0.1-0.5,0.2-0.7c0.1-0.2,0.3-0.4,0.6-0.5c0.3-0.1,0.6-0.2,0.9-0.2
		c0.2,0,0.5,0,0.7,0.1c0.2,0.1,0.5,0.2,0.6,0.3l-0.2,0.7c-0.2-0.1-0.4-0.2-0.6-0.3c-0.2-0.1-0.4-0.1-0.6-0.1c-0.2,0-0.4,0.1-0.6,0.2
		c-0.1,0.1-0.2,0.2-0.2,0.4c0,0.1,0,0.2,0.1,0.3c0.1,0.1,0.3,0.2,0.5,0.3c0.3,0.1,0.5,0.3,0.7,0.4c0.2,0.1,0.3,0.3,0.4,0.4
		c0.1,0.2,0.1,0.3,0.1,0.5c0,0.3-0.1,0.5-0.2,0.7c-0.1,0.2-0.4,0.4-0.6,0.5C87.6,27.8,87.3,27.8,86.9,27.8z"/>
	<path class="st2" d="M90.6,27.8c-0.2,0-0.5,0-0.7-0.1c-0.2-0.1-0.4-0.1-0.6-0.2l0.2-0.7c0.2,0.1,0.3,0.2,0.5,0.2
		c0.2,0.1,0.4,0.1,0.6,0.1c0.3,0,0.5-0.1,0.7-0.2c0.2-0.1,0.3-0.3,0.3-0.6c0-0.2-0.1-0.3-0.2-0.5c-0.1-0.1-0.3-0.2-0.6-0.2
		c-0.1,0-0.2,0-0.4,0l-0.2-0.5l1.3-1.2L90,24l0.2-0.7l2.7,0l-0.1,0.6l-1.3,1.2c0.3,0,0.6,0.2,0.7,0.4s0.3,0.5,0.3,0.8
		c0,0.3-0.1,0.6-0.2,0.8c-0.2,0.2-0.4,0.4-0.6,0.5C91.3,27.8,91,27.9,90.6,27.8z"/>
</g>
<g>
	<path class="st2" d="M183,17.8l2.8,0.1l-0.2,0.8l-1.9,0l-0.3,1.2l1.7,0l-0.2,0.8l-1.7,0l-0.4,1.8l-0.9,0L183,17.8z"/>
	<path class="st2" d="M187.8,18.7l-1.4,0l0.2-0.8l3.8,0l-0.2,0.8l-1.4,0l-0.8,3.8l-0.9,0L187.8,18.7z"/>
	<path class="st2" d="M191.1,18l1.2,0c0.5,0,0.9,0.1,1.2,0.4c0.3,0.2,0.4,0.6,0.4,1c0,0.5-0.2,0.9-0.5,1.2c-0.3,0.3-0.8,0.4-1.4,0.4
		l-0.6,0l-0.3,1.6l-0.9,0L191.1,18z M191.5,20.2l0.5,0c0.3,0,0.6-0.1,0.8-0.2c0.2-0.2,0.3-0.4,0.3-0.7c0-0.2-0.1-0.4-0.2-0.5
		s-0.4-0.2-0.6-0.2l-0.4,0L191.5,20.2z"/>
</g>
</svg>
