<?xml version="1.0" encoding="utf-8"?>
<!-- Generator: Adobe Illustrator 19.2.1, SVG Export Plug-In . SVG Version: 6.00 Build 0)  -->
<svg version="1.1" id="Layer_1" xmlns="http://www.w3.org/2000/svg" xmlns:xlink="http://www.w3.org/1999/xlink" x="0px" y="0px"
	 viewBox="0 0 1080 675" style="enable-background:new 0 0 1080 675;" xml:space="preserve">
<style type="text/css">
	.st0{fill:#FFFFFF;}
	.st1{fill:#5A6575;}
	.st2{fill:#8BCD3F;}
</style>
<g>
	<path class="st0" d="M679.2,346.3l-55.3-42.6l9.2-175.3c2.6-1.7,4.5-4.5,4.7-7.9c0.3-5.5-3.9-10.1-9.4-10.4
		c-5.5-0.3-10.1,3.9-10.4,9.4c-0.2,3.4,1.3,6.4,3.8,8.3l-9.3,178l-107.1,99.7l-49.5,6.8l-80.7,91.4l113.3-45l84.1,28.7l80.8-68.8
		l91.2,39L679.2,346.3z"/>
	<polygon class="st1" points="774.9,509.2 744.6,457.7 653.4,418.6 572.6,487.5 488.5,458.8 375.2,503.8 348.2,534.3 108,675 
		972,675 	"/>
	<g>
		<polygon class="st0" points="744.6,457.7 679.2,346.3 744.6,457.7 		"/>
		<path class="st0" d="M623.9,303.8l9.2-175.3c2.6-1.7,4.5-4.5,4.7-7.9c0.3-5.5-3.9-10.1-9.4-10.4c-5.5-0.3-10.1,3.9-10.4,9.4
			c-0.2,3.4,1.3,6.4,3.8,8.3l-9.3,178l-107.1,99.7l113.5-105.7L623.9,303.8z"/>
	</g>
	<polygon class="st2" points="633.1,128.4 628,225.5 811.7,186.5 	"/>
</g>
</svg>
