<?xml version="1.0" encoding="utf-8"?>
<!-- Generator: Adobe Illustrator 19.2.1, SVG Export Plug-In . SVG Version: 6.00 Build 0)  -->
<svg version="1.1" id="Layer_1" xmlns="http://www.w3.org/2000/svg" xmlns:xlink="http://www.w3.org/1999/xlink" x="0px" y="0px"
	 viewBox="0 0 360 360" style="enable-background:new 0 0 360 360;" xml:space="preserve">
<style type="text/css">
	.st0{fill:#5B4D45;}
	.st1{fill:#F8BA2E;}
	.st2{fill:#736357;}
	.st3{fill:#FFFFFF;}
	.st4{fill:#374252;}
	.st5{fill:#109EF1;}
	.st6{fill:#323131;}
	.st7{fill:#CC0000;}
	.st8{fill:#9764C6;}
	.st9{fill:#EA6A13;}
</style>
<path class="st0" d="M97.5,237.4c-1.3-29.3,18.8-51.9,42.2-50.6c23.5,1.3,33.4,25.9,33.3,44.2c-0.1,48.1-41.6,107.9-60.5,111.7
	C103.5,312.8,98.8,269,97.5,237.4z"/>
<path class="st1" d="M180.3,355h-19.7c-2,0-3.7-1.6-3.7-3.7c0-2,1.6-3.7,3.7-3.7h16.9l13.7-50.7c0.5-2,2.5-3.1,4.5-2.6
	c2,0.5,3.1,2.5,2.6,4.5l-14.4,53.4C183.4,353.9,181.9,355,180.3,355z"/>
<path class="st2" d="M254.3,153.7c0-38.3-31-69.3-69.3-69.3c-38.3,0-69.3,31-69.3,69.3c0,102.4,52.4,184.1,143.8,184.1
	c0,0-5.2-64.3-5.2-99.8S254.3,153.7,254.3,153.7L254.3,153.7C254.3,153.7,254.3,153.7,254.3,153.7z"/>
<path class="st3" d="M213.3,127.5c-12.8,0-23.1,10.3-23.1,23.1v29.1h-10.5v-29.1c0-12.8-10.3-23.1-23.1-23.1s-23.1,10.3-23.1,23.1
	c0,0,0,2.1,0,3.1c0,28.4,23,51.4,51.4,51.4s51.5-23,51.5-51.4c0-1,0-3.1,0-3.1C236.4,137.8,226.1,127.5,213.3,127.5z"/>
<path class="st1" d="M219.1,355h-19.7c-2,0-3.7-1.6-3.7-3.7c0-2,1.6-3.7,3.7-3.7h16.9l9.6-37.3c0.5-2,2.5-3.1,4.5-2.6
	c2,0.5,3.1,2.5,2.6,4.5l-10.3,40C222.3,353.9,220.8,355,219.1,355z"/>
<path class="st1" d="M190.2,179.7c0,4.2-5.3,8.8-5.3,8.8s-5.2-4.6-5.2-8.8H190.2z"/>
<g>
	<path class="st4" d="M210.2,167.1c3.9,0,7.4-3.2,7.4-7v-8.5c0-3.9-3.5-7-7.4-7s-7.4,3.2-7.4,7v8.5
		C202.8,164,206.3,167.1,210.2,167.1z"/>
</g>
<g>
	<path class="st4" d="M159.8,167.1c-3.9,0-7.3-3.2-7.3-7v-8.5c0-3.9,3.5-7,7.3-7s7.4,3.2,7.4,7v8.5
		C167.1,164,163.7,167.1,159.8,167.1z"/>
</g>
<path class="st0" d="M294,229.1c-6.3-28.6-31.5-45.3-53.8-38.1c-22.4,7.2-25.6,33.6-20.8,51.3c12.5,46.5,67.9,93.6,87.2,92.4
	C307.5,303.5,300.8,259.9,294,229.1z"/>
<g>
	<path class="st5" d="M191,261.4c0-5.1-4-9.6-8.8-9.6l-125.7,0c-4.9,0-9.1,4.5-9.1,9.6l0,85c0,5.1,4.2,8.6,9.1,8.6l125.7,0
		c4.9,0,8.8-3.5,8.8-8.6L191,261.4z"/>
	<path class="st5" d="M145.3,276.9H92.4v-30.4c0-8.4,6.9-15.3,15.3-15.3h22.4c8.4,0,15.3,6.9,15.3,15.3V276.9z M99.8,269.5H138v-23
		c0-4.4-3.5-7.9-7.9-7.9h-22.4c-4.4,0-7.9,3.5-7.9,7.9V269.5z"/>
	<g>
		<circle class="st3" cx="163" cy="281" r="16.7"/>
		<g>
			<path class="st6" d="M163,266.4c-8,0-14.5,6.5-14.5,14.5c0,6.4,4.1,11.8,9.9,13.7c0.7,0.1,1-0.3,1-0.7c0-0.3,0-1.5,0-2.7
				c-4,0.9-4.9-1.7-4.9-1.7c-0.7-1.7-1.6-2.1-1.6-2.1c-1.3-0.9,0.1-0.9,0.1-0.9c1.5,0.1,2.2,1.5,2.2,1.5c1.3,2.2,3.4,1.6,4.2,1.2
				c0.1-0.9,0.5-1.6,0.9-1.9c-3.2-0.4-6.6-1.6-6.6-7.2c0-1.6,0.6-2.9,1.5-3.9c-0.2-0.4-0.6-1.8,0.1-3.8c0,0,1.2-0.4,4,1.5
				c1.2-0.3,2.4-0.5,3.6-0.5c1.2,0,2.5,0.2,3.6,0.5c2.8-1.9,4-1.5,4-1.5c0.8,2,0.3,3.5,0.1,3.8c0.9,1,1.5,2.3,1.5,3.9
				c0,5.6-3.4,6.8-6.6,7.1c0.5,0.4,1,1.3,1,2.7c0,1.9,0,3.5,0,4c0,0.4,0.3,0.8,1,0.7c5.7-1.9,9.9-7.3,9.9-13.7
				C177.5,272.9,171,266.4,163,266.4z M154,287c0,0.1-0.1,0.1-0.2,0c-0.1,0-0.2-0.1-0.1-0.2c0-0.1,0.1-0.1,0.2,0
				C154,286.8,154,286.9,154,287z M154.7,287.7c-0.1,0.1-0.2,0-0.3-0.1c-0.1-0.1-0.1-0.2,0-0.3c0.1-0.1,0.2,0,0.3,0.1
				C154.8,287.5,154.8,287.6,154.7,287.7z M155.2,288.5c-0.1,0.1-0.2,0-0.3-0.1c-0.1-0.1-0.1-0.3,0-0.3c0.1-0.1,0.2,0,0.3,0.1
				C155.3,288.2,155.3,288.4,155.2,288.5z M156,289.4c-0.1,0.1-0.2,0.1-0.4-0.1c-0.1-0.1-0.2-0.3-0.1-0.4c0.1-0.1,0.3-0.1,0.4,0.1
				C156.1,289.2,156.1,289.3,156,289.4z M157.1,289.7c0,0.1-0.2,0.2-0.4,0.1c-0.2,0-0.3-0.2-0.2-0.3c0-0.1,0.2-0.2,0.4-0.1
				C157,289.5,157.1,289.6,157.1,289.7z M158.3,289.9c0,0.1-0.1,0.2-0.3,0.2c-0.2,0-0.3-0.1-0.3-0.2c0-0.1,0.1-0.2,0.3-0.2
				C158.2,289.6,158.3,289.7,158.3,289.9z M159.5,289.8c0,0.1-0.1,0.2-0.3,0.3c-0.2,0-0.3,0-0.3-0.2c0-0.1,0.1-0.2,0.3-0.3
				C159.3,289.6,159.5,289.7,159.5,289.8z"/>
		</g>
	</g>
	<g>
		<path class="st3" d="M117.6,322.8C117.6,322.8,117.6,322.8,117.6,322.8c-0.7-0.8-1.6-1.4-2.2-1.7c-0.7-0.5-1.9-1-3.1-1.2
			c-0.8-0.1-1.4-0.1-2,0.1c-3.1,1.2-2.6,4.6-2.6,4.6c-0.4,0-2.9,0.2-3.3,0.3c-0.4-0.5-1.2-1-2.3-1.2c0,0-0.1,0-0.1,0
			c-1.4-0.2-3.3,0.1-4.3,0.7c-0.1,0.1-0.2,0.1-0.3,0.1c-0.6,0.4-0.9,0.9-1.2,1.5c-0.3,0-0.6,0-0.9,0c-0.3,0-0.5,0.1-0.8,0.2
			c0,0,0,0,0-0.1c0.7-1.4,0.6-2.9-0.1-4.1c-1.2-1.8-4.1-2.8-7.7-0.5c-1.8,1.2-3.3,2.5-4.7,4.1c-0.5-0.3-1.1-0.5-1.6-0.6
			c-0.1,0-0.2,0-0.3-0.1c-0.1-0.7-0.3-1.3-0.8-1.8c0,0,0,0,0,0c-1.2-1.4-3.1-1.5-4.7-0.2c-1.3,1-4.6,7.1-8.7,8.7
			c-0.1-1-0.6-1.9-1.4-2.4c-0.9-0.6-2.1-0.6-3-0.1c-0.9,0.5-1.5,1.5-1.5,2.6c0,3.1,2,5.4,5.3,6c2.8,0.5,6.1-0.8,8-2.4
			c0.3-0.2,0.5-0.2,0.7-0.4c0.5,0.3,1.1,0.9,1.8,1c0,0,0,0,0,0c0.9,0.1,1.8-0.2,2.6-0.3c0.1,0.3,0.3,0.4,0.4,0.5
			c0.3,2.7,2.3,4.5,5.2,5.1c2.4,0.4,5.2-0.3,7.5-2.1c0.6-0.4,1.1-0.9,1.6-1.4c0.3,0.2,0.6,0.3,0.9,0.4c0.9,0.3,1.9,0.3,2.8,0.1
			c0.5,0.5,1.1,0.9,1.8,1.1c-0.3,2.1,0.6,4.2,2.5,5.3c0.6,0.3,1.2,0.6,1.8,0.7c1.8,0.3,3.7-0.3,4.9-1.7c0.2-0.2,0.3-0.4,0.5-0.6
			l8.6-14.2c0,0,0.1,0,0.1-0.1c0.4-0.2,0.7-0.5,1-0.9l0,0c0.1-0.1,0.1-0.1,0.1-0.2C118.7,326.9,119.6,325,117.6,322.8z M75.1,323.6
			C75.1,323.6,75.1,323.6,75.1,323.6C75.1,323.6,75.1,323.6,75.1,323.6L75.1,323.6z"/>
		<path id="tube_5_" d="M103.6,342.3L103.6,342.3c-0.3-0.1-0.6-0.2-0.8-0.3c-1.1-0.7-1.5-2-0.9-3.2l0,0l0.1-0.2l8.7-14.4
			c0.1-0.2,0.2-0.8,0.2-1.1c0-0.1,0-0.1,0-0.2l0,0c0,0,0,0,0,0c0.1-0.2,0.5-0.3,0.9-0.2c0.6,0.1,1.3,0.4,2.1,0.9
			c0.6,0.4,1.2,0.8,1.6,1.2c0.4,0.5,0.6,0.9,0.4,1.1c0,0,0,0,0,0l0,0c0,0.1-0.1,0.1-0.2,0.1c-0.3,0.2-0.8,0.5-0.9,0.7l-8.8,14.6l0,0
			C105.5,342.1,104.5,342.4,103.6,342.3L103.6,342.3z M102.3,338.8L102.3,338.8c-0.6,1-0.3,2.2,0.7,2.8c0.2,0.1,0.4,0.2,0.7,0.3
			c0.8,0.1,1.6-0.2,2.1-0.9l0,0l8.7-14.3c0.2-0.3,0.9-0.7,1-0.8l0,0c0,0,0,0,0,0l0,0c0,0,0-0.2-0.4-0.6c-0.3-0.4-0.9-0.8-1.5-1.1
			c-0.7-0.4-1.3-0.7-1.8-0.8c-0.3-0.1-0.4,0-0.4,0.1l0,0l0,0l0,0c0,0.1-0.1,0.9-0.4,1.3L102.3,338.8L102.3,338.8z"/>
		<path id="liquid_5_" class="st7" d="M111.7,330.4c0,0-1,0.8-1.8,1c-0.8,0.2-1.3,0-2.1,0.3s-1.2,0.8-1.2,0.8l-4,6.6
			c-0.4,0.7-0.2,1.8,0.6,2.2c0.8,0.5,1.7,0.2,2.2-0.5l0,0L111.7,330.4L111.7,330.4z M108.2,334c0.1,0,0.3,0.1,0.3,0.2
			c0,0.1-0.1,0.3-0.2,0.3c-0.1,0-0.3-0.1-0.3-0.2C108,334.1,108.1,334,108.2,334L108.2,334z M107.3,332.6c0.1,0,0.2,0,0.2,0.1
			s0,0.2-0.1,0.2c-0.1,0-0.2,0-0.2-0.1C107.2,332.7,107.2,332.6,107.3,332.6L107.3,332.6z M105.4,336.4c-0.1,0-0.3-0.1-0.3-0.2
			c0-0.1,0.1-0.3,0.2-0.3c0.1,0,0.3,0.1,0.3,0.2C105.6,336.2,105.5,336.4,105.4,336.4L105.4,336.4z M105.8,335.5
			c-0.1-0.3,0.1-0.5,0.4-0.6c0.3-0.1,0.5,0.1,0.6,0.4c0.1,0.3-0.1,0.5-0.4,0.6C106.1,335.9,105.9,335.8,105.8,335.5L105.8,335.5z
			 M106,338.1c0.1,0,0.2,0,0.2,0.1c0,0.1,0,0.2-0.1,0.2c-0.1,0-0.2,0-0.2-0.1C105.8,338.2,105.9,338.1,106,338.1L106,338.1z"/>
		
			<ellipse id="top_5_" transform="matrix(0.5183 -0.8552 0.8552 0.5183 -222.9968 253.2305)" cx="113.3" cy="324.6" rx="0.4" ry="1.7"/>
		<path id="jekyll-text_5_" d="M75.8,325.9c0.2,0.3,0.7,0.2,1.1-0.1c0.4-0.3,0.5-0.8,0.3-1c-0.2-0.3-0.7-0.2-1.1,0.1
			C75.7,325.2,75.5,325.7,75.8,325.9L75.8,325.9z M74.9,326.5c-0.1,0-0.2,0.1-0.1,0.2c0.1,0.1,0.2,0.2,0.1,0.4
			c-0.3,0.7-1.3,1.4-1.7,1.6c-0.1,0.1,0,0.3,0.1,0.2c0.2-0.1,0.7-0.4,1.1-0.7c-0.8,1.1-2.1,2.5-2.6,3c-2,1.9-4.7,3.5-6.4,3.2
			c-1.3-0.2-2.3-1.3-2.3-2.7c0-0.1-0.2-0.2-0.2,0c0,1.9,1.2,2.8,2.9,3.1c1.8,0.3,4.2-0.6,5.7-1.8c2.3-1.9,4-4.2,3.9-5.7
			C75.4,326.7,75.1,326.5,74.9,326.5L74.9,326.5z M85.8,333.4c0.5,0,1-0.2,1.1-0.7c0,0-0.1-0.1-0.1,0c0,0.3-0.4,0.4-0.7,0.4
			c-0.8,0-2.2-1.2-2.8-2.3c0.7,0.4,2.4,0.3,3.3-0.1c0.8-0.4,1.2-0.9,1.3-1.3c0.2-0.7-0.5-1.3-1.7-1.1c-0.8,0.2-1.8,0.7-2.9,1.7
			c1.2-1.4,3.6-3.7,5.8-5c2.6-1.6,3.9-1,1.5,0.8c-1,0.7-2.8,1.6-4,1.9c-0.4,0.1-0.2,0.3,0,0.2c1.2-0.3,3-1.1,4.1-1.8
			c3.2-2.2,1.3-4.6-2.3-2.3c-2.4,1.5-4.1,3.3-5.7,5.7c-0.5,0.4-0.9,0.8-1.3,1c0,0-0.1,0.1-0.1,0.1c-1.2,0.7-3,1.6-4,1.4
			c-0.7-0.1-0.9-0.7-0.7-1.4c0.4-1,1.7-2.1,2.7-2.4c1.3-0.3,1.9,0.9,0.1,1.5c-0.7,0.2-1.4,0.2-1.7,0.2c-0.3-0.1-0.3,0.1,0,0.2
			c0.5,0.1,1.3,0,1.9-0.1c1.8-0.5,2.2-1.9,0.4-2.3c-1.9-0.4-4.6,0.8-4.9,2.9c-0.2,0.9,0.5,1.6,1.5,1.8c1.7,0.3,3.5-0.7,5-1.7
			c0.2-0.1,0.4-0.3,0.6-0.4c-0.6,1-1.1,2-1.1,2.8c0,0.6,0.2,0.9,0.4,1.1c0,0,0.2,0,0.1-0.1c-0.3-0.5,0.1-1.8,0.8-2.9
			C82.6,332.1,84,333.5,85.8,333.4L85.8,333.4z M84.4,329.4c2.3-1.4,2.8,0.3,1.4,1.1c-0.8,0.4-2.1,0.5-2.5,0.2l-0.1-0.1
			c0-0.1-0.1-0.2-0.1-0.3C83.5,330,83.9,329.7,84.4,329.4L84.4,329.4z M95.9,329.4c0.8,0.2,0.6-0.8-0.2-0.7c-0.4,0-0.9,0.7-1.2,1.2
			c-1,1.1-2.7,2.5-3.8,3.2c-1,0.6-1.8,0.6-0.6-0.6c0.5-0.5,1.1-1,1.5-1.5c0.9-1.3-0.4-2.2-1.7-1.6c-0.8,0.4-1.8,1.3-2.6,1.7
			c-0.2,0.1-0.2,0.4,0,0.2c0.6-0.4,1.8-1.2,2.8-1.7c0.8-0.4,1,0,0.5,0.4c-0.7,0.5-1.9,1.5-2.2,2.2c-0.5,1-0.2,1.6,0.5,1.7
			c1,0.2,2.7-1.1,3.8-2.1c0.4-0.3,0.8-0.8,1.2-1.2c-1.1,1.5-2.3,3-3.7,4.3c-1.9,1.8-4.1,3.1-5.9,2.7c-1.3-0.2-2.3-1.3-2.3-2.7
			c0-0.1-0.2-0.2-0.2,0c0,1.9,1.2,2.8,2.9,3.1c1.8,0.3,3.8-0.4,5.3-1.5c3-2.2,3.8-5.1,4.9-6.6C95.3,329.2,95.7,329.3,95.9,329.4
			L95.9,329.4z M106.6,328.6c0.5-0.6,0.6-1.1-0.3-1.2c-0.6-0.1-1.9,0.1-2.5,0.5c-0.1,0.1-0.1,0.2,0.1,0.1c0.1,0,0.2-0.1,0.4-0.1
			c0.7-0.2,0.3,0.4,0.1,0.7c-1,1.2-2.6,2.7-3.4,3.5c-0.4,0.4-0.9,0.8-1.3,1.1c-0.8,0.5-2.3,1.4-3.3,1.6c-3.4,0.6,1.6-4.1,2-4.5
			c0.9-0.8,2.9-2.2,3.5-2.9c0.5-0.6,0.6-1.1-0.3-1.2c-0.6-0.1-1.9,0.1-2.5,0.5c-0.1,0.1-0.1,0.2,0.1,0.1c0.1,0,0.2-0.1,0.4-0.1
			c0.7-0.2,0.3,0.4,0.1,0.7c-1,1.2-2.6,2.7-3.4,3.5c-0.7,0.6-1.5,1.3-2.1,1.6c-0.2,0.1-0.1,0.3,0.1,0.2c0.2-0.1,0.5-0.3,0.9-0.6
			c-0.8,1.1-1.6,2.6-0.1,3.1c1.3,0.4,3-0.6,4.2-1.4c0.1-0.1,0.3-0.2,0.4-0.3c0,0,0.1,0,0.1-0.1c-0.8,1.1-1.5,2.6-0.1,3.1
			c1.6,0.5,4.1-1.3,5-2c0.2-0.1,0.2-0.4-0.1-0.2c-0.6,0.4-2.4,1.6-3.7,1.8c-3.4,0.6,1.6-4.1,2-4.5
			C103.9,330.7,105.9,329.4,106.6,328.6L106.6,328.6z"/>
	</g>
	<g>
		
			<ellipse transform="matrix(0.6533 -0.7571 0.7571 0.6533 -197.1756 229.3247)" class="st8" cx="151.8" cy="329.9" rx="19.6" ry="15.2"/>
		<g>
			<path class="st3" d="M152.2,314.1c6.6-1.2,12.4,2.5,13.6,9.2c1.3,7.6-3.8,16.1-11.6,19.1c-2.7,1-5.3,1.2-7.6,0.8
				c-0.5-3-0.3-6.2,0.7-8.6c1.7-3.8,4.9-3.9,7.2-0.2c0.9,1.4,1.5,3.2,1.8,5c0.6-0.4,1.2-0.9,1.7-1.3c-2.5-4.6-4.1-10.1,1.8-20.9
				c-2.3-1.4-5.5-1.8-9.4-0.9C151.1,315.6,151.6,314.8,152.2,314.1L152.2,314.1z"/>
			<path class="st3" d="M151.5,322.4c-0.4,1.3-0.1,2.2,0.8,2.2c0.9-0.1,1.9-1.2,2.3-2.5c0.4-1.3,0.1-2.2-0.8-2.2
				C153,320,151.9,321.1,151.5,322.4L151.5,322.4z M150.5,319.1c-5.1,8-6.5,17.9-5.2,26.3c-3.7-1-6.7-4.1-7.5-8.4l0-0.1
				c-1.3-7.6,3.8-16.2,11.6-19.1c3-1.1,6-1.3,8.5-0.6c-0.3,1.5-1,3.3-1.7,4.6c-1.5,2.8-3.8,4.8-5.2,4.4c-1.4-0.4-1.4-3.1,0.1-5.9
				c0.3-0.7,0.7-1.3,1.1-1.8C151.7,318.7,151.1,318.8,150.5,319.1L150.5,319.1z"/>
		</g>
	</g>
	<g>
		<path class="st3" d="M135.2,293.3c0.3-0.9,0.4-1.7,0.5-2.7c0.2-5.8-4.3-10.6-10-10.8c-4.2-0.2-7.8,2.1-9.7,5.6
			c-1.3-1.2-3-1.9-4.9-2c-4.2-0.2-7.8,3.1-8,7.3c0,0.5,0,1,0.1,1.5c-3.2,1.1-5.6,4.1-5.8,7.7c-0.2,4.7,3.4,8.6,8.1,8.8
			c4.7,0.2,21.9,0.9,26.5,1c4.7,0.2,8.6-3.4,8.8-8.1C141.1,297.9,138.7,294.5,135.2,293.3z"/>
		<g>
			<polygon class="st5" points="118.8,293.6 115.4,293.4 115.3,295.7 118.6,295.8 118.4,302.5 120.5,302.6 120.7,295.9 124.2,296 
				124.3,293.8 120.8,293.6 			"/>
			<polygon class="st5" points="107.4,296.8 107.3,298.8 107.1,302.1 109.4,302.2 109.5,298.8 112.9,298.9 113,296.7 109.6,296.6 
				109.7,295.4 114.1,295.6 114.2,293.4 107.5,293.1 			"/>
			<path class="st5" d="M130,294l-4.5-0.2l-0.4,9l2.2,0.1l0.1-2.2l2.3,0.1c1.9,0.1,3.5-1.3,3.6-3.2C133.4,295.5,131.9,294.1,130,294
				z M129.4,298.5l-1.9-0.1l0.1-2.2l1.9,0.1c0.8,0,1.5,0.3,1.5,1.2C131,298.3,130.3,298.5,129.4,298.5z"/>
		</g>
	</g>
	<g>
		<g>
			<path class="st3" d="M100.6,276.3l-26.2,34.5c-1.4,1.9-4.1,2.2-5.9,0.8L57,302.9c-1.9-1.4-2.2-4.1-0.8-5.9l26.2-34.5
				c1.4-1.9,4.1-2.2,5.9-0.8l11.5,8.7C101.7,271.7,102,274.4,100.6,276.3z"/>
			<path class="st9" d="M102.2,273.8c0,1.2-0.4,2.4-1.1,3.4l-25.6,33.8c-0.9,1.2-2.2,2-3.7,2.2c-1.5,0.2-3-0.2-4.2-1.1l-10.7-8.1
				c-2.5-1.9-2.9-5.4-1.1-7.9l25.6-33.8c1.9-2.5,5.4-2.9,7.9-1.1l10.7,8.1c1.2,0.9,2,2.2,2.2,3.7
				C102.2,273.3,102.2,273.5,102.2,273.8z M56.5,299.4c0,1.1,0.5,2.3,1.5,3l10.7,8.1c0.8,0.6,1.8,0.9,2.8,0.7c1-0.1,1.9-0.7,2.5-1.5
				l25.6-33.8c0.6-0.8,0.9-1.8,0.7-2.8c-0.1-1-0.7-1.9-1.5-2.5l-10.7-8.1c-1.7-1.3-4-0.9-5.3,0.7l-25.6,33.8
				C56.7,297.8,56.5,298.6,56.5,299.4z"/>
		</g>
		<path class="st9" d="M74.7,303.9l-2.3,1.5l-3-2.3l2.2-1.5L74.7,303.9"/>
		<path class="st9" d="M75,303.5l0.8-2.6l-3-2.3l-0.8,2.5L75,303.5"/>
		<path class="st9" d="M69.4,302.8l1-2.5l2.1-1.4l-0.8,2.4L69.4,302.8"/>
		<path class="st9" d="M68.7,303.2l-2.3,1.5l-3-2.3l2.2-1.5L68.7,303.2"/>
		<path class="st9" d="M69,302.8l0.8-2.6l-3-2.3l-0.8,2.5L69,302.8"/>
		<path class="st9" d="M63.4,302l1-2.5l2.1-1.4l-0.8,2.4L63.4,302"/>
		<path class="st9" d="M72.3,298.5l-2.3,1.5l-3-2.3l2.2-1.5L72.3,298.5"/>
		<path class="st9" d="M72.6,298.1l0.8-2.6l-3-2.3l-0.8,2.5L72.6,298.1"/>
		<path class="st9" d="M67,297.3l1-2.5l2.1-1.4l-0.8,2.4L67,297.3"/>
		<path class="st9" d="M70,292.9l-2.3,1.5l-3-2.3l2.2-1.5L70,292.9"/>
		<path class="st9" d="M70.3,292.5l0.8-2.6l-3-2.3l-0.8,2.5L70.3,292.5"/>
		<path class="st9" d="M64.7,291.7l1-2.5l2.1-1.4l-0.8,2.4L64.7,291.7"/>
		<path class="st9" d="M73.6,288.2l-2.3,1.5l-3-2.3l2.2-1.5L73.6,288.2"/>
		<path class="st9" d="M73.9,287.8l0.8-2.6l-3-2.3l-0.8,2.5L73.9,287.8"/>
		<path class="st9" d="M68.3,287l1-2.5l2.1-1.4l-0.8,2.4L68.3,287"/>
		<path class="st9" d="M79.2,294l1.8,2.5l-0.2,0.3l-2.2-0.8l1.4,1.8l-0.2,0.3l-2.9-1.1l0.3-0.4l2.2,0.8l-1.4-1.8l0.2-0.3l2.2,0.8
			l-1.4-1.9L79.2,294L79.2,294z"/>
		<path class="st9" d="M79.2,294l1.8,2.5l-0.2,0.3l-2.2-0.8l1.4,1.8l-0.2,0.3l-2.9-1.1l0.3-0.4l2.2,0.8l-1.4-1.8l0.2-0.3l2.2,0.8
			l-1.4-1.9L79.2,294L79.2,294z"/>
		<path class="st9" d="M82.2,293.4l0.3-0.3c0.2,0.2,0.2,0.5,0.2,0.7c0,0.3-0.1,0.5-0.3,0.8c-0.2,0.3-0.6,0.5-0.9,0.5
			c-0.4,0-0.8-0.1-1.1-0.4c-0.4-0.3-0.6-0.6-0.7-1c-0.1-0.4,0-0.7,0.2-1c0.2-0.3,0.5-0.5,0.9-0.5c0.4,0,0.7,0.1,1.2,0.4l-1.3,1.7
			c0.4,0.3,0.7,0.4,0.9,0.3c0.2-0.1,0.4-0.2,0.5-0.3C82.5,294.1,82.5,293.8,82.2,293.4L82.2,293.4z M81.5,292.9
			c-0.1-0.1-0.3-0.2-0.4-0.2c-0.1,0-0.3,0-0.4,0c-0.1,0-0.3,0.1-0.4,0.3c-0.1,0.2-0.2,0.4-0.2,0.6c0,0.2,0.2,0.4,0.4,0.6L81.5,292.9
			L81.5,292.9z"/>
		<path class="st9" d="M82.2,293.4l0.3-0.3c0.2,0.2,0.2,0.5,0.2,0.7c0,0.3-0.1,0.5-0.3,0.8c-0.2,0.3-0.6,0.5-0.9,0.5
			c-0.4,0-0.8-0.1-1.1-0.4c-0.4-0.3-0.6-0.6-0.7-1c-0.1-0.4,0-0.7,0.2-1c0.2-0.3,0.5-0.5,0.9-0.5c0.4,0,0.7,0.1,1.2,0.4l-1.3,1.7
			c0.4,0.3,0.7,0.4,0.9,0.3c0.2-0.1,0.4-0.2,0.5-0.3C82.5,294.1,82.5,293.8,82.2,293.4L82.2,293.4z M81.5,292.9
			c-0.1-0.1-0.3-0.2-0.4-0.2c-0.1,0-0.3,0-0.4,0c-0.1,0-0.3,0.1-0.4,0.3c-0.1,0.2-0.2,0.4-0.2,0.6c0,0.2,0.2,0.4,0.4,0.6L81.5,292.9
			L81.5,292.9z"/>
		<path class="st9" d="M83.7,292.9l-0.1,0.2l-3.2-2.4l0.3-0.4l1.2,0.9c-0.2-0.4-0.2-0.7,0.1-1c0.2-0.3,0.5-0.4,0.8-0.4
			c0.4,0,0.7,0.1,1.1,0.4c0.4,0.3,0.6,0.6,0.7,0.9c0.1,0.4,0,0.7-0.2,1c-0.2,0.3-0.6,0.5-1,0.4L83.7,292.9L83.7,292.9z M83,292
			c0.3,0.2,0.5,0.2,0.7,0.2c0.2,0,0.4-0.1,0.5-0.3c0.1-0.2,0.2-0.4,0.1-0.6c-0.1-0.2-0.3-0.5-0.5-0.7c-0.3-0.2-0.6-0.4-0.8-0.4
			c-0.3,0-0.5,0.1-0.6,0.3c-0.1,0.2-0.2,0.3-0.1,0.6c0,0.2,0.1,0.4,0.3,0.6L83,292L83,292z"/>
		<path class="st9" d="M83.7,292.9l-0.1,0.2l-3.2-2.4l0.3-0.4l1.2,0.9c-0.2-0.4-0.2-0.7,0.1-1c0.2-0.3,0.5-0.4,0.8-0.4
			c0.4,0,0.7,0.1,1.1,0.4c0.4,0.3,0.6,0.6,0.7,0.9c0.1,0.4,0,0.7-0.2,1c-0.2,0.3-0.6,0.5-1,0.4L83.7,292.9L83.7,292.9z M83,292
			c0.3,0.2,0.5,0.2,0.7,0.2c0.2,0,0.4-0.1,0.5-0.3c0.1-0.2,0.2-0.4,0.1-0.6c-0.1-0.2-0.3-0.5-0.5-0.7c-0.3-0.2-0.6-0.4-0.8-0.4
			c-0.3,0-0.5,0.1-0.6,0.3c-0.1,0.2-0.2,0.3-0.1,0.6c0,0.2,0.1,0.4,0.3,0.6L83,292L83,292z"/>
		<path class="st9" d="M85.2,289.6l0.2-0.4c0.4,0.1,0.7,0,1-0.4c0.1-0.2,0.2-0.3,0.2-0.5c0-0.2,0-0.3-0.2-0.4
			c-0.2-0.1-0.4-0.1-0.7,0.1l-0.5,0.4c-0.2,0.2-0.4,0.3-0.6,0.3c-0.2,0-0.4,0-0.6-0.2c-0.2-0.2-0.3-0.4-0.3-0.6
			c0-0.3,0.1-0.5,0.3-0.8c0.4-0.5,0.8-0.7,1.3-0.5l-0.2,0.4c-0.3-0.1-0.6,0-0.8,0.3c-0.1,0.1-0.2,0.3-0.2,0.4c0,0.1,0,0.3,0.1,0.3
			c0.2,0.1,0.4,0.1,0.6-0.1l0.4-0.4c0.5-0.4,0.9-0.5,1.2-0.2c0.2,0.2,0.3,0.4,0.3,0.7c0,0.3-0.1,0.6-0.3,0.9
			C86.3,289.7,85.8,289.9,85.2,289.6L85.2,289.6z"/>
		<path class="st9" d="M85.2,289.6l0.2-0.4c0.4,0.1,0.7,0,1-0.4c0.1-0.2,0.2-0.3,0.2-0.5c0-0.2,0-0.3-0.2-0.4
			c-0.2-0.1-0.4-0.1-0.7,0.1l-0.5,0.4c-0.2,0.2-0.4,0.3-0.6,0.3c-0.2,0-0.4,0-0.6-0.2c-0.2-0.2-0.3-0.4-0.3-0.6
			c0-0.3,0.1-0.5,0.3-0.8c0.4-0.5,0.8-0.7,1.3-0.5l-0.2,0.4c-0.3-0.1-0.6,0-0.8,0.3c-0.1,0.1-0.2,0.3-0.2,0.4c0,0.1,0,0.3,0.1,0.3
			c0.2,0.1,0.4,0.1,0.6-0.1l0.4-0.4c0.5-0.4,0.9-0.5,1.2-0.2c0.2,0.2,0.3,0.4,0.3,0.7c0,0.3-0.1,0.6-0.3,0.9
			C86.3,289.7,85.8,289.9,85.2,289.6L85.2,289.6z"/>
		<path class="st9" d="M88.2,285.6l0.3-0.3c0.2,0.2,0.2,0.5,0.2,0.7c0,0.3-0.1,0.5-0.3,0.8c-0.2,0.3-0.6,0.5-0.9,0.5
			c-0.4,0-0.8-0.1-1.1-0.4c-0.4-0.3-0.6-0.6-0.7-1c-0.1-0.4,0-0.7,0.2-1c0.2-0.3,0.5-0.5,0.9-0.5c0.4,0,0.7,0.1,1.2,0.4l-1.3,1.7
			c0.4,0.3,0.7,0.4,0.9,0.3c0.2-0.1,0.4-0.2,0.5-0.3C88.4,286.3,88.4,286,88.2,285.6L88.2,285.6z M87.4,285.1
			c-0.1-0.1-0.3-0.2-0.4-0.2c-0.1,0-0.3,0-0.4,0c-0.1,0-0.3,0.1-0.4,0.3c-0.1,0.2-0.2,0.4-0.2,0.6c0,0.2,0.2,0.4,0.4,0.6L87.4,285.1
			L87.4,285.1z"/>
		<path class="st9" d="M88.2,285.6l0.3-0.3c0.2,0.2,0.2,0.5,0.2,0.7c0,0.3-0.1,0.5-0.3,0.8c-0.2,0.3-0.6,0.5-0.9,0.5
			c-0.4,0-0.8-0.1-1.1-0.4c-0.4-0.3-0.6-0.6-0.7-1c-0.1-0.4,0-0.7,0.2-1c0.2-0.3,0.5-0.5,0.9-0.5c0.4,0,0.7,0.1,1.2,0.4l-1.3,1.7
			c0.4,0.3,0.7,0.4,0.9,0.3c0.2-0.1,0.4-0.2,0.5-0.3C88.4,286.3,88.4,286,88.2,285.6L88.2,285.6z M87.4,285.1
			c-0.1-0.1-0.3-0.2-0.4-0.2c-0.1,0-0.3,0-0.4,0c-0.1,0-0.3,0.1-0.4,0.3c-0.1,0.2-0.2,0.4-0.2,0.6c0,0.2,0.2,0.4,0.4,0.6L87.4,285.1
			L87.4,285.1z"/>
		<path class="st9" d="M89.7,285l-0.3,0.4l-2.4-1.8l0.2-0.3l0.6,0.4c-0.2-0.3-0.3-0.6-0.2-0.7c0-0.2,0.1-0.3,0.2-0.4
			c0,0,0.1-0.1,0.1-0.1l0.4,0.3l-0.1,0.1c-0.2,0.2-0.2,0.4-0.2,0.7c0,0.2,0.2,0.5,0.4,0.7L89.7,285L89.7,285z"/>
		<path class="st9" d="M89.7,285l-0.3,0.4l-2.4-1.8l0.2-0.3l0.6,0.4c-0.2-0.3-0.3-0.6-0.2-0.7c0-0.2,0.1-0.3,0.2-0.4
			c0,0,0.1-0.1,0.1-0.1l0.4,0.3l-0.1,0.1c-0.2,0.2-0.2,0.4-0.2,0.7c0,0.2,0.2,0.5,0.4,0.7L89.7,285L89.7,285z"/>
		<path class="st9" d="M89.7,280.1l1.7,2.6l-0.3,0.4l-3-0.9l0.3-0.4l2.4,0.8l-1.4-2.1L89.7,280.1L89.7,280.1z"/>
		<path class="st9" d="M89.7,280.1l1.7,2.6l-0.3,0.4l-3-0.9l0.3-0.4l2.4,0.8l-1.4-2.1L89.7,280.1L89.7,280.1z"/>
		<path class="st9" d="M89.1,279.2l0.3-0.4l0.4,0.3l-0.3,0.4L89.1,279.2z M89.9,279.8l0.3-0.4l2.4,1.8l-0.3,0.4L89.9,279.8z"/>
		<path class="st9" d="M89.1,279.2l0.3-0.4l0.4,0.3l-0.3,0.4L89.1,279.2z M89.9,279.8l0.3-0.4l2.4,1.8l-0.3,0.4L89.9,279.8z"/>
		<path class="st9" d="M93.2,278.7l0.3-0.3c0.2,0.2,0.4,0.5,0.4,0.8c0,0.3-0.1,0.5-0.2,0.8c-0.2,0.3-0.6,0.5-0.9,0.5
			s-0.7-0.1-1.1-0.4c-0.4-0.3-0.6-0.6-0.7-0.9c-0.1-0.4,0-0.7,0.2-1c0.2-0.3,0.4-0.4,0.7-0.4c0.3,0,0.5,0,0.8,0.2l-0.2,0.4
			c-0.4-0.2-0.8-0.2-1,0.1c-0.2,0.2-0.2,0.4-0.1,0.7c0.1,0.2,0.3,0.5,0.5,0.7c0.3,0.2,0.6,0.4,0.8,0.4c0.2,0,0.4-0.1,0.6-0.3
			C93.6,279.4,93.6,279,93.2,278.7L93.2,278.7z"/>
		<path class="st9" d="M93.2,278.7l0.3-0.3c0.2,0.2,0.4,0.5,0.4,0.8c0,0.3-0.1,0.5-0.2,0.8c-0.2,0.3-0.6,0.5-0.9,0.5
			s-0.7-0.1-1.1-0.4c-0.4-0.3-0.6-0.6-0.7-0.9c-0.1-0.4,0-0.7,0.2-1c0.2-0.3,0.4-0.4,0.7-0.4c0.3,0,0.5,0,0.8,0.2l-0.2,0.4
			c-0.4-0.2-0.8-0.2-1,0.1c-0.2,0.2-0.2,0.4-0.1,0.7c0.1,0.2,0.3,0.5,0.5,0.7c0.3,0.2,0.6,0.4,0.8,0.4c0.2,0,0.4-0.1,0.6-0.3
			C93.6,279.4,93.6,279,93.2,278.7L93.2,278.7z"/>
		<path class="st9" d="M95.2,276.4l0.3-0.3c0.2,0.2,0.2,0.5,0.2,0.7c0,0.3-0.1,0.5-0.3,0.8c-0.2,0.3-0.6,0.5-0.9,0.5
			c-0.4,0-0.8-0.1-1.1-0.4c-0.4-0.3-0.6-0.6-0.7-1c-0.1-0.4,0-0.7,0.2-1c0.2-0.3,0.5-0.5,0.9-0.5c0.4,0,0.7,0.1,1.2,0.4l-1.3,1.7
			c0.4,0.3,0.7,0.4,0.9,0.3c0.2-0.1,0.4-0.2,0.5-0.3C95.4,277,95.4,276.7,95.2,276.4L95.2,276.4z M94.4,275.8
			c-0.1-0.1-0.3-0.2-0.4-0.2c-0.1,0-0.3,0-0.4,0c-0.1,0-0.3,0.1-0.4,0.3c-0.1,0.2-0.2,0.4-0.2,0.6c0,0.2,0.2,0.4,0.4,0.6L94.4,275.8
			L94.4,275.8z"/>
		<path class="st9" d="M95.2,276.4l0.3-0.3c0.2,0.2,0.2,0.5,0.2,0.7c0,0.3-0.1,0.5-0.3,0.8c-0.2,0.3-0.6,0.5-0.9,0.5
			c-0.4,0-0.8-0.1-1.1-0.4c-0.4-0.3-0.6-0.6-0.7-1c-0.1-0.4,0-0.7,0.2-1c0.2-0.3,0.5-0.5,0.9-0.5c0.4,0,0.7,0.1,1.2,0.4l-1.3,1.7
			c0.4,0.3,0.7,0.4,0.9,0.3c0.2-0.1,0.4-0.2,0.5-0.3C95.4,277,95.4,276.7,95.2,276.4L95.2,276.4z M94.4,275.8
			c-0.1-0.1-0.3-0.2-0.4-0.2c-0.1,0-0.3,0-0.4,0c-0.1,0-0.3,0.1-0.4,0.3c-0.1,0.2-0.2,0.4-0.2,0.6c0,0.2,0.2,0.4,0.4,0.6L94.4,275.8
			L94.4,275.8z"/>
		<path class="st9" d="M95.7,275.8l0.2-0.4c0.4,0.1,0.7,0,1-0.4c0.1-0.2,0.2-0.3,0.2-0.5c0-0.2,0-0.3-0.2-0.4
			c-0.2-0.1-0.4-0.1-0.7,0.1l-0.5,0.4c-0.2,0.2-0.4,0.3-0.6,0.3c-0.2,0-0.4,0-0.6-0.2c-0.2-0.2-0.3-0.4-0.3-0.6
			c0-0.3,0.1-0.5,0.3-0.8c0.4-0.5,0.8-0.7,1.3-0.5l-0.2,0.4c-0.3-0.1-0.6,0-0.8,0.3c-0.1,0.1-0.2,0.3-0.2,0.4c0,0.1,0,0.3,0.1,0.3
			c0.2,0.1,0.4,0.1,0.6-0.1l0.4-0.4c0.5-0.4,0.9-0.5,1.2-0.2c0.2,0.2,0.3,0.4,0.3,0.7c0,0.3-0.1,0.6-0.3,0.9
			C96.8,275.9,96.3,276,95.7,275.8L95.7,275.8z"/>
		<path class="st9" d="M95.7,275.8l0.2-0.4c0.4,0.1,0.7,0,1-0.4c0.1-0.2,0.2-0.3,0.2-0.5c0-0.2,0-0.3-0.2-0.4
			c-0.2-0.1-0.4-0.1-0.7,0.1l-0.5,0.4c-0.2,0.2-0.4,0.3-0.6,0.3c-0.2,0-0.4,0-0.6-0.2c-0.2-0.2-0.3-0.4-0.3-0.6
			c0-0.3,0.1-0.5,0.3-0.8c0.4-0.5,0.8-0.7,1.3-0.5l-0.2,0.4c-0.3-0.1-0.6,0-0.8,0.3c-0.1,0.1-0.2,0.3-0.2,0.4c0,0.1,0,0.3,0.1,0.3
			c0.2,0.1,0.4,0.1,0.6-0.1l0.4-0.4c0.5-0.4,0.9-0.5,1.2-0.2c0.2,0.2,0.3,0.4,0.3,0.7c0,0.3-0.1,0.6-0.3,0.9
			C96.8,275.9,96.3,276,95.7,275.8L95.7,275.8z"/>
		<path class="st9" d="M82.6,279l-0.6-0.4c-0.1-0.1-0.1-0.2,0-0.3l1.9-2.5c0.1-0.1,0.2-0.1,0.3,0l0.5,0.4c0.1,0.1,0.1,0.2,0.2,0.5
			l0.9,2.7c0.4-0.5,0.8-1,1.4-1.2c0.1-0.1,0.2,0,0.3,0l0.6,0.5c0.1,0.1,0.1,0.2,0,0.3c-1,0.5-1.8,1.5-2,2.7c0,0.1-0.2,0.1-0.3,0.1
			l-0.6-0.4c-0.1-0.1-0.2-0.2-0.3-0.4l-1-3.2l-1,1.3C82.8,279,82.7,279,82.6,279"/>
		<path class="st9" d="M79.3,290.8l-0.6,0.8c-0.1,0.1-0.2,0.1-0.2,0l-4-3c-0.1-0.1-0.1-0.2,0-0.3l0.5-0.7c0.1-0.1,0.2-0.1,0.2,0
			l0.5,0.4l0,0c-0.4-0.6-0.3-1.1,0-1.6c0.4-0.5,0.8-0.6,1.5-0.4c-0.4-0.6-0.3-1.2,0.1-1.6c0.2-0.3,0.6-0.6,1.1-0.6
			c0.5,0,1,0.4,1.4,0.7l2.5,1.9c0.1,0.1,0.1,0.2,0,0.3l-0.6,0.8c-0.1,0.1-0.2,0.1-0.2,0l-2.1-1.6c-0.2-0.1-0.6-0.5-0.8-0.5
			c-0.3-0.1-0.5,0-0.7,0.2c-0.1,0.2-0.2,0.5,0,0.7c0.1,0.2,0.5,0.5,0.7,0.6l2.1,1.6c0.1,0.1,0.1,0.2,0,0.3l-0.6,0.8
			c-0.1,0.1-0.2,0.1-0.2,0l-2.1-1.6c-0.4-0.3-1-0.9-1.5-0.4c-0.4,0.6,0.2,1,0.7,1.4l2.1,1.6C79.3,290.6,79.3,290.7,79.3,290.8"/>
		<path class="st9" d="M85.4,273.7c0.9-1.1,2.3-1,3.6-0.1c1.2,0.9,1.7,2.3,0.8,3.4c-0.8,1.1-2.3,1-3.5,0
			C85,276.1,84.6,274.8,85.4,273.7L85.4,273.7z M86.3,274.4c-0.4,0.6,0.3,1.2,0.8,1.6c0.5,0.4,1.4,1.1,1.9,0.5
			c0.5-0.6-0.3-1.2-0.8-1.6c-0.3-0.3-0.7-0.5-1.1-0.7C86.7,274,86.5,274.1,86.3,274.4L86.3,274.4z"/>
		<path class="st9" d="M92.3,273.6l-0.6,0.8c-0.1,0.1-0.2,0.1-0.2,0l-4-3c-0.1-0.1-0.1-0.2,0-0.2l0.5-0.7c0.1-0.1,0.1-0.1,0.2-0.1
			l0.6,0.5l0,0c-0.4-0.6-0.4-1.1,0-1.7c0.3-0.3,0.6-0.6,1.2-0.5c0.5,0,1,0.4,1.4,0.7l2.5,1.9c0.1,0.1,0.1,0.2,0,0.2l-0.6,0.8
			c-0.1,0.1-0.2,0.1-0.2,0l-2.2-1.6c-0.4-0.3-1-0.9-1.4-0.3c-0.1,0.2-0.1,0.5,0,0.7c0.2,0.3,0.4,0.5,0.7,0.7l2.1,1.6
			C92.4,273.4,92.4,273.5,92.3,273.6"/>
		<path class="st9" d="M85.2,281.8c0-0.1-0.1-0.2-0.2-0.2c-0.3,0-0.6,0-0.9-0.3l-1.2-0.9c-0.5-0.4-1-0.8-1.6-0.7
			c-0.5,0.1-1,0.5-1.3,0.9c-0.6,0.7-0.9,1.8-0.1,2.6c0.1,0.1,0.2,0.1,0.2,0l0.7-0.7c0-0.1,0-0.2,0-0.2c-0.3-0.3-0.2-0.7,0-1
			c0.1-0.2,0.3-0.3,0.5-0.3c0.2,0,0.4,0.2,0.6,0.3l0.1,0.1c-0.3,0.5-0.7,1.1-0.8,1.7c-0.2,0.6,0,1.3,0.6,1.8
			c0.8,0.6,1.6,0.4,2.1-0.2c0.4-0.6,0.5-1,0.4-1.7c0.3,0,0.4,0,0.9-0.1c0.1,0,0.1-0.1,0.1-0.2l0,0C85.3,282.6,85.2,282.1,85.2,281.8
			z M83.4,283.7c-0.2,0.3-0.6,0.3-0.9,0c-0.7-0.5-0.3-1.2,0.1-1.7l0.2,0.1c0.3,0.2,0.6,0.4,0.7,0.8
			C83.6,283.2,83.6,283.5,83.4,283.7z"/>
		<path class="st3" d="M89.6,297.8L89.6,297.8"/>
		<path class="st9" d="M77.6,291.9c0-0.1-0.1-0.2-0.2-0.2c-0.3,0-0.6,0-0.9-0.3l-1.2-0.9c-0.5-0.4-1-0.8-1.6-0.7
			c-0.5,0.1-1,0.5-1.3,0.9c-0.6,0.7-0.9,1.8-0.1,2.6c0.1,0.1,0.2,0.1,0.2,0l0.7-0.7c0-0.1,0-0.2,0-0.2c-0.3-0.3-0.2-0.7,0-1
			c0.1-0.2,0.3-0.3,0.5-0.3c0.2,0,0.4,0.2,0.6,0.3l0.1,0.1c-0.3,0.5-0.7,1.1-0.8,1.7c-0.2,0.6,0,1.3,0.6,1.8
			c0.8,0.6,1.6,0.4,2.1-0.2c0.4-0.6,0.5-1,0.4-1.7c0.3,0,0.4,0,0.9-0.1c0.1,0,0.1-0.1,0.1-0.2l0,0C77.6,292.6,77.6,292.2,77.6,291.9
			z M75.8,293.8c-0.2,0.3-0.6,0.3-0.9,0c-0.7-0.5-0.3-1.2,0.1-1.7l0.2,0.1c0.3,0.2,0.6,0.4,0.7,0.8C76,293.3,76,293.6,75.8,293.8z"
			/>
	</g>
</g>
</svg>
