<?xml version="1.0" encoding="utf-8"?>
<!-- Generator: Adobe Illustrator 21.0.0, SVG Export Plug-In . SVG Version: 6.00 Build 0)  -->
<svg version="1.1" id="Layer_1" xmlns="http://www.w3.org/2000/svg" xmlns:xlink="http://www.w3.org/1999/xlink" x="0px" y="0px"
	 viewBox="0 0 756 320" style="enable-background:new 0 0 756 320;" xml:space="preserve">
<style type="text/css">
	.st0{fill:#25BEA1;}
	.st1{fill:#FFFFFF;}
</style>
<g id="Layer_1_1_">
	<rect x="0" y="0" class="st0" width="756" height="320"/>
</g>
<g>
	<path class="st1" d="M467.5,165.9v71.6c0,14.3-11.6,25.9-25.9,25.9H314.3c-14.3,0-25.9-11.6-25.9-25.9v-71.6
		c0-13.6,10.6-24.7,23.9-25.7v-18c0-36.2,29.5-65.7,65.7-65.7c36.2,0,65.7,29.5,65.7,65.7v18C456.9,141.2,467.5,152.4,467.5,165.9z
		 M447.6,165.9c0-3.2-2.7-6-6-6h-93.5v-19.9h75.6v-17.9c0-25.2-20.5-45.8-45.8-45.8c-25.2,0-45.8,20.5-45.8,45.8V160h-17.9
		c-3.2,0-6,2.7-6,6v71.6c0,3.2,2.7,6,6,6h127.3c3.2,0,6-2.7,6-6V165.9z M395.9,197.8c0,6.2-3.1,11.7-8,14.9v14.9H368v-14.9
		c-4.9-3.2-8-8.7-8-14.9c0-9.8,8-17.9,17.9-17.9C387.9,179.9,395.9,187.9,395.9,197.8z"/>
</g>
</svg>
