<svg xmlns="http://www.w3.org/2000/svg" viewBox="0 0 750 392" enable-background="new 0 0 750 392"><path fill="#fff" d="M0 0h750v392h-750z"/><path fill="#8DCF3F" d="M0 142h36.72v71.28h-36.72z"/><path fill="#679530" d="M0 213.28h36.72v36.72h-36.72z"/><path d="M158 146v100h-154v-100h154m4-4h-162v108h162v-108z"/><path fill="#8DCF3F" d="M392 142h162v17.28h-162zM392 232.72h162v17.28h-162z"/><path d="M550 146v100h-154v-100h154m4-4h-162v108h162v-108z"/><path fill="#8DCF3F" d="M588 0h36.72v108h-36.72z"/><path d="M746 4v100h-154v-100h154m4-4h-162v108h162v-108z"/><path fill="#8DCF3F" d="M392 0h36.72v71.28h-36.72z"/><path d="M550 4v100h-154v-100h154m4-4h-162v108h162v-108z"/><path fill="#8DCF3F" d="M235.96 27h82.08v54h-82.08z"/><path d="M354 4v100h-154v-100h154m4-4h-162v108h162v-108zM158 4v100h-154v-100h154m4-4h-162v108h162v-108z"/><path fill="#8DCF3F" d="M196 142h36.72v108h-36.72zM321.28 142h36.72v108h-36.72z"/><path d="M354 146v100h-154v-100h154m4-4h-162v108h162v-108z"/><path fill="#8DCF3F" d="M588 142h36.72v71.28h-36.72zM713.28 142h36.72v71.28h-36.72z"/><path fill="#679530" d="M588 213.28h36.72v36.72h-36.72zM713.28 213.28h36.72v36.72h-36.72z"/><path d="M746 146v100h-154v-100h154m4-4h-162v108h162v-108z"/><path fill="#8DCF3F" d="M0 284h162v17.28h-162z"/><path fill="#679530" d="M0 301.28h36.72v90.72h-36.72z"/><path d="M158 288v100h-154v-100h154m4-4h-162v108h162v-108z"/><path fill="#8DCF3F" d="M196 284h162v17.28h-162zM196 374.72h162v17.28h-162z"/><path fill="#679530" d="M196 301.28h36.72v73.44h-36.72z"/><path d="M354 288v100h-154v-100h154m4-4h-162v108h162v-108z"/><path fill="#8DCF3F" d="M392 284h162v17.28h-162z"/><path fill="#679530" d="M392 301.28h36.72v90.72h-36.72zM517.28 301.28h36.72v90.72h-36.72z"/><path d="M550 288v100h-154v-100h154m4-4h-162v108h162v-108z"/><path fill="#679530" d="M588 301.28h36.72v73.44h-36.72zM713.28 301.28h36.72v73.44h-36.72z"/><path fill="#8DCF3F" d="M588 284h162v17.28h-162zM588 374.72h162v17.28h-162z"/><path d="M746 288v100h-154v-100h154m4-4h-162v108h162v-108z"/></svg>