<?xml version="1.0" encoding="utf-8"?>
<!-- Generator: Adobe Illustrator 27.2.0, SVG Export Plug-In . SVG Version: 6.00 Build 0)  -->
<svg version="1.1" id="Layer_1" xmlns="http://www.w3.org/2000/svg" xmlns:xlink="http://www.w3.org/1999/xlink" x="0px" y="0px"
	 viewBox="0 0 490 71" style="enable-background:new 0 0 490 71;" xml:space="preserve">
<style type="text/css">
	.st0{fill:#8C95A3;}
	.st1{opacity:0.8;fill:#8C95A3;enable-background:new    ;}
	.st2{opacity:0.2;}
	.st3{fill-rule:evenodd;clip-rule:evenodd;fill:#8C95A3;}
</style>
<path class="st0" d="M297.4,40.5c-2.7,0-5.2,0.7-7.1,1.7c-0.7-1.5-1.4-2.8-1.6-3.8c-0.1-1.2-0.3-1.8-0.1-3.2
	c0.1-1.4,0.9-3.3,0.9-3.4s-0.1-0.8-1.7-0.9c-1.6,0-2.9,0.3-3.1,0.7c-0.1,0.4-0.4,1.4-0.6,2.4c-0.3,1.5-3.2,6.7-4.8,9.4
	c-0.5-1.1-1-2-1.1-2.8c-0.1-1.2-0.3-1.8-0.1-3.2c0.1-1.4,0.9-3.3,0.9-3.4s-0.1-0.8-1.7-0.9c-1.6,0-2.9,0.3-3.1,0.7
	c-0.1,0.4-0.4,1.5-0.6,2.4c-0.4,0.9-4.2,9.7-5.2,11.9c-0.5,1.2-0.9,2.1-1.3,2.7c0,0,0,0.1-0.1,0.1c-0.3,0.5-0.4,0.8-0.4,0.8
	c-0.2,0.4-0.4,0.7-0.6,0.7c-0.1,0-0.2-1.1,0-2.5c0.6-3,1.9-7.8,1.9-7.9c0-0.1,0.3-0.9-0.9-1.3c-1.4-0.2-1.7,0.4-1.9,0.4
	c-0.1,0-0.1,0.2-0.1,0.2s1.2-5.3-2.4-5.3c-2.3,0-5.4,2.5-7,4.8c-1,0.5-3.1,1.7-5.3,3c-0.9,0.5-1.7,0.9-2.5,1.5
	c-0.1-0.1-0.1-0.1-0.1-0.2c-4.4-4.8-12.5-8.1-12.2-14.6c0.1-2.3,0.9-8.5,15.6-16c12.1-6.1,21.7-4.4,23.4-0.7
	c2.4,5.3-5.2,15.2-17.6,16.6c-4.8,0.5-7.2-1.3-7.9-2c-0.6-0.7-0.8-0.8-1-0.7c-0.4,0.2-0.1,0.9,0,1.2c0.4,1,1.9,2.8,4.5,3.6
	c2.3,0.7,7.9,1.2,14.6-1.5c7.6-3,13.5-11.2,11.8-18.2c-1.8-7-13.3-9.3-24.2-5.4c-6.5,2.3-13.5,6-18.5,10.8c-6,5.7-7,10.7-6.5,12.8
	c1.3,7.4,11.3,12.2,15.3,15.7c-0.2,0.1-0.4,0.2-0.6,0.3c-2,1-9.6,5.1-11.5,9.4c-2.1,4.9,0.4,8.3,2,8.8c5.2,1.5,10.4-1.2,13.3-5.4
	c2.9-4.3,2.5-9.9,1.1-12.5c0,0,0-0.1-0.1-0.1l1.6-0.9c1-0.6,2-1.2,2.9-1.7c-0.5,1.4-0.9,3-1,5.3c-0.2,2.8,0.9,6.3,2.4,7.7
	c0.6,0.6,1.4,0.7,1.9,0.7c1.7,0,2.4-1.5,3.3-3.1c1-2.1,1.9-4.5,1.9-4.5s-1.1,6.5,2,6.5c1.1,0,2.3-1.5,2.8-2.3c0,0,0-0.1,0.1-0.1
	c0.1-0.2,0.2-0.3,0.2-0.3c0.4-0.8,1.5-2.7,3-5.7c2-4,3.9-8.9,3.9-8.9s0.1,1.2,0.8,3.3c0.4,1.2,1.1,2.5,1.6,3.8c-0.4,0.7-0.7,1-0.7,1
	c-0.4,0.5-0.8,1-1.2,1.6c-1.5,1.8-3.4,4-3.7,4.6c-0.3,0.7-0.2,1.3,0.4,1.7c0.4,0.3,1.1,0.4,1.9,0.3c1.4-0.1,2.4-0.4,2.9-0.7
	c0.8-0.3,1.6-0.7,2.5-1.3c1.5-1.2,2.4-2.8,2.4-5c-0.1-1.2-0.4-2.4-0.9-3.6c0.1-0.2,0.3-0.4,0.4-0.6c2.4-3.6,4.3-7.5,4.3-7.5
	s0.1,1.2,0.8,3.3c0.3,1,0.9,2.1,1.4,3.2c-2.3,1.9-3.7,4.1-4.2,5.5c-0.9,2.7-0.2,3.8,1.1,4.1c0.6,0.1,1.4-0.1,2.1-0.4
	c0.8-0.3,1.7-0.7,2.7-1.4c1.5-1.2,3-2.8,2.9-4.9c-0.1-1-0.3-2-0.6-2.9c1.9-0.8,4.4-1.3,7.6-0.9c6.8,0.8,8.2,5.2,8,7
	c-0.3,1.8-1.7,2.8-2.1,3.1c-0.5,0.3-0.6,0.4-0.6,0.7c0.1,0.3,0.3,0.3,0.7,0.2c0.6-0.1,3.6-1.5,3.7-4.9
	C308.5,45.1,304.5,40.4,297.4,40.5L297.4,40.5z M244.7,58.5c-2.3,2.5-5.4,3.5-6.8,2.7c-1.4-0.9-0.9-4.6,1.9-7.3
	c1.7-1.6,3.9-3.1,5.3-4.1c0.4-0.2,0.8-0.5,1.4-0.9c0.1-0.1,0.1-0.1,0.1-0.1l0.4-0.2C248,52.6,247,55.9,244.7,58.5L244.7,58.5z
	 M261.2,47.1c-0.8,2-2.4,7-3.4,6.7c-0.9-0.2-1.4-4.1-0.1-7.8c0.6-1.9,1.9-4.1,2.7-5c1.2-1.4,2.6-1.9,2.9-1.3
	C263.6,40.5,261.7,45.9,261.2,47.1L261.2,47.1z M274.8,53.7c-0.4,0.1-0.6,0.3-0.8,0.2c-0.1-0.1,0.1-0.3,0.1-0.3s1.7-1.9,2.4-2.7
	c0.4-0.5,0.9-1.1,1.4-1.7v0.2C277.9,51.6,275.8,53.2,274.8,53.7L274.8,53.7z M285.3,51.3c-0.2-0.1-0.2-0.7,0.6-2.6
	c0.3-0.7,1.1-1.9,2.4-3c0.1,0.4,0.2,0.9,0.2,1.4C288.5,49.8,286.5,50.8,285.3,51.3L285.3,51.3z"/>
<g transform="translate(-387 -7164) translate(387 7164)">
	<path class="st0" d="M103.1,60.7c-0.7,0-1.4-0.1-2.1-0.4c-2.8-1.1-4.3-4.2-3.5-7h-0.1l0.2-0.5l14.3-37.5c0.2-0.5,0.1-1.9,0-2.6
		c0-0.2,0-0.4,0.1-0.5v-0.1c0-0.1,0-0.1,0.1-0.1c0.2-0.6,0.9-0.9,2.1-0.9c1.4,0,3.3,0.4,5.2,1.2c1.6,0.7,3.1,1.4,4.1,2.2
		c1.2,0.9,1.7,1.8,1.4,2.5l-0.1,0.1v0.1c-0.1,0.2-0.2,0.3-0.3,0.4c-0.6,0.5-1.5,1.5-1.7,1.9l-14.4,38h-0.1
		C107.3,59.4,105.3,60.7,103.1,60.7L103.1,60.7z M98.6,53l-0.1,0.1c-0.9,2.5,0.3,5.3,2.8,6.2c0.5,0.2,1.1,0.3,1.7,0.3
		c2,0,3.7-1.2,4.5-3.1l0.1-0.1l14.2-37.2c0.3-0.8,1.7-2.1,2-2.4l0.1-0.1c0.1,0,0.1-0.1,0.1-0.1c0-0.1-0.1-0.5-1.1-1.3
		c-0.9-0.7-2.3-1.5-3.9-2.1c-1.8-0.7-3.6-1.1-4.8-1.1c-0.8,0-1.1,0.2-1.1,0.3v0.1c0.1,0.2,0.3,2.1-0.1,3.1L98.6,53L98.6,53z"/>
	<path class="st0" d="M116.8,29.3c0,0-2,2.3-3.8,3.1c-1.8,0.8-3.1,0.6-4.7,1.5c-1.6,0.9-2.4,2.3-2.4,2.3l-6.5,17.2
		c-0.7,1.9,0.3,4.2,2.3,5c2,0.8,4.1-0.2,4.9-2.2L116.8,29.3L116.8,29.3z M110.3,39.2c0.3-0.2,0.7,0,0.8,0.3c0.2,0.3,0,0.7-0.3,0.8
		c-0.3,0.2-0.7,0-0.8-0.3C109.8,39.8,110,39.4,110.3,39.2z M107.6,36.4c0.2-0.1,0.4,0,0.5,0.2s0,0.4-0.2,0.5c-0.2,0.1-0.4,0-0.5-0.2
		C107.3,36.7,107.5,36.5,107.6,36.4z M104.7,46.1c-0.3,0.2-0.7,0-0.8-0.3c-0.2-0.3,0-0.7,0.3-0.8c0.3-0.2,0.7,0,0.8,0.3
		C105.2,45.7,105.1,46,104.7,46.1z M105.3,43.9c-0.3-0.6,0-1.3,0.6-1.5c0.6-0.3,1.3,0,1.5,0.6c0.3,0.6,0,1.3-0.6,1.5
		C106.3,44.7,105.6,44.5,105.3,43.9z M106.8,49.9c0.2-0.1,0.4,0,0.5,0.2c0.1,0.2,0,0.4-0.2,0.5c-0.2,0.1-0.4,0-0.5-0.2
		C106.5,50.2,106.6,49.9,106.8,49.9z"/>
	<ellipse transform="matrix(0.359 -0.9333 0.9333 0.359 61.7657 119.9356)" class="st0" cx="118.2" cy="15" rx="1" ry="4"/>
	<path class="st0" d="M31.5,34.1c0.6,0.5,1.7,0.2,2.5-0.7c0.8-0.9,0.9-2,0.3-2.5c-0.6-0.5-1.7-0.2-2.5,0.7
		C31,32.4,30.8,33.5,31.5,34.1z M29.6,35.7c-0.2,0-0.4,0.3-0.2,0.4c0.3,0.1,0.5,0.4,0.5,0.8c-0.3,1.8-2.5,3.7-3.3,4.4
		c-0.2,0.2,0.1,0.7,0.3,0.5c0.4-0.4,1.4-1.2,2.2-2.1c-1.3,2.9-3.8,6.7-4.8,8C20.6,53.1,14.8,58,10.8,58c-3.2,0-5.8-2.1-6.4-5.3
		c-0.1-0.3-0.5-0.4-0.4,0.1c0.7,4.4,4,6.1,8.1,6.1c4.4,0,9.6-3.2,12.4-6.5c4.6-5.3,7.6-11.5,6.8-15C31,35.9,30.1,35.7,29.6,35.7
		L29.6,35.7z M58,47.4c1.2-0.3,2.2-1,2.2-2c0-0.1-0.2-0.1-0.2,0c0,0.7-0.7,1.2-1.5,1.3c-1.9,0.3-5.6-1.9-7.4-4.2
		c1.9,0.7,5.8-0.3,7.6-1.7c1.7-1.2,2.3-2.6,2.5-3.7c0.2-1.8-1.7-2.9-4.5-1.8c-1.7,0.7-3.9,2.3-6,5.2c2.3-3.9,6.9-10.1,11.3-14.2
		c5.4-4.9,8.6-4,3.7,1.2c-2,2.1-5.8,4.9-8.4,6.1c-0.8,0.3-0.4,0.8,0.2,0.5c2.8-1.2,6.5-3.8,8.7-5.9c6.6-6.4,1.1-11.2-6.2-4.5
		c-5,4.6-8.2,9.5-11,15.7c-1,1.2-1.7,2.1-2.6,2.9L46,42.6c-2.4,2.1-6.2,5-8.6,5c-1.7,0.1-2.4-1.2-2.1-2.9c0.4-2.6,3.1-5.7,5.4-6.7
		c2.9-1.4,4.7,1.3,0.8,3.4c-1.5,0.8-3.3,1.2-4,1.2c-0.8,0-0.8,0.3-0.1,0.4c1.1,0.1,3.1-0.4,4.3-1c4-1.9,4.2-5.4-0.1-5.6
		c-4.7-0.2-10.2,3.9-10.2,8.9c0.1,2.3,1.9,3.5,4.3,3.5c4.1-0.1,7.8-3.2,10.8-6c0.4-0.4,0.9-0.8,1.3-1.2c-1,2.7-1.6,5.2-1.4,7.1
		c0.2,1.4,0.9,2,1.5,2.5c0.1,0.1,0.4,0,0.2-0.3c-0.9-1-0.6-4.2,0.6-7.3C49.9,45.7,53.9,48.3,58,47.4L58,47.4z M53.1,38.5
		c4.8-4.4,6.7-0.4,3.7,1.9c-1.6,1.2-4.7,2.1-5.8,1.6l-0.2-0.1c-0.1-0.2-0.3-0.4-0.3-0.7C51.2,40.3,52.1,39.4,53.1,38.5L53.1,38.5z
		 M79.8,33.5c1.9,0.2,1.1-2.1-0.8-1.6c-0.9,0.3-1.7,1.9-2.3,3.5c-1.9,2.9-5.2,6.9-7.5,9c-2,1.8-3.9,2.2-1.6-1
		c0.9-1.3,2.1-2.7,2.8-4.1c1.6-3.5-1.8-5.1-4.5-3c-1.6,1.2-3.8,3.8-5.4,5.2c-0.4,0.4-0.3,0.9,0.1,0.5c1.4-1.1,3.7-3.6,5.7-5.1
		c1.7-1.3,2.3-0.4,1.4,0.7c-1.4,1.6-3.7,4.3-4.3,6.1c-0.8,2.6,0.2,3.7,1.9,3.7c2.3,0,5.8-3.6,8.1-6.5c0.8-1,1.6-2.1,2.3-3.2
		c-2,4-4.1,7.9-6.7,11.6c-3.7,5.1-8.3,8.9-12.7,8.9c-3.2,0-5.9-2.1-6.5-5.3c-0.1-0.3-0.4-0.4-0.4,0.1c0.7,4.4,4,6.1,8.1,6.1
		c4.4,0,8.7-2.6,11.6-5.8c6-6.4,6.8-13.6,8.6-17.7C78.4,33.5,79.2,33.5,79.8,33.5L79.8,33.5z M104.3,27.4c0.9-1.5,0.8-2.7-1.2-2.7
		c-1.5,0.1-4.4,1.2-5.7,2.1c-0.3,0.3-0.2,0.4,0.2,0.3l0.8-0.4c1.5-0.8,0.9,0.9,0.5,1.5c-1.7,3.1-4.8,7.5-6.5,9.6
		c-0.8,1-1.7,2.1-2.5,3c-1.6,1.5-4.7,4.2-7,5.1C75.3,49,85,35.7,85.9,34.7c1.8-2.3,5.8-6.3,7-8.3c0.9-1.5,0.8-2.7-1.2-2.7
		c-1.5,0.1-4.4,1.2-5.7,2.1c-0.3,0.3-0.2,0.4,0.2,0.3l0.8-0.4c1.5-0.8,0.9,0.9,0.5,1.5c-1.7,3.1-4.8,7.5-6.5,9.6
		c-1.4,1.8-3,3.6-4.3,4.7c-0.5,0.4-0.2,0.8,0.3,0.4c0.4-0.3,1.1-1,1.9-1.8c-1.4,2.8-2.5,6.8,1.1,7.2c3.1,0.4,6.8-2.8,9.2-5.2
		l0.9-0.9l0.2-0.2c-1.4,2.8-2.5,6.7,1.1,7.2c4,0.5,8.9-4.9,10.9-6.9c0.4-0.4,0.3-1-0.4-0.4c-1.1,1.2-5,4.7-7.7,5.8
		c-7.7,2.9,2.1-10.3,2.9-11.3C99,33.4,103,29.4,104.3,27.4L104.3,27.4z"/>
</g>
<g>
	<g>
		<path class="st0" d="M335,1.5h3.1v3.1h2.8V1.5h3.1v9.3H341V7.7h-2.8v3.1H335C335,10.8,335,1.5,335,1.5z"/>
		<path class="st0" d="M348.2,4.6h-2.7V1.5h8.6v3.1h-2.7v6.2h-3.1L348.2,4.6L348.2,4.6z"/>
		<path class="st0" d="M355.4,1.5h3.2l2,3.3l2-3.3h3.2v9.3h-3.1V6.2l-2.1,3.3h-0.1l-2.1-3.3v4.6h-3V1.5z"/>
		<path class="st0" d="M367.4,1.5h3.1v6.2h4.4v3.1h-7.5V1.5z"/>
	</g>
	<path class="st0" d="M346.9,37.5h8.1v-6.3h-8.7L346.9,37.5z M330.5,14.9l4.5,50l20,5.6l20-5.5l4.5-50
		C379.4,14.9,330.5,14.9,330.5,14.9z M371.2,61.7L355,66.2v-6.4l0,0l-12.6-3.5l-0.9-9.8h6.2l0.5,5.1l6.8,1.8l0,0v-9.8h-13.7
		l-1.7-18.5H355V19h20L371.2,61.7z"/>
	<path class="st1" d="M362.5,43.6H355v9.8l6.8-1.8L362.5,43.6z M355,19v6.1h15.3l-0.5,6.1H355v6.3h14.2l-1.7,18.8L355,59.8v6.4
		l16.2-4.5L375,19L355,19L355,19z"/>
	<g class="st2">
		<polygon class="st0" points="355,25.1 339.6,25.1 341.3,43.6 355,43.6 355,37.5 346.9,37.5 346.3,31.2 355,31.2 		"/>
		<polygon class="st0" points="355,53.4 355,53.4 348.1,51.6 347.7,46.5 341.5,46.5 342.4,56.3 355,59.8 355,59.8 		"/>
	</g>
</g>
<g>
	<path class="st0" d="M482.3,61.4h-70.7c-3.3,0-6-2.7-6-6V16.5c0-3.3,2.7-6,6-6h70.7c3.3,0,6,2.7,6,6v38.9
		C488.3,58.7,485.6,61.4,482.3,61.4z M411.6,14.5c-1.1,0-2,0.9-2,2v38.9c0,1.1,0.9,2,2,2h70.7c1.1,0,2-0.9,2-2V16.5c0-1.1-0.9-2-2-2
		H411.6z"/>
	<path class="st0" d="M417.5,49.4v-27h7.9l7.9,9.9l7.9-9.9h7.9v27h-7.9V34l-7.9,9.9l-7.9-9.9v15.5H417.5z M467.2,49.4l-11.9-13.1
		h7.9V22.4h7.9v13.9h7.9L467.2,49.4z"/>
</g>
<path class="st3" d="M175.3,8.4c-15.6,0-28.3,12.6-28.3,28.3c0,12.5,8.1,23.1,19.3,26.8c1.4,0.2,1.9-0.6,1.9-1.3c0-0.7,0-2.9,0-5.3
	c-7.1,1.3-8.9-1.7-9.5-3.3c-0.3-0.8-1.7-3.3-2.9-4c-1-0.5-2.4-1.8,0-1.9c2.2,0,3.8,2,4.3,2.9c2.5,4.3,6.6,3.1,8.2,2.3
	c0.2-1.8,1-3.1,1.8-3.8c-6.3-0.7-12.9-3.1-12.9-13.9c0-3.1,1.1-5.6,2.9-7.6c-0.3-0.7-1.3-3.6,0.3-7.5c0,0,2.4-0.7,7.8,2.9
	c2.3-0.6,4.7-1,7.1-1s4.8,0.3,7.1,1c5.4-3.7,7.8-2.9,7.8-2.9c1.6,3.9,0.6,6.8,0.3,7.5c1.8,2,2.9,4.5,2.9,7.6
	c0,10.8-6.6,13.2-12.9,13.9c1,0.9,1.9,2.6,1.9,5.2c0,3.8,0,6.8,0,7.8c0,0.7,0.5,1.6,1.9,1.3c11.2-3.7,19.2-14.3,19.2-26.8
	C203.6,21,190.9,8.4,175.3,8.4z"/>
</svg>
