<svg width="725" height="136" viewBox="0 0 725 136" xmlns="http://www.w3.org/2000/svg"><title>Group 3</title><desc>Created with Sketch.</desc><g fill="#8C95A3"><path d="M725.04 39.26l-9.442-30.057h-9.163l-9.366 30.057h6.828l1.726-6.052h9.062l1.726 6.052h8.63zm-30.002 0v-30.057h-11.93l-4.391 15.206-4.62-15.206h-11.93v30.057h6.65v-21.335l6.523 21.309h5l6.523-21.309v21.335h8.173zm-59.091 0v-30.057h-11.93l-4.391 15.206-4.62-15.206h-11.93v30.057h6.65v-21.335l6.549 21.335h5l6.523-21.309v21.309h8.148zm23.682-10.502c0-6.51-4.087-11.087-10.585-11.087-6.904 0-10.534 5.238-10.534 11.087 0 6.662 4.366 11.087 10.534 11.087 6.27.025 10.585-4.374 10.585-11.087zm53.38-1.755h-5.686l2.817-9.561 2.868 9.561zm-60.944 1.805c0 3.84-.508 6.205-3.021 6.205s-2.97-2.441-2.97-6.205c0-3.713.432-6.281 2.97-6.281 2.614 0 3.021 2.517 3.021 6.281zM258.125.085c-13.862 0-25.039 11.028-25.039 24.706 0 13.678 11.176 24.706 25.039 24.706 13.862 0 25.039-11.028 25.039-24.706 0-13.678-11.176-24.706-25.039-24.706zm11.523 35.649c-.433.684-1.386.94-2.166.513-5.891-3.505-13.256-4.36-22.006-2.394-.866.171-1.646-.342-1.906-1.197-.173-.855.347-1.624 1.213-1.881 9.53-2.137 17.761-1.197 24.345 2.736.693.513.953 1.453.52 2.223zm3.032-6.754c-.606.94-1.733 1.197-2.686.598-6.758-4.103-16.981-5.3-24.952-2.907-1.04.342-2.166-.256-2.426-1.282-.347-1.026.26-2.052 1.3-2.394 9.097-2.736 20.447-1.368 28.158 3.249.866.684 1.213 1.881.606 2.736zm.26-7.01c-8.057-4.702-21.4-5.129-29.111-2.821-1.213.342-2.513-.342-2.946-1.539-.347-1.197.347-2.479 1.559-2.907 8.837-2.65 23.566-2.137 32.836 3.334 1.126.684 1.473 2.052.78 3.163-.606 1.111-1.993 1.453-3.119.769zm28.331.94c-4.332-1.026-5.112-1.71-5.112-3.249 0-1.453 1.386-2.394 3.379-2.394s3.899.684 5.891 2.223c.087.085.173.085.173.085.087 0 .173-.085.173-.085l2.079-2.907c.087-.085.087-.256-.087-.342-2.426-1.881-5.112-2.821-8.317-2.821-4.678 0-7.971 2.736-7.971 6.754 0 4.274 2.772 5.728 7.711 6.925 4.159.94 4.852 1.71 4.852 3.163 0 1.539-1.386 2.565-3.725 2.565-2.513 0-4.592-.855-6.931-2.821-.087-.085-.173-.085-.173-.085-.087 0-.173 0-.173.085l-2.339 2.821c-.087.085-.087.256 0 .427 2.686 2.394 5.978 3.591 9.53 3.591 5.025 0 8.317-2.736 8.317-6.925.087-3.762-2.079-5.728-7.278-7.01zm18.801-4.189c-2.166 0-3.985.855-5.458 2.565v-1.966c0-.171-.087-.256-.26-.256h-3.899c-.173 0-.26.085-.26.256v21.714c0 .171.087.256.26.256h3.899c.173 0 .26-.085.26-.256v-6.839c1.473 1.624 3.292 2.394 5.458 2.394 4.072 0 8.144-3.078 8.144-8.976 0-5.813-4.159-8.891-8.144-8.891zm3.639 8.891c0 2.992-1.906 5.129-4.592 5.129s-4.678-2.223-4.678-5.129c0-2.907 1.993-5.129 4.678-5.129 2.686.085 4.592 2.223 4.592 5.129zm14.988-8.891c-5.198 0-9.27 3.933-9.27 9.062 0 5.044 4.072 8.891 9.27 8.891 5.198 0 9.357-3.933 9.357-8.976-.087-5.044-4.159-8.976-9.357-8.976zm0 14.02c-2.772 0-4.852-2.223-4.852-5.129 0-2.907 1.993-5.044 4.765-5.044 2.772 0 4.938 2.223 4.938 5.129 0 2.907-2.079 5.044-4.852 5.044zm20.447-13.678h-4.245v-4.274c0-.171-.087-.256-.26-.256h-3.899c-.173 0-.26.085-.26.256v4.274h-1.819c-.173 0-.26.085-.26.256v3.249c0 .171.087.256.26.256h1.819v8.463c0 3.42 1.733 5.215 5.112 5.215 1.386 0 2.513-.256 3.639-.855.087-.085.173-.171.173-.256v-3.163c0-.085-.087-.171-.173-.256-.087-.085-.173-.085-.26 0-.78.342-1.473.513-2.253.513-1.213 0-1.819-.598-1.819-1.795v-7.865h4.245c.173 0 .26-.085.26-.256v-3.249c0-.171-.087-.256-.26-.256zm14.815 0v-.513c0-1.539.606-2.223 1.993-2.223.78 0 1.473.171 2.166.427h.26c.087-.085.087-.171.087-.256v-3.249c0-.085-.087-.256-.173-.256-.78-.256-1.733-.427-3.206-.427-3.552 0-5.458 1.966-5.458 5.728v.769h-1.819c-.173 0-.26.085-.26.256v3.334c0 .171.087.256.26.256h1.819v13.08c0 .171.087.256.26.256h3.899c.173 0 .26-.085.26-.256v-13.08h3.639l5.545 13.08c-.606 1.368-1.213 1.624-2.079 1.624-.693 0-1.386-.171-2.166-.598h-.26c-.087 0-.173.085-.173.171l-1.3 2.821c-.087.171 0 .256.087.342 1.386.769 2.599 1.026 4.159 1.026 2.859 0 4.419-1.282 5.805-4.873l6.758-17.098v-.256c-.087-.085-.173-.085-.26-.085h-3.985c-.087 0-.26.085-.26.171l-4.159 11.627-4.505-11.627c0-.085-.173-.171-.26-.171h-6.671zm-8.577 0h-3.899c-.173 0-.26.085-.26.256v16.67c0 .171.087.256.26.256h3.899c.173 0 .26-.085.26-.256v-16.67c0-.171-.087-.256-.26-.256zm-1.906-7.609c-1.559 0-2.772 1.197-2.772 2.736 0 1.539 1.213 2.736 2.772 2.736 1.559 0 2.772-1.197 2.772-2.736 0-1.539-1.3-2.736-2.772-2.736z" id="Shape"/><g><path d="M192.858 22.657v-3.389h-4.188v-5.281l-.158.079-3.951 1.182h-.079v3.941h-6.242v-2.207c0-1.025.237-1.813.711-2.365.474-.552 1.106-.788 1.896-.788.553 0 1.185.158 1.817.394l.158.079v-3.547h-.079c-.553-.236-1.343-.315-2.291-.315-1.185 0-2.37.236-3.319.788-.948.552-1.738 1.261-2.291 2.207-.553.946-.79 2.049-.79 3.311v2.444h-2.923v3.389h2.923v14.188h4.188v-14.188h6.242v9.065c0 3.705 1.738 5.597 5.215 5.597.553 0 1.185-.079 1.817-.236.632-.158 1.027-.236 1.264-.394h.079v-3.389l-.158.079c-.237.158-.474.236-.869.394-.316.079-.632.158-.79.158-.79 0-1.422-.236-1.817-.631-.395-.473-.553-1.182-.553-2.286v-8.277h4.188zm-30.973 11.193c-1.501 0-2.686-.473-3.556-1.498-.869-1.025-1.264-2.444-1.264-4.257 0-1.892.395-3.311 1.264-4.335.869-1.025 2.054-1.498 3.556-1.498 1.422 0 2.607.473 3.477 1.419.869.946 1.264 2.444 1.264 4.335 0 1.892-.395 3.389-1.185 4.335-.869 1.025-2.054 1.498-3.556 1.498zm.158-14.977c-2.923 0-5.215.867-6.874 2.522-1.659 1.655-2.449 4.02-2.449 6.858 0 2.759.79 4.966 2.449 6.542 1.58 1.576 3.793 2.444 6.479 2.444 2.844 0 5.057-.867 6.716-2.522 1.659-1.734 2.449-4.02 2.449-6.858 0-2.759-.79-5.045-2.291-6.621-1.58-1.576-3.714-2.365-6.479-2.365zm-16.04 0c-1.975 0-3.635.473-4.82 1.498-1.264 1.025-1.896 2.286-1.896 3.862 0 .788.158 1.576.395 2.207.237.631.711 1.182 1.264 1.655.553.473 1.422.946 2.528 1.419.948.394 1.659.709 2.133 1.025.474.236.79.552.948.788.158.236.237.552.237 1.025 0 1.182-.869 1.734-2.686 1.734-.711 0-1.422-.158-2.291-.394-.869-.315-1.659-.709-2.37-1.182l-.158-.158v4.02h.079c.632.236 1.343.473 2.212.709.869.158 1.659.236 2.37.236 2.133 0 3.872-.473 5.136-1.498 1.264-1.025 1.896-2.365 1.896-4.02 0-1.182-.316-2.207-1.027-2.995-.711-.788-1.817-1.576-3.477-2.207-1.343-.552-2.133-.946-2.449-1.261-.316-.315-.474-.788-.474-1.34 0-.473.237-.946.632-1.261.395-.315 1.027-.473 1.817-.473.711 0 1.422.079 2.133.315.711.236 1.343.473 1.817.867l.158.079v-3.784h-.079c-.474-.236-1.106-.394-1.896-.552-.869-.236-1.58-.315-2.133-.315zm-17.699 14.977c-1.501 0-2.686-.473-3.556-1.498-.869-1.025-1.264-2.444-1.264-4.257 0-1.892.395-3.311 1.264-4.335.869-1.025 2.054-1.498 3.556-1.498 1.422 0 2.607.473 3.477 1.419.869.946 1.264 2.444 1.264 4.335 0 1.892-.395 3.389-1.185 4.335-.869 1.025-2.054 1.498-3.556 1.498zm.158-14.977c-2.923 0-5.215.867-6.874 2.522-1.659 1.655-2.449 4.02-2.449 6.858 0 2.759.79 4.966 2.449 6.542 1.58 1.576 3.793 2.444 6.479 2.444 2.844 0 5.057-.867 6.716-2.522 1.659-1.734 2.449-4.02 2.449-6.858 0-2.759-.79-5.045-2.291-6.621-1.58-1.576-3.714-2.365-6.479-2.365zm-15.644 3.468v-3.074h-4.109v17.578h4.109v-8.986c0-1.498.316-2.759 1.027-3.705.711-.946 1.58-1.419 2.686-1.419.395 0 .79.079 1.264.158.474.158.79.236.948.394l.158.158v-4.178h-.079c-.395-.158-.948-.236-1.659-.236-1.027 0-1.975.315-2.765 1.025-.632.473-1.185 1.261-1.58 2.286zm-11.536-3.468c-1.896 0-3.556.394-5.057 1.182-1.422.788-2.528 1.971-3.319 3.389-.79 1.419-1.106 3.153-1.106 5.045 0 1.655.395 3.153 1.106 4.493.711 1.34 1.817 2.365 3.081 3.153 1.343.709 2.844 1.104 4.504 1.104 1.975 0 3.635-.394 4.978-1.182h.079v-3.784l-.158.158c-.632.473-1.264.788-2.054 1.025-.711.236-1.422.394-1.975.394-1.659 0-2.923-.473-3.872-1.498-.948-1.025-1.422-2.444-1.422-4.178 0-1.813.474-3.232 1.501-4.257.948-1.025 2.291-1.576 3.872-1.576 1.343 0 2.686.473 3.951 1.34l.158.158v-4.02h-.079c-.474-.236-1.106-.473-1.896-.631-.79-.236-1.58-.315-2.291-.315zm-12.405.394h-4.109v17.578h4.109v-17.578zm-1.975-7.488c-.711 0-1.264.236-1.738.709s-.711 1.025-.711 1.734c0 .709.237 1.261.711 1.655.474.473 1.106.709 1.738.709.711 0 1.264-.236 1.817-.709.474-.473.711-1.025.711-1.655 0-.631-.237-1.261-.711-1.734-.553-.473-1.106-.709-1.817-.709zm-10.351 6.227v18.839h4.188v-24.514h-5.847l-7.427 18.208-7.19-18.208h-6.084v24.514h3.951v-18.839h.158l7.585 18.839h3.002l7.506-18.839h.158z"/><path d="M20.374 23.603h-19.437v-19.47h19.437z"/><path d="M41.944 23.603h-19.516v-19.47h19.516z"/><path d="M20.374 45.043h-19.437v-19.391h19.437z"/><path d="M41.944 45.043h-19.516v-19.391h19.516z"/></g><g><path id="Shape" d="M487.561 12.836h4.884l11.342 14.912v-14.912h5.199v24.272h-4.568l-11.657-15.388v15.388h-5.199zM520.958 27.589l-9.294-14.753h6.144l5.829 9.836 5.829-9.836h5.986l-9.294 14.595v9.677h-5.356v-9.518zM537.814 26.796v-13.96h5.356v13.802c0 3.966 1.89 6.028 5.199 6.028 3.308 0 5.199-1.904 5.199-5.87v-13.96h5.356v13.802c0 7.297-4.096 10.946-10.555 10.946-6.616 0-10.555-3.649-10.555-10.787zM476.534 46.626h-42.534v-42.833h42.534v42.833zm-22.685-5.076c0 .317.63.476.788 0l1.418-11.898h-3.623l1.418 11.898zm3.466-12.691v-1.745h-6.144v1.745h6.144zm-1.733-2.697c7.719.317 8.349-6.821 8.349-9.518-.158.635-1.26 2.538-4.096 3.807-2.521.952-4.096 3.49-4.253 5.711zm-.788-.476c1.26-5.87 5.986-6.028 6.459-7.139.63-1.745-.63-4.918-.945-5.235h-.158c-.63 1.428-1.733 2.856-2.521 3.49-.945.793-5.041 3.966-2.836 8.884zm-.945.317c-2.678-5.552 2.678-9.201 3.466-9.994.158-.159.158-.159.158-.317 0-1.745-.945-4.601-1.26-5.076h-.158c-.473 1.745-2.836 4.283-3.308 4.918-4.096 4.759-3.151 7.773 1.103 10.47zm-1.103.159c-4.411-2.697-3.938-6.346-2.048-9.042v-.317c0-.635-.788-2.38-1.103-2.697 0-.159-.158-.159-.158 0 0 .793-.945 2.697-2.205 4.759-1.26 2.221-1.26 7.139 5.514 7.297z"/></g><g><path d="M203.54 104.867c0 4.612 3.428 6.88 7.161 8.997l3.352 1.89c1.828 1.058 2.667 2.193 2.667 3.78 0 2.117-1.524 3.402-4.038 3.402-4.571 0-6.019-3.78-6.704-7.485l-.152-.605h-2.286v10.434h1.752l.229-.227c.381-.454.381-.454.762-.454.686 0 1.524.151 2.59.378 1.295.302 2.667.605 4.19.605 3.809 0 9.142-2.571 9.142-8.166 0-3.932-2.362-5.67-5.257-7.409l-6.323-3.705c-1.448-.832-2.133-1.966-2.133-3.478 0-1.21.99-3.024 3.657-3.024 1.981 0 4.495.756 5.714 6.502l.152.605h2.209l-.305-9.375h-1.752l-.229.378c-.076.151-.229.302-.381.302-.076 0-.609-.151-.914-.227-1.143-.378-2.819-.907-4.495-.907-4.952-.076-8.609 3.251-8.609 7.787"/><path d="M162.628 110.084c0-7.409 3.505-10.056 6.476-10.056 3.276 0 5.257 2.722 5.257 5.368v12.853c-.381 1.663-2.286 2.873-4.419 2.873-3.352.076-7.314-2.873-7.314-11.039zm17.066-25.933l-.152.076c-1.143.302-5.257 1.663-8.533 2.495l-.533.151v2.268l.762-.076c1.828-.227 2.59.076 2.819.302.305.302.305.832.305 1.739v7.712c-1.676-1.21-3.352-1.739-5.409-1.739-3.276 0-6.628 1.663-8.99 4.536-2.438 2.797-3.809 6.578-3.809 10.358 0 13.307 10.133 13.685 11.352 13.685 2.819 0 5.181-.907 6.933-2.571v2.041l.838.605 9.371-3.327v-2.193l-.762.076c-1.828.151-2.514-.151-2.819-.378-.305-.227-.305-.68-.305-1.437v-34.023l-1.067-.302z"/><path d="M249.861 122.786c-2.59-.454-2.895-.529-2.895-4.234v-11.643c0-6.578-2.667-9.904-7.847-9.904-2.971 0-5.638 1.285-7.847 3.629v-16.029l-.99-.605h-.076l-.229.227c-1.219.529-6.019 1.89-8.152 2.495l-.533.151v2.268l.838-.076c.457-.076.838-.076 1.371-.076s.914.076 1.143.302c.381.378.381 1.134.381 1.663v27.37c0 3.705-.229 4.007-3.047 4.31l-.762.151v2.268h13.485v-2.268h-.152c-2.59-.302-3.276-.378-3.276-4.234v-13.76c.305-.378 2.743-3.175 5.638-3.175 2.59 0 3.733 1.739 3.733 5.595v11.417c0 3.554-.609 4.007-3.276 4.158h-.076v2.268h13.18v-2.193l-.609-.076"/><path d="M194.017 124.525c4.419 0 6.704-2.571 8.304-5.595.076-.227 0-.302-.152-.227-1.143.529-4.266 1.966-8.076 1.966-3.809 0-6.933-1.437-8.076-1.966-.229-.076-.305.076-.152.227 1.448 3.024 3.657 5.595 8.152 5.595"/><path d="M187.465 111.596c1.219 2.344 2.971 4.461 6.476 4.461s5.257-2.041 6.476-4.461c.076-.151 0-.302-.152-.227-.762.378-3.2 1.437-6.323 1.437-3.124 0-5.562-1.058-6.323-1.437-.152-.076-.229.076-.152.227"/><path d="M189.141 104.867c.914 1.739 2.209 3.327 4.876 3.327 2.667 0 3.962-1.588 4.876-3.327.076-.151 0-.227-.152-.151-.457.151-2.286.983-4.724.983s-4.343-.756-4.724-.983c-.152-.076-.229.076-.152.151"/><path d="M194.017 100.936c1.828 0 2.743-1.21 3.352-2.344.076-.076 0-.151-.152-.151-.076 0-1.371.529-3.2.529-1.828 0-3.124-.454-3.2-.529-.152-.076-.152.076-.152.151.609 1.134 1.448 2.344 3.352 2.344"/><path d="M188.608 89.066c0-2.797 2.286-5.066 5.104-5.066 2.819 0 5.104 2.268 5.104 5.066 0 2.797-2.286 5.066-5.104 5.066-2.819 0-5.104-2.268-5.104-5.066"/></g><g><path d="M326.619 107.907c-1.677.984-3.551 1.377-5.425 1.377-1.184 0-2.367-.197-3.353-.59-1.874 1.672-3.847 2.853-4.833 3.345 1.479 2.263 3.748 4.034 6.51 4.722.888.197 1.775.295 2.564.295 1.973 0 3.748-.492 5.326-1.377.197-.885.395-1.869.395-2.755.099-1.672-.296-3.443-1.184-5.017"/><path d="M324.351 94.232c-.296 2.164-1.282 4.132-2.564 5.509.099.394.099.787.099 1.279 0 2.558-1.282 4.722-2.959 6.493.493.098.986.098 1.381.098 2.367 0 4.636-.787 6.707-2.263 2.269-1.771 3.649-4.329 4.044-6.985-1.578-2.066-3.847-3.542-6.312-4.132h-.395"/><path d="M322.674 92.362c0-2.951-1.184-5.608-2.959-7.477h-.197c-2.564 0-4.833.885-6.904 2.755 1.973 2.066 2.663 4.722 2.663 7.379v.59c.395-.098.888-.197 1.282-.197h.099c1.677 0 3.353.885 4.34 2.46 1.085-1.476 1.677-3.443 1.677-5.509"/><path d="M303.145 85.082h-.395c-1.775 1.968-2.86 4.526-2.86 7.28v.098h.395c2.959 0 5.721 1.181 7.595 3.05 1.578.098 3.255.984 4.142 2.656.493-.885 1.184-1.574 1.874-1.968v-.394c0-2.951-1.282-6.001-3.649-8.067-1.973-1.771-4.537-2.656-7.101-2.656"/><path d="M306.203 95.707c-1.578-.984-3.452-1.476-5.425-1.476-.592 0-1.282.098-1.874.197-2.959.492-5.326 2.066-6.904 4.23.395 2.656 1.775 5.116 4.044 6.788 1.578-2.164 3.945-3.64 6.214-4.034v-.394c0-2.951 1.874-4.821 3.945-5.313"/><path d="M296.636 107.907c-.888 1.574-1.282 3.345-1.282 5.116 0 .984.099 2.066.395 2.951 1.578.885 3.353 1.377 5.227 1.377.888 0 1.775-.098 2.663-.295-.296-.984-.395-1.968-.395-2.951 0-2.361.69-4.526 2.071-6.395-1.282-1.377-2.367-2.951-2.762-4.821-2.466.787-4.636 2.558-5.918 5.017"/><path d="M311.726 123.549c2.466-1.082 4.438-2.951 5.622-5.608-2.762-1.181-4.833-3.345-5.819-5.804-.888-.492-3.156-1.771-5.227-3.64-.789 1.574-1.184 3.247-1.184 5.017 0 1.476.296 2.951.986 4.427.986 2.656 3.156 4.624 5.622 5.608"/><path d="M346.642 110.366l-9.469 11.215h8.186c.888 0 1.578.689 1.578 1.574 0 .885-.69 1.672-1.578 1.672h-11.934c-.789 0-1.677-.787-1.677-1.672 0-.394.197-.885.395-1.181l9.37-11.215h-8.088c-.888 0-1.677-.787-1.677-1.672 0-.885.789-1.574 1.677-1.574h11.638c1.085 0 1.874.885 1.874 1.771.099.394-.099.787-.296 1.082"/><path d="M358.181 110.268c-2.663 0-4.537 1.771-4.932 4.329h9.764c-.296-2.46-2.17-4.329-4.833-4.329zm7.397 7.083h-12.329c.197 2.656 2.367 4.722 5.227 4.722 2.071 0 3.748-.885 5.227-2.164.296-.295.592-.394.986-.394.493 0 .986.197 1.282.689.197.295.296.59.296.885 0 .394-.197.885-.592 1.279-1.677 1.771-4.537 2.951-7.299 2.951-5.03 0-9.173-4.034-9.173-9.149 0-5.116 3.945-9.149 8.975-9.149 5.03 0 8.778 3.935 8.778 9.051 0 .787-.69 1.279-1.381 1.279z"/><path d="M399.015 110.464c-3.156 0-5.227 2.558-5.227 5.706 0 3.148 2.071 5.706 5.227 5.706s5.227-2.46 5.227-5.706c0-3.247-1.973-5.706-5.227-5.706zm7.2 14.659c-1.085 0-1.973-.885-1.973-1.968v-.885c-1.085 1.968-3.255 3.05-5.721 3.05-5.03 0-8.68-3.935-8.68-9.149 0-5.214 3.452-9.149 8.68-9.149 2.564 0 4.734 1.279 5.721 3.05v-10.33c0-1.082.888-1.968 1.973-1.968s1.973.885 1.973 1.968v23.415c0 1.082-.888 1.968-1.973 1.968z"/><path d="M420.713 110.268c-2.663 0-4.537 1.771-4.932 4.329h9.764c-.296-2.46-2.269-4.329-4.833-4.329zm7.299 7.083h-12.329c.197 2.656 2.367 4.722 5.227 4.722 2.071 0 3.748-.885 5.227-2.164.296-.295.592-.394.986-.394.493 0 .986.197 1.282.689.197.295.296.59.296.885 0 .394-.197.885-.592 1.279-1.677 1.771-4.537 2.951-7.299 2.951-5.03 0-9.173-4.034-9.173-9.149 0-5.116 3.945-9.149 8.975-9.149 5.03 0 8.778 3.935 8.778 9.051 0 .787-.592 1.279-1.381 1.279z"/><path d="M439.157 125.32c-1.973 0-4.537-.689-6.411-1.771-.592-.394-.986-.885-.986-1.476 0-.197.099-.394.197-.59.197-.59.69-.885 1.282-.885.197 0 .592.098.789.197 1.479.885 3.156 1.377 4.932 1.377 1.973 0 4.044-.59 4.044-2.164 0-1.181-1.085-1.672-5.129-3.05-3.353-1.181-5.129-2.656-5.129-5.116 0-2.951 2.959-4.821 6.806-4.821 2.663 0 4.34.59 6.016 1.377.69.295 1.085.885 1.085 1.476 0 .197 0 .394-.099.59-.197.59-.888 1.082-1.479 1.082-.197 0-.395 0-.592-.098-1.479-.689-2.959-1.082-4.537-1.082-2.071 0-3.452.492-3.452 1.771s.986 1.574 4.044 2.558c3.649 1.181 6.214 2.46 6.214 5.411-.099 2.755-2.762 5.214-7.595 5.214"/><path d="M464.506 125.123c-.493 0-1.085-.197-1.381-.59l-6.608-7.477-1.973 1.574v4.624c0 1.082-.888 1.968-1.874 1.968-1.085 0-1.874-.885-1.874-1.968v-23.513c0-1.082.888-1.968 1.874-1.968 1.085 0 1.874.885 1.874 1.968v14.167l8.285-6.395c.296-.197.69-.394 1.085-.394.592 0 .986.295 1.381.689.197.295.395.689.395 1.082 0 .59-.296 1.082-.69 1.377l-5.622 4.427 6.411 7.379c.296.295.395.787.395 1.181.099 1.082-.69 1.771-1.677 1.869"/><path d="M378.598 106.923c-4.537 0-8.285 3.542-8.285 8.264v8.166c0 1.082.888 1.968 1.973 1.968s1.973-.885 1.973-1.968v-8.067c0-2.755 1.479-4.821 4.34-4.821 2.86.098 4.34 2.164 4.34 4.821v8.067c0 1.082.888 1.968 1.973 1.968s1.973-.885 1.973-1.968v-8.166c-.099-4.722-3.847-8.264-8.285-8.264"/></g><g><path d="M538.956 135.911c-17.07 0-30.956-13.888-30.956-30.957 0-17.069 13.886-30.954 30.956-30.954 17.069 0 30.955 13.886 30.955 30.954 0 17.069-13.886 30.957-30.955 30.957zm0-59.789c-15.9 0-28.834 12.933-28.834 28.833 0 15.899 12.933 28.834 28.834 28.834 15.897 0 28.832-12.935 28.832-28.834 0-15.9-12.934-28.833-28.832-28.833zM522.387 99.11c-.587 0-1.063-.475-1.063-1.064v-5.563c0-.586.476-1.061 1.063-1.061h13.639c.587 0 1.062.475 1.062 1.061 0 .588-.476 1.063-1.062 1.063h-12.578v4.5c0 .589-.478 1.064-1.061 1.064zM528.466 120.098c-2.581 0-5.006-1.008-6.831-2.828-.415-.419-.415-1.089 0-1.506.416-.41 1.087-.41 1.503 0 2.936 2.944 7.716 2.944 10.658 0 2.937-2.935 2.934-7.716-.004-10.658-2.938-2.934-7.718-2.934-10.654 0-.417.416-1.087.416-1.503 0-.415-.414-.415-1.087 0-1.499 1.825-1.825 4.25-2.827 6.831-2.827 2.579 0 5.006 1.002 6.831 2.827 3.765 3.769 3.765 9.895 0 13.663-1.825 1.82-4.252 2.828-6.831 2.828zM547.684 120.098c-2.58 0-5.004-1.008-6.832-2.828-.411-.419-.411-1.089 0-1.506.417-.41 1.09-.41 1.506 0 1.423 1.427 3.315 2.21 5.326 2.21 2.013 0 3.906-.783 5.331-2.21 2.936-2.935 2.936-7.716 0-10.658-.366-.364-.779-.694-1.21-.981-.492-.321-.629-.983-.306-1.469.322-.491.979-.627 1.467-.304.557.365 1.076.788 1.549 1.256 3.765 3.769 3.765 9.895 0 13.663-1.825 1.82-4.252 2.828-6.831 2.828zM544.424 105.697c-.27 0-.544-.104-.751-.309-.415-.414-.415-1.085-.004-1.502l10.278-10.339h-13.444c-.59 0-1.062-.475-1.062-1.063 0-.586.472-1.061 1.062-1.061h15.995c.427 0 .816.257.979.655.166.396.074.85-.224 1.159l-12.078 12.145c-.205.21-.48.317-.752.317z"/></g></g></svg>