<?xml version="1.0" encoding="UTF-8" standalone="no"?>
<svg width="110px" height="83px" viewBox="0 0 110 83" version="1.1" xmlns="http://www.w3.org/2000/svg" xmlns:xlink="http://www.w3.org/1999/xlink">
    <!-- Generator: Sketch 3.8.1 (29687) - http://www.bohemiancoding.com/sketch -->
    <title>sass</title>
    <desc>Created with Sketch.</desc>
    <defs></defs>
    <g id="scratch" stroke="none" stroke-width="1" fill="none" fill-rule="evenodd">
        <g id="sass" fill="#CD6799">
            <g id="Group">
                <path d="M94.6520949,47.7741347 C90.8251364,47.7942925 87.4990892,48.7215542 84.7140254,50.0922888 C83.6921675,48.0563451 82.6703096,46.2421371 82.4899818,44.9117185 C82.2896177,43.3595627 82.0491805,42.4121433 82.2896177,40.5576199 C82.5300545,38.7030965 83.6120218,36.0624165 83.5919855,35.8608379 C83.5719491,35.6592593 83.3515482,34.7118397 81.147541,34.6916818 C78.9435337,34.671524 77.0400727,35.114997 76.8196722,35.699575 C76.5992713,36.284153 76.1785062,37.614572 75.8979964,38.9853066 C75.517304,41.0010929 71.4899818,48.1974498 69.1857925,51.9669701 C68.4444445,50.4954462 67.8032786,49.205343 67.6630238,48.1772921 C67.4626593,46.6251367 67.222222,45.6777172 67.4626593,43.8231938 C67.7030965,41.9686703 68.7850638,39.3279903 68.7650275,39.1264117 C68.7449907,38.924833 68.5245902,37.9774135 66.320583,37.9572556 C64.1165757,37.9370977 62.2131146,38.3805708 61.9927142,38.9651487 C61.7723133,39.5497268 61.5318761,40.9204614 61.0710384,42.2508804 C60.6102002,43.5812994 55.2604736,55.5953855 53.8579237,58.6996966 C53.136612,60.2921675 52.5154829,61.5621129 52.0746811,62.4289009 L52.0746811,62.4289009 C52.0746811,62.4289009 52.0546447,62.4893746 51.9945353,62.5901638 C51.6138434,63.3360049 51.3934425,63.7391622 51.3934425,63.7391622 C51.3934425,63.7391622 51.3934425,63.7391622 51.3934425,63.75932 C51.0928962,64.3035821 50.7723133,64.8075287 50.6120218,64.8075287 C50.4918034,64.8075287 50.2714025,63.3561626 50.6520949,61.3806922 C51.4535519,57.2080146 53.3570129,50.7171829 53.3369762,50.4954462 C53.3369762,50.3744992 53.6976322,49.2456586 52.0947178,48.6610809 C50.5318761,48.0765028 49.9708563,49.0440801 49.8306011,49.0440801 C49.690346,49.0440801 49.5901639,49.3867638 49.5901639,49.3867638 C49.5901639,49.3867638 51.3333335,42.0896175 46.2641167,42.0896175 C43.0983605,42.0896175 38.7304189,45.5769276 36.5664845,48.7215542 C35.2040073,49.4673952 32.2987249,51.0598665 29.1930783,52.7732848 C28.0109289,53.4384943 26.7887067,54.1037039 25.6466302,54.7285975 C25.5664845,54.647966 25.4863388,54.5471768 25.4061931,54.4665453 C19.2750455,47.8749239 7.93442624,43.2184578 8.41530057,34.369156 C8.59562842,31.143898 9.69763205,22.6775956 30.1948998,12.3970856 C47.0655737,4.03157256 60.4899818,6.34972678 62.8142075,11.4899818 C66.1402552,18.8274439 55.6211292,32.4541591 38.1894353,34.4296296 C31.5373406,35.1754706 28.0510018,32.5952641 27.1693989,31.6276867 C26.2477231,30.6197936 26.1074681,30.55932 25.7668488,30.7608986 C25.2058288,31.0632665 25.5664845,31.9703704 25.7668488,32.4944748 C26.287796,33.8652095 28.431694,36.284153 32.0582878,37.4734669 C35.2641166,38.5216758 43.0582879,39.1062538 52.4954461,35.4375228 C63.0546447,31.3253188 71.309654,19.8958106 68.8852459,10.3208257 C66.4608377,0.604735882 50.431694,-2.6003643 35.2641166,2.82210079 C26.2477231,6.04735882 16.4699453,11.1271403 9.43715846,17.7389193 C1.08196721,25.6004857 -0.240437159,32.4340012 0.300546448,35.2964177 C2.24408015,45.4559806 16.1693989,52.0677597 21.7395264,56.9661201 C21.4590164,57.1273831 21.1985428,57.2684883 20.9781421,57.3894353 C18.1930783,58.7803277 7.57377049,64.3640558 4.92896177,70.2703095 C1.92349727,76.9627201 5.40983605,81.7602913 7.71402552,82.405343 C14.867031,84.4009713 22.2204007,80.8128718 26.1675774,74.8864604 C30.1147541,68.9600485 29.6338798,61.2597452 27.8105647,57.7321189 C27.7905282,57.6918034 27.7704918,57.6514875 27.7304189,57.6111719 C28.4517304,57.1878568 29.1930783,56.7443839 29.9143898,56.3210688 C31.3369763,55.4744385 32.7395264,54.6882815 33.9417122,54.0432302 C33.2604736,55.9179114 32.7595629,58.1554341 32.5191257,61.3806922 C32.2185792,65.1703706 33.7613843,70.0888887 35.7850637,72.0240437 C36.6867031,72.8706739 37.7486339,72.8908317 38.4298725,72.8908317 C40.7941712,72.8908317 41.856102,70.9153612 43.0382515,68.5770494 C44.4808745,65.7146327 45.7832422,62.3885854 45.7832422,62.3885854 C45.7832422,62.3885854 44.1602915,71.3789919 48.568306,71.3789919 C50.1712204,71.3789919 51.7941712,69.2825744 52.5154829,68.2142075 L52.5154829,68.2343657 C52.5154829,68.2343657 52.5555555,68.173892 52.6357012,68.0327868 C52.7959927,67.7707346 52.8961748,67.6094717 52.8961748,67.6094717 L52.8961748,67.5691562 C53.5373407,66.4403155 54.9799637,63.880267 57.1238615,59.6269579 C59.888889,54.1440194 62.5537339,47.2903463 62.5537339,47.2903463 C62.5537339,47.2903463 62.7941712,48.9634486 63.6156649,51.7452338 C64.0965394,53.3780206 65.0983605,55.1720704 65.8998179,56.9056464 C65.258652,57.8127504 64.8579237,58.316697 64.8579237,58.316697 C64.8579237,58.316697 64.8579237,58.316697 64.87796,58.3368548 C64.3570129,59.0222221 63.7959927,59.7680631 63.1748636,60.4937464 C60.9908926,63.1142682 58.3861566,66.1177901 58.025501,66.9845781 C57.604736,68.012629 57.704918,68.7584701 58.506375,69.3632059 C59.0874316,69.8066788 60.1293262,69.8671525 61.1912568,69.8066788 C63.1548268,69.6655736 64.5373407,69.1817852 65.2185793,68.8794171 C66.2805099,68.4964179 67.5227687,67.9118398 68.6848817,67.0450518 C70.8287796,65.4525805 72.1311473,63.1747419 72.0109289,60.1712205 C71.9508195,58.5182755 71.4098361,56.8653309 70.7486338,55.3131756 C70.948998,55.0309652 71.1293262,54.7487553 71.3296904,54.4665453 C74.715847,49.487553 77.3406193,44.0247722 77.3406193,44.0247722 C77.3406193,44.0247722 77.5810565,45.697875 78.4025503,48.4796598 C78.8032786,49.8907104 79.6247723,51.4227079 80.346084,52.91439 C77.1602915,55.514754 75.1967214,58.5384337 74.4954461,60.5139041 C73.233151,64.1826351 74.2149362,65.8355797 76.0783242,66.2185793 C76.9198543,66.4 78.12204,65.9968426 79.0036431,65.6138435 C80.1256831,65.251002 81.4480876,64.626108 82.7103823,63.6988463 C84.8542806,62.1063754 86.9180327,59.8890105 86.7978143,56.8854887 C86.7377049,55.514754 86.3770493,54.1641772 85.8761385,52.8539163 C88.5810565,51.7250761 92.0673952,51.100182 96.5154829,51.6242864 C106.052823,52.753127 107.936248,58.7400121 107.575592,61.2597452 C107.214936,63.7794777 105.211293,65.1502124 104.550091,65.5735275 C103.888889,65.9968426 103.668488,66.1379478 103.728597,66.4403155 C103.808743,66.8837888 104.129326,66.8636307 104.690346,66.7829992 C105.471767,66.6418944 109.699453,64.7470554 109.879782,60.1107468 C110.180328,54.1843354 104.570128,47.713661 94.6520949,47.7741347 L94.6520949,47.7741347 L94.6520949,47.7741347 Z M21.0783242,72.7295688 C17.9125683,76.1967213 13.5045537,77.5069822 11.6010929,76.3982997 C9.55737707,75.2089858 10.3588342,70.0888887 14.2459017,66.4201578 C16.6102004,64.1826351 19.6557377,62.1063754 21.6794171,60.83643 C22.140255,60.5542197 22.8214936,60.1510627 23.6429872,59.6471161 C23.7832423,59.5664846 23.863388,59.5261687 23.863388,59.5261687 L23.863388,59.5261687 C24.0236794,59.4253794 24.1839709,59.3245902 24.3442623,59.223801 C25.7668488,64.4648451 24.4043716,69.0809955 21.0783242,72.7295688 L21.0783242,72.7295688 L21.0783242,72.7295688 Z M44.1202184,56.9661201 C43.0182148,59.6672739 40.7140255,66.5814207 39.3114754,66.1984215 C38.1092896,65.8758956 37.3679417,60.6348511 39.0710382,55.4542803 C39.9326047,52.8539163 41.7559199,49.7496052 42.8178506,48.5401335 C44.5409834,46.6049785 46.4444445,45.9599272 46.9052822,46.7460837 C47.4863387,47.7741347 44.801457,55.2728596 44.1202184,56.9661201 L44.1202184,56.9661201 L44.1202184,56.9661201 Z M63.1347905,66.1177901 C62.6739528,66.3596845 62.233151,66.520947 62.0327868,66.4 C61.8925317,66.3193685 62.233151,65.9968426 62.233151,65.9968426 C62.233151,65.9968426 64.6174865,63.4166363 65.5591986,62.2474802 C66.1001821,61.5621129 66.741348,60.7557986 67.4225866,59.8486946 L67.4225866,60.1107468 C67.4225866,63.1948997 64.457195,65.2711598 63.1347905,66.1177901 L63.1347905,66.1177901 L63.1347905,66.1177901 Z M77.801457,62.7514268 C77.4608377,62.5095324 77.5209471,61.703218 78.6630238,59.183485 C79.1038252,58.19575 80.1457194,56.542805 81.9289616,54.9503342 C82.1293262,55.5953855 82.2695809,56.2202791 82.2495446,56.8048572 C82.2295083,60.6953248 79.4644808,62.1466909 77.801457,62.7514268 L77.801457,62.7514268 L77.801457,62.7514268 Z" id="Shape"></path>
            </g>
        </g>
    </g>
</svg>