<?xml version="1.0" encoding="utf-8"?>
<!-- Generator: Adobe Illustrator 19.2.1, SVG Export Plug-In . SVG Version: 6.00 Build 0)  -->
<svg version="1.1" id="Layer_1" xmlns="http://www.w3.org/2000/svg" xmlns:xlink="http://www.w3.org/1999/xlink" x="0px" y="0px"
	 viewBox="0 0 125 62" style="enable-background:new 0 0 125 62;" xml:space="preserve">
<style type="text/css">
	.st0{fill:#ED1944;}
</style>
<title>Dish_Network_logo_2012</title>
<desc>Created with Sketch.</desc>
<g id="scratch">
	<g id="Dish_Network_logo_2012">
		<g id="svg2">
			<path id="path20" class="st0" d="M62.4,31.3c0,6.1,4.5,9.1,9.4,11.9l4.4,2.5c2.4,1.4,3.5,2.9,3.5,5c0,2.8-2,4.5-5.3,4.5
				c-6,0-7.9-5-8.8-9.9l-0.2-0.8h-3v13.8h2.3L65,58c0.5-0.6,0.5-0.6,1-0.6c0.9,0,2,0.2,3.4,0.5c1.7,0.4,3.5,0.8,5.5,0.8
				c5,0,12-3.4,12-10.8c0-5.2-3.1-7.5-6.9-9.8l-8.3-4.9c-1.9-1.1-2.8-2.6-2.8-4.6c0-1.6,1.3-4,4.8-4c2.6,0,5.9,1,7.5,8.6l0.2,0.8
				h2.9l-0.4-12.4h-2.3l-0.3,0.5c-0.1,0.2-0.3,0.4-0.5,0.4c-0.1,0-0.8-0.2-1.2-0.3c-1.5-0.5-3.7-1.2-5.9-1.2
				C67.2,20.9,62.4,25.3,62.4,31.3"/>
			<path id="path22" class="st0" d="M8.7,38.2c0-9.8,4.6-13.3,8.5-13.3c4.3,0,6.9,3.6,6.9,7.1v17c-0.5,2.2-3,3.8-5.8,3.8
				C13.9,52.9,8.7,49,8.7,38.2L8.7,38.2z M31.1,3.9L30.9,4l0,0C29.4,4.4,24,6.2,19.7,7.3L19,7.5v3l1-0.1c2.4-0.3,3.4,0.1,3.7,0.4
				c0.4,0.4,0.4,1.1,0.4,2.3v10.2C21.9,21.7,19.7,21,17,21c-4.3,0-8.7,2.2-11.8,6c-3.2,3.7-5,8.7-5,13.7c0,17.6,13.3,18.1,14.9,18.1
				c3.7,0,6.8-1.2,9.1-3.4v2.7l1.1,0.8l12.3-4.4v-2.9l-1,0.1c-2.4,0.2-3.3-0.2-3.7-0.5s-0.4-0.9-0.4-1.9v-45L31.1,3.9L31.1,3.9
				L31.1,3.9z"/>
			<path id="path24" class="st0" d="M123.2,55c-3.4-0.6-3.8-0.7-3.8-5.6V34c0-8.7-3.5-13.1-10.3-13.1c-3.9,0-7.4,1.7-10.3,4.8V4.5
				l-1.3-0.8h-0.1L97.1,4c-1.6,0.7-7.9,2.5-10.7,3.3l-0.7,0.2v3l1.1-0.1c0.6-0.1,1.1-0.1,1.8-0.1c0.7,0,1.2,0.1,1.5,0.4
				c0.5,0.5,0.5,1.5,0.5,2.2v0.3v35.9c0,4.9-0.3,5.3-4,5.7l-1,0.2v3h17.7v-3h-0.2c-3.4-0.4-4.3-0.5-4.3-5.6V31.2
				c0.4-0.5,3.6-4.2,7.4-4.2c3.4,0,4.9,2.3,4.9,7.4v15.1c0,4.7-0.8,5.3-4.3,5.5h-0.1v3H124v-2.9L123.2,55"/>
			<path id="path28" class="st0" d="M49.9,57.3c5.8,0,8.8-3.4,10.9-7.4c0.1-0.3,0-0.4-0.2-0.3c-1.5,0.7-5.6,2.6-10.6,2.6
				s-9.1-1.9-10.6-2.6c-0.3-0.1-0.4,0.1-0.2,0.3C41.1,53.9,44,57.3,49.9,57.3"/>
			<path id="path30" class="st0" d="M41.3,40.2c1.6,3.1,3.9,5.9,8.5,5.9s6.9-2.7,8.5-5.9c0.1-0.2,0-0.4-0.2-0.3
				c-1,0.5-4.2,1.9-8.3,1.9s-7.3-1.4-8.3-1.9C41.3,39.8,41.2,40,41.3,40.2"/>
			<path id="path32" class="st0" d="M43.5,31.3c1.2,2.3,2.9,4.4,6.4,4.4s5.2-2.1,6.4-4.4c0.1-0.2,0-0.3-0.2-0.2
				c-0.6,0.2-3,1.3-6.2,1.3s-5.7-1-6.2-1.3C43.5,31,43.4,31.2,43.5,31.3"/>
			<path id="path34" class="st0" d="M49.9,26.1c2.4,0,3.6-1.6,4.4-3.1c0.1-0.1,0-0.2-0.2-0.2c-0.1,0-1.8,0.7-4.2,0.7
				s-4.1-0.6-4.2-0.7c-0.2-0.1-0.2,0.1-0.2,0.2C46.3,24.5,47.4,26.1,49.9,26.1"/>
			<path id="path36" class="st0" d="M42.8,10.4c0-3.7,3-6.7,6.7-6.7s6.7,3,6.7,6.7s-3,6.7-6.7,6.7C45.8,17.1,42.8,14.1,42.8,10.4"/>
		</g>
	</g>
</g>
</svg>
