<?xml version="1.0" encoding="UTF-8" standalone="no"?>
<svg width="702px" height="132px" viewBox="0 0 702 132" version="1.1" xmlns="http://www.w3.org/2000/svg" xmlns:xlink="http://www.w3.org/1999/xlink">
    <!-- Generator: Sketch 3.8.2 (29753) - http://www.bohemiancoding.com/sketch -->
    <title>Group 2</title>
    <desc>Created with Sketch.</desc>
    <defs></defs>
    <g id="Page-1" stroke="none" stroke-width="1" fill="none" fill-rule="evenodd">
        <g id="Desktop-Landscape-Copy-3" transform="translate(-289.000000, -915.000000)" fill="#8C95A3">
            <g id="Group-2" transform="translate(289.000000, 915.000000)">
                <g id="logo--moma" transform="translate(580.000000, 9.000000)">
                    <path d="M121.949272,30.2377049 L112.513929,0.203278689 L103.357588,0.203278689 L93.9983368,30.2377049 L100.821206,30.2377049 L102.545946,24.1901639 L111.600832,24.1901639 L113.325572,30.2377049 L121.949272,30.2377049 L121.949272,30.2377049 L121.949272,30.2377049 L121.949272,30.2377049 Z M91.9692308,30.2377049 L91.9692308,0.203278689 L80.0482328,0.203278689 L75.6602911,15.3983607 L71.0440748,0.203278689 L59.1230769,0.203278689 L59.1230769,30.2377049 L65.7683992,30.2377049 L65.7683992,8.91885246 L72.2869023,30.2122951 L77.2835759,30.2122951 L83.802079,8.91885246 L83.802079,30.2377049 L91.9692308,30.2377049 L91.9692308,30.2377049 L91.9692308,30.2377049 L91.9692308,30.2377049 Z M32.9222453,30.2377049 L32.9222453,0.203278689 L21.0012474,0.203278689 L16.6133056,15.3983607 L11.9970894,0.203278689 L0.0760914761,0.203278689 L0.0760914761,30.2377049 L6.72141372,30.2377049 L6.72141372,8.91885246 L13.2652807,30.2377049 L18.2619543,30.2377049 L24.7804574,8.9442623 L24.7804574,30.2377049 L32.9222453,30.2377049 L32.9222453,30.2377049 L32.9222453,30.2377049 L32.9222453,30.2377049 Z M56.5866944,19.7434426 C56.5866944,13.2385246 52.5031185,8.6647541 46.0099792,8.6647541 C39.1110187,8.6647541 35.4839917,13.8991803 35.4839917,19.7434426 C35.4839917,26.4008197 39.8465696,30.8221311 46.0099792,30.8221311 C52.2748441,30.847541 56.5866944,26.4516393 56.5866944,19.7434426 L56.5866944,19.7434426 L56.5866944,19.7434426 L56.5866944,19.7434426 Z M109.926819,17.9901639 L104.245322,17.9901639 L107.060707,8.43606557 L109.926819,17.9901639 L109.926819,17.9901639 L109.926819,17.9901639 L109.926819,17.9901639 Z M49.0282744,19.7942623 C49.0282744,23.6311475 48.5209979,25.9942623 46.0099792,25.9942623 C43.4989605,25.9942623 43.0424116,23.554918 43.0424116,19.7942623 C43.0424116,16.0844262 43.4735967,13.5180328 46.0099792,13.5180328 C48.6224532,13.5180328 49.0282744,16.0336066 49.0282744,19.7942623 L49.0282744,19.7942623 L49.0282744,19.7942623 L49.0282744,19.7942623 Z" id="Shape"></path>
                </g>
                <g id="logo--spotify" transform="translate(220.000000, 0.000000)">
                    <path d="M24.3225806,0.0827586207 C10.9032258,0.0827586207 0.0838709677,10.7586207 0.0838709677,24 C0.0838709677,37.2413793 10.9032258,47.9172414 24.3225806,47.9172414 C37.7419355,47.9172414 48.5612903,37.2413793 48.5612903,24 C48.5612903,10.7586207 37.7419355,0.0827586207 24.3225806,0.0827586207 L24.3225806,0.0827586207 L24.3225806,0.0827586207 L24.3225806,0.0827586207 Z M35.4774194,34.5931034 C35.0580645,35.2551724 34.1354839,35.5034483 33.3806452,35.0896552 C27.6774194,31.6965517 20.5483871,30.8689655 12.0774194,32.7724138 C11.2387097,32.937931 10.483871,32.4413793 10.2322581,31.6137931 C10.0645161,30.7862069 10.5677419,30.0413793 11.4064516,29.7931034 C20.6322581,27.7241379 28.6,28.6344828 34.9741935,32.4413793 C35.6451613,32.937931 35.8967742,33.8482759 35.4774194,34.5931034 L35.4774194,34.5931034 L35.4774194,34.5931034 Z M38.4129032,28.0551724 C37.8258065,28.9655172 36.7354839,29.2137931 35.8129032,28.6344828 C29.2709677,24.662069 19.3741935,23.5034483 11.6580645,25.8206897 C10.6516129,26.1517241 9.56129032,25.5724138 9.30967742,24.5793103 C8.97419355,23.5862069 9.56129032,22.5931034 10.5677419,22.262069 C19.3741935,19.6137931 30.3612903,20.937931 37.8258065,25.4068966 C38.6645161,26.0689655 39,27.2275862 38.4129032,28.0551724 L38.4129032,28.0551724 L38.4129032,28.0551724 L38.4129032,28.0551724 Z M38.6645161,21.2689655 C30.8645161,16.7172414 17.9483871,16.3034483 10.483871,18.537931 C9.30967742,18.8689655 8.0516129,18.2068966 7.63225806,17.0482759 C7.29677419,15.8896552 7.96774194,14.6482759 9.14193548,14.2344828 C17.6967742,11.6689655 31.9548387,12.1655172 40.9290323,17.462069 C42.0193548,18.1241379 42.3548387,19.4482759 41.683871,20.5241379 C41.0967742,21.6 39.7548387,21.9310345 38.6645161,21.2689655 L38.6645161,21.2689655 L38.6645161,21.2689655 Z M66.0903226,22.1793103 C61.8967742,21.1862069 61.1419355,20.5241379 61.1419355,19.0344828 C61.1419355,17.6275862 62.483871,16.7172414 64.4129032,16.7172414 C66.3419355,16.7172414 68.1870968,17.3793103 70.116129,18.8689655 C70.2,18.9517241 70.283871,18.9517241 70.283871,18.9517241 C70.3677419,18.9517241 70.4516129,18.8689655 70.4516129,18.8689655 L72.4645161,16.0551724 C72.5483871,15.9724138 72.5483871,15.8068966 72.3806452,15.7241379 C70.0322581,13.9034483 67.4322581,12.9931034 64.3290323,12.9931034 C59.8,12.9931034 56.6129032,15.6413793 56.6129032,19.5310345 C56.6129032,23.6689655 59.2967742,25.0758621 64.0774194,26.2344828 C68.1032258,27.1448276 68.7741935,27.8896552 68.7741935,29.2965517 C68.7741935,30.7862069 67.4322581,31.7793103 65.1677419,31.7793103 C62.7354839,31.7793103 60.7225806,30.9517241 58.4580645,29.0482759 C58.3741935,28.9655172 58.2903226,28.9655172 58.2903226,28.9655172 C58.2064516,28.9655172 58.1225806,28.9655172 58.1225806,29.0482759 L55.8580645,31.7793103 C55.7741935,31.862069 55.7741935,32.0275862 55.8580645,32.1931034 C58.4580645,34.5103448 61.6451613,35.6689655 65.083871,35.6689655 C69.9483871,35.6689655 73.1354839,33.0206897 73.1354839,28.9655172 C73.2193548,25.3241379 71.1225806,23.4206897 66.0903226,22.1793103 L66.0903226,22.1793103 L66.0903226,22.1793103 L66.0903226,22.1793103 Z M84.2903226,18.1241379 C82.1935484,18.1241379 80.4322581,18.9517241 79.0064516,20.6068966 L79.0064516,18.7034483 C79.0064516,18.537931 78.9225806,18.4551724 78.7548387,18.4551724 L74.9806452,18.4551724 C74.8129032,18.4551724 74.7290323,18.537931 74.7290323,18.7034483 L74.7290323,39.7241379 C74.7290323,39.8896552 74.8129032,39.9724138 74.9806452,39.9724138 L78.7548387,39.9724138 C78.9225806,39.9724138 79.0064516,39.8896552 79.0064516,39.7241379 L79.0064516,33.1034483 C80.4322581,34.6758621 82.1935484,35.4206897 84.2903226,35.4206897 C88.2322581,35.4206897 92.1741935,32.4413793 92.1741935,26.7310345 C92.1741935,21.1034483 88.1483871,18.1241379 84.2903226,18.1241379 L84.2903226,18.1241379 L84.2903226,18.1241379 L84.2903226,18.1241379 Z M87.8129032,26.7310345 C87.8129032,29.6275862 85.9677419,31.6965517 83.3677419,31.6965517 C80.7677419,31.6965517 78.8387097,29.5448276 78.8387097,26.7310345 C78.8387097,23.9172414 80.7677419,21.7655172 83.3677419,21.7655172 C85.9677419,21.8482759 87.8129032,23.9172414 87.8129032,26.7310345 L87.8129032,26.7310345 L87.8129032,26.7310345 L87.8129032,26.7310345 Z M102.322581,18.1241379 C97.2903226,18.1241379 93.3483871,21.9310345 93.3483871,26.8965517 C93.3483871,31.7793103 97.2903226,35.5034483 102.322581,35.5034483 C107.354839,35.5034483 111.380645,31.6965517 111.380645,26.8137931 C111.296774,21.9310345 107.354839,18.1241379 102.322581,18.1241379 L102.322581,18.1241379 L102.322581,18.1241379 L102.322581,18.1241379 Z M102.322581,31.6965517 C99.6387097,31.6965517 97.6258065,29.5448276 97.6258065,26.7310345 C97.6258065,23.9172414 99.5548387,21.8482759 102.23871,21.8482759 C104.922581,21.8482759 107.019355,24 107.019355,26.8137931 C107.019355,29.6275862 105.006452,31.6965517 102.322581,31.6965517 L102.322581,31.6965517 L102.322581,31.6965517 Z M122.116129,18.4551724 L118.006452,18.4551724 L118.006452,14.3172414 C118.006452,14.1517241 117.922581,14.0689655 117.754839,14.0689655 L113.980645,14.0689655 C113.812903,14.0689655 113.729032,14.1517241 113.729032,14.3172414 L113.729032,18.4551724 L111.967742,18.4551724 C111.8,18.4551724 111.716129,18.537931 111.716129,18.7034483 L111.716129,21.8482759 C111.716129,22.0137931 111.8,22.0965517 111.967742,22.0965517 L113.729032,22.0965517 L113.729032,30.2896552 C113.729032,33.6 115.406452,35.337931 118.677419,35.337931 C120.019355,35.337931 121.109677,35.0896552 122.2,34.5103448 C122.283871,34.4275862 122.367742,34.3448276 122.367742,34.262069 L122.367742,31.2 C122.367742,31.1172414 122.283871,31.0344828 122.2,30.9517241 C122.116129,30.8689655 122.032258,30.8689655 121.948387,30.9517241 C121.193548,31.2827586 120.522581,31.4482759 119.767742,31.4482759 C118.593548,31.4482759 118.006452,30.8689655 118.006452,29.7103448 L118.006452,22.0965517 L122.116129,22.0965517 C122.283871,22.0965517 122.367742,22.0137931 122.367742,21.8482759 L122.367742,18.7034483 C122.367742,18.537931 122.283871,18.4551724 122.116129,18.4551724 L122.116129,18.4551724 L122.116129,18.4551724 L122.116129,18.4551724 Z M136.458065,18.4551724 L136.458065,17.9586207 C136.458065,16.4689655 137.045161,15.8068966 138.387097,15.8068966 C139.141935,15.8068966 139.812903,15.9724138 140.483871,16.2206897 L140.735484,16.2206897 C140.819355,16.137931 140.819355,16.0551724 140.819355,15.9724138 L140.819355,12.8275862 C140.819355,12.7448276 140.735484,12.5793103 140.651613,12.5793103 C139.896774,12.3310345 138.974194,12.1655172 137.548387,12.1655172 C134.109677,12.1655172 132.264516,14.0689655 132.264516,17.7103448 L132.264516,18.4551724 L130.503226,18.4551724 C130.335484,18.4551724 130.251613,18.537931 130.251613,18.7034483 L130.251613,21.9310345 C130.251613,22.0965517 130.335484,22.1793103 130.503226,22.1793103 L132.264516,22.1793103 L132.264516,34.8413793 C132.264516,35.0068966 132.348387,35.0896552 132.516129,35.0896552 L136.290323,35.0896552 C136.458065,35.0896552 136.541935,35.0068966 136.541935,34.8413793 L136.541935,22.1793103 L140.064516,22.1793103 L145.432258,34.8413793 C144.845161,36.1655172 144.258065,36.4137931 143.419355,36.4137931 C142.748387,36.4137931 142.077419,36.2482759 141.322581,35.8344828 L141.070968,35.8344828 C140.987097,35.8344828 140.903226,35.9172414 140.903226,36 L139.645161,38.7310345 C139.56129,38.8965517 139.645161,38.9793103 139.729032,39.062069 C141.070968,39.8068966 142.245161,40.0551724 143.754839,40.0551724 C146.522581,40.0551724 148.032258,38.8137931 149.374194,35.337931 L155.916129,18.7862069 L155.916129,18.537931 C155.832258,18.4551724 155.748387,18.4551724 155.664516,18.4551724 L151.806452,18.4551724 C151.722581,18.4551724 151.554839,18.537931 151.554839,18.6206897 L147.529032,29.8758621 L143.167742,18.6206897 C143.167742,18.537931 143,18.4551724 142.916129,18.4551724 L136.458065,18.4551724 L136.458065,18.4551724 L136.458065,18.4551724 L136.458065,18.4551724 Z M128.154839,18.4551724 L124.380645,18.4551724 C124.212903,18.4551724 124.129032,18.537931 124.129032,18.7034483 L124.129032,34.8413793 C124.129032,35.0068966 124.212903,35.0896552 124.380645,35.0896552 L128.154839,35.0896552 C128.322581,35.0896552 128.406452,35.0068966 128.406452,34.8413793 L128.406452,18.7034483 C128.406452,18.537931 128.322581,18.4551724 128.154839,18.4551724 L128.154839,18.4551724 L128.154839,18.4551724 L128.154839,18.4551724 Z M126.309677,11.0896552 C124.8,11.0896552 123.625806,12.2482759 123.625806,13.737931 C123.625806,15.2275862 124.8,16.3862069 126.309677,16.3862069 C127.819355,16.3862069 128.993548,15.2275862 128.993548,13.737931 C128.993548,12.2482759 127.735484,11.0896552 126.309677,11.0896552 L126.309677,11.0896552 L126.309677,11.0896552 Z" id="Shape"></path>
                </g>
                <g id="logo--microsoft" transform="translate(0.000000, 5.000000)">
                    <path d="M177.926749,17.1730769 L177.926749,14.0307692 L174.044444,14.0307692 L174.044444,9.13461538 L173.897942,9.20769231 L170.235391,10.3038462 L170.16214,10.3038462 L170.16214,13.9576923 L164.375309,13.9576923 L164.375309,11.9115385 C164.375309,10.9615385 164.595062,10.2307692 165.034568,9.71923077 C165.474074,9.20769231 166.060082,8.98846154 166.792593,8.98846154 C167.30535,8.98846154 167.891358,9.13461538 168.477366,9.35384615 L168.623868,9.42692308 L168.623868,6.13846154 L168.550617,6.13846154 C168.03786,5.91923077 167.30535,5.84615385 166.426337,5.84615385 C165.327572,5.84615385 164.228807,6.06538462 163.349794,6.57692308 C162.470782,7.08846154 161.738272,7.74615385 161.225514,8.62307692 C160.712757,9.5 160.493004,10.5230769 160.493004,11.6923077 L160.493004,13.9576923 L157.782716,13.9576923 L157.782716,17.1 L160.493004,17.1 L160.493004,30.2538462 L164.375309,30.2538462 L164.375309,17.1 L170.16214,17.1 L170.16214,25.5038462 C170.16214,28.9384615 171.773663,30.6923077 174.996708,30.6923077 C175.509465,30.6923077 176.095473,30.6192308 176.681481,30.4730769 C177.26749,30.3269231 177.633745,30.2538462 177.853498,30.1076923 L177.926749,30.1076923 L177.926749,26.9653846 L177.780247,27.0384615 C177.560494,27.1846154 177.340741,27.2576923 176.974486,27.4038462 C176.681481,27.4769231 176.388477,27.55 176.241975,27.55 C175.509465,27.55 174.923457,27.3307692 174.557202,26.9653846 C174.190947,26.5269231 174.044444,25.8692308 174.044444,24.8461538 L174.044444,17.1730769 L177.926749,17.1730769 L177.926749,17.1730769 L177.926749,17.1730769 Z M149.212346,27.55 C147.820576,27.55 146.721811,27.1115385 145.916049,26.1615385 C145.110288,25.2115385 144.744033,23.8961538 144.744033,22.2153846 C144.744033,20.4615385 145.110288,19.1461538 145.916049,18.1961538 C146.721811,17.2461538 147.820576,16.8076923 149.212346,16.8076923 C150.530864,16.8076923 151.62963,17.2461538 152.435391,18.1230769 C153.241152,19 153.607407,20.3884615 153.607407,22.1423077 C153.607407,23.8961538 153.241152,25.2846154 152.508642,26.1615385 C151.702881,27.1115385 150.604115,27.55 149.212346,27.55 L149.212346,27.55 L149.212346,27.55 Z M149.358848,13.6653846 C146.64856,13.6653846 144.52428,14.4692308 142.986008,16.0038462 C141.447737,17.5384615 140.715226,19.7307692 140.715226,22.3615385 C140.715226,24.9192308 141.447737,26.9653846 142.986008,28.4269231 C144.451029,29.8884615 146.502058,30.6923077 148.992593,30.6923077 C151.62963,30.6923077 153.680658,29.8884615 155.21893,28.3538462 C156.757202,26.7461538 157.489712,24.6269231 157.489712,21.9961538 C157.489712,19.4384615 156.757202,17.3192308 155.365432,15.8576923 C153.900412,14.3961538 151.922634,13.6653846 149.358848,13.6653846 L149.358848,13.6653846 L149.358848,13.6653846 Z M134.488889,13.6653846 C132.657613,13.6653846 131.119342,14.1038462 130.020576,15.0538462 C128.84856,16.0038462 128.262551,17.1730769 128.262551,18.6346154 C128.262551,19.3653846 128.409053,20.0961538 128.628807,20.6807692 C128.84856,21.2653846 129.288066,21.7769231 129.800823,22.2153846 C130.31358,22.6538462 131.119342,23.0923077 132.144856,23.5307692 C133.023868,23.8961538 133.683128,24.1884615 134.122634,24.4807692 C134.56214,24.7 134.855144,24.9923077 135.001646,25.2115385 C135.148148,25.4307692 135.221399,25.7230769 135.221399,26.1615385 C135.221399,27.2576923 134.415638,27.7692308 132.730864,27.7692308 C132.071605,27.7692308 131.412346,27.6230769 130.606584,27.4038462 C129.800823,27.1115385 129.068313,26.7461538 128.409053,26.3076923 L128.262551,26.1615385 L128.262551,29.8884615 L128.335802,29.8884615 C128.921811,30.1076923 129.58107,30.3269231 130.386831,30.5461538 C131.192593,30.6923077 131.925103,30.7653846 132.584362,30.7653846 C134.56214,30.7653846 136.173663,30.3269231 137.345679,29.3769231 C138.517695,28.4269231 139.103704,27.1846154 139.103704,25.65 C139.103704,24.5538462 138.8107,23.6038462 138.15144,22.8730769 C137.492181,22.1423077 136.466667,21.4115385 134.928395,20.8269231 C133.683128,20.3153846 132.950617,19.95 132.657613,19.6576923 C132.364609,19.3653846 132.218107,18.9269231 132.218107,18.4153846 C132.218107,17.9769231 132.43786,17.5384615 132.804115,17.2461538 C133.17037,16.9538462 133.756379,16.8076923 134.488889,16.8076923 C135.148148,16.8076923 135.807407,16.8807692 136.466667,17.1 C137.125926,17.3192308 137.711934,17.5384615 138.15144,17.9038462 L138.297942,17.9769231 L138.297942,14.4692308 L138.224691,14.4692308 C137.785185,14.25 137.199177,14.1038462 136.466667,13.9576923 C135.660905,13.7384615 135.001646,13.6653846 134.488889,13.6653846 L134.488889,13.6653846 L134.488889,13.6653846 Z M118.080658,27.55 C116.688889,27.55 115.590123,27.1115385 114.784362,26.1615385 C113.978601,25.2115385 113.612346,23.8961538 113.612346,22.2153846 C113.612346,20.4615385 113.978601,19.1461538 114.784362,18.1961538 C115.590123,17.2461538 116.688889,16.8076923 118.080658,16.8076923 C119.399177,16.8076923 120.497942,17.2461538 121.303704,18.1230769 C122.109465,19 122.47572,20.3884615 122.47572,22.1423077 C122.47572,23.8961538 122.109465,25.2846154 121.376955,26.1615385 C120.571193,27.1115385 119.472428,27.55 118.080658,27.55 L118.080658,27.55 L118.080658,27.55 Z M118.22716,13.6653846 C115.516872,13.6653846 113.392593,14.4692308 111.854321,16.0038462 C110.316049,17.5384615 109.583539,19.7307692 109.583539,22.3615385 C109.583539,24.9192308 110.316049,26.9653846 111.854321,28.4269231 C113.319342,29.8884615 115.37037,30.6923077 117.860905,30.6923077 C120.497942,30.6923077 122.548971,29.8884615 124.087243,28.3538462 C125.625514,26.7461538 126.358025,24.6269231 126.358025,21.9961538 C126.358025,19.4384615 125.625514,17.3192308 124.233745,15.8576923 C122.768724,14.3961538 120.790947,13.6653846 118.22716,13.6653846 L118.22716,13.6653846 L118.22716,13.6653846 Z M103.723457,16.8807692 L103.723457,14.0307692 L99.9144033,14.0307692 L99.9144033,30.3269231 L103.723457,30.3269231 L103.723457,21.9961538 C103.723457,20.6076923 104.016461,19.4384615 104.67572,18.5615385 C105.334979,17.6846154 106.140741,17.2461538 107.166255,17.2461538 C107.53251,17.2461538 107.898765,17.3192308 108.338272,17.3923077 C108.777778,17.5384615 109.070782,17.6115385 109.217284,17.7576923 L109.363786,17.9038462 L109.363786,14.0307692 L109.290535,14.0307692 C108.92428,13.8846154 108.411523,13.8115385 107.752263,13.8115385 C106.8,13.8115385 105.920988,14.1038462 105.188477,14.7615385 C104.602469,15.2 104.089712,15.9307692 103.723457,16.8807692 L103.723457,16.8807692 L103.723457,16.8807692 L103.723457,16.8807692 Z M93.0288066,13.6653846 C91.2707819,13.6653846 89.7325103,14.0307692 88.3407407,14.7615385 C87.0222222,15.4923077 85.9967078,16.5884615 85.2641975,17.9038462 C84.5316872,19.2192308 84.2386831,20.8269231 84.2386831,22.5807692 C84.2386831,24.1153846 84.6049383,25.5038462 85.2641975,26.7461538 C85.9234568,27.9884615 86.9489712,28.9384615 88.1209877,29.6692308 C89.3662551,30.3269231 90.7580247,30.6923077 92.2962963,30.6923077 C94.127572,30.6923077 95.6658436,30.3269231 96.9111111,29.5961538 L96.9843621,29.5961538 L96.9843621,26.0884615 L96.8378601,26.2346154 C96.2518519,26.6730769 95.6658436,26.9653846 94.9333333,27.1846154 C94.2740741,27.4038462 93.6148148,27.55 93.1020576,27.55 C91.563786,27.55 90.3917695,27.1115385 89.5127572,26.1615385 C88.6337449,25.2115385 88.1942387,23.8961538 88.1942387,22.2884615 C88.1942387,20.6076923 88.6337449,19.2923077 89.5860082,18.3423077 C90.4650206,17.3923077 91.7102881,16.8807692 93.1753086,16.8807692 C94.4205761,16.8807692 95.6658436,17.3192308 96.8378601,18.1230769 L96.9843621,18.2692308 L96.9843621,14.5423077 L96.9111111,14.5423077 C96.4716049,14.3230769 95.8855967,14.1038462 95.1530864,13.9576923 C94.4205761,13.7384615 93.6880658,13.6653846 93.0288066,13.6653846 L93.0288066,13.6653846 L93.0288066,13.6653846 Z M81.5283951,14.0307692 L77.7193416,14.0307692 L77.7193416,30.3269231 L81.5283951,30.3269231 L81.5283951,14.0307692 L81.5283951,14.0307692 L81.5283951,14.0307692 Z M79.6971193,7.08846154 C79.0378601,7.08846154 78.5251029,7.30769231 78.0855967,7.74615385 C77.6460905,8.18461538 77.4263374,8.69615385 77.4263374,9.35384615 C77.4263374,10.0115385 77.6460905,10.5230769 78.0855967,10.8884615 C78.5251029,11.3269231 79.1111111,11.5461538 79.6971193,11.5461538 C80.3563786,11.5461538 80.8691358,11.3269231 81.381893,10.8884615 C81.8213992,10.45 82.0411523,9.93846154 82.0411523,9.35384615 C82.0411523,8.76923077 81.8213992,8.18461538 81.381893,7.74615385 C80.8691358,7.30769231 80.3563786,7.08846154 79.6971193,7.08846154 L79.6971193,7.08846154 L79.6971193,7.08846154 Z M70.1012346,12.8615385 L70.1012346,30.3269231 L73.9835391,30.3269231 L73.9835391,7.6 L68.562963,7.6 L61.6773663,24.4807692 L55.0115226,7.6 L49.3711934,7.6 L49.3711934,30.3269231 L53.0337449,30.3269231 L53.0337449,12.8615385 L53.1802469,12.8615385 L60.2123457,30.3269231 L62.9958848,30.3269231 L69.9547325,12.8615385 L70.1012346,12.8615385 L70.1012346,12.8615385 L70.1012346,12.8615385 Z" id="path5056"></path>
                    <polygon id="path5058" points="18.0197531 18.05 0 18.05 0 1.77635684e-15 18.0197531 1.77635684e-15"></polygon>
                    <polygon id="path5060" points="38.017284 18.05 19.9242798 18.05 19.9242798 1.77635684e-15 38.017284 1.77635684e-15"></polygon>
                    <polygon id="path5062" points="18.0197531 37.9269231 0 37.9269231 0 19.95 18.0197531 19.95"></polygon>
                    <polygon id="path5064" points="38.017284 37.9269231 19.9242798 37.9269231 19.9242798 19.95 38.017284 19.95"></polygon>
                </g>
                <g id="logo--nyu" transform="translate(417.000000, 3.000000)">
                    <polygon id="Shape" points="51.85 9.52142857 56.5775 9.52142857 67.5575 23.9571429 67.5575 9.52142857 72.59 9.52142857 72.59 33.0178571 68.1675 33.0178571 56.8825 18.1214286 56.8825 33.0178571 51.85 33.0178571"></polygon>
                    <polygon id="Shape" points="84.18 23.8035714 75.1825 9.52142857 81.13 9.52142857 86.7725 19.0428571 92.415 9.52142857 98.21 9.52142857 89.2125 23.65 89.2125 33.0178571 84.0275 33.0178571 84.0275 23.8035714"></polygon>
                    <path d="M100.4975,23.0357143 L100.4975,9.52142857 L105.6825,9.52142857 L105.6825,22.8821429 C105.6825,26.7214286 107.5125,28.7178571 110.715,28.7178571 C113.9175,28.7178571 115.7475,26.875 115.7475,23.0357143 L115.7475,9.52142857 L120.9325,9.52142857 L120.9325,22.8821429 C120.9325,29.9464286 116.9675,33.4785714 110.715,33.4785714 C104.31,33.4785714 100.4975,29.9464286 100.4975,23.0357143 L100.4975,23.0357143 Z" id="Shape"></path>
                    <path d="M41.175,42.2321429 L0,42.2321429 L0,0.767857143 L41.175,0.767857143 L41.175,42.2321429 L41.175,42.2321429 L41.175,42.2321429 Z M19.215,37.3178571 C19.215,37.625 19.825,37.7785714 19.9775,37.3178571 L21.35,25.8 L17.8425,25.8 L19.215,37.3178571 L19.215,37.3178571 L19.215,37.3178571 Z M22.57,25.0321429 L22.57,23.3428571 L16.6225,23.3428571 L16.6225,25.0321429 L22.57,25.0321429 L22.57,25.0321429 L22.57,25.0321429 Z M20.8925,22.4214286 C28.365,22.7285714 28.975,15.8178571 28.975,13.2071429 C28.975,13.0535714 28.975,13.0535714 28.975,13.2071429 C28.8225,13.8214286 27.755,15.6642857 25.01,16.8928571 C22.57,17.8142857 21.045,20.2714286 20.8925,22.4214286 L20.8925,22.4214286 L20.8925,22.4214286 Z M20.13,21.9607143 C21.35,16.2785714 25.925,16.125 26.3825,15.05 C26.9925,13.3607143 25.7725,10.2892857 25.4675,9.98214286 C25.4675,9.98214286 25.4675,9.98214286 25.315,9.98214286 C24.705,11.3642857 23.6375,12.7464286 22.875,13.3607143 C21.96,14.1285714 17.995,17.2 20.13,21.9607143 C19.9775,22.1142857 20.13,21.9607143 20.13,21.9607143 L20.13,21.9607143 Z M19.215,22.2678571 C16.6225,16.8928571 21.8075,13.3607143 22.57,12.5928571 C22.7225,12.4392857 22.7225,12.4392857 22.7225,12.2857143 C22.7225,10.5964286 21.8075,7.83214286 21.5025,7.37142857 L21.35,7.37142857 C20.8925,9.06071429 18.605,11.5178571 18.1475,12.1321429 C14.1825,16.7392857 15.0975,19.6571429 19.215,22.2678571 L19.215,22.2678571 L19.215,22.2678571 Z M18.1475,22.4214286 C13.8775,19.8107143 14.335,16.2785714 16.165,13.6678571 L16.165,13.3607143 C16.165,12.7464286 15.4025,11.0571429 15.0975,10.75 C15.0975,10.5964286 14.945,10.5964286 14.945,10.75 C14.945,11.5178571 14.03,13.3607143 12.81,15.3571429 C11.59,17.5071429 11.59,22.2678571 18.1475,22.4214286 L18.1475,22.4214286 L18.1475,22.4214286 Z" id="Shape"></path>
                </g>
                <g id="logo--dish" transform="translate(146.000000, 84.000000)">
                    <path d="M45.7935484,20.2071429 C45.7935484,24.6732143 49.0959677,26.8696429 52.6919355,28.9196429 L55.9209677,30.75 C57.6822581,31.775 58.4895161,32.8732143 58.4895161,34.4107143 C58.4895161,36.4607143 57.0217742,37.7053571 54.6,37.7053571 C50.1967742,37.7053571 48.8024194,34.0446429 48.1419355,30.4571429 L47.9951613,29.8714286 L45.7935484,29.8714286 L45.7935484,39.975 L47.4814516,39.975 L47.7016129,39.7553571 C48.0685484,39.3160714 48.0685484,39.3160714 48.4354839,39.3160714 C49.0959677,39.3160714 49.9032258,39.4625 50.9306452,39.6821429 C52.1782258,39.975 53.4991935,40.2678571 54.9669355,40.2678571 C58.6362903,40.2678571 63.7733871,37.7785714 63.7733871,32.3607143 C63.7733871,28.5535714 61.4983871,26.8696429 58.7096774,25.1857143 L52.6185484,21.5982143 C51.2241935,20.7928571 50.5637097,19.6946429 50.5637097,18.2303571 C50.5637097,17.0589286 51.5177419,15.3017857 54.0862903,15.3017857 C55.9943548,15.3017857 58.416129,16.0339286 59.5903226,21.5982143 L59.7370968,22.1839286 L61.8653226,22.1839286 L61.5717742,13.1053571 L59.883871,13.1053571 L59.6637097,13.4714286 C59.5903226,13.6178571 59.4435484,13.7642857 59.2967742,13.7642857 C59.2233871,13.7642857 58.7096774,13.6178571 58.416129,13.5446429 C57.3153226,13.1785714 55.7008065,12.6660714 54.0862903,12.6660714 C49.316129,12.5928571 45.7935484,15.8142857 45.7935484,20.2071429" id="path20"></path>
                    <path d="M6.38467742,25.2589286 C6.38467742,18.0839286 9.76048387,15.5214286 12.6225806,15.5214286 C15.7782258,15.5214286 17.6862903,18.1571429 17.6862903,20.7196429 L17.6862903,33.1660714 C17.3193548,34.7767857 15.4846774,35.9482143 13.4298387,35.9482143 C10.2008065,36.0214286 6.38467742,33.1660714 6.38467742,25.2589286 L6.38467742,25.2589286 L6.38467742,25.2589286 Z M22.8233871,0.146428571 L22.6766129,0.219642857 L22.6766129,0.219642857 C21.5758065,0.5125 17.6129032,1.83035714 14.4572581,2.63571429 L13.9435484,2.78214286 L13.9435484,4.97857143 L14.6774194,4.90535714 C16.4387097,4.68571429 17.1725806,4.97857143 17.3927419,5.19821429 C17.6862903,5.49107143 17.6862903,6.00357143 17.6862903,6.88214286 L17.6862903,14.35 C16.0717742,13.1785714 14.4572581,12.6660714 12.4758065,12.6660714 C9.32016129,12.6660714 6.09112903,14.2767857 3.81612903,17.0589286 C1.46774194,19.7678571 0.146774194,23.4285714 0.146774194,27.0892857 C0.146774194,39.975 9.90725806,40.3410714 11.0814516,40.3410714 C13.7967742,40.3410714 16.0717742,39.4625 17.7596774,37.8517857 L17.7596774,39.8285714 L18.5669355,40.4142857 L27.5935484,37.1928571 L27.5935484,35.0696429 L26.8596774,35.1428571 C25.0983871,35.2892857 24.4379032,34.9964286 24.1443548,34.7767857 C23.8508065,34.5571429 23.8508065,34.1178571 23.8508065,33.3857143 L23.8508065,0.439285714 L22.8233871,0.146428571 L22.8233871,0.146428571 L22.8233871,0.146428571 L22.8233871,0.146428571 Z" id="path22"></path>
                    <path d="M90.4129032,37.5589286 C87.9177419,37.1196429 87.6241935,37.0464286 87.6241935,33.4589286 L87.6241935,22.1839286 C87.6241935,15.8142857 85.0556452,12.5928571 80.0653226,12.5928571 C77.2032258,12.5928571 74.6346774,13.8375 72.5064516,16.1071429 L72.5064516,0.585714286 L71.5524194,0 L71.4790323,0 L71.258871,0.219642857 C70.0846774,0.732142857 65.4612903,2.05 63.4064516,2.63571429 L62.8927419,2.78214286 L62.8927419,4.97857143 L63.7,4.90535714 C64.1403226,4.83214286 64.5072581,4.83214286 65.0209677,4.83214286 C65.5346774,4.83214286 65.9016129,4.90535714 66.1217742,5.125 C66.4887097,5.49107143 66.4887097,6.22321429 66.4887097,6.73571429 L66.4887097,6.95535714 L66.4887097,33.2392857 C66.4887097,36.8267857 66.2685484,37.1196429 63.5532258,37.4125 L62.8193548,37.5589286 L62.8193548,39.7553571 L75.808871,39.7553571 L75.808871,37.5589286 L75.6620968,37.5589286 C73.1669355,37.2660714 72.5064516,37.1928571 72.5064516,33.4589286 L72.5064516,20.1339286 C72.8,19.7678571 75.1483871,17.0589286 77.9370968,17.0589286 C80.4322581,17.0589286 81.5330645,18.7428571 81.5330645,22.4767857 L81.5330645,33.5321429 C81.5330645,36.9732143 80.9459677,37.4125 78.3774194,37.5589286 L78.3040323,37.5589286 L78.3040323,39.7553571 L91,39.7553571 L91,37.6321429 L90.4129032,37.5589286" id="path24"></path>
                    <path d="M36.6201613,39.2428571 C40.8766129,39.2428571 43.0782258,36.7535714 44.6193548,33.825 C44.6927419,33.6053571 44.6193548,33.5321429 44.4725806,33.6053571 C43.3717742,34.1178571 40.3629032,35.5089286 36.6935484,35.5089286 C33.0241935,35.5089286 30.0153226,34.1178571 28.9145161,33.6053571 C28.6943548,33.5321429 28.6209677,33.6785714 28.7677419,33.825 C30.1620968,36.7535714 32.2903226,39.2428571 36.6201613,39.2428571" id="path28"></path>
                    <path d="M30.308871,26.7232143 C31.4830645,28.9928571 33.1709677,31.0428571 36.5467742,31.0428571 C39.9225806,31.0428571 41.6104839,29.0660714 42.7846774,26.7232143 C42.8580645,26.5767857 42.7846774,26.4303571 42.6379032,26.5035714 C41.9040323,26.8696429 39.5556452,27.8946429 36.5467742,27.8946429 C33.5379032,27.8946429 31.1895161,26.8696429 30.4556452,26.5035714 C30.308871,26.4303571 30.2354839,26.5767857 30.308871,26.7232143" id="path30"></path>
                    <path d="M31.9233871,20.2071429 C32.8040323,21.8910714 34.0516129,23.4285714 36.6201613,23.4285714 C39.1887097,23.4285714 40.4362903,21.8910714 41.3169355,20.2071429 C41.3903226,20.0607143 41.3169355,19.9875 41.1701613,20.0607143 C40.7298387,20.2071429 38.9685484,21.0125 36.6201613,21.0125 C34.2717742,21.0125 32.4370968,20.2803571 32.0701613,20.0607143 C31.9233871,19.9875 31.85,20.1339286 31.9233871,20.2071429" id="path32"></path>
                    <path d="M36.6201613,16.4 C38.3814516,16.4 39.2620968,15.2285714 39.8491935,14.1303571 C39.9225806,14.0571429 39.8491935,13.9839286 39.7024194,13.9839286 C39.6290323,13.9839286 38.3814516,14.4964286 36.6201613,14.4964286 C34.858871,14.4964286 33.6112903,14.0571429 33.5379032,13.9839286 C33.391129,13.9107143 33.391129,14.0571429 33.391129,14.1303571 C33.9782258,15.2285714 34.7854839,16.4 36.6201613,16.4" id="path34"></path>
                    <path d="M31.4096774,4.90535714 C31.4096774,2.19642857 33.6112903,0 36.3266129,0 C39.0419355,0 41.2435484,2.19642857 41.2435484,4.90535714 C41.2435484,7.61428571 39.0419355,9.81071429 36.3266129,9.81071429 C33.6112903,9.81071429 31.4096774,7.61428571 31.4096774,4.90535714" id="path36"></path>
                </g>
                <g id="logo--zendesk" transform="translate(286.000000, 82.000000)">
                    <path d="M33.5135593,23.1428571 C31.8903955,24.0952381 30.0762712,24.4761905 28.2621469,24.4761905 C27.1163842,24.4761905 25.9706215,24.2857143 25.0158192,23.9047619 C23.2016949,25.5238095 21.2920904,26.6666667 20.3372881,27.1428571 C21.7694915,29.3333333 23.9655367,31.047619 26.6389831,31.7142857 C27.4983051,31.9047619 28.3576271,32 29.1214689,32 C31.0310734,32 32.7497175,31.5238095 34.2774011,30.6666667 C34.4683616,29.8095238 34.659322,28.8571429 34.659322,28 C34.7548023,26.3809524 34.3728814,24.6666667 33.5135593,23.1428571" id="Fill-1"></path>
                    <path d="M31.3175141,9.9047619 C31.0310734,12 30.0762712,13.9047619 28.8350282,15.2380952 C28.9305085,15.6190476 28.9305085,16 28.9305085,16.4761905 C28.9305085,18.952381 27.6892655,21.047619 26.0661017,22.7619048 C26.5435028,22.8571429 27.020904,22.8571429 27.4028249,22.8571429 C29.6943503,22.8571429 31.8903955,22.0952381 33.8954802,20.6666667 C36.0915254,18.952381 37.4282486,16.4761905 37.8101695,13.9047619 C36.2824859,11.9047619 34.0864407,10.4761905 31.699435,9.9047619 C31.6039548,9.9047619 31.5084746,9.9047619 31.3175141,9.9047619 L31.3175141,9.9047619" id="Fill-3"></path>
                    <path d="M29.6943503,8.0952381 C29.6943503,5.23809524 28.5485876,2.66666667 26.8299435,0.857142857 L26.6389831,0.857142857 C24.1564972,0.857142857 21.960452,1.71428571 19.9553672,3.52380952 C21.8649718,5.52380952 22.5333333,8.0952381 22.5333333,10.6666667 L22.5333333,11.2380952 C22.9152542,11.1428571 23.3926554,11.047619 23.7745763,11.047619 L23.8700565,11.047619 C25.4932203,11.047619 27.1163842,11.9047619 28.0711864,13.4285714 C29.1214689,12 29.6943503,10.0952381 29.6943503,8.0952381" id="Fill-4"></path>
                    <path d="M10.7892655,1.04761905 L10.4073446,1.04761905 C8.68870056,2.95238095 7.63841808,5.42857143 7.63841808,8.0952381 L7.63841808,8.19047619 L8.02033898,8.19047619 C10.8847458,8.19047619 13.5581921,9.33333333 15.3723164,11.1428571 C16.9,11.2380952 18.5231638,12.0952381 19.3824859,13.7142857 C19.859887,12.8571429 20.5282486,12.1904762 21.1966102,11.8095238 L21.1966102,11.4285714 C21.1966102,8.57142857 19.9553672,5.61904762 17.6638418,3.61904762 C15.7542373,1.9047619 13.2717514,1.04761905 10.7892655,1.04761905" id="Fill-5"></path>
                    <path d="M13.7491525,11.3333333 C12.2214689,10.3809524 10.4073446,9.9047619 8.49774011,9.9047619 C7.92485876,9.9047619 7.25649718,10 6.68361582,10.0952381 C3.81920904,10.5714286 1.52768362,12.0952381 0,14.1904762 C0.381920904,16.7619048 1.71864407,19.1428571 3.91468927,20.7619048 C5.44237288,18.6666667 7.73389831,17.2380952 9.9299435,16.8571429 L9.9299435,16.4761905 C9.9299435,13.6190476 11.7440678,11.8095238 13.7491525,11.3333333" id="Fill-7"></path>
                    <path d="M4.48757062,23.1428571 C3.62824859,24.6666667 3.24632768,26.3809524 3.24632768,28.0952381 C3.24632768,29.047619 3.34180791,30.0952381 3.62824859,30.952381 C5.1559322,31.8095238 6.87457627,32.2857143 8.68870056,32.2857143 C9.5480226,32.2857143 10.4073446,32.1904762 11.2666667,32 C10.980226,31.047619 10.8847458,30.0952381 10.8847458,29.1428571 C10.8847458,26.8571429 11.5531073,24.7619048 12.8898305,22.952381 C11.6485876,21.6190476 10.5983051,20.0952381 10.2163842,18.2857143 C7.82937853,19.047619 5.72881356,20.7619048 4.48757062,23.1428571" id="Fill-8"></path>
                    <path d="M19.0960452,38.2857143 C21.4830508,37.2380952 23.3926554,35.4285714 24.5384181,32.8571429 C21.8649718,31.7142857 19.859887,29.6190476 18.9050847,27.2380952 C18.0457627,26.7619048 15.8497175,25.5238095 13.8446328,23.7142857 C13.080791,25.2380952 12.6988701,26.8571429 12.6988701,28.5714286 C12.6988701,30 12.9853107,31.4285714 13.6536723,32.8571429 C14.6084746,35.4285714 16.7090395,37.3333333 19.0960452,38.2857143" id="Fill-10"></path>
                    <path d="M52.8960452,25.5238095 L43.7299435,36.3809524 L51.6548023,36.3809524 C52.5141243,36.3809524 53.1824859,37.047619 53.1824859,37.9047619 C53.1824859,38.7619048 52.5141243,39.5238095 51.6548023,39.5238095 L40.1016949,39.5238095 C39.3378531,39.5238095 38.4785311,38.7619048 38.4785311,37.9047619 C38.4785311,37.5238095 38.6694915,37.047619 38.860452,36.7619048 L47.9310734,25.9047619 L40.1016949,25.9047619 C39.2423729,25.9047619 38.4785311,25.1428571 38.4785311,24.2857143 C38.4785311,23.4285714 39.2423729,22.7619048 40.1016949,22.7619048 L51.3683616,22.7619048 C52.4186441,22.7619048 53.1824859,23.6190476 53.1824859,24.4761905 C53.2779661,24.8571429 53.0870056,25.2380952 52.8960452,25.5238095" id="Fill-12"></path>
                    <path d="M64.0672316,25.4285714 C61.4892655,25.4285714 59.6751412,27.1428571 59.2932203,29.6190476 L68.7457627,29.6190476 C68.459322,27.2380952 66.6451977,25.4285714 64.0672316,25.4285714 L64.0672316,25.4285714 L64.0672316,25.4285714 Z M71.2282486,32.2857143 C71.2282486,32.2857143 71.2282486,32.2857143 59.2932203,32.2857143 C59.4841808,34.8571429 61.5847458,36.8571429 64.3536723,36.8571429 C66.3587571,36.8571429 67.9819209,36 69.4141243,34.7619048 C69.700565,34.4761905 69.9870056,34.3809524 70.3689266,34.3809524 C70.8463277,34.3809524 71.3237288,34.5714286 71.6101695,35.047619 C71.8011299,35.3333333 71.8966102,35.6190476 71.8966102,35.9047619 C71.8966102,36.2857143 71.7056497,36.7619048 71.3237288,37.1428571 C69.700565,38.8571429 66.9316384,40 64.2581921,40 C59.3887006,40 55.3785311,36.0952381 55.3785311,31.1428571 C55.3785311,26.1904762 59.1977401,22.2857143 64.0672316,22.2857143 C68.9367232,22.2857143 72.5649718,26.0952381 72.5649718,31.047619 C72.5649718,31.8095238 71.8966102,32.2857143 71.2282486,32.2857143 L71.2282486,32.2857143 L71.2282486,32.2857143 Z" id="Fill-13"></path>
                    <path d="M103.596045,25.6190476 C100.540678,25.6190476 98.5355932,28.0952381 98.5355932,31.1428571 C98.5355932,34.1904762 100.540678,36.6666667 103.596045,36.6666667 C106.651412,36.6666667 108.656497,34.2857143 108.656497,31.1428571 C108.656497,28 106.746893,25.6190476 103.596045,25.6190476 L103.596045,25.6190476 L103.596045,25.6190476 Z M110.566102,39.8095238 C109.515819,39.8095238 108.656497,38.952381 108.656497,37.9047619 L108.656497,37.047619 C107.606215,38.952381 105.50565,40 103.118644,40 C98.2491525,40 94.7163842,36.1904762 94.7163842,31.1428571 C94.7163842,26.0952381 98.0581921,22.2857143 103.118644,22.2857143 C105.60113,22.2857143 107.701695,23.5238095 108.656497,25.2380952 L108.656497,15.2380952 C108.656497,14.1904762 109.515819,13.3333333 110.566102,13.3333333 C111.616384,13.3333333 112.475706,14.1904762 112.475706,15.2380952 L112.475706,37.9047619 C112.475706,38.952381 111.616384,39.8095238 110.566102,39.8095238 L110.566102,39.8095238 L110.566102,39.8095238 Z" id="Fill-14"></path>
                    <path d="M124.601695,25.4285714 C122.023729,25.4285714 120.209605,27.1428571 119.827684,29.6190476 L129.280226,29.6190476 C128.993785,27.2380952 127.084181,25.4285714 124.601695,25.4285714 L124.601695,25.4285714 L124.601695,25.4285714 Z M131.667232,32.2857143 C131.667232,32.2857143 131.667232,32.2857143 119.732203,32.2857143 C119.923164,34.8571429 122.023729,36.8571429 124.792655,36.8571429 C126.79774,36.8571429 128.420904,36 129.853107,34.7619048 C130.139548,34.4761905 130.425989,34.3809524 130.80791,34.3809524 C131.285311,34.3809524 131.762712,34.5714286 132.049153,35.047619 C132.240113,35.3333333 132.335593,35.6190476 132.335593,35.9047619 C132.335593,36.2857143 132.144633,36.7619048 131.762712,37.1428571 C130.139548,38.8571429 127.370621,40 124.697175,40 C119.827684,40 115.817514,36.0952381 115.817514,31.1428571 C115.817514,26.1904762 119.636723,22.2857143 124.506215,22.2857143 C129.375706,22.2857143 133.003955,26.0952381 133.003955,31.047619 C133.003955,31.8095238 132.431073,32.2857143 131.667232,32.2857143 L131.667232,32.2857143 L131.667232,32.2857143 Z" id="Fill-15"></path>
                    <path d="M142.456497,40 C140.546893,40 138.064407,39.3333333 136.250282,38.2857143 C135.677401,37.9047619 135.29548,37.4285714 135.29548,36.8571429 C135.29548,36.6666667 135.39096,36.4761905 135.486441,36.2857143 C135.677401,35.7142857 136.154802,35.4285714 136.727684,35.4285714 C136.918644,35.4285714 137.300565,35.5238095 137.491525,35.6190476 C138.923729,36.4761905 140.546893,36.952381 142.265537,36.952381 C144.175141,36.952381 146.180226,36.3809524 146.180226,34.8571429 C146.180226,33.7142857 145.129944,33.2380952 141.215254,31.9047619 C137.968927,30.7619048 136.250282,29.3333333 136.250282,26.952381 C136.250282,24.0952381 139.114689,22.2857143 142.838418,22.2857143 C145.416384,22.2857143 147.039548,22.8571429 148.662712,23.6190476 C149.331073,23.9047619 149.712994,24.4761905 149.712994,25.047619 C149.712994,25.2380952 149.712994,25.4285714 149.617514,25.6190476 C149.426554,26.1904762 148.758192,26.6666667 148.185311,26.6666667 C147.99435,26.6666667 147.80339,26.6666667 147.612429,26.5714286 C146.180226,25.9047619 144.748023,25.5238095 143.220339,25.5238095 C141.215254,25.5238095 139.878531,26 139.878531,27.2380952 C139.878531,28.4761905 140.833333,28.7619048 143.79322,29.7142857 C147.325989,30.8571429 149.808475,32.0952381 149.808475,34.952381 C149.712994,37.6190476 147.135028,40 142.456497,40" id="Fill-16"></path>
                    <path d="M166.994915,39.8095238 C166.517514,39.8095238 165.944633,39.6190476 165.658192,39.2380952 L159.261017,32 L157.351412,33.5238095 L157.351412,38 C157.351412,39.047619 156.49209,39.9047619 155.537288,39.9047619 C154.487006,39.9047619 153.723164,39.047619 153.723164,38 L153.723164,15.2380952 C153.723164,14.1904762 154.582486,13.3333333 155.537288,13.3333333 C156.587571,13.3333333 157.351412,14.1904762 157.351412,15.2380952 L157.351412,28.952381 L165.371751,22.7619048 C165.658192,22.5714286 166.040113,22.3809524 166.422034,22.3809524 C166.994915,22.3809524 167.376836,22.6666667 167.758757,23.047619 C167.949718,23.3333333 168.140678,23.7142857 168.140678,24.0952381 C168.140678,24.6666667 167.854237,25.1428571 167.472316,25.4285714 L162.029944,29.7142857 L168.236158,36.8571429 C168.522599,37.1428571 168.618079,37.6190476 168.618079,38 C168.713559,39.047619 167.949718,39.7142857 166.994915,39.8095238" id="Fill-17"></path>
                    <path d="M83.8316384,22.1904762 C79.439548,22.1904762 75.8112994,25.6190476 75.8112994,30.1904762 L75.8112994,38.0952381 C75.8112994,39.1428571 76.6706215,40 77.720904,40 C78.7711864,40 79.6305085,39.1428571 79.6305085,38.0952381 L79.6305085,30.2857143 C79.6305085,27.6190476 81.0627119,25.6190476 83.8316384,25.6190476 C86.600565,25.7142857 88.0327684,27.7142857 88.0327684,30.2857143 L88.0327684,38.0952381 C88.0327684,39.1428571 88.8920904,40 89.9423729,40 C90.9926554,40 91.8519774,39.1428571 91.8519774,38.0952381 L91.8519774,30.1904762 C91.7564972,25.6190476 88.1282486,22.1904762 83.8316384,22.1904762" id="Fill-18"></path>
                </g>
                <g id="logo--fiftythree" transform="translate(500.000000, 76.000000)">
                    <path d="M28.00056,56 C12.55996,56 0,43.43822 0,27.99902 C0,12.55996 12.55982,0 28.00056,0 C43.4399,0 56,12.55996 56,27.99902 C56,43.43822 43.4399,56 28.00056,56 L28.00056,56 Z M28.00056,1.91912 C13.6185,1.91912 1.91996,13.61696 1.91996,27.99888 C1.91996,42.37954 13.6185,54.07976 28.00056,54.07976 C42.37982,54.07976 54.07948,42.37968 54.07948,27.99888 C54.07948,13.61696 42.37996,1.91912 28.00056,1.91912 L28.00056,1.91912 Z" id="Shape"></path>
                    <path d="M13.013,22.7122 C12.48226,22.7122 12.05162,22.28268 12.05162,21.74998 L12.05162,16.71782 C12.05162,16.18778 12.48226,15.75826 13.013,15.75826 L25.34952,15.75826 C25.88026,15.75826 26.31048,16.18778 26.31048,16.71782 C26.31048,17.24968 25.88026,17.67934 25.34952,17.67934 L13.9727,17.67934 L13.9727,21.75012 C13.9727,22.28268 13.54052,22.7122 13.013,22.7122 L13.013,22.7122 Z" id="Shape"></path>
                    <path d="M18.5122,41.69704 C16.17756,41.69704 13.98418,40.78564 12.33316,39.13924 C11.95782,38.76068 11.95782,38.15378 12.33316,37.77704 C12.70934,37.40604 13.3161,37.40604 13.69284,37.77704 C16.34878,40.43984 20.67212,40.43984 23.3331,37.77704 C25.99002,35.12264 25.98722,30.79804 23.32974,28.1365 C20.67212,25.48266 16.34878,25.48266 13.69284,28.1365 C13.31596,28.51282 12.7092,28.51282 12.33316,28.1365 C11.95782,27.76242 11.95782,27.15342 12.33316,26.7806 C13.98418,25.13 16.17756,24.2235 18.5122,24.2235 C20.84502,24.2235 23.03994,25.13 24.69082,26.7806 C28.09618,30.18946 28.09618,35.73122 24.69082,39.13924 C23.04008,40.7855 20.84502,41.69704 18.5122,41.69704 L18.5122,41.69704 Z" id="Shape"></path>
                    <path d="M35.89544,41.69704 C33.56192,41.69704 31.3691,40.78564 29.71584,39.13924 C29.34442,38.76068 29.34442,38.15378 29.71584,37.77704 C30.09314,37.40604 30.702,37.40604 31.0779,37.77704 C32.36478,39.0677 34.07656,39.77582 35.89544,39.77582 C37.71656,39.77582 39.42806,39.06756 40.7176,37.77704 C43.37298,35.12264 43.37298,30.79804 40.7176,28.1365 C40.38622,27.80708 40.01312,27.50846 39.62294,27.2489 C39.17788,26.95868 39.05384,26.3599 39.3463,25.91988 C39.6375,25.47608 40.23166,25.35288 40.67336,25.6445 C41.17722,25.9749 41.64636,26.35696 42.07406,26.7806 C45.47956,30.18946 45.47956,35.73122 42.07406,39.13924 C40.4229,40.7855 38.22784,41.69704 35.89544,41.69704 L35.89544,41.69704 Z" id="Shape"></path>
                    <path d="M32.94662,28.67046 C32.70274,28.67046 32.4548,28.5761 32.2672,28.3906 C31.89158,28.01638 31.89158,27.40878 32.26398,27.03162 L41.5611,17.67934 L29.40056,17.67934 C28.86646,17.67934 28.43974,17.24968 28.43974,16.71782 C28.43974,16.18778 28.86646,15.75826 29.40056,15.75826 L43.86872,15.75826 C44.2554,15.75826 44.60666,15.9908 44.75436,16.35046 C44.90444,16.70858 44.8217,17.1192 44.55178,17.39878 L33.62674,28.38402 C33.44124,28.574 33.19274,28.67046 32.94662,28.67046 L32.94662,28.67046 Z" id="Shape"></path>
                </g>
            </g>
        </g>
    </g>
</svg>