<?xml version="1.0" encoding="UTF-8" standalone="no"?>
<svg width="222px" height="90px" viewBox="0 0 222 90" version="1.1" xmlns="http://www.w3.org/2000/svg" xmlns:xlink="http://www.w3.org/1999/xlink">
    <!-- Generator: Sketch 3.8.1 (29687) - http://www.bohemiancoding.com/sketch -->
    <title>jekyll</title>
    <desc>Created with Sketch.</desc>
    <defs></defs>
    <g id="scratch" stroke="none" stroke-width="1" fill="none" fill-rule="evenodd">
        <g id="jekyll">
            <g id="Group">
                <g id="logo-black-red">
                    <g id="test-tube_2_" transform="translate(171.070588, 0.000000)">
                        <path d="M10.8649412,89.9738372 L10.8649412,89.9738372 C9.55905882,89.9738372 8.27929412,89.7383721 7.05176471,89.2674419 C1.90658824,87.3052326 -0.809647059,81.7063953 0.600705882,76.5261628 L0.548470588,76.5 L0.888,75.6104651 L27.0317647,7.5872093 C27.4235294,6.59302326 27.2407059,4.18604651 27.0578824,2.85174419 C27.0056471,2.5377907 27.0056471,2.25 27.084,1.9622093 L27.1101176,1.90988372 C27.1362353,1.85755814 27.1362353,1.80523256 27.1623529,1.75290698 C27.5802353,0.654069767 28.86,0.104651163 30.9494118,0.104651163 C33.4567059,0.104651163 36.9303529,0.889534884 40.4823529,2.25 C43.4597647,3.40116279 46.176,4.84011628 48.0825882,6.27906977 C50.3287059,7.97965116 51.2167059,9.49709302 50.7204706,10.8052326 C50.6943529,10.8575581 50.6682353,10.9098837 50.6421176,10.9622093 L50.616,11.0145349 C50.4854118,11.2761628 50.3025882,11.4854651 50.0675294,11.6686047 C48.9183529,12.6889535 47.2207059,14.4156977 46.9334118,15.2005814 L20.4762353,84.1656977 L20.424,84.1395349 C18.5696471,87.6976744 14.9392941,89.9738372 10.8649412,89.9738372 L10.8649412,89.9738372 Z M2.69011765,76.0552326 L2.61176471,76.2383721 C0.940235294,80.7383721 3.21247059,85.8139535 7.70470588,87.5406977 C8.72329412,87.9331395 9.768,88.1162791 10.8388235,88.1162791 C14.4691765,88.1162791 17.6816471,85.9447674 19.0136471,82.5436047 L19.1181176,82.3081395 L45.1312941,14.5726744 C45.6797647,13.1075581 48.2654118,10.7790698 48.7877647,10.3081395 L48.84,10.255814 C48.8922353,10.2296512 48.9183529,10.2034884 48.9183529,10.1773256 L48.9444706,10.1511628 C48.9705882,9.96802326 48.7355294,9.15697674 46.9072941,7.74418605 C45.1574118,6.40988372 42.624,5.0755814 39.7771765,3.97674419 C36.4863529,2.69476744 33.1432941,1.93604651 30.8971765,1.93604651 C29.4084706,1.93604651 28.9122353,2.25 28.8338824,2.40697674 L28.8338824,2.43313953 L28.8338824,2.5377907 L28.8338824,2.56395349 C28.8861176,2.95639535 29.3823529,6.43604651 28.7032941,8.24127907 L2.69011765,76.0552326 L2.69011765,76.0552326 Z" id="tube_2_" fill="#000000"></path>
                        <path d="M36.1468235,32.9651163 C36.1468235,32.9651163 32.5425882,37.125 29.2517647,38.6162791 C25.9609412,40.1075581 23.532,39.7151163 20.5807059,41.4418605 C17.6294118,43.1686047 16.1407059,45.5755814 16.1407059,45.5755814 L4.12658824,76.8924419 C2.82070588,80.4244186 4.75341176,84.5581395 8.33152941,85.9447674 C11.9096471,87.3313953 15.9578824,85.5 17.3421176,81.994186 L17.3421176,81.994186 L36.1468235,32.9651163 L36.1468235,32.9651163 Z M24.0543529,51.0436047 C24.6289412,50.7819767 25.308,51.0436047 25.5430588,51.619186 C25.8042353,52.1947674 25.5430588,52.875 24.9684706,53.1104651 C24.3938824,53.372093 23.7148235,53.1104651 23.4797647,52.5348837 C23.1924706,51.9593023 23.4797647,51.2790698 24.0543529,51.0436047 L24.0543529,51.0436047 Z M19.2225882,45.8895349 C19.6143529,45.7325581 20.0583529,45.8895349 20.2150588,46.2819767 C20.3717647,46.6744186 20.2150588,47.119186 19.8232941,47.2761628 C19.4315294,47.4331395 18.9875294,47.2761628 18.8308235,46.8837209 C18.6741176,46.4912791 18.8569412,46.0465116 19.2225882,45.8895349 L19.2225882,45.8895349 Z M13.9207059,63.6017442 C13.3461176,63.8633721 12.6670588,63.6017442 12.432,63.0261628 C12.1708235,62.4505814 12.432,61.7703488 13.0065882,61.5348837 C13.5811765,61.2732558 14.2602353,61.5348837 14.4952941,62.1104651 C14.7825882,62.6860465 14.5214118,63.3401163 13.9207059,63.6017442 L13.9207059,63.6017442 Z M14.9915294,59.494186 C14.5214118,58.4215116 14.9915294,57.1656977 16.0623529,56.6686047 C17.1331765,56.1976744 18.3868235,56.6686047 18.8830588,57.7412791 C19.3531765,58.8139535 18.8830588,60.0697674 17.8122353,60.5668605 C16.7152941,61.0377907 15.4616471,60.5668605 14.9915294,59.494186 L14.9915294,59.494186 Z M17.7077647,70.3517442 C18.0995294,70.1947674 18.5435294,70.3517442 18.7002353,70.744186 C18.8569412,71.1366279 18.7002353,71.5813953 18.3084706,71.7383721 C17.9167059,71.8953488 17.4727059,71.7383721 17.316,71.3459302 C17.1592941,70.9796512 17.316,70.5348837 17.7077647,70.3517442 L17.7077647,70.3517442 Z" id="liquid_2_" fill="#CC0000"></path>
                        <ellipse id="top_2_" fill="#000000" transform="translate(38.590184, 6.992859) rotate(-68.960432) translate(-38.590184, -6.992859) " cx="38.5901843" cy="6.99285872" rx="1.9065214" ry="7.27300085"></ellipse>
                    </g>
                    <path d="M50.5376471,41.6511628 C51.6868235,42.5668605 53.7762353,42.0436047 55.1865882,40.5 C56.6491765,38.877907 56.8842353,36.8110465 55.7350588,35.869186 C54.5858824,34.9534884 52.4964706,35.4767442 51.0861176,37.0988372 C49.5974118,38.747093 49.3362353,40.7354651 50.5376471,41.6511628 L50.5376471,41.6511628 Z M47.1162353,44.6598837 C46.8028235,44.6598837 46.2804706,45.2093023 46.7244706,45.4186047 C47.3512941,45.6540698 47.6385882,46.1773256 47.6385882,46.9622093 C47.0901176,50.127907 43.1724706,53.7645349 41.6054118,54.994186 C41.2136471,55.3866279 41.7621176,56.2238372 42.1538824,55.9098837 C42.9896471,55.2296512 44.7656471,53.8430233 46.2282353,51.9854651 C43.8515294,57.3226744 39.2025882,64.1773256 37.4265882,66.5843023 C30.4792941,76.2383721 19.9277647,85.1075581 12.6670588,85.1075581 C6.86894118,85.1075581 1.95882353,81.1831395 0.888,75.375 C0.809647059,74.747093 -0.0261176471,74.6162791 0.130588235,75.4534884 C1.43647059,83.4069767 7.548,86.4680233 14.9392941,86.4680233 C23.0357647,86.4680233 32.5425882,80.5813953 37.7661176,74.5901163 C46.2282353,64.8575581 51.7390588,53.6860465 50.2503529,47.3546512 C49.6757647,44.9738372 48.0303529,44.5813953 47.1162353,44.6598837 L47.1162353,44.6598837 Z M99.1425882,65.8255814 C101.362588,65.2761628 103.216941,64.0465116 103.216941,62.1104651 C103.216941,61.9273256 102.825176,61.9273256 102.825176,62.1104651 C102.825176,63.2616279 101.519294,64.2034884 100.056706,64.4389535 C96.6091765,64.9883721 89.7402353,60.9069767 86.5016471,56.7209302 C89.9491765,58.0290698 97.0531765,56.119186 100.396235,53.7383721 C103.478118,51.5145349 104.705647,49.0290698 104.966824,47.0145349 C105.358588,43.7180233 101.728235,41.755814 96.7136471,43.7180233 C93.4750588,45.0261628 89.6096471,47.877907 85.6136471,53.2151163 C89.8447059,46.1773256 98.1762353,34.7703488 106.351059,27.4447674 C116.301882,18.5755814 122.073882,20.2761628 113.141647,29.6686047 C109.459059,33.5145349 102.511765,38.5377907 97.7061176,40.7093023 C96.2435294,41.3372093 96.9487059,42.1744186 98.0195294,41.7034884 C103.112471,39.4796512 109.876941,34.8226744 113.977412,30.9767442 C126.069882,19.3343023 115.988471,10.5436047 102.564,22.8662791 C93.4750588,31.2906977 87.5202353,40.0813953 82.3750588,51.4883721 C80.5990588,53.6337209 79.2931765,55.4127907 77.6477647,56.8255814 C77.4649412,56.9825581 77.3082353,57.1656977 77.1776471,57.3226744 C72.7376471,61.1424419 65.7381176,66.2965116 61.3764706,66.375 C58.2945882,66.4534884 56.9887059,64.1511628 57.5371765,61.1162791 C58.3729412,56.4069767 63.2569412,50.8604651 67.4096471,48.9244186 C72.816,46.4651163 75.9762353,51.2267442 68.8722353,55.0988372 C66.1821176,56.4854651 62.9174118,57.244186 61.6115294,57.244186 C60.0705882,57.244186 60.2272941,57.872093 61.5331765,57.9244186 C63.6748235,58.002907 67.1745882,57.0872093 69.4729412,55.9883721 C76.7336471,52.5348837 77.1776471,46.0465116 69.3162353,45.8110465 C60.7496471,45.497093 50.5115294,52.8488372 50.5898824,62.0319767 C50.6682353,66.1918605 53.9851765,68.4418605 58.5296471,68.4418605 C66.1037647,68.3633721 72.8682353,62.5813953 78.3790588,57.5319767 C79.1625882,56.877907 79.9461176,56.1453488 80.7035294,55.3866279 C78.7708235,60.3313953 77.7783529,64.8837209 78.2484706,68.2587209 C78.5618824,70.7180233 79.9461176,71.869186 81.0169412,72.8110465 C81.252,72.9680233 81.696,72.8110465 81.4087059,72.3401163 C79.7894118,70.4040698 80.2595294,64.6744186 82.4795294,59.1540698 C84.3338824,62.8168605 91.5684706,67.5261628 99.1425882,65.8255814 L99.1425882,65.8255814 Z M90.0536471,49.7354651 C98.9075294,41.7819767 102.381176,48.8982558 96.7658824,53.1889535 C93.8407059,55.4127907 88.0425882,57.1133721 86.2143529,56.0406977 L85.8225882,55.8052326 C85.5875294,55.4127907 85.3524706,55.0465116 85.1957647,54.6540698 C86.6583529,52.875 88.356,51.2790698 90.0536471,49.7354651 L90.0536471,49.7354651 Z M139.233176,40.7354651 C142.759059,41.127907 141.296471,36.8110465 137.692235,37.8837209 C136.072941,38.3546512 134.532,41.4156977 133.382824,44.1366279 C129.856941,49.4738372 123.902118,56.6947674 119.723294,60.4883721 C116.040706,63.6540698 112.619294,64.4912791 116.798118,58.5523256 C118.495765,56.1715116 120.637412,53.6075581 121.891059,51.0697674 C124.816235,44.6598837 118.574118,41.8081395 113.559529,45.6540698 C110.634353,47.877907 106.690588,52.5348837 103.608706,55.0726744 C102.772941,55.752907 102.981882,56.7732558 103.843765,56.0668605 C106.298824,54.0784884 110.634353,49.5 114.316941,46.8052326 C117.398824,44.4244186 118.626353,45.9680233 116.850353,47.9563953 C114.395294,50.8081395 110.059765,55.752907 108.988941,58.9186047 C107.448,63.627907 109.302353,65.7209302 112.358118,65.7209302 C116.589176,65.7209302 122.909647,59.0755814 127.166824,53.8430233 C128.551059,52.0639535 130.092,49.997093 131.397882,47.9825581 C127.715294,55.1511628 123.849882,62.4244186 119.070353,68.9651163 C112.279765,78.2267442 103.791529,85.1860465 95.7734118,85.1860465 C89.9752941,85.1860465 84.9868235,81.2616279 83.916,75.4534884 C83.8376471,74.8255814 83.0802353,74.6947674 83.1585882,75.5319767 C84.4644706,83.4854651 90.576,86.5465116 97.9672941,86.5465116 C106.063765,86.5465116 113.846824,81.8372093 119.305412,76.0552326 C130.327059,64.3866279 131.659059,51.2790698 135.028235,43.9534884 C136.621412,40.7354651 138.084,40.5784884 139.233176,40.7354651 L139.233176,40.7354651 Z M184.051059,29.4593023 C185.670353,26.6860465 185.592,24.5145349 181.831059,24.5145349 C178.984235,24.5930233 173.812941,26.5813953 171.436235,28.4389535 C170.887765,28.9883721 171.122824,29.2761628 171.828,28.9883721 C172.298118,28.8313953 172.820471,28.5174419 173.368941,28.3081395 C176.059059,26.8430233 174.988235,29.9302326 174.361412,31.0813953 C171.122824,36.7325581 165.429176,44.6598837 162.425647,48.6104651 C160.989176,50.5465116 159.369882,52.4825581 157.776706,54.130814 C154.877647,56.877907 149.157882,61.7703488 144.848471,63.3924419 C130.797176,68.6511628 148.687765,44.7122093 150.176471,42.8023256 C153.493412,38.6424419 160.884706,31.3953488 163.104706,27.7587209 C164.724,24.9854651 164.645647,22.8139535 160.884706,22.8139535 C158.037882,22.8924419 152.866588,24.880814 150.489882,26.7383721 C149.941412,27.2877907 150.176471,27.5755814 150.881647,27.2877907 C151.351765,27.130814 151.874118,26.8168605 152.422588,26.6075581 C155.112706,25.1424419 154.041882,28.2296512 153.415059,29.380814 C150.176471,35.0319767 144.482824,42.9593023 141.479294,46.9098837 C139.024235,50.2063953 135.994588,53.5552326 133.696235,55.3866279 C132.782118,56.1453488 133.304471,56.8517442 134.244706,56.2238372 C135.080471,55.6744186 136.308,54.4447674 137.692235,52.9796512 C135.158824,58.0813953 133.043294,65.25 139.755529,66.0872093 C145.475294,66.872093 152.265882,61.0116279 156.653647,56.6947674 C157.123765,56.2238372 157.672235,55.7005814 158.220706,55.125 C158.351294,54.994186 158.481882,54.8633721 158.612471,54.7325581 C156.079059,59.8343023 153.989647,66.9767442 160.701882,67.8139535 C168.040941,68.8081395 177.129882,58.9447674 180.655765,55.3343023 C181.334824,54.6540698 181.125882,53.4767442 179.976706,54.6540698 C177.913412,56.7994186 170.887765,63.2093023 165.768706,65.1453488 C151.717412,70.4040698 169.608,46.4651163 171.096706,44.5552326 C174.413647,40.369186 181.831059,33.122093 184.051059,29.4593023 L184.051059,29.4593023 Z" id="jekyll-text_1_" fill="#000000"></path>
                </g>
            </g>
        </g>
    </g>
</svg>