<?xml version="1.0" encoding="utf-8"?>
<!-- Generator: Adobe Illustrator 19.2.1, SVG Export Plug-In . SVG Version: 6.00 Build 0)  -->
<svg version="1.1" id="Layer_1" xmlns="http://www.w3.org/2000/svg" xmlns:xlink="http://www.w3.org/1999/xlink" x="0px" y="0px"
	 viewBox="0 0 177 50" style="enable-background:new 0 0 177 50;" xml:space="preserve">
<style type="text/css">
	.st0{fill:#719C40;}
</style>
<title>Zendesk_logo_RGB Copy 3</title>
<desc>Created with Sketch.</desc>
<g id="scratch">
	<g id="Zendesk_logo_RGB-Copy-3">
		<path id="Fill-1" class="st0" d="M35.1,26.3c-1.7,1-3.6,1.4-5.5,1.4c-1.2,0-2.4-0.2-3.4-0.6c-1.9,1.7-3.9,2.9-4.9,3.4
			c1.5,2.3,3.8,4.1,6.6,4.8c0.9,0.2,1.8,0.3,2.6,0.3c2,0,3.8-0.5,5.4-1.4c0.2-0.9,0.4-1.9,0.4-2.8C36.4,29.7,36,27.9,35.1,26.3"/>
		<path id="Fill-2" class="st0" d="M0,2"/>
		<path id="Fill-3" class="st0" d="M32.8,12.4c-0.3,2.2-1.3,4.2-2.6,5.6c0.1,0.4,0.1,0.8,0.1,1.3c0,2.6-1.3,4.8-3,6.6
			c0.5,0.1,1,0.1,1.4,0.1c2.4,0,4.7-0.8,6.8-2.3c2.3-1.8,3.7-4.4,4.1-7.1c-1.6-2.1-3.9-3.6-6.4-4.2C33.1,12.4,33,12.4,32.8,12.4
			L32.8,12.4"/>
		<path id="Fill-4" class="st0" d="M31.1,10.5c0-3-1.2-5.7-3-7.6h-0.2c-2.6,0-4.9,0.9-7,2.8c2,2.1,2.7,4.8,2.7,7.5
			c0,0.2,0,0.4,0,0.6c0.4-0.1,0.9-0.2,1.3-0.2H25c1.7,0,3.4,0.9,4.4,2.5C30.5,14.6,31.1,12.6,31.1,10.5"/>
		<path id="Fill-5" class="st0" d="M11.3,3.1c-0.2,0-0.3,0-0.4,0C9.1,5.1,8,7.7,8,10.5v0.1c0.1,0,0.2,0,0.4,0c3,0,5.8,1.2,7.7,3.1
			c1.6,0.1,3.3,1,4.2,2.7c0.5-0.9,1.2-1.6,1.9-2c0-0.1,0-0.3,0-0.4c0-3-1.3-6.1-3.7-8.2C16.5,4,13.9,3.1,11.3,3.1"/>
		<path id="Fill-6" class="st0" d="M0,2"/>
		<path id="Fill-7" class="st0" d="M14.4,13.9c-1.6-1-3.5-1.5-5.5-1.5c-0.6,0-1.3,0.1-1.9,0.2c-3,0.5-5.4,2.1-7,4.3
			c0.4,2.7,1.8,5.2,4.1,6.9c1.6-2.2,4-3.7,6.3-4.1c0-0.1,0-0.2,0-0.4C10.4,16.3,12.3,14.4,14.4,13.9"/>
		<path id="Fill-8" class="st0" d="M4.7,26.3c-0.9,1.6-1.3,3.4-1.3,5.2c0,1,0.1,2.1,0.4,3c1.6,0.9,3.4,1.4,5.3,1.4
			c0.9,0,1.8-0.1,2.7-0.3c-0.3-1-0.4-2-0.4-3c0-2.4,0.7-4.6,2.1-6.5c-1.3-1.4-2.4-3-2.8-4.9C8.2,22,6,23.8,4.7,26.3"/>
		<path id="Fill-9" class="st0" d="M0,2"/>
		<path id="Fill-10" class="st0" d="M20,42.2c2.5-1.1,4.5-3,5.7-5.7c-2.8-1.2-4.9-3.4-5.9-5.9c-0.9-0.5-3.2-1.8-5.3-3.7
			c-0.8,1.6-1.2,3.3-1.2,5.1c0,1.5,0.3,3,1,4.5C15.3,39.2,17.5,41.2,20,42.2"/>
		<path id="Fill-11" class="st0" d="M0,2"/>
		<path id="Fill-12" class="st0" d="M55.4,28.8l-9.6,11.4h8.3c0.9,0,1.6,0.7,1.6,1.6c0,0.9-0.7,1.7-1.6,1.7H42
			c-0.8,0-1.7-0.8-1.7-1.7c0-0.4,0.2-0.9,0.4-1.2l9.5-11.4H42c-0.9,0-1.7-0.8-1.7-1.7c0-0.9,0.8-1.6,1.7-1.6h11.8
			c1.1,0,1.9,0.9,1.9,1.8C55.8,28.1,55.6,28.5,55.4,28.8"/>
		<path id="Fill-13" class="st0" d="M67.1,28.7c-2.7,0-4.6,1.8-5,4.4H72C71.7,30.6,69.8,28.7,67.1,28.7L67.1,28.7z M74.6,35.9
			c0,0,0,0-12.5,0c0.2,2.7,2.4,4.8,5.3,4.8c2.1,0,3.8-0.9,5.3-2.2c0.3-0.3,0.6-0.4,1-0.4c0.5,0,1,0.2,1.3,0.7
			c0.2,0.3,0.3,0.6,0.3,0.9c0,0.4-0.2,0.9-0.6,1.3c-1.7,1.8-4.6,3-7.4,3c-5.1,0-9.3-4.1-9.3-9.3s4-9.3,9.1-9.3s8.9,4,8.9,9.2
			C76,35.4,75.3,35.9,74.6,35.9L74.6,35.9z"/>
		<path id="Fill-14" class="st0" d="M108.5,28.9c-3.2,0-5.3,2.6-5.3,5.8s2.1,5.8,5.3,5.8c3.2,0,5.3-2.5,5.3-5.8
			S111.8,28.9,108.5,28.9L108.5,28.9z M115.8,43.8c-1.1,0-2-0.9-2-2v-0.9c-1.1,2-3.3,3.1-5.8,3.1c-5.1,0-8.8-4-8.8-9.3
			s3.5-9.3,8.8-9.3c2.6,0,4.8,1.3,5.8,3.1V18c0-1.1,0.9-2,2-2s2,0.9,2,2v23.8C117.8,42.9,116.9,43.8,115.8,43.8L115.8,43.8z"/>
		<path id="Fill-15" class="st0" d="M130.5,28.7c-2.7,0-4.6,1.8-5,4.4h9.9C135.1,30.6,133.1,28.7,130.5,28.7L130.5,28.7z
			 M137.9,35.9c0,0,0,0-12.5,0c0.2,2.7,2.4,4.8,5.3,4.8c2.1,0,3.8-0.9,5.3-2.2c0.3-0.3,0.6-0.4,1-0.4c0.5,0,1,0.2,1.3,0.7
			c0.2,0.3,0.3,0.6,0.3,0.9c0,0.4-0.2,0.9-0.6,1.3c-1.7,1.8-4.6,3-7.4,3c-5.1,0-9.3-4.1-9.3-9.3s4-9.3,9.1-9.3s8.9,4,8.9,9.2
			C139.3,35.4,138.7,35.9,137.9,35.9L137.9,35.9z"/>
		<path id="Fill-16" class="st0" d="M149.2,44c-2,0-4.6-0.7-6.5-1.8c-0.6-0.4-1-0.9-1-1.5c0-0.2,0.1-0.4,0.2-0.6
			c0.2-0.6,0.7-0.9,1.3-0.9c0.2,0,0.6,0.1,0.8,0.2c1.5,0.9,3.2,1.4,5,1.4c2,0,4.1-0.6,4.1-2.2c0-1.2-1.1-1.7-5.2-3.1
			c-3.4-1.2-5.2-2.7-5.2-5.2c0-3,3-4.9,6.9-4.9c2.7,0,4.4,0.6,6.1,1.4c0.7,0.3,1.1,0.9,1.1,1.5c0,0.2,0,0.4-0.1,0.6
			c-0.2,0.6-0.9,1.1-1.5,1.1c-0.2,0-0.4,0-0.6-0.1c-1.5-0.7-3-1.1-4.6-1.1c-2.1,0-3.5,0.5-3.5,1.8s1,1.6,4.1,2.6
			c3.7,1.2,6.3,2.5,6.3,5.5C156.8,41.5,154.1,44,149.2,44"/>
		<path id="Fill-17" class="st0" d="M174.9,43.8c-0.5,0-1.1-0.2-1.4-0.6l-6.7-7.6l-2,1.6v4.7c0,1.1-0.9,2-1.9,2
			c-1.1,0-1.9-0.9-1.9-2V18c0-1.1,0.9-2,1.9-2c1.1,0,1.9,0.9,1.9,2v14.4l8.4-6.5c0.3-0.2,0.7-0.4,1.1-0.4c0.6,0,1,0.3,1.4,0.7
			c0.2,0.3,0.4,0.7,0.4,1.1c0,0.6-0.3,1.1-0.7,1.4l-5.7,4.5l6.5,7.5c0.3,0.3,0.4,0.8,0.4,1.2C176.7,43,175.9,43.7,174.9,43.8"/>
		<path id="Fill-18" class="st0" d="M87.8,25.3c-4.6,0-8.4,3.6-8.4,8.4V42c0,1.1,0.9,2,2,2s2-0.9,2-2v-8.2c0-2.8,1.5-4.9,4.4-4.9
			c2.9,0.1,4.4,2.2,4.4,4.9V42c0,1.1,0.9,2,2,2s2-0.9,2-2v-8.3C96.1,28.9,92.3,25.3,87.8,25.3"/>
	</g>
</g>
</svg>
