<?xml version="1.0" encoding="UTF-8" standalone="no"?>
<svg width="725px" height="136px" viewBox="0 0 725 136" version="1.1" xmlns="http://www.w3.org/2000/svg" xmlns:xlink="http://www.w3.org/1999/xlink">
    <!-- Generator: Sketch 3.8.3 (29802) - http://www.bohemiancoding.com/sketch -->
    <title>Group 3</title>
    <desc>Created with Sketch.</desc>
    <defs></defs>
    <g id="Page-1" stroke="none" stroke-width="1" fill="none" fill-rule="evenodd">
        <g id="home-copy" transform="translate(-277.000000, -6960.000000)" fill="#8C95A3">
            <g id="Group-3" transform="translate(277.000000, 6960.000000)">
                <g id="logo--moma" transform="translate(603.000000, 9.000000)">
                    <path d="M122.039576,30.260096 L112.597246,0.203429217 L103.434125,0.203429217 L94.0679426,30.260096 L100.895864,30.260096 L102.621881,24.2080768 L111.683472,24.2080768 L113.409489,30.260096 L122.039576,30.260096 L122.039576,30.260096 L122.039576,30.260096 L122.039576,30.260096 Z M92.0373341,30.260096 L92.0373341,0.203429217 L80.1075086,0.203429217 L75.7163176,15.4097632 L71.096683,0.203429217 L59.1668576,0.203429217 L59.1668576,30.260096 L65.8171007,30.260096 L65.8171007,8.92545688 L72.3404308,30.2346673 L77.3408044,30.2346673 L83.8641345,8.92545688 L83.8641345,30.260096 L92.0373341,30.260096 L92.0373341,30.260096 L92.0373341,30.260096 L92.0373341,30.260096 Z M32.9466243,30.260096 L32.9466243,0.203429217 L21.0167988,0.203429217 L16.6256078,15.4097632 L12.0059733,0.203429217 L0.0761478219,0.203429217 L0.0761478219,30.260096 L6.72639093,30.260096 L6.72639093,8.92545688 L13.2751036,30.260096 L18.2754773,30.260096 L24.7988073,8.95088553 L24.7988073,30.260096 L32.9466243,30.260096 L32.9466243,30.260096 L32.9466243,30.260096 L32.9466243,30.260096 Z M56.6285969,19.7580627 C56.6285969,13.2483277 52.5419971,8.67117036 46.0440496,8.67117036 C39.1399805,8.67117036 35.5102676,13.9094727 35.5102676,19.7580627 C35.5102676,26.4203695 39.8760761,30.844955 46.0440496,30.844955 C52.3135536,30.8703836 56.6285969,26.4712268 56.6285969,19.7580627 L56.6285969,19.7580627 L56.6285969,19.7580627 L56.6285969,19.7580627 Z M110.00822,18.0034857 L104.322516,18.0034857 L107.139985,8.44231249 L110.00822,18.0034857 L110.00822,18.0034857 L110.00822,18.0034857 L110.00822,18.0034857 Z M49.0645799,19.80892 C49.0645799,23.6486464 48.5569278,26.0135111 46.0440496,26.0135111 C43.5311715,26.0135111 43.0742846,23.5723605 43.0742846,19.80892 C43.0742846,16.0963368 43.5057889,13.5280429 46.0440496,13.5280429 C48.6584582,13.5280429 49.0645799,16.0454795 49.0645799,19.80892 L49.0645799,19.80892 L49.0645799,19.80892 L49.0645799,19.80892 Z" id="Shape"></path>
                </g>
                <g id="logo--spotify" transform="translate(233.000000, 0.000000)">
                    <path d="M25.1251909,0.0854895364 C11.2630166,0.0854895364 0.0866385893,11.1136397 0.0866385893,24.7919656 C0.0866385893,38.4702914 11.2630166,49.4984416 25.1251909,49.4984416 C38.9873652,49.4984416 50.1637432,38.4702914 50.1637432,24.7919656 C50.1637432,11.1136397 38.9873652,0.0854895364 25.1251909,0.0854895364 L25.1251909,0.0854895364 L25.1251909,0.0854895364 L25.1251909,0.0854895364 Z M36.6481233,35.7346262 C36.2149303,36.4185425 35.2619059,36.6750111 34.4821586,36.2475634 C28.5907345,32.7424925 21.2264544,31.8875971 12.4759569,33.8538564 C11.609571,34.0248355 10.8298237,33.5118983 10.5699079,32.6570029 C10.3966307,31.8021076 10.9164623,31.0327017 11.7828482,30.7762331 C21.313093,28.6389947 29.543759,29.5793796 36.1282918,33.5118983 C36.8214005,34.0248355 37.0813162,34.9652204 36.6481233,35.7346262 L36.6481233,35.7346262 L36.6481233,35.7346262 Z M39.6804739,28.9809529 C39.0740038,29.9213378 37.9477021,30.1778064 36.9946777,29.5793796 C30.2368677,25.4758819 20.0135141,24.2790283 12.0427639,26.6727354 C11.0031008,27.0146935 9.87679919,26.4162668 9.61688342,25.3903923 C9.27032906,24.3645179 9.87679919,23.3386434 10.9164623,22.9966853 C20.0135141,20.2610201 31.3631693,21.6288527 39.0740038,26.2452877 C39.9403897,26.929204 40.286944,28.1260575 39.6804739,28.9809529 L39.6804739,28.9809529 L39.6804739,28.9809529 L39.6804739,28.9809529 Z M39.9403897,21.9708109 C31.8830009,17.2688864 18.5406581,16.8414387 10.8298237,19.1496562 C9.61688342,19.4916143 8.31730458,18.807698 7.88411163,17.6108445 C7.53755727,16.413991 8.23066599,15.1316479 9.44360624,14.7042003 C18.2807424,12.0540246 33.0093025,12.5669619 42.2796316,18.0382922 C43.4059333,18.7222085 43.7524876,20.0900411 43.0593789,21.201405 C42.4529088,22.312769 41.0666914,22.6547272 39.9403897,21.9708109 L39.9403897,21.9708109 L39.9403897,21.9708109 Z M68.2712084,22.9111958 C63.9392789,21.8853213 63.1595316,21.201405 63.1595316,19.6625934 C63.1595316,18.2092713 64.5457491,17.2688864 66.5384366,17.2688864 C68.5311242,17.2688864 70.4371731,17.9528027 72.4298607,19.4916143 C72.5164993,19.5771038 72.6031379,19.5771038 72.6031379,19.5771038 C72.6897765,19.5771038 72.7764151,19.4916143 72.7764151,19.4916143 L74.8557412,16.5849701 C74.9423798,16.4994805 74.9423798,16.3285015 74.7691026,16.2430119 C72.3432221,14.3622421 69.6574258,13.4218572 66.451798,13.4218572 C61.7733142,13.4218572 58.4810478,16.1575224 58.4810478,20.1755306 C58.4810478,24.4500074 61.2534827,25.9033295 66.1918823,27.1001831 C70.3505345,28.040568 71.0436433,28.8099738 71.0436433,30.2632959 C71.0436433,31.8021076 69.6574258,32.827982 67.3181839,32.827982 C64.8056648,32.827982 62.7263387,31.9730866 60.3870968,30.0068273 C60.3004582,29.9213378 60.2138196,29.9213378 60.2138196,29.9213378 C60.127181,29.9213378 60.0405424,29.9213378 60.0405424,30.0068273 L57.7013005,32.827982 C57.6146619,32.9134715 57.6146619,33.0844506 57.7013005,33.2554297 C60.3870968,35.6491367 63.6793632,36.8459902 67.2315453,36.8459902 C72.2565835,36.8459902 75.5488499,34.110325 75.5488499,29.9213378 C75.6354885,26.1597981 73.4695238,24.1935388 68.2712084,22.9111958 L68.2712084,22.9111958 L68.2712084,22.9111958 L68.2712084,22.9111958 Z M87.0717823,18.7222085 C84.9058176,18.7222085 83.0864072,19.5771038 81.6135512,21.2868946 L81.6135512,19.3206352 C81.6135512,19.1496562 81.5269126,19.0641666 81.3536354,19.0641666 L77.4548989,19.0641666 C77.2816217,19.0641666 77.1949831,19.1496562 77.1949831,19.3206352 L77.1949831,41.0349775 C77.1949831,41.2059566 77.2816217,41.2914461 77.4548989,41.2914461 L81.3536354,41.2914461 C81.5269126,41.2914461 81.6135512,41.2059566 81.6135512,41.0349775 L81.6135512,34.1958146 C83.0864072,35.8201158 84.9058176,36.5895216 87.0717823,36.5895216 C91.143796,36.5895216 95.2158097,33.5118983 95.2158097,27.6131203 C95.2158097,21.7998318 91.0571574,18.7222085 87.0717823,18.7222085 L87.0717823,18.7222085 L87.0717823,18.7222085 L87.0717823,18.7222085 Z M90.710603,27.6131203 C90.710603,30.605254 88.8045541,32.7424925 86.1187578,32.7424925 C83.4329615,32.7424925 81.440274,30.5197645 81.440274,27.6131203 C81.440274,24.706476 83.4329615,22.4837481 86.1187578,22.4837481 C88.8045541,22.5692376 90.710603,24.706476 90.710603,27.6131203 L90.710603,27.6131203 L90.710603,27.6131203 L90.710603,27.6131203 Z M105.699079,18.7222085 C100.500764,18.7222085 96.4287499,22.6547272 96.4287499,27.7840993 C96.4287499,32.827982 100.500764,36.6750111 105.699079,36.6750111 C110.897394,36.6750111 115.056047,32.7424925 115.056047,27.6986098 C114.969408,22.6547272 110.897394,18.7222085 105.699079,18.7222085 L105.699079,18.7222085 L105.699079,18.7222085 L105.699079,18.7222085 Z M105.699079,32.7424925 C102.926644,32.7424925 100.847318,30.5197645 100.847318,27.6131203 C100.847318,24.706476 102.840006,22.5692376 105.61244,22.5692376 C108.384875,22.5692376 110.55084,24.7919656 110.55084,27.6986098 C110.55084,30.605254 108.471514,32.7424925 105.699079,32.7424925 L105.699079,32.7424925 L105.699079,32.7424925 Z M126.145786,19.0641666 L121.900495,19.0641666 L121.900495,14.7896898 C121.900495,14.6187107 121.813857,14.5332212 121.640579,14.5332212 L117.741843,14.5332212 C117.568566,14.5332212 117.481927,14.6187107 117.481927,14.7896898 L117.481927,19.0641666 L115.662517,19.0641666 C115.48924,19.0641666 115.402601,19.1496562 115.402601,19.3206352 L115.402601,22.5692376 C115.402601,22.7402167 115.48924,22.8257062 115.662517,22.8257062 L117.481927,22.8257062 L117.481927,31.2891703 C117.481927,34.7087518 119.214699,36.5040321 122.593604,36.5040321 C123.979821,36.5040321 125.106123,36.2475634 126.232425,35.6491367 C126.319063,35.5636472 126.405702,35.4781576 126.405702,35.3926681 L126.405702,32.2295552 C126.405702,32.1440657 126.319063,32.0585762 126.232425,31.9730866 C126.145786,31.8875971 126.059147,31.8875971 125.972509,31.9730866 C125.192762,32.3150448 124.499653,32.4860238 123.719906,32.4860238 C122.506965,32.4860238 121.900495,31.8875971 121.900495,30.6907436 L121.900495,22.8257062 L126.145786,22.8257062 C126.319063,22.8257062 126.405702,22.7402167 126.405702,22.5692376 L126.405702,19.3206352 C126.405702,19.1496562 126.319063,19.0641666 126.145786,19.0641666 L126.145786,19.0641666 L126.145786,19.0641666 L126.145786,19.0641666 Z M140.960985,19.0641666 L140.960985,18.5512294 C140.960985,17.0124178 141.567455,16.3285015 142.953672,16.3285015 C143.73342,16.3285015 144.426528,16.4994805 145.119637,16.7559491 L145.379553,16.7559491 C145.466192,16.6704596 145.466192,16.5849701 145.466192,16.4994805 L145.466192,13.2508781 C145.466192,13.1653886 145.379553,12.9944095 145.292914,12.9944095 C144.513167,12.7379409 143.560143,12.5669619 142.087287,12.5669619 C138.535104,12.5669619 136.629055,14.5332212 136.629055,18.2947608 L136.629055,19.0641666 L134.809645,19.0641666 C134.636368,19.0641666 134.549729,19.1496562 134.549729,19.3206352 L134.549729,22.6547272 C134.549729,22.8257062 134.636368,22.9111958 134.809645,22.9111958 L136.629055,22.9111958 L136.629055,35.9910948 C136.629055,36.1620739 136.715694,36.2475634 136.888971,36.2475634 L140.787708,36.2475634 C140.960985,36.2475634 141.047623,36.1620739 141.047623,35.9910948 L141.047623,22.9111958 L144.686444,22.9111958 L150.231314,35.9910948 C149.624844,37.3589274 149.018374,37.615396 148.151988,37.615396 C147.458879,37.615396 146.76577,37.444417 145.986023,37.0169693 L145.726107,37.0169693 C145.639469,37.0169693 145.55283,37.1024588 145.55283,37.1879484 L144.253251,40.0091031 C144.166613,40.1800821 144.253251,40.2655717 144.33989,40.3510612 C145.726107,41.120467 146.939048,41.3769356 148.498542,41.3769356 C151.357616,41.3769356 152.91711,40.0945926 154.303328,36.5040321 L161.061138,19.4061248 L161.061138,19.1496562 C160.974499,19.0641666 160.88786,19.0641666 160.801222,19.0641666 L156.815847,19.0641666 C156.729208,19.0641666 156.555931,19.1496562 156.555931,19.2351457 L152.397279,30.8617227 L147.892072,19.2351457 C147.892072,19.1496562 147.718795,19.0641666 147.632156,19.0641666 L140.960985,19.0641666 L140.960985,19.0641666 L140.960985,19.0641666 L140.960985,19.0641666 Z M132.383765,19.0641666 L128.485028,19.0641666 C128.311751,19.0641666 128.225112,19.1496562 128.225112,19.3206352 L128.225112,35.9910948 C128.225112,36.1620739 128.311751,36.2475634 128.485028,36.2475634 L132.383765,36.2475634 C132.557042,36.2475634 132.64368,36.1620739 132.64368,35.9910948 L132.64368,19.3206352 C132.64368,19.1496562 132.557042,19.0641666 132.383765,19.0641666 L132.383765,19.0641666 L132.383765,19.0641666 L132.383765,19.0641666 Z M130.477716,11.4555979 C128.918221,11.4555979 127.705281,12.6524514 127.705281,14.191263 C127.705281,15.7300747 128.918221,16.9269282 130.477716,16.9269282 C132.03721,16.9269282 133.25015,15.7300747 133.25015,14.191263 C133.25015,12.6524514 131.950572,11.4555979 130.477716,11.4555979 L130.477716,11.4555979 L130.477716,11.4555979 Z" id="Shape"></path>
                </g>
                <g id="logo--microsoft" transform="translate(0.936872, 4.132591)">
                    <path d="M191.920988,18.5237684 L191.920988,15.1343129 L187.733333,15.1343129 L187.733333,9.85306828 L187.575309,9.93189283 L183.624691,11.114261 L183.545679,11.114261 L183.545679,15.0554883 L177.303704,15.0554883 L177.303704,12.848401 C177.303704,11.8236819 177.540741,11.0354365 178.014815,10.4836646 C178.488889,9.93189283 179.120988,9.69541919 179.911111,9.69541919 C180.464198,9.69541919 181.096296,9.85306828 181.728395,10.0895419 L181.88642,10.1683665 L181.88642,6.62126188 L181.807407,6.62126188 C181.254321,6.38478825 180.464198,6.3059637 179.516049,6.3059637 C178.330864,6.3059637 177.145679,6.54243734 176.197531,7.09420916 C175.249383,7.64598099 174.459259,8.3554019 173.906173,9.30129646 C173.353086,10.247191 173.116049,11.3507347 173.116049,12.6119274 L173.116049,15.0554883 L170.192593,15.0554883 L170.192593,18.4449438 L173.116049,18.4449438 L173.116049,32.6333621 L177.303704,32.6333621 L177.303704,18.4449438 L183.545679,18.4449438 L183.545679,27.5097666 C183.545679,31.2145203 185.283951,33.1063094 188.760494,33.1063094 C189.31358,33.1063094 189.945679,33.0274849 190.577778,32.8698358 C191.209877,32.7121867 191.604938,32.6333621 191.841975,32.4757131 L191.920988,32.4757131 L191.920988,29.0862576 L191.762963,29.1650821 C191.525926,29.3227312 191.288889,29.4015557 190.893827,29.5592048 C190.577778,29.6380294 190.261728,29.7168539 190.103704,29.7168539 C189.31358,29.7168539 188.681481,29.4803803 188.28642,29.0862576 C187.891358,28.6133103 187.733333,27.9038894 187.733333,26.8003457 L187.733333,18.5237684 L191.920988,18.5237684 L191.920988,18.5237684 L191.920988,18.5237684 Z M160.948148,29.7168539 C159.446914,29.7168539 158.261728,29.2439067 157.392593,28.2191876 C156.523457,27.1944685 156.128395,25.7756266 156.128395,23.9626621 C156.128395,22.0708729 156.523457,20.6520311 157.392593,19.627312 C158.261728,18.6025929 159.446914,18.1296456 160.948148,18.1296456 C162.37037,18.1296456 163.555556,18.6025929 164.424691,19.5484875 C165.293827,20.494382 165.688889,21.9920484 165.688889,23.8838375 C165.688889,25.7756266 165.293827,27.273293 164.503704,28.2191876 C163.634568,29.2439067 162.449383,29.7168539 160.948148,29.7168539 L160.948148,29.7168539 L160.948148,29.7168539 Z M161.106173,14.7401901 C158.182716,14.7401901 155.891358,15.6072602 154.232099,17.2625756 C152.57284,18.9178911 151.782716,21.2826275 151.782716,24.1203111 C151.782716,26.8791703 152.57284,29.0862576 154.232099,30.6627485 C155.812346,32.2392394 158.024691,33.1063094 160.711111,33.1063094 C163.555556,33.1063094 165.767901,32.2392394 167.42716,30.5839239 C169.08642,28.8497839 169.876543,26.5638721 169.876543,23.7261884 C169.876543,20.9673293 169.08642,18.6814175 167.585185,17.1049265 C166.004938,15.5284356 163.871605,14.7401901 161.106173,14.7401901 L161.106173,14.7401901 L161.106173,14.7401901 Z M145.066667,14.7401901 C143.091358,14.7401901 141.432099,15.2131374 140.246914,16.2378565 C138.982716,17.2625756 138.350617,18.5237684 138.350617,20.1002593 C138.350617,20.8885048 138.508642,21.6767502 138.745679,22.3073466 C138.982716,22.937943 139.45679,23.4897148 140.009877,23.9626621 C140.562963,24.4356093 141.432099,24.9085566 142.538272,25.3815039 C143.48642,25.7756266 144.197531,26.0909248 144.671605,26.406223 C145.145679,26.6426966 145.461728,26.9579948 145.619753,27.1944685 C145.777778,27.4309421 145.85679,27.7462403 145.85679,28.2191876 C145.85679,29.4015557 144.987654,29.9533276 143.17037,29.9533276 C142.459259,29.9533276 141.748148,29.7956785 140.879012,29.5592048 C140.009877,29.2439067 139.219753,28.8497839 138.508642,28.3768366 L138.350617,28.2191876 L138.350617,32.2392394 L138.42963,32.2392394 C139.061728,32.4757131 139.77284,32.7121867 140.641975,32.9486603 C141.511111,33.1063094 142.301235,33.185134 143.012346,33.185134 C145.145679,33.185134 146.883951,32.7121867 148.148148,31.6874676 C149.412346,30.6627485 150.044444,29.3227312 150.044444,27.6674157 C150.044444,26.4850475 149.728395,25.4603284 149.017284,24.672083 C148.306173,23.8838375 147.2,23.095592 145.540741,22.4649957 C144.197531,21.9132239 143.407407,21.5191011 143.091358,21.2038029 C142.775309,20.8885048 142.617284,20.4155575 142.617284,19.8637857 C142.617284,19.3908384 142.854321,18.9178911 143.249383,18.6025929 C143.644444,18.2872947 144.276543,18.1296456 145.066667,18.1296456 C145.777778,18.1296456 146.488889,18.2084702 147.2,18.4449438 C147.911111,18.6814175 148.54321,18.9178911 149.017284,19.3120138 L149.175309,19.3908384 L149.175309,15.6072602 L149.096296,15.6072602 C148.622222,15.3707865 147.990123,15.2131374 147.2,15.0554883 C146.330864,14.8190147 145.619753,14.7401901 145.066667,14.7401901 L145.066667,14.7401901 L145.066667,14.7401901 Z M127.367901,29.7168539 C125.866667,29.7168539 124.681481,29.2439067 123.812346,28.2191876 C122.94321,27.1944685 122.548148,25.7756266 122.548148,23.9626621 C122.548148,22.0708729 122.94321,20.6520311 123.812346,19.627312 C124.681481,18.6025929 125.866667,18.1296456 127.367901,18.1296456 C128.790123,18.1296456 129.975309,18.6025929 130.844444,19.5484875 C131.71358,20.494382 132.108642,21.9920484 132.108642,23.8838375 C132.108642,25.7756266 131.71358,27.273293 130.923457,28.2191876 C130.054321,29.2439067 128.869136,29.7168539 127.367901,29.7168539 L127.367901,29.7168539 L127.367901,29.7168539 Z M127.525926,14.7401901 C124.602469,14.7401901 122.311111,15.6072602 120.651852,17.2625756 C118.992593,18.9178911 118.202469,21.2826275 118.202469,24.1203111 C118.202469,26.8791703 118.992593,29.0862576 120.651852,30.6627485 C122.232099,32.2392394 124.444444,33.1063094 127.130864,33.1063094 C129.975309,33.1063094 132.187654,32.2392394 133.846914,30.5839239 C135.506173,28.8497839 136.296296,26.5638721 136.296296,23.7261884 C136.296296,20.9673293 135.506173,18.6814175 134.004938,17.1049265 C132.424691,15.5284356 130.291358,14.7401901 127.525926,14.7401901 L127.525926,14.7401901 L127.525926,14.7401901 Z M111.881481,18.2084702 L111.881481,15.1343129 L107.77284,15.1343129 L107.77284,32.7121867 L111.881481,32.7121867 L111.881481,23.7261884 C111.881481,22.228522 112.197531,20.9673293 112.908642,20.0214347 C113.619753,19.0755402 114.488889,18.6025929 115.595062,18.6025929 C115.990123,18.6025929 116.385185,18.6814175 116.859259,18.760242 C117.333333,18.9178911 117.649383,18.9967156 117.807407,19.1543647 L117.965432,19.3120138 L117.965432,15.1343129 L117.88642,15.1343129 C117.491358,14.9766638 116.938272,14.8978392 116.22716,14.8978392 C115.2,14.8978392 114.251852,15.2131374 113.461728,15.9225583 C112.82963,16.3955056 112.276543,17.1837511 111.881481,18.2084702 L111.881481,18.2084702 L111.881481,18.2084702 L111.881481,18.2084702 Z M100.345679,14.7401901 C98.4493827,14.7401901 96.7901235,15.1343129 95.2888889,15.9225583 C93.8666667,16.7108038 92.7604938,17.893172 91.9703704,19.3120138 C91.1802469,20.7308557 90.8641975,22.4649957 90.8641975,24.3567848 C90.8641975,26.0121003 91.2592593,27.5097666 91.9703704,28.8497839 C92.6814815,30.1898012 93.7876543,31.2145203 95.0518519,32.0027658 C96.3950617,32.7121867 97.8962963,33.1063094 99.5555556,33.1063094 C101.530864,33.1063094 103.190123,32.7121867 104.533333,31.9239412 L104.612346,31.9239412 L104.612346,28.140363 L104.454321,28.2980121 C103.822222,28.7709594 103.190123,29.0862576 102.4,29.3227312 C101.688889,29.5592048 100.977778,29.7168539 100.424691,29.7168539 C98.7654321,29.7168539 97.5012346,29.2439067 96.5530864,28.2191876 C95.6049383,27.1944685 95.1308642,25.7756266 95.1308642,24.0414866 C95.1308642,22.228522 95.6049383,20.8096802 96.6320988,19.7849611 C97.5802469,18.760242 98.9234568,18.2084702 100.503704,18.2084702 C101.846914,18.2084702 103.190123,18.6814175 104.454321,19.5484875 L104.612346,19.7061366 L104.612346,15.6860847 L104.533333,15.6860847 C104.059259,15.4496111 103.42716,15.2131374 102.637037,15.0554883 C101.846914,14.8190147 101.05679,14.7401901 100.345679,14.7401901 L100.345679,14.7401901 L100.345679,14.7401901 Z M87.9407407,15.1343129 L83.8320988,15.1343129 L83.8320988,32.7121867 L87.9407407,32.7121867 L87.9407407,15.1343129 L87.9407407,15.1343129 L87.9407407,15.1343129 Z M85.9654321,7.64598099 C85.254321,7.64598099 84.7012346,7.88245462 84.2271605,8.3554019 C83.7530864,8.82834918 83.5160494,9.380121 83.5160494,10.0895419 C83.5160494,10.7989628 83.7530864,11.3507347 84.2271605,11.7448574 C84.7012346,12.2178047 85.3333333,12.4542783 85.9654321,12.4542783 C86.6765432,12.4542783 87.2296296,12.2178047 87.782716,11.7448574 C88.2567901,11.2719101 88.4938272,10.7201383 88.4938272,10.0895419 C88.4938272,9.45894555 88.2567901,8.82834918 87.782716,8.3554019 C87.2296296,7.88245462 86.6765432,7.64598099 85.9654321,7.64598099 L85.9654321,7.64598099 L85.9654321,7.64598099 Z M75.6148148,13.8731201 L75.6148148,32.7121867 L79.8024691,32.7121867 L79.8024691,8.19775281 L73.9555556,8.19775281 L66.5283951,26.406223 L59.3382716,8.19775281 L53.254321,8.19775281 L53.254321,32.7121867 L57.2049383,32.7121867 L57.2049383,13.8731201 L57.362963,13.8731201 L64.9481481,32.7121867 L67.9506173,32.7121867 L75.4567901,13.8731201 L75.6148148,13.8731201 L75.6148148,13.8731201 L75.6148148,13.8731201 Z" id="path5056"></path>
                    <polygon id="path5058" points="19.437037 19.4696629 5.68434189e-14 19.4696629 5.68434189e-14 -1.77635684e-15 19.437037 -1.77635684e-15"></polygon>
                    <polygon id="path5060" points="41.0074074 19.4696629 21.491358 19.4696629 21.491358 -1.77635684e-15 41.0074074 -1.77635684e-15"></polygon>
                    <polygon id="path5062" points="19.437037 40.9099395 5.68434189e-14 40.9099395 5.68434189e-14 21.5191011 19.437037 21.5191011"></polygon>
                    <polygon id="path5064" points="41.0074074 40.9099395 21.491358 40.9099395 21.491358 21.5191011 41.0074074 21.5191011"></polygon>
                </g>
                <g id="logo--nyu" transform="translate(434.000000, 3.000000)">
                    <polygon id="Shape" points="53.5609756 9.83562205 58.4444763 9.83562205 69.7868006 24.7476942 69.7868006 9.83562205 74.9853659 9.83562205 74.9853659 34.1073991 70.4169297 34.1073991 58.7595409 18.7194097 58.7595409 34.1073991 53.5609756 34.1073991"></polygon>
                    <polygon id="Shape" points="86.9578192 24.5890551 77.6634146 9.83562205 83.8071736 9.83562205 89.635868 19.6712441 95.4645624 9.83562205 101.450789 9.83562205 92.1563845 24.4304161 92.1563845 34.1073991 86.8002869 34.1073991 86.8002869 24.5890551"></polygon>
                    <path d="M103.813773,23.7958598 L103.813773,9.83562205 L109.169871,9.83562205 L109.169871,23.6372207 C109.169871,27.6031974 111.060258,29.6655052 114.368436,29.6655052 C117.676614,29.6655052 119.567001,27.7618364 119.567001,23.7958598 L119.567001,9.83562205 L124.923099,9.83562205 L124.923099,23.6372207 C124.923099,30.9346177 120.82726,34.5833163 114.368436,34.5833163 C107.75208,34.5833163 103.813773,30.9346177 103.813773,23.7958598 L103.813773,23.7958598 Z" id="Shape"></path>
                    <path d="M42.5337159,43.625743 L0,43.625743 L0,0.793195327 L42.5337159,0.793195327 L42.5337159,43.625743 L42.5337159,43.625743 L42.5337159,43.625743 Z M19.8490674,38.5492929 C19.8490674,38.866571 20.4791966,39.0252101 20.6367288,38.5492929 L22.0545194,26.651363 L18.4312769,26.651363 L19.8490674,38.5492929 L19.8490674,38.5492929 L19.8490674,38.5492929 Z M23.3147776,25.8581677 L23.3147776,24.1131379 L17.1710187,24.1131379 L17.1710187,25.8581677 L23.3147776,25.8581677 L23.3147776,25.8581677 L23.3147776,25.8581677 Z M21.5819225,23.1613035 C29.3010043,23.4785817 29.9311334,16.3398237 29.9311334,13.6429596 C29.9311334,13.4843206 29.9311334,13.4843206 29.9311334,13.6429596 C29.7736011,14.2775159 28.6708752,16.1811847 25.8352941,17.4502972 C23.3147776,18.4021316 21.7394548,20.9403566 21.5819225,23.1613035 L21.5819225,23.1613035 L21.5819225,23.1613035 Z M20.7942611,22.6853863 C22.0545194,16.8157409 26.7804878,16.6571019 27.2530846,15.5466284 C27.8832138,13.8015987 26.6229555,10.6288174 26.307891,10.3115392 C26.307891,10.3115392 26.307891,10.3115392 26.1503587,10.3115392 C25.5202296,11.7392908 24.4175036,13.1670424 23.6298422,13.8015987 C22.6846485,14.594794 18.5888092,17.7675753 20.7942611,22.6853863 C20.6367288,22.8440254 20.7942611,22.6853863 20.7942611,22.6853863 L20.7942611,22.6853863 Z M19.8490674,23.0026645 C17.1710187,17.4502972 22.5271162,13.8015987 23.3147776,13.0084034 C23.4723099,12.8497643 23.4723099,12.8497643 23.4723099,12.6911252 C23.4723099,10.9460955 22.5271162,8.09059233 22.2120516,7.61467514 L22.0545194,7.61467514 C21.5819225,9.35970486 19.2189383,11.8979299 18.7463415,12.5324862 C14.6505022,17.2916581 15.5956958,20.3058004 19.8490674,23.0026645 L19.8490674,23.0026645 L19.8490674,23.0026645 Z M18.7463415,23.1613035 C14.3354376,20.4644394 14.8080344,16.8157409 16.6984218,14.1188768 L16.6984218,13.8015987 C16.6984218,13.1670424 15.9107604,11.4220127 15.5956958,11.1047346 C15.5956958,10.9460955 15.4381636,10.9460955 15.4381636,11.1047346 C15.4381636,11.8979299 14.4929699,13.8015987 13.2327116,15.8639065 C11.9724534,18.0848535 11.9724534,23.0026645 18.7463415,23.1613035 L18.7463415,23.1613035 L18.7463415,23.1613035 Z" id="Shape"></path>
                </g>
                <g id="logo--dish" transform="translate(156.000000, 84.000000)">
                    <path d="M47.5400981,20.8674265 C47.5400981,25.4794301 50.9684706,27.7476287 54.7015873,29.864614 L58.0537737,31.7547794 C59.882239,32.8132721 60.7202856,33.9473713 60.7202856,35.5351103 C60.7202856,37.6520956 59.1965645,38.9374081 56.6824247,38.9374081 C52.1112614,38.9374081 50.6637264,35.1570772 49.9780519,31.4523529 L49.8256798,30.8475 L47.5400981,30.8475 L47.5400981,41.2812132 L49.2923774,41.2812132 L49.5209355,41.0543934 C49.9018658,40.6007537 49.9018658,40.6007537 50.2827961,40.6007537 C50.9684706,40.6007537 51.8065172,40.7519669 52.8731219,40.9787868 C54.1682849,41.2812132 55.5396339,41.5836397 57.063355,41.5836397 C60.8726577,41.5836397 66.2056815,39.0130147 66.2056815,33.418125 C66.2056815,29.4865809 63.8439138,27.7476287 60.9488437,26.0086765 L54.6254012,22.3039522 C53.1778662,21.4722794 52.4921917,20.3381801 52.4921917,18.8260478 C52.4921917,17.6163419 53.4826104,15.8017831 56.1491223,15.8017831 C58.1299597,15.8017831 60.6440995,16.5578493 61.8630764,22.3039522 L62.0154485,22.9088051 L64.2248441,22.9088051 L63.9200999,13.5335846 L62.1678206,13.5335846 L61.9392624,13.9116176 C61.8630764,14.0628309 61.7107043,14.2140441 61.5583322,14.2140441 C61.4821461,14.2140441 60.9488437,14.0628309 60.6440995,13.9872243 C59.5013087,13.6091912 57.8252155,13.0799449 56.1491223,13.0799449 C51.1970287,13.0043382 47.5400981,16.3310294 47.5400981,20.8674265" id="path20"></path>
                    <path d="M6.62818676,26.0842831 C6.62818676,18.6748346 10.1327453,16.0286029 13.1040014,16.0286029 C16.3800018,16.0286029 18.3608392,18.7504412 18.3608392,21.3966728 L18.3608392,34.2497978 C17.9799089,35.9131434 16.0752575,37.1228493 13.942048,37.1228493 C10.5898616,37.1984559 6.62818676,34.2497978 6.62818676,26.0842831 L6.62818676,26.0842831 L6.62818676,26.0842831 Z M23.693863,0.151213235 L23.5414909,0.226819853 L23.5414909,0.226819853 C22.3987001,0.529246324 18.2846531,1.89016544 15.0086528,2.72183824 L14.4753504,2.87305147 L14.4753504,5.14125 L15.2372109,5.06564338 C17.0656762,4.83882353 17.8275368,5.14125 18.056095,5.36806985 C18.3608392,5.67049632 18.3608392,6.19974265 18.3608392,7.10702206 L18.3608392,14.8188971 C16.684746,13.6091912 15.0086528,13.0799449 12.9516293,13.0799449 C9.67562894,13.0799449 6.32344254,14.7432904 3.96167484,17.6163419 C1.52372109,20.4137868 0.152372109,24.1941176 0.152372109,27.9744485 C0.152372109,41.2812132 10.2851174,41.6592463 11.5040943,41.6592463 C14.3229783,41.6592463 16.684746,40.7519669 18.4370252,39.0886213 L18.4370252,41.13 L19.2750718,41.7348529 L28.6459566,38.4081618 L28.6459566,36.2155699 L27.884096,36.2911765 C26.0556307,36.4423897 25.3699562,36.1399632 25.065212,35.9131434 C24.7604678,35.6863235 24.7604678,35.2326838 24.7604678,34.4766176 L24.7604678,0.453639706 L23.693863,0.151213235 L23.693863,0.151213235 L23.693863,0.151213235 L23.693863,0.151213235 Z" id="path22"></path>
                    <path d="M93.8612194,38.7861949 C91.2708935,38.3325551 90.9661493,38.2569485 90.9661493,34.5522243 L90.9661493,22.9088051 C90.9661493,16.3310294 88.2996374,13.0043382 83.1189856,13.0043382 C80.1477295,13.0043382 77.4812176,14.2896507 75.271822,16.6334559 L75.271822,0.604852941 L74.2814033,0 L74.2052173,0 L73.9766591,0.226819853 C72.7576822,0.756066176 67.9579608,2.11698529 65.8247512,2.72183824 L65.2914489,2.87305147 L65.2914489,5.14125 L66.1294955,5.06564338 C66.5866118,4.99003676 66.9675421,4.99003676 67.5008444,4.99003676 C68.0341468,4.99003676 68.4150771,5.06564338 68.6436353,5.29246324 C69.0245655,5.67049632 69.0245655,6.4265625 69.0245655,6.95580882 L69.0245655,7.18262868 L69.0245655,34.3254044 C69.0245655,38.0301287 68.7960074,38.3325551 65.9771233,38.6349816 L65.2152628,38.7861949 L65.2152628,41.0543934 L78.7001945,41.0543934 L78.7001945,38.7861949 L78.5478224,38.7861949 C75.9574965,38.4837684 75.271822,38.4081618 75.271822,34.5522243 L75.271822,20.7918199 C75.5765662,20.4137868 78.01452,17.6163419 80.9095901,17.6163419 C83.4999159,17.6163419 84.6427067,19.3552941 84.6427067,23.2112316 L84.6427067,34.6278309 C84.6427067,38.1813419 84.0332183,38.6349816 81.3667064,38.7861949 L81.2905203,38.7861949 L81.2905203,41.0543934 L94.4707078,41.0543934 L94.4707078,38.8618015 L93.8612194,38.7861949" id="path24"></path>
                    <path d="M38.0168413,40.5251471 C42.4356325,40.5251471 44.7212141,37.9545221 46.3211212,34.9302574 C46.3973073,34.7034375 46.3211212,34.6278309 46.1687491,34.7034375 C45.0259583,35.2326838 41.9023301,36.6692096 38.0930273,36.6692096 C34.2837246,36.6692096 31.1600964,35.2326838 30.0173055,34.7034375 C29.7887474,34.6278309 29.7125613,34.7790441 29.8649334,34.9302574 C31.3124685,37.9545221 33.5218641,40.5251471 38.0168413,40.5251471" id="path28"></path>
                    <path d="M31.4648406,27.5964154 C32.6838175,29.9402206 34.4360967,32.0572059 37.9406552,32.0572059 C41.4452137,32.0572059 43.197493,30.0158272 44.4164699,27.5964154 C44.4926559,27.4452022 44.4164699,27.293989 44.2640978,27.3695956 C43.5022372,27.7476287 41.0642835,28.8061213 37.9406552,28.8061213 C34.817027,28.8061213 32.3790732,27.7476287 31.6172127,27.3695956 C31.4648406,27.293989 31.3886545,27.4452022 31.4648406,27.5964154" id="path30"></path>
                    <path d="M33.1409338,20.8674265 C34.0551664,22.6063787 35.3503294,24.1941176 38.0168413,24.1941176 C40.6833532,24.1941176 41.9785161,22.6063787 42.8927488,20.8674265 C42.9689348,20.7162132 42.8927488,20.6406066 42.7403767,20.7162132 C42.2832603,20.8674265 40.454795,21.6990993 38.0168413,21.6990993 C35.5788875,21.6990993 33.6742362,20.9430331 33.2933059,20.7162132 C33.1409338,20.6406066 33.0647477,20.7918199 33.1409338,20.8674265" id="path32"></path>
                    <path d="M38.0168413,16.9358824 C39.8453066,16.9358824 40.7595393,15.7261765 41.3690277,14.5920772 C41.4452137,14.5164706 41.3690277,14.440864 41.2166556,14.440864 C41.1404695,14.440864 39.8453066,14.9701103 38.0168413,14.9701103 C36.188376,14.9701103 34.893213,14.5164706 34.817027,14.440864 C34.6646549,14.3652574 34.6646549,14.5164706 34.6646549,14.5920772 C35.2741433,15.7261765 36.1121899,16.9358824 38.0168413,16.9358824" id="path34"></path>
                    <path d="M32.6076314,5.06564338 C32.6076314,2.26819853 34.893213,0 37.7120971,0 C40.5309811,0 42.8165627,2.26819853 42.8165627,5.06564338 C42.8165627,7.86308824 40.5309811,10.1312868 37.7120971,10.1312868 C34.893213,10.1312868 32.6076314,7.86308824 32.6076314,5.06564338" id="path36"></path>
                </g>
                <g id="logo--zendesk" transform="translate(292.000000, 84.000000)">
                    <path d="M34.6194587,23.9065382 C32.9427328,24.8903464 31.068745,25.2838696 29.1947572,25.2838696 C28.011186,25.2838696 26.8276147,25.087108 25.8413054,24.6935848 C23.9673176,26.3660586 21.9946988,27.5466284 21.0083895,28.0385325 C22.4878535,30.3012912 24.7563651,32.0721459 27.5180313,32.7608116 C28.4057097,32.9575733 29.2933881,33.0559541 30.0824356,33.0559541 C32.0550543,33.0559541 33.8304112,32.56405 35.4085062,31.6786227 C35.6057681,30.7931953 35.8030299,29.8093872 35.8030299,28.9239598 C35.9016609,27.251486 35.5071371,25.4806313 34.6194587,23.9065382" id="Fill-1"></path>
                    <path d="M32.3509472,10.2316048 C32.0550543,12.3959828 31.068745,14.3635991 29.7865428,15.7409305 C29.8851737,16.1344538 29.8851737,16.527977 29.8851737,17.0198811 C29.8851737,19.5777823 28.6029716,21.7421603 26.9262457,23.513015 C27.4194003,23.6113958 27.912555,23.6113958 28.3070788,23.6113958 C30.6742212,23.6113958 32.9427328,22.8243493 35.0139824,21.348637 C37.282494,19.5777823 38.6633271,17.0198811 39.0578508,14.3635991 C37.4797559,12.297602 35.2112443,10.8218897 32.7454709,10.2316048 C32.64684,10.2316048 32.548209,10.2316048 32.3509472,10.2316048 L32.3509472,10.2316048" id="Fill-3"></path>
                    <path d="M30.6742212,8.36236934 C30.6742212,5.41094487 29.49065,2.75466284 27.7152931,0.885427342 L27.5180313,0.885427342 C24.9536269,0.885427342 22.6851154,1.77085468 20.6138657,3.64009018 C22.5864844,5.70608731 23.276901,8.36236934 23.276901,11.0186514 L23.276901,11.6089363 C23.6714248,11.5105554 24.1645794,11.4121746 24.5591032,11.4121746 L24.6577341,11.4121746 C26.33446,11.4121746 28.011186,12.297602 28.9974953,13.871695 C30.0824356,12.3959828 30.6742212,10.4283665 30.6742212,8.36236934" id="Fill-4"></path>
                    <path d="M11.1452958,1.08218897 L10.7507721,1.08218897 C8.97541522,3.04980529 7.89047492,5.6077065 7.89047492,8.36236934 L7.89047492,8.46075015 L8.28499866,8.46075015 C11.2439268,8.46075015 14.005593,9.64131994 15.8795808,11.5105554 C17.4576758,11.6089363 19.1344017,12.4943636 20.0220801,14.1668375 C20.5152348,13.2814101 21.2056513,12.5927444 21.8960679,12.1992212 L21.8960679,11.8056979 C21.8960679,8.85427342 20.6138657,5.80446813 18.2467232,3.738471 C16.2741045,1.96761631 13.7097002,1.08218897 11.1452958,1.08218897" id="Fill-5"></path>
                    <path d="M14.2028549,11.7073171 C12.6247599,10.7235089 10.7507721,10.2316048 8.77815334,10.2316048 C8.18636773,10.2316048 7.49595117,10.3299857 6.90416555,10.4283665 C3.94523746,10.9202705 1.57809498,12.4943636 0,14.6587415 C0.394523746,17.3150236 1.77535686,19.774544 4.04386839,21.4470178 C5.62196338,19.2826399 7.98910585,17.8069276 10.2576174,17.4134044 L10.2576174,17.0198811 C10.2576174,14.0684567 12.1316052,12.1992212 14.2028549,11.7073171" id="Fill-7"></path>
                    <path d="M4.63565401,23.9065382 C3.74797559,25.4806313 3.35345184,27.251486 3.35345184,29.0223406 C3.35345184,30.0061488 3.45208278,31.0883378 3.74797559,31.9737651 C5.32607057,32.8591925 7.10142743,33.3510965 8.97541522,33.3510965 C9.86309365,33.3510965 10.7507721,33.2527157 11.6384505,33.0559541 C11.3425577,32.0721459 11.2439268,31.0883378 11.2439268,30.1045296 C11.2439268,27.74339 11.9343433,25.5790121 13.3151764,23.7097766 C12.0329742,22.3324452 10.9480339,20.7583521 10.5535102,18.8891166 C8.08773679,19.6761631 5.91785619,21.4470178 4.63565401,23.9065382" id="Fill-8"></path>
                    <path d="M19.7261873,39.5490879 C22.1919607,38.466899 24.1645794,36.5976635 25.3481507,33.9413814 C22.5864844,32.7608116 20.5152348,30.5964337 19.5289254,28.1369133 C18.641247,27.6450092 16.3727355,26.3660586 14.3014858,24.4968231 C13.5124383,26.0709162 13.1179145,27.74339 13.1179145,29.5142447 C13.1179145,30.989957 13.4138074,32.4656692 14.1042239,33.9413814 C15.0905333,36.5976635 17.2604139,38.5652798 19.7261873,39.5490879" id="Fill-10"></path>
                    <path d="M54.6415388,26.3660586 L45.1729689,37.5814716 L53.3593366,37.5814716 C54.2470151,37.5814716 54.9374316,38.2701373 54.9374316,39.1555647 C54.9374316,40.040992 54.2470151,40.8280385 53.3593366,40.8280385 L41.4249933,40.8280385 C40.6359458,40.8280385 39.7482674,40.040992 39.7482674,39.1555647 C39.7482674,38.7620414 39.9455293,38.2701373 40.1427911,37.9749949 L49.5127301,26.7595819 L41.4249933,26.7595819 C40.5373149,26.7595819 39.7482674,25.9725354 39.7482674,25.087108 C39.7482674,24.2016807 40.5373149,23.513015 41.4249933,23.513015 L53.0634438,23.513015 C54.1483841,23.513015 54.9374316,24.3984423 54.9374316,25.2838696 C55.0360625,25.6773929 54.8388007,26.0709162 54.6415388,26.3660586" id="Fill-12"></path>
                    <path d="M66.1813584,26.2676778 C63.5183231,26.2676778 61.6443353,28.0385325 61.2498115,30.5964337 L71.0142743,30.5964337 C70.7183814,28.1369133 68.8443936,26.2676778 66.1813584,26.2676778 L66.1813584,26.2676778 L66.1813584,26.2676778 Z M73.5786786,33.3510965 C73.5786786,33.3510965 73.5786786,33.3510965 61.2498115,33.3510965 C61.4470734,36.0073786 63.616954,38.0733757 66.4772512,38.0733757 C68.5485008,38.0733757 70.2252268,37.1879484 71.7046908,35.9089977 C72.0005836,35.6138553 72.2964764,35.5154745 72.6910002,35.5154745 C73.1841549,35.5154745 73.6773095,35.7122361 73.9732023,36.2041402 C74.1704642,36.4992826 74.2690952,36.7944251 74.2690952,37.0895675 C74.2690952,37.4830908 74.0718333,37.9749949 73.6773095,38.3685181 C72.0005836,40.1393728 69.1402865,41.3199426 66.3786202,41.3199426 C61.3484425,41.3199426 57.2059431,37.2863292 57.2059431,32.1705267 C57.2059431,27.0547243 61.1511806,23.0211109 66.1813584,23.0211109 C71.2115361,23.0211109 74.9595117,26.9563435 74.9595117,32.0721459 C74.9595117,32.8591925 74.2690952,33.3510965 73.5786786,33.3510965 L73.5786786,33.3510965 L73.5786786,33.3510965 Z" id="Fill-13"></path>
                    <path d="M107.014566,26.4644394 C103.858376,26.4644394 101.787126,29.0223406 101.787126,32.1705267 C101.787126,35.3187129 103.858376,37.8766141 107.014566,37.8766141 C110.170756,37.8766141 112.242006,35.4170937 112.242006,32.1705267 C112.242006,28.9239598 110.269387,26.4644394 107.014566,26.4644394 L107.014566,26.4644394 L107.014566,26.4644394 Z M114.214624,41.123181 C113.129684,41.123181 112.242006,40.2377536 112.242006,39.1555647 L112.242006,38.2701373 C111.157065,40.2377536 108.987185,41.3199426 106.521411,41.3199426 C101.491234,41.3199426 97.841889,37.38471 97.841889,32.1705267 C97.841889,26.9563435 101.293972,23.0211109 106.521411,23.0211109 C109.085816,23.0211109 111.255696,24.3000615 112.242006,26.0709162 L112.242006,15.7409305 C112.242006,14.6587415 113.129684,13.7733142 114.214624,13.7733142 C115.299565,13.7733142 116.187243,14.6587415 116.187243,15.7409305 L116.187243,39.1555647 C116.187243,40.2377536 115.299565,41.123181 114.214624,41.123181 L114.214624,41.123181 L114.214624,41.123181 Z" id="Fill-14"></path>
                    <path d="M128.713372,26.2676778 C126.050337,26.2676778 124.176349,28.0385325 123.781825,30.5964337 L133.546288,30.5964337 C133.250395,28.1369133 131.277776,26.2676778 128.713372,26.2676778 L128.713372,26.2676778 L128.713372,26.2676778 Z M136.012061,33.3510965 C136.012061,33.3510965 136.012061,33.3510965 123.683194,33.3510965 C123.880456,36.0073786 126.050337,38.0733757 128.910634,38.0733757 C130.981884,38.0733757 132.65861,37.1879484 134.138074,35.9089977 C134.433966,35.6138553 134.729859,35.5154745 135.124383,35.5154745 C135.617538,35.5154745 136.110692,35.7122361 136.406585,36.2041402 C136.603847,36.4992826 136.702478,36.7944251 136.702478,37.0895675 C136.702478,37.4830908 136.505216,37.9749949 136.110692,38.3685181 C134.433966,40.1393728 131.573669,41.3199426 128.812003,41.3199426 C123.781825,41.3199426 119.639326,37.2863292 119.639326,32.1705267 C119.639326,27.0547243 123.584563,23.0211109 128.614741,23.0211109 C133.644919,23.0211109 137.392894,26.9563435 137.392894,32.0721459 C137.392894,32.8591925 136.801109,33.3510965 136.012061,33.3510965 L136.012061,33.3510965 L136.012061,33.3510965 Z" id="Fill-15"></path>
                    <path d="M147.157357,41.3199426 C145.184738,41.3199426 142.620334,40.6312769 140.746346,39.5490879 C140.154561,39.1555647 139.760037,38.6636606 139.760037,38.0733757 C139.760037,37.8766141 139.858668,37.6798524 139.957299,37.4830908 C140.154561,36.8928059 140.647715,36.5976635 141.239501,36.5976635 C141.436763,36.5976635 141.831287,36.6960443 142.028549,36.7944251 C143.508013,37.6798524 145.184738,38.1717565 146.960095,38.1717565 C148.932714,38.1717565 151.003964,37.5814716 151.003964,36.0073786 C151.003964,34.8268088 149.919023,34.3349047 145.875155,32.9575733 C142.521703,31.7770035 140.746346,30.3012912 140.746346,27.8417709 C140.746346,24.8903464 143.705274,23.0211109 147.551881,23.0211109 C150.214916,23.0211109 151.891642,23.6113958 153.568368,24.3984423 C154.258785,24.6935848 154.653308,25.2838696 154.653308,25.8741545 C154.653308,26.0709162 154.653308,26.2676778 154.554677,26.4644394 C154.357416,27.0547243 153.666999,27.5466284 153.075213,27.5466284 C152.877952,27.5466284 152.68069,27.5466284 152.483428,27.4482476 C151.003964,26.7595819 149.5245,26.3660586 147.946405,26.3660586 C145.875155,26.3660586 144.494322,26.8579627 144.494322,28.1369133 C144.494322,29.4158639 145.480631,29.7110064 148.53819,30.6948145 C152.187535,31.8753843 154.751939,33.1543349 154.751939,36.1057594 C154.653308,38.8604222 151.990273,41.3199426 147.157357,41.3199426" id="Fill-16"></path>
                    <path d="M172.505508,41.123181 C172.012353,41.123181 171.420568,40.9264193 171.124675,40.5328961 L164.516402,33.0559541 L162.543783,34.6300471 L162.543783,39.2539455 C162.543783,40.3361345 161.656105,41.2215618 160.669795,41.2215618 C159.584855,41.2215618 158.795808,40.3361345 158.795808,39.2539455 L158.795808,15.7409305 C158.795808,14.6587415 159.683486,13.7733142 160.669795,13.7733142 C161.754736,13.7733142 162.543783,14.6587415 162.543783,15.7409305 L162.543783,29.907768 L170.828782,23.513015 C171.124675,23.3162533 171.519199,23.1194917 171.913722,23.1194917 C172.505508,23.1194917 172.900032,23.4146341 173.294555,23.8081574 C173.491817,24.1032999 173.689079,24.4968231 173.689079,24.8903464 C173.689079,25.4806313 173.393186,25.9725354 172.998663,26.2676778 L167.376699,30.6948145 L173.78771,38.0733757 C174.083603,38.3685181 174.182234,38.8604222 174.182234,39.2539455 C174.280865,40.3361345 173.491817,41.0248002 172.505508,41.123181" id="Fill-17"></path>
                    <path d="M86.5979622,22.9227301 C82.0609391,22.9227301 78.3129635,26.4644394 78.3129635,31.1867186 L78.3129635,39.3523263 C78.3129635,40.4345153 79.200642,41.3199426 80.2855823,41.3199426 C81.3705226,41.3199426 82.258201,40.4345153 82.258201,39.3523263 L82.258201,31.2850994 C82.258201,28.5304366 83.7376651,26.4644394 86.5979622,26.4644394 C89.4582594,26.5628203 90.9377234,28.6288174 90.9377234,31.2850994 L90.9377234,39.3523263 C90.9377234,40.4345153 91.8254018,41.3199426 92.9103421,41.3199426 C93.9952824,41.3199426 94.8829609,40.4345153 94.8829609,39.3523263 L94.8829609,31.1867186 C94.7843299,26.4644394 91.0363544,22.9227301 86.5979622,22.9227301" id="Fill-18"></path>
                </g>
                <g id="logo--fiftythree" transform="translate(508.000000, 74.000000)">
                    <path d="M30.9561428,61.9110473 C13.8857193,61.9110473 0,48.023316 0,30.9544402 C0,13.8857193 13.8855645,0 30.9561428,0 C48.0251733,0 61.9110473,13.8857193 61.9110473,30.9544402 C61.9110473,48.023316 48.0251733,61.9110473 30.9561428,61.9110473 L30.9561428,61.9110473 Z M30.9561428,2.12169159 C15.0559928,2.12169159 2.12262026,15.0542903 2.12262026,30.9542855 C2.12262026,46.8528876 15.0559928,59.7881175 30.9561428,59.7881175 C46.8531972,59.7881175 59.787808,46.8530424 59.787808,30.9542855 C59.787808,15.0542903 46.853352,2.12169159 30.9561428,2.12169159 L30.9561428,2.12169159 Z" id="Shape"></path>
                    <path d="M14.3865796,25.109573 C13.7998177,25.109573 13.3237217,24.6347153 13.3237217,24.0457865 L13.3237217,18.4824597 C13.3237217,17.8964717 13.7998177,17.4216139 14.3865796,17.4216139 L28.0252738,17.4216139 C28.6120358,17.4216139 29.0876674,17.8964717 29.0876674,18.4824597 C29.0876674,19.0704599 28.6120358,19.5454724 28.0252738,19.5454724 L15.4475802,19.5454724 L15.4475802,24.0459412 C15.4475802,24.6347153 14.9697817,25.109573 14.3865796,25.109573 L14.3865796,25.109573 Z" id="Shape"></path>
                    <path d="M20.4662445,46.0983467 C17.8851729,46.0983467 15.460272,45.0907444 13.6349795,43.2705597 C13.2200207,42.852041 13.2200207,42.18108 13.6349795,41.7645734 C14.050867,41.3544127 14.7216732,41.3544127 15.1381797,41.7645734 C18.0744659,44.7084437 22.8541536,44.7084437 25.7960118,41.7645734 C28.7333814,38.8299898 28.7302859,34.0489092 25.7922971,31.1064319 C22.8541536,28.1724673 18.0744659,28.1724673 15.1381797,31.1064319 C14.7215184,31.5224741 14.0507122,31.5224741 13.6349795,31.1064319 C13.2200207,30.6928661 13.2200207,30.0195834 13.6349795,29.6074106 C15.460272,27.7825825 17.8851729,26.7803974 20.4662445,26.7803974 C23.0453039,26.7803974 25.4719074,27.7825825 27.2970451,29.6074106 C31.0618559,33.3760908 31.0618559,39.5028081 27.2970451,43.2705597 C25.4720622,45.0905897 23.0453039,46.0983467 20.4662445,46.0983467 L20.4662445,46.0983467 Z" id="Shape"></path>
                    <path d="M39.6843622,46.0983467 C37.1045289,46.0983467 34.6802471,45.0907444 32.8524782,43.2705597 C32.4418531,42.852041 32.4418531,42.18108 32.8524782,41.7645734 C33.2696038,41.3544127 33.9427317,41.3544127 34.3583096,41.7645734 C35.7810255,43.1914683 37.6734914,43.9743335 39.6843622,43.9743335 C41.6977095,43.9743335 43.5898659,43.1913135 45.0155225,41.7645734 C47.9511896,38.8299898 47.9511896,34.0489092 45.0155225,31.1064319 C44.6491639,30.7422401 44.2366815,30.4120995 43.8053163,30.1251418 C43.3132783,29.8042877 43.1761453,29.1423039 43.4994758,28.6558378 C43.8214132,28.1651928 44.4782894,28.0289885 44.9666128,28.3513902 C45.5236574,28.7166654 46.0423172,29.1390535 46.5151629,29.6074106 C50.2801284,33.3760908 50.2801284,39.5028081 46.5151629,43.2705597 C44.6897156,45.0905897 42.2629574,46.0983467 39.6843622,46.0983467 L39.6843622,46.0983467 Z" id="Shape"></path>
                    <path d="M36.4242813,31.6967537 C36.1546587,31.6967537 35.8805475,31.5924336 35.6731455,31.3873532 C35.2578771,30.9736327 35.2578771,30.3018978 35.6695856,29.8849269 L45.9480577,19.5454724 L32.503919,19.5454724 C31.9134424,19.5454724 31.4416802,19.0704599 31.4416802,18.4824597 C31.4416802,17.8964717 31.9134424,17.4216139 32.503919,17.4216139 L48.4992572,17.4216139 C48.9267529,17.4216139 49.31509,17.6786996 49.4783804,18.0763233 C49.644302,18.4722444 49.5528284,18.9262072 49.2544172,19.2352981 L37.1761909,31.3800787 C36.9711106,31.5901119 36.6963803,31.6967537 36.4242813,31.6967537 L36.4242813,31.6967537 Z" id="Shape"></path>
                </g>
            </g>
        </g>
    </g>
</svg>