<?xml version="1.0" encoding="utf-8"?>
<!-- Generator: Adobe Illustrator 19.2.1, SVG Export Plug-In . SVG Version: 6.00 Build 0)  -->
<svg version="1.1" id="Layer_1" xmlns="http://www.w3.org/2000/svg" xmlns:xlink="http://www.w3.org/1999/xlink" x="0px" y="0px"
	 viewBox="0 0 79.3 30" style="enable-background:new 0 0 79.3 30;" xml:space="preserve">
<style type="text/css">
	.st0{fill:#57068C;}
	.st1{fill:#FFFFFF;}
</style>
<g>
	<g>
		<path class="st0" d="M34,7.2h3.1l7.2,9.4V7.2h3.3v15.3h-2.9l-7.4-9.7v9.7H34V7.2z"/>
		<path class="st0" d="M55.2,16.5l-5.9-9.3h3.9l3.7,6.2l3.7-6.2h3.8l-5.9,9.2v6.1h-3.4v-6H55.2z"/>
		<path class="st0" d="M65.9,16V7.2h3.4v8.7c0,2.5,1.2,3.8,3.3,3.8c2.1,0,3.3-1.2,3.3-3.7V7.2h3.4v8.7c0,4.6-2.6,6.9-6.7,6.9
			C68.4,22.8,65.9,20.5,65.9,16z"/>
	</g>
	<g>
		<rect x="2.9" y="3.4" class="st1" width="20.2" height="23.3"/>
		<path class="st0" d="M27,28.5H0v-27h27V28.5L27,28.5z M12.6,25.3c0,0.2,0.4,0.3,0.5,0l0.9-7.5h-2.3L12.6,25.3L12.6,25.3z
			 M14.8,17.3v-1.1h-3.9v1.1H14.8L14.8,17.3z M13.7,15.6c4.9,0.2,5.3-4.3,5.3-6c0-0.1,0-0.1,0,0c-0.1,0.4-0.8,1.6-2.6,2.4
			C14.8,12.6,13.8,14.2,13.7,15.6L13.7,15.6z M13.2,15.3c0.8-3.7,3.8-3.8,4.1-4.5c0.4-1.1-0.4-3.1-0.6-3.3c0,0,0,0-0.1,0
			c-0.4,0.9-1.1,1.8-1.6,2.2C14.4,10.2,11.8,12.2,13.2,15.3C13.1,15.4,13.2,15.3,13.2,15.3z M12.6,15.5c-1.7-3.5,1.7-5.8,2.2-6.3
			c0.1-0.1,0.1-0.1,0.1-0.2c0-1.1-0.6-2.9-0.8-3.2H14c-0.3,1.1-1.8,2.7-2.1,3.1C9.3,11.9,9.9,13.8,12.6,15.5
			C12.6,15.5,12.7,15.5,12.6,15.5z M11.9,15.6c-2.8-1.7-2.5-4-1.3-5.7c0,0,0-0.1,0-0.2c0-0.4-0.5-1.5-0.7-1.7c0-0.1-0.1-0.1-0.1,0
			c0,0.5-0.6,1.7-1.4,3C7.6,12.4,7.6,15.5,11.9,15.6L11.9,15.6z"/>
	</g>
</g>
</svg>
