<?xml version="1.0" encoding="UTF-8" standalone="no"?>
<svg width="235px" height="42px" viewBox="0 0 235 42" version="1.1" xmlns="http://www.w3.org/2000/svg" xmlns:xlink="http://www.w3.org/1999/xlink">
    <!-- Generator: Sketch 3.8.1 (29687) - http://www.bohemiancoding.com/sketch -->
    <title>coffeescript</title>
    <desc>Created with Sketch.</desc>
    <defs></defs>
    <g id="scratch" stroke="none" stroke-width="1" fill="none" fill-rule="evenodd">
        <g id="coffeescript" fill="#28334C">
            <path d="M39.3704348,13.02 C35.5356522,13.7858824 30.4226087,14.5517647 24.2869565,14.5517647 C17.8956522,14.5517647 12.7826087,13.7858824 8.94782609,13.02 C5.11304348,12.2541176 3.32347826,11.2329412 2.55652174,9.95647059 C2.81217391,12.2541176 3.57913043,14.5517647 4.34608696,16.5941176 C3.57913043,17.36 2.55652174,18.1258824 2.04521739,18.8917647 C0.511304348,20.6788235 0,22.7211765 0,24.7635294 C0,26.8058824 1.27826087,28.5929412 2.55652174,29.8694118 C4.34608696,31.1458824 5.88,31.4011765 8.18086957,31.1458824 C8.94782609,30.8905882 9.71478261,30.6352941 10.4817391,30.38 C8.94782609,30.38 7.41391304,29.8694118 5.88,28.8482353 C4.34608696,27.5717647 3.32347826,26.2952941 3.06782609,24.2529412 C2.55652174,22.4658824 3.06782609,20.6788235 4.09043478,19.4023529 C4.60173913,18.8917647 4.8573913,18.6364706 5.11304348,18.6364706 C5.62434783,19.9129412 6.39130435,21.1894118 6.9026087,22.4658824 C8.43652174,24.7635294 9.97043478,26.8058824 11.5043478,28.8482353 C12.0156522,30.1247059 12.7826087,31.4011765 12.7826087,32.6776471 C13.8052174,33.9541176 15.3391304,34.9752941 17.1286957,35.4858824 C19.173913,36.2517647 21.7304348,36.5070588 23.7756522,36.5070588 L24.0313043,36.5070588 C26.3321739,36.5070588 28.6330435,36.2517647 31.1895652,35.4858824 C32.7234783,34.9752941 34.2573913,33.9541176 35.28,32.6776471 L35.28,32.6776471 C35.5356522,31.4011765 35.7913043,30.1247059 36.5582609,28.8482353 C38.0921739,26.8058824 39.626087,24.7635294 41.16,22.4658824 C43.2052174,18.6364706 44.4834783,14.5517647 45.2504348,10.2117647 C44.7391304,11.2329412 42.693913,12.2541176 39.3704348,13.02 L39.3704348,13.02 Z" id="Shape"></path>
            <path d="M8.94782609,9.95647059 C12.7826087,10.9776471 17.8956522,11.2329412 24.0313043,11.2329412 C30.4226087,11.2329412 35.28,10.7223529 39.1147826,9.70117647 C43.2052174,8.68 45.506087,7.40352941 45.506087,6.12705882 C45.506087,5.36117647 44.4834783,4.34 42.9495652,3.82941176 C43.2052174,4.08470588 43.4608696,4.59529412 43.4608696,4.85058824 C43.4608696,6.12705882 41.4156522,7.14823529 37.8365217,7.91411765 C34.2573913,8.68 29.6556522,9.19058824 24.2869565,9.19058824 C18.9182609,9.19058824 14.3165217,8.68 10.7373913,7.91411765 C6.9026087,7.40352941 5.11304348,6.12705882 5.11304348,4.85058824 C5.11304348,4.59529412 5.11304348,4.08470588 5.88,3.57411765 C3.83478261,4.34 2.55652174,5.10588235 2.55652174,6.12705882 C2.55652174,7.40352941 4.60173913,8.68 8.94782609,9.95647059 L8.94782609,9.95647059 Z" id="Shape"></path>
            <path d="M18.1513043,5.61647059 C22.4973913,5.36117647 23.52,2.55294118 28.6330435,2.04235294 C31.1895652,1.78705882 32.7234783,2.29764706 32.9791304,3.06352941 C33.2347826,3.82941176 31.9565217,4.34 30.4226087,4.59529412 C28.3773913,4.85058824 27.6104348,4.08470588 27.3547826,3.31882353 C25.5652174,3.57411765 25.3095652,4.34 25.5652174,4.85058824 C25.8208696,5.61647059 27.6104348,6.63764706 30.933913,6.38235294 C34.5130435,6.12705882 35.7913043,4.59529412 35.5356522,3.31882353 C35.28,1.53176471 32.4678261,-6.73433531e-13 27.3547826,0.255294118 C20.7078261,0.765882353 20.7078261,3.57411765 16.3617391,4.08470588 C14.5721739,4.08470588 13.5495652,3.82941176 13.5495652,3.06352941 C13.293913,2.29764706 14.3165217,2.04235294 15.3391304,1.78705882 C16.3617391,1.78705882 17.3843478,1.78705882 17.8956522,2.04235294 C18.4069565,1.78705882 18.4069565,1.53176471 18.4069565,1.53176471 C18.4069565,1.02117647 16.8730435,0.765882353 15.3391304,0.765882353 C12.0156522,1.02117647 12.0156522,2.55294118 12.2713043,3.31882353 C12.5269565,4.85058824 15.0834783,5.87176471 18.1513043,5.61647059 L18.1513043,5.61647059 Z" id="Shape"></path>
            <path d="M202.476522,10.9776471 C204.266087,10.9776471 205.544348,9.70117647 205.544348,7.91411765 C205.544348,6.12705882 204.266087,4.85058824 202.476522,4.85058824 C200.686957,5.10588235 199.408696,6.38235294 199.408696,8.16941176 C199.408696,9.70117647 200.686957,10.9776471 202.476522,10.9776471 L202.476522,10.9776471 Z" id="Shape"></path>
            <path d="M231.876522,13.02 C232.643478,9.70117647 233.154783,7.14823529 233.154783,7.14823529 L227.530435,7.91411765 L226.507826,13.02 L225.229565,13.02 L224.973913,14.5517647 L226.252174,14.5517647 L223.951304,25.7847059 C223.695652,26.5505882 223.695652,27.0611765 223.695652,27.8270588 C223.695652,30.1247059 224.718261,32.1670588 227.530435,32.1670588 C228.808696,32.1670588 230.342609,31.6564706 231.62087,28.5929412 L230.598261,28.5929412 C229.575652,28.5929412 229.32,28.0823529 229.32,27.3164706 C229.32,26.8058824 229.32,26.5505882 229.575652,26.04 L231.876522,14.8070588 L234.177391,14.8070588 L234.433043,13.2752941 L231.876522,13.2752941 L231.876522,13.02 Z" id="Shape"></path>
            <path d="M196.596522,15.8282353 C196.596522,14.2964706 195.573913,13.02 194.04,13.02 C192.250435,13.02 190.716522,14.2964706 189.438261,15.3176471 L189.949565,13.02 L184.58087,13.02 L182.024348,25.0188235 C180.234783,27.0611765 178.445217,28.8482353 175.377391,28.8482353 C173.587826,28.8482353 172.565217,28.3376471 172.565217,25.7847059 C172.565217,21.7 174.866087,14.8070588 177.422609,14.8070588 C178.189565,14.8070588 178.445217,15.3176471 178.445217,16.3388235 C178.445217,16.8494118 178.189565,17.6152941 177.933913,18.6364706 C178.445217,18.8917647 178.70087,19.1470588 179.212174,19.1470588 C180.234783,19.1470588 181.257391,18.1258824 181.257391,16.3388235 C181.257391,14.5517647 180.490435,13.02 177.166957,13.02 C169.497391,13.02 166.94087,21.9552941 167.196522,26.2952941 C167.196522,30.6352941 169.497391,32.1670588 173.076522,32.1670588 C176.911304,32.1670588 179.467826,30.1247059 181.513043,27.8270588 L180.746087,31.9117647 L186.114783,31.9117647 L189.182609,17.6152941 C190.205217,16.8494118 190.716522,16.0835294 191.994783,16.0835294 C193.273043,16.0835294 191.994783,18.6364706 194.295652,18.6364706 C195.829565,18.6364706 196.596522,17.1047059 196.596522,15.8282353 L196.596522,15.8282353 Z" id="Shape"></path>
            <path d="M218.326957,13.02 C216.537391,13.02 215.003478,13.7858824 213.98087,14.5517647 L214.492174,11.7435294 L209.123478,11.7435294 L206.311304,25.2741176 L206.311304,25.2741176 C205.8,27.0611765 204.266087,28.5929412 202.987826,28.5929412 C201.965217,28.5929412 201.453913,28.3376471 201.453913,27.3164706 C201.453913,27.0611765 201.453913,26.5505882 201.709565,26.04 L204.521739,13.2752941 L199.153043,13.2752941 L196.596522,25.2741176 C196.34087,26.2952941 196.34087,27.0611765 196.34087,27.8270588 C196.34087,30.8905882 198.130435,32.4223529 200.431304,32.4223529 C201.709565,32.4223529 204.010435,31.9117647 205.8,29.8694118 L203.243478,41.6129412 L208.867826,40.3364706 L210.913043,31.1458824 C211.424348,31.9117647 212.191304,32.4223529 213.98087,32.4223529 C221.394783,32.4223529 223.184348,24.2529412 223.184348,19.1470588 C222.928696,14.2964706 220.883478,13.02 218.326957,13.02 L218.326957,13.02 Z M212.446957,28.8482353 C211.68,28.8482353 211.168696,28.3376471 210.913043,28.0823529 L213.213913,17.6152941 C213.98087,16.3388235 215.003478,15.8282353 215.770435,15.8282353 C216.537391,15.8282353 217.56,16.0835294 217.56,18.8917647 C217.56,22.2105882 216.281739,28.8482353 212.446957,28.8482353 L212.446957,28.8482353 Z" id="Shape"></path>
            <path d="M119.645217,13.02 L115.810435,13.02 L116.577391,9.95647059 C117.088696,7.40352941 118.366957,6.89294118 119.133913,6.89294118 C119.90087,6.89294118 120.667826,7.40352941 120.667826,8.16941176 L120.667826,9.19058824 L122.457391,9.19058824 L122.457391,7.65882353 C122.457391,5.10588235 120.412174,3.57411765 118.111304,3.57411765 C116.577391,3.57411765 114.532174,4.08470588 112.998261,5.87176471 C112.231304,4.34 110.697391,3.57411765 108.907826,3.57411765 C106.351304,3.57411765 103.283478,4.59529412 102.005217,9.95647059 L100.215652,17.8705882 C99.1930435,18.3811765 98.1704348,18.6364706 97.1478261,18.6364706 L96.6365217,18.6364706 C96.8921739,14.8070588 95.3582609,12.7647059 92.0347826,12.7647059 C84.3652174,12.7647059 81.8086957,21.1894118 81.8086957,25.7847059 C80.0191304,27.5717647 77.7182609,28.8482353 75.1617391,28.8482353 C71.5826087,28.8482353 70.56,26.5505882 70.56,22.9764706 C70.56,15.3176471 74.1391304,5.36117647 78.4852174,5.36117647 C80.2747826,5.36117647 80.786087,6.38235294 80.786087,7.65882353 C80.786087,9.19058824 80.0191304,10.7223529 78.9965217,10.9776471 C79.7634783,11.7435294 80.5304348,11.9988235 81.0417391,11.9988235 C83.0869565,11.9988235 83.5982609,10.4670588 83.5982609,8.68 C83.5982609,5.10588235 80.786087,3.57411765 77.2069565,3.57411765 C67.4921739,3.57411765 64.1686957,16.3388235 64.1686957,23.2317647 C64.1686957,30.1247059 66.7252174,32.4223529 72.3495652,32.4223529 C75.1617391,32.4223529 79.2521739,31.1458824 81.8086957,27.8270588 C82.32,30.8905882 84.6208696,32.1670588 87.6886957,32.1670588 C92.2904348,32.1670588 96.1252174,27.8270588 96.6365217,20.9341176 C97.6591304,20.6788235 98.6817391,20.4235294 99.7043478,19.9129412 L97.1478261,31.6564706 C93.5686957,32.6776471 90.7565217,33.9541176 90.7565217,37.2729412 C90.7565217,39.8258824 92.8017391,41.3576471 95.1026087,41.3576471 C96.8921739,41.3576471 98.6817391,40.8470588 100.215652,39.06 C100.726957,40.5917647 102.26087,41.3576471 104.306087,41.3576471 C106.862609,41.3576471 109.930435,40.3364706 111.208696,34.9752941 L115.554783,14.8070588 L119.389565,14.8070588 L119.645217,13.02 L119.645217,13.02 Z M93.5686957,20.9341176 C93.0573913,25.2741176 91.0121739,28.8482353 89.2226087,28.8482353 C87.6886957,28.8482353 87.1773913,28.3376471 87.1773913,25.7847059 C87.1773913,22.2105882 89.4782609,15.3176471 92.2904348,15.3176471 C93.3130435,15.3176471 93.5686957,15.8282353 93.8243478,17.6152941 C93.0573913,17.8705882 92.546087,18.6364706 92.546087,19.6576471 C92.546087,19.9129412 92.8017391,20.6788235 93.5686957,20.9341176 L93.5686957,20.9341176 Z M96.8921739,34.9752941 C96.3808696,37.2729412 95.3582609,38.0388235 94.5913043,38.0388235 C93.8243478,38.0388235 93.0573913,37.2729412 93.0573913,36.7623529 C93.0573913,34.72 94.8469565,33.6988235 97.1478261,32.9329412 L96.8921739,34.9752941 L96.8921739,34.9752941 Z M105.84,34.9752941 C105.328696,37.2729412 104.306087,38.0388235 103.53913,38.0388235 C102.516522,38.0388235 101.749565,37.7835294 101.493913,37.2729412 C101.749565,36.7623529 102.005217,35.7411765 102.26087,34.9752941 L103.027826,31.6564706 L106.862609,30.8905882 L105.84,34.9752941 L105.84,34.9752941 Z M107.118261,29.8694118 L103.283478,30.6352941 L106.606957,14.8070588 L110.441739,14.8070588 L107.118261,29.8694118 L107.118261,29.8694118 Z M111.464348,9.19058824 L110.697391,13.02 L106.862609,13.02 L107.373913,9.95647059 C107.885217,7.40352941 109.163478,6.89294118 109.930435,6.89294118 C110.697391,6.89294118 111.464348,7.40352941 111.464348,8.16941176 L111.464348,9.19058824 L111.464348,9.19058824 Z" id="Shape"></path>
            <path d="M161.827826,11.2329412 C162.33913,11.7435294 162.850435,11.9988235 163.617391,11.9988235 C165.406957,11.9988235 166.685217,10.4670588 166.685217,8.16941176 C166.685217,4.08470588 162.33913,3.57411765 160.549565,3.57411765 C155.692174,3.57411765 151.857391,6.38235294 151.857391,10.2117647 C151.857391,15.8282353 159.526957,18.1258824 159.526957,24.5082353 C159.526957,27.5717647 157.737391,29.6141176 155.18087,29.6141176 C152.88,29.6141176 151.601739,27.8270588 151.601739,26.04 C151.601739,23.4870588 153.902609,22.4658824 155.947826,22.4658824 C155.947826,20.4235294 153.902609,19.9129412 152.624348,19.9129412 C150.067826,19.9129412 147,21.9552941 147,26.04 C147,30.6352941 150.57913,32.4223529 154.925217,32.4223529 C160.293913,32.4223529 165.406957,29.3588235 165.406957,22.9764706 C165.406957,14.8070588 156.970435,14.0411765 156.970435,8.68 C156.970435,6.38235294 158.248696,5.36117647 160.549565,5.36117647 C162.850435,5.36117647 163.361739,6.63764706 163.361739,7.91411765 C163.361739,9.19058824 162.850435,10.4670588 161.827826,11.2329412 L161.827826,11.2329412 Z" id="Shape"></path>
            <path d="M146.233043,16.3388235 C146.233043,14.5517647 145.466087,12.7647059 142.142609,12.7647059 C134.728696,12.7647059 132.172174,21.1894118 131.916522,25.7847059 C130.126957,27.5717647 128.337391,29.1035294 125.78087,29.1035294 C123.991304,29.1035294 122.968696,28.5929412 123.224348,26.04 L123.224348,24.5082353 C127.826087,24.2529412 131.916522,20.9341176 131.916522,16.5941176 C131.916522,14.8070588 131.149565,13.02 127.826087,13.02 C120.156522,13.02 117.6,21.9552941 117.6,26.2952941 C117.6,30.6352941 119.90087,32.1670588 123.48,32.1670588 C127.314783,32.1670588 130.126957,30.1247059 132.172174,27.5717647 C132.683478,30.8905882 134.728696,32.1670588 137.796522,32.1670588 C140.864348,32.1670588 143.42087,30.8905882 144.187826,26.5505882 C142.909565,27.5717647 141.12,28.5929412 139.841739,28.5929412 C138.563478,28.5929412 137.54087,27.8270588 137.54087,25.5294118 L137.54087,24.5082353 C141.886957,23.9976471 146.233043,20.6788235 146.233043,16.3388235 L146.233043,16.3388235 Z M142.398261,14.8070588 C142.909565,14.8070588 143.165217,15.3176471 143.165217,16.3388235 C143.165217,19.4023529 140.608696,22.4658824 137.54087,22.4658824 C138.563478,18.8917647 140.353043,14.8070588 142.398261,14.8070588 L142.398261,14.8070588 Z M127.826087,14.8070588 C128.593043,14.8070588 128.848696,15.3176471 128.848696,16.3388235 C128.848696,19.4023529 126.292174,22.4658824 123.48,22.4658824 C123.991304,18.8917647 126.036522,14.8070588 127.826087,14.8070588 L127.826087,14.8070588 Z" id="Shape"></path>
        </g>
    </g>
</svg>