<?xml version="1.0" encoding="utf-8"?>
<!-- Generator: Adobe Illustrator 19.2.1, SVG Export Plug-In . SVG Version: 6.00 Build 0)  -->
<svg version="1.1" id="Layer_1" xmlns="http://www.w3.org/2000/svg" xmlns:xlink="http://www.w3.org/1999/xlink" x="0px" y="0px"
	 viewBox="0 0 491 164" style="enable-background:new 0 0 491 164;" xml:space="preserve">
<style type="text/css">
	.st0{fill:#231F20;}
</style>
<title>MoMA_Logo_Black</title>
<desc>Created with Sketch.</desc>
<g id="scratch">
	<g id="MoMA_Logo_Black">
		<g id="Layer_1_1_">
			<path id="Shape" class="st0" d="M485.8,140L448.6,21.8h-36.1L375.6,140h26.9l6.8-23.8H445l6.8,23.8H485.8L485.8,140L485.8,140z
				 M367.6,140V21.8h-47l-17.3,59.8l-18.2-59.8h-47V140h26.2V56.1l25.7,83.8h19.7l25.7-83.8V140H367.6L367.6,140L367.6,140z
				 M134.8,140V21.8h-47L70.5,81.6L52.3,21.8h-47V140h26.2V56.1L57.3,140H77l25.7-83.8V140H134.8L134.8,140L134.8,140z M228.1,98.7
				c0-25.6-16.1-43.6-41.7-43.6c-27.2,0-41.5,20.6-41.5,43.6c0,26.2,17.2,43.6,41.5,43.6C211.1,142.4,228.1,125.1,228.1,98.7
				L228.1,98.7L228.1,98.7z M438.4,91.8H416l11.1-37.6L438.4,91.8L438.4,91.8L438.4,91.8z M198.3,98.9c0,15.1-2,24.4-11.9,24.4
				s-11.7-9.6-11.7-24.4c0-14.6,1.7-24.7,11.7-24.7C196.7,74.2,198.3,84.1,198.3,98.9L198.3,98.9L198.3,98.9z"/>
		</g>
	</g>
</g>
</svg>
