<?xml version="1.0" encoding="utf-8"?>
<!-- Generator: Adobe Illustrator 19.2.1, SVG Export Plug-In . SVG Version: 6.00 Build 0)  -->
<svg version="1.1" id="Layer_1" xmlns="http://www.w3.org/2000/svg" xmlns:xlink="http://www.w3.org/1999/xlink" x="0px" y="0px"
	 viewBox="0 0 243 62" style="enable-background:new 0 0 243 62;" xml:space="preserve">
<style type="text/css">
	.st0{fill:#706D6E;}
	.st1{fill:#F1511B;}
	.st2{fill:#80CC28;}
	.st3{fill:#00ADEF;}
	.st4{fill:#FBBC09;}
</style>
<title>Microsoft_logo_(2012)</title>
<desc>Created with Sketch.</desc>
<g id="scratch">
	<g id="Microsoft_x5F_logo_x5F__x28_2012_x29_">
		<g id="svg5358">
			<path id="path5056" class="st0" d="M242.9,28.5v-4.3h-5.3v-6.7l-0.2,0.1l-5,1.5h-0.1v5h-7.9v-2.8c0-1.3,0.3-2.3,0.9-3
				c0.6-0.7,1.4-1,2.4-1c0.7,0,1.5,0.2,2.3,0.5l0.2,0.1v-4.5h-0.1c-0.7-0.3-1.7-0.4-2.9-0.4c-1.5,0-3,0.3-4.2,1s-2.2,1.6-2.9,2.8
				c-0.7,1.2-1,2.6-1,4.2v3.1h-3.7v4.3h3.7v18h5.3v-18h7.9v11.5c0,4.7,2.2,7.1,6.6,7.1c0.7,0,1.5-0.1,2.3-0.3s1.3-0.3,1.6-0.5h0.1
				v-4.3l-0.2,0.1c-0.3,0.2-0.6,0.3-1.1,0.5c-0.4,0.1-0.8,0.2-1,0.2c-1,0-1.8-0.3-2.3-0.8c-0.5-0.6-0.7-1.5-0.7-2.9V28.5H242.9
				L242.9,28.5z M203.7,42.7c-1.9,0-3.4-0.6-4.5-1.9c-1.1-1.3-1.6-3.1-1.6-5.4c0-2.4,0.5-4.2,1.6-5.5s2.6-1.9,4.5-1.9
				c1.8,0,3.3,0.6,4.4,1.8c1.1,1.2,1.6,3.1,1.6,5.5c0,2.4-0.5,4.3-1.5,5.5C207.1,42.1,205.6,42.7,203.7,42.7L203.7,42.7z
				 M203.9,23.7c-3.7,0-6.6,1.1-8.7,3.2c-2.1,2.1-3.1,5.1-3.1,8.7c0,3.5,1,6.3,3.1,8.3c2,2,4.8,3.1,8.2,3.1c3.6,0,6.4-1.1,8.5-3.2
				c2.1-2.2,3.1-5.1,3.1-8.7c0-3.5-1-6.4-2.9-8.4C210.1,24.7,207.4,23.7,203.9,23.7L203.9,23.7z M183.6,23.7c-2.5,0-4.6,0.6-6.1,1.9
				c-1.6,1.3-2.4,2.9-2.4,4.9c0,1,0.2,2,0.5,2.8s0.9,1.5,1.6,2.1c0.7,0.6,1.8,1.2,3.2,1.8c1.2,0.5,2.1,0.9,2.7,1.3
				c0.6,0.3,1,0.7,1.2,1s0.3,0.7,0.3,1.3c0,1.5-1.1,2.2-3.4,2.2c-0.9,0-1.8-0.2-2.9-0.5c-1.1-0.4-2.1-0.9-3-1.5l-0.2-0.2v5.1h0.1
				c0.8,0.3,1.7,0.6,2.8,0.9c1.1,0.2,2.1,0.3,3,0.3c2.7,0,4.9-0.6,6.5-1.9c1.6-1.3,2.4-3,2.4-5.1c0-1.5-0.4-2.8-1.3-3.8
				c-0.9-1-2.3-2-4.4-2.8c-1.7-0.7-2.7-1.2-3.1-1.6c-0.4-0.4-0.6-1-0.6-1.7c0-0.6,0.3-1.2,0.8-1.6s1.3-0.6,2.3-0.6
				c0.9,0,1.8,0.1,2.7,0.4s1.7,0.6,2.3,1.1l0.2,0.1v-4.8h-0.1c-0.6-0.3-1.4-0.5-2.4-0.7C185.2,23.8,184.3,23.7,183.6,23.7
				L183.6,23.7z M161.2,42.7c-1.9,0-3.4-0.6-4.5-1.9c-1.1-1.3-1.6-3.1-1.6-5.4c0-2.4,0.5-4.2,1.6-5.5s2.6-1.9,4.5-1.9
				c1.8,0,3.3,0.6,4.4,1.8c1.1,1.2,1.6,3.1,1.6,5.5c0,2.4-0.5,4.3-1.5,5.5C164.6,42.1,163.1,42.7,161.2,42.7L161.2,42.7z
				 M161.4,23.7c-3.7,0-6.6,1.1-8.7,3.2c-2.1,2.1-3.1,5.1-3.1,8.7c0,3.5,1,6.3,3.1,8.3c2,2,4.8,3.1,8.2,3.1c3.6,0,6.4-1.1,8.5-3.2
				c2.1-2.2,3.1-5.1,3.1-8.7c0-3.5-1-6.4-2.9-8.4C167.6,24.7,164.9,23.7,161.4,23.7L161.4,23.7z M141.6,28.1v-3.9h-5.2v22.3h5.2
				V35.1c0-1.9,0.4-3.5,1.3-4.7c0.9-1.2,2-1.8,3.4-1.8c0.5,0,1,0.1,1.6,0.2c0.6,0.2,1,0.3,1.2,0.5l0.2,0.2v-5.3h-0.1
				c-0.5-0.2-1.2-0.3-2.1-0.3c-1.3,0-2.5,0.4-3.5,1.3C142.8,25.8,142.1,26.8,141.6,28.1L141.6,28.1L141.6,28.1z M127,23.7
				c-2.4,0-4.5,0.5-6.4,1.5c-1.8,1-3.2,2.5-4.2,4.3s-1.4,4-1.4,6.4c0,2.1,0.5,4,1.4,5.7s2.3,3,3.9,4c1.7,0.9,3.6,1.4,5.7,1.4
				c2.5,0,4.6-0.5,6.3-1.5h0.1v-4.8l-0.2,0.2c-0.8,0.6-1.6,1-2.6,1.3c-0.9,0.3-1.8,0.5-2.5,0.5c-2.1,0-3.7-0.6-4.9-1.9
				c-1.2-1.3-1.8-3.1-1.8-5.3c0-2.3,0.6-4.1,1.9-5.4c1.2-1.3,2.9-2,4.9-2c1.7,0,3.4,0.6,5,1.7l0.2,0.2v-5.1h-0.1
				c-0.6-0.3-1.4-0.6-2.4-0.8C128.9,23.8,127.9,23.7,127,23.7L127,23.7z M111.3,24.2h-5.2v22.3h5.2V24.2L111.3,24.2z M108.8,14.7
				c-0.9,0-1.6,0.3-2.2,0.9c-0.6,0.6-0.9,1.3-0.9,2.2s0.3,1.6,0.9,2.1c0.6,0.6,1.4,0.9,2.2,0.9c0.9,0,1.6-0.3,2.3-0.9
				c0.6-0.6,0.9-1.3,0.9-2.1s-0.3-1.6-0.9-2.2C110.4,15,109.7,14.7,108.8,14.7L108.8,14.7z M95.7,22.6v23.9h5.3V15.4h-7.4l-9.4,23.1
				l-9.1-23.1h-7.7v31.1h5V22.6h0.2l9.6,23.9H86l9.5-23.9H95.7L95.7,22.6z"/>
			<polygon id="path5058" class="st1" points="24.6,29.7 0,29.7 0,5 24.6,5 			"/>
			<polygon id="path5060" class="st2" points="51.9,29.7 27.2,29.7 27.2,5 51.9,5 			"/>
			<polygon id="path5062" class="st3" points="24.6,56.9 0,56.9 0,32.3 24.6,32.3 			"/>
			<polygon id="path5064" class="st4" points="51.9,56.9 27.2,56.9 27.2,32.3 51.9,32.3 			"/>
		</g>
	</g>
</g>
</svg>
