<?xml version="1.0" encoding="UTF-8" standalone="no"?>
<svg width="186px" height="58px" viewBox="0 0 186 58" version="1.1" xmlns="http://www.w3.org/2000/svg" xmlns:xlink="http://www.w3.org/1999/xlink">
    <!-- Generator: Sketch 3.8.2 (29753) - http://www.bohemiancoding.com/sketch -->
    <title>Spotify_logo_with_text Copy</title>
    <desc>Created with Sketch.</desc>
    <defs></defs>
    <g id="scratch" stroke="none" stroke-width="1" fill="none" fill-rule="evenodd">
        <g id="Spotify_logo_with_text-Copy" fill="#1ED760">
            <path d="M29.0004079,0.0956309524 C13.0325063,0.0956309524 0.0873506261,13.0396429 0.0873506261,29.0065595 C0.0873506261,44.9741667 13.0325063,57.9171429 29.0004079,57.9171429 C44.9700358,57.9171429 57.9138104,44.9741667 57.9138104,29.0065595 C57.9138104,13.0406786 44.9700358,0.0970119048 29.0000626,0.0970119048 L29.0004079,0.0956309524 L29.0004079,0.0956309524 Z M42.2597496,41.7934881 C41.7418605,42.6427738 40.6301252,42.9120595 39.7807871,42.39075 C32.992297,38.2444405 24.4464365,37.3053929 14.3821252,39.6046786 C13.4122916,39.825631 12.4455653,39.2180119 12.2245993,38.2478929 C12.0025975,37.2777738 12.6078372,36.3111071 13.5800877,36.0901548 C24.5938623,33.5740595 34.041195,34.6574167 41.6624508,39.3146786 C42.5117889,39.8359881 42.7810912,40.9442024 42.2597496,41.7934881 L42.2597496,41.7934881 Z M45.7986583,33.921369 C45.1461181,34.9819405 43.7581753,35.3168214 42.698229,34.6643214 C34.9264401,29.8876071 23.0795546,28.5042381 13.8870233,31.2944524 C12.6948426,31.6545357 11.4356816,30.9827024 11.0738497,29.7926667 C10.71478,28.6005595 11.387,27.3438929 12.5771091,26.9813929 C23.077483,23.7955357 36.1313953,25.33875 45.0563506,30.8228571 C46.116297,31.4753571 46.4511986,32.8632143 45.7986583,33.9217143 L45.7986583,33.921369 L45.7986583,33.921369 Z M46.1024866,25.7240357 C36.7839356,20.1895238 21.4095349,19.6806429 12.5125456,22.38075 C11.0838623,22.8140238 9.57300716,22.0075476 9.14005188,20.5789524 C8.7070966,19.1496667 9.51293202,17.6399405 10.9426512,17.205631 C21.1557692,14.1053929 38.1338998,14.704381 48.8624902,21.0729881 C50.1503077,21.835619 50.5715242,23.4951786 49.8085009,24.7784286 C49.0489302,26.0634048 47.38478,26.4870119 46.1038676,25.7240357 L46.1024866,25.7240357 Z M78.7502147,26.7846071 C73.7577639,25.5942262 72.8704472,24.75875 72.8704472,23.0032143 C72.8704472,21.3446905 74.4310197,20.2285357 76.7546154,20.2285357 C79.0057066,20.2285357 81.2360823,21.0760952 83.576941,22.8209286 C83.6459928,22.87375 83.7357603,22.8948095 83.8220751,22.881 C83.9118426,22.867881 83.9877996,22.8198929 84.0395886,22.7477381 L86.4771199,19.3119286 C86.5772451,19.170381 86.5496243,18.9753214 86.4149732,18.8672619 C83.6287299,16.6325357 80.4937746,15.5460714 76.8271199,15.5460714 C71.4376208,15.5460714 67.6708408,18.7806071 67.6708408,23.4085238 C67.6708408,28.3713214 70.9197317,30.1285833 76.5336494,31.4850238 C81.3085868,32.5852976 82.1164937,33.5070833 82.1164937,35.1545595 C82.1164937,36.980869 80.4868694,38.1167024 77.862898,38.1167024 C74.9489088,38.1167024 72.5700716,37.1327738 69.9115742,34.8334881 C69.845975,34.7747976 69.7562075,34.750631 69.6733453,34.7540833 C69.5835778,34.7609881 69.5041682,34.8024167 69.4489267,34.8680119 L66.7144723,38.1201548 C66.6005367,38.25825 66.614347,38.4584881 66.7455456,38.575869 C69.8390698,41.3377738 73.6438283,42.7946786 77.752415,42.7946786 C83.559678,42.7946786 87.3126476,39.6219405 87.3126476,34.7092024 C87.3230054,30.5639286 84.8405903,28.2680952 78.7605725,26.7890952 L78.7502147,26.7846071 L78.7502147,26.7846071 Z M100.45322,21.8615119 C97.9362791,21.8615119 95.8716279,22.8530357 94.1660465,24.8847619 L94.1660465,22.5979048 C94.1660465,22.4173452 94.0210376,22.2702738 93.8415027,22.2702738 L89.3703936,22.2702738 C89.1908587,22.2702738 89.0458497,22.4173452 89.0458497,22.5979048 L89.0458497,48.0077738 C89.0458497,48.1872976 89.1908587,48.33575 89.3703936,48.33575 L93.8415027,48.33575 C94.0210376,48.33575 94.1660465,48.1872976 94.1660465,48.0077738 L94.1660465,39.9878929 C95.8716279,41.8970595 97.9362791,42.8326548 100.45322,42.8326548 C105.131485,42.8326548 109.868444,39.2318214 109.868444,32.348119 C109.875349,25.4630357 105.13839,21.8611667 100.456673,21.8611667 L100.45322,21.8615119 L100.45322,21.8615119 Z M104.668837,32.348119 C104.668837,35.8519405 102.510966,38.2996786 99.4174419,38.2996786 C96.3618962,38.2996786 94.0555635,35.7414643 94.0555635,32.348119 C94.0555635,28.9544286 96.3618962,26.3969048 99.4174419,26.3969048 C102.459177,26.3965595 104.668837,28.8988452 104.668837,32.3477738 L104.668837,32.348119 L104.668837,32.348119 Z M122.004311,21.8615119 C115.979535,21.8615119 111.259839,26.500131 111.259839,32.4230357 C111.259839,38.2824167 115.948462,42.870631 121.931807,42.870631 C127.977299,42.870631 132.710805,38.2478929 132.710805,32.348119 C132.710805,26.468369 128.008372,21.8622024 122.004311,21.8622024 L122.004311,21.8615119 L122.004311,21.8615119 Z M122.004311,38.3342024 C118.800304,38.3342024 116.383488,35.7587262 116.383488,32.3463929 C116.383488,28.9185238 118.717442,26.4310833 121.931807,26.4310833 C125.15653,26.4310833 127.587156,29.0055238 127.587156,32.4213095 C127.587156,35.8484881 125.239392,38.3342024 122.004311,38.3342024 L122.004311,38.3342024 Z M145.57517,22.2702738 L140.655224,22.2702738 L140.655224,17.2415357 C140.655224,17.0613214 140.510215,16.91425 140.33068,16.91425 L135.859571,16.91425 C135.680036,16.91425 135.531574,17.0613214 135.531574,17.2415357 L135.531574,22.2702738 L133.384061,22.2702738 C133.204526,22.2702738 133.059517,22.4173452 133.059517,22.5979048 L133.059517,26.439369 C133.059517,26.6195833 133.204526,26.767 133.384061,26.767 L135.531574,26.767 L135.531574,36.708131 C135.531574,40.72325 137.530626,42.7601548 141.476941,42.7601548 C143.078945,42.7601548 144.408193,42.4287262 145.661485,41.7175357 C145.765063,41.6622976 145.827209,41.5518214 145.827209,41.4344405 L145.827209,37.7749167 C145.827209,37.6644405 145.768515,37.5574167 145.671843,37.4987262 C145.57517,37.4365833 145.454329,37.433131 145.354204,37.4849167 C144.494508,37.9164643 143.662433,38.1167024 142.730233,38.1167024 C141.297406,38.1167024 140.655224,37.4642024 140.655224,36.0072976 L140.655224,26.7687262 L145.57517,26.7687262 C145.754705,26.7687262 145.899714,26.6216548 145.899714,26.4410952 L145.899714,22.5999762 C145.906619,22.4194167 145.76161,22.2723452 145.578623,22.2723452 L145.57517,22.2702738 L145.57517,22.2702738 Z M162.713846,22.2899524 L162.713846,21.6723214 C162.713846,19.8553333 163.41127,19.0450595 164.971843,19.0450595 C165.904043,19.0450595 166.653256,19.2301071 167.492236,19.50975 C167.595814,19.5422024 167.702844,19.5259762 167.785707,19.4641786 C167.872021,19.402381 167.920358,19.3032976 167.920358,19.1983452 L167.920358,15.4317976 C167.920358,15.2878333 167.83059,15.1604405 167.689034,15.1179762 C166.80517,14.8545595 165.672719,14.5842381 163.974043,14.5842381 C159.848193,14.5842381 157.662701,16.9090714 157.662701,21.3049881 L157.662701,22.2509405 L155.515188,22.2509405 C155.335653,22.2509405 155.187191,22.3980119 155.187191,22.5782262 L155.187191,26.439369 C155.187191,26.6195833 155.335653,26.767 155.515188,26.767 L157.662701,26.767 L157.662701,42.0972976 C157.662701,42.2802738 157.811163,42.4252738 157.990698,42.4252738 L162.458354,42.4252738 C162.641342,42.4252738 162.786351,42.2802738 162.786351,42.0972976 L162.786351,26.7680357 L166.960537,26.7680357 L173.354741,42.0972976 C172.629696,43.7061071 171.915009,44.0271786 170.941377,44.0271786 C170.154186,44.0271786 169.322111,43.7924167 168.476225,43.3263452 C168.396816,43.2849167 168.300143,43.2780119 168.217281,43.3021786 C168.130966,43.33325 168.058462,43.3953929 168.023936,43.47825 L166.508247,46.8028929 C166.435742,46.9617024 166.497889,47.1446786 166.649803,47.2275357 C168.231091,48.0837262 169.657013,48.4496786 171.421288,48.4496786 C174.721968,48.4496786 176.54839,46.9099167 178.153846,42.7739643 L185.908372,22.737381 C185.949803,22.6365714 185.935993,22.5226429 185.873846,22.4332262 C185.815152,22.3445 185.715027,22.2909881 185.607996,22.2909881 L180.9539,22.2909881 C180.812343,22.2909881 180.68805,22.3797143 180.643166,22.5105595 L175.875134,36.1246786 L170.654812,22.5015833 C170.606476,22.374881 170.485635,22.2909881 170.350984,22.2909881 L162.713846,22.2909881 L162.713846,22.2899524 L162.713846,22.2899524 Z M152.777281,22.2702738 L148.306172,22.2702738 C148.126637,22.2702738 147.978175,22.4173452 147.978175,22.5979048 L147.978175,42.0972976 C147.978175,42.2802738 148.126637,42.4252738 148.306172,42.4252738 L152.777281,42.4252738 C152.956816,42.4252738 153.105277,42.2802738 153.105277,42.0972976 L153.105277,22.5992857 C153.105277,22.4187262 152.960268,22.2716548 152.777281,22.2716548 L152.777281,22.2702738 L152.777281,22.2702738 Z M150.567621,13.3910952 C148.79644,13.3910952 147.360161,14.8245238 147.360161,16.59525 C147.360161,18.3670119 148.79644,19.8021667 150.567621,19.8021667 C152.338801,19.8021667 153.771628,18.3670119 153.771628,16.59525 C153.771628,14.824869 152.335349,13.3910952 150.567621,13.3910952 L150.567621,13.3910952 Z" id="Shape"></path>
        </g>
    </g>
</svg>