<?xml version="1.0" encoding="UTF-8" standalone="no"?>
<svg width="490px" height="71px" viewBox="0 0 490 71" version="1.1" xmlns="http://www.w3.org/2000/svg" xmlns:xlink="http://www.w3.org/1999/xlink">
    <!-- Generator: Sketch 3.8.3 (29802) - http://www.bohemiancoding.com/sketch -->
    <title>Group 2</title>
    <desc>Created with Sketch.</desc>
    <defs></defs>
    <g id="Page-1" stroke="none" stroke-width="1" fill="none" fill-rule="evenodd">
        <g id="home-copy" transform="translate(-387.000000, -7164.000000)" fill="#8C95A3">
            <g id="Group-2" transform="translate(387.000000, 7164.000000)">
                <g id="logo--sass" transform="translate(203.000000, 8.000000)">
                    <path d="M67.8762857,34.6801958 C65.1526333,34.6801958 62.7156811,35.3331702 60.7804544,36.3489081 C60.0637037,34.8978539 59.3469531,33.5193524 59.203603,32.5761672 C59.0602528,31.4153238 58.9169027,30.7623494 59.0602528,29.3838479 C59.203603,28.0053464 59.9920287,26.1189759 59.9920287,25.9738705 C59.9920287,25.8287651 59.8486785,25.1757907 58.2718271,25.103238 C56.6949757,25.103238 55.3331495,25.3934488 55.1897994,25.8287651 C55.0464492,26.2640813 54.759749,27.2072666 54.5447238,28.2230045 C54.2580235,29.6740587 51.391021,34.8978539 49.7424945,37.6548569 C49.240769,36.5665663 48.7390436,35.623381 48.6673685,34.8978539 C48.5240184,33.7370105 48.3806683,33.0840361 48.5240184,31.7055346 C48.6673685,30.3270331 49.4557942,28.4406627 49.4557942,28.2955572 C49.4557942,28.1504518 49.3124441,27.4974774 47.7355927,27.4249247 C46.1587413,27.4249247 44.7969151,27.7151355 44.6535649,28.1504518 C44.5102148,28.5857681 44.2951896,29.601506 44.0084894,30.5446913 C43.650114,31.4878765 39.8513356,40.1942018 38.8478847,42.4433358 C38.3461593,43.6041792 37.9161089,44.5473645 37.5577336,45.1277861 L37.5577336,45.1277861 C37.5577336,45.1277861 37.5577336,45.2003389 37.4860585,45.2728916 C37.1993583,45.7807605 37.0560081,46.0709714 37.0560081,46.0709714 L37.0560081,46.0709714 C36.840983,46.4337349 36.6259578,46.7964985 36.4826076,46.7964985 C36.4109326,46.7964985 36.2675824,45.7082078 36.4826076,44.3297063 C37.0560081,41.2824925 38.4178344,36.5665663 38.4178344,36.4214608 C38.4178344,36.3489081 38.7045346,35.5508283 37.5577336,35.115512 C36.1959074,34.8978539 35.8375321,35.5508283 35.6941819,35.5508283 C35.5508318,35.5508283 35.5508318,35.7684864 35.5508318,35.7684864 C35.5508318,35.7684864 36.7693079,30.4721386 33.1855547,30.4721386 C30.8919526,30.4721386 27.8099249,33.0114834 26.2330735,35.2606175 C25.2296226,35.7684864 23.1510457,36.9293298 20.9291187,38.2352786 C20.069018,38.7431476 19.2089172,39.1784639 18.4204915,39.6863328 C18.3488164,39.6137801 18.2771413,39.5412274 18.2771413,39.4686747 C13.9049624,34.6801958 5.73400513,31.3427711 6.09238045,24.8855798 C6.23573058,22.5638931 7.02415628,16.3969127 21.7175444,8.92398343 C33.8306303,2.82955572 43.4350888,4.57082078 45.0836153,8.27100904 C47.4488924,13.5673569 39.9230107,23.5070783 27.4515496,24.8855798 C22.6493203,25.3934488 20.2123681,23.579631 19.5672925,22.8541039 C18.9222169,22.1285768 18.7788668,22.0560241 18.5638416,22.2011295 C18.1337912,22.4187877 18.4204915,23.071762 18.5638416,23.4345256 C18.9222169,24.4502636 20.4990683,26.1915286 23.0793706,27.0621611 C25.3729727,27.7876883 30.9636277,28.2230045 37.7010837,25.6111069 C45.2986405,22.6364458 51.1759958,14.3654367 49.4557942,7.40037651 C47.6639176,0.435316265 36.1242323,-1.88637048 25.3012976,2.0314759 C18.8505419,4.35316265 11.8263856,8.0533509 6.80913109,12.8418298 C0.788425705,18.573494 -0.143350128,23.5070783 0.286700256,25.6111069 C1.57685141,33.0114834 11.6113604,37.7999623 15.5534889,41.3550452 C15.3384637,41.5001506 15.1951136,41.5727033 14.9800884,41.645256 C12.9731866,42.660994 5.37562981,46.7239458 3.51207814,51.0045557 C1.36182622,55.8655873 3.87045346,59.3481175 5.51897994,59.7834337 C10.6795846,61.234488 15.9118642,58.6225904 18.7788668,54.3419804 C21.6458694,50.0613705 21.287494,44.4748117 19.9256678,41.8629142 C19.9256678,41.8629142 19.9256678,41.7903614 19.8539928,41.7903614 C20.3557182,41.5001506 20.9291187,41.137387 21.4308442,40.8471762 C22.4342951,40.2667545 23.437746,39.6863328 24.2978467,39.1784639 C23.7961213,40.5569654 23.437746,42.153125 23.2943958,44.4748117 C23.0793706,47.2318148 24.1544966,50.7868976 25.659673,52.1653991 C26.3047485,52.7458208 27.0931742,52.8183735 27.5232246,52.8183735 C29.2434262,52.8183735 29.9601768,51.3673193 30.8202776,49.6986069 C31.8237285,47.5945783 32.7555043,45.2003389 32.7555043,45.2003389 C32.7555043,45.2003389 31.6087033,51.7300828 34.7624061,51.7300828 C35.9092071,51.7300828 37.0560081,50.2064759 37.5577336,49.4083961 L37.5577336,49.4083961 C37.5577336,49.4083961 37.5577336,49.3358434 37.6294087,49.2632907 C37.7727588,49.0456325 37.8444338,48.9730798 37.8444338,48.9730798 L37.8444338,48.9730798 C38.2744842,48.175 39.3496102,46.2886295 40.8547865,43.2414157 C42.8616883,39.2510166 44.72524,34.3174322 44.72524,34.3174322 C44.72524,34.3174322 44.8685901,35.5508283 45.5136657,37.5823042 C45.872041,38.7431476 46.5887917,40.0490964 47.1621922,41.3550452 C46.7321418,42.0080196 46.4454415,42.3707831 46.4454415,42.3707831 L46.4454415,42.3707831 C46.0870662,42.8786521 45.6570158,43.3865211 45.2269655,43.9669428 C43.7217891,45.7807605 41.8582374,47.9573419 41.5715372,48.6103163 C41.2848369,49.3358434 41.356512,49.9162651 41.9299125,50.3515813 C42.3599629,50.6417922 43.0767135,50.7143449 43.8651392,50.6417922 C45.2986405,50.5692395 46.2304163,50.2064759 46.7321418,49.9888178 C47.5205675,49.6986069 48.3806683,49.2632907 49.240769,48.682869 C50.7459454,47.5220256 51.6777212,45.8533133 51.6060462,43.6767319 C51.5343711,42.4433358 51.1759958,41.2824925 50.6742703,40.1216491 C50.8176205,39.903991 50.9609706,39.6863328 51.1043207,39.5412274 C53.5412729,35.9135919 55.4048246,31.9957455 55.4048246,31.9957455 C55.4048246,31.9957455 55.5481747,33.2291416 56.1932503,35.2606175 C56.4799505,36.2763554 57.053351,37.3646461 57.5550765,38.4529367 C55.2614744,40.3393072 53.8996482,42.5158886 53.3262477,43.9669428 C52.3944719,46.6513931 53.1112225,47.8122364 54.4730487,48.1024473 C55.0464492,48.2475527 55.90655,47.9573419 56.5516256,47.667131 C57.3400513,47.3769202 58.2718271,46.9416039 59.203603,46.2886295 C60.7087793,45.1277861 62.2139556,43.5316265 62.1422806,41.3550452 C62.0706055,40.3393072 61.8555803,39.396122 61.497205,38.4529367 C63.4324317,37.6548569 65.941059,37.146988 69.0947618,37.5823042 C75.9038929,38.380384 77.2657191,42.7335467 77.0506939,44.5473645 C76.7639937,46.3611822 75.3304924,47.3769202 74.900442,47.667131 C74.3987165,47.9573419 74.2553664,48.1024473 74.3270415,48.3201054 C74.3987165,48.6103163 74.6137417,48.6103163 75.0437921,48.5377636 C75.6171926,48.4652108 78.6275453,47.0867093 78.7708955,43.6767319 C78.9859206,39.3235693 74.9721171,34.6076431 67.8762857,34.6801958 L67.8762857,34.6801958 L67.8762857,34.6801958 L67.8762857,34.6801958 Z M15.1234385,52.7458208 C12.8298365,55.2851657 9.67613365,56.2283509 8.31430744,55.4302711 C6.88080615,54.5596386 7.45420667,50.8594503 10.1778591,48.175 C11.8980606,46.5788404 14.0483126,45.0552334 15.4818138,44.1120482 C15.8401892,43.8943901 16.2702396,43.6041792 16.9153151,43.2414157 C16.9869902,43.168863 17.0586653,43.168863 17.0586653,43.168863 L17.0586653,43.168863 C17.2020154,43.0963102 17.2736905,43.0237575 17.4170406,42.9512048 C18.4921665,46.7964985 17.4887156,50.1339232 15.1234385,52.7458208 L15.1234385,52.7458208 L15.1234385,52.7458208 L15.1234385,52.7458208 Z M31.6087033,41.3550452 C30.8202776,43.3139684 29.1717511,48.3201054 28.1683002,48.0298946 C27.3081994,47.8122364 26.806474,43.9669428 28.0249501,40.2667545 C28.6700256,38.380384 29.9601768,36.13125 30.6769274,35.2606175 C31.8954035,33.882116 33.2572297,33.374247 33.6156051,33.9546687 C34.0456555,34.6801958 32.1104287,40.1216491 31.6087033,41.3550452 L31.6087033,41.3550452 L31.6087033,41.3550452 L31.6087033,41.3550452 Z M45.2269655,47.9573419 C44.8685901,48.1024473 44.5818899,48.2475527 44.4385397,48.175 C44.3668647,48.1024473 44.5818899,47.8847892 44.5818899,47.8847892 C44.5818899,47.8847892 46.3020914,45.9984187 46.947167,45.2003389 C47.3055423,44.6924699 47.8072678,44.1120482 48.3089932,43.4590738 L48.3089932,43.6767319 C48.3089932,45.8533133 46.2304163,47.3769202 45.2269655,47.9573419 L45.2269655,47.9573419 L45.2269655,47.9573419 L45.2269655,47.9573419 Z M55.7631999,45.5631024 C55.5481747,45.417997 55.5481747,44.8375753 56.4082755,42.9512048 C56.6949757,42.2256777 57.4834014,41.0648343 58.7735526,39.903991 C58.9169027,40.3393072 58.9885778,40.8471762 58.9885778,41.2824925 C58.9169027,44.0394955 56.981676,45.0552334 55.7631999,45.5631024 L55.7631999,45.5631024 L55.7631999,45.5631024 L55.7631999,45.5631024 Z" id="Shape"></path>
                </g>
                <g id="logo--jekyll-copy">
                    <path d="M142.875282,70.9647817 L142.875282,70.9647817 C141.860158,70.9647817 140.845034,70.8070822 139.907996,70.4128334 C135.925586,68.8358383 133.739164,64.4202519 134.832375,60.3989142 L134.754289,60.3989142 L134.988548,59.6892664 L155.447204,5.99258157 C155.75955,5.20408399 155.603377,3.31168981 155.447204,2.28664297 C155.447204,1.97124394 155.447204,1.73469466 155.525291,1.57699515 L155.525291,1.49814539 C155.525291,1.41929563 155.525291,1.41929563 155.603377,1.34044588 C155.915723,0.473098545 156.930847,0.0788497575 158.570663,0.0788497575 C160.522825,0.0788497575 163.255852,0.709647817 165.988879,1.73469466 C168.331473,2.68089175 170.439808,3.78478836 171.923451,4.88868496 C173.641353,6.22913084 174.344131,7.4118772 173.953699,8.43692405 C173.953699,8.51577381 173.875612,8.51577381 173.875612,8.59462357 L173.875612,8.67347332 C173.797526,8.9100226 173.641353,9.06772211 173.48518,9.22542163 C172.626229,10.0139192 171.298759,11.3543651 171.064499,11.9851631 L150.371584,66.3914958 L150.293497,66.3914958 C148.887941,69.1512373 145.998741,70.9647817 142.875282,70.9647817 L142.875282,70.9647817 L142.875282,70.9647817 Z M136.472191,60.0046655 L136.394105,60.162365 C135.066635,63.7106041 136.862623,67.7319417 140.376515,69.0723876 C141.15738,69.3877866 142.016331,69.5454861 142.797196,69.5454861 C145.608309,69.5454861 148.107076,67.8107914 149.200286,65.1298997 L149.278373,64.9722002 L169.580856,11.5909144 C169.971289,10.408168 172.001537,8.59462357 172.470056,8.20037478 L172.548142,8.12152502 C172.626229,8.12152502 172.626229,8.04267526 172.626229,8.04267526 L172.626229,8.04267526 C172.626229,7.88497575 172.470056,7.25417769 171.064499,6.15028108 C169.737029,5.12523424 167.706781,4.02133763 165.52036,3.1539903 C162.943506,2.12894345 160.366652,1.57699515 158.570663,1.57699515 C157.399366,1.57699515 157.008934,1.81354442 156.930847,1.97124394 L156.930847,1.97124394 L156.930847,2.05009369 L156.930847,2.05009369 C157.008934,2.36549272 157.32128,5.12523424 156.852761,6.54452987 L136.472191,60.0046655 L136.472191,60.0046655 L136.472191,60.0046655 Z" id="tube_2_"></path>
                    <path d="M162.553074,26.02042 C162.553074,26.02042 159.741961,29.3321098 157.165107,30.5148562 C154.588253,31.6976025 152.714178,31.3822035 150.371584,32.7226494 C148.028989,34.0630952 146.935779,35.9554894 146.935779,35.9554894 L137.565402,60.6354635 C136.550278,63.395205 138.033921,66.7068948 140.845034,67.8107914 C143.656147,68.9146881 146.779606,67.4953924 147.872816,64.6568011 L147.872816,64.6568011 L162.553074,26.02042 L162.553074,26.02042 L162.553074,26.02042 Z M153.182697,40.2133763 C153.651215,39.9768271 154.197821,40.2133763 154.353994,40.6864749 C154.588253,41.1595734 154.353994,41.7115217 153.885475,41.8692212 C153.416956,42.1057705 152.870351,41.8692212 152.714178,41.3961227 C152.479918,41.0018739 152.714178,40.4499256 153.182697,40.2133763 L153.182697,40.2133763 L153.182697,40.2133763 Z M149.356459,36.1920387 C149.668805,36.0343392 149.981151,36.1920387 150.137324,36.5074377 C150.293497,36.8228368 150.137324,37.1382358 149.824978,37.2959353 C149.512632,37.4536348 149.200286,37.2959353 149.044113,36.9805363 C148.887941,36.6651372 149.1222,36.2708884 149.356459,36.1920387 L149.356459,36.1920387 L149.356459,36.1920387 Z M145.217876,50.1484458 C144.749357,50.384995 144.202752,50.1484458 144.046579,49.6753472 C143.81232,49.2022487 144.046579,48.6503004 144.515098,48.4926009 C144.983617,48.2560516 145.530222,48.4926009 145.686395,48.9656994 C145.920655,49.4387979 145.686395,49.9118965 145.217876,50.1484458 L145.217876,50.1484458 L145.217876,50.1484458 Z M146.076827,46.9156057 C145.686395,46.0482584 146.076827,45.1020613 146.935779,44.7078125 C147.79473,44.3135637 148.731768,44.7078125 149.1222,45.5751598 C149.512632,46.4425072 149.1222,47.3887043 148.263249,47.782953 C147.404298,48.0983521 146.46726,47.782953 146.076827,46.9156057 L146.076827,46.9156057 L146.076827,46.9156057 Z M148.185162,55.5102293 C148.497508,55.3525298 148.809854,55.5102293 148.966027,55.8256283 C149.1222,56.1410273 148.966027,56.4564264 148.653681,56.6141259 C148.341335,56.7718254 148.028989,56.6141259 147.872816,56.2987269 C147.79473,55.9833278 147.872816,55.589079 148.185162,55.5102293 L148.185162,55.5102293 L148.185162,55.5102293 Z" id="liquid_2_"></path>
                    <ellipse id="top_2_" transform="translate(164.505001, 5.509564) rotate(-68.960432) translate(-164.505001, -5.509564) " cx="164.505001" cy="5.50956373" rx="1.48359101" ry="5.75583052"></ellipse>
                    <path d="M40.2145345,32.8803489 C41.0734857,33.5899967 42.7133017,33.1957479 43.8065123,31.9341518 C44.9778095,30.6725557 45.1339824,29.0167108 44.1969447,28.3070629 C43.3379935,27.5974151 41.6981775,27.9916639 40.6049669,29.25326 C39.5117562,30.5148562 39.2774968,32.0918513 40.2145345,32.8803489 L40.2145345,32.8803489 L40.2145345,32.8803489 Z M37.5595944,35.2458416 C37.3253349,35.2458416 36.9349026,35.6400904 37.2472485,35.8766397 C37.7157673,36.0343392 37.9500267,36.5074377 37.9500267,37.059386 C37.5595944,39.5825783 34.4361354,42.4211695 33.2648382,43.3673666 C32.9524923,43.6827657 33.4210112,44.3135637 33.6552706,44.0770144 C34.2799624,43.5250661 35.685519,42.4211695 36.8568161,41.0018739 C34.9827407,45.180911 31.3907628,50.6215443 29.9852063,52.5139385 C24.5972395,60.162365 16.3200732,67.1011436 10.6197606,67.1011436 C6.09074503,67.1011436 2.26450777,64.0260031 1.40555655,59.4527172 C1.32747007,58.9796186 0.702778273,58.8219191 0.780864747,59.5315669 C1.79598892,65.8395475 6.55926388,68.2050402 12.337663,68.2050402 C18.6626675,68.2050402 26.0808826,63.5529045 30.1413793,58.8219191 C36.7787296,51.1734926 41.0734857,42.3423198 39.9021886,37.3747851 C39.5898427,35.4823909 38.2623726,35.1669918 37.5595944,35.2458416 L37.5595944,35.2458416 L37.5595944,35.2458416 Z M78.1645612,51.8831404 C79.8824637,51.4888916 81.3661067,50.4638448 81.3661067,48.9656994 C81.3661067,48.8079999 81.0537608,48.8079999 81.0537608,48.9656994 C81.0537608,49.9118965 80.0386366,50.6215443 78.8673395,50.7792438 C76.2123993,51.1734926 70.8244326,48.0195023 68.2475789,44.7078125 C70.9025191,45.7328593 76.5247452,44.234714 79.1015989,42.3423198 C81.5222796,40.6076251 82.4593173,38.6363812 82.6935768,37.059386 C83.0059227,34.457344 80.1948096,32.8803489 76.2123993,34.457344 C73.7136322,35.4823909 70.6682596,37.7690338 67.5448007,41.948071 C70.8244326,36.428588 77.3836965,27.4397156 83.7087009,21.6048336 C91.5173484,14.5872051 95.9682775,15.927651 89.0185812,23.3395282 C86.1293816,26.335819 80.7414149,30.3571566 76.9932641,32.0130015 C75.821967,32.4861001 76.3685723,33.1957479 77.2275235,32.8014991 C81.2099337,31.0668045 86.519814,27.3608659 89.7213595,24.3645751 C99.1698229,15.2180032 91.283089,8.27922454 80.8195014,17.9777447 C73.7136322,24.6011243 69.1065301,31.539903 65.0460335,40.5287754 C63.6404769,42.1846203 62.6253527,43.6039159 61.3759691,44.7078125 C61.2197962,44.865512 61.1417097,44.9443618 60.9855368,45.1020613 C57.5497319,48.0983521 52.0836787,52.1985395 48.6478738,52.2773892 C46.227193,52.356239 45.2120689,50.5426946 45.6805877,48.0983521 C46.3052795,44.3924135 50.1315168,39.9768271 53.4111487,38.4786817 C57.6278184,36.5074377 60.1265856,40.2922261 54.5824458,43.3673666 C52.474111,44.4712632 49.8972574,45.0232115 48.8821332,45.0232115 C47.7108361,45.0232115 47.7889225,45.4963101 48.8040467,45.5751598 C50.4438627,45.6540096 53.1768893,44.9443618 54.9728782,44.0770144 C60.6731909,41.3172729 60.9855368,36.2708884 54.8167053,36.0343392 C48.1012684,35.7977899 40.136448,41.5538222 40.2145345,48.8079999 C40.292621,52.1196897 42.8694746,53.8543844 46.383366,53.8543844 C52.3179381,53.7755346 57.5497319,49.2022487 61.844488,45.2597608 C62.4691798,44.7078125 63.0938716,44.1558642 63.6404769,43.6039159 C62.1568339,47.467554 61.3759691,51.0946429 61.688315,53.7755346 C61.9225745,55.7467785 63.0157851,56.6141259 63.8747363,57.4026235 C64.0309093,57.560323 64.4213417,57.4026235 64.1870822,57.0083747 C62.9376986,55.5102293 63.328131,50.9369433 65.0460335,46.6002067 C66.607763,49.5176477 72.3080756,53.2235863 78.1645612,51.8831404 L78.1645612,51.8831404 L78.1645612,51.8831404 Z M71.1367785,39.1883295 C78.0864747,32.8803489 80.7414149,38.5575314 76.3685723,41.948071 C74.1040645,43.6827657 69.575049,45.0232115 68.091406,44.234714 L67.7790601,44.0770144 C67.6228871,43.7616154 67.3886277,43.4462164 67.3105412,43.1308174 C68.4818383,41.7115217 69.8093084,40.4499256 71.1367785,39.1883295 L71.1367785,39.1883295 L71.1367785,39.1883295 Z M109.477238,32.0918513 C112.210264,32.4072503 111.117054,29.0167108 108.30594,29.8052083 C107.056557,30.1994571 105.807173,32.5649498 104.948222,34.7727431 C102.215195,38.9517802 97.530007,44.7078125 94.250375,47.7041033 C91.3611754,50.2272955 88.7062353,50.8580936 91.9858672,46.2059579 C93.3133373,44.3135637 94.9531533,42.3423198 95.9682775,40.2922261 C98.2327852,35.2458416 93.3914238,32.9591986 89.4871001,36.0343392 C87.2225923,37.7690338 84.0991333,41.4749724 81.6784526,43.4462164 C81.0537608,43.9981647 81.2099337,44.7866623 81.8346255,44.234714 C83.7867874,42.6577188 87.1445058,39.03063 90.0337054,36.9016865 C92.4543861,35.0092923 93.3914238,36.2708884 91.9858672,37.8478836 C90.0337054,40.1345266 86.675987,43.9981647 85.8170357,46.5213569 C84.6457386,50.2272955 86.0512952,51.8831404 88.4719759,51.8831404 C91.7516078,51.8831404 96.7491422,46.6790564 100.028774,42.5000193 C101.121985,41.0807237 102.293282,39.5037285 103.308406,37.8478836 C100.419207,43.5250661 97.4519205,49.2022487 93.7037697,54.4063327 C88.3938894,61.7393601 81.7565391,67.1799934 75.5096211,67.1799934 C70.9806055,67.1799934 67.0762818,64.1048528 66.2173306,59.5315669 C66.1392441,59.0584684 65.5926388,58.9007688 65.5926388,59.6104167 C66.607763,65.9183973 71.3710379,68.28389 77.149437,68.28389 C83.4744415,68.28389 89.5651865,64.5779514 93.7818562,60.0046655 C102.371368,50.7792438 103.464579,40.4499256 106.041433,34.6938933 C107.446989,32.0918513 108.618286,32.0130015 109.477238,32.0918513 L109.477238,32.0918513 L109.477238,32.0918513 Z M144.538065,23.2606785 C145.787448,21.0528853 145.709362,19.3970403 142.820162,19.3970403 C140.633741,19.4758901 136.573244,21.0528853 134.699169,22.4721809 C134.308737,22.8664297 134.46491,23.1029789 135.011515,22.8664297 C135.401947,22.7087302 135.79238,22.4721809 136.182812,22.3144814 C138.291147,21.131735 137.432196,23.5760775 136.963677,24.5222746 C134.46491,29.0167108 130.01398,35.2458416 127.671386,38.3209821 C126.578176,39.8191275 125.250705,41.3961227 124.079408,42.6577188 C121.814901,44.7866623 117.363972,48.6503004 114.006253,49.9907463 C102.99606,54.1697834 116.973539,35.2458416 118.144836,33.7476962 C120.72169,30.4360064 126.500089,24.7588239 128.217992,21.9202326 C129.467375,19.7124394 129.389289,18.0565945 126.500089,18.0565945 C124.313668,18.1354442 120.253171,19.7124394 118.379096,21.131735 C117.988663,21.5259838 118.144836,21.7625331 118.691442,21.5259838 C119.081874,21.3682843 119.472306,21.131735 119.862739,20.9740355 C121.971074,19.7912891 121.112122,22.2356316 120.643603,23.1818287 C118.144836,27.6762649 113.693907,33.9053957 111.351313,36.9805363 C109.399151,39.5825783 107.056557,42.1846203 105.260568,43.6827657 C104.55779,44.3135637 104.948222,44.865512 105.651,44.3135637 C106.275692,43.9193149 107.290816,42.8942681 108.30594,41.7903715 C106.353779,45.8117091 104.713963,51.4888916 109.945756,52.1196897 C114.396685,52.7504878 119.706566,48.0983521 123.142371,44.7078125 C123.532803,44.3135637 123.923235,43.9193149 124.391754,43.4462164 C124.469841,43.3673666 124.626014,43.2096671 124.7041,43.1308174 C122.751938,47.152155 121.112122,52.7504878 126.343916,53.4601356 C132.044229,54.2486332 139.150098,46.4425072 141.961211,43.6039159 C142.507816,43.0519676 142.351643,42.1057705 141.414606,43.0519676 C139.77479,44.7078125 134.308737,49.8330467 130.326326,51.3311921 C119.316133,55.5102293 133.293612,36.5862875 134.46491,35.0881421 C136.963677,31.855302 142.742076,26.0992697 144.538065,23.2606785 L144.538065,23.2606785 L144.538065,23.2606785 Z" id="jekyll-text_1_"></path>
                </g>
                <g id="logo--coffeescript" transform="translate(308.000000, 24.000000)">
                    <path d="M147.40142,8.714121 C149.308779,8.714121 150.686317,7.36381492 150.686317,5.49416035 C150.686317,3.62450578 149.308779,2.27419971 147.40142,2.27419971 C145.494061,2.5858088 144.116523,3.83224518 144.116523,5.70189975 C144.116523,7.36381492 145.494061,8.714121 147.40142,8.714121 L147.40142,8.714121 L147.40142,8.714121 Z" id="Shape_3_"></path>
                    <path d="M178.554956,10.791515 C179.402671,7.36381492 179.932493,4.66320277 179.932493,4.66320277 L173.998486,5.49416035 L172.938842,10.791515 L171.561305,10.791515 L171.243412,12.3495604 L172.620949,12.3495604 L170.183768,24.0868363 C169.865874,24.9177939 169.865874,25.4371424 169.865874,26.1642303 C169.865874,28.5532333 170.925519,30.6306273 173.892522,30.6306273 C175.270059,30.6306273 176.859525,30.1112788 178.237063,26.8913182 L177.177419,26.8913182 C176.117775,26.8913182 175.799881,26.3719697 175.799881,25.5410121 C175.799881,25.0216636 175.799881,24.7100545 176.117775,24.190706 L178.554956,12.5572998 L180.992137,12.5572998 L181.310031,10.9992544 L178.554956,10.9992544 L178.554956,10.791515 L178.554956,10.791515 L178.554956,10.791515 Z" id="Shape_4_"></path>
                    <path d="M141.14952,13.6998665 C141.14952,12.141821 140.089876,10.791515 138.394445,10.791515 C136.487086,10.791515 134.89762,12.141821 133.520083,13.180518 L134.049905,10.791515 L128.327827,10.791515 L125.572752,23.2558787 C123.665393,25.3332727 121.758033,27.2029273 118.579101,27.2029273 C116.671742,27.2029273 115.612098,26.6835788 115.612098,23.9829666 C115.612098,19.724309 118.049279,12.5572998 120.804354,12.5572998 C121.652069,12.5572998 121.863998,13.0766483 121.863998,14.1153453 C121.863998,14.6346938 121.546104,15.4656514 121.334176,16.5043484 C121.863998,16.8159575 122.181891,17.0236969 122.711713,17.0236969 C123.771357,17.0236969 124.831001,15.9849999 124.831001,14.1153453 C124.831001,12.2456907 123.983286,10.6876453 120.48646,10.6876453 C112.327201,10.6876453 109.678091,19.9320484 109.89002,24.5023151 C109.89002,28.9687121 112.327201,30.6306273 116.14192,30.6306273 C120.168567,30.6306273 122.923642,28.5532333 125.04293,26.1642303 L124.195215,30.4228879 L129.917293,30.4228879 L133.202189,15.5695211 C134.261833,14.7385635 134.791655,14.0114756 136.169193,14.0114756 C137.54673,14.0114756 136.169193,16.7120878 138.606374,16.7120878 C140.301805,16.6082181 141.14952,15.0501726 141.14952,13.6998665 L141.14952,13.6998665 L141.14952,13.6998665 Z" id="Shape_5_"></path>
                    <path d="M164.143796,10.791515 C162.236437,10.791515 160.646971,11.6224725 159.587327,12.3495604 L160.117149,9.44120888 L154.395071,9.44120888 L151.428068,23.4636181 L151.428068,23.4636181 C150.898245,25.3332727 149.308779,26.8913182 147.931242,26.8913182 C146.871598,26.8913182 146.341776,26.5797091 146.341776,25.5410121 C146.341776,25.229403 146.341776,24.7100545 146.659669,24.190706 L149.626673,10.8953847 L143.904595,10.8953847 L141.14952,23.3597484 C140.831627,24.3984454 140.831627,25.229403 140.831627,26.0603606 C140.831627,29.2803212 142.738986,30.8383667 145.176167,30.8383667 C146.553705,30.8383667 148.990886,30.3190182 150.898245,28.1377546 L148.143171,40.2905092 L154.077178,38.9402032 L156.196466,29.3841909 C156.726288,30.2151485 157.574003,30.734497 159.481363,30.734497 C167.322729,30.734497 169.230088,22.2171818 169.230088,16.9198272 C169.018159,12.141821 166.898871,10.791515 164.143796,10.791515 L164.143796,10.791515 L164.143796,10.791515 Z M157.891896,27.2029273 C157.044181,27.2029273 156.514359,26.6835788 156.30243,26.3719697 L158.739612,15.4656514 C159.587327,14.1153453 160.646971,13.5959968 161.494686,13.5959968 C162.342402,13.5959968 163.402046,13.9076059 163.402046,16.8159575 C163.402046,20.3475272 162.024508,27.2029273 157.891896,27.2029273 L157.891896,27.2029273 L157.891896,27.2029273 Z" id="Shape_6_"></path>
                    <path d="M59.5569258,10.791515 L55.5302783,10.791515 L56.3779936,7.57155432 C56.9078156,4.87094216 58.2853529,4.35159367 59.1330682,4.35159367 C59.9807835,4.35159367 60.7225343,4.87094216 60.7225343,5.70189975 L60.7225343,6.74059673 L62.6298937,6.74059673 L62.6298937,5.18255126 C62.6298937,2.4819391 60.5106055,0.923893631 58.0734241,0.923893631 C56.483958,0.923893631 54.2587054,1.44324212 52.6692393,3.31289669 C51.8215241,1.75485122 50.2320579,0.923893631 48.3246986,0.923893631 C45.569624,0.923893631 42.3906918,1.96259061 41.0131544,7.57155432 L39.1057951,15.7772605 C38.046151,16.296609 36.9865069,16.6082181 35.8208985,16.6082181 L35.2910764,16.6082181 C35.6089696,12.6611695 33.9135391,10.4799059 30.4167137,10.4799059 C22.2574542,10.4799059 19.608344,19.2049605 19.608344,23.9829666 C17.7009847,25.8526212 15.2638033,27.2029273 12.6146931,27.2029273 C8.79997444,27.2029273 7.74033036,24.8139242 7.74033036,21.0746151 C7.74033036,13.0766483 11.555049,2.7935482 16.1115186,2.7935482 C18.0188779,2.7935482 18.5487,3.83224518 18.5487,5.18255126 C18.5487,6.74059673 17.7009847,8.4025119 16.6413406,8.6102513 C17.4890559,9.44120888 18.2308067,9.64894828 18.7606288,9.64894828 C20.8799169,9.64894828 21.5157034,8.09090281 21.5157034,6.22124824 C21.5157034,2.4819391 18.5487,0.923893631 14.7339813,0.923893631 C4.45543371,0.923893631 0.958608249,14.219215 0.958608249,21.3862242 C0.958608249,28.5532333 3.71368285,30.9422364 9.6476897,30.9422364 C12.6146931,30.9422364 16.9592338,29.5919303 19.7143085,26.1642303 C20.2441305,29.3841909 22.6813119,30.6306273 25.9662085,30.6306273 C30.8405713,30.6306273 34.8672188,26.1642303 35.3970408,18.9972211 C36.4566849,18.685612 37.516329,18.4778726 38.6819375,17.9585241 L35.9268629,30.1112788 C32.1121442,31.1499758 29.1451408,32.5002819 29.1451408,35.9279819 C29.1451408,38.6285941 31.2644289,40.1866395 33.7016103,40.1866395 C35.6089696,40.1866395 37.516329,39.6672911 39.1057951,37.7976365 C39.6356171,39.355682 41.2250833,40.1866395 43.4503358,40.1866395 C46.2054104,40.1866395 49.3843427,39.1479426 50.76188,33.5389789 L55.3183495,12.5572998 L59.344997,12.5572998 L59.5569258,10.791515 L59.5569258,10.791515 L59.5569258,10.791515 Z M32.0061798,18.9972211 C31.4763577,23.4636181 29.2511052,27.2029273 27.4497102,27.2029273 C25.8602441,27.2029273 25.3304221,26.6835788 25.3304221,23.9829666 C25.3304221,20.2436575 27.7676035,13.0766483 30.7346069,13.0766483 C31.794251,13.0766483 32.1121442,13.5959968 32.324073,15.4656514 C31.4763577,15.7772605 30.9465357,16.5043484 30.9465357,17.5430453 C30.8405713,17.9585241 31.1584645,18.7894817 32.0061798,18.9972211 L32.0061798,18.9972211 L32.0061798,18.9972211 Z M35.5030052,33.6428486 C34.9731832,36.0318516 33.9135391,36.8628092 33.0658239,36.8628092 C32.2181086,36.8628092 31.4763577,36.0318516 31.4763577,35.5125031 C31.4763577,33.4351092 33.3837171,32.2925425 35.8208985,31.5654546 L35.5030052,33.6428486 L35.5030052,33.6428486 L35.5030052,33.6428486 Z M44.9338375,33.6428486 C44.4040155,36.0318516 43.3443714,36.8628092 42.4966562,36.8628092 C41.4370121,36.8628092 40.5892968,36.5512001 40.377368,36.0318516 C40.6952612,35.5125031 40.90719,34.4738061 41.2250833,33.6428486 L42.0727985,30.2151485 L46.099446,29.3841909 L44.9338375,33.6428486 L44.9338375,33.6428486 L44.9338375,33.6428486 Z M46.3113748,28.2416243 L42.2847273,29.0725818 L45.7815528,12.6611695 L49.8082003,12.6611695 L46.3113748,28.2416243 L46.3113748,28.2416243 L46.3113748,28.2416243 Z M50.9738088,6.84446643 L50.1260935,10.791515 L46.099446,10.791515 L46.6292681,7.57155432 C47.1590901,4.87094216 48.5366274,4.35159367 49.3843427,4.35159367 C50.2320579,4.35159367 50.9738088,4.87094216 50.9738088,5.70189975 L50.9738088,6.84446643 L50.9738088,6.84446643 L50.9738088,6.84446643 Z" id="Shape_7_"></path>
                    <path d="M104.273906,8.92186039 C104.803728,9.44120888 105.33355,9.75281798 106.181265,9.75281798 C108.088625,9.75281798 109.466162,8.1947725 109.466162,5.80576945 C109.466162,1.54711182 104.909692,1.02776333 103.002333,1.02776333 C97.8100771,1.02776333 93.7834296,3.93611488 93.7834296,7.88316341 C93.7834296,13.6998665 101.942689,16.0888696 101.942689,22.7365303 C101.942689,25.9564909 100.03533,28.0338849 97.3862195,28.0338849 C94.9490381,28.0338849 93.5715008,26.1642303 93.5715008,24.2945757 C93.5715008,21.5939636 96.0086822,20.5552666 98.1279703,20.5552666 C98.1279703,18.4778726 96.0086822,17.8546544 94.6311449,17.8546544 C91.8760703,17.8546544 88.697138,19.9320484 88.697138,24.190706 C88.697138,28.9687121 92.5118567,30.8383667 97.0683262,30.8383667 C102.790404,30.8383667 108.194589,27.6184061 108.194589,21.0746151 C108.194589,12.5572998 99.2935788,11.8302119 99.2935788,6.22124824 C99.2935788,3.83224518 100.671116,2.7935482 103.108297,2.7935482 C105.545479,2.7935482 106.075301,4.14385428 106.075301,5.49416035 C106.075301,6.84446643 105.439514,8.09090281 104.273906,8.92186039 L104.273906,8.92186039 L104.273906,8.92186039 Z" id="Shape_8_"></path>
                    <path d="M87.7434583,14.219215 C87.7434583,12.3495604 86.8957431,10.4799059 83.3989176,10.4799059 C75.5575514,10.4799059 72.8024768,19.2049605 72.590548,23.9829666 C70.6831887,25.8526212 68.7758293,27.4106667 66.1267191,27.4106667 C64.2193598,27.4106667 63.1597157,26.8913182 63.3716445,24.190706 L63.3716445,22.6326606 C68.2460073,22.3210515 72.590548,18.8933514 72.590548,14.4269544 C72.590548,12.5572998 71.7428328,10.6876453 68.2460073,10.6876453 C60.0867479,10.6876453 57.4376377,19.9320484 57.4376377,24.5023151 C57.4376377,29.0725818 59.8748191,30.6306273 63.6895377,30.6306273 C67.7161852,30.6306273 70.6831887,28.5532333 72.9084412,25.8526212 C73.4382633,29.2803212 75.6635158,30.6306273 78.8424481,30.6306273 C82.0213803,30.6306273 84.7764549,29.2803212 85.6241702,24.8139242 C84.2466329,25.8526212 82.3392735,26.8913182 81.0677006,26.8913182 C79.7961278,26.8913182 78.6305193,26.0603606 78.6305193,23.6713575 L78.6305193,22.6326606 C83.1869888,22.2171818 87.7434583,18.7894817 87.7434583,14.219215 L87.7434583,14.219215 L87.7434583,14.219215 Z M83.7168108,12.6611695 C84.2466329,12.6611695 84.5645261,13.180518 84.5645261,14.219215 C84.5645261,17.4391756 81.8094515,20.5552666 78.6305193,20.5552666 C79.6901633,16.9198272 81.5975227,12.6611695 83.7168108,12.6611695 L83.7168108,12.6611695 L83.7168108,12.6611695 Z M68.2460073,12.6611695 C69.0937226,12.6611695 69.3056514,13.180518 69.3056514,14.219215 C69.3056514,17.4391756 66.5505768,20.5552666 63.5835733,20.5552666 C64.2193598,16.9198272 66.3386479,12.6611695 68.2460073,12.6611695 L68.2460073,12.6611695 L68.2460073,12.6611695 Z" id="Shape_9_"></path>
                </g>
            </g>
        </g>
    </g>
</svg>