<?xml version="1.0" encoding="utf-8"?>
<!-- Generator: Adobe Illustrator 19.2.1, SVG Export Plug-In . SVG Version: 6.00 Build 0)  -->
<svg version="1.1" id="Layer_1" xmlns="http://www.w3.org/2000/svg" xmlns:xlink="http://www.w3.org/1999/xlink" x="0px" y="0px"
	 viewBox="0 0 110 95" style="enable-background:new 0 0 110 95;" xml:space="preserve">
<style type="text/css">
	.st0{fill:#CD6799;}
</style>
<title>sass</title>
<desc>Created with Sketch.</desc>
<g id="scratch">
	<g id="sass">
		<g id="Group">
			<path id="Shape" class="st0" d="M94.7,53.8c-3.8,0-7.2,0.9-9.9,2.3c-1-2-2-3.9-2.2-5.2c-0.2-1.6-0.4-2.5-0.2-4.4
				c0.2-1.9,1.3-4.5,1.3-4.7c0-0.2-0.2-1.1-2.4-1.2c-2.2,0-4.1,0.4-4.3,1c-0.2,0.6-0.6,1.9-0.9,3.3c-0.4,2-4.4,9.2-6.7,13
				c-0.7-1.5-1.4-2.8-1.5-3.8c-0.2-1.6-0.4-2.5-0.2-4.4c0.2-1.9,1.3-4.5,1.3-4.7c0-0.2-0.2-1.1-2.4-1.2c-2.2,0-4.1,0.4-4.3,1
				s-0.5,2-0.9,3.3c-0.5,1.3-5.8,13.3-7.2,16.4c-0.7,1.6-1.3,2.9-1.8,3.7l0,0c0,0,0,0.1-0.1,0.2c-0.4,0.7-0.6,1.1-0.6,1.1s0,0,0,0
				c-0.3,0.5-0.6,1-0.8,1c-0.1,0-0.3-1.5,0-3.4c0.8-4.2,2.7-10.7,2.7-10.9c0-0.1,0.4-1.2-1.2-1.8C50.5,54.1,50,55,49.8,55
				s-0.2,0.3-0.2,0.3s1.7-7.3-3.3-7.3c-3.2,0-7.5,3.5-9.7,6.6c-1.4,0.7-4.3,2.3-7.4,4.1c-1.2,0.7-2.4,1.3-3.5,2
				c-0.1-0.1-0.2-0.2-0.2-0.3c-6.1-6.6-17.5-11.2-17-20.1c0.2-3.2,1.3-11.7,21.8-22c16.9-8.4,30.3-6,32.6-0.9
				c3.3,7.3-7.2,21-24.6,22.9c-6.7,0.7-10.1-1.8-11-2.8c-0.9-1-1.1-1.1-1.4-0.9c-0.6,0.3-0.2,1.2,0,1.7c0.5,1.4,2.7,3.8,6.3,5
				c3.2,1,11,1.6,20.4-2c10.6-4.1,18.8-15.5,16.4-25.1C66.5,6.6,50.4,3.4,35.3,8.8c-9,3.2-18.8,8.3-25.8,14.9
				c-8.4,7.9-9.7,14.7-9.1,17.6C2.2,51.5,16.2,58.1,21.7,63c-0.3,0.2-0.5,0.3-0.8,0.4c-2.8,1.4-13.4,7-16,12.9
				c-3,6.7,0.5,11.5,2.8,12.1c7.2,2,14.5-1.6,18.5-7.5s3.5-13.6,1.6-17.2c0,0,0-0.1-0.1-0.1c0.7-0.4,1.5-0.9,2.2-1.3
				c1.4-0.8,2.8-1.6,4-2.3c-0.7,1.9-1.2,4.1-1.4,7.3c-0.3,3.8,1.2,8.7,3.3,10.6c0.9,0.8,2,0.9,2.6,0.9c2.4,0,3.4-2,4.6-4.3
				c1.4-2.9,2.7-6.2,2.7-6.2s-1.6,9,2.8,9c1.6,0,3.2-2.1,3.9-3.2v0c0,0,0-0.1,0.1-0.2c0.2-0.3,0.3-0.4,0.3-0.4v0
				c0.6-1.1,2.1-3.7,4.2-7.9c2.8-5.5,5.4-12.3,5.4-12.3s0.2,1.7,1.1,4.5c0.5,1.6,1.5,3.4,2.3,5.2c-0.6,0.9-1,1.4-1,1.4s0,0,0,0
				c-0.5,0.7-1.1,1.4-1.7,2.2C61,69.1,58.4,72.1,58,73c-0.4,1-0.3,1.8,0.5,2.4c0.6,0.4,1.6,0.5,2.7,0.4c2-0.1,3.3-0.6,4-0.9
				c1.1-0.4,2.3-1,3.5-1.8c2.1-1.6,3.4-3.9,3.3-6.9c-0.1-1.7-0.6-3.3-1.3-4.9c0.2-0.3,0.4-0.6,0.6-0.8c3.4-5,6-10.4,6-10.4
				s0.2,1.7,1.1,4.5c0.4,1.4,1.2,2.9,1.9,4.4c-3.2,2.6-5.1,5.6-5.9,7.6c-1.3,3.7-0.3,5.3,1.6,5.7c0.8,0.2,2-0.2,2.9-0.6
				c1.1-0.4,2.4-1,3.7-1.9c2.1-1.6,4.2-3.8,4.1-6.8c-0.1-1.4-0.4-2.7-0.9-4c2.7-1.1,6.2-1.8,10.6-1.2c9.5,1.1,11.4,7.1,11.1,9.6
				c-0.4,2.5-2.4,3.9-3,4.3c-0.7,0.4-0.9,0.6-0.8,0.9c0.1,0.4,0.4,0.4,1,0.3c0.8-0.1,5-2,5.2-6.7C110.2,60.2,104.6,53.7,94.7,53.8
				L94.7,53.8L94.7,53.8z M21.1,78.7c-3.2,3.5-7.6,4.8-9.5,3.7c-2-1.2-1.2-6.3,2.6-10c2.4-2.2,5.4-4.3,7.4-5.6
				c0.5-0.3,1.1-0.7,2-1.2c0.1-0.1,0.2-0.1,0.2-0.1l0,0c0.2-0.1,0.3-0.2,0.5-0.3C25.8,70.5,24.4,75.1,21.1,78.7L21.1,78.7L21.1,78.7
				z M44.1,63c-1.1,2.7-3.4,9.6-4.8,9.2c-1.2-0.3-1.9-5.6-0.2-10.7c0.9-2.6,2.7-5.7,3.7-6.9c1.7-1.9,3.6-2.6,4.1-1.8
				C47.5,53.8,44.8,61.3,44.1,63L44.1,63L44.1,63z M63.1,72.1c-0.5,0.2-0.9,0.4-1.1,0.3c-0.1-0.1,0.2-0.4,0.2-0.4s2.4-2.6,3.3-3.7
				c0.5-0.7,1.2-1.5,1.9-2.4v0.3C67.4,69.2,64.5,71.3,63.1,72.1L63.1,72.1L63.1,72.1z M77.8,68.8c-0.3-0.2-0.3-1,0.9-3.6
				c0.4-1,1.5-2.6,3.3-4.2c0.2,0.6,0.3,1.3,0.3,1.9C82.2,66.7,79.5,68.1,77.8,68.8L77.8,68.8L77.8,68.8z"/>
		</g>
	</g>
</g>
</svg>
