<?xml version="1.0" encoding="UTF-8" standalone="no"?>
<svg width="468px" height="62px" viewBox="0 0 468 62" version="1.1" xmlns="http://www.w3.org/2000/svg" xmlns:xlink="http://www.w3.org/1999/xlink">
    <!-- Generator: Sketch 3.8.2 (29753) - http://www.bohemiancoding.com/sketch -->
    <title>Group</title>
    <desc>Created with Sketch.</desc>
    <defs></defs>
    <g id="Page-1" stroke="none" stroke-width="1" fill="none" fill-rule="evenodd">
        <g id="Desktop-Landscape-Copy-6" transform="translate(-763.000000, -319.000000)" fill="#8C95A3">
            <g id="Group" transform="translate(763.000000, 319.000000)">
                <g id="logo--sass" transform="translate(186.000000, 3.000000)">
                    <path d="M62.2404758,31.8006777 C59.7429699,31.8006777 57.5083594,32.3994352 55.7338157,33.3308358 C55.0765773,32.0002636 54.4193389,30.7362199 54.2878912,29.8713479 C54.1564436,28.8068901 54.0249959,28.2081325 54.1564436,26.9440889 C54.2878912,25.6800452 55.0108535,23.9503012 55.0108535,23.817244 C55.0108535,23.6841867 54.8794058,23.0854292 53.4334813,23.0189006 C51.9875569,23.0189006 50.7388039,23.2850151 50.6073562,23.6841867 C50.4759086,24.0833584 50.2130132,24.9482304 50.0158417,25.879631 C49.7529463,27.2102033 47.1239928,32.0002636 45.6123445,34.5283509 C45.1522776,33.5304217 44.6922107,32.6655497 44.6264869,32.0002636 C44.4950392,30.9358057 44.3635915,30.3370482 44.4950392,29.0730045 C44.6264869,27.8089608 45.3494491,26.0792169 45.3494491,25.9461596 C45.3494491,25.8131024 45.2180014,25.2143449 43.772077,25.1478163 C42.3261525,25.1478163 41.0773995,25.4139307 40.9459519,25.8131024 C40.8145042,26.2122741 40.6173327,27.1436747 40.3544373,28.0085467 C40.0258181,28.8734187 36.5424546,36.8568524 35.6223209,38.9192395 C35.162254,39.9836973 34.767911,40.8485693 34.4392918,41.3807982 L34.4392918,41.3807982 C34.4392918,41.3807982 34.4392918,41.4473268 34.3735679,41.5138554 C34.1106726,41.9795557 33.9792249,42.2456702 33.9792249,42.2456702 L33.9792249,42.2456702 C33.7820534,42.5783133 33.5848819,42.9109563 33.4534342,42.9109563 C33.3877104,42.9109563 33.2562627,41.9130271 33.4534342,40.6489834 C33.9792249,37.8547816 35.2279779,33.5304217 35.2279779,33.3973645 C35.2279779,33.3308358 35.4908732,32.5990211 34.4392918,32.1998494 C33.1905388,32.0002636 32.8619196,32.5990211 32.730472,32.5990211 C32.5990243,32.5990211 32.5990243,32.7986069 32.5990243,32.7986069 C32.5990243,32.7986069 33.7163295,27.9420181 30.4301376,27.9420181 C28.3269747,27.9420181 25.5008496,30.2705196 24.0549252,32.3329066 C23.1347914,32.7986069 21.2288001,33.8630648 19.1913611,35.0605798 C18.402675,35.5262801 17.6139889,35.9254518 16.8910267,36.3911521 C16.8253029,36.3246235 16.759579,36.2580949 16.759579,36.1915663 C12.7504248,31.8006777 5.25790714,28.7403614 5.58652634,22.8193148 C5.71797402,20.6903991 6.44093625,15.0354669 19.9143233,8.18301958 C31.0216521,2.59461596 39.8286466,4.19130271 41.3402949,7.58426205 C43.5091816,12.4408509 36.6081785,21.5552711 25.1722304,22.8193148 C20.7687332,23.2850151 18.5341227,21.6217997 17.9426081,20.9565136 C17.3510936,20.2912274 17.2196459,20.2246988 17.0224744,20.357756 C16.6281313,20.5573419 16.8910267,21.1560994 17.0224744,21.4887425 C17.3510936,22.4201431 18.797018,24.0168298 21.1630762,24.8151732 C23.2662391,25.4804593 28.3926986,25.879631 34.5707395,23.4846009 C41.5374664,20.7569277 46.9268212,13.1726657 45.3494491,6.78591867 C43.7063531,0.399171687 33.124815,-1.72974398 23.2005153,1.8628012 C17.2853697,3.99171687 10.8444335,7.3846762 6.24376473,11.7755648 C0.722962232,17.0313253 -0.131447679,21.5552711 0.262895357,23.4846009 C1.44592446,30.2705196 10.647262,34.6614081 14.2620731,37.9213102 C14.0649016,38.0543675 13.9334539,38.1208961 13.7362824,38.1874247 C11.8960149,39.1188253 4.92928795,42.8444277 3.22046812,46.769616 C1.24875295,51.2270331 3.54908732,54.4204066 5.06073562,54.8195783 C9.79285205,56.1501506 14.5906923,53.7551205 17.2196459,49.8299322 C19.8485995,45.904744 19.5199803,40.7820407 18.2712273,38.3870105 C18.2712273,38.3870105 18.2712273,38.3204819 18.2055035,38.3204819 C18.6655704,38.0543675 19.1913611,37.7217244 19.6514279,37.4556099 C20.5715617,36.923381 21.4916954,36.3911521 22.2803815,35.9254518 C21.8203146,37.1894955 21.4916954,38.653125 21.3602478,40.7820407 C21.1630762,43.310128 22.1489338,46.5700301 23.5291345,47.8340738 C24.120649,48.3663027 24.8436112,48.4328313 25.2379543,48.4328313 C26.8153264,48.4328313 27.4725648,47.102259 28.2612509,45.5721009 C29.1813846,43.6427711 30.0357945,41.4473268 30.0357945,41.4473268 C30.0357945,41.4473268 28.9842131,47.4349021 31.876062,47.4349021 C32.9276435,47.4349021 33.9792249,46.0378012 34.4392918,45.3059864 L34.4392918,45.3059864 C34.4392918,45.3059864 34.4392918,45.2394578 34.5050156,45.1729292 C34.6364633,44.9733434 34.7021871,44.9068148 34.7021871,44.9068148 L34.7021871,44.9068148 C35.0965302,44.175 36.0823878,42.445256 37.4625884,39.6510542 C39.3028559,35.9919804 41.0116757,31.4680346 41.0116757,31.4680346 C41.0116757,31.4680346 41.1431234,32.5990211 41.7346379,34.4618223 C42.0632571,35.5262801 42.7204955,36.7237952 43.2462862,37.9213102 C42.8519432,38.5200678 42.5890478,38.8527108 42.5890478,38.8527108 L42.5890478,38.8527108 C42.2604287,39.3184111 41.8660856,39.7841114 41.4717426,40.3163404 C40.091542,41.9795557 38.3827221,43.9754142 38.1198268,44.5741717 C37.8569314,45.2394578 37.9226553,45.7716867 38.448446,46.1708584 C38.842789,46.4369729 39.5000274,46.5035015 40.2229896,46.4369729 C41.5374664,46.3704443 42.3918763,46.0378012 42.8519432,45.8382154 C43.5749054,45.5721009 44.3635915,45.1729292 45.1522776,44.6407003 C46.5324782,43.5762425 47.3868881,42.0460843 47.3211643,40.0502259 C47.2554404,38.9192395 46.9268212,37.8547816 46.4667544,36.7903238 C46.598202,36.590738 46.7296497,36.3911521 46.8610974,36.2580949 C49.0957079,32.9316642 50.8045278,29.339119 50.8045278,29.339119 C50.8045278,29.339119 50.9359754,30.4701054 51.52749,32.3329066 C51.7903853,33.2643072 52.3161761,34.2622364 52.7762429,35.2601657 C50.6730801,36.9899096 49.4243271,38.9857681 48.8985364,40.3163404 C48.0441265,42.7778991 48.7013649,43.8423569 49.9501178,44.1084714 C50.4759086,44.2415286 51.2645946,43.9754142 51.8561092,43.7092997 C52.5790714,43.4431852 53.4334813,43.0440136 54.2878912,42.445256 C55.6680919,41.3807982 57.0482925,39.9171687 56.9825686,37.9213102 C56.9168448,36.9899096 56.7196733,36.1250377 56.3910541,35.2601657 C58.1655978,34.5283509 60.4659321,34.0626506 63.3577811,34.4618223 C69.6015458,35.193637 70.8502987,39.1853539 70.6531272,40.8485693 C70.3902319,42.5117846 69.0757551,43.4431852 68.681412,43.7092997 C68.2213452,43.9754142 68.0898975,44.1084714 68.1556213,44.3080572 C68.2213452,44.5741717 68.4185167,44.5741717 68.8128597,44.5076431 C69.3386504,44.4411145 72.0990517,43.1770708 72.2304994,40.0502259 C72.4276709,36.058509 68.7471359,31.7341491 62.2404758,31.8006777 L62.2404758,31.8006777 L62.2404758,31.8006777 L62.2404758,31.8006777 Z M13.8677301,48.3663027 C11.7645672,50.6948042 8.8727183,51.5596762 7.62396536,50.8278614 C6.30948857,50.0295181 6.83527928,46.6365587 9.33278518,44.175 C10.9101573,42.7113705 12.8818725,41.3142696 14.1963493,40.4493976 C14.5249685,40.2498117 14.9193115,39.9836973 15.5108261,39.6510542 C15.5765499,39.5845256 15.6422737,39.5845256 15.6422737,39.5845256 L15.6422737,39.5845256 C15.7737214,39.517997 15.8394453,39.4514684 15.9708929,39.3849398 C16.9567505,42.9109563 16.0366168,45.9712726 13.8677301,48.3663027 L13.8677301,48.3663027 L13.8677301,48.3663027 L13.8677301,48.3663027 Z M28.9842131,37.9213102 C28.2612509,39.7175828 26.7496026,44.3080572 25.8294688,44.0419428 C25.0407828,43.8423569 24.5807159,40.3163404 25.6980212,36.923381 C26.2895357,35.193637 27.4725648,33.13125 28.1298032,32.3329066 C29.2471085,31.068863 30.4958614,30.6031627 30.8244806,31.1353916 C31.2188237,31.8006777 29.44428,36.7903238 28.9842131,37.9213102 L28.9842131,37.9213102 L28.9842131,37.9213102 L28.9842131,37.9213102 Z M41.4717426,43.9754142 C41.1431234,44.1084714 40.880228,44.2415286 40.7487803,44.175 C40.6830565,44.1084714 40.880228,43.9088855 40.880228,43.9088855 C40.880228,43.9088855 42.4576002,42.1791416 43.0491147,41.4473268 C43.3777339,40.9816265 43.8378008,40.4493976 44.2978677,39.8506401 L44.2978677,40.0502259 C44.2978677,42.0460843 42.3918763,43.4431852 41.4717426,43.9754142 L41.4717426,43.9754142 L41.4717426,43.9754142 L41.4717426,43.9754142 Z M51.133147,41.7799699 C50.9359754,41.6469127 50.9359754,41.1146837 51.7246615,39.3849398 C51.9875569,38.7196536 52.7105191,37.6551958 53.8935482,36.590738 C54.0249959,36.9899096 54.0907197,37.4556099 54.0907197,37.8547816 C54.0249959,40.382869 52.2504522,41.3142696 51.133147,41.7799699 L51.133147,41.7799699 L51.133147,41.7799699 L51.133147,41.7799699 Z" id="Shape"></path>
                </g>
                <g id="logo--jekyll">
                    <path d="M124.964845,61.969246 L124.964845,61.969246 C124.076974,61.969246 123.189103,61.8315366 122.369529,61.487263 C118.886343,60.1101687 116.974005,56.2543045 117.930174,52.7427138 L117.861876,52.7427138 L118.066769,52.1230214 L135.960787,5.23295855 C136.233978,4.54441138 136.097383,2.89189815 135.960787,1.99678682 C135.960787,1.72136795 135.960787,1.51480379 136.029085,1.37709436 L136.029085,1.30823964 C136.029085,1.23938492 136.029085,1.23938492 136.097383,1.1705302 C136.370574,0.413128307 137.258445,0.0688547178 138.692698,0.0688547178 C140.400143,0.0688547178 142.790565,0.61969246 145.180987,1.51480379 C147.22992,2.34106041 149.07396,3.30502646 150.371618,4.2689925 C151.874169,5.43952271 152.488849,6.47234347 152.14736,7.36745481 C152.14736,7.43630952 152.079062,7.43630952 152.079062,7.50516424 L152.079062,7.57401896 C152.010765,7.78058311 151.874169,7.91829255 151.737574,8.05600198 C150.986298,8.74454916 149.825236,9.91507937 149.620342,10.4659171 L131.521431,57.9756724 L131.453134,57.9756724 C130.223774,60.3855875 127.696756,61.969246 124.964845,61.969246 L124.964845,61.969246 L124.964845,61.969246 Z M119.364427,52.3984403 L119.296129,52.5361497 C118.135067,55.634612 119.705916,59.1462026 122.779316,60.3167328 C123.462294,60.5921517 124.213569,60.7298611 124.896547,60.7298611 C127.355267,60.7298611 129.540796,59.2150573 130.496965,56.8739969 L130.565263,56.7362875 L148.322685,10.1216435 C148.664174,9.08882275 150.439916,7.50516424 150.849702,7.16089065 L150.918,7.09203593 C150.986298,7.09203593 150.986298,7.02318122 150.986298,7.02318122 L150.986298,7.02318122 C150.986298,6.88547178 150.849702,6.33463404 149.620342,5.37066799 C148.45928,4.47555666 146.683538,3.51159061 144.7712,2.75418871 C142.517374,1.85907738 140.263547,1.37709436 138.692698,1.37709436 C137.668231,1.37709436 137.326743,1.58365851 137.258445,1.72136795 L137.258445,1.72136795 L137.258445,1.79022266 L137.258445,1.79022266 C137.326743,2.06564153 137.599934,4.47555666 137.190147,5.71494158 L119.364427,52.3984403 L119.364427,52.3984403 L119.364427,52.3984403 Z" id="tube_2_"></path>
                    <path d="M142.175885,22.7220569 C142.175885,22.7220569 139.717165,25.613955 137.463338,26.6467758 C135.209511,27.6795966 133.570365,27.4041777 131.521431,28.5747079 C129.472498,29.7452381 128.516329,31.3977513 128.516329,31.3977513 L120.320596,52.949278 C119.432725,55.3591931 120.730383,58.2510913 123.189103,59.2150573 C125.647823,60.1790234 128.379734,58.9396384 129.335903,56.4608686 L129.335903,56.4608686 L142.175885,22.7220569 L142.175885,22.7220569 L142.175885,22.7220569 Z M133.980151,35.1159061 C134.389938,34.9093419 134.868023,35.1159061 135.004618,35.5290344 C135.209511,35.9421627 135.004618,36.4241457 134.594831,36.5618552 C134.185045,36.7684193 133.70696,36.5618552 133.570365,36.1487269 C133.365471,35.8044533 133.570365,35.3224702 133.980151,35.1159061 L133.980151,35.1159061 L133.980151,35.1159061 Z M130.63356,31.6043155 C130.906751,31.466606 131.179943,31.6043155 131.316538,31.8797343 C131.453134,32.1551532 131.316538,32.4305721 131.043347,32.5682815 C130.770156,32.705991 130.496965,32.5682815 130.360369,32.2928627 C130.223774,32.0174438 130.428667,31.6731702 130.63356,31.6043155 L130.63356,31.6043155 L130.63356,31.6043155 Z M127.013778,43.7916005 C126.603992,43.9981647 126.125907,43.7916005 125.989312,43.3784722 C125.784418,42.9653439 125.989312,42.4833609 126.399098,42.3456515 C126.808885,42.1390873 127.286969,42.3456515 127.423565,42.7587798 C127.628458,43.1719081 127.423565,43.5850364 127.013778,43.7916005 L127.013778,43.7916005 L127.013778,43.7916005 Z M127.765054,40.9685571 C127.423565,40.2111552 127.765054,39.3848986 128.516329,39.040625 C129.267605,38.6963514 130.087178,39.040625 130.428667,39.7980269 C130.770156,40.5554288 130.428667,41.3816854 129.677391,41.725959 C128.926116,42.0013779 128.106543,41.725959 127.765054,40.9685571 L127.765054,40.9685571 L127.765054,40.9685571 Z M129.609094,48.4737213 C129.882285,48.3360119 130.155476,48.4737213 130.292071,48.7491402 C130.428667,49.0245591 130.292071,49.299978 130.01888,49.4376874 C129.745689,49.5753968 129.472498,49.4376874 129.335903,49.1622685 C129.267605,48.8868496 129.335903,48.5425761 129.609094,48.4737213 L129.609094,48.4737213 L129.609094,48.4737213 Z" id="liquid_2_"></path>
                    <ellipse id="top_2_" transform="translate(143.883124, 4.811168) rotate(-68.960432) translate(-143.883124, -4.811168) " cx="143.883124" cy="4.81116832" rx="1.29761228" ry="5.0262182"></ellipse>
                    <path d="M35.1733553,28.7124173 C35.9246309,29.3321098 37.3588842,28.9878362 38.3150531,27.8861607 C39.3395198,26.7844852 39.4761153,25.3385362 38.656542,24.7188437 C37.9052664,24.0991512 36.4710131,24.4434248 35.5148442,25.5451003 C34.5586754,26.6467758 34.353782,28.0238701 35.1733553,28.7124173 L35.1733553,28.7124173 L35.1733553,28.7124173 Z M32.8512309,30.7780589 C32.6463376,30.7780589 32.3048487,31.1223325 32.5780398,31.3288966 C32.9878265,31.466606 33.1927198,31.8797343 33.1927198,32.3617174 C32.8512309,34.5650683 30.1193198,37.0438382 29.0948532,37.8700948 C28.8216621,38.1455137 29.2314487,38.6963514 29.436342,38.4897873 C29.9827243,38.0078042 31.2120843,37.0438382 32.2365509,35.8044533 C30.5974043,39.4537533 27.4557065,44.2047288 26.2263465,45.8572421 C21.5137999,52.5361497 14.2742355,58.5953649 9.28849772,58.5953649 C5.32722664,58.5953649 1.98063554,55.9100309 1.22935999,51.9164572 C1.16106222,51.5033289 0.614679996,51.3656195 0.682977774,51.9853119 C1.57084888,57.4936894 5.7370133,59.5593309 10.7910488,59.5593309 C16.3231688,59.5593309 22.8114576,55.4969026 26.3629421,51.3656195 C32.1682531,44.6867119 35.9246309,36.9749835 34.9001642,32.6371362 C34.6269731,30.984623 33.4659109,30.7092041 32.8512309,30.7780589 L32.8512309,30.7780589 L32.8512309,30.7780589 Z M68.3660752,45.3064043 C69.8686263,44.9621307 71.166284,44.0670194 71.166284,42.7587798 C71.166284,42.6210703 70.8930929,42.6210703 70.8930929,42.7587798 C70.8930929,43.5850364 70.0052218,44.2047288 68.9807551,44.3424383 C66.6586307,44.6867119 61.9460841,41.9325231 59.6922574,39.040625 C62.0143819,39.9357363 66.9318218,38.6274967 69.1856485,36.9749835 C71.3028796,35.4601797 72.1224529,33.7388117 72.3273462,32.3617174 C72.6005373,30.0895117 70.1418174,28.7124173 66.6586307,30.0895117 C64.4731018,30.984623 61.8094885,32.9814098 59.0775774,36.6307099 C61.9460841,31.8108796 67.6830974,23.9614418 73.2152173,18.8661927 C80.0449951,12.7381228 83.9379684,13.908653 77.8594662,20.3809965 C75.3324484,22.9974757 70.6199018,26.5090664 67.3416085,27.9550154 C66.3171418,28.3681437 66.7952263,28.9878362 67.5465018,28.6435626 C71.0296885,27.1287588 75.6739373,23.8925871 78.4741462,21.2761078 C86.7381773,13.2889605 79.8401017,7.22974537 70.6881996,15.6988757 C64.4731018,21.482672 60.443533,27.5418871 56.8920486,35.391325 C55.6626886,36.837274 54.7748175,38.076659 53.682053,39.040625 C53.5454575,39.1783344 53.4771597,39.2471892 53.3405641,39.3848986 C50.3354619,42.0013779 45.5546175,45.5818232 42.5495153,45.6506779 C40.4322842,45.7195326 39.5444131,44.1358741 39.9541998,42.0013779 C40.500582,38.7652061 43.8471731,34.9093419 46.7156797,33.6011023 C50.4037597,31.8797343 52.5892886,35.1847608 47.7401464,37.8700948 C45.8961064,38.8340608 43.6422797,39.3160439 42.7544086,39.3160439 C41.729942,39.3160439 41.7982398,39.7291722 42.6861109,39.7980269 C44.1203642,39.8668816 46.5107864,39.2471892 48.0816353,38.4897873 C53.067373,36.0798721 53.3405641,31.6731702 47.9450397,31.466606 C42.0714309,31.2600419 35.1050576,36.2864363 35.1733553,42.6210703 C35.2416531,45.5129685 37.4954798,47.0277723 40.5688798,47.0277723 C45.7595108,46.9589175 50.3354619,42.9653439 54.0918397,39.522608 C54.6382219,39.040625 55.1846041,38.558642 55.6626886,38.076659 C54.3650308,41.4505401 53.682053,44.6178571 53.9552441,46.9589175 C54.1601375,48.6802855 55.1163063,49.4376874 55.8675819,50.1262346 C56.0041774,50.263944 56.3456663,50.1262346 56.140773,49.781961 C55.0480086,48.4737213 55.3894974,44.4801477 56.8920486,40.6931382 C58.2580041,43.2407628 63.2437418,46.4769345 68.3660752,45.3064043 L68.3660752,45.3064043 L68.3660752,45.3064043 Z M62.2192752,34.2207948 C68.2977774,28.7124173 70.6199018,33.669957 66.7952263,36.6307099 C64.8145907,38.1455137 60.8533196,39.3160439 59.5556619,38.6274967 L59.2824708,38.4897873 C59.1458752,38.2143684 58.9409819,37.9389495 58.8726841,37.6635306 C59.8971508,36.4241457 61.058213,35.3224702 62.2192752,34.2207948 L62.2192752,34.2207948 L62.2192752,34.2207948 Z M95.7534839,28.0238701 C98.1439061,28.299289 97.1877372,25.3385362 94.7290172,26.0270833 C93.6362528,26.3713569 92.5434883,28.4369985 91.7922128,30.3649306 C89.4017906,34.0142306 85.3039239,39.040625 82.4354173,41.6571043 C79.9083995,43.8604552 77.5862751,44.411293 80.4547817,40.3488646 C81.615844,38.6963514 83.0500973,36.9749835 83.9379684,35.1847608 C85.9186039,30.7780589 81.6841417,28.781272 78.2692529,31.466606 C76.2886173,32.9814098 73.5567062,36.2175816 71.4394751,37.9389495 C70.8930929,38.4209325 71.0296885,39.1094797 71.5760707,38.6274967 C73.2835151,37.2504023 76.2203195,34.0830853 78.7473373,32.2240079 C80.8645684,30.5714947 81.6841417,31.6731702 80.4547817,33.0502646 C78.7473373,35.0470514 75.8105329,38.4209325 75.0592573,40.6242835 C74.0347907,43.8604552 75.2641507,45.3064043 77.3813818,45.3064043 C80.2498884,45.3064043 84.6209462,40.7619929 87.4894528,37.1126929 C88.4456217,35.873308 89.4700884,34.4962136 90.3579595,33.0502646 C87.8309417,38.0078042 85.2356262,42.9653439 81.9573328,47.5097553 C77.313084,53.913244 71.5077729,58.6642196 66.0439507,58.6642196 C62.0826796,58.6642196 58.6677908,55.9788856 57.9165152,51.9853119 C57.8482174,51.5721836 57.370133,51.4344742 57.370133,52.0541667 C58.2580041,57.5625441 62.4241685,59.6281856 67.478204,59.6281856 C73.010324,59.6281856 78.3375506,56.3920139 82.0256306,52.3984403 C89.5383861,44.3424383 90.494555,35.3224702 92.7483817,30.2960758 C93.9777417,28.0238701 95.0022083,27.9550154 95.7534839,28.0238701 L95.7534839,28.0238701 L95.7534839,28.0238701 Z M126.419186,20.3121418 C127.51195,18.3842097 127.443653,16.9382606 124.916635,16.9382606 C123.004297,17.0071153 119.452813,18.3842097 117.813666,19.6235946 C117.472177,19.9678682 117.608773,20.1744323 118.086857,19.9678682 C118.428346,19.8301587 118.769835,19.6235946 119.111324,19.4858851 C120.955364,18.4530644 120.204088,20.5875606 119.794302,21.4138172 C117.608773,25.3385362 113.715799,30.7780589 111.666866,33.4633929 C110.710697,34.7716325 109.549635,36.1487269 108.525168,37.2504023 C106.544533,39.1094797 102.651559,42.4833609 99.714755,43.6538911 C90.0847684,47.3031911 102.310071,30.7780589 103.334537,29.4698192 C105.588364,26.5779211 110.642399,21.6203814 112.14495,19.1416116 C113.237715,17.2136795 113.169417,15.7677304 110.642399,15.7677304 C108.730062,15.8365851 105.178577,17.2136795 103.53943,18.4530644 C103.197942,18.797338 103.334537,19.0039021 103.812622,18.797338 C104.15411,18.6596285 104.495599,18.4530644 104.837088,18.3153549 C106.681128,17.2825342 105.929853,19.4170304 105.520066,20.243287 C103.334537,24.168006 99.4415639,29.6075287 97.3926305,32.2928627 C95.6851861,34.5650683 93.6362528,36.837274 92.0654039,38.1455137 C91.4507239,38.6963514 91.7922128,39.1783344 92.4068928,38.6963514 C92.953275,38.3520778 93.8411461,37.4569665 94.7290172,36.4930004 C93.0215728,40.004591 91.5873195,44.9621307 96.1632705,45.5129685 C100.056244,46.0638062 104.700493,42.0013779 107.705595,39.040625 C108.047084,38.6963514 108.388573,38.3520778 108.798359,37.9389495 C108.866657,37.8700948 109.003253,37.7323854 109.07155,37.6635306 C107.364106,41.1751213 105.929853,46.0638062 110.505804,46.6834987 C115.491542,47.3720459 121.706639,40.5554288 124.165359,38.076659 C124.643444,37.5946759 124.506848,36.7684193 123.687275,37.5946759 C122.253021,39.040625 117.472177,43.5161817 113.98899,44.8244213 C104.359004,48.4737213 116.584306,31.9485891 117.608773,30.6403494 C119.794302,27.817306 124.848337,22.7909116 126.419186,20.3121418 L126.419186,20.3121418 L126.419186,20.3121418 Z" id="jekyll-text_1_"></path>
                </g>
                <g id="logo--coffeescript" transform="translate(292.000000, 14.000000)">
                    <path d="M142.542033,8.50158146 C144.386512,8.50158146 145.718636,7.18420968 145.718636,5.36015644 C145.718636,3.5361032 144.386512,2.21873142 142.542033,2.21873142 C140.697553,2.52274029 139.365429,3.73877579 139.365429,5.56282902 C139.365429,7.18420968 140.697553,8.50158146 142.542033,8.50158146 L142.542033,8.50158146 L142.542033,8.50158146 Z" id="Shape_3_"></path>
                    <path d="M172.668529,10.5283073 C173.488297,7.18420968 174.000653,4.54946611 174.000653,4.54946611 L168.262273,5.36015644 L167.237562,10.5283073 L165.905438,10.5283073 L165.598025,12.0483516 L166.930149,12.0483516 L164.573314,23.4993525 C164.265901,24.3100428 164.265901,24.8167243 164.265901,25.5260783 C164.265901,27.856813 165.290611,29.8835388 168.159801,29.8835388 C169.491925,29.8835388 171.028992,29.3768574 172.361116,26.2354324 L171.336405,26.2354324 C170.311694,26.2354324 170.004281,25.7287509 170.004281,24.9180606 C170.004281,24.4113791 170.004281,24.1073703 170.311694,23.6006888 L172.668529,12.2510242 L175.025364,12.2510242 L175.332777,10.7309799 L172.668529,10.7309799 L172.668529,10.5283073 L172.668529,10.5283073 L172.668529,10.5283073 Z" id="Shape_4_"></path>
                    <path d="M136.496239,13.3657234 C136.496239,11.8456791 135.471528,10.5283073 133.831991,10.5283073 C131.987512,10.5283073 130.450446,11.8456791 129.118322,12.859042 L129.630677,10.5283073 L124.097239,10.5283073 L121.432991,22.6886622 C119.588512,24.715388 117.744032,26.5394412 114.6699,26.5394412 C112.825421,26.5394412 111.80071,26.0327598 111.80071,23.3980162 C111.80071,19.2432283 114.157545,12.2510242 116.821793,12.2510242 C117.641561,12.2510242 117.846503,12.7577057 117.846503,13.7710686 C117.846503,14.27775 117.53909,15.0884404 117.334148,16.1018033 C117.846503,16.4058122 118.153917,16.6084847 118.666272,16.6084847 C119.690983,16.6084847 120.715693,15.5951218 120.715693,13.7710686 C120.715693,11.9470153 119.895925,10.426971 116.514379,10.426971 C108.624106,10.426971 106.06233,19.4459009 106.267272,23.9046977 C106.267272,28.2621582 108.624106,29.8835388 112.313065,29.8835388 C116.206966,29.8835388 118.871214,27.856813 120.920636,25.5260783 L120.100867,29.6808663 L125.634305,29.6808663 L128.810908,15.1897767 C129.835619,14.3790863 130.347975,13.6697323 131.680099,13.6697323 C133.012222,13.6697323 131.680099,16.3044759 134.036933,16.3044759 C135.67647,16.2031396 136.496239,14.6830952 136.496239,13.3657234 L136.496239,13.3657234 L136.496239,13.3657234 Z" id="Shape_5_"></path>
                    <path d="M158.732463,10.5283073 C156.887983,10.5283073 155.350917,11.3389976 154.326206,12.0483516 L154.838562,9.2109355 L149.305124,9.2109355 L146.435933,22.8913348 L146.435933,22.8913348 C145.923578,24.715388 144.386512,26.2354324 143.054388,26.2354324 C142.029677,26.2354324 141.517322,25.9314235 141.517322,24.9180606 C141.517322,24.6140517 141.517322,24.1073703 141.824735,23.6006888 L144.693925,10.6296436 L139.160487,10.6296436 L136.496239,22.7899985 C136.188826,23.8033614 136.188826,24.6140517 136.188826,25.424742 C136.188826,28.5661671 138.033305,30.0862114 140.39014,30.0862114 C141.722264,30.0862114 144.079099,29.57953 145.923578,27.4514679 L143.25933,39.3078139 L148.99771,37.9904421 L151.047132,28.6675034 C151.559487,29.4781937 152.379256,29.9848751 154.223735,29.9848751 C161.806595,29.9848751 163.651074,21.6752993 163.651074,16.5071484 C163.446132,11.8456791 161.39671,10.5283073 158.732463,10.5283073 L158.732463,10.5283073 L158.732463,10.5283073 Z M152.686669,26.5394412 C151.8669,26.5394412 151.354545,26.0327598 151.149603,25.7287509 L153.506438,15.0884404 C154.326206,13.7710686 155.350917,13.2643871 156.170686,13.2643871 C156.990454,13.2643871 158.015165,13.568396 158.015165,16.4058122 C158.015165,19.851246 156.683041,26.5394412 152.686669,26.5394412 L152.686669,26.5394412 L152.686669,26.5394412 Z" id="Shape_6_"></path>
                    <path d="M57.5935107,10.5283073 L53.6996098,10.5283073 L54.5193784,7.38688226 C55.0317338,4.75213869 56.3638578,4.24545724 57.1836264,4.24545724 C58.003395,4.24545724 58.7206925,4.75213869 58.7206925,5.56282902 L58.7206925,6.57619193 L60.5651719,6.57619193 L60.5651719,5.05614757 C60.5651719,2.421404 58.5157504,0.90135964 56.1589156,0.90135964 C54.6218495,0.90135964 52.4699569,1.40804109 50.9328908,3.23209433 C50.1131222,1.71204997 48.576056,0.90135964 46.7315767,0.90135964 C44.0673287,0.90135964 40.9931964,1.91472255 39.6610724,7.38688226 L37.8165931,15.3924492 C36.7918823,15.8991307 35.7671716,16.2031396 34.6399897,16.2031396 L34.1276343,16.2031396 C34.4350476,12.3523605 32.7955104,10.2242984 29.4139649,10.2242984 C21.523692,10.2242984 18.9619151,18.7365468 18.9619151,23.3980162 C17.1174358,25.2220695 14.760601,26.5394412 12.1988241,26.5394412 C8.50986539,26.5394412 7.48515463,24.2087066 7.48515463,20.5606001 C7.48515463,12.7577057 11.1741134,2.72541288 15.5803696,2.72541288 C17.424849,2.72541288 17.9372044,3.73877579 17.9372044,5.05614757 C17.9372044,6.57619193 17.1174358,8.19757259 16.092725,8.40024517 C16.9124936,9.2109355 17.6297911,9.41360808 18.1421465,9.41360808 C20.191568,9.41360808 20.8063945,7.89356371 20.8063945,6.06951048 C20.8063945,2.421404 17.9372044,0.90135964 14.2482456,0.90135964 C4.30855128,0.90135964 0.927005779,13.8724049 0.927005779,20.864609 C0.927005779,27.856813 3.59125375,30.1875477 9.32963399,30.1875477 C12.1988241,30.1875477 16.4001382,28.8701759 19.0643862,25.5260783 C19.5767416,28.6675034 21.9335763,29.8835388 25.1101797,29.8835388 C29.8238492,29.8835388 33.71775,25.5260783 34.2301054,18.5338743 C35.2548162,18.2298654 36.2795269,18.0271928 37.4067088,17.5205114 L34.7424608,29.3768574 C31.0535021,30.3902203 28.1843119,31.7075921 28.1843119,35.0516897 C28.1843119,37.6864332 30.2337335,39.2064776 32.5905682,39.2064776 C34.4350476,39.2064776 36.2795269,38.6997962 37.8165931,36.8757429 C38.3289484,38.3957873 39.8660146,39.2064776 42.0179072,39.2064776 C44.6821551,39.2064776 47.7562874,38.1931147 49.0884114,32.720955 L53.4946677,12.2510242 L57.3885685,12.2510242 L57.5935107,10.5283073 L57.5935107,10.5283073 L57.5935107,10.5283073 Z M30.951031,18.5338743 C30.4386756,22.8913348 28.286783,26.5394412 26.5447747,26.5394412 C25.0077086,26.5394412 24.4953532,26.0327598 24.4953532,23.3980162 C24.4953532,19.7499098 26.852188,12.7577057 29.7213781,12.7577057 C30.7460888,12.7577057 31.0535021,13.2643871 31.2584442,15.0884404 C30.4386756,15.3924492 29.9263202,16.1018033 29.9263202,17.1151662 C29.8238492,17.5205114 30.1312624,18.3312017 30.951031,18.5338743 L30.951031,18.5338743 L30.951031,18.5338743 Z M34.3325765,32.8222913 C33.8202211,35.153026 32.7955104,35.9637163 31.9757417,35.9637163 C31.1559731,35.9637163 30.4386756,35.153026 30.4386756,34.6463445 C30.4386756,32.6196187 32.283155,31.5049195 34.6399897,30.7955655 L34.3325765,32.8222913 L34.3325765,32.8222913 L34.3325765,32.8222913 Z M43.4525022,32.8222913 C42.9401469,35.153026 41.9154361,35.9637163 41.0956675,35.9637163 C40.0709567,35.9637163 39.2511881,35.6597074 39.046246,35.153026 C39.3536592,34.6463445 39.5586014,33.6329816 39.8660146,32.8222913 L40.6857832,29.4781937 L44.5796841,28.6675034 L43.4525022,32.8222913 L43.4525022,32.8222913 L43.4525022,32.8222913 Z M44.7846262,27.5528042 L40.8907253,28.3634945 L44.2722708,12.3523605 L48.1661717,12.3523605 L44.7846262,27.5528042 L44.7846262,27.5528042 L44.7846262,27.5528042 Z M49.2933536,6.67752822 L48.473585,10.5283073 L44.5796841,10.5283073 L45.0920395,7.38688226 C45.6043948,4.75213869 46.9365188,4.24545724 47.7562874,4.24545724 C48.576056,4.24545724 49.2933536,4.75213869 49.2933536,5.56282902 L49.2933536,6.67752822 L49.2933536,6.67752822 L49.2933536,6.67752822 Z" id="Shape_7_"></path>
                    <path d="M100.836305,8.70425404 C101.34866,9.2109355 101.861015,9.51494437 102.680784,9.51494437 C104.525263,9.51494437 105.857387,7.9949 105.857387,5.66416531 C105.857387,1.50937739 101.451131,1.00269593 99.6066518,1.00269593 C94.5855691,1.00269593 90.6916682,3.84011208 90.6916682,7.69089113 C90.6916682,13.3657234 98.581941,15.6964581 98.581941,22.1819807 C98.581941,25.3234058 96.7374617,27.3501316 94.1756848,27.3501316 C91.81885,27.3501316 90.486726,25.5260783 90.486726,23.7020251 C90.486726,21.0672815 92.8435608,20.0539186 94.8929823,20.0539186 C94.8929823,18.0271928 92.8435608,17.4191751 91.5114368,17.4191751 C88.8471888,17.4191751 85.7730565,19.4459009 85.7730565,23.6006888 C85.7730565,28.2621582 89.4620153,30.0862114 93.8682715,30.0862114 C99.4017096,30.0862114 104.627734,26.9447864 104.627734,20.5606001 C104.627734,12.2510242 96.0201641,11.5416702 96.0201641,6.06951048 C96.0201641,3.73877579 97.3522881,2.72541288 99.7091229,2.72541288 C102.065958,2.72541288 102.578313,4.04278466 102.578313,5.36015644 C102.578313,6.67752822 101.963487,7.89356371 100.836305,8.70425404 L100.836305,8.70425404 L100.836305,8.70425404 Z" id="Shape_8_"></path>
                    <path d="M84.8508169,13.8724049 C84.8508169,12.0483516 84.0310483,10.2242984 80.6495028,10.2242984 C73.0666431,10.2242984 70.4023952,18.7365468 70.197453,23.3980162 C68.3529737,25.2220695 66.5084943,26.7421138 63.9467174,26.7421138 C62.102238,26.7421138 61.0775273,26.2354324 61.2824694,23.6006888 L61.2824694,22.0806444 C65.9961389,21.7766356 70.197453,18.432538 70.197453,14.0750775 C70.197453,12.2510242 69.3776844,10.426971 65.9961389,10.426971 C58.1058661,10.426971 55.5440892,19.4459009 55.5440892,23.9046977 C55.5440892,28.3634945 57.9009239,29.8835388 61.5898827,29.8835388 C65.4837835,29.8835388 68.3529737,27.856813 70.5048663,25.2220695 C71.0172216,28.5661671 73.1691142,29.8835388 76.2432465,29.8835388 C79.3173788,29.8835388 81.9816267,28.5661671 82.8013953,24.2087066 C81.4692714,25.2220695 79.624792,26.2354324 78.3951391,26.2354324 C77.1654862,26.2354324 76.0383043,25.424742 76.0383043,23.0940074 L76.0383043,22.0806444 C80.4445606,21.6752993 84.8508169,18.3312017 84.8508169,13.8724049 L84.8508169,13.8724049 L84.8508169,13.8724049 Z M80.956916,12.3523605 C81.4692714,12.3523605 81.7766846,12.859042 81.7766846,13.8724049 C81.7766846,17.0138299 79.1124366,20.0539186 76.0383043,20.0539186 C77.0630151,16.5071484 78.9074945,12.3523605 80.956916,12.3523605 L80.956916,12.3523605 L80.956916,12.3523605 Z M65.9961389,12.3523605 C66.8159075,12.3523605 67.0208497,12.859042 67.0208497,13.8724049 C67.0208497,17.0138299 64.3566017,20.0539186 61.4874116,20.0539186 C62.102238,16.5071484 64.1516596,12.3523605 65.9961389,12.3523605 L65.9961389,12.3523605 L65.9961389,12.3523605 Z" id="Shape_9_"></path>
                </g>
            </g>
        </g>
    </g>
</svg>