<?xml version="1.0" encoding="utf-8"?>
<!-- Generator: Adobe Illustrator 19.2.1, SVG Export Plug-In . SVG Version: 6.00 Build 0)  -->
<svg version="1.1" id="Layer_1" xmlns="http://www.w3.org/2000/svg" xmlns:xlink="http://www.w3.org/1999/xlink" x="0px" y="0px"
	 viewBox="0 0 233.4 70" style="enable-background:new 0 0 233.4 70;" xml:space="preserve">
<style type="text/css">
	.st0{fill:#28334C;}
</style>
<title>coffeescript</title>
<desc>Created with Sketch.</desc>
<g>
	<path id="Shape" class="st0" d="M43.8,29c-4.3,0.9-10,1.7-16.8,1.7c-7.1,0-12.8-0.9-17.1-1.7c-4.3-0.9-6.3-2-7.1-3.4
		c0.3,2.6,1.1,5.1,2,7.4c-0.9,0.9-2,1.7-2.6,2.6c-1.7,2-2.3,4.3-2.3,6.5c0,2.3,1.4,4.3,2.8,5.7c2,1.4,3.7,1.7,6.3,1.4
		c0.9-0.3,1.7-0.6,2.6-0.9c-1.7,0-3.4-0.6-5.1-1.7c-1.7-1.4-2.8-2.8-3.1-5.1c-0.6-2,0-4,1.1-5.4c0.6-0.6,0.9-0.9,1.1-0.9
		c0.6,1.4,1.4,2.8,2,4.3c1.7,2.6,3.4,4.8,5.1,7.1c0.6,1.4,1.4,2.8,1.4,4.3c1.1,1.4,2.8,2.6,4.8,3.1c2.3,0.9,5.1,1.1,7.4,1.1h0.3
		c2.6,0,5.1-0.3,8-1.1c1.7-0.6,3.4-1.7,4.6-3.1l0,0c0.3-1.4,0.6-2.8,1.4-4.3c1.7-2.3,3.4-4.5,5.1-7.1c2.3-4.3,3.7-8.8,4.6-13.6
		C49.8,27.1,47.5,28.2,43.8,29L43.8,29z"/>
	<path id="Shape_1_" class="st0" d="M10,25.6c4.3,1.1,10,1.4,16.8,1.4c7.1,0,12.5-0.6,16.8-1.7c4.6-1.1,7.1-2.6,7.1-4
		c0-0.9-1.1-2-2.8-2.6c0.3,0.3,0.6,0.9,0.6,1.1c0,1.4-2.3,2.6-6.3,3.4c-4,0.9-9.1,1.4-15.1,1.4S15.9,24.2,12,23.4
		c-4.3-0.6-6.3-2-6.3-3.4c0-0.3,0-0.9,0.9-1.4c-2.3,0.9-3.7,1.7-3.7,2.8C2.8,22.8,5.1,24.2,10,25.6L10,25.6z"/>
	<path id="Shape_2_" class="st0" d="M20.2,20.8c4.8-0.3,6-3.4,11.7-4c2.8-0.3,4.6,0.3,4.8,1.1c0.3,0.9-1.1,1.4-2.8,1.7
		c-2.3,0.3-3.1-0.6-3.4-1.4c-2,0.3-2.3,1.1-2,1.7c0.3,0.9,2.3,2,6,1.7c4-0.3,5.4-2,5.1-3.4c-0.3-2-3.4-3.7-9.1-3.4
		c-7.4,0.6-7.4,3.7-12.2,4.3c-2,0-3.1-0.3-3.1-1.1c-0.3-0.9,0.9-1.1,2-1.4c1.1,0,2.3,0,2.8,0.3c0.6-0.3,0.6-0.6,0.6-0.6
		c0-0.6-1.7-0.9-3.4-0.9c-3.7,0.3-3.7,2-3.4,2.8C13.9,20,16.8,21.1,20.2,20.8L20.2,20.8z"/>
	<path id="Shape_3_" class="st0" d="M201.5,24.6c1.8,0,3.1-1.3,3.1-3.1c0-1.8-1.3-3.1-3.1-3.1c-1.8,0.3-3.1,1.5-3.1,3.3
		C198.4,23.3,199.7,24.6,201.5,24.6L201.5,24.6z"/>
	<path id="Shape_4_" class="st0" d="M230.9,26.6c0.8-3.3,1.3-5.9,1.3-5.9l-5.6,0.8l-1,5.1h-1.3l-0.3,1.5h1.3L223,39.4
		c-0.3,0.8-0.3,1.3-0.3,2c0,2.3,1,4.3,3.8,4.3c1.3,0,2.8-0.5,4.1-3.6h-1c-1,0-1.3-0.5-1.3-1.3c0-0.5,0-0.8,0.3-1.3l2.3-11.2h2.3
		l0.3-1.5h-2.6V26.6z"/>
	<path id="Shape_5_" class="st0" d="M195.6,29.4c0-1.5-1-2.8-2.6-2.8c-1.8,0-3.3,1.3-4.6,2.3l0.5-2.3h-5.4l-2.6,12
		c-1.8,2-3.6,3.8-6.6,3.8c-1.8,0-2.8-0.5-2.8-3.1c0-4.1,2.3-11,4.9-11c0.8,0,1,0.5,1,1.5c0,0.5-0.3,1.3-0.5,2.3
		c0.5,0.3,0.8,0.5,1.3,0.5c1,0,2-1,2-2.8c0-1.8-0.8-3.3-4.1-3.3c-7.7,0-10.2,8.9-10,13.3c0,4.3,2.3,5.9,5.9,5.9c3.8,0,6.4-2,8.4-4.3
		l-0.8,4.1h5.4l3.1-14.3c1-0.8,1.5-1.5,2.8-1.5s0,2.6,2.3,2.6C194.8,32.2,195.6,30.7,195.6,29.4L195.6,29.4z"/>
	<path id="Shape_6_" class="st0" d="M217.3,26.6c-1.8,0-3.3,0.8-4.3,1.5l0.5-2.8h-5.4l-2.8,13.5l0,0c-0.5,1.8-2,3.3-3.3,3.3
		c-1,0-1.5-0.3-1.5-1.3c0-0.3,0-0.8,0.3-1.3l2.8-12.8h-5.4l-2.6,12c-0.3,1-0.3,1.8-0.3,2.6c0,3.1,1.8,4.6,4.1,4.6
		c1.3,0,3.6-0.5,5.4-2.6l-2.6,11.7l5.6-1.3l2-9.2c0.5,0.8,1.3,1.3,3.1,1.3c7.4,0,9.2-8.2,9.2-13.3C221.9,27.9,219.9,26.6,217.3,26.6
		L217.3,26.6z M211.4,42.4c-0.8,0-1.3-0.5-1.5-0.8l2.3-10.5c0.8-1.3,1.8-1.8,2.6-1.8s1.8,0.3,1.8,3.1
		C216.6,35.8,215.3,42.4,211.4,42.4L211.4,42.4z"/>
	<path id="Shape_7_" class="st0" d="M118.6,26.6h-3.8l0.8-3.1c0.5-2.6,1.8-3.1,2.6-3.1c0.8,0,1.5,0.5,1.5,1.3v1h1.8v-1.5
		c0-2.6-2-4.1-4.3-4.1c-1.5,0-3.6,0.5-5.1,2.3c-0.8-1.5-2.3-2.3-4.1-2.3c-2.6,0-5.6,1-6.9,6.4l-1.8,7.9c-1,0.5-2,0.8-3.1,0.8h-0.5
		c0.3-3.8-1.3-5.9-4.6-5.9c-7.7,0-10.2,8.4-10.2,13c-1.8,1.8-4.1,3.1-6.6,3.1c-3.6,0-4.6-2.3-4.6-5.9c0-7.7,3.6-17.6,7.9-17.6
		c1.8,0,2.3,1,2.3,2.3c0,1.5-0.8,3.1-1.8,3.3c0.8,0.8,1.5,1,2,1c2,0,2.6-1.5,2.6-3.3c0-3.6-2.8-5.1-6.4-5.1c-9.7,0-13,12.8-13,19.7
		s2.6,9.2,8.2,9.2c2.8,0,6.9-1.3,9.5-4.6c0.5,3.1,2.8,4.3,5.9,4.3c4.6,0,8.4-4.3,8.9-11.2c1-0.3,2-0.5,3.1-1l-2.6,11.7
		c-3.6,1-6.4,2.3-6.4,5.6c0,2.6,2,4.1,4.3,4.1c1.8,0,3.6-0.5,5.1-2.3c0.5,1.5,2,2.3,4.1,2.3c2.6,0,5.6-1,6.9-6.4l4.3-20.2h3.8
		L118.6,26.6L118.6,26.6z M92.6,34.5c-0.5,4.3-2.6,7.9-4.3,7.9c-1.5,0-2-0.5-2-3.1c0-3.6,2.3-10.5,5.1-10.5c1,0,1.3,0.5,1.5,2.3
		c-0.8,0.3-1.3,1-1.3,2C91.5,33.5,91.8,34.3,92.6,34.5L92.6,34.5z M95.9,48.6c-0.5,2.3-1.5,3.1-2.3,3.1c-0.8,0-1.5-0.8-1.5-1.3
		c0-2,1.8-3.1,4.1-3.8L95.9,48.6L95.9,48.6z M104.8,48.6c-0.5,2.3-1.5,3.1-2.3,3.1c-1,0-1.8-0.3-2-0.8c0.3-0.5,0.5-1.5,0.8-2.3
		l0.8-3.3l3.8-0.8L104.8,48.6L104.8,48.6z M106.1,43.4l-3.8,0.8l3.3-15.8h3.8L106.1,43.4L106.1,43.4z M110.5,22.8l-0.8,3.8h-3.8
		l0.5-3.1c0.5-2.6,1.8-3.1,2.6-3.1c0.8,0,1.5,0.5,1.5,1.3V22.8L110.5,22.8z"/>
	<path id="Shape_8_" class="st0" d="M160.8,24.8c0.5,0.5,1,0.8,1.8,0.8c1.8,0,3.1-1.5,3.1-3.8c0-4.1-4.3-4.6-6.1-4.6
		c-4.9,0-8.7,2.8-8.7,6.6c0,5.6,7.7,7.9,7.7,14.3c0,3.1-1.8,5.1-4.3,5.1c-2.3,0-3.6-1.8-3.6-3.6c0-2.6,2.3-3.6,4.3-3.6
		c0-2-2-2.6-3.3-2.6c-2.6,0-5.6,2-5.6,6.1c0,4.6,3.6,6.4,7.9,6.4c5.4,0,10.5-3.1,10.5-9.4c0-8.2-8.4-8.9-8.4-14.3
		c0-2.3,1.3-3.3,3.6-3.3c2.3,0,2.8,1.3,2.8,2.6S161.9,24,160.8,24.8L160.8,24.8z"/>
	<path id="Shape_9_" class="st0" d="M145.2,29.9c0-1.8-0.8-3.6-4.1-3.6c-7.4,0-10,8.4-10.2,13c-1.8,1.8-3.6,3.3-6.1,3.3
		c-1.8,0-2.8-0.5-2.6-3.1v-1.5c4.6-0.3,8.7-3.6,8.7-7.9c0-1.8-0.8-3.6-4.1-3.6c-7.7,0-10.2,8.9-10.2,13.3s2.3,5.9,5.9,5.9
		c3.8,0,6.6-2,8.7-4.6c0.5,3.3,2.6,4.6,5.6,4.6s5.6-1.3,6.4-5.6c-1.3,1-3.1,2-4.3,2s-2.3-0.8-2.3-3.1v-1
		C140.9,37.6,145.2,34.3,145.2,29.9L145.2,29.9z M141.4,28.4c0.5,0,0.8,0.5,0.8,1.5c0,3.1-2.6,6.1-5.6,6.1
		C137.6,32.5,139.4,28.4,141.4,28.4L141.4,28.4z M126.8,28.4c0.8,0,1,0.5,1,1.5c0,3.1-2.6,6.1-5.4,6.1C123,32.5,125,28.4,126.8,28.4
		L126.8,28.4z"/>
</g>
</svg>
