<svg width="490" height="71" viewBox="0 0 490 71" xmlns="http://www.w3.org/2000/svg"><title>Group 2</title><desc>Created with Sketch.</desc><g fill="#8C95A3"><path d="M270.876 42.68c-2.724 0-5.161.653-7.096 1.669-.717-1.451-1.434-2.83-1.577-3.773-.143-1.161-.287-1.814-.143-3.192.143-1.379.932-3.265.932-3.41 0-.145-.143-.798-1.72-.871-1.577 0-2.939.29-3.082.726-.143.435-.43 1.379-.645 2.394-.287 1.451-3.154 6.675-4.802 9.432-.502-1.088-1.003-2.031-1.075-2.757-.143-1.161-.287-1.814-.143-3.192.143-1.379.932-3.265.932-3.41 0-.145-.143-.798-1.72-.871-1.577 0-2.939.29-3.082.726-.143.435-.358 1.451-.645 2.394-.358.943-4.157 9.65-5.161 11.899-.502 1.161-.932 2.104-1.29 2.684 0 0 0 .073-.072.145-.287.508-.43.798-.43.798-.215.363-.43.726-.573.726-.072 0-.215-1.088 0-2.467.573-3.047 1.935-7.763 1.935-7.908 0-.073.287-.871-.86-1.306-1.362-.218-1.72.435-1.864.435-.143 0-.143.218-.143.218s1.218-5.296-2.365-5.296c-2.294 0-5.376 2.539-6.952 4.788-1.003.508-3.082 1.669-5.304 2.975-.86.508-1.72.943-2.509 1.451-.072-.073-.143-.145-.143-.218-4.372-4.788-12.543-8.126-12.185-14.583.143-2.322.932-8.489 15.625-15.962 12.113-6.094 21.718-4.353 23.366-.653 2.365 5.296-5.161 15.236-17.632 16.615-4.802.508-7.239-1.306-7.884-2.031-.645-.726-.788-.798-1.003-.653-.43.218-.143.871 0 1.233.358 1.016 1.935 2.757 4.516 3.628 2.294.726 7.884 1.161 14.622-1.451 7.598-2.975 13.475-11.246 11.755-18.211-1.792-6.965-13.332-9.287-24.154-5.369-6.451 2.322-13.475 6.022-18.492 10.81-6.021 5.732-6.952 10.665-6.522 12.769 1.29 7.4 11.325 12.189 15.267 15.744-.215.145-.358.218-.573.29-2.007 1.016-9.604 5.079-11.468 9.359-2.15 4.861.358 8.344 2.007 8.779 5.161 1.451 10.393-1.161 13.26-5.441 2.867-4.281 2.509-9.867 1.147-12.479 0 0 0-.073-.072-.073l1.577-.943c1.003-.58 2.007-1.161 2.867-1.669-.502 1.379-.86 2.975-1.003 5.296-.215 2.757.86 6.312 2.365 7.691.645.58 1.434.653 1.864.653 1.72 0 2.437-1.451 3.297-3.12 1.003-2.104 1.935-4.498 1.935-4.498s-1.147 6.53 2.007 6.53c1.147 0 2.294-1.524 2.795-2.322 0 0 0-.073.072-.145.143-.218.215-.29.215-.29.43-.798 1.505-2.684 3.01-5.732 2.007-3.99 3.87-8.924 3.87-8.924s.143 1.233.788 3.265c.358 1.161 1.075 2.467 1.649 3.773-.43.653-.717 1.016-.717 1.016-.358.508-.788 1.016-1.218 1.596-1.505 1.814-3.369 3.99-3.655 4.643-.287.726-.215 1.306.358 1.741.43.29 1.147.363 1.935.29 1.434-.073 2.365-.435 2.867-.653.788-.29 1.649-.726 2.509-1.306 1.505-1.161 2.437-2.83 2.365-5.006-.072-1.233-.43-2.394-.932-3.555.143-.218.287-.435.43-.58 2.437-3.628 4.301-7.545 4.301-7.545s.143 1.233.788 3.265c.287 1.016.86 2.104 1.362 3.192-2.294 1.886-3.655 4.063-4.229 5.514-.932 2.684-.215 3.845 1.147 4.136.573.145 1.434-.145 2.079-.435.788-.29 1.72-.726 2.652-1.379 1.505-1.161 3.01-2.757 2.939-4.934-.072-1.016-.287-1.959-.645-2.902 1.935-.798 4.444-1.306 7.598-.871 6.809.798 8.171 5.151 7.956 6.965-.287 1.814-1.72 2.83-2.15 3.12-.502.29-.645.435-.573.653.072.29.287.29.717.218.573-.073 3.584-1.451 3.727-4.861.215-4.353-3.799-9.069-10.895-8.997zm-52.753 18.066c-2.294 2.539-5.447 3.483-6.809 2.684-1.434-.871-.86-4.571 1.864-7.255 1.72-1.596 3.87-3.12 5.304-4.063.358-.218.788-.508 1.434-.871.072-.073.143-.073.143-.073l.358-.218c1.075 3.845.072 7.183-2.294 9.795zm16.485-11.391c-.788 1.959-2.437 6.965-3.44 6.675-.86-.218-1.362-4.063-.143-7.763.645-1.886 1.935-4.136 2.652-5.006 1.218-1.379 2.58-1.886 2.939-1.306.43.726-1.505 6.167-2.007 7.4zm13.618 6.602c-.358.145-.645.29-.788.218-.072-.073.143-.29.143-.29s1.72-1.886 2.365-2.684c.358-.508.86-1.088 1.362-1.741v.218c0 2.177-2.079 3.7-3.082 4.281zm10.536-2.394c-.215-.145-.215-.726.645-2.612.287-.726 1.075-1.886 2.365-3.047.143.435.215.943.215 1.379-.072 2.757-2.007 3.773-3.225 4.281z"/><g transform="translate(-387 -7164) translate(387 7164)"><path d="M142.875 70.965c-1.015 0-2.03-.158-2.967-.552-3.982-1.577-6.169-5.993-5.076-10.014h-.078l.234-.71 20.459-53.697c.312-.788.156-2.681 0-3.706 0-.315 0-.552.078-.71v-.079c0-.079 0-.079.078-.158.312-.867 1.327-1.262 2.967-1.262 1.952 0 4.685.631 7.418 1.656 2.343.946 4.451 2.05 5.935 3.154 1.718 1.34 2.421 2.523 2.03 3.548l-.078.158v.079c-.078.237-.234.394-.39.552-.859.788-2.186 2.129-2.421 2.76l-20.693 54.406h-.078c-1.406 2.76-4.295 4.573-7.418 4.573zm-6.403-10.96l-.078.158c-1.327 3.548.469 7.57 3.982 8.91.781.315 1.64.473 2.421.473 2.811 0 5.31-1.735 6.403-4.416l.078-.158 20.302-53.381c.39-1.183 2.421-2.996 2.889-3.391l.078-.079c.078 0 .078-.079.078-.079 0-.158-.156-.788-1.562-1.892-1.327-1.025-3.358-2.129-5.544-2.996-2.577-1.025-5.154-1.577-6.95-1.577-1.171 0-1.562.237-1.64.394v.079c.078.315.39 3.075-.078 4.494l-20.381 53.46z"/><path d="M162.553 26.02s-2.811 3.312-5.388 4.494c-2.577 1.183-4.451.867-6.794 2.208-2.343 1.34-3.436 3.233-3.436 3.233l-9.37 24.68c-1.015 2.76.469 6.071 3.28 7.175s5.935-.315 7.028-3.154l14.68-38.636zm-9.37 14.193c.469-.237 1.015 0 1.171.473.234.473 0 1.025-.469 1.183-.469.237-1.015 0-1.171-.473-.234-.394 0-.946.469-1.183zm-3.826-4.021c.312-.158.625 0 .781.315.156.315 0 .631-.312.788-.312.158-.625 0-.781-.315-.156-.315.078-.71.312-.788zm-4.139 13.956c-.469.237-1.015 0-1.171-.473-.234-.473 0-1.025.469-1.183.469-.237 1.015 0 1.171.473.234.473 0 .946-.469 1.183zm.859-3.233c-.39-.867 0-1.814.859-2.208.859-.394 1.796 0 2.186.867.39.867 0 1.814-.859 2.208-.859.315-1.796 0-2.186-.867zm2.108 8.595c.312-.158.625 0 .781.315.156.315 0 .631-.312.788-.312.158-.625 0-.781-.315-.078-.315 0-.71.312-.788z"/><ellipse transform="rotate(-68.96 164.505 5.51)" cx="164.505" cy="5.51" rx="1.484" ry="5.756"/><path d="M40.215 32.88c.859.71 2.499.315 3.592-.946 1.171-1.262 1.327-2.917.39-3.627-.859-.71-2.499-.315-3.592.946-1.093 1.262-1.327 2.839-.39 3.627zm-2.655 2.365c-.234 0-.625.394-.312.631.469.158.703.631.703 1.183-.39 2.523-3.514 5.362-4.685 6.308-.312.315.156.946.39.71.625-.552 2.03-1.656 3.202-3.075-1.874 4.179-5.466 9.62-6.872 11.512-5.388 7.648-13.665 14.587-19.365 14.587-4.529 0-8.355-3.075-9.214-7.648-.078-.473-.703-.631-.625.079 1.015 6.308 5.778 8.673 11.557 8.673 6.325 0 13.743-4.652 17.804-9.383 6.637-7.648 10.932-16.48 9.761-21.447-.312-1.892-1.64-2.208-2.343-2.129zm40.605 16.637c1.718-.394 3.202-1.419 3.202-2.917 0-.158-.312-.158-.312 0 0 .946-1.015 1.656-2.186 1.814-2.655.394-8.043-2.76-10.62-6.071 2.655 1.025 8.277-.473 10.854-2.365 2.421-1.735 3.358-3.706 3.592-5.283.312-2.602-2.499-4.179-6.481-2.602-2.499 1.025-5.544 3.312-8.668 7.491 3.28-5.519 9.839-14.508 16.164-20.343 7.809-7.018 12.26-5.677 5.31 1.735-2.889 2.996-8.277 7.018-12.025 8.673-1.171.473-.625 1.183.234.788 3.982-1.735 9.292-5.441 12.494-8.437 9.448-9.147 1.562-16.085-8.902-6.387-7.106 6.623-11.713 13.562-15.773 22.551-1.406 1.656-2.421 3.075-3.67 4.179l-.39.394c-3.436 2.996-8.902 7.096-12.338 7.175-2.421.079-3.436-1.735-2.967-4.179.625-3.706 4.451-8.122 7.731-9.62 4.217-1.971 6.715 1.814 1.171 4.889-2.108 1.104-4.685 1.656-5.7 1.656-1.171 0-1.093.473-.078.552 1.64.079 4.373-.631 6.169-1.498 5.7-2.76 6.013-7.806-.156-8.043-6.715-.237-14.68 5.519-14.602 12.774.078 3.312 2.655 5.046 6.169 5.046 5.935-.079 11.166-4.652 15.461-8.595.625-.552 1.249-1.104 1.796-1.656-1.484 3.864-2.265 7.491-1.952 10.172.234 1.971 1.327 2.839 2.186 3.627.156.158.547 0 .312-.394-1.249-1.498-.859-6.071.859-10.408 1.562 2.917 7.262 6.623 13.119 5.283zm-7.028-12.695c6.95-6.308 9.605-.631 5.232 2.76-2.265 1.735-6.794 3.075-8.277 2.287l-.312-.158c-.156-.315-.39-.631-.469-.946 1.171-1.419 2.499-2.681 3.826-3.942zm38.34-7.096c2.733.315 1.64-3.075-1.171-2.287-1.249.394-2.499 2.76-3.358 4.968-2.733 4.179-7.418 9.935-10.698 12.931-2.889 2.523-5.544 3.154-2.265-1.498 1.327-1.892 2.967-3.864 3.982-5.914 2.265-5.046-2.577-7.333-6.481-4.258-2.265 1.735-5.388 5.441-7.809 7.412-.625.552-.469 1.34.156.788 1.952-1.577 5.31-5.204 8.199-7.333 2.421-1.892 3.358-.631 1.952.946-1.952 2.287-5.31 6.15-6.169 8.673-1.171 3.706.234 5.362 2.655 5.362 3.28 0 8.277-5.204 11.557-9.383 1.093-1.419 2.265-2.996 3.28-4.652-2.889 5.677-5.856 11.354-9.605 16.558-5.31 7.333-11.947 12.774-18.194 12.774-4.529 0-8.433-3.075-9.292-7.648-.078-.473-.625-.631-.625.079 1.015 6.308 5.778 8.673 11.557 8.673 6.325 0 12.416-3.706 16.632-8.279 8.59-9.225 9.683-19.555 12.26-25.311 1.406-2.602 2.577-2.681 3.436-2.602zm35.061-8.831c1.249-2.208 1.171-3.864-1.718-3.864-2.186.079-6.247 1.656-8.121 3.075-.39.394-.234.631.312.394l1.171-.552c2.108-1.183 1.249 1.262.781 2.208-2.499 4.494-6.95 10.724-9.292 13.799-1.093 1.498-2.421 3.075-3.592 4.337-2.265 2.129-6.715 5.993-10.073 7.333-11.01 4.179 2.967-14.745 4.139-16.243 2.577-3.312 8.355-8.989 10.073-11.827 1.249-2.208 1.171-3.864-1.718-3.864-2.186.079-6.247 1.656-8.121 3.075-.39.394-.234.631.312.394l1.171-.552c2.108-1.183 1.249 1.262.781 2.208-2.499 4.494-6.95 10.724-9.292 13.799-1.952 2.602-4.295 5.204-6.091 6.702-.703.631-.312 1.183.39.631.625-.394 1.64-1.419 2.655-2.523-1.952 4.021-3.592 9.699 1.64 10.329 4.451.631 9.761-4.021 13.197-7.412l1.249-1.262.312-.315c-1.952 4.021-3.592 9.62 1.64 10.329 5.7.788 12.806-7.018 15.617-9.856.547-.552.39-1.498-.547-.552-1.64 1.656-7.106 6.781-11.088 8.279-11.01 4.179 2.967-14.745 4.139-16.243 2.499-3.233 8.277-8.989 10.073-11.827z"/></g><g><path d="M455.401 32.714c1.907 0 3.285-1.35 3.285-3.22s-1.378-3.22-3.285-3.22c-1.907.312-3.285 1.558-3.285 3.428 0 1.662 1.378 3.012 3.285 3.012z"/><path d="M486.555 34.792c.848-3.428 1.378-6.128 1.378-6.128l-5.934.831-1.06 5.297h-1.378l-.318 1.558h1.378l-2.437 11.737c-.318.831-.318 1.35-.318 2.077 0 2.389 1.06 4.466 4.027 4.466 1.378 0 2.967-.519 4.345-3.739h-1.06c-1.06 0-1.378-.519-1.378-1.35 0-.519 0-.831.318-1.35l2.437-11.633h2.437l.318-1.558h-2.755v-.208z"/><path d="M449.15 37.7c0-1.558-1.06-2.908-2.755-2.908-1.907 0-3.497 1.35-4.874 2.389l.53-2.389h-5.722l-2.755 12.464c-1.907 2.077-3.815 3.947-6.994 3.947-1.907 0-2.967-.519-2.967-3.22 0-4.259 2.437-11.426 5.192-11.426.848 0 1.06.519 1.06 1.558 0 .519-.318 1.35-.53 2.389.53.312.848.519 1.378.519 1.06 0 2.119-1.039 2.119-2.908 0-1.87-.848-3.428-4.345-3.428-8.159 0-10.808 9.244-10.596 13.815 0 4.466 2.437 6.128 6.252 6.128 4.027 0 6.782-2.077 8.901-4.466l-.848 4.259h5.722l3.285-14.853c1.06-.831 1.589-1.558 2.967-1.558 1.378 0 0 2.701 2.437 2.701 1.695-.104 2.543-1.662 2.543-3.012z"/><path d="M472.144 34.792c-1.907 0-3.497.831-4.556 1.558l.53-2.908h-5.722l-2.967 14.022c-.53 1.87-2.119 3.428-3.497 3.428-1.06 0-1.589-.312-1.589-1.35 0-.312 0-.831.318-1.35l2.967-13.295h-5.722l-2.755 12.464c-.318 1.039-.318 1.87-.318 2.701 0 3.22 1.907 4.778 4.345 4.778 1.378 0 3.815-.519 5.722-2.701l-2.755 12.153 5.934-1.35 2.119-9.556c.53.831 1.378 1.35 3.285 1.35 7.841 0 9.749-8.517 9.749-13.815-.212-4.778-2.331-6.128-5.086-6.128zm-6.252 16.411c-.848 0-1.378-.519-1.589-.831l2.437-10.906c.848-1.35 1.907-1.87 2.755-1.87.848 0 1.907.312 1.907 3.22 0 3.532-1.378 10.387-5.51 10.387z"/><path d="M367.557 34.792h-4.027l.848-3.22c.53-2.701 1.907-3.22 2.755-3.22.848 0 1.589.519 1.589 1.35v1.039h1.907v-1.558c0-2.701-2.119-4.259-4.556-4.259-1.589 0-3.815.519-5.404 2.389-.848-1.558-2.437-2.389-4.345-2.389-2.755 0-5.934 1.039-7.312 6.648l-1.907 8.206c-1.06.519-2.119.831-3.285.831h-.53c.318-3.947-1.378-6.128-4.874-6.128-8.159 0-10.808 8.725-10.808 13.503-1.907 1.87-4.345 3.22-6.994 3.22-3.815 0-4.874-2.389-4.874-6.128 0-7.998 3.815-18.281 8.371-18.281 1.907 0 2.437 1.039 2.437 2.389 0 1.558-.848 3.22-1.907 3.428.848.831 1.589 1.039 2.119 1.039 2.119 0 2.755-1.558 2.755-3.428 0-3.739-2.967-5.297-6.782-5.297-10.279 0-13.775 13.295-13.775 20.462s2.755 9.556 8.689 9.556c2.967 0 7.312-1.35 10.067-4.778.53 3.22 2.967 4.466 6.252 4.466 4.874 0 8.901-4.466 9.431-11.633 1.06-.312 2.119-.519 3.285-1.039l-2.755 12.153c-3.815 1.039-6.782 2.389-6.782 5.817 0 2.701 2.119 4.259 4.556 4.259 1.907 0 3.815-.519 5.404-2.389.53 1.558 2.119 2.389 4.345 2.389 2.755 0 5.934-1.039 7.312-6.648l4.556-20.982h4.027l.212-1.766zm-27.551 8.206c-.53 4.466-2.755 8.206-4.556 8.206-1.589 0-2.119-.519-2.119-3.22 0-3.739 2.437-10.906 5.404-10.906 1.06 0 1.378.519 1.589 2.389-.848.312-1.378 1.039-1.378 2.077-.106.415.212 1.246 1.06 1.454zm3.497 14.646c-.53 2.389-1.589 3.22-2.437 3.22-.848 0-1.589-.831-1.589-1.35 0-2.077 1.907-3.22 4.345-3.947l-.318 2.077zm9.431 0c-.53 2.389-1.589 3.22-2.437 3.22-1.06 0-1.907-.312-2.119-.831.318-.519.53-1.558.848-2.389l.848-3.428 4.027-.831-1.166 4.259zm1.378-5.401l-4.027.831 3.497-16.411h4.027l-3.497 15.58zm4.662-21.397l-.848 3.947h-4.027l.53-3.22c.53-2.701 1.907-3.22 2.755-3.22.848 0 1.589.519 1.589 1.35v1.143z"/><path d="M412.274 32.922c.53.519 1.06.831 1.907.831 1.907 0 3.285-1.558 3.285-3.947 0-4.259-4.556-4.778-6.464-4.778-5.192 0-9.219 2.908-9.219 6.855 0 5.817 8.159 8.206 8.159 14.853 0 3.22-1.907 5.297-4.556 5.297-2.437 0-3.815-1.87-3.815-3.739 0-2.701 2.437-3.739 4.556-3.739 0-2.077-2.119-2.701-3.497-2.701-2.755 0-5.934 2.077-5.934 6.336 0 4.778 3.815 6.648 8.371 6.648 5.722 0 11.126-3.22 11.126-9.764 0-8.517-8.901-9.244-8.901-14.853 0-2.389 1.378-3.428 3.815-3.428 2.437 0 2.967 1.35 2.967 2.701 0 1.35-.636 2.597-1.801 3.428z"/><path d="M395.743 38.219c0-1.87-.848-3.739-4.345-3.739-7.841 0-10.596 8.725-10.808 13.503-1.907 1.87-3.815 3.428-6.464 3.428-1.907 0-2.967-.519-2.755-3.22v-1.558c4.874-.312 9.219-3.739 9.219-8.206 0-1.87-.848-3.739-4.345-3.739-8.159 0-10.808 9.244-10.808 13.815 0 4.57 2.437 6.128 6.252 6.128 4.027 0 6.994-2.077 9.219-4.778.53 3.428 2.755 4.778 5.934 4.778 3.179 0 5.934-1.35 6.782-5.817-1.378 1.039-3.285 2.077-4.556 2.077-1.272 0-2.437-.831-2.437-3.22v-1.039c4.556-.415 9.113-3.843 9.113-8.413zm-4.027-1.558c.53 0 .848.519.848 1.558 0 3.22-2.755 6.336-5.934 6.336 1.06-3.635 2.967-7.894 5.086-7.894zm-15.471 0c.848 0 1.06.519 1.06 1.558 0 3.22-2.755 6.336-5.722 6.336.636-3.635 2.755-7.894 4.662-7.894z"/></g></g></svg>