<?xml version="1.0" encoding="utf-8"?>
<!-- Generator: Adobe Illustrator 18.1.1, SVG Export Plug-In . SVG Version: 6.00 Build 0)  -->
<!DOCTYPE svg PUBLIC "-//W3C//DTD SVG 1.1//EN" "http://www.w3.org/Graphics/SVG/1.1/DTD/svg11.dtd">
<svg version="1.1" id="Layer_1" xmlns="http://www.w3.org/2000/svg" xmlns:xlink="http://www.w3.org/1999/xlink" x="0px" y="0px"
	 viewBox="0 0 756 320" enable-background="new 0 0 756 320" xml:space="preserve">
<g id="Layer_1_1_">
	<rect fill="#27415A" width="756" height="320"/>
</g>
<g>
	<path opacity="0.25" fill="#FFFFFF" d="M247.5,161.6c0-2-1.2-4-7.5-4V156c6.2,0,7.5-2,7.5-4c0-3.2-0.5-6.9-0.5-10.3
		c0-5,3.1-6.4,9.2-6.4h2.6v1.5H256c-5.7,0-6.9,1.5-6.9,5.1c0,3,0.4,6.4,0.4,9.6c0,2.9-1,4.6-4.3,5.2v0.2c3.3,0.6,4.3,2.3,4.3,5.2
		c0,3.6-0.4,6.3-0.4,9.6c0,3.6,1.2,5.1,6.9,5.1h2.9v1.5h-2.6c-6.2,0-9.2-1.4-9.2-6.4C247.1,168.2,247.5,165.2,247.5,161.6z"/>
	<path opacity="0.25" fill="#FFFFFF" d="M276.3,161.6c0-2-1.2-4-7.5-4V156c6.2,0,7.5-2,7.5-4c0-3.2-0.5-6.9-0.5-10.3
		c0-5,3.1-6.4,9.2-6.4h2.6v1.5h-2.9c-5.7,0-6.9,1.5-6.9,5.1c0,3,0.4,6.4,0.4,9.6c0,2.9-1,4.6-4.3,5.2v0.2c3.3,0.6,4.3,2.3,4.3,5.2
		c0,3.6-0.4,6.3-0.4,9.6c0,3.6,1.2,5.1,6.9,5.1h2.9v1.5H285c-6.2,0-9.2-1.4-9.2-6.4C275.8,168.2,276.3,165.2,276.3,161.6z"/>
	<path fill="#FFFFFF" d="M325.3,166c2.6,2.1,5.7,3.5,10.7,3.5c5,0,7.5-2.2,7.5-4.8c0-2.2-1.5-3.8-8.6-5.5c-5.4-1.3-9.5-3.5-9.5-6.7
		c0-3.5,3-6.4,9.4-6.4c3.2,0,6.9,1.2,9.2,3l-1.2,1.6c-2.1-1.6-4.8-2.7-8.1-2.7c-5.4,0-7.1,2.1-7.1,4.4c0,2.3,3.2,3.8,8.1,5
		c7.5,1.9,10,3.8,10,7.2c0,3.6-3.6,6.8-9.9,6.8c-5,0-9-1.8-11.8-3.8L325.3,166z"/>
	<path fill="#FFFFFF" d="M363.6,146.1c6.3,0,11.7,4.6,11.7,12.7c0,8-5.4,12.6-11.7,12.6s-11.7-4.6-11.7-12.6
		C352,150.7,357.3,146.1,363.6,146.1z M363.6,169.4c5.4,0,9.3-4.3,9.3-10.6c0-6.4-3.9-10.7-9.3-10.7s-9.3,4.4-9.3,10.7
		C354.3,165.1,358.2,169.4,363.6,169.4z"/>
	<path fill="#FFFFFF" d="M385.5,146.7h1.9l0.2,5.9h0.1c2.6-3.8,6.5-6.5,11.3-6.5c1.6,0,3.3,0.2,4.8,1l-0.6,2
		c-1.8-0.6-2.7-0.8-4.6-0.8c-4,0-7.7,2-11,7.5v15h-2.3V146.7z"/>
	<path fill="#FFFFFF" d="M417.4,148.6h-7.2v-1.7l7.3-0.2l0.3-7h1.9v7h12.8v1.9h-12.8V162c0,4.6,1.3,7.5,6.7,7.5
		c2.5,0,4.5-0.5,6.5-1.2l0.6,1.7c-2.2,0.9-5.1,1.5-7.4,1.5c-6.5,0-8.6-3.9-8.6-9.6V148.6z"/>
	<path opacity="0.25" fill="#FFFFFF" d="M471.3,176.9c5.7,0,7-1.5,7-5.1c0-3.3-0.4-6-0.4-9.6c0-2.9,0.9-4.6,4.2-5.2v-0.2
		c-3.4-0.6-4.2-2.3-4.2-5.2c0-3.2,0.4-6.6,0.4-9.6c0-3.5-1.3-5.1-7-5.1h-2.9v-1.5h2.6c6.2,0,9.2,1.4,9.2,6.4c0,3.4-0.4,7.1-0.4,10.3
		c0,2,1.2,4,7.4,4v1.6c-6.2,0-7.4,2-7.4,4c0,3.5,0.4,6.6,0.4,10.3c0,5-3,6.4-9.2,6.4h-2.6v-1.5H471.3z"/>
	<path opacity="0.25" fill="#FFFFFF" d="M500,176.9c5.7,0,7-1.5,7-5.1c0-3.3-0.4-6-0.4-9.6c0-2.9,0.9-4.6,4.2-5.2v-0.2
		c-3.4-0.6-4.2-2.3-4.2-5.2c0-3.2,0.4-6.6,0.4-9.6c0-3.5-1.3-5.1-7-5.1h-2.9v-1.5h2.6c6.2,0,9.2,1.4,9.2,6.4c0,3.4-0.4,7.1-0.4,10.3
		c0,2,1.2,4,7.4,4v1.6c-6.2,0-7.4,2-7.4,4c0,3.5,0.4,6.6,0.4,10.3c0,5-3,6.4-9.2,6.4h-2.6v-1.5H500z"/>
</g>
<g>
</g>
<g>
</g>
<g>
</g>
<g>
</g>
<g>
</g>
<g>
</g>
</svg>
