<svg xmlns="http://www.w3.org/2000/svg" viewBox="0 0 756 320" enable-background="new 0 0 756 320"><path fill="#27415A" d="M0 0h756v320h-756z"/><g fill="#fff"><path opacity=".25" d="M247.5 161.6c0-2-1.2-4-7.5-4v-1.6c6.2 0 7.5-2 7.5-4 0-3.2-.5-6.9-.5-10.3 0-5 3.1-6.4 9.2-6.4h2.6v1.5h-2.8c-5.7 0-6.9 1.5-6.9 5.1 0 3 .4 6.4.4 9.6 0 2.9-1 4.6-4.3 5.2v.2c3.3.6 4.3 2.3 4.3 5.2 0 3.6-.4 6.3-.4 9.6 0 3.6 1.2 5.1 6.9 5.1h2.9v1.5h-2.6c-6.2 0-9.2-1.4-9.2-6.4 0-3.7.4-6.7.4-10.3zM276.3 161.6c0-2-1.2-4-7.5-4v-1.6c6.2 0 7.5-2 7.5-4 0-3.2-.5-6.9-.5-10.3 0-5 3.1-6.4 9.2-6.4h2.6v1.5h-2.9c-5.7 0-6.9 1.5-6.9 5.1 0 3 .4 6.4.4 9.6 0 2.9-1 4.6-4.3 5.2v.2c3.3.6 4.3 2.3 4.3 5.2 0 3.6-.4 6.3-.4 9.6 0 3.6 1.2 5.1 6.9 5.1h2.9v1.5h-2.6c-6.2 0-9.2-1.4-9.2-6.4 0-3.7.5-6.7.5-10.3z"/><path d="M325.3 166c2.6 2.1 5.7 3.5 10.7 3.5 5 0 7.5-2.2 7.5-4.8 0-2.2-1.5-3.8-8.6-5.5-5.4-1.3-9.5-3.5-9.5-6.7 0-3.5 3-6.4 9.4-6.4 3.2 0 6.9 1.2 9.2 3l-1.2 1.6c-2.1-1.6-4.8-2.7-8.1-2.7-5.4 0-7.1 2.1-7.1 4.4 0 2.3 3.2 3.8 8.1 5 7.5 1.9 10 3.8 10 7.2 0 3.6-3.6 6.8-9.9 6.8-5 0-9-1.8-11.8-3.8l1.3-1.6zM363.6 146.1c6.3 0 11.7 4.6 11.7 12.7 0 8-5.4 12.6-11.7 12.6s-11.7-4.6-11.7-12.6c.1-8.1 5.4-12.7 11.7-12.7zm0 23.3c5.4 0 9.3-4.3 9.3-10.6 0-6.4-3.9-10.7-9.3-10.7s-9.3 4.4-9.3 10.7c0 6.3 3.9 10.6 9.3 10.6zM385.5 146.7h1.9l.2 5.9h.1c2.6-3.8 6.5-6.5 11.3-6.5 1.6 0 3.3.2 4.8 1l-.6 2c-1.8-.6-2.7-.8-4.6-.8-4 0-7.7 2-11 7.5v15h-2.3v-24.1zM417.4 148.6h-7.2v-1.7l7.3-.2.3-7h1.9v7h12.8v1.9h-12.8v13.4c0 4.6 1.3 7.5 6.7 7.5 2.5 0 4.5-.5 6.5-1.2l.6 1.7c-2.2.9-5.1 1.5-7.4 1.5-6.5 0-8.6-3.9-8.6-9.6v-13.3z"/><path opacity=".25" d="M471.3 176.9c5.7 0 7-1.5 7-5.1 0-3.3-.4-6-.4-9.6 0-2.9.9-4.6 4.2-5.2v-.2c-3.4-.6-4.2-2.3-4.2-5.2 0-3.2.4-6.6.4-9.6 0-3.5-1.3-5.1-7-5.1h-2.9v-1.5h2.6c6.2 0 9.2 1.4 9.2 6.4 0 3.4-.4 7.1-.4 10.3 0 2 1.2 4 7.4 4v1.6c-6.2 0-7.4 2-7.4 4 0 3.5.4 6.6.4 10.3 0 5-3 6.4-9.2 6.4h-2.6v-1.5h2.9zM500 176.9c5.7 0 7-1.5 7-5.1 0-3.3-.4-6-.4-9.6 0-2.9.9-4.6 4.2-5.2v-.2c-3.4-.6-4.2-2.3-4.2-5.2 0-3.2.4-6.6.4-9.6 0-3.5-1.3-5.1-7-5.1h-2.9v-1.5h2.6c6.2 0 9.2 1.4 9.2 6.4 0 3.4-.4 7.1-.4 10.3 0 2 1.2 4 7.4 4v1.6c-6.2 0-7.4 2-7.4 4 0 3.5.4 6.6.4 10.3 0 5-3 6.4-9.2 6.4h-2.6v-1.5h2.9z"/></g></svg>