<?xml version="1.0" encoding="utf-8"?>
<!-- Generator: Adobe Illustrator 18.1.1, SVG Export Plug-In . SVG Version: 6.00 Build 0)  -->
<!DOCTYPE svg PUBLIC "-//W3C//DTD SVG 1.1//EN" "http://www.w3.org/Graphics/SVG/1.1/DTD/svg11.dtd">
<svg version="1.1" id="Layer_1" xmlns="http://www.w3.org/2000/svg" xmlns:xlink="http://www.w3.org/1999/xlink" x="0px" y="0px"
	 viewBox="0 0 756 320" enable-background="new 0 0 756 320" xml:space="preserve">
<g id="Layer_1_1_">
	<rect fill="#27415A" width="756" height="320"/>
</g>
<g>
	<path opacity="0.25" fill="#FFFFFF" d="M233.2,161.6c0-2-1.2-4-7.5-4V156c6.2,0,7.5-2,7.5-4c0-3.2-0.5-6.9-0.5-10.3
		c0-5,3.1-6.4,9.2-6.4h2.6v1.5h-2.9c-5.7,0-6.9,1.5-6.9,5.1c0,3,0.4,6.4,0.4,9.6c0,2.9-1,4.6-4.3,5.2v0.2c3.3,0.6,4.3,2.3,4.3,5.2
		c0,3.6-0.4,6.3-0.4,9.6c0,3.6,1.2,5.1,6.9,5.1h2.9v1.5h-2.6c-6.2,0-9.2-1.4-9.2-6.4C232.7,168.2,233.2,165.2,233.2,161.6z"/>
	<path opacity="0.25" fill="#FFFFFF" d="M261.9,161.6c0-2-1.2-4-7.5-4V156c6.2,0,7.5-2,7.5-4c0-3.2-0.5-6.9-0.5-10.3
		c0-5,3.1-6.4,9.2-6.4h2.6v1.5h-2.9c-5.7,0-6.9,1.5-6.9,5.1c0,3,0.4,6.4,0.4,9.6c0,2.9-1,4.6-4.3,5.2v0.2c3.3,0.6,4.3,2.3,4.3,5.2
		c0,3.6-0.4,6.3-0.4,9.6c0,3.6,1.2,5.1,6.9,5.1h2.9v1.5h-2.6c-6.2,0-9.2-1.4-9.2-6.4C261.5,168.2,261.9,165.2,261.9,161.6z"/>
	<path fill="#FFFFFF" d="M306.1,146.7h2.4l3.9,15.6c0.5,2.2,1,4.2,1.5,6.4h0.2c0.6-2.2,1.1-4.2,1.6-6.4l3.9-15.2h2.4l3.9,15.2
		c0.5,2.2,1,4.2,1.6,6.4h0.2c0.5-2.2,1-4.2,1.5-6.4l3.8-15.6h2.2l-6.1,24H326l-3.8-14.7c-0.6-2.3-1-4.5-1.6-6.9h-0.2
		c-0.5,2.2-1,4.5-1.6,7l-3.7,14.6h-2.9L306.1,146.7z"/>
	<path fill="#FFFFFF" d="M339.5,134.8h2.2v10.4l-0.1,6.3c3-3.1,5.9-5.4,9.7-5.4c5.9,0,8.7,3.2,8.7,9.7v15h-2.2v-14.7
		c0-5.4-2-8-6.8-8c-3.4,0-5.8,1.8-9.2,5.4v17.2h-2.2V134.8z"/>
	<path fill="#FFFFFF" d="M378.9,146.1c6.6,0,10.8,4.2,10.8,11.1c0,0.6,0,1.2-0.1,1.8h-20.4c0.1,6,4.3,10.4,10.6,10.4
		c3.2,0,5.8-1,8-2.6l0.9,1.7c-2.2,1.4-4.9,2.8-9.1,2.8c-6.9,0-12.7-4.7-12.7-12.6S372.8,146.1,378.9,146.1z M387.5,157.2
		c0-6-3.4-9.2-8.6-9.2c-4.8,0-9.1,3.5-9.8,9.2H387.5z"/>
	<path fill="#FFFFFF" d="M399.9,146.7h1.9l0.2,5.9h0.1c2.6-3.8,6.5-6.5,11.3-6.5c1.6,0,3.3,0.2,4.8,1l-0.6,2
		c-1.8-0.6-2.6-0.8-4.5-0.8c-4,0-7.7,2-11,7.5v15h-2.2V146.7z"/>
	<path fill="#FFFFFF" d="M436.4,146.1c6.5,0,10.8,4.2,10.8,11.1c0,0.6,0,1.2-0.1,1.8h-20.4c0.1,6,4.3,10.4,10.6,10.4
		c3.2,0,5.8-1,8-2.6l0.9,1.7c-2.2,1.4-4.9,2.8-9.1,2.8c-6.9,0-12.7-4.7-12.7-12.6S430.2,146.1,436.4,146.1z M445,157.2
		c0-6-3.4-9.2-8.6-9.2c-4.8,0-9.1,3.5-9.8,9.2H445z"/>
	<path opacity="0.25" fill="#FFFFFF" d="M485.6,176.9c5.7,0,7-1.5,7-5.1c0-3.3-0.4-6-0.4-9.6c0-2.9,0.9-4.6,4.2-5.2v-0.2
		c-3.4-0.6-4.2-2.3-4.2-5.2c0-3.2,0.4-6.6,0.4-9.6c0-3.5-1.3-5.1-7-5.1h-2.9v-1.5h2.6c6.2,0,9.2,1.4,9.2,6.4c0,3.4-0.4,7.1-0.4,10.3
		c0,2,1.2,4,7.4,4v1.6c-6.2,0-7.4,2-7.4,4c0,3.5,0.4,6.6,0.4,10.3c0,5-3,6.4-9.2,6.4h-2.6v-1.5H485.6z"/>
	<path opacity="0.25" fill="#FFFFFF" d="M514.4,176.9c5.7,0,7-1.5,7-5.1c0-3.3-0.4-6-0.4-9.6c0-2.9,0.8-4.6,4.2-5.2v-0.2
		c-3.4-0.6-4.2-2.3-4.2-5.2c0-3.2,0.4-6.6,0.4-9.6c0-3.5-1.3-5.1-7-5.1h-2.9v-1.5h2.6c6.2,0,9.2,1.4,9.2,6.4c0,3.4-0.4,7.1-0.4,10.3
		c0,2,1.2,4,7.4,4v1.6c-6.2,0-7.4,2-7.4,4c0,3.5,0.4,6.6,0.4,10.3c0,5-3,6.4-9.2,6.4h-2.6v-1.5H514.4z"/>
</g>
<g>
</g>
<g>
</g>
<g>
</g>
<g>
</g>
<g>
</g>
<g>
</g>
</svg>
