<svg xmlns="http://www.w3.org/2000/svg" viewBox="0 0 756 320" enable-background="new 0 0 756 320"><path fill="#27415A" d="M0 0h756v320h-756z"/><g fill="#fff"><path opacity=".25" d="M233.2 161.6c0-2-1.2-4-7.5-4v-1.6c6.2 0 7.5-2 7.5-4 0-3.2-.5-6.9-.5-10.3 0-5 3.1-6.4 9.2-6.4h2.6v1.5h-2.9c-5.7 0-6.9 1.5-6.9 5.1 0 3 .4 6.4.4 9.6 0 2.9-1 4.6-4.3 5.2v.2c3.3.6 4.3 2.3 4.3 5.2 0 3.6-.4 6.3-.4 9.6 0 3.6 1.2 5.1 6.9 5.1h2.9v1.5h-2.6c-6.2 0-9.2-1.4-9.2-6.4 0-3.7.5-6.7.5-10.3zM261.9 161.6c0-2-1.2-4-7.5-4v-1.6c6.2 0 7.5-2 7.5-4 0-3.2-.5-6.9-.5-10.3 0-5 3.1-6.4 9.2-6.4h2.6v1.5h-2.9c-5.7 0-6.9 1.5-6.9 5.1 0 3 .4 6.4.4 9.6 0 2.9-1 4.6-4.3 5.2v.2c3.3.6 4.3 2.3 4.3 5.2 0 3.6-.4 6.3-.4 9.6 0 3.6 1.2 5.1 6.9 5.1h2.9v1.5h-2.6c-6.2 0-9.2-1.4-9.2-6.4.1-3.7.5-6.7.5-10.3z"/><path d="M306.1 146.7h2.4l3.9 15.6 1.5 6.4h.2c.6-2.2 1.1-4.2 1.6-6.4l3.9-15.2h2.4l3.9 15.2c.5 2.2 1 4.2 1.6 6.4h.2l1.5-6.4 3.8-15.6h2.2l-6.1 24h-3.1l-3.8-14.7c-.6-2.3-1-4.5-1.6-6.9h-.2c-.5 2.2-1 4.5-1.6 7l-3.7 14.6h-2.9l-6.1-24zM339.5 134.8h2.2v10.4l-.1 6.3c3-3.1 5.9-5.4 9.7-5.4 5.9 0 8.7 3.2 8.7 9.7v15h-2.2v-14.7c0-5.4-2-8-6.8-8-3.4 0-5.8 1.8-9.2 5.4v17.2h-2.2v-35.9zM378.9 146.1c6.6 0 10.8 4.2 10.8 11.1 0 .6 0 1.2-.1 1.8h-20.4c.1 6 4.3 10.4 10.6 10.4 3.2 0 5.8-1 8-2.6l.9 1.7c-2.2 1.4-4.9 2.8-9.1 2.8-6.9 0-12.7-4.7-12.7-12.6s5.9-12.6 12-12.6zm8.6 11.1c0-6-3.4-9.2-8.6-9.2-4.8 0-9.1 3.5-9.8 9.2h18.4zM399.9 146.7h1.9l.2 5.9h.1c2.6-3.8 6.5-6.5 11.3-6.5 1.6 0 3.3.2 4.8 1l-.6 2c-1.8-.6-2.6-.8-4.5-.8-4 0-7.7 2-11 7.5v15h-2.2v-24.1zM436.4 146.1c6.5 0 10.8 4.2 10.8 11.1 0 .6 0 1.2-.1 1.8h-20.4c.1 6 4.3 10.4 10.6 10.4 3.2 0 5.8-1 8-2.6l.9 1.7c-2.2 1.4-4.9 2.8-9.1 2.8-6.9 0-12.7-4.7-12.7-12.6s5.8-12.6 12-12.6zm8.6 11.1c0-6-3.4-9.2-8.6-9.2-4.8 0-9.1 3.5-9.8 9.2h18.4z"/><path opacity=".25" d="M485.6 176.9c5.7 0 7-1.5 7-5.1 0-3.3-.4-6-.4-9.6 0-2.9.9-4.6 4.2-5.2v-.2c-3.4-.6-4.2-2.3-4.2-5.2 0-3.2.4-6.6.4-9.6 0-3.5-1.3-5.1-7-5.1h-2.9v-1.5h2.6c6.2 0 9.2 1.4 9.2 6.4 0 3.4-.4 7.1-.4 10.3 0 2 1.2 4 7.4 4v1.6c-6.2 0-7.4 2-7.4 4 0 3.5.4 6.6.4 10.3 0 5-3 6.4-9.2 6.4h-2.6v-1.5h2.9zM514.4 176.9c5.7 0 7-1.5 7-5.1 0-3.3-.4-6-.4-9.6 0-2.9.8-4.6 4.2-5.2v-.2c-3.4-.6-4.2-2.3-4.2-5.2 0-3.2.4-6.6.4-9.6 0-3.5-1.3-5.1-7-5.1h-2.9v-1.5h2.6c6.2 0 9.2 1.4 9.2 6.4 0 3.4-.4 7.1-.4 10.3 0 2 1.2 4 7.4 4v1.6c-6.2 0-7.4 2-7.4 4 0 3.5.4 6.6.4 10.3 0 5-3 6.4-9.2 6.4h-2.6v-1.5h2.9z"/></g></svg>